M48
; DRILL file {KiCad 7.0.11+dfsg-1build4} date Thu Oct  1 14:44:05 2026
; FORMAT={-:-/ absolute / metric / decimal}
; #@! TF.CreationDate,2026-10-01T14:44:05+00:00
; #@! TF.GenerationSoftware,Kicad,Pcbnew,7.0.11+dfsg-1build4
; #@! TF.FileFunction,MixedPlating,1,2
FMAT,2
METRIC
; #@! TA.AperFunction,Plated,PTH,ViaDrill
T1C0.400
; #@! TA.AperFunction,Plated,PTH,ComponentDrill
T2C0.800
; #@! TA.AperFunction,Plated,PTH,ComponentDrill
T3C1.000
; #@! TA.AperFunction,Plated,PTH,ComponentDrill
T4C1.020
; #@! TA.AperFunction,Plated,PTH,ComponentDrill
T5C1.200
; #@! TA.AperFunction,NonPlated,NPTH,ComponentDrill
T6C3.000
; #@! TA.AperFunction,NonPlated,NPTH,ComponentDrill
T7C3.200
%
G90
G05
T1
X15.5Y-17.0
X31.775Y-26.3
X35.75Y-8.5
X77.525Y-43.5
X88.513Y-45.0
X88.875Y-55.0
X89.05Y-52.0
X95.5Y-50.0
T2
X28.75Y-17.0
X32.25Y-17.0
T3
X76.0Y-53.0
X76.0Y-58.0
T4
X9.1Y-14.0
X12.1Y-14.0
X85.0Y-57.9
X85.0Y-60.9
X88.0Y-57.9
X88.0Y-60.9
T5
X27.14Y-25.92
X27.14Y-31.0
X27.14Y-36.08
X72.86Y-25.92
X72.86Y-31.0
X72.86Y-36.08
T6
X4.78Y-14.0
X86.5Y-65.22
T7
X4.0Y-4.0
X4.0Y-66.0
X96.0Y-4.0
X96.0Y-66.0
M30
