M48
; DRILL file {KiCad 7.0.11+dfsg-1build4} date Thu Oct  1 08:28:47 2026
; FORMAT={-:-/ absolute / metric / decimal}
; #@! TF.CreationDate,2026-10-01T08:28:47+00:00
; #@! TF.GenerationSoftware,Kicad,Pcbnew,7.0.11+dfsg-1build4
; #@! TF.FileFunction,MixedPlating,1,2
FMAT,2
METRIC
; #@! TA.AperFunction,Plated,PTH,ViaDrill
T1C0.400
; #@! TA.AperFunction,Plated,PTH,ComponentDrill
T2C0.800
; #@! TA.AperFunction,Plated,PTH,ComponentDrill
T3C1.000
; #@! TA.AperFunction,Plated,PTH,ComponentDrill
T4C1.020
; #@! TA.AperFunction,Plated,PTH,ComponentDrill
T5C1.200
; #@! TA.AperFunction,NonPlated,NPTH,ComponentDrill
T6C3.200
%
G90
G05
T1
X15.5Y-17.0
X31.825Y-26.3
X35.8Y-8.5
X72.3Y-50.0
X72.3Y-54.0
X85.5Y-53.0
X88.4Y-59.5
T2
X28.75Y-17.0
X32.25Y-17.0
T3
X68.5Y-60.0
X73.5Y-60.0
T4
X6.0Y-14.0
X9.0Y-14.0
X81.7Y-63.0
X81.7Y-66.0
X84.7Y-63.0
X84.7Y-66.0
T5
X27.14Y-25.92
X27.14Y-31.0
X27.14Y-36.08
X72.86Y-25.92
X72.86Y-31.0
X72.86Y-36.08
T6
X4.0Y-4.0
X4.0Y-66.0
X96.0Y-4.0
X96.0Y-66.0
M30
