%TF.GenerationSoftware,KiCad,Pcbnew,7.0.11+dfsg-1build4*%
%TF.CreationDate,2026-10-01T14:44:05+00:00*%
%TF.ProjectId,OSBAMS_Pi_Display_Power_RevA,4f534241-4d53-45f5-9069-5f446973706c,rev?*%
%TF.SameCoordinates,Original*%
%TF.FileFunction,Drillmap*%
%TF.FilePolarity,Positive*%
%FSLAX45Y45*%
G04 Gerber Fmt 4.5, Leading zero omitted, Abs format (unit mm)*
G04 Created by KiCad (PCBNEW 7.0.11+dfsg-1build4) date 2026-10-01 14:44:05*
%MOMM*%
%LPD*%
G01*
G04 APERTURE LIST*
%ADD10C,0.100000*%
%ADD11C,0.200000*%
%ADD12C,0.102000*%
%ADD13C,0.120000*%
%ADD14C,0.300000*%
%ADD15C,0.320000*%
G04 APERTURE END LIST*
D10*
X0Y0D02*
X10000000Y0D01*
X10000000Y0D02*
X10000000Y-7000000D01*
X0Y-7000000D02*
X0Y0D01*
X10000000Y-7000000D02*
X0Y-7000000D01*
D11*
D10*
X1530000Y-1680000D02*
X1570000Y-1720000D01*
X1570000Y-1680000D02*
X1530000Y-1720000D01*
X3157500Y-2610000D02*
X3197500Y-2650000D01*
X3197500Y-2610000D02*
X3157500Y-2650000D01*
X3555000Y-830000D02*
X3595000Y-870000D01*
X3595000Y-830000D02*
X3555000Y-870000D01*
X7732500Y-4330000D02*
X7772500Y-4370000D01*
X7772500Y-4330000D02*
X7732500Y-4370000D01*
X8831250Y-4480000D02*
X8871250Y-4520000D01*
X8871250Y-4480000D02*
X8831250Y-4520000D01*
X8867500Y-5480000D02*
X8907500Y-5520000D01*
X8907500Y-5480000D02*
X8867500Y-5520000D01*
X8885000Y-5180000D02*
X8925000Y-5220000D01*
X8925000Y-5180000D02*
X8885000Y-5220000D01*
X9530000Y-4980000D02*
X9570000Y-5020000D01*
X9570000Y-4980000D02*
X9530000Y-5020000D01*
X2915000Y-1700000D02*
G75*
G03*
X2835000Y-1700000I-40000J0D01*
G01*
X2835000Y-1700000D02*
G75*
G03*
X2915000Y-1700000I40000J0D01*
G01*
X3265000Y-1700000D02*
G75*
G03*
X3185000Y-1700000I-40000J0D01*
G01*
X3185000Y-1700000D02*
G75*
G03*
X3265000Y-1700000I40000J0D01*
G01*
X7600000Y-5250000D02*
X7600000Y-5350000D01*
X7550000Y-5300000D02*
X7650000Y-5300000D01*
X7600000Y-5750000D02*
X7600000Y-5850000D01*
X7550000Y-5800000D02*
X7650000Y-5800000D01*
D12*
X946063Y-1436063D02*
X946063Y-1363937D01*
X873937Y-1363937D01*
X873937Y-1436063D01*
X946063Y-1436063D01*
X1246063Y-1436063D02*
X1246063Y-1363937D01*
X1173937Y-1363937D01*
X1173937Y-1436063D01*
X1246063Y-1436063D01*
X8536063Y-5826063D02*
X8536063Y-5753937D01*
X8463937Y-5753937D01*
X8463937Y-5826063D01*
X8536063Y-5826063D01*
X8536063Y-6126063D02*
X8536063Y-6053937D01*
X8463937Y-6053937D01*
X8463937Y-6126063D01*
X8536063Y-6126063D01*
X8836063Y-5826063D02*
X8836063Y-5753937D01*
X8763937Y-5753937D01*
X8763937Y-5826063D01*
X8836063Y-5826063D01*
X8836063Y-6126063D02*
X8836063Y-6053937D01*
X8763937Y-6053937D01*
X8763937Y-6126063D01*
X8836063Y-6126063D01*
D13*
X2714000Y-2652000D02*
X2774000Y-2592000D01*
X2714000Y-2532000D01*
X2654000Y-2592000D01*
X2714000Y-2652000D01*
X2714000Y-3160000D02*
X2774000Y-3100000D01*
X2714000Y-3040000D01*
X2654000Y-3100000D01*
X2714000Y-3160000D01*
X2714000Y-3668000D02*
X2774000Y-3608000D01*
X2714000Y-3548000D01*
X2654000Y-3608000D01*
X2714000Y-3668000D01*
X7286000Y-2652000D02*
X7346000Y-2592000D01*
X7286000Y-2532000D01*
X7226000Y-2592000D01*
X7286000Y-2652000D01*
X7286000Y-3160000D02*
X7346000Y-3100000D01*
X7286000Y-3040000D01*
X7226000Y-3100000D01*
X7286000Y-3160000D01*
X7286000Y-3668000D02*
X7346000Y-3608000D01*
X7286000Y-3548000D01*
X7226000Y-3608000D01*
X7286000Y-3668000D01*
D14*
X328000Y-1250000D02*
X628000Y-1550000D01*
X628000Y-1250000D02*
X328000Y-1550000D01*
X628000Y-1400000D02*
G75*
G03*
X328000Y-1400000I-150000J0D01*
G01*
X328000Y-1400000D02*
G75*
G03*
X628000Y-1400000I150000J0D01*
G01*
X8500000Y-6372000D02*
X8800000Y-6672000D01*
X8800000Y-6372000D02*
X8500000Y-6672000D01*
X8800000Y-6522000D02*
G75*
G03*
X8500000Y-6522000I-150000J0D01*
G01*
X8500000Y-6522000D02*
G75*
G03*
X8800000Y-6522000I150000J0D01*
G01*
D15*
X240000Y-240000D02*
X560000Y-560000D01*
X560000Y-240000D02*
X240000Y-560000D01*
X400000Y-240000D02*
X400000Y-560000D01*
X240000Y-400000D02*
X560000Y-400000D01*
X240000Y-6440000D02*
X560000Y-6760000D01*
X560000Y-6440000D02*
X240000Y-6760000D01*
X400000Y-6440000D02*
X400000Y-6760000D01*
X240000Y-6600000D02*
X560000Y-6600000D01*
X9440000Y-240000D02*
X9760000Y-560000D01*
X9760000Y-240000D02*
X9440000Y-560000D01*
X9600000Y-240000D02*
X9600000Y-560000D01*
X9440000Y-400000D02*
X9760000Y-400000D01*
X9440000Y-6440000D02*
X9760000Y-6760000D01*
X9760000Y-6440000D02*
X9440000Y-6760000D01*
X9600000Y-6440000D02*
X9600000Y-6760000D01*
X9440000Y-6600000D02*
X9760000Y-6600000D01*
D11*
X255777Y-7316484D02*
X255777Y-7116484D01*
X255777Y-7116484D02*
X303396Y-7116484D01*
X303396Y-7116484D02*
X331967Y-7126008D01*
X331967Y-7126008D02*
X351015Y-7145055D01*
X351015Y-7145055D02*
X360539Y-7164103D01*
X360539Y-7164103D02*
X370062Y-7202198D01*
X370062Y-7202198D02*
X370062Y-7230769D01*
X370062Y-7230769D02*
X360539Y-7268865D01*
X360539Y-7268865D02*
X351015Y-7287912D01*
X351015Y-7287912D02*
X331967Y-7306960D01*
X331967Y-7306960D02*
X303396Y-7316484D01*
X303396Y-7316484D02*
X255777Y-7316484D01*
X455777Y-7316484D02*
X455777Y-7183150D01*
X455777Y-7221246D02*
X465301Y-7202198D01*
X465301Y-7202198D02*
X474824Y-7192674D01*
X474824Y-7192674D02*
X493872Y-7183150D01*
X493872Y-7183150D02*
X512920Y-7183150D01*
X579586Y-7316484D02*
X579586Y-7183150D01*
X579586Y-7116484D02*
X570063Y-7126008D01*
X570063Y-7126008D02*
X579586Y-7135531D01*
X579586Y-7135531D02*
X589110Y-7126008D01*
X589110Y-7126008D02*
X579586Y-7116484D01*
X579586Y-7116484D02*
X579586Y-7135531D01*
X703396Y-7316484D02*
X684348Y-7306960D01*
X684348Y-7306960D02*
X674824Y-7287912D01*
X674824Y-7287912D02*
X674824Y-7116484D01*
X808158Y-7316484D02*
X789110Y-7306960D01*
X789110Y-7306960D02*
X779586Y-7287912D01*
X779586Y-7287912D02*
X779586Y-7116484D01*
X1036729Y-7316484D02*
X1036729Y-7116484D01*
X1036729Y-7116484D02*
X1103396Y-7259341D01*
X1103396Y-7259341D02*
X1170063Y-7116484D01*
X1170063Y-7116484D02*
X1170063Y-7316484D01*
X1351015Y-7316484D02*
X1351015Y-7211722D01*
X1351015Y-7211722D02*
X1341491Y-7192674D01*
X1341491Y-7192674D02*
X1322444Y-7183150D01*
X1322444Y-7183150D02*
X1284348Y-7183150D01*
X1284348Y-7183150D02*
X1265301Y-7192674D01*
X1351015Y-7306960D02*
X1331967Y-7316484D01*
X1331967Y-7316484D02*
X1284348Y-7316484D01*
X1284348Y-7316484D02*
X1265301Y-7306960D01*
X1265301Y-7306960D02*
X1255777Y-7287912D01*
X1255777Y-7287912D02*
X1255777Y-7268865D01*
X1255777Y-7268865D02*
X1265301Y-7249817D01*
X1265301Y-7249817D02*
X1284348Y-7240293D01*
X1284348Y-7240293D02*
X1331967Y-7240293D01*
X1331967Y-7240293D02*
X1351015Y-7230769D01*
X1446253Y-7183150D02*
X1446253Y-7383150D01*
X1446253Y-7192674D02*
X1465301Y-7183150D01*
X1465301Y-7183150D02*
X1503396Y-7183150D01*
X1503396Y-7183150D02*
X1522443Y-7192674D01*
X1522443Y-7192674D02*
X1531967Y-7202198D01*
X1531967Y-7202198D02*
X1541491Y-7221246D01*
X1541491Y-7221246D02*
X1541491Y-7278388D01*
X1541491Y-7278388D02*
X1531967Y-7297436D01*
X1531967Y-7297436D02*
X1522443Y-7306960D01*
X1522443Y-7306960D02*
X1503396Y-7316484D01*
X1503396Y-7316484D02*
X1465301Y-7316484D01*
X1465301Y-7316484D02*
X1446253Y-7306960D01*
X1627205Y-7297436D02*
X1636729Y-7306960D01*
X1636729Y-7306960D02*
X1627205Y-7316484D01*
X1627205Y-7316484D02*
X1617682Y-7306960D01*
X1617682Y-7306960D02*
X1627205Y-7297436D01*
X1627205Y-7297436D02*
X1627205Y-7316484D01*
X1627205Y-7192674D02*
X1636729Y-7202198D01*
X1636729Y-7202198D02*
X1627205Y-7211722D01*
X1627205Y-7211722D02*
X1617682Y-7202198D01*
X1617682Y-7202198D02*
X1627205Y-7192674D01*
X1627205Y-7192674D02*
X1627205Y-7211722D01*
D10*
X-45000Y-7625000D02*
X-5000Y-7665000D01*
X-5000Y-7625000D02*
X-45000Y-7665000D01*
D11*
X293872Y-7536484D02*
X312920Y-7536484D01*
X312920Y-7536484D02*
X331967Y-7546008D01*
X331967Y-7546008D02*
X341491Y-7555531D01*
X341491Y-7555531D02*
X351015Y-7574579D01*
X351015Y-7574579D02*
X360539Y-7612674D01*
X360539Y-7612674D02*
X360539Y-7660293D01*
X360539Y-7660293D02*
X351015Y-7698388D01*
X351015Y-7698388D02*
X341491Y-7717436D01*
X341491Y-7717436D02*
X331967Y-7726960D01*
X331967Y-7726960D02*
X312920Y-7736484D01*
X312920Y-7736484D02*
X293872Y-7736484D01*
X293872Y-7736484D02*
X274824Y-7726960D01*
X274824Y-7726960D02*
X265301Y-7717436D01*
X265301Y-7717436D02*
X255777Y-7698388D01*
X255777Y-7698388D02*
X246253Y-7660293D01*
X246253Y-7660293D02*
X246253Y-7612674D01*
X246253Y-7612674D02*
X255777Y-7574579D01*
X255777Y-7574579D02*
X265301Y-7555531D01*
X265301Y-7555531D02*
X274824Y-7546008D01*
X274824Y-7546008D02*
X293872Y-7536484D01*
X446253Y-7717436D02*
X455777Y-7726960D01*
X455777Y-7726960D02*
X446253Y-7736484D01*
X446253Y-7736484D02*
X436729Y-7726960D01*
X436729Y-7726960D02*
X446253Y-7717436D01*
X446253Y-7717436D02*
X446253Y-7736484D01*
X627205Y-7603150D02*
X627205Y-7736484D01*
X579586Y-7526960D02*
X531967Y-7669817D01*
X531967Y-7669817D02*
X655777Y-7669817D01*
X770062Y-7536484D02*
X789110Y-7536484D01*
X789110Y-7536484D02*
X808158Y-7546008D01*
X808158Y-7546008D02*
X817682Y-7555531D01*
X817682Y-7555531D02*
X827205Y-7574579D01*
X827205Y-7574579D02*
X836729Y-7612674D01*
X836729Y-7612674D02*
X836729Y-7660293D01*
X836729Y-7660293D02*
X827205Y-7698388D01*
X827205Y-7698388D02*
X817682Y-7717436D01*
X817682Y-7717436D02*
X808158Y-7726960D01*
X808158Y-7726960D02*
X789110Y-7736484D01*
X789110Y-7736484D02*
X770062Y-7736484D01*
X770062Y-7736484D02*
X751015Y-7726960D01*
X751015Y-7726960D02*
X741491Y-7717436D01*
X741491Y-7717436D02*
X731967Y-7698388D01*
X731967Y-7698388D02*
X722443Y-7660293D01*
X722443Y-7660293D02*
X722443Y-7612674D01*
X722443Y-7612674D02*
X731967Y-7574579D01*
X731967Y-7574579D02*
X741491Y-7555531D01*
X741491Y-7555531D02*
X751015Y-7546008D01*
X751015Y-7546008D02*
X770062Y-7536484D01*
X960539Y-7536484D02*
X979586Y-7536484D01*
X979586Y-7536484D02*
X998634Y-7546008D01*
X998634Y-7546008D02*
X1008158Y-7555531D01*
X1008158Y-7555531D02*
X1017682Y-7574579D01*
X1017682Y-7574579D02*
X1027205Y-7612674D01*
X1027205Y-7612674D02*
X1027205Y-7660293D01*
X1027205Y-7660293D02*
X1017682Y-7698388D01*
X1017682Y-7698388D02*
X1008158Y-7717436D01*
X1008158Y-7717436D02*
X998634Y-7726960D01*
X998634Y-7726960D02*
X979586Y-7736484D01*
X979586Y-7736484D02*
X960539Y-7736484D01*
X960539Y-7736484D02*
X941491Y-7726960D01*
X941491Y-7726960D02*
X931967Y-7717436D01*
X931967Y-7717436D02*
X922443Y-7698388D01*
X922443Y-7698388D02*
X912920Y-7660293D01*
X912920Y-7660293D02*
X912920Y-7612674D01*
X912920Y-7612674D02*
X922443Y-7574579D01*
X922443Y-7574579D02*
X931967Y-7555531D01*
X931967Y-7555531D02*
X941491Y-7546008D01*
X941491Y-7546008D02*
X960539Y-7536484D01*
X1112920Y-7736484D02*
X1112920Y-7603150D01*
X1112920Y-7622198D02*
X1122444Y-7612674D01*
X1122444Y-7612674D02*
X1141491Y-7603150D01*
X1141491Y-7603150D02*
X1170063Y-7603150D01*
X1170063Y-7603150D02*
X1189110Y-7612674D01*
X1189110Y-7612674D02*
X1198634Y-7631722D01*
X1198634Y-7631722D02*
X1198634Y-7736484D01*
X1198634Y-7631722D02*
X1208158Y-7612674D01*
X1208158Y-7612674D02*
X1227205Y-7603150D01*
X1227205Y-7603150D02*
X1255777Y-7603150D01*
X1255777Y-7603150D02*
X1274825Y-7612674D01*
X1274825Y-7612674D02*
X1284348Y-7631722D01*
X1284348Y-7631722D02*
X1284348Y-7736484D01*
X1379586Y-7736484D02*
X1379586Y-7603150D01*
X1379586Y-7622198D02*
X1389110Y-7612674D01*
X1389110Y-7612674D02*
X1408158Y-7603150D01*
X1408158Y-7603150D02*
X1436729Y-7603150D01*
X1436729Y-7603150D02*
X1455777Y-7612674D01*
X1455777Y-7612674D02*
X1465301Y-7631722D01*
X1465301Y-7631722D02*
X1465301Y-7736484D01*
X1465301Y-7631722D02*
X1474824Y-7612674D01*
X1474824Y-7612674D02*
X1493872Y-7603150D01*
X1493872Y-7603150D02*
X1522443Y-7603150D01*
X1522443Y-7603150D02*
X1541491Y-7612674D01*
X1541491Y-7612674D02*
X1551015Y-7631722D01*
X1551015Y-7631722D02*
X1551015Y-7736484D01*
X1941491Y-7526960D02*
X1770063Y-7784103D01*
X2198634Y-7536484D02*
X2217682Y-7536484D01*
X2217682Y-7536484D02*
X2236729Y-7546008D01*
X2236729Y-7546008D02*
X2246253Y-7555531D01*
X2246253Y-7555531D02*
X2255777Y-7574579D01*
X2255777Y-7574579D02*
X2265301Y-7612674D01*
X2265301Y-7612674D02*
X2265301Y-7660293D01*
X2265301Y-7660293D02*
X2255777Y-7698388D01*
X2255777Y-7698388D02*
X2246253Y-7717436D01*
X2246253Y-7717436D02*
X2236729Y-7726960D01*
X2236729Y-7726960D02*
X2217682Y-7736484D01*
X2217682Y-7736484D02*
X2198634Y-7736484D01*
X2198634Y-7736484D02*
X2179587Y-7726960D01*
X2179587Y-7726960D02*
X2170063Y-7717436D01*
X2170063Y-7717436D02*
X2160539Y-7698388D01*
X2160539Y-7698388D02*
X2151015Y-7660293D01*
X2151015Y-7660293D02*
X2151015Y-7612674D01*
X2151015Y-7612674D02*
X2160539Y-7574579D01*
X2160539Y-7574579D02*
X2170063Y-7555531D01*
X2170063Y-7555531D02*
X2179587Y-7546008D01*
X2179587Y-7546008D02*
X2198634Y-7536484D01*
X2351015Y-7717436D02*
X2360539Y-7726960D01*
X2360539Y-7726960D02*
X2351015Y-7736484D01*
X2351015Y-7736484D02*
X2341491Y-7726960D01*
X2341491Y-7726960D02*
X2351015Y-7717436D01*
X2351015Y-7717436D02*
X2351015Y-7736484D01*
X2484348Y-7536484D02*
X2503396Y-7536484D01*
X2503396Y-7536484D02*
X2522444Y-7546008D01*
X2522444Y-7546008D02*
X2531968Y-7555531D01*
X2531968Y-7555531D02*
X2541491Y-7574579D01*
X2541491Y-7574579D02*
X2551015Y-7612674D01*
X2551015Y-7612674D02*
X2551015Y-7660293D01*
X2551015Y-7660293D02*
X2541491Y-7698388D01*
X2541491Y-7698388D02*
X2531968Y-7717436D01*
X2531968Y-7717436D02*
X2522444Y-7726960D01*
X2522444Y-7726960D02*
X2503396Y-7736484D01*
X2503396Y-7736484D02*
X2484348Y-7736484D01*
X2484348Y-7736484D02*
X2465301Y-7726960D01*
X2465301Y-7726960D02*
X2455777Y-7717436D01*
X2455777Y-7717436D02*
X2446253Y-7698388D01*
X2446253Y-7698388D02*
X2436729Y-7660293D01*
X2436729Y-7660293D02*
X2436729Y-7612674D01*
X2436729Y-7612674D02*
X2446253Y-7574579D01*
X2446253Y-7574579D02*
X2455777Y-7555531D01*
X2455777Y-7555531D02*
X2465301Y-7546008D01*
X2465301Y-7546008D02*
X2484348Y-7536484D01*
X2741491Y-7736484D02*
X2627206Y-7736484D01*
X2684348Y-7736484D02*
X2684348Y-7536484D01*
X2684348Y-7536484D02*
X2665301Y-7565055D01*
X2665301Y-7565055D02*
X2646253Y-7584103D01*
X2646253Y-7584103D02*
X2627206Y-7593627D01*
X2922444Y-7536484D02*
X2827206Y-7536484D01*
X2827206Y-7536484D02*
X2817682Y-7631722D01*
X2817682Y-7631722D02*
X2827206Y-7622198D01*
X2827206Y-7622198D02*
X2846253Y-7612674D01*
X2846253Y-7612674D02*
X2893872Y-7612674D01*
X2893872Y-7612674D02*
X2912920Y-7622198D01*
X2912920Y-7622198D02*
X2922444Y-7631722D01*
X2922444Y-7631722D02*
X2931967Y-7650769D01*
X2931967Y-7650769D02*
X2931967Y-7698388D01*
X2931967Y-7698388D02*
X2922444Y-7717436D01*
X2922444Y-7717436D02*
X2912920Y-7726960D01*
X2912920Y-7726960D02*
X2893872Y-7736484D01*
X2893872Y-7736484D02*
X2846253Y-7736484D01*
X2846253Y-7736484D02*
X2827206Y-7726960D01*
X2827206Y-7726960D02*
X2817682Y-7717436D01*
X2998634Y-7536484D02*
X3131967Y-7536484D01*
X3131967Y-7536484D02*
X3046253Y-7736484D01*
X3198634Y-7536484D02*
X3198634Y-7574579D01*
X3274825Y-7536484D02*
X3274825Y-7574579D01*
X3570063Y-7812674D02*
X3560539Y-7803150D01*
X3560539Y-7803150D02*
X3541491Y-7774579D01*
X3541491Y-7774579D02*
X3531968Y-7755531D01*
X3531968Y-7755531D02*
X3522444Y-7726960D01*
X3522444Y-7726960D02*
X3512920Y-7679341D01*
X3512920Y-7679341D02*
X3512920Y-7641246D01*
X3512920Y-7641246D02*
X3522444Y-7593627D01*
X3522444Y-7593627D02*
X3531968Y-7565055D01*
X3531968Y-7565055D02*
X3541491Y-7546008D01*
X3541491Y-7546008D02*
X3560539Y-7517436D01*
X3560539Y-7517436D02*
X3570063Y-7507912D01*
X3674825Y-7622198D02*
X3655777Y-7612674D01*
X3655777Y-7612674D02*
X3646253Y-7603150D01*
X3646253Y-7603150D02*
X3636729Y-7584103D01*
X3636729Y-7584103D02*
X3636729Y-7574579D01*
X3636729Y-7574579D02*
X3646253Y-7555531D01*
X3646253Y-7555531D02*
X3655777Y-7546008D01*
X3655777Y-7546008D02*
X3674825Y-7536484D01*
X3674825Y-7536484D02*
X3712920Y-7536484D01*
X3712920Y-7536484D02*
X3731968Y-7546008D01*
X3731968Y-7546008D02*
X3741491Y-7555531D01*
X3741491Y-7555531D02*
X3751015Y-7574579D01*
X3751015Y-7574579D02*
X3751015Y-7584103D01*
X3751015Y-7584103D02*
X3741491Y-7603150D01*
X3741491Y-7603150D02*
X3731968Y-7612674D01*
X3731968Y-7612674D02*
X3712920Y-7622198D01*
X3712920Y-7622198D02*
X3674825Y-7622198D01*
X3674825Y-7622198D02*
X3655777Y-7631722D01*
X3655777Y-7631722D02*
X3646253Y-7641246D01*
X3646253Y-7641246D02*
X3636729Y-7660293D01*
X3636729Y-7660293D02*
X3636729Y-7698388D01*
X3636729Y-7698388D02*
X3646253Y-7717436D01*
X3646253Y-7717436D02*
X3655777Y-7726960D01*
X3655777Y-7726960D02*
X3674825Y-7736484D01*
X3674825Y-7736484D02*
X3712920Y-7736484D01*
X3712920Y-7736484D02*
X3731968Y-7726960D01*
X3731968Y-7726960D02*
X3741491Y-7717436D01*
X3741491Y-7717436D02*
X3751015Y-7698388D01*
X3751015Y-7698388D02*
X3751015Y-7660293D01*
X3751015Y-7660293D02*
X3741491Y-7641246D01*
X3741491Y-7641246D02*
X3731968Y-7631722D01*
X3731968Y-7631722D02*
X3712920Y-7622198D01*
X3989110Y-7736484D02*
X3989110Y-7536484D01*
X4074825Y-7736484D02*
X4074825Y-7631722D01*
X4074825Y-7631722D02*
X4065301Y-7612674D01*
X4065301Y-7612674D02*
X4046253Y-7603150D01*
X4046253Y-7603150D02*
X4017682Y-7603150D01*
X4017682Y-7603150D02*
X3998634Y-7612674D01*
X3998634Y-7612674D02*
X3989110Y-7622198D01*
X4198634Y-7736484D02*
X4179587Y-7726960D01*
X4179587Y-7726960D02*
X4170063Y-7717436D01*
X4170063Y-7717436D02*
X4160539Y-7698388D01*
X4160539Y-7698388D02*
X4160539Y-7641246D01*
X4160539Y-7641246D02*
X4170063Y-7622198D01*
X4170063Y-7622198D02*
X4179587Y-7612674D01*
X4179587Y-7612674D02*
X4198634Y-7603150D01*
X4198634Y-7603150D02*
X4227206Y-7603150D01*
X4227206Y-7603150D02*
X4246253Y-7612674D01*
X4246253Y-7612674D02*
X4255777Y-7622198D01*
X4255777Y-7622198D02*
X4265301Y-7641246D01*
X4265301Y-7641246D02*
X4265301Y-7698388D01*
X4265301Y-7698388D02*
X4255777Y-7717436D01*
X4255777Y-7717436D02*
X4246253Y-7726960D01*
X4246253Y-7726960D02*
X4227206Y-7736484D01*
X4227206Y-7736484D02*
X4198634Y-7736484D01*
X4379587Y-7736484D02*
X4360539Y-7726960D01*
X4360539Y-7726960D02*
X4351015Y-7707912D01*
X4351015Y-7707912D02*
X4351015Y-7536484D01*
X4531968Y-7726960D02*
X4512920Y-7736484D01*
X4512920Y-7736484D02*
X4474825Y-7736484D01*
X4474825Y-7736484D02*
X4455777Y-7726960D01*
X4455777Y-7726960D02*
X4446253Y-7707912D01*
X4446253Y-7707912D02*
X4446253Y-7631722D01*
X4446253Y-7631722D02*
X4455777Y-7612674D01*
X4455777Y-7612674D02*
X4474825Y-7603150D01*
X4474825Y-7603150D02*
X4512920Y-7603150D01*
X4512920Y-7603150D02*
X4531968Y-7612674D01*
X4531968Y-7612674D02*
X4541492Y-7631722D01*
X4541492Y-7631722D02*
X4541492Y-7650769D01*
X4541492Y-7650769D02*
X4446253Y-7669817D01*
X4617682Y-7726960D02*
X4636730Y-7736484D01*
X4636730Y-7736484D02*
X4674825Y-7736484D01*
X4674825Y-7736484D02*
X4693873Y-7726960D01*
X4693873Y-7726960D02*
X4703396Y-7707912D01*
X4703396Y-7707912D02*
X4703396Y-7698388D01*
X4703396Y-7698388D02*
X4693873Y-7679341D01*
X4693873Y-7679341D02*
X4674825Y-7669817D01*
X4674825Y-7669817D02*
X4646253Y-7669817D01*
X4646253Y-7669817D02*
X4627206Y-7660293D01*
X4627206Y-7660293D02*
X4617682Y-7641246D01*
X4617682Y-7641246D02*
X4617682Y-7631722D01*
X4617682Y-7631722D02*
X4627206Y-7612674D01*
X4627206Y-7612674D02*
X4646253Y-7603150D01*
X4646253Y-7603150D02*
X4674825Y-7603150D01*
X4674825Y-7603150D02*
X4693873Y-7612674D01*
X4770063Y-7812674D02*
X4779587Y-7803150D01*
X4779587Y-7803150D02*
X4798634Y-7774579D01*
X4798634Y-7774579D02*
X4808158Y-7755531D01*
X4808158Y-7755531D02*
X4817682Y-7726960D01*
X4817682Y-7726960D02*
X4827206Y-7679341D01*
X4827206Y-7679341D02*
X4827206Y-7641246D01*
X4827206Y-7641246D02*
X4817682Y-7593627D01*
X4817682Y-7593627D02*
X4808158Y-7565055D01*
X4808158Y-7565055D02*
X4798634Y-7546008D01*
X4798634Y-7546008D02*
X4779587Y-7517436D01*
X4779587Y-7517436D02*
X4770063Y-7507912D01*
D10*
X-5000Y-7909000D02*
G75*
G03*
X-85000Y-7909000I-40000J0D01*
G01*
X-85000Y-7909000D02*
G75*
G03*
X-5000Y-7909000I40000J0D01*
G01*
D11*
X293872Y-7800484D02*
X312920Y-7800484D01*
X312920Y-7800484D02*
X331967Y-7810008D01*
X331967Y-7810008D02*
X341491Y-7819531D01*
X341491Y-7819531D02*
X351015Y-7838579D01*
X351015Y-7838579D02*
X360539Y-7876674D01*
X360539Y-7876674D02*
X360539Y-7924293D01*
X360539Y-7924293D02*
X351015Y-7962388D01*
X351015Y-7962388D02*
X341491Y-7981436D01*
X341491Y-7981436D02*
X331967Y-7990960D01*
X331967Y-7990960D02*
X312920Y-8000484D01*
X312920Y-8000484D02*
X293872Y-8000484D01*
X293872Y-8000484D02*
X274824Y-7990960D01*
X274824Y-7990960D02*
X265301Y-7981436D01*
X265301Y-7981436D02*
X255777Y-7962388D01*
X255777Y-7962388D02*
X246253Y-7924293D01*
X246253Y-7924293D02*
X246253Y-7876674D01*
X246253Y-7876674D02*
X255777Y-7838579D01*
X255777Y-7838579D02*
X265301Y-7819531D01*
X265301Y-7819531D02*
X274824Y-7810008D01*
X274824Y-7810008D02*
X293872Y-7800484D01*
X446253Y-7981436D02*
X455777Y-7990960D01*
X455777Y-7990960D02*
X446253Y-8000484D01*
X446253Y-8000484D02*
X436729Y-7990960D01*
X436729Y-7990960D02*
X446253Y-7981436D01*
X446253Y-7981436D02*
X446253Y-8000484D01*
X570063Y-7886198D02*
X551015Y-7876674D01*
X551015Y-7876674D02*
X541491Y-7867150D01*
X541491Y-7867150D02*
X531967Y-7848103D01*
X531967Y-7848103D02*
X531967Y-7838579D01*
X531967Y-7838579D02*
X541491Y-7819531D01*
X541491Y-7819531D02*
X551015Y-7810008D01*
X551015Y-7810008D02*
X570063Y-7800484D01*
X570063Y-7800484D02*
X608158Y-7800484D01*
X608158Y-7800484D02*
X627205Y-7810008D01*
X627205Y-7810008D02*
X636729Y-7819531D01*
X636729Y-7819531D02*
X646253Y-7838579D01*
X646253Y-7838579D02*
X646253Y-7848103D01*
X646253Y-7848103D02*
X636729Y-7867150D01*
X636729Y-7867150D02*
X627205Y-7876674D01*
X627205Y-7876674D02*
X608158Y-7886198D01*
X608158Y-7886198D02*
X570063Y-7886198D01*
X570063Y-7886198D02*
X551015Y-7895722D01*
X551015Y-7895722D02*
X541491Y-7905246D01*
X541491Y-7905246D02*
X531967Y-7924293D01*
X531967Y-7924293D02*
X531967Y-7962388D01*
X531967Y-7962388D02*
X541491Y-7981436D01*
X541491Y-7981436D02*
X551015Y-7990960D01*
X551015Y-7990960D02*
X570063Y-8000484D01*
X570063Y-8000484D02*
X608158Y-8000484D01*
X608158Y-8000484D02*
X627205Y-7990960D01*
X627205Y-7990960D02*
X636729Y-7981436D01*
X636729Y-7981436D02*
X646253Y-7962388D01*
X646253Y-7962388D02*
X646253Y-7924293D01*
X646253Y-7924293D02*
X636729Y-7905246D01*
X636729Y-7905246D02*
X627205Y-7895722D01*
X627205Y-7895722D02*
X608158Y-7886198D01*
X770062Y-7800484D02*
X789110Y-7800484D01*
X789110Y-7800484D02*
X808158Y-7810008D01*
X808158Y-7810008D02*
X817682Y-7819531D01*
X817682Y-7819531D02*
X827205Y-7838579D01*
X827205Y-7838579D02*
X836729Y-7876674D01*
X836729Y-7876674D02*
X836729Y-7924293D01*
X836729Y-7924293D02*
X827205Y-7962388D01*
X827205Y-7962388D02*
X817682Y-7981436D01*
X817682Y-7981436D02*
X808158Y-7990960D01*
X808158Y-7990960D02*
X789110Y-8000484D01*
X789110Y-8000484D02*
X770062Y-8000484D01*
X770062Y-8000484D02*
X751015Y-7990960D01*
X751015Y-7990960D02*
X741491Y-7981436D01*
X741491Y-7981436D02*
X731967Y-7962388D01*
X731967Y-7962388D02*
X722443Y-7924293D01*
X722443Y-7924293D02*
X722443Y-7876674D01*
X722443Y-7876674D02*
X731967Y-7838579D01*
X731967Y-7838579D02*
X741491Y-7819531D01*
X741491Y-7819531D02*
X751015Y-7810008D01*
X751015Y-7810008D02*
X770062Y-7800484D01*
X960539Y-7800484D02*
X979586Y-7800484D01*
X979586Y-7800484D02*
X998634Y-7810008D01*
X998634Y-7810008D02*
X1008158Y-7819531D01*
X1008158Y-7819531D02*
X1017682Y-7838579D01*
X1017682Y-7838579D02*
X1027205Y-7876674D01*
X1027205Y-7876674D02*
X1027205Y-7924293D01*
X1027205Y-7924293D02*
X1017682Y-7962388D01*
X1017682Y-7962388D02*
X1008158Y-7981436D01*
X1008158Y-7981436D02*
X998634Y-7990960D01*
X998634Y-7990960D02*
X979586Y-8000484D01*
X979586Y-8000484D02*
X960539Y-8000484D01*
X960539Y-8000484D02*
X941491Y-7990960D01*
X941491Y-7990960D02*
X931967Y-7981436D01*
X931967Y-7981436D02*
X922443Y-7962388D01*
X922443Y-7962388D02*
X912920Y-7924293D01*
X912920Y-7924293D02*
X912920Y-7876674D01*
X912920Y-7876674D02*
X922443Y-7838579D01*
X922443Y-7838579D02*
X931967Y-7819531D01*
X931967Y-7819531D02*
X941491Y-7810008D01*
X941491Y-7810008D02*
X960539Y-7800484D01*
X1112920Y-8000484D02*
X1112920Y-7867150D01*
X1112920Y-7886198D02*
X1122444Y-7876674D01*
X1122444Y-7876674D02*
X1141491Y-7867150D01*
X1141491Y-7867150D02*
X1170063Y-7867150D01*
X1170063Y-7867150D02*
X1189110Y-7876674D01*
X1189110Y-7876674D02*
X1198634Y-7895722D01*
X1198634Y-7895722D02*
X1198634Y-8000484D01*
X1198634Y-7895722D02*
X1208158Y-7876674D01*
X1208158Y-7876674D02*
X1227205Y-7867150D01*
X1227205Y-7867150D02*
X1255777Y-7867150D01*
X1255777Y-7867150D02*
X1274825Y-7876674D01*
X1274825Y-7876674D02*
X1284348Y-7895722D01*
X1284348Y-7895722D02*
X1284348Y-8000484D01*
X1379586Y-8000484D02*
X1379586Y-7867150D01*
X1379586Y-7886198D02*
X1389110Y-7876674D01*
X1389110Y-7876674D02*
X1408158Y-7867150D01*
X1408158Y-7867150D02*
X1436729Y-7867150D01*
X1436729Y-7867150D02*
X1455777Y-7876674D01*
X1455777Y-7876674D02*
X1465301Y-7895722D01*
X1465301Y-7895722D02*
X1465301Y-8000484D01*
X1465301Y-7895722D02*
X1474824Y-7876674D01*
X1474824Y-7876674D02*
X1493872Y-7867150D01*
X1493872Y-7867150D02*
X1522443Y-7867150D01*
X1522443Y-7867150D02*
X1541491Y-7876674D01*
X1541491Y-7876674D02*
X1551015Y-7895722D01*
X1551015Y-7895722D02*
X1551015Y-8000484D01*
X1941491Y-7790960D02*
X1770063Y-8048103D01*
X2198634Y-7800484D02*
X2217682Y-7800484D01*
X2217682Y-7800484D02*
X2236729Y-7810008D01*
X2236729Y-7810008D02*
X2246253Y-7819531D01*
X2246253Y-7819531D02*
X2255777Y-7838579D01*
X2255777Y-7838579D02*
X2265301Y-7876674D01*
X2265301Y-7876674D02*
X2265301Y-7924293D01*
X2265301Y-7924293D02*
X2255777Y-7962388D01*
X2255777Y-7962388D02*
X2246253Y-7981436D01*
X2246253Y-7981436D02*
X2236729Y-7990960D01*
X2236729Y-7990960D02*
X2217682Y-8000484D01*
X2217682Y-8000484D02*
X2198634Y-8000484D01*
X2198634Y-8000484D02*
X2179587Y-7990960D01*
X2179587Y-7990960D02*
X2170063Y-7981436D01*
X2170063Y-7981436D02*
X2160539Y-7962388D01*
X2160539Y-7962388D02*
X2151015Y-7924293D01*
X2151015Y-7924293D02*
X2151015Y-7876674D01*
X2151015Y-7876674D02*
X2160539Y-7838579D01*
X2160539Y-7838579D02*
X2170063Y-7819531D01*
X2170063Y-7819531D02*
X2179587Y-7810008D01*
X2179587Y-7810008D02*
X2198634Y-7800484D01*
X2351015Y-7981436D02*
X2360539Y-7990960D01*
X2360539Y-7990960D02*
X2351015Y-8000484D01*
X2351015Y-8000484D02*
X2341491Y-7990960D01*
X2341491Y-7990960D02*
X2351015Y-7981436D01*
X2351015Y-7981436D02*
X2351015Y-8000484D01*
X2484348Y-7800484D02*
X2503396Y-7800484D01*
X2503396Y-7800484D02*
X2522444Y-7810008D01*
X2522444Y-7810008D02*
X2531968Y-7819531D01*
X2531968Y-7819531D02*
X2541491Y-7838579D01*
X2541491Y-7838579D02*
X2551015Y-7876674D01*
X2551015Y-7876674D02*
X2551015Y-7924293D01*
X2551015Y-7924293D02*
X2541491Y-7962388D01*
X2541491Y-7962388D02*
X2531968Y-7981436D01*
X2531968Y-7981436D02*
X2522444Y-7990960D01*
X2522444Y-7990960D02*
X2503396Y-8000484D01*
X2503396Y-8000484D02*
X2484348Y-8000484D01*
X2484348Y-8000484D02*
X2465301Y-7990960D01*
X2465301Y-7990960D02*
X2455777Y-7981436D01*
X2455777Y-7981436D02*
X2446253Y-7962388D01*
X2446253Y-7962388D02*
X2436729Y-7924293D01*
X2436729Y-7924293D02*
X2436729Y-7876674D01*
X2436729Y-7876674D02*
X2446253Y-7838579D01*
X2446253Y-7838579D02*
X2455777Y-7819531D01*
X2455777Y-7819531D02*
X2465301Y-7810008D01*
X2465301Y-7810008D02*
X2484348Y-7800484D01*
X2617682Y-7800484D02*
X2741491Y-7800484D01*
X2741491Y-7800484D02*
X2674825Y-7876674D01*
X2674825Y-7876674D02*
X2703396Y-7876674D01*
X2703396Y-7876674D02*
X2722444Y-7886198D01*
X2722444Y-7886198D02*
X2731968Y-7895722D01*
X2731968Y-7895722D02*
X2741491Y-7914769D01*
X2741491Y-7914769D02*
X2741491Y-7962388D01*
X2741491Y-7962388D02*
X2731968Y-7981436D01*
X2731968Y-7981436D02*
X2722444Y-7990960D01*
X2722444Y-7990960D02*
X2703396Y-8000484D01*
X2703396Y-8000484D02*
X2646253Y-8000484D01*
X2646253Y-8000484D02*
X2627206Y-7990960D01*
X2627206Y-7990960D02*
X2617682Y-7981436D01*
X2931967Y-8000484D02*
X2817682Y-8000484D01*
X2874825Y-8000484D02*
X2874825Y-7800484D01*
X2874825Y-7800484D02*
X2855777Y-7829055D01*
X2855777Y-7829055D02*
X2836729Y-7848103D01*
X2836729Y-7848103D02*
X2817682Y-7857627D01*
X3112920Y-7800484D02*
X3017682Y-7800484D01*
X3017682Y-7800484D02*
X3008158Y-7895722D01*
X3008158Y-7895722D02*
X3017682Y-7886198D01*
X3017682Y-7886198D02*
X3036729Y-7876674D01*
X3036729Y-7876674D02*
X3084348Y-7876674D01*
X3084348Y-7876674D02*
X3103396Y-7886198D01*
X3103396Y-7886198D02*
X3112920Y-7895722D01*
X3112920Y-7895722D02*
X3122444Y-7914769D01*
X3122444Y-7914769D02*
X3122444Y-7962388D01*
X3122444Y-7962388D02*
X3112920Y-7981436D01*
X3112920Y-7981436D02*
X3103396Y-7990960D01*
X3103396Y-7990960D02*
X3084348Y-8000484D01*
X3084348Y-8000484D02*
X3036729Y-8000484D01*
X3036729Y-8000484D02*
X3017682Y-7990960D01*
X3017682Y-7990960D02*
X3008158Y-7981436D01*
X3198634Y-7800484D02*
X3198634Y-7838579D01*
X3274825Y-7800484D02*
X3274825Y-7838579D01*
X3570063Y-8076674D02*
X3560539Y-8067150D01*
X3560539Y-8067150D02*
X3541491Y-8038579D01*
X3541491Y-8038579D02*
X3531968Y-8019531D01*
X3531968Y-8019531D02*
X3522444Y-7990960D01*
X3522444Y-7990960D02*
X3512920Y-7943341D01*
X3512920Y-7943341D02*
X3512920Y-7905246D01*
X3512920Y-7905246D02*
X3522444Y-7857627D01*
X3522444Y-7857627D02*
X3531968Y-7829055D01*
X3531968Y-7829055D02*
X3541491Y-7810008D01*
X3541491Y-7810008D02*
X3560539Y-7781436D01*
X3560539Y-7781436D02*
X3570063Y-7771912D01*
X3636729Y-7819531D02*
X3646253Y-7810008D01*
X3646253Y-7810008D02*
X3665301Y-7800484D01*
X3665301Y-7800484D02*
X3712920Y-7800484D01*
X3712920Y-7800484D02*
X3731968Y-7810008D01*
X3731968Y-7810008D02*
X3741491Y-7819531D01*
X3741491Y-7819531D02*
X3751015Y-7838579D01*
X3751015Y-7838579D02*
X3751015Y-7857627D01*
X3751015Y-7857627D02*
X3741491Y-7886198D01*
X3741491Y-7886198D02*
X3627206Y-8000484D01*
X3627206Y-8000484D02*
X3751015Y-8000484D01*
X3989110Y-8000484D02*
X3989110Y-7800484D01*
X4074825Y-8000484D02*
X4074825Y-7895722D01*
X4074825Y-7895722D02*
X4065301Y-7876674D01*
X4065301Y-7876674D02*
X4046253Y-7867150D01*
X4046253Y-7867150D02*
X4017682Y-7867150D01*
X4017682Y-7867150D02*
X3998634Y-7876674D01*
X3998634Y-7876674D02*
X3989110Y-7886198D01*
X4198634Y-8000484D02*
X4179587Y-7990960D01*
X4179587Y-7990960D02*
X4170063Y-7981436D01*
X4170063Y-7981436D02*
X4160539Y-7962388D01*
X4160539Y-7962388D02*
X4160539Y-7905246D01*
X4160539Y-7905246D02*
X4170063Y-7886198D01*
X4170063Y-7886198D02*
X4179587Y-7876674D01*
X4179587Y-7876674D02*
X4198634Y-7867150D01*
X4198634Y-7867150D02*
X4227206Y-7867150D01*
X4227206Y-7867150D02*
X4246253Y-7876674D01*
X4246253Y-7876674D02*
X4255777Y-7886198D01*
X4255777Y-7886198D02*
X4265301Y-7905246D01*
X4265301Y-7905246D02*
X4265301Y-7962388D01*
X4265301Y-7962388D02*
X4255777Y-7981436D01*
X4255777Y-7981436D02*
X4246253Y-7990960D01*
X4246253Y-7990960D02*
X4227206Y-8000484D01*
X4227206Y-8000484D02*
X4198634Y-8000484D01*
X4379587Y-8000484D02*
X4360539Y-7990960D01*
X4360539Y-7990960D02*
X4351015Y-7971912D01*
X4351015Y-7971912D02*
X4351015Y-7800484D01*
X4531968Y-7990960D02*
X4512920Y-8000484D01*
X4512920Y-8000484D02*
X4474825Y-8000484D01*
X4474825Y-8000484D02*
X4455777Y-7990960D01*
X4455777Y-7990960D02*
X4446253Y-7971912D01*
X4446253Y-7971912D02*
X4446253Y-7895722D01*
X4446253Y-7895722D02*
X4455777Y-7876674D01*
X4455777Y-7876674D02*
X4474825Y-7867150D01*
X4474825Y-7867150D02*
X4512920Y-7867150D01*
X4512920Y-7867150D02*
X4531968Y-7876674D01*
X4531968Y-7876674D02*
X4541492Y-7895722D01*
X4541492Y-7895722D02*
X4541492Y-7914769D01*
X4541492Y-7914769D02*
X4446253Y-7933817D01*
X4617682Y-7990960D02*
X4636730Y-8000484D01*
X4636730Y-8000484D02*
X4674825Y-8000484D01*
X4674825Y-8000484D02*
X4693873Y-7990960D01*
X4693873Y-7990960D02*
X4703396Y-7971912D01*
X4703396Y-7971912D02*
X4703396Y-7962388D01*
X4703396Y-7962388D02*
X4693873Y-7943341D01*
X4693873Y-7943341D02*
X4674825Y-7933817D01*
X4674825Y-7933817D02*
X4646253Y-7933817D01*
X4646253Y-7933817D02*
X4627206Y-7924293D01*
X4627206Y-7924293D02*
X4617682Y-7905246D01*
X4617682Y-7905246D02*
X4617682Y-7895722D01*
X4617682Y-7895722D02*
X4627206Y-7876674D01*
X4627206Y-7876674D02*
X4646253Y-7867150D01*
X4646253Y-7867150D02*
X4674825Y-7867150D01*
X4674825Y-7867150D02*
X4693873Y-7876674D01*
X4770063Y-8076674D02*
X4779587Y-8067150D01*
X4779587Y-8067150D02*
X4798634Y-8038579D01*
X4798634Y-8038579D02*
X4808158Y-8019531D01*
X4808158Y-8019531D02*
X4817682Y-7990960D01*
X4817682Y-7990960D02*
X4827206Y-7943341D01*
X4827206Y-7943341D02*
X4827206Y-7905246D01*
X4827206Y-7905246D02*
X4817682Y-7857627D01*
X4817682Y-7857627D02*
X4808158Y-7829055D01*
X4808158Y-7829055D02*
X4798634Y-7810008D01*
X4798634Y-7810008D02*
X4779587Y-7781436D01*
X4779587Y-7781436D02*
X4770063Y-7771912D01*
D10*
X-55000Y-8123000D02*
X-55000Y-8223000D01*
X-105000Y-8173000D02*
X-5000Y-8173000D01*
D11*
X360539Y-8264484D02*
X246253Y-8264484D01*
X303396Y-8264484D02*
X303396Y-8064484D01*
X303396Y-8064484D02*
X284348Y-8093055D01*
X284348Y-8093055D02*
X265301Y-8112103D01*
X265301Y-8112103D02*
X246253Y-8121627D01*
X446253Y-8245436D02*
X455777Y-8254960D01*
X455777Y-8254960D02*
X446253Y-8264484D01*
X446253Y-8264484D02*
X436729Y-8254960D01*
X436729Y-8254960D02*
X446253Y-8245436D01*
X446253Y-8245436D02*
X446253Y-8264484D01*
X579586Y-8064484D02*
X598634Y-8064484D01*
X598634Y-8064484D02*
X617682Y-8074008D01*
X617682Y-8074008D02*
X627205Y-8083531D01*
X627205Y-8083531D02*
X636729Y-8102579D01*
X636729Y-8102579D02*
X646253Y-8140674D01*
X646253Y-8140674D02*
X646253Y-8188293D01*
X646253Y-8188293D02*
X636729Y-8226388D01*
X636729Y-8226388D02*
X627205Y-8245436D01*
X627205Y-8245436D02*
X617682Y-8254960D01*
X617682Y-8254960D02*
X598634Y-8264484D01*
X598634Y-8264484D02*
X579586Y-8264484D01*
X579586Y-8264484D02*
X560539Y-8254960D01*
X560539Y-8254960D02*
X551015Y-8245436D01*
X551015Y-8245436D02*
X541491Y-8226388D01*
X541491Y-8226388D02*
X531967Y-8188293D01*
X531967Y-8188293D02*
X531967Y-8140674D01*
X531967Y-8140674D02*
X541491Y-8102579D01*
X541491Y-8102579D02*
X551015Y-8083531D01*
X551015Y-8083531D02*
X560539Y-8074008D01*
X560539Y-8074008D02*
X579586Y-8064484D01*
X770062Y-8064484D02*
X789110Y-8064484D01*
X789110Y-8064484D02*
X808158Y-8074008D01*
X808158Y-8074008D02*
X817682Y-8083531D01*
X817682Y-8083531D02*
X827205Y-8102579D01*
X827205Y-8102579D02*
X836729Y-8140674D01*
X836729Y-8140674D02*
X836729Y-8188293D01*
X836729Y-8188293D02*
X827205Y-8226388D01*
X827205Y-8226388D02*
X817682Y-8245436D01*
X817682Y-8245436D02*
X808158Y-8254960D01*
X808158Y-8254960D02*
X789110Y-8264484D01*
X789110Y-8264484D02*
X770062Y-8264484D01*
X770062Y-8264484D02*
X751015Y-8254960D01*
X751015Y-8254960D02*
X741491Y-8245436D01*
X741491Y-8245436D02*
X731967Y-8226388D01*
X731967Y-8226388D02*
X722443Y-8188293D01*
X722443Y-8188293D02*
X722443Y-8140674D01*
X722443Y-8140674D02*
X731967Y-8102579D01*
X731967Y-8102579D02*
X741491Y-8083531D01*
X741491Y-8083531D02*
X751015Y-8074008D01*
X751015Y-8074008D02*
X770062Y-8064484D01*
X960539Y-8064484D02*
X979586Y-8064484D01*
X979586Y-8064484D02*
X998634Y-8074008D01*
X998634Y-8074008D02*
X1008158Y-8083531D01*
X1008158Y-8083531D02*
X1017682Y-8102579D01*
X1017682Y-8102579D02*
X1027205Y-8140674D01*
X1027205Y-8140674D02*
X1027205Y-8188293D01*
X1027205Y-8188293D02*
X1017682Y-8226388D01*
X1017682Y-8226388D02*
X1008158Y-8245436D01*
X1008158Y-8245436D02*
X998634Y-8254960D01*
X998634Y-8254960D02*
X979586Y-8264484D01*
X979586Y-8264484D02*
X960539Y-8264484D01*
X960539Y-8264484D02*
X941491Y-8254960D01*
X941491Y-8254960D02*
X931967Y-8245436D01*
X931967Y-8245436D02*
X922443Y-8226388D01*
X922443Y-8226388D02*
X912920Y-8188293D01*
X912920Y-8188293D02*
X912920Y-8140674D01*
X912920Y-8140674D02*
X922443Y-8102579D01*
X922443Y-8102579D02*
X931967Y-8083531D01*
X931967Y-8083531D02*
X941491Y-8074008D01*
X941491Y-8074008D02*
X960539Y-8064484D01*
X1112920Y-8264484D02*
X1112920Y-8131150D01*
X1112920Y-8150198D02*
X1122444Y-8140674D01*
X1122444Y-8140674D02*
X1141491Y-8131150D01*
X1141491Y-8131150D02*
X1170063Y-8131150D01*
X1170063Y-8131150D02*
X1189110Y-8140674D01*
X1189110Y-8140674D02*
X1198634Y-8159722D01*
X1198634Y-8159722D02*
X1198634Y-8264484D01*
X1198634Y-8159722D02*
X1208158Y-8140674D01*
X1208158Y-8140674D02*
X1227205Y-8131150D01*
X1227205Y-8131150D02*
X1255777Y-8131150D01*
X1255777Y-8131150D02*
X1274825Y-8140674D01*
X1274825Y-8140674D02*
X1284348Y-8159722D01*
X1284348Y-8159722D02*
X1284348Y-8264484D01*
X1379586Y-8264484D02*
X1379586Y-8131150D01*
X1379586Y-8150198D02*
X1389110Y-8140674D01*
X1389110Y-8140674D02*
X1408158Y-8131150D01*
X1408158Y-8131150D02*
X1436729Y-8131150D01*
X1436729Y-8131150D02*
X1455777Y-8140674D01*
X1455777Y-8140674D02*
X1465301Y-8159722D01*
X1465301Y-8159722D02*
X1465301Y-8264484D01*
X1465301Y-8159722D02*
X1474824Y-8140674D01*
X1474824Y-8140674D02*
X1493872Y-8131150D01*
X1493872Y-8131150D02*
X1522443Y-8131150D01*
X1522443Y-8131150D02*
X1541491Y-8140674D01*
X1541491Y-8140674D02*
X1551015Y-8159722D01*
X1551015Y-8159722D02*
X1551015Y-8264484D01*
X1941491Y-8054960D02*
X1770063Y-8312103D01*
X2198634Y-8064484D02*
X2217682Y-8064484D01*
X2217682Y-8064484D02*
X2236729Y-8074008D01*
X2236729Y-8074008D02*
X2246253Y-8083531D01*
X2246253Y-8083531D02*
X2255777Y-8102579D01*
X2255777Y-8102579D02*
X2265301Y-8140674D01*
X2265301Y-8140674D02*
X2265301Y-8188293D01*
X2265301Y-8188293D02*
X2255777Y-8226388D01*
X2255777Y-8226388D02*
X2246253Y-8245436D01*
X2246253Y-8245436D02*
X2236729Y-8254960D01*
X2236729Y-8254960D02*
X2217682Y-8264484D01*
X2217682Y-8264484D02*
X2198634Y-8264484D01*
X2198634Y-8264484D02*
X2179587Y-8254960D01*
X2179587Y-8254960D02*
X2170063Y-8245436D01*
X2170063Y-8245436D02*
X2160539Y-8226388D01*
X2160539Y-8226388D02*
X2151015Y-8188293D01*
X2151015Y-8188293D02*
X2151015Y-8140674D01*
X2151015Y-8140674D02*
X2160539Y-8102579D01*
X2160539Y-8102579D02*
X2170063Y-8083531D01*
X2170063Y-8083531D02*
X2179587Y-8074008D01*
X2179587Y-8074008D02*
X2198634Y-8064484D01*
X2351015Y-8245436D02*
X2360539Y-8254960D01*
X2360539Y-8254960D02*
X2351015Y-8264484D01*
X2351015Y-8264484D02*
X2341491Y-8254960D01*
X2341491Y-8254960D02*
X2351015Y-8245436D01*
X2351015Y-8245436D02*
X2351015Y-8264484D01*
X2484348Y-8064484D02*
X2503396Y-8064484D01*
X2503396Y-8064484D02*
X2522444Y-8074008D01*
X2522444Y-8074008D02*
X2531968Y-8083531D01*
X2531968Y-8083531D02*
X2541491Y-8102579D01*
X2541491Y-8102579D02*
X2551015Y-8140674D01*
X2551015Y-8140674D02*
X2551015Y-8188293D01*
X2551015Y-8188293D02*
X2541491Y-8226388D01*
X2541491Y-8226388D02*
X2531968Y-8245436D01*
X2531968Y-8245436D02*
X2522444Y-8254960D01*
X2522444Y-8254960D02*
X2503396Y-8264484D01*
X2503396Y-8264484D02*
X2484348Y-8264484D01*
X2484348Y-8264484D02*
X2465301Y-8254960D01*
X2465301Y-8254960D02*
X2455777Y-8245436D01*
X2455777Y-8245436D02*
X2446253Y-8226388D01*
X2446253Y-8226388D02*
X2436729Y-8188293D01*
X2436729Y-8188293D02*
X2436729Y-8140674D01*
X2436729Y-8140674D02*
X2446253Y-8102579D01*
X2446253Y-8102579D02*
X2455777Y-8083531D01*
X2455777Y-8083531D02*
X2465301Y-8074008D01*
X2465301Y-8074008D02*
X2484348Y-8064484D01*
X2617682Y-8064484D02*
X2741491Y-8064484D01*
X2741491Y-8064484D02*
X2674825Y-8140674D01*
X2674825Y-8140674D02*
X2703396Y-8140674D01*
X2703396Y-8140674D02*
X2722444Y-8150198D01*
X2722444Y-8150198D02*
X2731968Y-8159722D01*
X2731968Y-8159722D02*
X2741491Y-8178769D01*
X2741491Y-8178769D02*
X2741491Y-8226388D01*
X2741491Y-8226388D02*
X2731968Y-8245436D01*
X2731968Y-8245436D02*
X2722444Y-8254960D01*
X2722444Y-8254960D02*
X2703396Y-8264484D01*
X2703396Y-8264484D02*
X2646253Y-8264484D01*
X2646253Y-8264484D02*
X2627206Y-8254960D01*
X2627206Y-8254960D02*
X2617682Y-8245436D01*
X2836729Y-8264484D02*
X2874825Y-8264484D01*
X2874825Y-8264484D02*
X2893872Y-8254960D01*
X2893872Y-8254960D02*
X2903396Y-8245436D01*
X2903396Y-8245436D02*
X2922444Y-8216865D01*
X2922444Y-8216865D02*
X2931967Y-8178769D01*
X2931967Y-8178769D02*
X2931967Y-8102579D01*
X2931967Y-8102579D02*
X2922444Y-8083531D01*
X2922444Y-8083531D02*
X2912920Y-8074008D01*
X2912920Y-8074008D02*
X2893872Y-8064484D01*
X2893872Y-8064484D02*
X2855777Y-8064484D01*
X2855777Y-8064484D02*
X2836729Y-8074008D01*
X2836729Y-8074008D02*
X2827206Y-8083531D01*
X2827206Y-8083531D02*
X2817682Y-8102579D01*
X2817682Y-8102579D02*
X2817682Y-8150198D01*
X2817682Y-8150198D02*
X2827206Y-8169246D01*
X2827206Y-8169246D02*
X2836729Y-8178769D01*
X2836729Y-8178769D02*
X2855777Y-8188293D01*
X2855777Y-8188293D02*
X2893872Y-8188293D01*
X2893872Y-8188293D02*
X2912920Y-8178769D01*
X2912920Y-8178769D02*
X2922444Y-8169246D01*
X2922444Y-8169246D02*
X2931967Y-8150198D01*
X3103396Y-8131150D02*
X3103396Y-8264484D01*
X3055777Y-8054960D02*
X3008158Y-8197817D01*
X3008158Y-8197817D02*
X3131967Y-8197817D01*
X3198634Y-8064484D02*
X3198634Y-8102579D01*
X3274825Y-8064484D02*
X3274825Y-8102579D01*
X3570063Y-8340674D02*
X3560539Y-8331150D01*
X3560539Y-8331150D02*
X3541491Y-8302579D01*
X3541491Y-8302579D02*
X3531968Y-8283531D01*
X3531968Y-8283531D02*
X3522444Y-8254960D01*
X3522444Y-8254960D02*
X3512920Y-8207341D01*
X3512920Y-8207341D02*
X3512920Y-8169246D01*
X3512920Y-8169246D02*
X3522444Y-8121627D01*
X3522444Y-8121627D02*
X3531968Y-8093055D01*
X3531968Y-8093055D02*
X3541491Y-8074008D01*
X3541491Y-8074008D02*
X3560539Y-8045436D01*
X3560539Y-8045436D02*
X3570063Y-8035912D01*
X3636729Y-8083531D02*
X3646253Y-8074008D01*
X3646253Y-8074008D02*
X3665301Y-8064484D01*
X3665301Y-8064484D02*
X3712920Y-8064484D01*
X3712920Y-8064484D02*
X3731968Y-8074008D01*
X3731968Y-8074008D02*
X3741491Y-8083531D01*
X3741491Y-8083531D02*
X3751015Y-8102579D01*
X3751015Y-8102579D02*
X3751015Y-8121627D01*
X3751015Y-8121627D02*
X3741491Y-8150198D01*
X3741491Y-8150198D02*
X3627206Y-8264484D01*
X3627206Y-8264484D02*
X3751015Y-8264484D01*
X3989110Y-8264484D02*
X3989110Y-8064484D01*
X4074825Y-8264484D02*
X4074825Y-8159722D01*
X4074825Y-8159722D02*
X4065301Y-8140674D01*
X4065301Y-8140674D02*
X4046253Y-8131150D01*
X4046253Y-8131150D02*
X4017682Y-8131150D01*
X4017682Y-8131150D02*
X3998634Y-8140674D01*
X3998634Y-8140674D02*
X3989110Y-8150198D01*
X4198634Y-8264484D02*
X4179587Y-8254960D01*
X4179587Y-8254960D02*
X4170063Y-8245436D01*
X4170063Y-8245436D02*
X4160539Y-8226388D01*
X4160539Y-8226388D02*
X4160539Y-8169246D01*
X4160539Y-8169246D02*
X4170063Y-8150198D01*
X4170063Y-8150198D02*
X4179587Y-8140674D01*
X4179587Y-8140674D02*
X4198634Y-8131150D01*
X4198634Y-8131150D02*
X4227206Y-8131150D01*
X4227206Y-8131150D02*
X4246253Y-8140674D01*
X4246253Y-8140674D02*
X4255777Y-8150198D01*
X4255777Y-8150198D02*
X4265301Y-8169246D01*
X4265301Y-8169246D02*
X4265301Y-8226388D01*
X4265301Y-8226388D02*
X4255777Y-8245436D01*
X4255777Y-8245436D02*
X4246253Y-8254960D01*
X4246253Y-8254960D02*
X4227206Y-8264484D01*
X4227206Y-8264484D02*
X4198634Y-8264484D01*
X4379587Y-8264484D02*
X4360539Y-8254960D01*
X4360539Y-8254960D02*
X4351015Y-8235912D01*
X4351015Y-8235912D02*
X4351015Y-8064484D01*
X4531968Y-8254960D02*
X4512920Y-8264484D01*
X4512920Y-8264484D02*
X4474825Y-8264484D01*
X4474825Y-8264484D02*
X4455777Y-8254960D01*
X4455777Y-8254960D02*
X4446253Y-8235912D01*
X4446253Y-8235912D02*
X4446253Y-8159722D01*
X4446253Y-8159722D02*
X4455777Y-8140674D01*
X4455777Y-8140674D02*
X4474825Y-8131150D01*
X4474825Y-8131150D02*
X4512920Y-8131150D01*
X4512920Y-8131150D02*
X4531968Y-8140674D01*
X4531968Y-8140674D02*
X4541492Y-8159722D01*
X4541492Y-8159722D02*
X4541492Y-8178769D01*
X4541492Y-8178769D02*
X4446253Y-8197817D01*
X4617682Y-8254960D02*
X4636730Y-8264484D01*
X4636730Y-8264484D02*
X4674825Y-8264484D01*
X4674825Y-8264484D02*
X4693873Y-8254960D01*
X4693873Y-8254960D02*
X4703396Y-8235912D01*
X4703396Y-8235912D02*
X4703396Y-8226388D01*
X4703396Y-8226388D02*
X4693873Y-8207341D01*
X4693873Y-8207341D02*
X4674825Y-8197817D01*
X4674825Y-8197817D02*
X4646253Y-8197817D01*
X4646253Y-8197817D02*
X4627206Y-8188293D01*
X4627206Y-8188293D02*
X4617682Y-8169246D01*
X4617682Y-8169246D02*
X4617682Y-8159722D01*
X4617682Y-8159722D02*
X4627206Y-8140674D01*
X4627206Y-8140674D02*
X4646253Y-8131150D01*
X4646253Y-8131150D02*
X4674825Y-8131150D01*
X4674825Y-8131150D02*
X4693873Y-8140674D01*
X4770063Y-8340674D02*
X4779587Y-8331150D01*
X4779587Y-8331150D02*
X4798634Y-8302579D01*
X4798634Y-8302579D02*
X4808158Y-8283531D01*
X4808158Y-8283531D02*
X4817682Y-8254960D01*
X4817682Y-8254960D02*
X4827206Y-8207341D01*
X4827206Y-8207341D02*
X4827206Y-8169246D01*
X4827206Y-8169246D02*
X4817682Y-8121627D01*
X4817682Y-8121627D02*
X4808158Y-8093055D01*
X4808158Y-8093055D02*
X4798634Y-8074008D01*
X4798634Y-8074008D02*
X4779587Y-8045436D01*
X4779587Y-8045436D02*
X4770063Y-8035912D01*
D12*
X-19937Y-8473063D02*
X-19937Y-8400937D01*
X-92063Y-8400937D01*
X-92063Y-8473063D01*
X-19937Y-8473063D01*
D11*
X360539Y-8528484D02*
X246253Y-8528484D01*
X303396Y-8528484D02*
X303396Y-8328484D01*
X303396Y-8328484D02*
X284348Y-8357055D01*
X284348Y-8357055D02*
X265301Y-8376103D01*
X265301Y-8376103D02*
X246253Y-8385627D01*
X446253Y-8509436D02*
X455777Y-8518960D01*
X455777Y-8518960D02*
X446253Y-8528484D01*
X446253Y-8528484D02*
X436729Y-8518960D01*
X436729Y-8518960D02*
X446253Y-8509436D01*
X446253Y-8509436D02*
X446253Y-8528484D01*
X579586Y-8328484D02*
X598634Y-8328484D01*
X598634Y-8328484D02*
X617682Y-8338008D01*
X617682Y-8338008D02*
X627205Y-8347531D01*
X627205Y-8347531D02*
X636729Y-8366579D01*
X636729Y-8366579D02*
X646253Y-8404674D01*
X646253Y-8404674D02*
X646253Y-8452293D01*
X646253Y-8452293D02*
X636729Y-8490389D01*
X636729Y-8490389D02*
X627205Y-8509436D01*
X627205Y-8509436D02*
X617682Y-8518960D01*
X617682Y-8518960D02*
X598634Y-8528484D01*
X598634Y-8528484D02*
X579586Y-8528484D01*
X579586Y-8528484D02*
X560539Y-8518960D01*
X560539Y-8518960D02*
X551015Y-8509436D01*
X551015Y-8509436D02*
X541491Y-8490389D01*
X541491Y-8490389D02*
X531967Y-8452293D01*
X531967Y-8452293D02*
X531967Y-8404674D01*
X531967Y-8404674D02*
X541491Y-8366579D01*
X541491Y-8366579D02*
X551015Y-8347531D01*
X551015Y-8347531D02*
X560539Y-8338008D01*
X560539Y-8338008D02*
X579586Y-8328484D01*
X722443Y-8347531D02*
X731967Y-8338008D01*
X731967Y-8338008D02*
X751015Y-8328484D01*
X751015Y-8328484D02*
X798634Y-8328484D01*
X798634Y-8328484D02*
X817682Y-8338008D01*
X817682Y-8338008D02*
X827205Y-8347531D01*
X827205Y-8347531D02*
X836729Y-8366579D01*
X836729Y-8366579D02*
X836729Y-8385627D01*
X836729Y-8385627D02*
X827205Y-8414198D01*
X827205Y-8414198D02*
X712920Y-8528484D01*
X712920Y-8528484D02*
X836729Y-8528484D01*
X960539Y-8328484D02*
X979586Y-8328484D01*
X979586Y-8328484D02*
X998634Y-8338008D01*
X998634Y-8338008D02*
X1008158Y-8347531D01*
X1008158Y-8347531D02*
X1017682Y-8366579D01*
X1017682Y-8366579D02*
X1027205Y-8404674D01*
X1027205Y-8404674D02*
X1027205Y-8452293D01*
X1027205Y-8452293D02*
X1017682Y-8490389D01*
X1017682Y-8490389D02*
X1008158Y-8509436D01*
X1008158Y-8509436D02*
X998634Y-8518960D01*
X998634Y-8518960D02*
X979586Y-8528484D01*
X979586Y-8528484D02*
X960539Y-8528484D01*
X960539Y-8528484D02*
X941491Y-8518960D01*
X941491Y-8518960D02*
X931967Y-8509436D01*
X931967Y-8509436D02*
X922443Y-8490389D01*
X922443Y-8490389D02*
X912920Y-8452293D01*
X912920Y-8452293D02*
X912920Y-8404674D01*
X912920Y-8404674D02*
X922443Y-8366579D01*
X922443Y-8366579D02*
X931967Y-8347531D01*
X931967Y-8347531D02*
X941491Y-8338008D01*
X941491Y-8338008D02*
X960539Y-8328484D01*
X1112920Y-8528484D02*
X1112920Y-8395150D01*
X1112920Y-8414198D02*
X1122444Y-8404674D01*
X1122444Y-8404674D02*
X1141491Y-8395150D01*
X1141491Y-8395150D02*
X1170063Y-8395150D01*
X1170063Y-8395150D02*
X1189110Y-8404674D01*
X1189110Y-8404674D02*
X1198634Y-8423722D01*
X1198634Y-8423722D02*
X1198634Y-8528484D01*
X1198634Y-8423722D02*
X1208158Y-8404674D01*
X1208158Y-8404674D02*
X1227205Y-8395150D01*
X1227205Y-8395150D02*
X1255777Y-8395150D01*
X1255777Y-8395150D02*
X1274825Y-8404674D01*
X1274825Y-8404674D02*
X1284348Y-8423722D01*
X1284348Y-8423722D02*
X1284348Y-8528484D01*
X1379586Y-8528484D02*
X1379586Y-8395150D01*
X1379586Y-8414198D02*
X1389110Y-8404674D01*
X1389110Y-8404674D02*
X1408158Y-8395150D01*
X1408158Y-8395150D02*
X1436729Y-8395150D01*
X1436729Y-8395150D02*
X1455777Y-8404674D01*
X1455777Y-8404674D02*
X1465301Y-8423722D01*
X1465301Y-8423722D02*
X1465301Y-8528484D01*
X1465301Y-8423722D02*
X1474824Y-8404674D01*
X1474824Y-8404674D02*
X1493872Y-8395150D01*
X1493872Y-8395150D02*
X1522443Y-8395150D01*
X1522443Y-8395150D02*
X1541491Y-8404674D01*
X1541491Y-8404674D02*
X1551015Y-8423722D01*
X1551015Y-8423722D02*
X1551015Y-8528484D01*
X1941491Y-8318960D02*
X1770063Y-8576103D01*
X2198634Y-8328484D02*
X2217682Y-8328484D01*
X2217682Y-8328484D02*
X2236729Y-8338008D01*
X2236729Y-8338008D02*
X2246253Y-8347531D01*
X2246253Y-8347531D02*
X2255777Y-8366579D01*
X2255777Y-8366579D02*
X2265301Y-8404674D01*
X2265301Y-8404674D02*
X2265301Y-8452293D01*
X2265301Y-8452293D02*
X2255777Y-8490389D01*
X2255777Y-8490389D02*
X2246253Y-8509436D01*
X2246253Y-8509436D02*
X2236729Y-8518960D01*
X2236729Y-8518960D02*
X2217682Y-8528484D01*
X2217682Y-8528484D02*
X2198634Y-8528484D01*
X2198634Y-8528484D02*
X2179587Y-8518960D01*
X2179587Y-8518960D02*
X2170063Y-8509436D01*
X2170063Y-8509436D02*
X2160539Y-8490389D01*
X2160539Y-8490389D02*
X2151015Y-8452293D01*
X2151015Y-8452293D02*
X2151015Y-8404674D01*
X2151015Y-8404674D02*
X2160539Y-8366579D01*
X2160539Y-8366579D02*
X2170063Y-8347531D01*
X2170063Y-8347531D02*
X2179587Y-8338008D01*
X2179587Y-8338008D02*
X2198634Y-8328484D01*
X2351015Y-8509436D02*
X2360539Y-8518960D01*
X2360539Y-8518960D02*
X2351015Y-8528484D01*
X2351015Y-8528484D02*
X2341491Y-8518960D01*
X2341491Y-8518960D02*
X2351015Y-8509436D01*
X2351015Y-8509436D02*
X2351015Y-8528484D01*
X2484348Y-8328484D02*
X2503396Y-8328484D01*
X2503396Y-8328484D02*
X2522444Y-8338008D01*
X2522444Y-8338008D02*
X2531968Y-8347531D01*
X2531968Y-8347531D02*
X2541491Y-8366579D01*
X2541491Y-8366579D02*
X2551015Y-8404674D01*
X2551015Y-8404674D02*
X2551015Y-8452293D01*
X2551015Y-8452293D02*
X2541491Y-8490389D01*
X2541491Y-8490389D02*
X2531968Y-8509436D01*
X2531968Y-8509436D02*
X2522444Y-8518960D01*
X2522444Y-8518960D02*
X2503396Y-8528484D01*
X2503396Y-8528484D02*
X2484348Y-8528484D01*
X2484348Y-8528484D02*
X2465301Y-8518960D01*
X2465301Y-8518960D02*
X2455777Y-8509436D01*
X2455777Y-8509436D02*
X2446253Y-8490389D01*
X2446253Y-8490389D02*
X2436729Y-8452293D01*
X2436729Y-8452293D02*
X2436729Y-8404674D01*
X2436729Y-8404674D02*
X2446253Y-8366579D01*
X2446253Y-8366579D02*
X2455777Y-8347531D01*
X2455777Y-8347531D02*
X2465301Y-8338008D01*
X2465301Y-8338008D02*
X2484348Y-8328484D01*
X2722444Y-8395150D02*
X2722444Y-8528484D01*
X2674825Y-8318960D02*
X2627206Y-8461817D01*
X2627206Y-8461817D02*
X2751015Y-8461817D01*
X2865301Y-8328484D02*
X2884348Y-8328484D01*
X2884348Y-8328484D02*
X2903396Y-8338008D01*
X2903396Y-8338008D02*
X2912920Y-8347531D01*
X2912920Y-8347531D02*
X2922444Y-8366579D01*
X2922444Y-8366579D02*
X2931967Y-8404674D01*
X2931967Y-8404674D02*
X2931967Y-8452293D01*
X2931967Y-8452293D02*
X2922444Y-8490389D01*
X2922444Y-8490389D02*
X2912920Y-8509436D01*
X2912920Y-8509436D02*
X2903396Y-8518960D01*
X2903396Y-8518960D02*
X2884348Y-8528484D01*
X2884348Y-8528484D02*
X2865301Y-8528484D01*
X2865301Y-8528484D02*
X2846253Y-8518960D01*
X2846253Y-8518960D02*
X2836729Y-8509436D01*
X2836729Y-8509436D02*
X2827206Y-8490389D01*
X2827206Y-8490389D02*
X2817682Y-8452293D01*
X2817682Y-8452293D02*
X2817682Y-8404674D01*
X2817682Y-8404674D02*
X2827206Y-8366579D01*
X2827206Y-8366579D02*
X2836729Y-8347531D01*
X2836729Y-8347531D02*
X2846253Y-8338008D01*
X2846253Y-8338008D02*
X2865301Y-8328484D01*
X3008158Y-8347531D02*
X3017682Y-8338008D01*
X3017682Y-8338008D02*
X3036729Y-8328484D01*
X3036729Y-8328484D02*
X3084348Y-8328484D01*
X3084348Y-8328484D02*
X3103396Y-8338008D01*
X3103396Y-8338008D02*
X3112920Y-8347531D01*
X3112920Y-8347531D02*
X3122444Y-8366579D01*
X3122444Y-8366579D02*
X3122444Y-8385627D01*
X3122444Y-8385627D02*
X3112920Y-8414198D01*
X3112920Y-8414198D02*
X2998634Y-8528484D01*
X2998634Y-8528484D02*
X3122444Y-8528484D01*
X3198634Y-8328484D02*
X3198634Y-8366579D01*
X3274825Y-8328484D02*
X3274825Y-8366579D01*
X3570063Y-8604674D02*
X3560539Y-8595150D01*
X3560539Y-8595150D02*
X3541491Y-8566579D01*
X3541491Y-8566579D02*
X3531968Y-8547531D01*
X3531968Y-8547531D02*
X3522444Y-8518960D01*
X3522444Y-8518960D02*
X3512920Y-8471341D01*
X3512920Y-8471341D02*
X3512920Y-8433246D01*
X3512920Y-8433246D02*
X3522444Y-8385627D01*
X3522444Y-8385627D02*
X3531968Y-8357055D01*
X3531968Y-8357055D02*
X3541491Y-8338008D01*
X3541491Y-8338008D02*
X3560539Y-8309436D01*
X3560539Y-8309436D02*
X3570063Y-8299912D01*
X3731968Y-8328484D02*
X3693872Y-8328484D01*
X3693872Y-8328484D02*
X3674825Y-8338008D01*
X3674825Y-8338008D02*
X3665301Y-8347531D01*
X3665301Y-8347531D02*
X3646253Y-8376103D01*
X3646253Y-8376103D02*
X3636729Y-8414198D01*
X3636729Y-8414198D02*
X3636729Y-8490389D01*
X3636729Y-8490389D02*
X3646253Y-8509436D01*
X3646253Y-8509436D02*
X3655777Y-8518960D01*
X3655777Y-8518960D02*
X3674825Y-8528484D01*
X3674825Y-8528484D02*
X3712920Y-8528484D01*
X3712920Y-8528484D02*
X3731968Y-8518960D01*
X3731968Y-8518960D02*
X3741491Y-8509436D01*
X3741491Y-8509436D02*
X3751015Y-8490389D01*
X3751015Y-8490389D02*
X3751015Y-8442770D01*
X3751015Y-8442770D02*
X3741491Y-8423722D01*
X3741491Y-8423722D02*
X3731968Y-8414198D01*
X3731968Y-8414198D02*
X3712920Y-8404674D01*
X3712920Y-8404674D02*
X3674825Y-8404674D01*
X3674825Y-8404674D02*
X3655777Y-8414198D01*
X3655777Y-8414198D02*
X3646253Y-8423722D01*
X3646253Y-8423722D02*
X3636729Y-8442770D01*
X3989110Y-8528484D02*
X3989110Y-8328484D01*
X4074825Y-8528484D02*
X4074825Y-8423722D01*
X4074825Y-8423722D02*
X4065301Y-8404674D01*
X4065301Y-8404674D02*
X4046253Y-8395150D01*
X4046253Y-8395150D02*
X4017682Y-8395150D01*
X4017682Y-8395150D02*
X3998634Y-8404674D01*
X3998634Y-8404674D02*
X3989110Y-8414198D01*
X4198634Y-8528484D02*
X4179587Y-8518960D01*
X4179587Y-8518960D02*
X4170063Y-8509436D01*
X4170063Y-8509436D02*
X4160539Y-8490389D01*
X4160539Y-8490389D02*
X4160539Y-8433246D01*
X4160539Y-8433246D02*
X4170063Y-8414198D01*
X4170063Y-8414198D02*
X4179587Y-8404674D01*
X4179587Y-8404674D02*
X4198634Y-8395150D01*
X4198634Y-8395150D02*
X4227206Y-8395150D01*
X4227206Y-8395150D02*
X4246253Y-8404674D01*
X4246253Y-8404674D02*
X4255777Y-8414198D01*
X4255777Y-8414198D02*
X4265301Y-8433246D01*
X4265301Y-8433246D02*
X4265301Y-8490389D01*
X4265301Y-8490389D02*
X4255777Y-8509436D01*
X4255777Y-8509436D02*
X4246253Y-8518960D01*
X4246253Y-8518960D02*
X4227206Y-8528484D01*
X4227206Y-8528484D02*
X4198634Y-8528484D01*
X4379587Y-8528484D02*
X4360539Y-8518960D01*
X4360539Y-8518960D02*
X4351015Y-8499912D01*
X4351015Y-8499912D02*
X4351015Y-8328484D01*
X4531968Y-8518960D02*
X4512920Y-8528484D01*
X4512920Y-8528484D02*
X4474825Y-8528484D01*
X4474825Y-8528484D02*
X4455777Y-8518960D01*
X4455777Y-8518960D02*
X4446253Y-8499912D01*
X4446253Y-8499912D02*
X4446253Y-8423722D01*
X4446253Y-8423722D02*
X4455777Y-8404674D01*
X4455777Y-8404674D02*
X4474825Y-8395150D01*
X4474825Y-8395150D02*
X4512920Y-8395150D01*
X4512920Y-8395150D02*
X4531968Y-8404674D01*
X4531968Y-8404674D02*
X4541492Y-8423722D01*
X4541492Y-8423722D02*
X4541492Y-8442770D01*
X4541492Y-8442770D02*
X4446253Y-8461817D01*
X4617682Y-8518960D02*
X4636730Y-8528484D01*
X4636730Y-8528484D02*
X4674825Y-8528484D01*
X4674825Y-8528484D02*
X4693873Y-8518960D01*
X4693873Y-8518960D02*
X4703396Y-8499912D01*
X4703396Y-8499912D02*
X4703396Y-8490389D01*
X4703396Y-8490389D02*
X4693873Y-8471341D01*
X4693873Y-8471341D02*
X4674825Y-8461817D01*
X4674825Y-8461817D02*
X4646253Y-8461817D01*
X4646253Y-8461817D02*
X4627206Y-8452293D01*
X4627206Y-8452293D02*
X4617682Y-8433246D01*
X4617682Y-8433246D02*
X4617682Y-8423722D01*
X4617682Y-8423722D02*
X4627206Y-8404674D01*
X4627206Y-8404674D02*
X4646253Y-8395150D01*
X4646253Y-8395150D02*
X4674825Y-8395150D01*
X4674825Y-8395150D02*
X4693873Y-8404674D01*
X4770063Y-8604674D02*
X4779587Y-8595150D01*
X4779587Y-8595150D02*
X4798634Y-8566579D01*
X4798634Y-8566579D02*
X4808158Y-8547531D01*
X4808158Y-8547531D02*
X4817682Y-8518960D01*
X4817682Y-8518960D02*
X4827206Y-8471341D01*
X4827206Y-8471341D02*
X4827206Y-8433246D01*
X4827206Y-8433246D02*
X4817682Y-8385627D01*
X4817682Y-8385627D02*
X4808158Y-8357055D01*
X4808158Y-8357055D02*
X4798634Y-8338008D01*
X4798634Y-8338008D02*
X4779587Y-8309436D01*
X4779587Y-8309436D02*
X4770063Y-8299912D01*
D13*
X-65000Y-8761000D02*
X-5000Y-8701000D01*
X-65000Y-8641000D01*
X-125000Y-8701000D01*
X-65000Y-8761000D01*
D11*
X360539Y-8792484D02*
X246253Y-8792484D01*
X303396Y-8792484D02*
X303396Y-8592484D01*
X303396Y-8592484D02*
X284348Y-8621055D01*
X284348Y-8621055D02*
X265301Y-8640103D01*
X265301Y-8640103D02*
X246253Y-8649627D01*
X446253Y-8773436D02*
X455777Y-8782960D01*
X455777Y-8782960D02*
X446253Y-8792484D01*
X446253Y-8792484D02*
X436729Y-8782960D01*
X436729Y-8782960D02*
X446253Y-8773436D01*
X446253Y-8773436D02*
X446253Y-8792484D01*
X531967Y-8611531D02*
X541491Y-8602008D01*
X541491Y-8602008D02*
X560539Y-8592484D01*
X560539Y-8592484D02*
X608158Y-8592484D01*
X608158Y-8592484D02*
X627205Y-8602008D01*
X627205Y-8602008D02*
X636729Y-8611531D01*
X636729Y-8611531D02*
X646253Y-8630579D01*
X646253Y-8630579D02*
X646253Y-8649627D01*
X646253Y-8649627D02*
X636729Y-8678198D01*
X636729Y-8678198D02*
X522443Y-8792484D01*
X522443Y-8792484D02*
X646253Y-8792484D01*
X770062Y-8592484D02*
X789110Y-8592484D01*
X789110Y-8592484D02*
X808158Y-8602008D01*
X808158Y-8602008D02*
X817682Y-8611531D01*
X817682Y-8611531D02*
X827205Y-8630579D01*
X827205Y-8630579D02*
X836729Y-8668674D01*
X836729Y-8668674D02*
X836729Y-8716293D01*
X836729Y-8716293D02*
X827205Y-8754389D01*
X827205Y-8754389D02*
X817682Y-8773436D01*
X817682Y-8773436D02*
X808158Y-8782960D01*
X808158Y-8782960D02*
X789110Y-8792484D01*
X789110Y-8792484D02*
X770062Y-8792484D01*
X770062Y-8792484D02*
X751015Y-8782960D01*
X751015Y-8782960D02*
X741491Y-8773436D01*
X741491Y-8773436D02*
X731967Y-8754389D01*
X731967Y-8754389D02*
X722443Y-8716293D01*
X722443Y-8716293D02*
X722443Y-8668674D01*
X722443Y-8668674D02*
X731967Y-8630579D01*
X731967Y-8630579D02*
X741491Y-8611531D01*
X741491Y-8611531D02*
X751015Y-8602008D01*
X751015Y-8602008D02*
X770062Y-8592484D01*
X960539Y-8592484D02*
X979586Y-8592484D01*
X979586Y-8592484D02*
X998634Y-8602008D01*
X998634Y-8602008D02*
X1008158Y-8611531D01*
X1008158Y-8611531D02*
X1017682Y-8630579D01*
X1017682Y-8630579D02*
X1027205Y-8668674D01*
X1027205Y-8668674D02*
X1027205Y-8716293D01*
X1027205Y-8716293D02*
X1017682Y-8754389D01*
X1017682Y-8754389D02*
X1008158Y-8773436D01*
X1008158Y-8773436D02*
X998634Y-8782960D01*
X998634Y-8782960D02*
X979586Y-8792484D01*
X979586Y-8792484D02*
X960539Y-8792484D01*
X960539Y-8792484D02*
X941491Y-8782960D01*
X941491Y-8782960D02*
X931967Y-8773436D01*
X931967Y-8773436D02*
X922443Y-8754389D01*
X922443Y-8754389D02*
X912920Y-8716293D01*
X912920Y-8716293D02*
X912920Y-8668674D01*
X912920Y-8668674D02*
X922443Y-8630579D01*
X922443Y-8630579D02*
X931967Y-8611531D01*
X931967Y-8611531D02*
X941491Y-8602008D01*
X941491Y-8602008D02*
X960539Y-8592484D01*
X1112920Y-8792484D02*
X1112920Y-8659150D01*
X1112920Y-8678198D02*
X1122444Y-8668674D01*
X1122444Y-8668674D02*
X1141491Y-8659150D01*
X1141491Y-8659150D02*
X1170063Y-8659150D01*
X1170063Y-8659150D02*
X1189110Y-8668674D01*
X1189110Y-8668674D02*
X1198634Y-8687722D01*
X1198634Y-8687722D02*
X1198634Y-8792484D01*
X1198634Y-8687722D02*
X1208158Y-8668674D01*
X1208158Y-8668674D02*
X1227205Y-8659150D01*
X1227205Y-8659150D02*
X1255777Y-8659150D01*
X1255777Y-8659150D02*
X1274825Y-8668674D01*
X1274825Y-8668674D02*
X1284348Y-8687722D01*
X1284348Y-8687722D02*
X1284348Y-8792484D01*
X1379586Y-8792484D02*
X1379586Y-8659150D01*
X1379586Y-8678198D02*
X1389110Y-8668674D01*
X1389110Y-8668674D02*
X1408158Y-8659150D01*
X1408158Y-8659150D02*
X1436729Y-8659150D01*
X1436729Y-8659150D02*
X1455777Y-8668674D01*
X1455777Y-8668674D02*
X1465301Y-8687722D01*
X1465301Y-8687722D02*
X1465301Y-8792484D01*
X1465301Y-8687722D02*
X1474824Y-8668674D01*
X1474824Y-8668674D02*
X1493872Y-8659150D01*
X1493872Y-8659150D02*
X1522443Y-8659150D01*
X1522443Y-8659150D02*
X1541491Y-8668674D01*
X1541491Y-8668674D02*
X1551015Y-8687722D01*
X1551015Y-8687722D02*
X1551015Y-8792484D01*
X1941491Y-8582960D02*
X1770063Y-8840103D01*
X2198634Y-8592484D02*
X2217682Y-8592484D01*
X2217682Y-8592484D02*
X2236729Y-8602008D01*
X2236729Y-8602008D02*
X2246253Y-8611531D01*
X2246253Y-8611531D02*
X2255777Y-8630579D01*
X2255777Y-8630579D02*
X2265301Y-8668674D01*
X2265301Y-8668674D02*
X2265301Y-8716293D01*
X2265301Y-8716293D02*
X2255777Y-8754389D01*
X2255777Y-8754389D02*
X2246253Y-8773436D01*
X2246253Y-8773436D02*
X2236729Y-8782960D01*
X2236729Y-8782960D02*
X2217682Y-8792484D01*
X2217682Y-8792484D02*
X2198634Y-8792484D01*
X2198634Y-8792484D02*
X2179587Y-8782960D01*
X2179587Y-8782960D02*
X2170063Y-8773436D01*
X2170063Y-8773436D02*
X2160539Y-8754389D01*
X2160539Y-8754389D02*
X2151015Y-8716293D01*
X2151015Y-8716293D02*
X2151015Y-8668674D01*
X2151015Y-8668674D02*
X2160539Y-8630579D01*
X2160539Y-8630579D02*
X2170063Y-8611531D01*
X2170063Y-8611531D02*
X2179587Y-8602008D01*
X2179587Y-8602008D02*
X2198634Y-8592484D01*
X2351015Y-8773436D02*
X2360539Y-8782960D01*
X2360539Y-8782960D02*
X2351015Y-8792484D01*
X2351015Y-8792484D02*
X2341491Y-8782960D01*
X2341491Y-8782960D02*
X2351015Y-8773436D01*
X2351015Y-8773436D02*
X2351015Y-8792484D01*
X2484348Y-8592484D02*
X2503396Y-8592484D01*
X2503396Y-8592484D02*
X2522444Y-8602008D01*
X2522444Y-8602008D02*
X2531968Y-8611531D01*
X2531968Y-8611531D02*
X2541491Y-8630579D01*
X2541491Y-8630579D02*
X2551015Y-8668674D01*
X2551015Y-8668674D02*
X2551015Y-8716293D01*
X2551015Y-8716293D02*
X2541491Y-8754389D01*
X2541491Y-8754389D02*
X2531968Y-8773436D01*
X2531968Y-8773436D02*
X2522444Y-8782960D01*
X2522444Y-8782960D02*
X2503396Y-8792484D01*
X2503396Y-8792484D02*
X2484348Y-8792484D01*
X2484348Y-8792484D02*
X2465301Y-8782960D01*
X2465301Y-8782960D02*
X2455777Y-8773436D01*
X2455777Y-8773436D02*
X2446253Y-8754389D01*
X2446253Y-8754389D02*
X2436729Y-8716293D01*
X2436729Y-8716293D02*
X2436729Y-8668674D01*
X2436729Y-8668674D02*
X2446253Y-8630579D01*
X2446253Y-8630579D02*
X2455777Y-8611531D01*
X2455777Y-8611531D02*
X2465301Y-8602008D01*
X2465301Y-8602008D02*
X2484348Y-8592484D01*
X2722444Y-8659150D02*
X2722444Y-8792484D01*
X2674825Y-8582960D02*
X2627206Y-8725817D01*
X2627206Y-8725817D02*
X2751015Y-8725817D01*
X2808158Y-8592484D02*
X2941491Y-8592484D01*
X2941491Y-8592484D02*
X2855777Y-8792484D01*
X3008158Y-8611531D02*
X3017682Y-8602008D01*
X3017682Y-8602008D02*
X3036729Y-8592484D01*
X3036729Y-8592484D02*
X3084348Y-8592484D01*
X3084348Y-8592484D02*
X3103396Y-8602008D01*
X3103396Y-8602008D02*
X3112920Y-8611531D01*
X3112920Y-8611531D02*
X3122444Y-8630579D01*
X3122444Y-8630579D02*
X3122444Y-8649627D01*
X3122444Y-8649627D02*
X3112920Y-8678198D01*
X3112920Y-8678198D02*
X2998634Y-8792484D01*
X2998634Y-8792484D02*
X3122444Y-8792484D01*
X3198634Y-8592484D02*
X3198634Y-8630579D01*
X3274825Y-8592484D02*
X3274825Y-8630579D01*
X3570063Y-8868674D02*
X3560539Y-8859150D01*
X3560539Y-8859150D02*
X3541491Y-8830579D01*
X3541491Y-8830579D02*
X3531968Y-8811531D01*
X3531968Y-8811531D02*
X3522444Y-8782960D01*
X3522444Y-8782960D02*
X3512920Y-8735341D01*
X3512920Y-8735341D02*
X3512920Y-8697246D01*
X3512920Y-8697246D02*
X3522444Y-8649627D01*
X3522444Y-8649627D02*
X3531968Y-8621055D01*
X3531968Y-8621055D02*
X3541491Y-8602008D01*
X3541491Y-8602008D02*
X3560539Y-8573436D01*
X3560539Y-8573436D02*
X3570063Y-8563912D01*
X3731968Y-8592484D02*
X3693872Y-8592484D01*
X3693872Y-8592484D02*
X3674825Y-8602008D01*
X3674825Y-8602008D02*
X3665301Y-8611531D01*
X3665301Y-8611531D02*
X3646253Y-8640103D01*
X3646253Y-8640103D02*
X3636729Y-8678198D01*
X3636729Y-8678198D02*
X3636729Y-8754389D01*
X3636729Y-8754389D02*
X3646253Y-8773436D01*
X3646253Y-8773436D02*
X3655777Y-8782960D01*
X3655777Y-8782960D02*
X3674825Y-8792484D01*
X3674825Y-8792484D02*
X3712920Y-8792484D01*
X3712920Y-8792484D02*
X3731968Y-8782960D01*
X3731968Y-8782960D02*
X3741491Y-8773436D01*
X3741491Y-8773436D02*
X3751015Y-8754389D01*
X3751015Y-8754389D02*
X3751015Y-8706770D01*
X3751015Y-8706770D02*
X3741491Y-8687722D01*
X3741491Y-8687722D02*
X3731968Y-8678198D01*
X3731968Y-8678198D02*
X3712920Y-8668674D01*
X3712920Y-8668674D02*
X3674825Y-8668674D01*
X3674825Y-8668674D02*
X3655777Y-8678198D01*
X3655777Y-8678198D02*
X3646253Y-8687722D01*
X3646253Y-8687722D02*
X3636729Y-8706770D01*
X3989110Y-8792484D02*
X3989110Y-8592484D01*
X4074825Y-8792484D02*
X4074825Y-8687722D01*
X4074825Y-8687722D02*
X4065301Y-8668674D01*
X4065301Y-8668674D02*
X4046253Y-8659150D01*
X4046253Y-8659150D02*
X4017682Y-8659150D01*
X4017682Y-8659150D02*
X3998634Y-8668674D01*
X3998634Y-8668674D02*
X3989110Y-8678198D01*
X4198634Y-8792484D02*
X4179587Y-8782960D01*
X4179587Y-8782960D02*
X4170063Y-8773436D01*
X4170063Y-8773436D02*
X4160539Y-8754389D01*
X4160539Y-8754389D02*
X4160539Y-8697246D01*
X4160539Y-8697246D02*
X4170063Y-8678198D01*
X4170063Y-8678198D02*
X4179587Y-8668674D01*
X4179587Y-8668674D02*
X4198634Y-8659150D01*
X4198634Y-8659150D02*
X4227206Y-8659150D01*
X4227206Y-8659150D02*
X4246253Y-8668674D01*
X4246253Y-8668674D02*
X4255777Y-8678198D01*
X4255777Y-8678198D02*
X4265301Y-8697246D01*
X4265301Y-8697246D02*
X4265301Y-8754389D01*
X4265301Y-8754389D02*
X4255777Y-8773436D01*
X4255777Y-8773436D02*
X4246253Y-8782960D01*
X4246253Y-8782960D02*
X4227206Y-8792484D01*
X4227206Y-8792484D02*
X4198634Y-8792484D01*
X4379587Y-8792484D02*
X4360539Y-8782960D01*
X4360539Y-8782960D02*
X4351015Y-8763912D01*
X4351015Y-8763912D02*
X4351015Y-8592484D01*
X4531968Y-8782960D02*
X4512920Y-8792484D01*
X4512920Y-8792484D02*
X4474825Y-8792484D01*
X4474825Y-8792484D02*
X4455777Y-8782960D01*
X4455777Y-8782960D02*
X4446253Y-8763912D01*
X4446253Y-8763912D02*
X4446253Y-8687722D01*
X4446253Y-8687722D02*
X4455777Y-8668674D01*
X4455777Y-8668674D02*
X4474825Y-8659150D01*
X4474825Y-8659150D02*
X4512920Y-8659150D01*
X4512920Y-8659150D02*
X4531968Y-8668674D01*
X4531968Y-8668674D02*
X4541492Y-8687722D01*
X4541492Y-8687722D02*
X4541492Y-8706770D01*
X4541492Y-8706770D02*
X4446253Y-8725817D01*
X4617682Y-8782960D02*
X4636730Y-8792484D01*
X4636730Y-8792484D02*
X4674825Y-8792484D01*
X4674825Y-8792484D02*
X4693873Y-8782960D01*
X4693873Y-8782960D02*
X4703396Y-8763912D01*
X4703396Y-8763912D02*
X4703396Y-8754389D01*
X4703396Y-8754389D02*
X4693873Y-8735341D01*
X4693873Y-8735341D02*
X4674825Y-8725817D01*
X4674825Y-8725817D02*
X4646253Y-8725817D01*
X4646253Y-8725817D02*
X4627206Y-8716293D01*
X4627206Y-8716293D02*
X4617682Y-8697246D01*
X4617682Y-8697246D02*
X4617682Y-8687722D01*
X4617682Y-8687722D02*
X4627206Y-8668674D01*
X4627206Y-8668674D02*
X4646253Y-8659150D01*
X4646253Y-8659150D02*
X4674825Y-8659150D01*
X4674825Y-8659150D02*
X4693873Y-8668674D01*
X4770063Y-8868674D02*
X4779587Y-8859150D01*
X4779587Y-8859150D02*
X4798634Y-8830579D01*
X4798634Y-8830579D02*
X4808158Y-8811531D01*
X4808158Y-8811531D02*
X4817682Y-8782960D01*
X4817682Y-8782960D02*
X4827206Y-8735341D01*
X4827206Y-8735341D02*
X4827206Y-8697246D01*
X4827206Y-8697246D02*
X4817682Y-8649627D01*
X4817682Y-8649627D02*
X4808158Y-8621055D01*
X4808158Y-8621055D02*
X4798634Y-8602008D01*
X4798634Y-8602008D02*
X4779587Y-8573436D01*
X4779587Y-8573436D02*
X4770063Y-8563912D01*
X-205000Y-8865000D02*
X-5000Y-9065000D01*
X-5000Y-8865000D02*
X-205000Y-9065000D01*
X-5000Y-8965000D02*
G75*
G03*
X-205000Y-8965000I-100000J0D01*
G01*
X-205000Y-8965000D02*
G75*
G03*
X-5000Y-8965000I100000J0D01*
G01*
X236729Y-8856484D02*
X360539Y-8856484D01*
X360539Y-8856484D02*
X293872Y-8932674D01*
X293872Y-8932674D02*
X322444Y-8932674D01*
X322444Y-8932674D02*
X341491Y-8942198D01*
X341491Y-8942198D02*
X351015Y-8951722D01*
X351015Y-8951722D02*
X360539Y-8970770D01*
X360539Y-8970770D02*
X360539Y-9018389D01*
X360539Y-9018389D02*
X351015Y-9037436D01*
X351015Y-9037436D02*
X341491Y-9046960D01*
X341491Y-9046960D02*
X322444Y-9056484D01*
X322444Y-9056484D02*
X265301Y-9056484D01*
X265301Y-9056484D02*
X246253Y-9046960D01*
X246253Y-9046960D02*
X236729Y-9037436D01*
X446253Y-9037436D02*
X455777Y-9046960D01*
X455777Y-9046960D02*
X446253Y-9056484D01*
X446253Y-9056484D02*
X436729Y-9046960D01*
X436729Y-9046960D02*
X446253Y-9037436D01*
X446253Y-9037436D02*
X446253Y-9056484D01*
X579586Y-8856484D02*
X598634Y-8856484D01*
X598634Y-8856484D02*
X617682Y-8866008D01*
X617682Y-8866008D02*
X627205Y-8875531D01*
X627205Y-8875531D02*
X636729Y-8894579D01*
X636729Y-8894579D02*
X646253Y-8932674D01*
X646253Y-8932674D02*
X646253Y-8980293D01*
X646253Y-8980293D02*
X636729Y-9018389D01*
X636729Y-9018389D02*
X627205Y-9037436D01*
X627205Y-9037436D02*
X617682Y-9046960D01*
X617682Y-9046960D02*
X598634Y-9056484D01*
X598634Y-9056484D02*
X579586Y-9056484D01*
X579586Y-9056484D02*
X560539Y-9046960D01*
X560539Y-9046960D02*
X551015Y-9037436D01*
X551015Y-9037436D02*
X541491Y-9018389D01*
X541491Y-9018389D02*
X531967Y-8980293D01*
X531967Y-8980293D02*
X531967Y-8932674D01*
X531967Y-8932674D02*
X541491Y-8894579D01*
X541491Y-8894579D02*
X551015Y-8875531D01*
X551015Y-8875531D02*
X560539Y-8866008D01*
X560539Y-8866008D02*
X579586Y-8856484D01*
X770062Y-8856484D02*
X789110Y-8856484D01*
X789110Y-8856484D02*
X808158Y-8866008D01*
X808158Y-8866008D02*
X817682Y-8875531D01*
X817682Y-8875531D02*
X827205Y-8894579D01*
X827205Y-8894579D02*
X836729Y-8932674D01*
X836729Y-8932674D02*
X836729Y-8980293D01*
X836729Y-8980293D02*
X827205Y-9018389D01*
X827205Y-9018389D02*
X817682Y-9037436D01*
X817682Y-9037436D02*
X808158Y-9046960D01*
X808158Y-9046960D02*
X789110Y-9056484D01*
X789110Y-9056484D02*
X770062Y-9056484D01*
X770062Y-9056484D02*
X751015Y-9046960D01*
X751015Y-9046960D02*
X741491Y-9037436D01*
X741491Y-9037436D02*
X731967Y-9018389D01*
X731967Y-9018389D02*
X722443Y-8980293D01*
X722443Y-8980293D02*
X722443Y-8932674D01*
X722443Y-8932674D02*
X731967Y-8894579D01*
X731967Y-8894579D02*
X741491Y-8875531D01*
X741491Y-8875531D02*
X751015Y-8866008D01*
X751015Y-8866008D02*
X770062Y-8856484D01*
X960539Y-8856484D02*
X979586Y-8856484D01*
X979586Y-8856484D02*
X998634Y-8866008D01*
X998634Y-8866008D02*
X1008158Y-8875531D01*
X1008158Y-8875531D02*
X1017682Y-8894579D01*
X1017682Y-8894579D02*
X1027205Y-8932674D01*
X1027205Y-8932674D02*
X1027205Y-8980293D01*
X1027205Y-8980293D02*
X1017682Y-9018389D01*
X1017682Y-9018389D02*
X1008158Y-9037436D01*
X1008158Y-9037436D02*
X998634Y-9046960D01*
X998634Y-9046960D02*
X979586Y-9056484D01*
X979586Y-9056484D02*
X960539Y-9056484D01*
X960539Y-9056484D02*
X941491Y-9046960D01*
X941491Y-9046960D02*
X931967Y-9037436D01*
X931967Y-9037436D02*
X922443Y-9018389D01*
X922443Y-9018389D02*
X912920Y-8980293D01*
X912920Y-8980293D02*
X912920Y-8932674D01*
X912920Y-8932674D02*
X922443Y-8894579D01*
X922443Y-8894579D02*
X931967Y-8875531D01*
X931967Y-8875531D02*
X941491Y-8866008D01*
X941491Y-8866008D02*
X960539Y-8856484D01*
X1112920Y-9056484D02*
X1112920Y-8923150D01*
X1112920Y-8942198D02*
X1122444Y-8932674D01*
X1122444Y-8932674D02*
X1141491Y-8923150D01*
X1141491Y-8923150D02*
X1170063Y-8923150D01*
X1170063Y-8923150D02*
X1189110Y-8932674D01*
X1189110Y-8932674D02*
X1198634Y-8951722D01*
X1198634Y-8951722D02*
X1198634Y-9056484D01*
X1198634Y-8951722D02*
X1208158Y-8932674D01*
X1208158Y-8932674D02*
X1227205Y-8923150D01*
X1227205Y-8923150D02*
X1255777Y-8923150D01*
X1255777Y-8923150D02*
X1274825Y-8932674D01*
X1274825Y-8932674D02*
X1284348Y-8951722D01*
X1284348Y-8951722D02*
X1284348Y-9056484D01*
X1379586Y-9056484D02*
X1379586Y-8923150D01*
X1379586Y-8942198D02*
X1389110Y-8932674D01*
X1389110Y-8932674D02*
X1408158Y-8923150D01*
X1408158Y-8923150D02*
X1436729Y-8923150D01*
X1436729Y-8923150D02*
X1455777Y-8932674D01*
X1455777Y-8932674D02*
X1465301Y-8951722D01*
X1465301Y-8951722D02*
X1465301Y-9056484D01*
X1465301Y-8951722D02*
X1474824Y-8932674D01*
X1474824Y-8932674D02*
X1493872Y-8923150D01*
X1493872Y-8923150D02*
X1522443Y-8923150D01*
X1522443Y-8923150D02*
X1541491Y-8932674D01*
X1541491Y-8932674D02*
X1551015Y-8951722D01*
X1551015Y-8951722D02*
X1551015Y-9056484D01*
X1941491Y-8846960D02*
X1770063Y-9104103D01*
X2198634Y-8856484D02*
X2217682Y-8856484D01*
X2217682Y-8856484D02*
X2236729Y-8866008D01*
X2236729Y-8866008D02*
X2246253Y-8875531D01*
X2246253Y-8875531D02*
X2255777Y-8894579D01*
X2255777Y-8894579D02*
X2265301Y-8932674D01*
X2265301Y-8932674D02*
X2265301Y-8980293D01*
X2265301Y-8980293D02*
X2255777Y-9018389D01*
X2255777Y-9018389D02*
X2246253Y-9037436D01*
X2246253Y-9037436D02*
X2236729Y-9046960D01*
X2236729Y-9046960D02*
X2217682Y-9056484D01*
X2217682Y-9056484D02*
X2198634Y-9056484D01*
X2198634Y-9056484D02*
X2179587Y-9046960D01*
X2179587Y-9046960D02*
X2170063Y-9037436D01*
X2170063Y-9037436D02*
X2160539Y-9018389D01*
X2160539Y-9018389D02*
X2151015Y-8980293D01*
X2151015Y-8980293D02*
X2151015Y-8932674D01*
X2151015Y-8932674D02*
X2160539Y-8894579D01*
X2160539Y-8894579D02*
X2170063Y-8875531D01*
X2170063Y-8875531D02*
X2179587Y-8866008D01*
X2179587Y-8866008D02*
X2198634Y-8856484D01*
X2351015Y-9037436D02*
X2360539Y-9046960D01*
X2360539Y-9046960D02*
X2351015Y-9056484D01*
X2351015Y-9056484D02*
X2341491Y-9046960D01*
X2341491Y-9046960D02*
X2351015Y-9037436D01*
X2351015Y-9037436D02*
X2351015Y-9056484D01*
X2551015Y-9056484D02*
X2436729Y-9056484D01*
X2493872Y-9056484D02*
X2493872Y-8856484D01*
X2493872Y-8856484D02*
X2474825Y-8885055D01*
X2474825Y-8885055D02*
X2455777Y-8904103D01*
X2455777Y-8904103D02*
X2436729Y-8913627D01*
X2741491Y-9056484D02*
X2627206Y-9056484D01*
X2684348Y-9056484D02*
X2684348Y-8856484D01*
X2684348Y-8856484D02*
X2665301Y-8885055D01*
X2665301Y-8885055D02*
X2646253Y-8904103D01*
X2646253Y-8904103D02*
X2627206Y-8913627D01*
X2855777Y-8942198D02*
X2836729Y-8932674D01*
X2836729Y-8932674D02*
X2827206Y-8923150D01*
X2827206Y-8923150D02*
X2817682Y-8904103D01*
X2817682Y-8904103D02*
X2817682Y-8894579D01*
X2817682Y-8894579D02*
X2827206Y-8875531D01*
X2827206Y-8875531D02*
X2836729Y-8866008D01*
X2836729Y-8866008D02*
X2855777Y-8856484D01*
X2855777Y-8856484D02*
X2893872Y-8856484D01*
X2893872Y-8856484D02*
X2912920Y-8866008D01*
X2912920Y-8866008D02*
X2922444Y-8875531D01*
X2922444Y-8875531D02*
X2931967Y-8894579D01*
X2931967Y-8894579D02*
X2931967Y-8904103D01*
X2931967Y-8904103D02*
X2922444Y-8923150D01*
X2922444Y-8923150D02*
X2912920Y-8932674D01*
X2912920Y-8932674D02*
X2893872Y-8942198D01*
X2893872Y-8942198D02*
X2855777Y-8942198D01*
X2855777Y-8942198D02*
X2836729Y-8951722D01*
X2836729Y-8951722D02*
X2827206Y-8961246D01*
X2827206Y-8961246D02*
X2817682Y-8980293D01*
X2817682Y-8980293D02*
X2817682Y-9018389D01*
X2817682Y-9018389D02*
X2827206Y-9037436D01*
X2827206Y-9037436D02*
X2836729Y-9046960D01*
X2836729Y-9046960D02*
X2855777Y-9056484D01*
X2855777Y-9056484D02*
X2893872Y-9056484D01*
X2893872Y-9056484D02*
X2912920Y-9046960D01*
X2912920Y-9046960D02*
X2922444Y-9037436D01*
X2922444Y-9037436D02*
X2931967Y-9018389D01*
X2931967Y-9018389D02*
X2931967Y-8980293D01*
X2931967Y-8980293D02*
X2922444Y-8961246D01*
X2922444Y-8961246D02*
X2912920Y-8951722D01*
X2912920Y-8951722D02*
X2893872Y-8942198D01*
X3122444Y-9056484D02*
X3008158Y-9056484D01*
X3065301Y-9056484D02*
X3065301Y-8856484D01*
X3065301Y-8856484D02*
X3046253Y-8885055D01*
X3046253Y-8885055D02*
X3027206Y-8904103D01*
X3027206Y-8904103D02*
X3008158Y-8913627D01*
X3198634Y-8856484D02*
X3198634Y-8894579D01*
X3274825Y-8856484D02*
X3274825Y-8894579D01*
X3570063Y-9132674D02*
X3560539Y-9123150D01*
X3560539Y-9123150D02*
X3541491Y-9094579D01*
X3541491Y-9094579D02*
X3531968Y-9075531D01*
X3531968Y-9075531D02*
X3522444Y-9046960D01*
X3522444Y-9046960D02*
X3512920Y-8999341D01*
X3512920Y-8999341D02*
X3512920Y-8961246D01*
X3512920Y-8961246D02*
X3522444Y-8913627D01*
X3522444Y-8913627D02*
X3531968Y-8885055D01*
X3531968Y-8885055D02*
X3541491Y-8866008D01*
X3541491Y-8866008D02*
X3560539Y-8837436D01*
X3560539Y-8837436D02*
X3570063Y-8827912D01*
X3636729Y-8875531D02*
X3646253Y-8866008D01*
X3646253Y-8866008D02*
X3665301Y-8856484D01*
X3665301Y-8856484D02*
X3712920Y-8856484D01*
X3712920Y-8856484D02*
X3731968Y-8866008D01*
X3731968Y-8866008D02*
X3741491Y-8875531D01*
X3741491Y-8875531D02*
X3751015Y-8894579D01*
X3751015Y-8894579D02*
X3751015Y-8913627D01*
X3751015Y-8913627D02*
X3741491Y-8942198D01*
X3741491Y-8942198D02*
X3627206Y-9056484D01*
X3627206Y-9056484D02*
X3751015Y-9056484D01*
X3989110Y-9056484D02*
X3989110Y-8856484D01*
X4074825Y-9056484D02*
X4074825Y-8951722D01*
X4074825Y-8951722D02*
X4065301Y-8932674D01*
X4065301Y-8932674D02*
X4046253Y-8923150D01*
X4046253Y-8923150D02*
X4017682Y-8923150D01*
X4017682Y-8923150D02*
X3998634Y-8932674D01*
X3998634Y-8932674D02*
X3989110Y-8942198D01*
X4198634Y-9056484D02*
X4179587Y-9046960D01*
X4179587Y-9046960D02*
X4170063Y-9037436D01*
X4170063Y-9037436D02*
X4160539Y-9018389D01*
X4160539Y-9018389D02*
X4160539Y-8961246D01*
X4160539Y-8961246D02*
X4170063Y-8942198D01*
X4170063Y-8942198D02*
X4179587Y-8932674D01*
X4179587Y-8932674D02*
X4198634Y-8923150D01*
X4198634Y-8923150D02*
X4227206Y-8923150D01*
X4227206Y-8923150D02*
X4246253Y-8932674D01*
X4246253Y-8932674D02*
X4255777Y-8942198D01*
X4255777Y-8942198D02*
X4265301Y-8961246D01*
X4265301Y-8961246D02*
X4265301Y-9018389D01*
X4265301Y-9018389D02*
X4255777Y-9037436D01*
X4255777Y-9037436D02*
X4246253Y-9046960D01*
X4246253Y-9046960D02*
X4227206Y-9056484D01*
X4227206Y-9056484D02*
X4198634Y-9056484D01*
X4379587Y-9056484D02*
X4360539Y-9046960D01*
X4360539Y-9046960D02*
X4351015Y-9027912D01*
X4351015Y-9027912D02*
X4351015Y-8856484D01*
X4531968Y-9046960D02*
X4512920Y-9056484D01*
X4512920Y-9056484D02*
X4474825Y-9056484D01*
X4474825Y-9056484D02*
X4455777Y-9046960D01*
X4455777Y-9046960D02*
X4446253Y-9027912D01*
X4446253Y-9027912D02*
X4446253Y-8951722D01*
X4446253Y-8951722D02*
X4455777Y-8932674D01*
X4455777Y-8932674D02*
X4474825Y-8923150D01*
X4474825Y-8923150D02*
X4512920Y-8923150D01*
X4512920Y-8923150D02*
X4531968Y-8932674D01*
X4531968Y-8932674D02*
X4541492Y-8951722D01*
X4541492Y-8951722D02*
X4541492Y-8970770D01*
X4541492Y-8970770D02*
X4446253Y-8989817D01*
X4617682Y-9046960D02*
X4636730Y-9056484D01*
X4636730Y-9056484D02*
X4674825Y-9056484D01*
X4674825Y-9056484D02*
X4693873Y-9046960D01*
X4693873Y-9046960D02*
X4703396Y-9027912D01*
X4703396Y-9027912D02*
X4703396Y-9018389D01*
X4703396Y-9018389D02*
X4693873Y-8999341D01*
X4693873Y-8999341D02*
X4674825Y-8989817D01*
X4674825Y-8989817D02*
X4646253Y-8989817D01*
X4646253Y-8989817D02*
X4627206Y-8980293D01*
X4627206Y-8980293D02*
X4617682Y-8961246D01*
X4617682Y-8961246D02*
X4617682Y-8951722D01*
X4617682Y-8951722D02*
X4627206Y-8932674D01*
X4627206Y-8932674D02*
X4646253Y-8923150D01*
X4646253Y-8923150D02*
X4674825Y-8923150D01*
X4674825Y-8923150D02*
X4693873Y-8932674D01*
X4770063Y-9132674D02*
X4779587Y-9123150D01*
X4779587Y-9123150D02*
X4798634Y-9094579D01*
X4798634Y-9094579D02*
X4808158Y-9075531D01*
X4808158Y-9075531D02*
X4817682Y-9046960D01*
X4817682Y-9046960D02*
X4827206Y-8999341D01*
X4827206Y-8999341D02*
X4827206Y-8961246D01*
X4827206Y-8961246D02*
X4817682Y-8913627D01*
X4817682Y-8913627D02*
X4808158Y-8885055D01*
X4808158Y-8885055D02*
X4798634Y-8866008D01*
X4798634Y-8866008D02*
X4779587Y-8837436D01*
X4779587Y-8837436D02*
X4770063Y-8827912D01*
X5131968Y-9132674D02*
X5122444Y-9123150D01*
X5122444Y-9123150D02*
X5103396Y-9094579D01*
X5103396Y-9094579D02*
X5093873Y-9075531D01*
X5093873Y-9075531D02*
X5084349Y-9046960D01*
X5084349Y-9046960D02*
X5074825Y-8999341D01*
X5074825Y-8999341D02*
X5074825Y-8961246D01*
X5074825Y-8961246D02*
X5084349Y-8913627D01*
X5084349Y-8913627D02*
X5093873Y-8885055D01*
X5093873Y-8885055D02*
X5103396Y-8866008D01*
X5103396Y-8866008D02*
X5122444Y-8837436D01*
X5122444Y-8837436D02*
X5131968Y-8827912D01*
X5208158Y-8923150D02*
X5208158Y-9056484D01*
X5208158Y-8942198D02*
X5217682Y-8932674D01*
X5217682Y-8932674D02*
X5236730Y-8923150D01*
X5236730Y-8923150D02*
X5265301Y-8923150D01*
X5265301Y-8923150D02*
X5284349Y-8932674D01*
X5284349Y-8932674D02*
X5293873Y-8951722D01*
X5293873Y-8951722D02*
X5293873Y-9056484D01*
X5417682Y-9056484D02*
X5398634Y-9046960D01*
X5398634Y-9046960D02*
X5389111Y-9037436D01*
X5389111Y-9037436D02*
X5379587Y-9018389D01*
X5379587Y-9018389D02*
X5379587Y-8961246D01*
X5379587Y-8961246D02*
X5389111Y-8942198D01*
X5389111Y-8942198D02*
X5398634Y-8932674D01*
X5398634Y-8932674D02*
X5417682Y-8923150D01*
X5417682Y-8923150D02*
X5446254Y-8923150D01*
X5446254Y-8923150D02*
X5465301Y-8932674D01*
X5465301Y-8932674D02*
X5474825Y-8942198D01*
X5474825Y-8942198D02*
X5484349Y-8961246D01*
X5484349Y-8961246D02*
X5484349Y-9018389D01*
X5484349Y-9018389D02*
X5474825Y-9037436D01*
X5474825Y-9037436D02*
X5465301Y-9046960D01*
X5465301Y-9046960D02*
X5446254Y-9056484D01*
X5446254Y-9056484D02*
X5417682Y-9056484D01*
X5541492Y-8923150D02*
X5617682Y-8923150D01*
X5570063Y-8856484D02*
X5570063Y-9027912D01*
X5570063Y-9027912D02*
X5579587Y-9046960D01*
X5579587Y-9046960D02*
X5598634Y-9056484D01*
X5598634Y-9056484D02*
X5617682Y-9056484D01*
X5836730Y-8923150D02*
X5836730Y-9123150D01*
X5836730Y-8932674D02*
X5855777Y-8923150D01*
X5855777Y-8923150D02*
X5893873Y-8923150D01*
X5893873Y-8923150D02*
X5912920Y-8932674D01*
X5912920Y-8932674D02*
X5922444Y-8942198D01*
X5922444Y-8942198D02*
X5931968Y-8961246D01*
X5931968Y-8961246D02*
X5931968Y-9018389D01*
X5931968Y-9018389D02*
X5922444Y-9037436D01*
X5922444Y-9037436D02*
X5912920Y-9046960D01*
X5912920Y-9046960D02*
X5893873Y-9056484D01*
X5893873Y-9056484D02*
X5855777Y-9056484D01*
X5855777Y-9056484D02*
X5836730Y-9046960D01*
X6046253Y-9056484D02*
X6027206Y-9046960D01*
X6027206Y-9046960D02*
X6017682Y-9027912D01*
X6017682Y-9027912D02*
X6017682Y-8856484D01*
X6208158Y-9056484D02*
X6208158Y-8951722D01*
X6208158Y-8951722D02*
X6198634Y-8932674D01*
X6198634Y-8932674D02*
X6179587Y-8923150D01*
X6179587Y-8923150D02*
X6141492Y-8923150D01*
X6141492Y-8923150D02*
X6122444Y-8932674D01*
X6208158Y-9046960D02*
X6189111Y-9056484D01*
X6189111Y-9056484D02*
X6141492Y-9056484D01*
X6141492Y-9056484D02*
X6122444Y-9046960D01*
X6122444Y-9046960D02*
X6112920Y-9027912D01*
X6112920Y-9027912D02*
X6112920Y-9008865D01*
X6112920Y-9008865D02*
X6122444Y-8989817D01*
X6122444Y-8989817D02*
X6141492Y-8980293D01*
X6141492Y-8980293D02*
X6189111Y-8980293D01*
X6189111Y-8980293D02*
X6208158Y-8970770D01*
X6274825Y-8923150D02*
X6351015Y-8923150D01*
X6303396Y-8856484D02*
X6303396Y-9027912D01*
X6303396Y-9027912D02*
X6312920Y-9046960D01*
X6312920Y-9046960D02*
X6331968Y-9056484D01*
X6331968Y-9056484D02*
X6351015Y-9056484D01*
X6493873Y-9046960D02*
X6474825Y-9056484D01*
X6474825Y-9056484D02*
X6436730Y-9056484D01*
X6436730Y-9056484D02*
X6417682Y-9046960D01*
X6417682Y-9046960D02*
X6408158Y-9027912D01*
X6408158Y-9027912D02*
X6408158Y-8951722D01*
X6408158Y-8951722D02*
X6417682Y-8932674D01*
X6417682Y-8932674D02*
X6436730Y-8923150D01*
X6436730Y-8923150D02*
X6474825Y-8923150D01*
X6474825Y-8923150D02*
X6493873Y-8932674D01*
X6493873Y-8932674D02*
X6503396Y-8951722D01*
X6503396Y-8951722D02*
X6503396Y-8970770D01*
X6503396Y-8970770D02*
X6408158Y-8989817D01*
X6674825Y-9056484D02*
X6674825Y-8856484D01*
X6674825Y-9046960D02*
X6655777Y-9056484D01*
X6655777Y-9056484D02*
X6617682Y-9056484D01*
X6617682Y-9056484D02*
X6598634Y-9046960D01*
X6598634Y-9046960D02*
X6589111Y-9037436D01*
X6589111Y-9037436D02*
X6579587Y-9018389D01*
X6579587Y-9018389D02*
X6579587Y-8961246D01*
X6579587Y-8961246D02*
X6589111Y-8942198D01*
X6589111Y-8942198D02*
X6598634Y-8932674D01*
X6598634Y-8932674D02*
X6617682Y-8923150D01*
X6617682Y-8923150D02*
X6655777Y-8923150D01*
X6655777Y-8923150D02*
X6674825Y-8932674D01*
X6751015Y-9132674D02*
X6760539Y-9123150D01*
X6760539Y-9123150D02*
X6779587Y-9094579D01*
X6779587Y-9094579D02*
X6789111Y-9075531D01*
X6789111Y-9075531D02*
X6798634Y-9046960D01*
X6798634Y-9046960D02*
X6808158Y-8999341D01*
X6808158Y-8999341D02*
X6808158Y-8961246D01*
X6808158Y-8961246D02*
X6798634Y-8913627D01*
X6798634Y-8913627D02*
X6789111Y-8885055D01*
X6789111Y-8885055D02*
X6779587Y-8866008D01*
X6779587Y-8866008D02*
X6760539Y-8837436D01*
X6760539Y-8837436D02*
X6751015Y-8827912D01*
X-205000Y-9185000D02*
X-5000Y-9385000D01*
X-5000Y-9185000D02*
X-205000Y-9385000D01*
X-105000Y-9185000D02*
X-105000Y-9385000D01*
X-205000Y-9285000D02*
X-5000Y-9285000D01*
X236729Y-9176484D02*
X360539Y-9176484D01*
X360539Y-9176484D02*
X293872Y-9252674D01*
X293872Y-9252674D02*
X322444Y-9252674D01*
X322444Y-9252674D02*
X341491Y-9262198D01*
X341491Y-9262198D02*
X351015Y-9271722D01*
X351015Y-9271722D02*
X360539Y-9290770D01*
X360539Y-9290770D02*
X360539Y-9338389D01*
X360539Y-9338389D02*
X351015Y-9357436D01*
X351015Y-9357436D02*
X341491Y-9366960D01*
X341491Y-9366960D02*
X322444Y-9376484D01*
X322444Y-9376484D02*
X265301Y-9376484D01*
X265301Y-9376484D02*
X246253Y-9366960D01*
X246253Y-9366960D02*
X236729Y-9357436D01*
X446253Y-9357436D02*
X455777Y-9366960D01*
X455777Y-9366960D02*
X446253Y-9376484D01*
X446253Y-9376484D02*
X436729Y-9366960D01*
X436729Y-9366960D02*
X446253Y-9357436D01*
X446253Y-9357436D02*
X446253Y-9376484D01*
X531967Y-9195531D02*
X541491Y-9186008D01*
X541491Y-9186008D02*
X560539Y-9176484D01*
X560539Y-9176484D02*
X608158Y-9176484D01*
X608158Y-9176484D02*
X627205Y-9186008D01*
X627205Y-9186008D02*
X636729Y-9195531D01*
X636729Y-9195531D02*
X646253Y-9214579D01*
X646253Y-9214579D02*
X646253Y-9233627D01*
X646253Y-9233627D02*
X636729Y-9262198D01*
X636729Y-9262198D02*
X522443Y-9376484D01*
X522443Y-9376484D02*
X646253Y-9376484D01*
X770062Y-9176484D02*
X789110Y-9176484D01*
X789110Y-9176484D02*
X808158Y-9186008D01*
X808158Y-9186008D02*
X817682Y-9195531D01*
X817682Y-9195531D02*
X827205Y-9214579D01*
X827205Y-9214579D02*
X836729Y-9252674D01*
X836729Y-9252674D02*
X836729Y-9300293D01*
X836729Y-9300293D02*
X827205Y-9338389D01*
X827205Y-9338389D02*
X817682Y-9357436D01*
X817682Y-9357436D02*
X808158Y-9366960D01*
X808158Y-9366960D02*
X789110Y-9376484D01*
X789110Y-9376484D02*
X770062Y-9376484D01*
X770062Y-9376484D02*
X751015Y-9366960D01*
X751015Y-9366960D02*
X741491Y-9357436D01*
X741491Y-9357436D02*
X731967Y-9338389D01*
X731967Y-9338389D02*
X722443Y-9300293D01*
X722443Y-9300293D02*
X722443Y-9252674D01*
X722443Y-9252674D02*
X731967Y-9214579D01*
X731967Y-9214579D02*
X741491Y-9195531D01*
X741491Y-9195531D02*
X751015Y-9186008D01*
X751015Y-9186008D02*
X770062Y-9176484D01*
X960539Y-9176484D02*
X979586Y-9176484D01*
X979586Y-9176484D02*
X998634Y-9186008D01*
X998634Y-9186008D02*
X1008158Y-9195531D01*
X1008158Y-9195531D02*
X1017682Y-9214579D01*
X1017682Y-9214579D02*
X1027205Y-9252674D01*
X1027205Y-9252674D02*
X1027205Y-9300293D01*
X1027205Y-9300293D02*
X1017682Y-9338389D01*
X1017682Y-9338389D02*
X1008158Y-9357436D01*
X1008158Y-9357436D02*
X998634Y-9366960D01*
X998634Y-9366960D02*
X979586Y-9376484D01*
X979586Y-9376484D02*
X960539Y-9376484D01*
X960539Y-9376484D02*
X941491Y-9366960D01*
X941491Y-9366960D02*
X931967Y-9357436D01*
X931967Y-9357436D02*
X922443Y-9338389D01*
X922443Y-9338389D02*
X912920Y-9300293D01*
X912920Y-9300293D02*
X912920Y-9252674D01*
X912920Y-9252674D02*
X922443Y-9214579D01*
X922443Y-9214579D02*
X931967Y-9195531D01*
X931967Y-9195531D02*
X941491Y-9186008D01*
X941491Y-9186008D02*
X960539Y-9176484D01*
X1112920Y-9376484D02*
X1112920Y-9243150D01*
X1112920Y-9262198D02*
X1122444Y-9252674D01*
X1122444Y-9252674D02*
X1141491Y-9243150D01*
X1141491Y-9243150D02*
X1170063Y-9243150D01*
X1170063Y-9243150D02*
X1189110Y-9252674D01*
X1189110Y-9252674D02*
X1198634Y-9271722D01*
X1198634Y-9271722D02*
X1198634Y-9376484D01*
X1198634Y-9271722D02*
X1208158Y-9252674D01*
X1208158Y-9252674D02*
X1227205Y-9243150D01*
X1227205Y-9243150D02*
X1255777Y-9243150D01*
X1255777Y-9243150D02*
X1274825Y-9252674D01*
X1274825Y-9252674D02*
X1284348Y-9271722D01*
X1284348Y-9271722D02*
X1284348Y-9376484D01*
X1379586Y-9376484D02*
X1379586Y-9243150D01*
X1379586Y-9262198D02*
X1389110Y-9252674D01*
X1389110Y-9252674D02*
X1408158Y-9243150D01*
X1408158Y-9243150D02*
X1436729Y-9243150D01*
X1436729Y-9243150D02*
X1455777Y-9252674D01*
X1455777Y-9252674D02*
X1465301Y-9271722D01*
X1465301Y-9271722D02*
X1465301Y-9376484D01*
X1465301Y-9271722D02*
X1474824Y-9252674D01*
X1474824Y-9252674D02*
X1493872Y-9243150D01*
X1493872Y-9243150D02*
X1522443Y-9243150D01*
X1522443Y-9243150D02*
X1541491Y-9252674D01*
X1541491Y-9252674D02*
X1551015Y-9271722D01*
X1551015Y-9271722D02*
X1551015Y-9376484D01*
X1941491Y-9166960D02*
X1770063Y-9424103D01*
X2198634Y-9176484D02*
X2217682Y-9176484D01*
X2217682Y-9176484D02*
X2236729Y-9186008D01*
X2236729Y-9186008D02*
X2246253Y-9195531D01*
X2246253Y-9195531D02*
X2255777Y-9214579D01*
X2255777Y-9214579D02*
X2265301Y-9252674D01*
X2265301Y-9252674D02*
X2265301Y-9300293D01*
X2265301Y-9300293D02*
X2255777Y-9338389D01*
X2255777Y-9338389D02*
X2246253Y-9357436D01*
X2246253Y-9357436D02*
X2236729Y-9366960D01*
X2236729Y-9366960D02*
X2217682Y-9376484D01*
X2217682Y-9376484D02*
X2198634Y-9376484D01*
X2198634Y-9376484D02*
X2179587Y-9366960D01*
X2179587Y-9366960D02*
X2170063Y-9357436D01*
X2170063Y-9357436D02*
X2160539Y-9338389D01*
X2160539Y-9338389D02*
X2151015Y-9300293D01*
X2151015Y-9300293D02*
X2151015Y-9252674D01*
X2151015Y-9252674D02*
X2160539Y-9214579D01*
X2160539Y-9214579D02*
X2170063Y-9195531D01*
X2170063Y-9195531D02*
X2179587Y-9186008D01*
X2179587Y-9186008D02*
X2198634Y-9176484D01*
X2351015Y-9357436D02*
X2360539Y-9366960D01*
X2360539Y-9366960D02*
X2351015Y-9376484D01*
X2351015Y-9376484D02*
X2341491Y-9366960D01*
X2341491Y-9366960D02*
X2351015Y-9357436D01*
X2351015Y-9357436D02*
X2351015Y-9376484D01*
X2551015Y-9376484D02*
X2436729Y-9376484D01*
X2493872Y-9376484D02*
X2493872Y-9176484D01*
X2493872Y-9176484D02*
X2474825Y-9205055D01*
X2474825Y-9205055D02*
X2455777Y-9224103D01*
X2455777Y-9224103D02*
X2436729Y-9233627D01*
X2627206Y-9195531D02*
X2636729Y-9186008D01*
X2636729Y-9186008D02*
X2655777Y-9176484D01*
X2655777Y-9176484D02*
X2703396Y-9176484D01*
X2703396Y-9176484D02*
X2722444Y-9186008D01*
X2722444Y-9186008D02*
X2731968Y-9195531D01*
X2731968Y-9195531D02*
X2741491Y-9214579D01*
X2741491Y-9214579D02*
X2741491Y-9233627D01*
X2741491Y-9233627D02*
X2731968Y-9262198D01*
X2731968Y-9262198D02*
X2617682Y-9376484D01*
X2617682Y-9376484D02*
X2741491Y-9376484D01*
X2912920Y-9176484D02*
X2874825Y-9176484D01*
X2874825Y-9176484D02*
X2855777Y-9186008D01*
X2855777Y-9186008D02*
X2846253Y-9195531D01*
X2846253Y-9195531D02*
X2827206Y-9224103D01*
X2827206Y-9224103D02*
X2817682Y-9262198D01*
X2817682Y-9262198D02*
X2817682Y-9338389D01*
X2817682Y-9338389D02*
X2827206Y-9357436D01*
X2827206Y-9357436D02*
X2836729Y-9366960D01*
X2836729Y-9366960D02*
X2855777Y-9376484D01*
X2855777Y-9376484D02*
X2893872Y-9376484D01*
X2893872Y-9376484D02*
X2912920Y-9366960D01*
X2912920Y-9366960D02*
X2922444Y-9357436D01*
X2922444Y-9357436D02*
X2931967Y-9338389D01*
X2931967Y-9338389D02*
X2931967Y-9290770D01*
X2931967Y-9290770D02*
X2922444Y-9271722D01*
X2922444Y-9271722D02*
X2912920Y-9262198D01*
X2912920Y-9262198D02*
X2893872Y-9252674D01*
X2893872Y-9252674D02*
X2855777Y-9252674D01*
X2855777Y-9252674D02*
X2836729Y-9262198D01*
X2836729Y-9262198D02*
X2827206Y-9271722D01*
X2827206Y-9271722D02*
X2817682Y-9290770D01*
X3055777Y-9176484D02*
X3074825Y-9176484D01*
X3074825Y-9176484D02*
X3093872Y-9186008D01*
X3093872Y-9186008D02*
X3103396Y-9195531D01*
X3103396Y-9195531D02*
X3112920Y-9214579D01*
X3112920Y-9214579D02*
X3122444Y-9252674D01*
X3122444Y-9252674D02*
X3122444Y-9300293D01*
X3122444Y-9300293D02*
X3112920Y-9338389D01*
X3112920Y-9338389D02*
X3103396Y-9357436D01*
X3103396Y-9357436D02*
X3093872Y-9366960D01*
X3093872Y-9366960D02*
X3074825Y-9376484D01*
X3074825Y-9376484D02*
X3055777Y-9376484D01*
X3055777Y-9376484D02*
X3036729Y-9366960D01*
X3036729Y-9366960D02*
X3027206Y-9357436D01*
X3027206Y-9357436D02*
X3017682Y-9338389D01*
X3017682Y-9338389D02*
X3008158Y-9300293D01*
X3008158Y-9300293D02*
X3008158Y-9252674D01*
X3008158Y-9252674D02*
X3017682Y-9214579D01*
X3017682Y-9214579D02*
X3027206Y-9195531D01*
X3027206Y-9195531D02*
X3036729Y-9186008D01*
X3036729Y-9186008D02*
X3055777Y-9176484D01*
X3198634Y-9176484D02*
X3198634Y-9214579D01*
X3274825Y-9176484D02*
X3274825Y-9214579D01*
X3570063Y-9452674D02*
X3560539Y-9443150D01*
X3560539Y-9443150D02*
X3541491Y-9414579D01*
X3541491Y-9414579D02*
X3531968Y-9395531D01*
X3531968Y-9395531D02*
X3522444Y-9366960D01*
X3522444Y-9366960D02*
X3512920Y-9319341D01*
X3512920Y-9319341D02*
X3512920Y-9281246D01*
X3512920Y-9281246D02*
X3522444Y-9233627D01*
X3522444Y-9233627D02*
X3531968Y-9205055D01*
X3531968Y-9205055D02*
X3541491Y-9186008D01*
X3541491Y-9186008D02*
X3560539Y-9157436D01*
X3560539Y-9157436D02*
X3570063Y-9147912D01*
X3731968Y-9243150D02*
X3731968Y-9376484D01*
X3684348Y-9166960D02*
X3636729Y-9309817D01*
X3636729Y-9309817D02*
X3760539Y-9309817D01*
X3989110Y-9376484D02*
X3989110Y-9176484D01*
X4074825Y-9376484D02*
X4074825Y-9271722D01*
X4074825Y-9271722D02*
X4065301Y-9252674D01*
X4065301Y-9252674D02*
X4046253Y-9243150D01*
X4046253Y-9243150D02*
X4017682Y-9243150D01*
X4017682Y-9243150D02*
X3998634Y-9252674D01*
X3998634Y-9252674D02*
X3989110Y-9262198D01*
X4198634Y-9376484D02*
X4179587Y-9366960D01*
X4179587Y-9366960D02*
X4170063Y-9357436D01*
X4170063Y-9357436D02*
X4160539Y-9338389D01*
X4160539Y-9338389D02*
X4160539Y-9281246D01*
X4160539Y-9281246D02*
X4170063Y-9262198D01*
X4170063Y-9262198D02*
X4179587Y-9252674D01*
X4179587Y-9252674D02*
X4198634Y-9243150D01*
X4198634Y-9243150D02*
X4227206Y-9243150D01*
X4227206Y-9243150D02*
X4246253Y-9252674D01*
X4246253Y-9252674D02*
X4255777Y-9262198D01*
X4255777Y-9262198D02*
X4265301Y-9281246D01*
X4265301Y-9281246D02*
X4265301Y-9338389D01*
X4265301Y-9338389D02*
X4255777Y-9357436D01*
X4255777Y-9357436D02*
X4246253Y-9366960D01*
X4246253Y-9366960D02*
X4227206Y-9376484D01*
X4227206Y-9376484D02*
X4198634Y-9376484D01*
X4379587Y-9376484D02*
X4360539Y-9366960D01*
X4360539Y-9366960D02*
X4351015Y-9347912D01*
X4351015Y-9347912D02*
X4351015Y-9176484D01*
X4531968Y-9366960D02*
X4512920Y-9376484D01*
X4512920Y-9376484D02*
X4474825Y-9376484D01*
X4474825Y-9376484D02*
X4455777Y-9366960D01*
X4455777Y-9366960D02*
X4446253Y-9347912D01*
X4446253Y-9347912D02*
X4446253Y-9271722D01*
X4446253Y-9271722D02*
X4455777Y-9252674D01*
X4455777Y-9252674D02*
X4474825Y-9243150D01*
X4474825Y-9243150D02*
X4512920Y-9243150D01*
X4512920Y-9243150D02*
X4531968Y-9252674D01*
X4531968Y-9252674D02*
X4541492Y-9271722D01*
X4541492Y-9271722D02*
X4541492Y-9290770D01*
X4541492Y-9290770D02*
X4446253Y-9309817D01*
X4617682Y-9366960D02*
X4636730Y-9376484D01*
X4636730Y-9376484D02*
X4674825Y-9376484D01*
X4674825Y-9376484D02*
X4693873Y-9366960D01*
X4693873Y-9366960D02*
X4703396Y-9347912D01*
X4703396Y-9347912D02*
X4703396Y-9338389D01*
X4703396Y-9338389D02*
X4693873Y-9319341D01*
X4693873Y-9319341D02*
X4674825Y-9309817D01*
X4674825Y-9309817D02*
X4646253Y-9309817D01*
X4646253Y-9309817D02*
X4627206Y-9300293D01*
X4627206Y-9300293D02*
X4617682Y-9281246D01*
X4617682Y-9281246D02*
X4617682Y-9271722D01*
X4617682Y-9271722D02*
X4627206Y-9252674D01*
X4627206Y-9252674D02*
X4646253Y-9243150D01*
X4646253Y-9243150D02*
X4674825Y-9243150D01*
X4674825Y-9243150D02*
X4693873Y-9252674D01*
X4770063Y-9452674D02*
X4779587Y-9443150D01*
X4779587Y-9443150D02*
X4798634Y-9414579D01*
X4798634Y-9414579D02*
X4808158Y-9395531D01*
X4808158Y-9395531D02*
X4817682Y-9366960D01*
X4817682Y-9366960D02*
X4827206Y-9319341D01*
X4827206Y-9319341D02*
X4827206Y-9281246D01*
X4827206Y-9281246D02*
X4817682Y-9233627D01*
X4817682Y-9233627D02*
X4808158Y-9205055D01*
X4808158Y-9205055D02*
X4798634Y-9186008D01*
X4798634Y-9186008D02*
X4779587Y-9157436D01*
X4779587Y-9157436D02*
X4770063Y-9147912D01*
X5131968Y-9452674D02*
X5122444Y-9443150D01*
X5122444Y-9443150D02*
X5103396Y-9414579D01*
X5103396Y-9414579D02*
X5093873Y-9395531D01*
X5093873Y-9395531D02*
X5084349Y-9366960D01*
X5084349Y-9366960D02*
X5074825Y-9319341D01*
X5074825Y-9319341D02*
X5074825Y-9281246D01*
X5074825Y-9281246D02*
X5084349Y-9233627D01*
X5084349Y-9233627D02*
X5093873Y-9205055D01*
X5093873Y-9205055D02*
X5103396Y-9186008D01*
X5103396Y-9186008D02*
X5122444Y-9157436D01*
X5122444Y-9157436D02*
X5131968Y-9147912D01*
X5208158Y-9243150D02*
X5208158Y-9376484D01*
X5208158Y-9262198D02*
X5217682Y-9252674D01*
X5217682Y-9252674D02*
X5236730Y-9243150D01*
X5236730Y-9243150D02*
X5265301Y-9243150D01*
X5265301Y-9243150D02*
X5284349Y-9252674D01*
X5284349Y-9252674D02*
X5293873Y-9271722D01*
X5293873Y-9271722D02*
X5293873Y-9376484D01*
X5417682Y-9376484D02*
X5398634Y-9366960D01*
X5398634Y-9366960D02*
X5389111Y-9357436D01*
X5389111Y-9357436D02*
X5379587Y-9338389D01*
X5379587Y-9338389D02*
X5379587Y-9281246D01*
X5379587Y-9281246D02*
X5389111Y-9262198D01*
X5389111Y-9262198D02*
X5398634Y-9252674D01*
X5398634Y-9252674D02*
X5417682Y-9243150D01*
X5417682Y-9243150D02*
X5446254Y-9243150D01*
X5446254Y-9243150D02*
X5465301Y-9252674D01*
X5465301Y-9252674D02*
X5474825Y-9262198D01*
X5474825Y-9262198D02*
X5484349Y-9281246D01*
X5484349Y-9281246D02*
X5484349Y-9338389D01*
X5484349Y-9338389D02*
X5474825Y-9357436D01*
X5474825Y-9357436D02*
X5465301Y-9366960D01*
X5465301Y-9366960D02*
X5446254Y-9376484D01*
X5446254Y-9376484D02*
X5417682Y-9376484D01*
X5541492Y-9243150D02*
X5617682Y-9243150D01*
X5570063Y-9176484D02*
X5570063Y-9347912D01*
X5570063Y-9347912D02*
X5579587Y-9366960D01*
X5579587Y-9366960D02*
X5598634Y-9376484D01*
X5598634Y-9376484D02*
X5617682Y-9376484D01*
X5836730Y-9243150D02*
X5836730Y-9443150D01*
X5836730Y-9252674D02*
X5855777Y-9243150D01*
X5855777Y-9243150D02*
X5893873Y-9243150D01*
X5893873Y-9243150D02*
X5912920Y-9252674D01*
X5912920Y-9252674D02*
X5922444Y-9262198D01*
X5922444Y-9262198D02*
X5931968Y-9281246D01*
X5931968Y-9281246D02*
X5931968Y-9338389D01*
X5931968Y-9338389D02*
X5922444Y-9357436D01*
X5922444Y-9357436D02*
X5912920Y-9366960D01*
X5912920Y-9366960D02*
X5893873Y-9376484D01*
X5893873Y-9376484D02*
X5855777Y-9376484D01*
X5855777Y-9376484D02*
X5836730Y-9366960D01*
X6046253Y-9376484D02*
X6027206Y-9366960D01*
X6027206Y-9366960D02*
X6017682Y-9347912D01*
X6017682Y-9347912D02*
X6017682Y-9176484D01*
X6208158Y-9376484D02*
X6208158Y-9271722D01*
X6208158Y-9271722D02*
X6198634Y-9252674D01*
X6198634Y-9252674D02*
X6179587Y-9243150D01*
X6179587Y-9243150D02*
X6141492Y-9243150D01*
X6141492Y-9243150D02*
X6122444Y-9252674D01*
X6208158Y-9366960D02*
X6189111Y-9376484D01*
X6189111Y-9376484D02*
X6141492Y-9376484D01*
X6141492Y-9376484D02*
X6122444Y-9366960D01*
X6122444Y-9366960D02*
X6112920Y-9347912D01*
X6112920Y-9347912D02*
X6112920Y-9328865D01*
X6112920Y-9328865D02*
X6122444Y-9309817D01*
X6122444Y-9309817D02*
X6141492Y-9300293D01*
X6141492Y-9300293D02*
X6189111Y-9300293D01*
X6189111Y-9300293D02*
X6208158Y-9290770D01*
X6274825Y-9243150D02*
X6351015Y-9243150D01*
X6303396Y-9176484D02*
X6303396Y-9347912D01*
X6303396Y-9347912D02*
X6312920Y-9366960D01*
X6312920Y-9366960D02*
X6331968Y-9376484D01*
X6331968Y-9376484D02*
X6351015Y-9376484D01*
X6493873Y-9366960D02*
X6474825Y-9376484D01*
X6474825Y-9376484D02*
X6436730Y-9376484D01*
X6436730Y-9376484D02*
X6417682Y-9366960D01*
X6417682Y-9366960D02*
X6408158Y-9347912D01*
X6408158Y-9347912D02*
X6408158Y-9271722D01*
X6408158Y-9271722D02*
X6417682Y-9252674D01*
X6417682Y-9252674D02*
X6436730Y-9243150D01*
X6436730Y-9243150D02*
X6474825Y-9243150D01*
X6474825Y-9243150D02*
X6493873Y-9252674D01*
X6493873Y-9252674D02*
X6503396Y-9271722D01*
X6503396Y-9271722D02*
X6503396Y-9290770D01*
X6503396Y-9290770D02*
X6408158Y-9309817D01*
X6674825Y-9376484D02*
X6674825Y-9176484D01*
X6674825Y-9366960D02*
X6655777Y-9376484D01*
X6655777Y-9376484D02*
X6617682Y-9376484D01*
X6617682Y-9376484D02*
X6598634Y-9366960D01*
X6598634Y-9366960D02*
X6589111Y-9357436D01*
X6589111Y-9357436D02*
X6579587Y-9338389D01*
X6579587Y-9338389D02*
X6579587Y-9281246D01*
X6579587Y-9281246D02*
X6589111Y-9262198D01*
X6589111Y-9262198D02*
X6598634Y-9252674D01*
X6598634Y-9252674D02*
X6617682Y-9243150D01*
X6617682Y-9243150D02*
X6655777Y-9243150D01*
X6655777Y-9243150D02*
X6674825Y-9252674D01*
X6751015Y-9452674D02*
X6760539Y-9443150D01*
X6760539Y-9443150D02*
X6779587Y-9414579D01*
X6779587Y-9414579D02*
X6789111Y-9395531D01*
X6789111Y-9395531D02*
X6798634Y-9366960D01*
X6798634Y-9366960D02*
X6808158Y-9319341D01*
X6808158Y-9319341D02*
X6808158Y-9281246D01*
X6808158Y-9281246D02*
X6798634Y-9233627D01*
X6798634Y-9233627D02*
X6789111Y-9205055D01*
X6789111Y-9205055D02*
X6779587Y-9186008D01*
X6779587Y-9186008D02*
X6760539Y-9157436D01*
X6760539Y-9157436D02*
X6751015Y-9147912D01*
M02*
