M48
; DRILL file {KiCad 7.0.11+dfsg-1build4} date Thu Oct  1 17:36:39 2026
; FORMAT={-:-/ absolute / metric / decimal}
; #@! TF.CreationDate,2026-10-01T17:36:39+00:00
; #@! TF.GenerationSoftware,Kicad,Pcbnew,7.0.11+dfsg-1build4
; #@! TF.FileFunction,MixedPlating,1,2
FMAT,2
METRIC
; #@! TA.AperFunction,Plated,PTH,ViaDrill
T1C0.400
; #@! TA.AperFunction,Plated,PTH,ComponentDrill
T2C0.800
; #@! TA.AperFunction,Plated,PTH,ComponentDrill
T3C1.000
; #@! TA.AperFunction,Plated,PTH,ComponentDrill
T4C1.020
; #@! TA.AperFunction,Plated,PTH,ComponentDrill
T5C1.300
; #@! TA.AperFunction,NonPlated,NPTH,ComponentDrill
T6C3.000
; #@! TA.AperFunction,NonPlated,NPTH,ComponentDrill
T7C3.200
%
G90
G05
T1
X19.5Y-53.0
X31.775Y-60.3
X38.25Y-44.0
X78.725Y-20.84
X88.513Y-45.0
X88.875Y-55.0
X89.05Y-52.0
X95.5Y-50.0
T2
X28.75Y-52.0
X32.25Y-52.0
T3
X76.0Y-53.0
X76.0Y-58.0
T4
X9.1Y-48.0
X12.1Y-48.0
X85.0Y-57.9
X85.0Y-60.9
X88.0Y-57.9
X88.0Y-60.9
T5
X27.14Y-23.38
X27.14Y-33.54
X27.14Y-38.62
X72.86Y-20.84
X72.86Y-31.0
X72.86Y-41.16
T6
X4.78Y-48.0
X86.5Y-65.22
T7
X4.0Y-4.0
X4.0Y-66.0
X96.0Y-4.0
X96.0Y-66.0
M30
