%TF.GenerationSoftware,KiCad,Pcbnew,7.0.11+dfsg-1build4*%
%TF.CreationDate,2026-10-01T15:01:07+00:00*%
%TF.ProjectId,OSBAMS_Pi_Power_Interposer_RevA,4f534241-4d53-45f5-9069-5f506f776572,rev?*%
%TF.SameCoordinates,Original*%
%TF.FileFunction,Legend,Bot*%
%TF.FilePolarity,Positive*%
%FSLAX46Y46*%
G04 Gerber Fmt 4.6, Leading zero omitted, Abs format (unit mm)*
G04 Created by KiCad (PCBNEW 7.0.11+dfsg-1build4) date 2026-10-01 15:01:07*
%MOMM*%
%LPD*%
G01*
G04 APERTURE LIST*
G04 Aperture macros list*
%AMRoundRect*
0 Rectangle with rounded corners*
0 $1 Rounding radius*
0 $2 $3 $4 $5 $6 $7 $8 $9 X,Y pos of 4 corners*
0 Add a 4 corners polygon primitive as box body*
4,1,4,$2,$3,$4,$5,$6,$7,$8,$9,$2,$3,0*
0 Add four circle primitives for the rounded corners*
1,1,$1+$1,$2,$3*
1,1,$1+$1,$4,$5*
1,1,$1+$1,$6,$7*
1,1,$1+$1,$8,$9*
0 Add four rect primitives between the rounded corners*
20,1,$1+$1,$2,$3,$4,$5,0*
20,1,$1+$1,$4,$5,$6,$7,0*
20,1,$1+$1,$6,$7,$8,$9,0*
20,1,$1+$1,$8,$9,$2,$3,0*%
G04 Aperture macros list end*
%ADD10C,0.180000*%
%ADD11C,2.700000*%
%ADD12R,1.700000X1.700000*%
%ADD13C,1.700000*%
%ADD14C,3.000000*%
%ADD15RoundRect,0.250001X-0.499999X-0.499999X0.499999X-0.499999X0.499999X0.499999X-0.499999X0.499999X0*%
%ADD16C,1.500000*%
G04 APERTURE END LIST*
D10*
X30766040Y-21560735D02*
X30499373Y-21179782D01*
X30308897Y-21560735D02*
X30308897Y-20760735D01*
X30308897Y-20760735D02*
X30613659Y-20760735D01*
X30613659Y-20760735D02*
X30689849Y-20798830D01*
X30689849Y-20798830D02*
X30727944Y-20836925D01*
X30727944Y-20836925D02*
X30766040Y-20913116D01*
X30766040Y-20913116D02*
X30766040Y-21027401D01*
X30766040Y-21027401D02*
X30727944Y-21103592D01*
X30727944Y-21103592D02*
X30689849Y-21141687D01*
X30689849Y-21141687D02*
X30613659Y-21179782D01*
X30613659Y-21179782D02*
X30308897Y-21179782D01*
X31413659Y-21522640D02*
X31337468Y-21560735D01*
X31337468Y-21560735D02*
X31185087Y-21560735D01*
X31185087Y-21560735D02*
X31108897Y-21522640D01*
X31108897Y-21522640D02*
X31070801Y-21446449D01*
X31070801Y-21446449D02*
X31070801Y-21141687D01*
X31070801Y-21141687D02*
X31108897Y-21065497D01*
X31108897Y-21065497D02*
X31185087Y-21027401D01*
X31185087Y-21027401D02*
X31337468Y-21027401D01*
X31337468Y-21027401D02*
X31413659Y-21065497D01*
X31413659Y-21065497D02*
X31451754Y-21141687D01*
X31451754Y-21141687D02*
X31451754Y-21217878D01*
X31451754Y-21217878D02*
X31070801Y-21294068D01*
X31718420Y-21027401D02*
X31908896Y-21560735D01*
X31908896Y-21560735D02*
X32099373Y-21027401D01*
X32404135Y-21484544D02*
X32442230Y-21522640D01*
X32442230Y-21522640D02*
X32404135Y-21560735D01*
X32404135Y-21560735D02*
X32366039Y-21522640D01*
X32366039Y-21522640D02*
X32404135Y-21484544D01*
X32404135Y-21484544D02*
X32404135Y-21560735D01*
X32746991Y-21332163D02*
X33127944Y-21332163D01*
X32670801Y-21560735D02*
X32937468Y-20760735D01*
X32937468Y-20760735D02*
X33204134Y-21560735D01*
X34651753Y-20836925D02*
X34689849Y-20798830D01*
X34689849Y-20798830D02*
X34766039Y-20760735D01*
X34766039Y-20760735D02*
X34956515Y-20760735D01*
X34956515Y-20760735D02*
X35032706Y-20798830D01*
X35032706Y-20798830D02*
X35070801Y-20836925D01*
X35070801Y-20836925D02*
X35108896Y-20913116D01*
X35108896Y-20913116D02*
X35108896Y-20989306D01*
X35108896Y-20989306D02*
X35070801Y-21103592D01*
X35070801Y-21103592D02*
X34613658Y-21560735D01*
X34613658Y-21560735D02*
X35108896Y-21560735D01*
X35566039Y-21560735D02*
X35489849Y-21522640D01*
X35489849Y-21522640D02*
X35451754Y-21484544D01*
X35451754Y-21484544D02*
X35413658Y-21408354D01*
X35413658Y-21408354D02*
X35413658Y-21179782D01*
X35413658Y-21179782D02*
X35451754Y-21103592D01*
X35451754Y-21103592D02*
X35489849Y-21065497D01*
X35489849Y-21065497D02*
X35566039Y-21027401D01*
X35566039Y-21027401D02*
X35680325Y-21027401D01*
X35680325Y-21027401D02*
X35756516Y-21065497D01*
X35756516Y-21065497D02*
X35794611Y-21103592D01*
X35794611Y-21103592D02*
X35832706Y-21179782D01*
X35832706Y-21179782D02*
X35832706Y-21408354D01*
X35832706Y-21408354D02*
X35794611Y-21484544D01*
X35794611Y-21484544D02*
X35756516Y-21522640D01*
X35756516Y-21522640D02*
X35680325Y-21560735D01*
X35680325Y-21560735D02*
X35566039Y-21560735D01*
X36099373Y-21027401D02*
X36518421Y-21027401D01*
X36518421Y-21027401D02*
X36099373Y-21560735D01*
X36099373Y-21560735D02*
X36518421Y-21560735D01*
X37889850Y-21484544D02*
X37851754Y-21522640D01*
X37851754Y-21522640D02*
X37737469Y-21560735D01*
X37737469Y-21560735D02*
X37661278Y-21560735D01*
X37661278Y-21560735D02*
X37546992Y-21522640D01*
X37546992Y-21522640D02*
X37470802Y-21446449D01*
X37470802Y-21446449D02*
X37432707Y-21370259D01*
X37432707Y-21370259D02*
X37394611Y-21217878D01*
X37394611Y-21217878D02*
X37394611Y-21103592D01*
X37394611Y-21103592D02*
X37432707Y-20951211D01*
X37432707Y-20951211D02*
X37470802Y-20875020D01*
X37470802Y-20875020D02*
X37546992Y-20798830D01*
X37546992Y-20798830D02*
X37661278Y-20760735D01*
X37661278Y-20760735D02*
X37737469Y-20760735D01*
X37737469Y-20760735D02*
X37851754Y-20798830D01*
X37851754Y-20798830D02*
X37889850Y-20836925D01*
X38575564Y-21027401D02*
X38575564Y-21560735D01*
X38232707Y-21027401D02*
X38232707Y-21446449D01*
X38232707Y-21446449D02*
X38270802Y-21522640D01*
X38270802Y-21522640D02*
X38346992Y-21560735D01*
X38346992Y-21560735D02*
X38461278Y-21560735D01*
X38461278Y-21560735D02*
X38537469Y-21522640D01*
X38537469Y-21522640D02*
X38575564Y-21484544D01*
X40594612Y-21560735D02*
X40137469Y-21560735D01*
X40366041Y-21560735D02*
X40366041Y-20760735D01*
X40366041Y-20760735D02*
X40289850Y-20875020D01*
X40289850Y-20875020D02*
X40213660Y-20951211D01*
X40213660Y-20951211D02*
X40137469Y-20989306D01*
X40937470Y-21484544D02*
X40975565Y-21522640D01*
X40975565Y-21522640D02*
X40937470Y-21560735D01*
X40937470Y-21560735D02*
X40899374Y-21522640D01*
X40899374Y-21522640D02*
X40937470Y-21484544D01*
X40937470Y-21484544D02*
X40937470Y-21560735D01*
X41661279Y-20760735D02*
X41508898Y-20760735D01*
X41508898Y-20760735D02*
X41432707Y-20798830D01*
X41432707Y-20798830D02*
X41394612Y-20836925D01*
X41394612Y-20836925D02*
X41318422Y-20951211D01*
X41318422Y-20951211D02*
X41280326Y-21103592D01*
X41280326Y-21103592D02*
X41280326Y-21408354D01*
X41280326Y-21408354D02*
X41318422Y-21484544D01*
X41318422Y-21484544D02*
X41356517Y-21522640D01*
X41356517Y-21522640D02*
X41432707Y-21560735D01*
X41432707Y-21560735D02*
X41585088Y-21560735D01*
X41585088Y-21560735D02*
X41661279Y-21522640D01*
X41661279Y-21522640D02*
X41699374Y-21484544D01*
X41699374Y-21484544D02*
X41737469Y-21408354D01*
X41737469Y-21408354D02*
X41737469Y-21217878D01*
X41737469Y-21217878D02*
X41699374Y-21141687D01*
X41699374Y-21141687D02*
X41661279Y-21103592D01*
X41661279Y-21103592D02*
X41585088Y-21065497D01*
X41585088Y-21065497D02*
X41432707Y-21065497D01*
X41432707Y-21065497D02*
X41356517Y-21103592D01*
X41356517Y-21103592D02*
X41318422Y-21141687D01*
X41318422Y-21141687D02*
X41280326Y-21217878D01*
X42080327Y-21560735D02*
X42080327Y-21027401D01*
X42080327Y-21103592D02*
X42118422Y-21065497D01*
X42118422Y-21065497D02*
X42194612Y-21027401D01*
X42194612Y-21027401D02*
X42308898Y-21027401D01*
X42308898Y-21027401D02*
X42385089Y-21065497D01*
X42385089Y-21065497D02*
X42423184Y-21141687D01*
X42423184Y-21141687D02*
X42423184Y-21560735D01*
X42423184Y-21141687D02*
X42461279Y-21065497D01*
X42461279Y-21065497D02*
X42537470Y-21027401D01*
X42537470Y-21027401D02*
X42651755Y-21027401D01*
X42651755Y-21027401D02*
X42727946Y-21065497D01*
X42727946Y-21065497D02*
X42766041Y-21141687D01*
X42766041Y-21141687D02*
X42766041Y-21560735D01*
X43146994Y-21560735D02*
X43146994Y-21027401D01*
X43146994Y-21103592D02*
X43185089Y-21065497D01*
X43185089Y-21065497D02*
X43261279Y-21027401D01*
X43261279Y-21027401D02*
X43375565Y-21027401D01*
X43375565Y-21027401D02*
X43451756Y-21065497D01*
X43451756Y-21065497D02*
X43489851Y-21141687D01*
X43489851Y-21141687D02*
X43489851Y-21560735D01*
X43489851Y-21141687D02*
X43527946Y-21065497D01*
X43527946Y-21065497D02*
X43604137Y-21027401D01*
X43604137Y-21027401D02*
X43718422Y-21027401D01*
X43718422Y-21027401D02*
X43794613Y-21065497D01*
X43794613Y-21065497D02*
X43832708Y-21141687D01*
X43832708Y-21141687D02*
X43832708Y-21560735D01*
%LPC*%
D11*
%TO.C,K2*%
X52000000Y-5500000D03*
%TD*%
D12*
%TO.C,J2*%
X4000000Y-21269999D03*
D13*
X4000000Y-18730001D03*
X6540000Y-21269999D03*
X6540000Y-18730001D03*
X9080000Y-21269999D03*
X9080000Y-18730001D03*
X11620000Y-21269999D03*
X11620000Y-18730001D03*
X14160000Y-21269999D03*
X14160000Y-18730001D03*
X16700000Y-21269999D03*
X16700000Y-18730001D03*
X19240000Y-21269999D03*
X19240000Y-18730001D03*
X21780000Y-21269999D03*
X21780000Y-18730001D03*
X24320000Y-21269999D03*
X24320000Y-18730001D03*
X26860000Y-21269999D03*
X26860000Y-18730001D03*
X29400000Y-21269999D03*
X29400000Y-18730001D03*
X31940000Y-21269999D03*
X31940000Y-18730001D03*
X34480000Y-21269999D03*
X34480000Y-18730001D03*
X37020000Y-21269999D03*
X37020000Y-18730001D03*
X39560000Y-21269999D03*
X39560000Y-18730001D03*
X42100000Y-21269999D03*
X42100000Y-18730001D03*
X44640000Y-21269999D03*
X44640000Y-18730001D03*
X47180000Y-21269999D03*
X47180000Y-18730001D03*
X49720000Y-21269999D03*
X49720000Y-18730001D03*
X52260000Y-21269999D03*
X52260000Y-18730001D03*
%TD*%
D11*
%TO.C,K1*%
X34000000Y-5500000D03*
%TD*%
D14*
%TO.C,J1*%
X21500000Y-6780000D03*
D15*
X20000000Y-11100000D03*
D16*
X23000000Y-11100000D03*
X20000000Y-14100000D03*
X23000000Y-14100000D03*
%TD*%
%LPD*%
M02*
