%TF.GenerationSoftware,KiCad,Pcbnew,7.0.11+dfsg-1build4*%
%TF.CreationDate,2026-10-01T15:01:07+00:00*%
%TF.ProjectId,OSBAMS_Pi_Power_Interposer_RevA,4f534241-4d53-45f5-9069-5f506f776572,rev?*%
%TF.SameCoordinates,Original*%
%TF.FileFunction,Soldermask,Top*%
%TF.FilePolarity,Negative*%
%FSLAX46Y46*%
G04 Gerber Fmt 4.6, Leading zero omitted, Abs format (unit mm)*
G04 Created by KiCad (PCBNEW 7.0.11+dfsg-1build4) date 2026-10-01 15:01:07*
%MOMM*%
%LPD*%
G01*
G04 APERTURE LIST*
G04 Aperture macros list*
%AMRoundRect*
0 Rectangle with rounded corners*
0 $1 Rounding radius*
0 $2 $3 $4 $5 $6 $7 $8 $9 X,Y pos of 4 corners*
0 Add a 4 corners polygon primitive as box body*
4,1,4,$2,$3,$4,$5,$6,$7,$8,$9,$2,$3,0*
0 Add four circle primitives for the rounded corners*
1,1,$1+$1,$2,$3*
1,1,$1+$1,$4,$5*
1,1,$1+$1,$6,$7*
1,1,$1+$1,$8,$9*
0 Add four rect primitives between the rounded corners*
20,1,$1+$1,$2,$3,$4,$5,0*
20,1,$1+$1,$4,$5,$6,$7,0*
20,1,$1+$1,$6,$7,$8,$9,0*
20,1,$1+$1,$8,$9,$2,$3,0*%
G04 Aperture macros list end*
%ADD10C,2.700000*%
%ADD11R,1.700000X1.700000*%
%ADD12C,1.700000*%
%ADD13C,3.000000*%
%ADD14RoundRect,0.250001X-0.499999X-0.499999X0.499999X-0.499999X0.499999X0.499999X-0.499999X0.499999X0*%
%ADD15C,1.500000*%
G04 APERTURE END LIST*
D10*
%TO.C,K2*%
X52000000Y-5500000D03*
%TD*%
D11*
%TO.C,J2*%
X4000000Y-21269999D03*
D12*
X4000000Y-18730001D03*
X6540000Y-21269999D03*
X6540000Y-18730001D03*
X9080000Y-21269999D03*
X9080000Y-18730001D03*
X11620000Y-21269999D03*
X11620000Y-18730001D03*
X14160000Y-21269999D03*
X14160000Y-18730001D03*
X16700000Y-21269999D03*
X16700000Y-18730001D03*
X19240000Y-21269999D03*
X19240000Y-18730001D03*
X21780000Y-21269999D03*
X21780000Y-18730001D03*
X24320000Y-21269999D03*
X24320000Y-18730001D03*
X26860000Y-21269999D03*
X26860000Y-18730001D03*
X29400000Y-21269999D03*
X29400000Y-18730001D03*
X31940000Y-21269999D03*
X31940000Y-18730001D03*
X34480000Y-21269999D03*
X34480000Y-18730001D03*
X37020000Y-21269999D03*
X37020000Y-18730001D03*
X39560000Y-21269999D03*
X39560000Y-18730001D03*
X42100000Y-21269999D03*
X42100000Y-18730001D03*
X44640000Y-21269999D03*
X44640000Y-18730001D03*
X47180000Y-21269999D03*
X47180000Y-18730001D03*
X49720000Y-21269999D03*
X49720000Y-18730001D03*
X52260000Y-21269999D03*
X52260000Y-18730001D03*
%TD*%
D10*
%TO.C,K1*%
X34000000Y-5500000D03*
%TD*%
D13*
%TO.C,J1*%
X21500000Y-6780000D03*
D14*
X20000000Y-11100000D03*
D15*
X23000000Y-11100000D03*
X20000000Y-14100000D03*
X23000000Y-14100000D03*
%TD*%
M02*
