%TF.GenerationSoftware,KiCad,Pcbnew,7.0.11+dfsg-1build4*%
%TF.CreationDate,2026-10-01T18:00:36+00:00*%
%TF.ProjectId,OSBAMS_Pi_Power_Interposer_RevA,4f534241-4d53-45f5-9069-5f506f776572,rev?*%
%TF.SameCoordinates,Original*%
%TF.FileFunction,Legend,Top*%
%TF.FilePolarity,Positive*%
%FSLAX46Y46*%
G04 Gerber Fmt 4.6, Leading zero omitted, Abs format (unit mm)*
G04 Created by KiCad (PCBNEW 7.0.11+dfsg-1build4) date 2026-10-01 18:00:36*
%MOMM*%
%LPD*%
G01*
G04 APERTURE LIST*
G04 Aperture macros list*
%AMRoundRect*
0 Rectangle with rounded corners*
0 $1 Rounding radius*
0 $2 $3 $4 $5 $6 $7 $8 $9 X,Y pos of 4 corners*
0 Add a 4 corners polygon primitive as box body*
4,1,4,$2,$3,$4,$5,$6,$7,$8,$9,$2,$3,0*
0 Add four circle primitives for the rounded corners*
1,1,$1+$1,$2,$3*
1,1,$1+$1,$4,$5*
1,1,$1+$1,$6,$7*
1,1,$1+$1,$8,$9*
0 Add four rect primitives between the rounded corners*
20,1,$1+$1,$2,$3,$4,$5,0*
20,1,$1+$1,$4,$5,$6,$7,0*
20,1,$1+$1,$6,$7,$8,$9,0*
20,1,$1+$1,$8,$9,$2,$3,0*%
G04 Aperture macros list end*
%ADD10C,0.175000*%
%ADD11C,0.180000*%
%ADD12C,0.120000*%
%ADD13C,0.150000*%
%ADD14C,3.000000*%
%ADD15RoundRect,0.250001X-0.499999X-0.499999X0.499999X-0.499999X0.499999X0.499999X-0.499999X0.499999X0*%
%ADD16C,1.500000*%
%ADD17C,2.700000*%
%ADD18R,1.700000X1.700000*%
%ADD19C,1.700000*%
G04 APERTURE END LIST*
D10*
X6281797Y-23214733D02*
X6281797Y-22514733D01*
X6281797Y-22514733D02*
X6548464Y-22514733D01*
X6548464Y-22514733D02*
X6615131Y-22548066D01*
X6615131Y-22548066D02*
X6648464Y-22581400D01*
X6648464Y-22581400D02*
X6681797Y-22648066D01*
X6681797Y-22648066D02*
X6681797Y-22748066D01*
X6681797Y-22748066D02*
X6648464Y-22814733D01*
X6648464Y-22814733D02*
X6615131Y-22848066D01*
X6615131Y-22848066D02*
X6548464Y-22881400D01*
X6548464Y-22881400D02*
X6281797Y-22881400D01*
X6981797Y-23214733D02*
X6981797Y-22514733D01*
X7848463Y-23214733D02*
X7848463Y-22514733D01*
X7848463Y-22514733D02*
X8115130Y-22514733D01*
X8115130Y-22514733D02*
X8181797Y-22548066D01*
X8181797Y-22548066D02*
X8215130Y-22581400D01*
X8215130Y-22581400D02*
X8248463Y-22648066D01*
X8248463Y-22648066D02*
X8248463Y-22748066D01*
X8248463Y-22748066D02*
X8215130Y-22814733D01*
X8215130Y-22814733D02*
X8181797Y-22848066D01*
X8181797Y-22848066D02*
X8115130Y-22881400D01*
X8115130Y-22881400D02*
X7848463Y-22881400D01*
X8548463Y-23214733D02*
X8548463Y-22514733D01*
X8881796Y-23214733D02*
X8881796Y-22514733D01*
X8881796Y-22514733D02*
X9281796Y-23214733D01*
X9281796Y-23214733D02*
X9281796Y-22514733D01*
X10515129Y-23214733D02*
X10115129Y-23214733D01*
X10315129Y-23214733D02*
X10315129Y-22514733D01*
X10315129Y-22514733D02*
X10248462Y-22614733D01*
X10248462Y-22614733D02*
X10181796Y-22681400D01*
X10181796Y-22681400D02*
X10115129Y-22714733D01*
D11*
X17808897Y-7960735D02*
X17808897Y-7160735D01*
X18266040Y-7960735D02*
X17923182Y-7503592D01*
X18266040Y-7160735D02*
X17808897Y-7617878D01*
X18608897Y-7541687D02*
X18875563Y-7541687D01*
X18989849Y-7960735D02*
X18608897Y-7960735D01*
X18608897Y-7960735D02*
X18608897Y-7160735D01*
X18608897Y-7160735D02*
X18989849Y-7160735D01*
X19485088Y-7579782D02*
X19485088Y-7960735D01*
X19218421Y-7160735D02*
X19485088Y-7579782D01*
X19485088Y-7579782D02*
X19751754Y-7160735D01*
X33678897Y-14960735D02*
X33678897Y-14160735D01*
X34021753Y-14922640D02*
X34136039Y-14960735D01*
X34136039Y-14960735D02*
X34326515Y-14960735D01*
X34326515Y-14960735D02*
X34402706Y-14922640D01*
X34402706Y-14922640D02*
X34440801Y-14884544D01*
X34440801Y-14884544D02*
X34478896Y-14808354D01*
X34478896Y-14808354D02*
X34478896Y-14732163D01*
X34478896Y-14732163D02*
X34440801Y-14655973D01*
X34440801Y-14655973D02*
X34402706Y-14617878D01*
X34402706Y-14617878D02*
X34326515Y-14579782D01*
X34326515Y-14579782D02*
X34174134Y-14541687D01*
X34174134Y-14541687D02*
X34097944Y-14503592D01*
X34097944Y-14503592D02*
X34059849Y-14465497D01*
X34059849Y-14465497D02*
X34021753Y-14389306D01*
X34021753Y-14389306D02*
X34021753Y-14313116D01*
X34021753Y-14313116D02*
X34059849Y-14236925D01*
X34059849Y-14236925D02*
X34097944Y-14198830D01*
X34097944Y-14198830D02*
X34174134Y-14160735D01*
X34174134Y-14160735D02*
X34364611Y-14160735D01*
X34364611Y-14160735D02*
X34478896Y-14198830D01*
X34974135Y-14160735D02*
X35126516Y-14160735D01*
X35126516Y-14160735D02*
X35202706Y-14198830D01*
X35202706Y-14198830D02*
X35278897Y-14275020D01*
X35278897Y-14275020D02*
X35316992Y-14427401D01*
X35316992Y-14427401D02*
X35316992Y-14694068D01*
X35316992Y-14694068D02*
X35278897Y-14846449D01*
X35278897Y-14846449D02*
X35202706Y-14922640D01*
X35202706Y-14922640D02*
X35126516Y-14960735D01*
X35126516Y-14960735D02*
X34974135Y-14960735D01*
X34974135Y-14960735D02*
X34897944Y-14922640D01*
X34897944Y-14922640D02*
X34821754Y-14846449D01*
X34821754Y-14846449D02*
X34783658Y-14694068D01*
X34783658Y-14694068D02*
X34783658Y-14427401D01*
X34783658Y-14427401D02*
X34821754Y-14275020D01*
X34821754Y-14275020D02*
X34897944Y-14198830D01*
X34897944Y-14198830D02*
X34974135Y-14160735D01*
X36040801Y-14960735D02*
X35659849Y-14960735D01*
X35659849Y-14960735D02*
X35659849Y-14160735D01*
X36269372Y-14732163D02*
X36650325Y-14732163D01*
X36193182Y-14960735D02*
X36459849Y-14160735D01*
X36459849Y-14160735D02*
X36726515Y-14960735D01*
X36878896Y-14160735D02*
X37336039Y-14160735D01*
X37107467Y-14960735D02*
X37107467Y-14160735D01*
X37602706Y-14541687D02*
X37869372Y-14541687D01*
X37983658Y-14960735D02*
X37602706Y-14960735D01*
X37602706Y-14960735D02*
X37602706Y-14160735D01*
X37602706Y-14160735D02*
X37983658Y-14160735D01*
X38326516Y-14960735D02*
X38326516Y-14160735D01*
X38326516Y-14160735D02*
X38516992Y-14160735D01*
X38516992Y-14160735D02*
X38631278Y-14198830D01*
X38631278Y-14198830D02*
X38707468Y-14275020D01*
X38707468Y-14275020D02*
X38745563Y-14351211D01*
X38745563Y-14351211D02*
X38783659Y-14503592D01*
X38783659Y-14503592D02*
X38783659Y-14617878D01*
X38783659Y-14617878D02*
X38745563Y-14770259D01*
X38745563Y-14770259D02*
X38707468Y-14846449D01*
X38707468Y-14846449D02*
X38631278Y-14922640D01*
X38631278Y-14922640D02*
X38516992Y-14960735D01*
X38516992Y-14960735D02*
X38326516Y-14960735D01*
X40116992Y-14160735D02*
X39736040Y-14160735D01*
X39736040Y-14160735D02*
X39697944Y-14541687D01*
X39697944Y-14541687D02*
X39736040Y-14503592D01*
X39736040Y-14503592D02*
X39812230Y-14465497D01*
X39812230Y-14465497D02*
X40002706Y-14465497D01*
X40002706Y-14465497D02*
X40078897Y-14503592D01*
X40078897Y-14503592D02*
X40116992Y-14541687D01*
X40116992Y-14541687D02*
X40155087Y-14617878D01*
X40155087Y-14617878D02*
X40155087Y-14808354D01*
X40155087Y-14808354D02*
X40116992Y-14884544D01*
X40116992Y-14884544D02*
X40078897Y-14922640D01*
X40078897Y-14922640D02*
X40002706Y-14960735D01*
X40002706Y-14960735D02*
X39812230Y-14960735D01*
X39812230Y-14960735D02*
X39736040Y-14922640D01*
X39736040Y-14922640D02*
X39697944Y-14884544D01*
X40383659Y-14160735D02*
X40650326Y-14960735D01*
X40650326Y-14960735D02*
X40916992Y-14160735D01*
X41793183Y-14960735D02*
X41793183Y-14160735D01*
X42174135Y-14960735D02*
X42174135Y-14160735D01*
X42174135Y-14160735D02*
X42631278Y-14960735D01*
X42631278Y-14960735D02*
X42631278Y-14160735D01*
X34136040Y-23060735D02*
X33869373Y-22679782D01*
X33678897Y-23060735D02*
X33678897Y-22260735D01*
X33678897Y-22260735D02*
X33983659Y-22260735D01*
X33983659Y-22260735D02*
X34059849Y-22298830D01*
X34059849Y-22298830D02*
X34097944Y-22336925D01*
X34097944Y-22336925D02*
X34136040Y-22413116D01*
X34136040Y-22413116D02*
X34136040Y-22527401D01*
X34136040Y-22527401D02*
X34097944Y-22603592D01*
X34097944Y-22603592D02*
X34059849Y-22641687D01*
X34059849Y-22641687D02*
X33983659Y-22679782D01*
X33983659Y-22679782D02*
X33678897Y-22679782D01*
X34936040Y-22984544D02*
X34897944Y-23022640D01*
X34897944Y-23022640D02*
X34783659Y-23060735D01*
X34783659Y-23060735D02*
X34707468Y-23060735D01*
X34707468Y-23060735D02*
X34593182Y-23022640D01*
X34593182Y-23022640D02*
X34516992Y-22946449D01*
X34516992Y-22946449D02*
X34478897Y-22870259D01*
X34478897Y-22870259D02*
X34440801Y-22717878D01*
X34440801Y-22717878D02*
X34440801Y-22603592D01*
X34440801Y-22603592D02*
X34478897Y-22451211D01*
X34478897Y-22451211D02*
X34516992Y-22375020D01*
X34516992Y-22375020D02*
X34593182Y-22298830D01*
X34593182Y-22298830D02*
X34707468Y-22260735D01*
X34707468Y-22260735D02*
X34783659Y-22260735D01*
X34783659Y-22260735D02*
X34897944Y-22298830D01*
X34897944Y-22298830D02*
X34936040Y-22336925D01*
X35697944Y-23060735D02*
X35240801Y-23060735D01*
X35469373Y-23060735D02*
X35469373Y-22260735D01*
X35469373Y-22260735D02*
X35393182Y-22375020D01*
X35393182Y-22375020D02*
X35316992Y-22451211D01*
X35316992Y-22451211D02*
X35240801Y-22489306D01*
X36040802Y-22984544D02*
X36078897Y-23022640D01*
X36078897Y-23022640D02*
X36040802Y-23060735D01*
X36040802Y-23060735D02*
X36002706Y-23022640D01*
X36002706Y-23022640D02*
X36040802Y-22984544D01*
X36040802Y-22984544D02*
X36040802Y-23060735D01*
X36840801Y-23060735D02*
X36383658Y-23060735D01*
X36612230Y-23060735D02*
X36612230Y-22260735D01*
X36612230Y-22260735D02*
X36536039Y-22375020D01*
X36536039Y-22375020D02*
X36459849Y-22451211D01*
X36459849Y-22451211D02*
X36383658Y-22489306D01*
X37793183Y-22755973D02*
X38402707Y-22755973D01*
X39393183Y-23060735D02*
X39393183Y-22260735D01*
X39393183Y-22260735D02*
X39850326Y-23060735D01*
X39850326Y-23060735D02*
X39850326Y-22260735D01*
X40383659Y-22260735D02*
X40536040Y-22260735D01*
X40536040Y-22260735D02*
X40612230Y-22298830D01*
X40612230Y-22298830D02*
X40688421Y-22375020D01*
X40688421Y-22375020D02*
X40726516Y-22527401D01*
X40726516Y-22527401D02*
X40726516Y-22794068D01*
X40726516Y-22794068D02*
X40688421Y-22946449D01*
X40688421Y-22946449D02*
X40612230Y-23022640D01*
X40612230Y-23022640D02*
X40536040Y-23060735D01*
X40536040Y-23060735D02*
X40383659Y-23060735D01*
X40383659Y-23060735D02*
X40307468Y-23022640D01*
X40307468Y-23022640D02*
X40231278Y-22946449D01*
X40231278Y-22946449D02*
X40193182Y-22794068D01*
X40193182Y-22794068D02*
X40193182Y-22527401D01*
X40193182Y-22527401D02*
X40231278Y-22375020D01*
X40231278Y-22375020D02*
X40307468Y-22298830D01*
X40307468Y-22298830D02*
X40383659Y-22260735D01*
X40955087Y-22260735D02*
X41412230Y-22260735D01*
X41183658Y-23060735D02*
X41183658Y-22260735D01*
X42555087Y-22641687D02*
X42288421Y-22641687D01*
X42288421Y-23060735D02*
X42288421Y-22260735D01*
X42288421Y-22260735D02*
X42669373Y-22260735D01*
X43126516Y-22260735D02*
X43278897Y-22260735D01*
X43278897Y-22260735D02*
X43355087Y-22298830D01*
X43355087Y-22298830D02*
X43431278Y-22375020D01*
X43431278Y-22375020D02*
X43469373Y-22527401D01*
X43469373Y-22527401D02*
X43469373Y-22794068D01*
X43469373Y-22794068D02*
X43431278Y-22946449D01*
X43431278Y-22946449D02*
X43355087Y-23022640D01*
X43355087Y-23022640D02*
X43278897Y-23060735D01*
X43278897Y-23060735D02*
X43126516Y-23060735D01*
X43126516Y-23060735D02*
X43050325Y-23022640D01*
X43050325Y-23022640D02*
X42974135Y-22946449D01*
X42974135Y-22946449D02*
X42936039Y-22794068D01*
X42936039Y-22794068D02*
X42936039Y-22527401D01*
X42936039Y-22527401D02*
X42974135Y-22375020D01*
X42974135Y-22375020D02*
X43050325Y-22298830D01*
X43050325Y-22298830D02*
X43126516Y-22260735D01*
X44269373Y-23060735D02*
X44002706Y-22679782D01*
X43812230Y-23060735D02*
X43812230Y-22260735D01*
X43812230Y-22260735D02*
X44116992Y-22260735D01*
X44116992Y-22260735D02*
X44193182Y-22298830D01*
X44193182Y-22298830D02*
X44231277Y-22336925D01*
X44231277Y-22336925D02*
X44269373Y-22413116D01*
X44269373Y-22413116D02*
X44269373Y-22527401D01*
X44269373Y-22527401D02*
X44231277Y-22603592D01*
X44231277Y-22603592D02*
X44193182Y-22641687D01*
X44193182Y-22641687D02*
X44116992Y-22679782D01*
X44116992Y-22679782D02*
X43812230Y-22679782D01*
X45488420Y-22641687D02*
X45221754Y-22641687D01*
X45221754Y-23060735D02*
X45221754Y-22260735D01*
X45221754Y-22260735D02*
X45602706Y-22260735D01*
X45869372Y-22832163D02*
X46250325Y-22832163D01*
X45793182Y-23060735D02*
X46059849Y-22260735D01*
X46059849Y-22260735D02*
X46326515Y-23060735D01*
X46859848Y-22641687D02*
X46974134Y-22679782D01*
X46974134Y-22679782D02*
X47012229Y-22717878D01*
X47012229Y-22717878D02*
X47050325Y-22794068D01*
X47050325Y-22794068D02*
X47050325Y-22908354D01*
X47050325Y-22908354D02*
X47012229Y-22984544D01*
X47012229Y-22984544D02*
X46974134Y-23022640D01*
X46974134Y-23022640D02*
X46897944Y-23060735D01*
X46897944Y-23060735D02*
X46593182Y-23060735D01*
X46593182Y-23060735D02*
X46593182Y-22260735D01*
X46593182Y-22260735D02*
X46859848Y-22260735D01*
X46859848Y-22260735D02*
X46936039Y-22298830D01*
X46936039Y-22298830D02*
X46974134Y-22336925D01*
X46974134Y-22336925D02*
X47012229Y-22413116D01*
X47012229Y-22413116D02*
X47012229Y-22489306D01*
X47012229Y-22489306D02*
X46974134Y-22565497D01*
X46974134Y-22565497D02*
X46936039Y-22603592D01*
X46936039Y-22603592D02*
X46859848Y-22641687D01*
X46859848Y-22641687D02*
X46593182Y-22641687D01*
X33678897Y-16760734D02*
X33678897Y-15960734D01*
X33678897Y-15960734D02*
X33983659Y-15960734D01*
X33983659Y-15960734D02*
X34059849Y-15998829D01*
X34059849Y-15998829D02*
X34097944Y-16036924D01*
X34097944Y-16036924D02*
X34136040Y-16113115D01*
X34136040Y-16113115D02*
X34136040Y-16227400D01*
X34136040Y-16227400D02*
X34097944Y-16303591D01*
X34097944Y-16303591D02*
X34059849Y-16341686D01*
X34059849Y-16341686D02*
X33983659Y-16379781D01*
X33983659Y-16379781D02*
X33678897Y-16379781D01*
X34478897Y-16760734D02*
X34478897Y-15960734D01*
X35431277Y-16722639D02*
X35545563Y-16760734D01*
X35545563Y-16760734D02*
X35736039Y-16760734D01*
X35736039Y-16760734D02*
X35812230Y-16722639D01*
X35812230Y-16722639D02*
X35850325Y-16684543D01*
X35850325Y-16684543D02*
X35888420Y-16608353D01*
X35888420Y-16608353D02*
X35888420Y-16532162D01*
X35888420Y-16532162D02*
X35850325Y-16455972D01*
X35850325Y-16455972D02*
X35812230Y-16417877D01*
X35812230Y-16417877D02*
X35736039Y-16379781D01*
X35736039Y-16379781D02*
X35583658Y-16341686D01*
X35583658Y-16341686D02*
X35507468Y-16303591D01*
X35507468Y-16303591D02*
X35469373Y-16265496D01*
X35469373Y-16265496D02*
X35431277Y-16189305D01*
X35431277Y-16189305D02*
X35431277Y-16113115D01*
X35431277Y-16113115D02*
X35469373Y-16036924D01*
X35469373Y-16036924D02*
X35507468Y-15998829D01*
X35507468Y-15998829D02*
X35583658Y-15960734D01*
X35583658Y-15960734D02*
X35774135Y-15960734D01*
X35774135Y-15960734D02*
X35888420Y-15998829D01*
X36231278Y-16760734D02*
X36231278Y-15960734D01*
X36612230Y-16760734D02*
X36612230Y-15960734D01*
X36612230Y-15960734D02*
X36802706Y-15960734D01*
X36802706Y-15960734D02*
X36916992Y-15998829D01*
X36916992Y-15998829D02*
X36993182Y-16075019D01*
X36993182Y-16075019D02*
X37031277Y-16151210D01*
X37031277Y-16151210D02*
X37069373Y-16303591D01*
X37069373Y-16303591D02*
X37069373Y-16417877D01*
X37069373Y-16417877D02*
X37031277Y-16570258D01*
X37031277Y-16570258D02*
X36993182Y-16646448D01*
X36993182Y-16646448D02*
X36916992Y-16722639D01*
X36916992Y-16722639D02*
X36802706Y-16760734D01*
X36802706Y-16760734D02*
X36612230Y-16760734D01*
X37412230Y-16341686D02*
X37678896Y-16341686D01*
X37793182Y-16760734D02*
X37412230Y-16760734D01*
X37412230Y-16760734D02*
X37412230Y-15960734D01*
X37412230Y-15960734D02*
X37793182Y-15960734D01*
X38745564Y-16455972D02*
X39355088Y-16455972D01*
X40345564Y-16760734D02*
X40345564Y-15960734D01*
X40688420Y-16722639D02*
X40802706Y-16760734D01*
X40802706Y-16760734D02*
X40993182Y-16760734D01*
X40993182Y-16760734D02*
X41069373Y-16722639D01*
X41069373Y-16722639D02*
X41107468Y-16684543D01*
X41107468Y-16684543D02*
X41145563Y-16608353D01*
X41145563Y-16608353D02*
X41145563Y-16532162D01*
X41145563Y-16532162D02*
X41107468Y-16455972D01*
X41107468Y-16455972D02*
X41069373Y-16417877D01*
X41069373Y-16417877D02*
X40993182Y-16379781D01*
X40993182Y-16379781D02*
X40840801Y-16341686D01*
X40840801Y-16341686D02*
X40764611Y-16303591D01*
X40764611Y-16303591D02*
X40726516Y-16265496D01*
X40726516Y-16265496D02*
X40688420Y-16189305D01*
X40688420Y-16189305D02*
X40688420Y-16113115D01*
X40688420Y-16113115D02*
X40726516Y-16036924D01*
X40726516Y-16036924D02*
X40764611Y-15998829D01*
X40764611Y-15998829D02*
X40840801Y-15960734D01*
X40840801Y-15960734D02*
X41031278Y-15960734D01*
X41031278Y-15960734D02*
X41145563Y-15998829D01*
X41640802Y-15960734D02*
X41793183Y-15960734D01*
X41793183Y-15960734D02*
X41869373Y-15998829D01*
X41869373Y-15998829D02*
X41945564Y-16075019D01*
X41945564Y-16075019D02*
X41983659Y-16227400D01*
X41983659Y-16227400D02*
X41983659Y-16494067D01*
X41983659Y-16494067D02*
X41945564Y-16646448D01*
X41945564Y-16646448D02*
X41869373Y-16722639D01*
X41869373Y-16722639D02*
X41793183Y-16760734D01*
X41793183Y-16760734D02*
X41640802Y-16760734D01*
X41640802Y-16760734D02*
X41564611Y-16722639D01*
X41564611Y-16722639D02*
X41488421Y-16646448D01*
X41488421Y-16646448D02*
X41450325Y-16494067D01*
X41450325Y-16494067D02*
X41450325Y-16227400D01*
X41450325Y-16227400D02*
X41488421Y-16075019D01*
X41488421Y-16075019D02*
X41564611Y-15998829D01*
X41564611Y-15998829D02*
X41640802Y-15960734D01*
X42707468Y-16760734D02*
X42326516Y-16760734D01*
X42326516Y-16760734D02*
X42326516Y-15960734D01*
X42936039Y-16532162D02*
X43316992Y-16532162D01*
X42859849Y-16760734D02*
X43126516Y-15960734D01*
X43126516Y-15960734D02*
X43393182Y-16760734D01*
X43545563Y-15960734D02*
X44002706Y-15960734D01*
X43774134Y-16760734D02*
X43774134Y-15960734D01*
X44269373Y-16341686D02*
X44536039Y-16341686D01*
X44650325Y-16760734D02*
X44269373Y-16760734D01*
X44269373Y-16760734D02*
X44269373Y-15960734D01*
X44269373Y-15960734D02*
X44650325Y-15960734D01*
X44993183Y-16760734D02*
X44993183Y-15960734D01*
X44993183Y-15960734D02*
X45183659Y-15960734D01*
X45183659Y-15960734D02*
X45297945Y-15998829D01*
X45297945Y-15998829D02*
X45374135Y-16075019D01*
X45374135Y-16075019D02*
X45412230Y-16151210D01*
X45412230Y-16151210D02*
X45450326Y-16303591D01*
X45450326Y-16303591D02*
X45450326Y-16417877D01*
X45450326Y-16417877D02*
X45412230Y-16570258D01*
X45412230Y-16570258D02*
X45374135Y-16646448D01*
X45374135Y-16646448D02*
X45297945Y-16722639D01*
X45297945Y-16722639D02*
X45183659Y-16760734D01*
X45183659Y-16760734D02*
X44993183Y-16760734D01*
X34059849Y-12160735D02*
X33678897Y-12160735D01*
X33678897Y-12160735D02*
X33640801Y-12541687D01*
X33640801Y-12541687D02*
X33678897Y-12503592D01*
X33678897Y-12503592D02*
X33755087Y-12465497D01*
X33755087Y-12465497D02*
X33945563Y-12465497D01*
X33945563Y-12465497D02*
X34021754Y-12503592D01*
X34021754Y-12503592D02*
X34059849Y-12541687D01*
X34059849Y-12541687D02*
X34097944Y-12617878D01*
X34097944Y-12617878D02*
X34097944Y-12808354D01*
X34097944Y-12808354D02*
X34059849Y-12884544D01*
X34059849Y-12884544D02*
X34021754Y-12922640D01*
X34021754Y-12922640D02*
X33945563Y-12960735D01*
X33945563Y-12960735D02*
X33755087Y-12960735D01*
X33755087Y-12960735D02*
X33678897Y-12922640D01*
X33678897Y-12922640D02*
X33640801Y-12884544D01*
X34326516Y-12160735D02*
X34593183Y-12960735D01*
X34593183Y-12960735D02*
X34859849Y-12160735D01*
X36307468Y-12122640D02*
X35621754Y-13151211D01*
X37297944Y-12503592D02*
X37221754Y-12465497D01*
X37221754Y-12465497D02*
X37183659Y-12427401D01*
X37183659Y-12427401D02*
X37145563Y-12351211D01*
X37145563Y-12351211D02*
X37145563Y-12313116D01*
X37145563Y-12313116D02*
X37183659Y-12236925D01*
X37183659Y-12236925D02*
X37221754Y-12198830D01*
X37221754Y-12198830D02*
X37297944Y-12160735D01*
X37297944Y-12160735D02*
X37450325Y-12160735D01*
X37450325Y-12160735D02*
X37526516Y-12198830D01*
X37526516Y-12198830D02*
X37564611Y-12236925D01*
X37564611Y-12236925D02*
X37602706Y-12313116D01*
X37602706Y-12313116D02*
X37602706Y-12351211D01*
X37602706Y-12351211D02*
X37564611Y-12427401D01*
X37564611Y-12427401D02*
X37526516Y-12465497D01*
X37526516Y-12465497D02*
X37450325Y-12503592D01*
X37450325Y-12503592D02*
X37297944Y-12503592D01*
X37297944Y-12503592D02*
X37221754Y-12541687D01*
X37221754Y-12541687D02*
X37183659Y-12579782D01*
X37183659Y-12579782D02*
X37145563Y-12655973D01*
X37145563Y-12655973D02*
X37145563Y-12808354D01*
X37145563Y-12808354D02*
X37183659Y-12884544D01*
X37183659Y-12884544D02*
X37221754Y-12922640D01*
X37221754Y-12922640D02*
X37297944Y-12960735D01*
X37297944Y-12960735D02*
X37450325Y-12960735D01*
X37450325Y-12960735D02*
X37526516Y-12922640D01*
X37526516Y-12922640D02*
X37564611Y-12884544D01*
X37564611Y-12884544D02*
X37602706Y-12808354D01*
X37602706Y-12808354D02*
X37602706Y-12655973D01*
X37602706Y-12655973D02*
X37564611Y-12579782D01*
X37564611Y-12579782D02*
X37526516Y-12541687D01*
X37526516Y-12541687D02*
X37450325Y-12503592D01*
X37907468Y-12732163D02*
X38288421Y-12732163D01*
X37831278Y-12960735D02*
X38097945Y-12160735D01*
X38097945Y-12160735D02*
X38364611Y-12960735D01*
X39240802Y-12960735D02*
X39240802Y-12160735D01*
X39240802Y-12160735D02*
X39507468Y-12732163D01*
X39507468Y-12732163D02*
X39774135Y-12160735D01*
X39774135Y-12160735D02*
X39774135Y-12960735D01*
X40116992Y-12732163D02*
X40497945Y-12732163D01*
X40040802Y-12960735D02*
X40307469Y-12160735D01*
X40307469Y-12160735D02*
X40574135Y-12960735D01*
X40764611Y-12160735D02*
X41297945Y-12960735D01*
X41297945Y-12160735D02*
X40764611Y-12960735D01*
X43240802Y-12960735D02*
X42783659Y-12960735D01*
X43012231Y-12960735D02*
X43012231Y-12160735D01*
X43012231Y-12160735D02*
X42936040Y-12275020D01*
X42936040Y-12275020D02*
X42859850Y-12351211D01*
X42859850Y-12351211D02*
X42783659Y-12389306D01*
X43621755Y-12922640D02*
X43621755Y-12960735D01*
X43621755Y-12960735D02*
X43583660Y-13036925D01*
X43583660Y-13036925D02*
X43545564Y-13075020D01*
X43926516Y-12236925D02*
X43964612Y-12198830D01*
X43964612Y-12198830D02*
X44040802Y-12160735D01*
X44040802Y-12160735D02*
X44231278Y-12160735D01*
X44231278Y-12160735D02*
X44307469Y-12198830D01*
X44307469Y-12198830D02*
X44345564Y-12236925D01*
X44345564Y-12236925D02*
X44383659Y-12313116D01*
X44383659Y-12313116D02*
X44383659Y-12389306D01*
X44383659Y-12389306D02*
X44345564Y-12503592D01*
X44345564Y-12503592D02*
X43888421Y-12960735D01*
X43888421Y-12960735D02*
X44383659Y-12960735D01*
X44726517Y-12541687D02*
X45336041Y-12541687D01*
X45336041Y-12770259D02*
X44726517Y-12770259D01*
X45716993Y-12655973D02*
X46326517Y-12655973D01*
X46021755Y-12960735D02*
X46021755Y-12351211D01*
X47088421Y-12160735D02*
X46707469Y-12160735D01*
X46707469Y-12160735D02*
X46669373Y-12541687D01*
X46669373Y-12541687D02*
X46707469Y-12503592D01*
X46707469Y-12503592D02*
X46783659Y-12465497D01*
X46783659Y-12465497D02*
X46974135Y-12465497D01*
X46974135Y-12465497D02*
X47050326Y-12503592D01*
X47050326Y-12503592D02*
X47088421Y-12541687D01*
X47088421Y-12541687D02*
X47126516Y-12617878D01*
X47126516Y-12617878D02*
X47126516Y-12808354D01*
X47126516Y-12808354D02*
X47088421Y-12884544D01*
X47088421Y-12884544D02*
X47050326Y-12922640D01*
X47050326Y-12922640D02*
X46974135Y-12960735D01*
X46974135Y-12960735D02*
X46783659Y-12960735D01*
X46783659Y-12960735D02*
X46707469Y-12922640D01*
X46707469Y-12922640D02*
X46669373Y-12884544D01*
X47355088Y-12160735D02*
X47621755Y-12960735D01*
X47621755Y-12960735D02*
X47888421Y-12160735D01*
X48688421Y-12160735D02*
X49183659Y-12160735D01*
X49183659Y-12160735D02*
X48916993Y-12465497D01*
X48916993Y-12465497D02*
X49031278Y-12465497D01*
X49031278Y-12465497D02*
X49107469Y-12503592D01*
X49107469Y-12503592D02*
X49145564Y-12541687D01*
X49145564Y-12541687D02*
X49183659Y-12617878D01*
X49183659Y-12617878D02*
X49183659Y-12808354D01*
X49183659Y-12808354D02*
X49145564Y-12884544D01*
X49145564Y-12884544D02*
X49107469Y-12922640D01*
X49107469Y-12922640D02*
X49031278Y-12960735D01*
X49031278Y-12960735D02*
X48802707Y-12960735D01*
X48802707Y-12960735D02*
X48726516Y-12922640D01*
X48726516Y-12922640D02*
X48688421Y-12884544D01*
X49564612Y-12922640D02*
X49564612Y-12960735D01*
X49564612Y-12960735D02*
X49526517Y-13036925D01*
X49526517Y-13036925D02*
X49488421Y-13075020D01*
X50250326Y-12427401D02*
X50250326Y-12960735D01*
X50059850Y-12122640D02*
X49869373Y-12694068D01*
X49869373Y-12694068D02*
X50364612Y-12694068D01*
X50669374Y-12541687D02*
X51278898Y-12541687D01*
X51278898Y-12770259D02*
X50669374Y-12770259D01*
X52078897Y-12198830D02*
X52002707Y-12160735D01*
X52002707Y-12160735D02*
X51888421Y-12160735D01*
X51888421Y-12160735D02*
X51774135Y-12198830D01*
X51774135Y-12198830D02*
X51697945Y-12275020D01*
X51697945Y-12275020D02*
X51659850Y-12351211D01*
X51659850Y-12351211D02*
X51621754Y-12503592D01*
X51621754Y-12503592D02*
X51621754Y-12617878D01*
X51621754Y-12617878D02*
X51659850Y-12770259D01*
X51659850Y-12770259D02*
X51697945Y-12846449D01*
X51697945Y-12846449D02*
X51774135Y-12922640D01*
X51774135Y-12922640D02*
X51888421Y-12960735D01*
X51888421Y-12960735D02*
X51964612Y-12960735D01*
X51964612Y-12960735D02*
X52078897Y-12922640D01*
X52078897Y-12922640D02*
X52116993Y-12884544D01*
X52116993Y-12884544D02*
X52116993Y-12617878D01*
X52116993Y-12617878D02*
X51964612Y-12617878D01*
X52459850Y-12960735D02*
X52459850Y-12160735D01*
X52459850Y-12160735D02*
X52916993Y-12960735D01*
X52916993Y-12960735D02*
X52916993Y-12160735D01*
X53297945Y-12960735D02*
X53297945Y-12160735D01*
X53297945Y-12160735D02*
X53488421Y-12160735D01*
X53488421Y-12160735D02*
X53602707Y-12198830D01*
X53602707Y-12198830D02*
X53678897Y-12275020D01*
X53678897Y-12275020D02*
X53716992Y-12351211D01*
X53716992Y-12351211D02*
X53755088Y-12503592D01*
X53755088Y-12503592D02*
X53755088Y-12617878D01*
X53755088Y-12617878D02*
X53716992Y-12770259D01*
X53716992Y-12770259D02*
X53678897Y-12846449D01*
X53678897Y-12846449D02*
X53602707Y-12922640D01*
X53602707Y-12922640D02*
X53488421Y-12960735D01*
X53488421Y-12960735D02*
X53297945Y-12960735D01*
X42558897Y-7960735D02*
X42558897Y-7160735D01*
X43016040Y-7960735D02*
X42673182Y-7503592D01*
X43016040Y-7160735D02*
X42558897Y-7617878D01*
X43358897Y-7541687D02*
X43625563Y-7541687D01*
X43739849Y-7960735D02*
X43358897Y-7960735D01*
X43358897Y-7960735D02*
X43358897Y-7160735D01*
X43358897Y-7160735D02*
X43739849Y-7160735D01*
X44235088Y-7579782D02*
X44235088Y-7960735D01*
X43968421Y-7160735D02*
X44235088Y-7579782D01*
X44235088Y-7579782D02*
X44501754Y-7160735D01*
X33874135Y-2906997D02*
X34045563Y-2906997D01*
X34045563Y-2906997D02*
X34131278Y-2949854D01*
X34131278Y-2949854D02*
X34216992Y-3035568D01*
X34216992Y-3035568D02*
X34259849Y-3206997D01*
X34259849Y-3206997D02*
X34259849Y-3506997D01*
X34259849Y-3506997D02*
X34216992Y-3678425D01*
X34216992Y-3678425D02*
X34131278Y-3764140D01*
X34131278Y-3764140D02*
X34045563Y-3806997D01*
X34045563Y-3806997D02*
X33874135Y-3806997D01*
X33874135Y-3806997D02*
X33788421Y-3764140D01*
X33788421Y-3764140D02*
X33702706Y-3678425D01*
X33702706Y-3678425D02*
X33659849Y-3506997D01*
X33659849Y-3506997D02*
X33659849Y-3206997D01*
X33659849Y-3206997D02*
X33702706Y-3035568D01*
X33702706Y-3035568D02*
X33788421Y-2949854D01*
X33788421Y-2949854D02*
X33874135Y-2906997D01*
X34602706Y-3764140D02*
X34731278Y-3806997D01*
X34731278Y-3806997D02*
X34945563Y-3806997D01*
X34945563Y-3806997D02*
X35031278Y-3764140D01*
X35031278Y-3764140D02*
X35074135Y-3721282D01*
X35074135Y-3721282D02*
X35116992Y-3635568D01*
X35116992Y-3635568D02*
X35116992Y-3549854D01*
X35116992Y-3549854D02*
X35074135Y-3464140D01*
X35074135Y-3464140D02*
X35031278Y-3421282D01*
X35031278Y-3421282D02*
X34945563Y-3378425D01*
X34945563Y-3378425D02*
X34774135Y-3335568D01*
X34774135Y-3335568D02*
X34688420Y-3292711D01*
X34688420Y-3292711D02*
X34645563Y-3249854D01*
X34645563Y-3249854D02*
X34602706Y-3164140D01*
X34602706Y-3164140D02*
X34602706Y-3078425D01*
X34602706Y-3078425D02*
X34645563Y-2992711D01*
X34645563Y-2992711D02*
X34688420Y-2949854D01*
X34688420Y-2949854D02*
X34774135Y-2906997D01*
X34774135Y-2906997D02*
X34988420Y-2906997D01*
X34988420Y-2906997D02*
X35116992Y-2949854D01*
X35802706Y-3335568D02*
X35931278Y-3378425D01*
X35931278Y-3378425D02*
X35974135Y-3421282D01*
X35974135Y-3421282D02*
X36016992Y-3506997D01*
X36016992Y-3506997D02*
X36016992Y-3635568D01*
X36016992Y-3635568D02*
X35974135Y-3721282D01*
X35974135Y-3721282D02*
X35931278Y-3764140D01*
X35931278Y-3764140D02*
X35845563Y-3806997D01*
X35845563Y-3806997D02*
X35502706Y-3806997D01*
X35502706Y-3806997D02*
X35502706Y-2906997D01*
X35502706Y-2906997D02*
X35802706Y-2906997D01*
X35802706Y-2906997D02*
X35888421Y-2949854D01*
X35888421Y-2949854D02*
X35931278Y-2992711D01*
X35931278Y-2992711D02*
X35974135Y-3078425D01*
X35974135Y-3078425D02*
X35974135Y-3164140D01*
X35974135Y-3164140D02*
X35931278Y-3249854D01*
X35931278Y-3249854D02*
X35888421Y-3292711D01*
X35888421Y-3292711D02*
X35802706Y-3335568D01*
X35802706Y-3335568D02*
X35502706Y-3335568D01*
X36359849Y-3549854D02*
X36788421Y-3549854D01*
X36274135Y-3806997D02*
X36574135Y-2906997D01*
X36574135Y-2906997D02*
X36874135Y-3806997D01*
X37174135Y-3806997D02*
X37174135Y-2906997D01*
X37174135Y-2906997D02*
X37474135Y-3549854D01*
X37474135Y-3549854D02*
X37774135Y-2906997D01*
X37774135Y-2906997D02*
X37774135Y-3806997D01*
X38159849Y-3764140D02*
X38288421Y-3806997D01*
X38288421Y-3806997D02*
X38502706Y-3806997D01*
X38502706Y-3806997D02*
X38588421Y-3764140D01*
X38588421Y-3764140D02*
X38631278Y-3721282D01*
X38631278Y-3721282D02*
X38674135Y-3635568D01*
X38674135Y-3635568D02*
X38674135Y-3549854D01*
X38674135Y-3549854D02*
X38631278Y-3464140D01*
X38631278Y-3464140D02*
X38588421Y-3421282D01*
X38588421Y-3421282D02*
X38502706Y-3378425D01*
X38502706Y-3378425D02*
X38331278Y-3335568D01*
X38331278Y-3335568D02*
X38245563Y-3292711D01*
X38245563Y-3292711D02*
X38202706Y-3249854D01*
X38202706Y-3249854D02*
X38159849Y-3164140D01*
X38159849Y-3164140D02*
X38159849Y-3078425D01*
X38159849Y-3078425D02*
X38202706Y-2992711D01*
X38202706Y-2992711D02*
X38245563Y-2949854D01*
X38245563Y-2949854D02*
X38331278Y-2906997D01*
X38331278Y-2906997D02*
X38545563Y-2906997D01*
X38545563Y-2906997D02*
X38674135Y-2949854D01*
X39745563Y-3806997D02*
X39745563Y-2906997D01*
X39745563Y-2906997D02*
X40088420Y-2906997D01*
X40088420Y-2906997D02*
X40174135Y-2949854D01*
X40174135Y-2949854D02*
X40216992Y-2992711D01*
X40216992Y-2992711D02*
X40259849Y-3078425D01*
X40259849Y-3078425D02*
X40259849Y-3206997D01*
X40259849Y-3206997D02*
X40216992Y-3292711D01*
X40216992Y-3292711D02*
X40174135Y-3335568D01*
X40174135Y-3335568D02*
X40088420Y-3378425D01*
X40088420Y-3378425D02*
X39745563Y-3378425D01*
X40645563Y-3806997D02*
X40645563Y-3206997D01*
X40645563Y-2906997D02*
X40602706Y-2949854D01*
X40602706Y-2949854D02*
X40645563Y-2992711D01*
X40645563Y-2992711D02*
X40688420Y-2949854D01*
X40688420Y-2949854D02*
X40645563Y-2906997D01*
X40645563Y-2906997D02*
X40645563Y-2992711D01*
X41759848Y-3806997D02*
X41759848Y-2906997D01*
X41759848Y-2906997D02*
X42102705Y-2906997D01*
X42102705Y-2906997D02*
X42188420Y-2949854D01*
X42188420Y-2949854D02*
X42231277Y-2992711D01*
X42231277Y-2992711D02*
X42274134Y-3078425D01*
X42274134Y-3078425D02*
X42274134Y-3206997D01*
X42274134Y-3206997D02*
X42231277Y-3292711D01*
X42231277Y-3292711D02*
X42188420Y-3335568D01*
X42188420Y-3335568D02*
X42102705Y-3378425D01*
X42102705Y-3378425D02*
X41759848Y-3378425D01*
X42788420Y-3806997D02*
X42702705Y-3764140D01*
X42702705Y-3764140D02*
X42659848Y-3721282D01*
X42659848Y-3721282D02*
X42616991Y-3635568D01*
X42616991Y-3635568D02*
X42616991Y-3378425D01*
X42616991Y-3378425D02*
X42659848Y-3292711D01*
X42659848Y-3292711D02*
X42702705Y-3249854D01*
X42702705Y-3249854D02*
X42788420Y-3206997D01*
X42788420Y-3206997D02*
X42916991Y-3206997D01*
X42916991Y-3206997D02*
X43002705Y-3249854D01*
X43002705Y-3249854D02*
X43045563Y-3292711D01*
X43045563Y-3292711D02*
X43088420Y-3378425D01*
X43088420Y-3378425D02*
X43088420Y-3635568D01*
X43088420Y-3635568D02*
X43045563Y-3721282D01*
X43045563Y-3721282D02*
X43002705Y-3764140D01*
X43002705Y-3764140D02*
X42916991Y-3806997D01*
X42916991Y-3806997D02*
X42788420Y-3806997D01*
X43388420Y-3206997D02*
X43559849Y-3806997D01*
X43559849Y-3806997D02*
X43731277Y-3378425D01*
X43731277Y-3378425D02*
X43902706Y-3806997D01*
X43902706Y-3806997D02*
X44074134Y-3206997D01*
X44759848Y-3764140D02*
X44674134Y-3806997D01*
X44674134Y-3806997D02*
X44502706Y-3806997D01*
X44502706Y-3806997D02*
X44416991Y-3764140D01*
X44416991Y-3764140D02*
X44374134Y-3678425D01*
X44374134Y-3678425D02*
X44374134Y-3335568D01*
X44374134Y-3335568D02*
X44416991Y-3249854D01*
X44416991Y-3249854D02*
X44502706Y-3206997D01*
X44502706Y-3206997D02*
X44674134Y-3206997D01*
X44674134Y-3206997D02*
X44759848Y-3249854D01*
X44759848Y-3249854D02*
X44802706Y-3335568D01*
X44802706Y-3335568D02*
X44802706Y-3421282D01*
X44802706Y-3421282D02*
X44374134Y-3506997D01*
X45188420Y-3806997D02*
X45188420Y-3206997D01*
X45188420Y-3378425D02*
X45231277Y-3292711D01*
X45231277Y-3292711D02*
X45274135Y-3249854D01*
X45274135Y-3249854D02*
X45359849Y-3206997D01*
X45359849Y-3206997D02*
X45445563Y-3206997D01*
X46431277Y-3806997D02*
X46431277Y-2906997D01*
X46859848Y-3206997D02*
X46859848Y-3806997D01*
X46859848Y-3292711D02*
X46902705Y-3249854D01*
X46902705Y-3249854D02*
X46988420Y-3206997D01*
X46988420Y-3206997D02*
X47116991Y-3206997D01*
X47116991Y-3206997D02*
X47202705Y-3249854D01*
X47202705Y-3249854D02*
X47245563Y-3335568D01*
X47245563Y-3335568D02*
X47245563Y-3806997D01*
X47545563Y-3206997D02*
X47888420Y-3206997D01*
X47674134Y-2906997D02*
X47674134Y-3678425D01*
X47674134Y-3678425D02*
X47716991Y-3764140D01*
X47716991Y-3764140D02*
X47802706Y-3806997D01*
X47802706Y-3806997D02*
X47888420Y-3806997D01*
X48531277Y-3764140D02*
X48445563Y-3806997D01*
X48445563Y-3806997D02*
X48274135Y-3806997D01*
X48274135Y-3806997D02*
X48188420Y-3764140D01*
X48188420Y-3764140D02*
X48145563Y-3678425D01*
X48145563Y-3678425D02*
X48145563Y-3335568D01*
X48145563Y-3335568D02*
X48188420Y-3249854D01*
X48188420Y-3249854D02*
X48274135Y-3206997D01*
X48274135Y-3206997D02*
X48445563Y-3206997D01*
X48445563Y-3206997D02*
X48531277Y-3249854D01*
X48531277Y-3249854D02*
X48574135Y-3335568D01*
X48574135Y-3335568D02*
X48574135Y-3421282D01*
X48574135Y-3421282D02*
X48145563Y-3506997D01*
X48959849Y-3806997D02*
X48959849Y-3206997D01*
X48959849Y-3378425D02*
X49002706Y-3292711D01*
X49002706Y-3292711D02*
X49045564Y-3249854D01*
X49045564Y-3249854D02*
X49131278Y-3206997D01*
X49131278Y-3206997D02*
X49216992Y-3206997D01*
X49516992Y-3206997D02*
X49516992Y-4106997D01*
X49516992Y-3249854D02*
X49602707Y-3206997D01*
X49602707Y-3206997D02*
X49774135Y-3206997D01*
X49774135Y-3206997D02*
X49859849Y-3249854D01*
X49859849Y-3249854D02*
X49902707Y-3292711D01*
X49902707Y-3292711D02*
X49945564Y-3378425D01*
X49945564Y-3378425D02*
X49945564Y-3635568D01*
X49945564Y-3635568D02*
X49902707Y-3721282D01*
X49902707Y-3721282D02*
X49859849Y-3764140D01*
X49859849Y-3764140D02*
X49774135Y-3806997D01*
X49774135Y-3806997D02*
X49602707Y-3806997D01*
X49602707Y-3806997D02*
X49516992Y-3764140D01*
X50459850Y-3806997D02*
X50374135Y-3764140D01*
X50374135Y-3764140D02*
X50331278Y-3721282D01*
X50331278Y-3721282D02*
X50288421Y-3635568D01*
X50288421Y-3635568D02*
X50288421Y-3378425D01*
X50288421Y-3378425D02*
X50331278Y-3292711D01*
X50331278Y-3292711D02*
X50374135Y-3249854D01*
X50374135Y-3249854D02*
X50459850Y-3206997D01*
X50459850Y-3206997D02*
X50588421Y-3206997D01*
X50588421Y-3206997D02*
X50674135Y-3249854D01*
X50674135Y-3249854D02*
X50716993Y-3292711D01*
X50716993Y-3292711D02*
X50759850Y-3378425D01*
X50759850Y-3378425D02*
X50759850Y-3635568D01*
X50759850Y-3635568D02*
X50716993Y-3721282D01*
X50716993Y-3721282D02*
X50674135Y-3764140D01*
X50674135Y-3764140D02*
X50588421Y-3806997D01*
X50588421Y-3806997D02*
X50459850Y-3806997D01*
X51102707Y-3764140D02*
X51188421Y-3806997D01*
X51188421Y-3806997D02*
X51359850Y-3806997D01*
X51359850Y-3806997D02*
X51445564Y-3764140D01*
X51445564Y-3764140D02*
X51488421Y-3678425D01*
X51488421Y-3678425D02*
X51488421Y-3635568D01*
X51488421Y-3635568D02*
X51445564Y-3549854D01*
X51445564Y-3549854D02*
X51359850Y-3506997D01*
X51359850Y-3506997D02*
X51231279Y-3506997D01*
X51231279Y-3506997D02*
X51145564Y-3464140D01*
X51145564Y-3464140D02*
X51102707Y-3378425D01*
X51102707Y-3378425D02*
X51102707Y-3335568D01*
X51102707Y-3335568D02*
X51145564Y-3249854D01*
X51145564Y-3249854D02*
X51231279Y-3206997D01*
X51231279Y-3206997D02*
X51359850Y-3206997D01*
X51359850Y-3206997D02*
X51445564Y-3249854D01*
X52216992Y-3764140D02*
X52131278Y-3806997D01*
X52131278Y-3806997D02*
X51959850Y-3806997D01*
X51959850Y-3806997D02*
X51874135Y-3764140D01*
X51874135Y-3764140D02*
X51831278Y-3678425D01*
X51831278Y-3678425D02*
X51831278Y-3335568D01*
X51831278Y-3335568D02*
X51874135Y-3249854D01*
X51874135Y-3249854D02*
X51959850Y-3206997D01*
X51959850Y-3206997D02*
X52131278Y-3206997D01*
X52131278Y-3206997D02*
X52216992Y-3249854D01*
X52216992Y-3249854D02*
X52259850Y-3335568D01*
X52259850Y-3335568D02*
X52259850Y-3421282D01*
X52259850Y-3421282D02*
X51831278Y-3506997D01*
X52645564Y-3806997D02*
X52645564Y-3206997D01*
X52645564Y-3378425D02*
X52688421Y-3292711D01*
X52688421Y-3292711D02*
X52731279Y-3249854D01*
X52731279Y-3249854D02*
X52816993Y-3206997D01*
X52816993Y-3206997D02*
X52902707Y-3206997D01*
X54402707Y-3806997D02*
X54102707Y-3378425D01*
X53888421Y-3806997D02*
X53888421Y-2906997D01*
X53888421Y-2906997D02*
X54231278Y-2906997D01*
X54231278Y-2906997D02*
X54316993Y-2949854D01*
X54316993Y-2949854D02*
X54359850Y-2992711D01*
X54359850Y-2992711D02*
X54402707Y-3078425D01*
X54402707Y-3078425D02*
X54402707Y-3206997D01*
X54402707Y-3206997D02*
X54359850Y-3292711D01*
X54359850Y-3292711D02*
X54316993Y-3335568D01*
X54316993Y-3335568D02*
X54231278Y-3378425D01*
X54231278Y-3378425D02*
X53888421Y-3378425D01*
X55131278Y-3764140D02*
X55045564Y-3806997D01*
X55045564Y-3806997D02*
X54874136Y-3806997D01*
X54874136Y-3806997D02*
X54788421Y-3764140D01*
X54788421Y-3764140D02*
X54745564Y-3678425D01*
X54745564Y-3678425D02*
X54745564Y-3335568D01*
X54745564Y-3335568D02*
X54788421Y-3249854D01*
X54788421Y-3249854D02*
X54874136Y-3206997D01*
X54874136Y-3206997D02*
X55045564Y-3206997D01*
X55045564Y-3206997D02*
X55131278Y-3249854D01*
X55131278Y-3249854D02*
X55174136Y-3335568D01*
X55174136Y-3335568D02*
X55174136Y-3421282D01*
X55174136Y-3421282D02*
X54745564Y-3506997D01*
X55474136Y-3206997D02*
X55688422Y-3806997D01*
X55688422Y-3806997D02*
X55902707Y-3206997D01*
X56245564Y-3721282D02*
X56288421Y-3764140D01*
X56288421Y-3764140D02*
X56245564Y-3806997D01*
X56245564Y-3806997D02*
X56202707Y-3764140D01*
X56202707Y-3764140D02*
X56245564Y-3721282D01*
X56245564Y-3721282D02*
X56245564Y-3806997D01*
X56631278Y-3549854D02*
X57059850Y-3549854D01*
X56545564Y-3806997D02*
X56845564Y-2906997D01*
X56845564Y-2906997D02*
X57145564Y-3806997D01*
X33945563Y-9541687D02*
X33678897Y-9541687D01*
X33678897Y-9960735D02*
X33678897Y-9160735D01*
X33678897Y-9160735D02*
X34059849Y-9160735D01*
X34364611Y-9960735D02*
X34364611Y-9160735D01*
X34631277Y-9160735D02*
X35088420Y-9160735D01*
X34859848Y-9960735D02*
X34859848Y-9160735D01*
X35964611Y-9960735D02*
X35964611Y-9160735D01*
X36421754Y-9960735D02*
X36078896Y-9503592D01*
X36421754Y-9160735D02*
X35964611Y-9617878D01*
X36764611Y-9541687D02*
X37031277Y-9541687D01*
X37145563Y-9960735D02*
X36764611Y-9960735D01*
X36764611Y-9960735D02*
X36764611Y-9160735D01*
X36764611Y-9160735D02*
X37145563Y-9160735D01*
X37640802Y-9579782D02*
X37640802Y-9960735D01*
X37374135Y-9160735D02*
X37640802Y-9579782D01*
X37640802Y-9579782D02*
X37907468Y-9160735D01*
X38745563Y-9922640D02*
X38859849Y-9960735D01*
X38859849Y-9960735D02*
X39050325Y-9960735D01*
X39050325Y-9960735D02*
X39126516Y-9922640D01*
X39126516Y-9922640D02*
X39164611Y-9884544D01*
X39164611Y-9884544D02*
X39202706Y-9808354D01*
X39202706Y-9808354D02*
X39202706Y-9732163D01*
X39202706Y-9732163D02*
X39164611Y-9655973D01*
X39164611Y-9655973D02*
X39126516Y-9617878D01*
X39126516Y-9617878D02*
X39050325Y-9579782D01*
X39050325Y-9579782D02*
X38897944Y-9541687D01*
X38897944Y-9541687D02*
X38821754Y-9503592D01*
X38821754Y-9503592D02*
X38783659Y-9465497D01*
X38783659Y-9465497D02*
X38745563Y-9389306D01*
X38745563Y-9389306D02*
X38745563Y-9313116D01*
X38745563Y-9313116D02*
X38783659Y-9236925D01*
X38783659Y-9236925D02*
X38821754Y-9198830D01*
X38821754Y-9198830D02*
X38897944Y-9160735D01*
X38897944Y-9160735D02*
X39088421Y-9160735D01*
X39088421Y-9160735D02*
X39202706Y-9198830D01*
X39431278Y-9160735D02*
X39888421Y-9160735D01*
X39659849Y-9960735D02*
X39659849Y-9160735D01*
X40116992Y-9732163D02*
X40497945Y-9732163D01*
X40040802Y-9960735D02*
X40307469Y-9160735D01*
X40307469Y-9160735D02*
X40574135Y-9960735D01*
X40840802Y-9960735D02*
X40840802Y-9160735D01*
X40840802Y-9160735D02*
X41297945Y-9960735D01*
X41297945Y-9960735D02*
X41297945Y-9160735D01*
X41678897Y-9960735D02*
X41678897Y-9160735D01*
X41678897Y-9160735D02*
X41869373Y-9160735D01*
X41869373Y-9160735D02*
X41983659Y-9198830D01*
X41983659Y-9198830D02*
X42059849Y-9275020D01*
X42059849Y-9275020D02*
X42097944Y-9351211D01*
X42097944Y-9351211D02*
X42136040Y-9503592D01*
X42136040Y-9503592D02*
X42136040Y-9617878D01*
X42136040Y-9617878D02*
X42097944Y-9770259D01*
X42097944Y-9770259D02*
X42059849Y-9846449D01*
X42059849Y-9846449D02*
X41983659Y-9922640D01*
X41983659Y-9922640D02*
X41869373Y-9960735D01*
X41869373Y-9960735D02*
X41678897Y-9960735D01*
X42631278Y-9160735D02*
X42783659Y-9160735D01*
X42783659Y-9160735D02*
X42859849Y-9198830D01*
X42859849Y-9198830D02*
X42936040Y-9275020D01*
X42936040Y-9275020D02*
X42974135Y-9427401D01*
X42974135Y-9427401D02*
X42974135Y-9694068D01*
X42974135Y-9694068D02*
X42936040Y-9846449D01*
X42936040Y-9846449D02*
X42859849Y-9922640D01*
X42859849Y-9922640D02*
X42783659Y-9960735D01*
X42783659Y-9960735D02*
X42631278Y-9960735D01*
X42631278Y-9960735D02*
X42555087Y-9922640D01*
X42555087Y-9922640D02*
X42478897Y-9846449D01*
X42478897Y-9846449D02*
X42440801Y-9694068D01*
X42440801Y-9694068D02*
X42440801Y-9427401D01*
X42440801Y-9427401D02*
X42478897Y-9275020D01*
X42478897Y-9275020D02*
X42555087Y-9198830D01*
X42555087Y-9198830D02*
X42631278Y-9160735D01*
X43583658Y-9541687D02*
X43316992Y-9541687D01*
X43316992Y-9960735D02*
X43316992Y-9160735D01*
X43316992Y-9160735D02*
X43697944Y-9160735D01*
X44269372Y-9541687D02*
X44002706Y-9541687D01*
X44002706Y-9960735D02*
X44002706Y-9160735D01*
X44002706Y-9160735D02*
X44383658Y-9160735D01*
X44650324Y-9922640D02*
X44764610Y-9960735D01*
X44764610Y-9960735D02*
X44955086Y-9960735D01*
X44955086Y-9960735D02*
X45031277Y-9922640D01*
X45031277Y-9922640D02*
X45069372Y-9884544D01*
X45069372Y-9884544D02*
X45107467Y-9808354D01*
X45107467Y-9808354D02*
X45107467Y-9732163D01*
X45107467Y-9732163D02*
X45069372Y-9655973D01*
X45069372Y-9655973D02*
X45031277Y-9617878D01*
X45031277Y-9617878D02*
X44955086Y-9579782D01*
X44955086Y-9579782D02*
X44802705Y-9541687D01*
X44802705Y-9541687D02*
X44726515Y-9503592D01*
X44726515Y-9503592D02*
X44688420Y-9465497D01*
X44688420Y-9465497D02*
X44650324Y-9389306D01*
X44650324Y-9389306D02*
X44650324Y-9313116D01*
X44650324Y-9313116D02*
X44688420Y-9236925D01*
X44688420Y-9236925D02*
X44726515Y-9198830D01*
X44726515Y-9198830D02*
X44802705Y-9160735D01*
X44802705Y-9160735D02*
X44993182Y-9160735D01*
X44993182Y-9160735D02*
X45107467Y-9198830D01*
D12*
%TO.C,J1*%
X20685000Y-3070000D02*
X21685000Y-2070000D01*
X20685000Y-12200000D02*
X20685000Y-3070000D01*
X21685000Y-2070000D02*
X30055000Y-2070000D01*
X30055000Y-2070000D02*
X31055000Y-3070000D01*
X31055000Y-3070000D02*
X31055000Y-12200000D01*
X31055000Y-12200000D02*
X20685000Y-12200000D01*
D13*
%TO.C,J2*%
X6870000Y-17200000D02*
X58870000Y-17200000D01*
X6870000Y-22800000D02*
X6870000Y-17200000D01*
X58870000Y-17200000D02*
X58870000Y-22800000D01*
X58870000Y-22800000D02*
X6870000Y-22800000D01*
%TD*%
%LPC*%
D14*
%TO.C,J1*%
X25870000Y-6780000D03*
D15*
X24370000Y-11100000D03*
D16*
X27370000Y-11100000D03*
X24370000Y-14100000D03*
X27370000Y-14100000D03*
%TD*%
D17*
%TO.C,K1*%
X18500000Y-5500000D03*
%TD*%
D18*
%TO.C,J2*%
X8370000Y-21269999D03*
D19*
X8370000Y-18730001D03*
X10909999Y-21269999D03*
X10909999Y-18730001D03*
X13450000Y-21269999D03*
X13450000Y-18730001D03*
X15990000Y-21269999D03*
X15990000Y-18730001D03*
X18530000Y-21269999D03*
X18530000Y-18730001D03*
X21070000Y-21269999D03*
X21070000Y-18730001D03*
X23609999Y-21269999D03*
X23609999Y-18730001D03*
X26150000Y-21269999D03*
X26150000Y-18730001D03*
X28690000Y-21269999D03*
X28690000Y-18730001D03*
X31230000Y-21269999D03*
X31230000Y-18730001D03*
X33769999Y-21269999D03*
X33769999Y-18730001D03*
X36310000Y-21269999D03*
X36310000Y-18730001D03*
X38850000Y-21269999D03*
X38850000Y-18730001D03*
X41389999Y-21269999D03*
X41389999Y-18730001D03*
X43930000Y-21269999D03*
X43930000Y-18730001D03*
X46469999Y-21269999D03*
X46469999Y-18730001D03*
X49010000Y-21269999D03*
X49010000Y-18730001D03*
X51549999Y-21269999D03*
X51549999Y-18730001D03*
X54090000Y-21269999D03*
X54090000Y-18730001D03*
X56629999Y-21269999D03*
X56629999Y-18730001D03*
%TD*%
D17*
%TO.C,K2*%
X43250000Y-5500000D03*
%TD*%
%TO.C,M2*%
X61500000Y-20000000D03*
%TD*%
%TO.C,M1*%
X3500000Y-20000000D03*
%TD*%
%LPD*%
M02*
