%TF.GenerationSoftware,KiCad,Pcbnew,7.0.11+dfsg-1build4*%
%TF.CreationDate,2026-10-01T18:00:36+00:00*%
%TF.ProjectId,OSBAMS_Pi_Power_Interposer_RevA,4f534241-4d53-45f5-9069-5f506f776572,rev?*%
%TF.SameCoordinates,Original*%
%TF.FileFunction,Copper,L2,Bot*%
%TF.FilePolarity,Positive*%
%FSLAX46Y46*%
G04 Gerber Fmt 4.6, Leading zero omitted, Abs format (unit mm)*
G04 Created by KiCad (PCBNEW 7.0.11+dfsg-1build4) date 2026-10-01 18:00:36*
%MOMM*%
%LPD*%
G01*
G04 APERTURE LIST*
G04 Aperture macros list*
%AMRoundRect*
0 Rectangle with rounded corners*
0 $1 Rounding radius*
0 $2 $3 $4 $5 $6 $7 $8 $9 X,Y pos of 4 corners*
0 Add a 4 corners polygon primitive as box body*
4,1,4,$2,$3,$4,$5,$6,$7,$8,$9,$2,$3,0*
0 Add four circle primitives for the rounded corners*
1,1,$1+$1,$2,$3*
1,1,$1+$1,$4,$5*
1,1,$1+$1,$6,$7*
1,1,$1+$1,$8,$9*
0 Add four rect primitives between the rounded corners*
20,1,$1+$1,$2,$3,$4,$5,0*
20,1,$1+$1,$4,$5,$6,$7,0*
20,1,$1+$1,$6,$7,$8,$9,0*
20,1,$1+$1,$8,$9,$2,$3,0*%
G04 Aperture macros list end*
%TA.AperFunction,ComponentPad*%
%ADD10RoundRect,0.250001X-0.499999X-0.499999X0.499999X-0.499999X0.499999X0.499999X-0.499999X0.499999X0*%
%TD*%
%TA.AperFunction,ComponentPad*%
%ADD11C,1.500000*%
%TD*%
%TA.AperFunction,ComponentPad*%
%ADD12R,1.700000X1.700000*%
%TD*%
%TA.AperFunction,ComponentPad*%
%ADD13C,1.700000*%
%TD*%
G04 APERTURE END LIST*
D10*
%TO.P,J1,1*%
%TO.N,5V_PI*%
X24370000Y-11100000D03*
D11*
%TO.P,J1,2*%
X27370000Y-11100000D03*
%TO.P,J1,3*%
%TO.N,PI_GND*%
X24370000Y-14100000D03*
%TO.P,J1,4*%
X27370000Y-14100000D03*
%TD*%
D12*
%TO.P,J2,1*%
%TO.N,N/C*%
X8370000Y-21269999D03*
D13*
%TO.P,J2,2*%
%TO.N,5V_PI*%
X8370000Y-18730001D03*
%TO.P,J2,3*%
%TO.N,N/C*%
X10909999Y-21269999D03*
%TO.P,J2,4*%
%TO.N,5V_PI*%
X10909999Y-18730001D03*
%TO.P,J2,5*%
%TO.N,N/C*%
X13450000Y-21269999D03*
%TO.P,J2,6*%
%TO.N,PI_GND*%
X13450000Y-18730001D03*
%TO.P,J2,7*%
%TO.N,N/C*%
X15990000Y-21269999D03*
%TO.P,J2,8*%
X15990000Y-18730001D03*
%TO.P,J2,9*%
%TO.N,PI_GND*%
X18530000Y-21269999D03*
%TO.P,J2,10*%
%TO.N,N/C*%
X18530000Y-18730001D03*
%TO.P,J2,11*%
X21070000Y-21269999D03*
%TO.P,J2,12*%
X21070000Y-18730001D03*
%TO.P,J2,13*%
X23609999Y-21269999D03*
%TO.P,J2,14*%
%TO.N,PI_GND*%
X23609999Y-18730001D03*
%TO.P,J2,15*%
%TO.N,N/C*%
X26150000Y-21269999D03*
%TO.P,J2,16*%
X26150000Y-18730001D03*
%TO.P,J2,17*%
X28690000Y-21269999D03*
%TO.P,J2,18*%
X28690000Y-18730001D03*
%TO.P,J2,19*%
X31230000Y-21269999D03*
%TO.P,J2,20*%
%TO.N,PI_GND*%
X31230000Y-18730001D03*
%TO.P,J2,21*%
%TO.N,N/C*%
X33769999Y-21269999D03*
%TO.P,J2,22*%
X33769999Y-18730001D03*
%TO.P,J2,23*%
X36310000Y-21269999D03*
%TO.P,J2,24*%
X36310000Y-18730001D03*
%TO.P,J2,25*%
X38850000Y-21269999D03*
%TO.P,J2,26*%
X38850000Y-18730001D03*
%TO.P,J2,27*%
X41389999Y-21269999D03*
%TO.P,J2,28*%
X41389999Y-18730001D03*
%TO.P,J2,29*%
X43930000Y-21269999D03*
%TO.P,J2,30*%
X43930000Y-18730001D03*
%TO.P,J2,31*%
X46469999Y-21269999D03*
%TO.P,J2,32*%
X46469999Y-18730001D03*
%TO.P,J2,33*%
X49010000Y-21269999D03*
%TO.P,J2,34*%
X49010000Y-18730001D03*
%TO.P,J2,35*%
X51549999Y-21269999D03*
%TO.P,J2,36*%
X51549999Y-18730001D03*
%TO.P,J2,37*%
X54090000Y-21269999D03*
%TO.P,J2,38*%
X54090000Y-18730001D03*
%TO.P,J2,39*%
X56629999Y-21269999D03*
%TO.P,J2,40*%
X56629999Y-18730001D03*
%TD*%
%TA.AperFunction,Conductor*%
%TO.N,PI_GND*%
G36*
X64143039Y-2819685D02*
G01*
X64188794Y-2872489D01*
X64200000Y-2924000D01*
X64200000Y-23076000D01*
X64180315Y-23143039D01*
X64127511Y-23188794D01*
X64076000Y-23200000D01*
X924000Y-23200000D01*
X856961Y-23180315D01*
X811206Y-23127511D01*
X800000Y-23076000D01*
X800000Y-20000000D01*
X1894551Y-20000000D01*
X1914317Y-20251151D01*
X1973126Y-20496110D01*
X2069533Y-20728859D01*
X2201160Y-20943653D01*
X2201161Y-20943656D01*
X2201164Y-20943659D01*
X2364776Y-21135224D01*
X2513066Y-21261875D01*
X2556343Y-21298838D01*
X2556346Y-21298839D01*
X2771140Y-21430466D01*
X3003889Y-21526873D01*
X3248852Y-21585683D01*
X3437118Y-21600500D01*
X3437126Y-21600500D01*
X3562874Y-21600500D01*
X3562882Y-21600500D01*
X3751148Y-21585683D01*
X3996111Y-21526873D01*
X4228859Y-21430466D01*
X4443659Y-21298836D01*
X4635224Y-21135224D01*
X4798836Y-20943659D01*
X4930466Y-20728859D01*
X5026873Y-20496111D01*
X5085683Y-20251148D01*
X5105449Y-20000000D01*
X5085683Y-19748852D01*
X5026873Y-19503889D01*
X4966294Y-19357638D01*
X4930466Y-19271140D01*
X4798839Y-19056346D01*
X4798838Y-19056343D01*
X4706285Y-18947978D01*
X4635224Y-18864776D01*
X4477425Y-18730003D01*
X7114723Y-18730003D01*
X7133793Y-18947976D01*
X7133793Y-18947980D01*
X7190422Y-19159323D01*
X7190424Y-19159327D01*
X7190425Y-19159331D01*
X7236661Y-19258485D01*
X7282897Y-19357639D01*
X7282898Y-19357640D01*
X7408402Y-19536878D01*
X7563123Y-19691599D01*
X7709262Y-19793927D01*
X7752884Y-19848501D01*
X7760077Y-19917999D01*
X7728555Y-19980354D01*
X7668325Y-20015768D01*
X7638137Y-20019499D01*
X7488482Y-20019499D01*
X7407519Y-20032322D01*
X7394696Y-20034353D01*
X7281658Y-20091949D01*
X7281657Y-20091950D01*
X7281652Y-20091953D01*
X7191954Y-20181651D01*
X7191951Y-20181656D01*
X7191950Y-20181657D01*
X7172751Y-20219336D01*
X7134352Y-20294697D01*
X7119500Y-20388474D01*
X7119500Y-22151516D01*
X7130292Y-22219656D01*
X7134354Y-22245303D01*
X7191950Y-22358341D01*
X7191952Y-22358343D01*
X7191954Y-22358346D01*
X7281652Y-22448044D01*
X7281654Y-22448045D01*
X7281658Y-22448049D01*
X7394694Y-22505644D01*
X7394698Y-22505646D01*
X7488475Y-22520498D01*
X7488481Y-22520499D01*
X9251518Y-22520498D01*
X9345304Y-22505645D01*
X9458342Y-22448049D01*
X9548050Y-22358341D01*
X9605646Y-22245303D01*
X9605646Y-22245301D01*
X9605647Y-22245300D01*
X9620499Y-22151523D01*
X9620500Y-22151518D01*
X9620499Y-22001859D01*
X9640183Y-21934823D01*
X9692987Y-21889068D01*
X9762145Y-21879124D01*
X9825701Y-21908149D01*
X9846073Y-21930738D01*
X9895876Y-22001863D01*
X9948401Y-22076876D01*
X10103122Y-22231597D01*
X10282360Y-22357101D01*
X10480669Y-22449574D01*
X10692022Y-22506206D01*
X10874925Y-22522207D01*
X10909997Y-22525276D01*
X10909999Y-22525276D01*
X10910001Y-22525276D01*
X10938253Y-22522804D01*
X11127976Y-22506206D01*
X11339329Y-22449574D01*
X11537638Y-22357101D01*
X11716876Y-22231597D01*
X11871597Y-22076876D01*
X11997101Y-21897638D01*
X12067617Y-21746413D01*
X12113789Y-21693975D01*
X12180982Y-21674823D01*
X12247864Y-21695038D01*
X12292381Y-21746414D01*
X12362897Y-21897637D01*
X12362898Y-21897638D01*
X12488402Y-22076876D01*
X12643123Y-22231597D01*
X12822361Y-22357101D01*
X13020670Y-22449574D01*
X13232023Y-22506206D01*
X13414926Y-22522207D01*
X13449998Y-22525276D01*
X13450000Y-22525276D01*
X13450002Y-22525276D01*
X13478254Y-22522804D01*
X13667977Y-22506206D01*
X13879330Y-22449574D01*
X14077639Y-22357101D01*
X14256877Y-22231597D01*
X14411598Y-22076876D01*
X14537102Y-21897638D01*
X14607618Y-21746413D01*
X14653790Y-21693976D01*
X14720984Y-21674824D01*
X14787865Y-21695040D01*
X14832381Y-21746413D01*
X14902898Y-21897638D01*
X15028402Y-22076876D01*
X15183123Y-22231597D01*
X15362361Y-22357101D01*
X15560670Y-22449574D01*
X15772023Y-22506206D01*
X15954926Y-22522207D01*
X15989998Y-22525276D01*
X15990000Y-22525276D01*
X15990002Y-22525276D01*
X16018254Y-22522804D01*
X16207977Y-22506206D01*
X16419330Y-22449574D01*
X16617639Y-22357101D01*
X16796877Y-22231597D01*
X16951598Y-22076876D01*
X17077102Y-21897638D01*
X17169575Y-21699329D01*
X17226207Y-21487976D01*
X17245277Y-21269999D01*
X17226207Y-21052022D01*
X17169575Y-20840669D01*
X17077102Y-20642361D01*
X17077100Y-20642358D01*
X17077099Y-20642356D01*
X16951599Y-20463123D01*
X16876950Y-20388474D01*
X16796877Y-20308401D01*
X16617639Y-20182897D01*
X16466416Y-20112380D01*
X16413979Y-20066210D01*
X16394827Y-19999016D01*
X16415043Y-19932135D01*
X16466416Y-19887619D01*
X16617639Y-19817103D01*
X16796877Y-19691599D01*
X16951598Y-19536878D01*
X17077102Y-19357640D01*
X17147618Y-19206415D01*
X17193790Y-19153978D01*
X17260984Y-19134826D01*
X17327865Y-19155042D01*
X17372381Y-19206415D01*
X17442898Y-19357640D01*
X17568402Y-19536878D01*
X17723123Y-19691599D01*
X17902361Y-19817103D01*
X18100670Y-19909576D01*
X18312023Y-19966208D01*
X18494926Y-19982209D01*
X18529998Y-19985278D01*
X18530000Y-19985278D01*
X18530002Y-19985278D01*
X18558254Y-19982806D01*
X18747977Y-19966208D01*
X18959330Y-19909576D01*
X19157639Y-19817103D01*
X19336877Y-19691599D01*
X19491598Y-19536878D01*
X19617102Y-19357640D01*
X19687618Y-19206415D01*
X19733790Y-19153978D01*
X19800984Y-19134826D01*
X19867865Y-19155042D01*
X19912381Y-19206415D01*
X19982898Y-19357640D01*
X20108402Y-19536878D01*
X20263123Y-19691599D01*
X20409258Y-19793924D01*
X20442361Y-19817103D01*
X20593581Y-19887618D01*
X20646020Y-19933790D01*
X20665172Y-20000984D01*
X20644956Y-20067865D01*
X20593581Y-20112382D01*
X20442361Y-20182897D01*
X20442357Y-20182899D01*
X20263121Y-20308401D01*
X20108402Y-20463120D01*
X19982900Y-20642356D01*
X19982898Y-20642360D01*
X19890426Y-20840667D01*
X19890422Y-20840676D01*
X19833793Y-21052019D01*
X19833793Y-21052023D01*
X19814723Y-21269996D01*
X19814723Y-21270001D01*
X19833793Y-21487974D01*
X19833793Y-21487978D01*
X19890422Y-21699321D01*
X19890424Y-21699325D01*
X19890425Y-21699329D01*
X19936661Y-21798483D01*
X19982897Y-21897637D01*
X19982898Y-21897638D01*
X20108402Y-22076876D01*
X20263123Y-22231597D01*
X20442361Y-22357101D01*
X20640670Y-22449574D01*
X20852023Y-22506206D01*
X21034926Y-22522207D01*
X21069998Y-22525276D01*
X21070000Y-22525276D01*
X21070002Y-22525276D01*
X21098254Y-22522804D01*
X21287977Y-22506206D01*
X21499330Y-22449574D01*
X21697639Y-22357101D01*
X21876877Y-22231597D01*
X22031598Y-22076876D01*
X22157102Y-21897638D01*
X22227618Y-21746415D01*
X22273789Y-21693977D01*
X22340982Y-21674825D01*
X22407864Y-21695040D01*
X22452381Y-21746416D01*
X22522896Y-21897637D01*
X22522897Y-21897638D01*
X22648401Y-22076876D01*
X22803122Y-22231597D01*
X22982360Y-22357101D01*
X23180669Y-22449574D01*
X23392022Y-22506206D01*
X23574925Y-22522207D01*
X23609997Y-22525276D01*
X23609999Y-22525276D01*
X23610001Y-22525276D01*
X23638253Y-22522804D01*
X23827976Y-22506206D01*
X24039329Y-22449574D01*
X24237638Y-22357101D01*
X24416876Y-22231597D01*
X24571597Y-22076876D01*
X24697101Y-21897638D01*
X24767617Y-21746413D01*
X24813789Y-21693975D01*
X24880982Y-21674823D01*
X24947864Y-21695038D01*
X24992381Y-21746414D01*
X25062897Y-21897637D01*
X25062898Y-21897638D01*
X25188402Y-22076876D01*
X25343123Y-22231597D01*
X25522361Y-22357101D01*
X25720670Y-22449574D01*
X25932023Y-22506206D01*
X26114926Y-22522207D01*
X26149998Y-22525276D01*
X26150000Y-22525276D01*
X26150002Y-22525276D01*
X26178254Y-22522804D01*
X26367977Y-22506206D01*
X26579330Y-22449574D01*
X26777639Y-22357101D01*
X26956877Y-22231597D01*
X27111598Y-22076876D01*
X27237102Y-21897638D01*
X27307618Y-21746413D01*
X27353790Y-21693976D01*
X27420984Y-21674824D01*
X27487865Y-21695040D01*
X27532381Y-21746413D01*
X27602898Y-21897638D01*
X27728402Y-22076876D01*
X27883123Y-22231597D01*
X28062361Y-22357101D01*
X28260670Y-22449574D01*
X28472023Y-22506206D01*
X28654926Y-22522207D01*
X28689998Y-22525276D01*
X28690000Y-22525276D01*
X28690002Y-22525276D01*
X28718254Y-22522804D01*
X28907977Y-22506206D01*
X29119330Y-22449574D01*
X29317639Y-22357101D01*
X29496877Y-22231597D01*
X29651598Y-22076876D01*
X29777102Y-21897638D01*
X29847618Y-21746413D01*
X29893790Y-21693976D01*
X29960984Y-21674824D01*
X30027865Y-21695040D01*
X30072381Y-21746413D01*
X30142898Y-21897638D01*
X30268402Y-22076876D01*
X30423123Y-22231597D01*
X30602361Y-22357101D01*
X30800670Y-22449574D01*
X31012023Y-22506206D01*
X31194926Y-22522207D01*
X31229998Y-22525276D01*
X31230000Y-22525276D01*
X31230002Y-22525276D01*
X31258254Y-22522804D01*
X31447977Y-22506206D01*
X31659330Y-22449574D01*
X31857639Y-22357101D01*
X32036877Y-22231597D01*
X32191598Y-22076876D01*
X32317102Y-21897638D01*
X32387618Y-21746415D01*
X32433789Y-21693977D01*
X32500982Y-21674825D01*
X32567864Y-21695040D01*
X32612381Y-21746416D01*
X32682896Y-21897637D01*
X32682897Y-21897638D01*
X32808401Y-22076876D01*
X32963122Y-22231597D01*
X33142360Y-22357101D01*
X33340669Y-22449574D01*
X33552022Y-22506206D01*
X33734925Y-22522207D01*
X33769997Y-22525276D01*
X33769999Y-22525276D01*
X33770001Y-22525276D01*
X33798253Y-22522804D01*
X33987976Y-22506206D01*
X34199329Y-22449574D01*
X34397638Y-22357101D01*
X34576876Y-22231597D01*
X34731597Y-22076876D01*
X34857101Y-21897638D01*
X34927617Y-21746413D01*
X34973789Y-21693975D01*
X35040982Y-21674823D01*
X35107864Y-21695038D01*
X35152381Y-21746414D01*
X35222897Y-21897637D01*
X35222898Y-21897638D01*
X35348402Y-22076876D01*
X35503123Y-22231597D01*
X35682361Y-22357101D01*
X35880670Y-22449574D01*
X36092023Y-22506206D01*
X36274926Y-22522207D01*
X36309998Y-22525276D01*
X36310000Y-22525276D01*
X36310002Y-22525276D01*
X36338254Y-22522804D01*
X36527977Y-22506206D01*
X36739330Y-22449574D01*
X36937639Y-22357101D01*
X37116877Y-22231597D01*
X37271598Y-22076876D01*
X37397102Y-21897638D01*
X37467618Y-21746413D01*
X37513790Y-21693976D01*
X37580984Y-21674824D01*
X37647865Y-21695040D01*
X37692381Y-21746413D01*
X37762898Y-21897638D01*
X37888402Y-22076876D01*
X38043123Y-22231597D01*
X38222361Y-22357101D01*
X38420670Y-22449574D01*
X38632023Y-22506206D01*
X38814926Y-22522207D01*
X38849998Y-22525276D01*
X38850000Y-22525276D01*
X38850002Y-22525276D01*
X38878254Y-22522804D01*
X39067977Y-22506206D01*
X39279330Y-22449574D01*
X39477639Y-22357101D01*
X39656877Y-22231597D01*
X39811598Y-22076876D01*
X39937102Y-21897638D01*
X40007618Y-21746415D01*
X40053789Y-21693977D01*
X40120982Y-21674825D01*
X40187864Y-21695040D01*
X40232381Y-21746416D01*
X40302896Y-21897637D01*
X40302897Y-21897638D01*
X40428401Y-22076876D01*
X40583122Y-22231597D01*
X40762360Y-22357101D01*
X40960669Y-22449574D01*
X41172022Y-22506206D01*
X41354925Y-22522207D01*
X41389997Y-22525276D01*
X41389999Y-22525276D01*
X41390001Y-22525276D01*
X41418253Y-22522804D01*
X41607976Y-22506206D01*
X41819329Y-22449574D01*
X42017638Y-22357101D01*
X42196876Y-22231597D01*
X42351597Y-22076876D01*
X42477101Y-21897638D01*
X42547617Y-21746413D01*
X42593789Y-21693975D01*
X42660982Y-21674823D01*
X42727864Y-21695038D01*
X42772381Y-21746414D01*
X42842897Y-21897637D01*
X42842898Y-21897638D01*
X42968402Y-22076876D01*
X43123123Y-22231597D01*
X43302361Y-22357101D01*
X43500670Y-22449574D01*
X43712023Y-22506206D01*
X43894926Y-22522207D01*
X43929998Y-22525276D01*
X43930000Y-22525276D01*
X43930002Y-22525276D01*
X43958254Y-22522804D01*
X44147977Y-22506206D01*
X44359330Y-22449574D01*
X44557639Y-22357101D01*
X44736877Y-22231597D01*
X44891598Y-22076876D01*
X45017102Y-21897638D01*
X45087618Y-21746415D01*
X45133789Y-21693977D01*
X45200982Y-21674825D01*
X45267864Y-21695040D01*
X45312381Y-21746416D01*
X45382896Y-21897637D01*
X45382897Y-21897638D01*
X45508401Y-22076876D01*
X45663122Y-22231597D01*
X45842360Y-22357101D01*
X46040669Y-22449574D01*
X46252022Y-22506206D01*
X46434925Y-22522207D01*
X46469997Y-22525276D01*
X46469999Y-22525276D01*
X46470001Y-22525276D01*
X46498253Y-22522804D01*
X46687976Y-22506206D01*
X46899329Y-22449574D01*
X47097638Y-22357101D01*
X47276876Y-22231597D01*
X47431597Y-22076876D01*
X47557101Y-21897638D01*
X47627617Y-21746413D01*
X47673789Y-21693975D01*
X47740982Y-21674823D01*
X47807864Y-21695038D01*
X47852381Y-21746414D01*
X47922897Y-21897637D01*
X47922898Y-21897638D01*
X48048402Y-22076876D01*
X48203123Y-22231597D01*
X48382361Y-22357101D01*
X48580670Y-22449574D01*
X48792023Y-22506206D01*
X48974926Y-22522207D01*
X49009998Y-22525276D01*
X49010000Y-22525276D01*
X49010002Y-22525276D01*
X49038254Y-22522804D01*
X49227977Y-22506206D01*
X49439330Y-22449574D01*
X49637639Y-22357101D01*
X49816877Y-22231597D01*
X49971598Y-22076876D01*
X50097102Y-21897638D01*
X50167618Y-21746415D01*
X50213789Y-21693977D01*
X50280982Y-21674825D01*
X50347864Y-21695040D01*
X50392381Y-21746416D01*
X50462896Y-21897637D01*
X50462897Y-21897638D01*
X50588401Y-22076876D01*
X50743122Y-22231597D01*
X50922360Y-22357101D01*
X51120669Y-22449574D01*
X51332022Y-22506206D01*
X51514925Y-22522207D01*
X51549997Y-22525276D01*
X51549999Y-22525276D01*
X51550001Y-22525276D01*
X51578253Y-22522804D01*
X51767976Y-22506206D01*
X51979329Y-22449574D01*
X52177638Y-22357101D01*
X52356876Y-22231597D01*
X52511597Y-22076876D01*
X52637101Y-21897638D01*
X52707617Y-21746413D01*
X52753789Y-21693975D01*
X52820982Y-21674823D01*
X52887864Y-21695038D01*
X52932381Y-21746414D01*
X53002897Y-21897637D01*
X53002898Y-21897638D01*
X53128402Y-22076876D01*
X53283123Y-22231597D01*
X53462361Y-22357101D01*
X53660670Y-22449574D01*
X53872023Y-22506206D01*
X54054926Y-22522207D01*
X54089998Y-22525276D01*
X54090000Y-22525276D01*
X54090002Y-22525276D01*
X54118254Y-22522804D01*
X54307977Y-22506206D01*
X54519330Y-22449574D01*
X54717639Y-22357101D01*
X54896877Y-22231597D01*
X55051598Y-22076876D01*
X55177102Y-21897638D01*
X55247618Y-21746415D01*
X55293789Y-21693977D01*
X55360982Y-21674825D01*
X55427864Y-21695040D01*
X55472381Y-21746416D01*
X55542896Y-21897637D01*
X55542897Y-21897638D01*
X55668401Y-22076876D01*
X55823122Y-22231597D01*
X56002360Y-22357101D01*
X56200669Y-22449574D01*
X56412022Y-22506206D01*
X56594925Y-22522207D01*
X56629997Y-22525276D01*
X56629999Y-22525276D01*
X56630001Y-22525276D01*
X56658253Y-22522804D01*
X56847976Y-22506206D01*
X57059329Y-22449574D01*
X57257638Y-22357101D01*
X57436876Y-22231597D01*
X57591597Y-22076876D01*
X57717101Y-21897638D01*
X57809574Y-21699329D01*
X57866206Y-21487976D01*
X57885276Y-21269999D01*
X57866206Y-21052022D01*
X57809574Y-20840669D01*
X57717101Y-20642361D01*
X57717099Y-20642358D01*
X57717098Y-20642356D01*
X57591598Y-20463123D01*
X57516949Y-20388474D01*
X57436876Y-20308401D01*
X57257638Y-20182897D01*
X57106415Y-20112380D01*
X57053978Y-20066210D01*
X57035106Y-20000000D01*
X59894551Y-20000000D01*
X59914317Y-20251151D01*
X59973126Y-20496110D01*
X60069533Y-20728859D01*
X60201160Y-20943653D01*
X60201161Y-20943656D01*
X60201164Y-20943659D01*
X60364776Y-21135224D01*
X60513066Y-21261875D01*
X60556343Y-21298838D01*
X60556346Y-21298839D01*
X60771140Y-21430466D01*
X61003889Y-21526873D01*
X61248852Y-21585683D01*
X61437118Y-21600500D01*
X61437126Y-21600500D01*
X61562874Y-21600500D01*
X61562882Y-21600500D01*
X61751148Y-21585683D01*
X61996111Y-21526873D01*
X62228859Y-21430466D01*
X62443659Y-21298836D01*
X62635224Y-21135224D01*
X62798836Y-20943659D01*
X62930466Y-20728859D01*
X63026873Y-20496111D01*
X63085683Y-20251148D01*
X63105449Y-20000000D01*
X63085683Y-19748852D01*
X63026873Y-19503889D01*
X62966294Y-19357638D01*
X62930466Y-19271140D01*
X62798839Y-19056346D01*
X62798838Y-19056343D01*
X62706285Y-18947978D01*
X62635224Y-18864776D01*
X62477423Y-18730001D01*
X62443656Y-18701161D01*
X62443653Y-18701160D01*
X62228859Y-18569533D01*
X61996110Y-18473126D01*
X61751151Y-18414317D01*
X61562887Y-18399500D01*
X61562882Y-18399500D01*
X61437118Y-18399500D01*
X61437112Y-18399500D01*
X61248848Y-18414317D01*
X61003889Y-18473126D01*
X60771140Y-18569533D01*
X60556346Y-18701160D01*
X60556343Y-18701161D01*
X60364776Y-18864776D01*
X60201161Y-19056343D01*
X60201160Y-19056346D01*
X60069533Y-19271140D01*
X59973126Y-19503889D01*
X59914317Y-19748848D01*
X59894551Y-20000000D01*
X57035106Y-20000000D01*
X57034826Y-19999016D01*
X57055042Y-19932135D01*
X57106415Y-19887619D01*
X57257638Y-19817103D01*
X57436876Y-19691599D01*
X57591597Y-19536878D01*
X57717101Y-19357640D01*
X57809574Y-19159331D01*
X57866206Y-18947978D01*
X57885276Y-18730001D01*
X57866206Y-18512024D01*
X57809574Y-18300671D01*
X57717101Y-18102363D01*
X57717099Y-18102360D01*
X57717098Y-18102358D01*
X57591598Y-17923125D01*
X57591595Y-17923122D01*
X57436876Y-17768403D01*
X57257638Y-17642899D01*
X57257639Y-17642899D01*
X57257637Y-17642898D01*
X57158483Y-17596662D01*
X57059329Y-17550426D01*
X57059325Y-17550425D01*
X57059321Y-17550423D01*
X56847976Y-17493794D01*
X56630001Y-17474724D01*
X56629997Y-17474724D01*
X56484681Y-17487437D01*
X56412022Y-17493794D01*
X56412019Y-17493794D01*
X56200676Y-17550423D01*
X56200667Y-17550427D01*
X56002360Y-17642899D01*
X56002356Y-17642901D01*
X55823120Y-17768403D01*
X55668401Y-17923122D01*
X55542899Y-18102358D01*
X55542897Y-18102363D01*
X55472381Y-18253583D01*
X55426208Y-18306022D01*
X55359014Y-18325174D01*
X55292133Y-18304958D01*
X55247617Y-18253583D01*
X55177102Y-18102363D01*
X55177100Y-18102360D01*
X55177099Y-18102358D01*
X55051599Y-17923125D01*
X55051596Y-17923122D01*
X54896877Y-17768403D01*
X54717639Y-17642899D01*
X54717640Y-17642899D01*
X54717638Y-17642898D01*
X54618484Y-17596662D01*
X54519330Y-17550426D01*
X54519326Y-17550425D01*
X54519322Y-17550423D01*
X54307977Y-17493794D01*
X54090002Y-17474724D01*
X54089998Y-17474724D01*
X53944682Y-17487437D01*
X53872023Y-17493794D01*
X53872020Y-17493794D01*
X53660677Y-17550423D01*
X53660668Y-17550427D01*
X53462361Y-17642899D01*
X53462357Y-17642901D01*
X53283121Y-17768403D01*
X53128402Y-17923122D01*
X53002900Y-18102358D01*
X53002898Y-18102363D01*
X52932381Y-18253585D01*
X52886208Y-18306024D01*
X52819014Y-18325176D01*
X52752133Y-18304960D01*
X52707617Y-18253585D01*
X52707616Y-18253583D01*
X52637101Y-18102363D01*
X52637099Y-18102360D01*
X52637098Y-18102358D01*
X52511598Y-17923125D01*
X52511595Y-17923122D01*
X52356876Y-17768403D01*
X52177638Y-17642899D01*
X52177639Y-17642899D01*
X52177637Y-17642898D01*
X52078483Y-17596662D01*
X51979329Y-17550426D01*
X51979325Y-17550425D01*
X51979321Y-17550423D01*
X51767976Y-17493794D01*
X51550001Y-17474724D01*
X51549997Y-17474724D01*
X51404681Y-17487437D01*
X51332022Y-17493794D01*
X51332019Y-17493794D01*
X51120676Y-17550423D01*
X51120667Y-17550427D01*
X50922360Y-17642899D01*
X50922356Y-17642901D01*
X50743120Y-17768403D01*
X50588401Y-17923122D01*
X50462899Y-18102358D01*
X50462897Y-18102363D01*
X50392381Y-18253583D01*
X50346208Y-18306022D01*
X50279014Y-18325174D01*
X50212133Y-18304958D01*
X50167617Y-18253583D01*
X50097102Y-18102363D01*
X50097100Y-18102360D01*
X50097099Y-18102358D01*
X49971599Y-17923125D01*
X49971596Y-17923122D01*
X49816877Y-17768403D01*
X49637639Y-17642899D01*
X49637640Y-17642899D01*
X49637638Y-17642898D01*
X49538484Y-17596662D01*
X49439330Y-17550426D01*
X49439326Y-17550425D01*
X49439322Y-17550423D01*
X49227977Y-17493794D01*
X49010002Y-17474724D01*
X49009998Y-17474724D01*
X48864682Y-17487437D01*
X48792023Y-17493794D01*
X48792020Y-17493794D01*
X48580677Y-17550423D01*
X48580668Y-17550427D01*
X48382361Y-17642899D01*
X48382357Y-17642901D01*
X48203121Y-17768403D01*
X48048402Y-17923122D01*
X47922900Y-18102358D01*
X47922898Y-18102363D01*
X47852381Y-18253585D01*
X47806208Y-18306024D01*
X47739014Y-18325176D01*
X47672133Y-18304960D01*
X47627617Y-18253585D01*
X47627616Y-18253583D01*
X47557101Y-18102363D01*
X47557099Y-18102360D01*
X47557098Y-18102358D01*
X47431598Y-17923125D01*
X47431595Y-17923122D01*
X47276876Y-17768403D01*
X47097638Y-17642899D01*
X47097639Y-17642899D01*
X47097637Y-17642898D01*
X46998483Y-17596662D01*
X46899329Y-17550426D01*
X46899325Y-17550425D01*
X46899321Y-17550423D01*
X46687976Y-17493794D01*
X46470001Y-17474724D01*
X46469997Y-17474724D01*
X46324681Y-17487437D01*
X46252022Y-17493794D01*
X46252019Y-17493794D01*
X46040676Y-17550423D01*
X46040667Y-17550427D01*
X45842360Y-17642899D01*
X45842356Y-17642901D01*
X45663120Y-17768403D01*
X45508401Y-17923122D01*
X45382899Y-18102358D01*
X45382897Y-18102363D01*
X45312381Y-18253583D01*
X45266208Y-18306022D01*
X45199014Y-18325174D01*
X45132133Y-18304958D01*
X45087617Y-18253583D01*
X45017102Y-18102363D01*
X45017100Y-18102360D01*
X45017099Y-18102358D01*
X44891599Y-17923125D01*
X44891596Y-17923122D01*
X44736877Y-17768403D01*
X44557639Y-17642899D01*
X44557640Y-17642899D01*
X44557638Y-17642898D01*
X44458484Y-17596662D01*
X44359330Y-17550426D01*
X44359326Y-17550425D01*
X44359322Y-17550423D01*
X44147977Y-17493794D01*
X43930002Y-17474724D01*
X43929998Y-17474724D01*
X43784682Y-17487437D01*
X43712023Y-17493794D01*
X43712020Y-17493794D01*
X43500677Y-17550423D01*
X43500668Y-17550427D01*
X43302361Y-17642899D01*
X43302357Y-17642901D01*
X43123121Y-17768403D01*
X42968402Y-17923122D01*
X42842900Y-18102358D01*
X42842898Y-18102363D01*
X42772381Y-18253585D01*
X42726208Y-18306024D01*
X42659014Y-18325176D01*
X42592133Y-18304960D01*
X42547617Y-18253585D01*
X42547616Y-18253583D01*
X42477101Y-18102363D01*
X42477099Y-18102360D01*
X42477098Y-18102358D01*
X42351598Y-17923125D01*
X42351595Y-17923122D01*
X42196876Y-17768403D01*
X42017638Y-17642899D01*
X42017639Y-17642899D01*
X42017637Y-17642898D01*
X41918483Y-17596662D01*
X41819329Y-17550426D01*
X41819325Y-17550425D01*
X41819321Y-17550423D01*
X41607976Y-17493794D01*
X41390001Y-17474724D01*
X41389997Y-17474724D01*
X41244681Y-17487437D01*
X41172022Y-17493794D01*
X41172019Y-17493794D01*
X40960676Y-17550423D01*
X40960667Y-17550427D01*
X40762360Y-17642899D01*
X40762356Y-17642901D01*
X40583120Y-17768403D01*
X40428401Y-17923122D01*
X40302899Y-18102358D01*
X40302897Y-18102363D01*
X40232381Y-18253583D01*
X40186208Y-18306022D01*
X40119014Y-18325174D01*
X40052133Y-18304958D01*
X40007617Y-18253583D01*
X39937102Y-18102363D01*
X39937100Y-18102360D01*
X39937099Y-18102358D01*
X39811599Y-17923125D01*
X39811596Y-17923122D01*
X39656877Y-17768403D01*
X39477639Y-17642899D01*
X39477640Y-17642899D01*
X39477638Y-17642898D01*
X39378484Y-17596662D01*
X39279330Y-17550426D01*
X39279326Y-17550425D01*
X39279322Y-17550423D01*
X39067977Y-17493794D01*
X38850002Y-17474724D01*
X38849998Y-17474724D01*
X38704682Y-17487437D01*
X38632023Y-17493794D01*
X38632020Y-17493794D01*
X38420677Y-17550423D01*
X38420668Y-17550427D01*
X38222361Y-17642899D01*
X38222357Y-17642901D01*
X38043121Y-17768403D01*
X37888402Y-17923122D01*
X37762900Y-18102358D01*
X37762898Y-18102362D01*
X37692382Y-18253584D01*
X37646209Y-18306023D01*
X37579016Y-18325175D01*
X37512135Y-18304959D01*
X37467618Y-18253584D01*
X37453118Y-18222489D01*
X37397102Y-18102363D01*
X37397100Y-18102360D01*
X37397099Y-18102358D01*
X37271599Y-17923125D01*
X37271596Y-17923122D01*
X37116877Y-17768403D01*
X36937639Y-17642899D01*
X36937640Y-17642899D01*
X36937638Y-17642898D01*
X36838484Y-17596662D01*
X36739330Y-17550426D01*
X36739326Y-17550425D01*
X36739322Y-17550423D01*
X36527977Y-17493794D01*
X36310002Y-17474724D01*
X36309998Y-17474724D01*
X36164682Y-17487437D01*
X36092023Y-17493794D01*
X36092020Y-17493794D01*
X35880677Y-17550423D01*
X35880668Y-17550427D01*
X35682361Y-17642899D01*
X35682357Y-17642901D01*
X35503121Y-17768403D01*
X35348402Y-17923122D01*
X35222900Y-18102358D01*
X35222898Y-18102363D01*
X35152381Y-18253585D01*
X35106208Y-18306024D01*
X35039014Y-18325176D01*
X34972133Y-18304960D01*
X34927617Y-18253585D01*
X34927616Y-18253583D01*
X34857101Y-18102363D01*
X34857099Y-18102360D01*
X34857098Y-18102358D01*
X34731598Y-17923125D01*
X34731595Y-17923122D01*
X34576876Y-17768403D01*
X34397638Y-17642899D01*
X34397639Y-17642899D01*
X34397637Y-17642898D01*
X34298483Y-17596662D01*
X34199329Y-17550426D01*
X34199325Y-17550425D01*
X34199321Y-17550423D01*
X33987976Y-17493794D01*
X33770001Y-17474724D01*
X33769997Y-17474724D01*
X33624681Y-17487437D01*
X33552022Y-17493794D01*
X33552019Y-17493794D01*
X33340676Y-17550423D01*
X33340667Y-17550427D01*
X33142360Y-17642899D01*
X33142356Y-17642901D01*
X32963120Y-17768403D01*
X32808401Y-17923122D01*
X32682899Y-18102358D01*
X32682897Y-18102362D01*
X32590425Y-18300669D01*
X32590421Y-18300678D01*
X32533792Y-18512021D01*
X32533792Y-18512025D01*
X32514722Y-18729998D01*
X32514722Y-18730003D01*
X32533792Y-18947976D01*
X32533792Y-18947980D01*
X32590421Y-19159323D01*
X32590423Y-19159327D01*
X32590424Y-19159331D01*
X32636660Y-19258485D01*
X32682896Y-19357639D01*
X32682897Y-19357640D01*
X32808401Y-19536878D01*
X32963122Y-19691599D01*
X33109257Y-19793924D01*
X33142360Y-19817103D01*
X33293580Y-19887618D01*
X33346019Y-19933790D01*
X33365171Y-20000984D01*
X33344955Y-20067865D01*
X33293580Y-20112382D01*
X33142360Y-20182897D01*
X33142356Y-20182899D01*
X32963120Y-20308401D01*
X32808401Y-20463120D01*
X32682899Y-20642356D01*
X32682897Y-20642361D01*
X32612381Y-20793581D01*
X32566208Y-20846020D01*
X32499014Y-20865172D01*
X32432133Y-20844956D01*
X32387617Y-20793581D01*
X32317102Y-20642361D01*
X32317100Y-20642358D01*
X32317099Y-20642356D01*
X32191599Y-20463123D01*
X32116950Y-20388474D01*
X32036877Y-20308401D01*
X31857639Y-20182897D01*
X31857640Y-20182897D01*
X31857638Y-20182896D01*
X31758484Y-20136660D01*
X31659330Y-20090424D01*
X31659326Y-20090423D01*
X31659322Y-20090421D01*
X31447977Y-20033792D01*
X31230002Y-20014722D01*
X31229998Y-20014722D01*
X31084682Y-20027435D01*
X31012023Y-20033792D01*
X31012020Y-20033792D01*
X30800677Y-20090421D01*
X30800670Y-20090423D01*
X30800670Y-20090424D01*
X30797391Y-20091953D01*
X30602361Y-20182897D01*
X30602357Y-20182899D01*
X30423121Y-20308401D01*
X30268402Y-20463120D01*
X30142900Y-20642356D01*
X30142898Y-20642360D01*
X30072382Y-20793582D01*
X30026209Y-20846021D01*
X29959016Y-20865173D01*
X29892135Y-20844957D01*
X29847618Y-20793582D01*
X29782009Y-20652885D01*
X29777102Y-20642361D01*
X29777100Y-20642358D01*
X29777099Y-20642356D01*
X29651599Y-20463123D01*
X29576950Y-20388474D01*
X29496877Y-20308401D01*
X29317639Y-20182897D01*
X29166416Y-20112380D01*
X29113979Y-20066210D01*
X29094827Y-19999016D01*
X29115043Y-19932135D01*
X29166416Y-19887619D01*
X29317639Y-19817103D01*
X29496877Y-19691599D01*
X29651598Y-19536878D01*
X29777102Y-19357640D01*
X29869575Y-19159331D01*
X29926207Y-18947978D01*
X29945277Y-18730001D01*
X29926207Y-18512024D01*
X29869575Y-18300671D01*
X29777102Y-18102363D01*
X29777100Y-18102360D01*
X29777099Y-18102358D01*
X29651599Y-17923125D01*
X29651596Y-17923122D01*
X29496877Y-17768403D01*
X29317639Y-17642899D01*
X29317640Y-17642899D01*
X29317638Y-17642898D01*
X29218484Y-17596662D01*
X29119330Y-17550426D01*
X29119326Y-17550425D01*
X29119322Y-17550423D01*
X28907977Y-17493794D01*
X28690002Y-17474724D01*
X28689998Y-17474724D01*
X28544682Y-17487437D01*
X28472023Y-17493794D01*
X28472020Y-17493794D01*
X28260677Y-17550423D01*
X28260668Y-17550427D01*
X28062361Y-17642899D01*
X28062357Y-17642901D01*
X27883121Y-17768403D01*
X27728402Y-17923122D01*
X27602900Y-18102358D01*
X27602898Y-18102362D01*
X27532382Y-18253584D01*
X27486209Y-18306023D01*
X27419016Y-18325175D01*
X27352135Y-18304959D01*
X27307618Y-18253584D01*
X27293118Y-18222489D01*
X27237102Y-18102363D01*
X27237100Y-18102360D01*
X27237099Y-18102358D01*
X27111599Y-17923125D01*
X27111596Y-17923122D01*
X26956877Y-17768403D01*
X26777639Y-17642899D01*
X26777640Y-17642899D01*
X26777638Y-17642898D01*
X26678484Y-17596662D01*
X26579330Y-17550426D01*
X26579326Y-17550425D01*
X26579322Y-17550423D01*
X26367977Y-17493794D01*
X26150002Y-17474724D01*
X26149998Y-17474724D01*
X26004682Y-17487437D01*
X25932023Y-17493794D01*
X25932020Y-17493794D01*
X25720677Y-17550423D01*
X25720668Y-17550427D01*
X25522361Y-17642899D01*
X25522357Y-17642901D01*
X25343121Y-17768403D01*
X25188402Y-17923122D01*
X25062900Y-18102358D01*
X25062898Y-18102362D01*
X24970426Y-18300669D01*
X24970422Y-18300678D01*
X24913793Y-18512021D01*
X24913793Y-18512025D01*
X24894723Y-18729998D01*
X24894723Y-18730003D01*
X24913793Y-18947976D01*
X24913793Y-18947980D01*
X24970422Y-19159323D01*
X24970424Y-19159327D01*
X24970425Y-19159331D01*
X25016661Y-19258485D01*
X25062897Y-19357639D01*
X25062898Y-19357640D01*
X25188402Y-19536878D01*
X25343123Y-19691599D01*
X25489258Y-19793924D01*
X25522361Y-19817103D01*
X25673581Y-19887618D01*
X25726020Y-19933790D01*
X25745172Y-20000984D01*
X25724956Y-20067865D01*
X25673581Y-20112382D01*
X25522361Y-20182897D01*
X25522357Y-20182899D01*
X25343121Y-20308401D01*
X25188402Y-20463120D01*
X25062900Y-20642356D01*
X25062898Y-20642361D01*
X24992381Y-20793583D01*
X24946208Y-20846022D01*
X24879014Y-20865174D01*
X24812133Y-20844958D01*
X24767617Y-20793583D01*
X24767616Y-20793581D01*
X24697101Y-20642361D01*
X24697099Y-20642358D01*
X24697098Y-20642356D01*
X24571598Y-20463123D01*
X24496949Y-20388474D01*
X24416876Y-20308401D01*
X24237638Y-20182897D01*
X24237639Y-20182897D01*
X24237637Y-20182896D01*
X24138483Y-20136660D01*
X24039329Y-20090424D01*
X24039325Y-20090423D01*
X24039321Y-20090421D01*
X23827976Y-20033792D01*
X23610001Y-20014722D01*
X23609997Y-20014722D01*
X23464681Y-20027435D01*
X23392022Y-20033792D01*
X23392019Y-20033792D01*
X23180676Y-20090421D01*
X23180669Y-20090423D01*
X23180669Y-20090424D01*
X23177390Y-20091953D01*
X22982360Y-20182897D01*
X22982356Y-20182899D01*
X22803120Y-20308401D01*
X22648401Y-20463120D01*
X22522899Y-20642356D01*
X22522897Y-20642361D01*
X22452381Y-20793581D01*
X22406208Y-20846020D01*
X22339014Y-20865172D01*
X22272133Y-20844956D01*
X22227617Y-20793581D01*
X22157102Y-20642361D01*
X22157100Y-20642358D01*
X22157099Y-20642356D01*
X22031599Y-20463123D01*
X21956950Y-20388474D01*
X21876877Y-20308401D01*
X21697639Y-20182897D01*
X21546416Y-20112380D01*
X21493979Y-20066210D01*
X21474827Y-19999016D01*
X21495043Y-19932135D01*
X21546416Y-19887619D01*
X21697639Y-19817103D01*
X21876877Y-19691599D01*
X22031598Y-19536878D01*
X22157102Y-19357640D01*
X22249575Y-19159331D01*
X22306207Y-18947978D01*
X22325277Y-18730001D01*
X22306207Y-18512024D01*
X22249575Y-18300671D01*
X22157102Y-18102363D01*
X22157100Y-18102360D01*
X22157099Y-18102358D01*
X22031599Y-17923125D01*
X22031596Y-17923122D01*
X21876877Y-17768403D01*
X21697639Y-17642899D01*
X21697640Y-17642899D01*
X21697638Y-17642898D01*
X21598484Y-17596662D01*
X21499330Y-17550426D01*
X21499326Y-17550425D01*
X21499322Y-17550423D01*
X21287977Y-17493794D01*
X21070002Y-17474724D01*
X21069998Y-17474724D01*
X20924682Y-17487437D01*
X20852023Y-17493794D01*
X20852020Y-17493794D01*
X20640677Y-17550423D01*
X20640668Y-17550427D01*
X20442361Y-17642899D01*
X20442357Y-17642901D01*
X20263121Y-17768403D01*
X20108402Y-17923122D01*
X19982900Y-18102358D01*
X19982898Y-18102362D01*
X19912382Y-18253584D01*
X19866209Y-18306023D01*
X19799016Y-18325175D01*
X19732135Y-18304959D01*
X19687618Y-18253584D01*
X19673118Y-18222489D01*
X19617102Y-18102363D01*
X19617100Y-18102360D01*
X19617099Y-18102358D01*
X19491599Y-17923125D01*
X19491596Y-17923122D01*
X19336877Y-17768403D01*
X19157639Y-17642899D01*
X19157640Y-17642899D01*
X19157638Y-17642898D01*
X19058484Y-17596662D01*
X18959330Y-17550426D01*
X18959326Y-17550425D01*
X18959322Y-17550423D01*
X18747977Y-17493794D01*
X18530002Y-17474724D01*
X18529998Y-17474724D01*
X18384682Y-17487437D01*
X18312023Y-17493794D01*
X18312020Y-17493794D01*
X18100677Y-17550423D01*
X18100668Y-17550427D01*
X17902361Y-17642899D01*
X17902357Y-17642901D01*
X17723121Y-17768403D01*
X17568402Y-17923122D01*
X17442900Y-18102358D01*
X17442898Y-18102362D01*
X17372382Y-18253584D01*
X17326209Y-18306023D01*
X17259016Y-18325175D01*
X17192135Y-18304959D01*
X17147618Y-18253584D01*
X17133118Y-18222489D01*
X17077102Y-18102363D01*
X17077100Y-18102360D01*
X17077099Y-18102358D01*
X16951599Y-17923125D01*
X16951596Y-17923122D01*
X16796877Y-17768403D01*
X16617639Y-17642899D01*
X16617640Y-17642899D01*
X16617638Y-17642898D01*
X16518484Y-17596662D01*
X16419330Y-17550426D01*
X16419326Y-17550425D01*
X16419322Y-17550423D01*
X16207977Y-17493794D01*
X15990002Y-17474724D01*
X15989998Y-17474724D01*
X15844682Y-17487437D01*
X15772023Y-17493794D01*
X15772020Y-17493794D01*
X15560677Y-17550423D01*
X15560668Y-17550427D01*
X15362361Y-17642899D01*
X15362357Y-17642901D01*
X15183121Y-17768403D01*
X15028402Y-17923122D01*
X14902900Y-18102358D01*
X14902898Y-18102362D01*
X14810426Y-18300669D01*
X14810422Y-18300678D01*
X14753793Y-18512021D01*
X14753793Y-18512025D01*
X14734723Y-18729998D01*
X14734723Y-18730003D01*
X14753793Y-18947976D01*
X14753793Y-18947980D01*
X14810422Y-19159323D01*
X14810424Y-19159327D01*
X14810425Y-19159331D01*
X14856661Y-19258485D01*
X14902897Y-19357639D01*
X14902898Y-19357640D01*
X15028402Y-19536878D01*
X15183123Y-19691599D01*
X15329258Y-19793924D01*
X15362361Y-19817103D01*
X15513581Y-19887618D01*
X15566020Y-19933790D01*
X15585172Y-20000984D01*
X15564956Y-20067865D01*
X15513581Y-20112382D01*
X15362361Y-20182897D01*
X15362357Y-20182899D01*
X15183121Y-20308401D01*
X15028402Y-20463120D01*
X14902900Y-20642356D01*
X14902898Y-20642360D01*
X14832382Y-20793582D01*
X14786209Y-20846021D01*
X14719016Y-20865173D01*
X14652135Y-20844957D01*
X14607618Y-20793582D01*
X14542009Y-20652885D01*
X14537102Y-20642361D01*
X14537100Y-20642358D01*
X14537099Y-20642356D01*
X14411599Y-20463123D01*
X14336950Y-20388474D01*
X14256877Y-20308401D01*
X14077639Y-20182897D01*
X14077640Y-20182897D01*
X14077638Y-20182896D01*
X13978484Y-20136660D01*
X13879330Y-20090424D01*
X13879326Y-20090423D01*
X13879322Y-20090421D01*
X13667977Y-20033792D01*
X13450002Y-20014722D01*
X13449998Y-20014722D01*
X13304682Y-20027435D01*
X13232023Y-20033792D01*
X13232020Y-20033792D01*
X13020677Y-20090421D01*
X13020670Y-20090423D01*
X13020670Y-20090424D01*
X13017391Y-20091953D01*
X12822361Y-20182897D01*
X12822357Y-20182899D01*
X12643121Y-20308401D01*
X12488402Y-20463120D01*
X12362900Y-20642356D01*
X12362898Y-20642361D01*
X12292381Y-20793583D01*
X12246208Y-20846022D01*
X12179014Y-20865174D01*
X12112133Y-20844958D01*
X12067617Y-20793583D01*
X12067616Y-20793581D01*
X11997101Y-20642361D01*
X11997099Y-20642358D01*
X11997098Y-20642356D01*
X11871598Y-20463123D01*
X11796949Y-20388474D01*
X11716876Y-20308401D01*
X11537638Y-20182897D01*
X11386415Y-20112380D01*
X11333978Y-20066210D01*
X11314826Y-19999016D01*
X11335042Y-19932135D01*
X11386415Y-19887619D01*
X11537638Y-19817103D01*
X11716876Y-19691599D01*
X11871597Y-19536878D01*
X11997101Y-19357640D01*
X12089574Y-19159331D01*
X12146206Y-18947978D01*
X12165276Y-18730001D01*
X12146206Y-18512024D01*
X12089574Y-18300671D01*
X11997101Y-18102363D01*
X11997099Y-18102360D01*
X11997098Y-18102358D01*
X11871598Y-17923125D01*
X11871595Y-17923122D01*
X11716876Y-17768403D01*
X11537638Y-17642899D01*
X11537639Y-17642899D01*
X11537637Y-17642898D01*
X11438483Y-17596662D01*
X11339329Y-17550426D01*
X11339325Y-17550425D01*
X11339321Y-17550423D01*
X11127976Y-17493794D01*
X10910001Y-17474724D01*
X10909997Y-17474724D01*
X10764681Y-17487437D01*
X10692022Y-17493794D01*
X10692019Y-17493794D01*
X10480676Y-17550423D01*
X10480667Y-17550427D01*
X10282360Y-17642899D01*
X10282356Y-17642901D01*
X10103120Y-17768403D01*
X9948401Y-17923122D01*
X9822899Y-18102358D01*
X9822897Y-18102363D01*
X9752381Y-18253583D01*
X9706208Y-18306022D01*
X9639014Y-18325174D01*
X9572133Y-18304958D01*
X9527617Y-18253583D01*
X9457102Y-18102363D01*
X9457100Y-18102360D01*
X9457099Y-18102358D01*
X9331599Y-17923125D01*
X9331596Y-17923122D01*
X9176877Y-17768403D01*
X8997639Y-17642899D01*
X8997640Y-17642899D01*
X8997638Y-17642898D01*
X8898484Y-17596662D01*
X8799330Y-17550426D01*
X8799326Y-17550425D01*
X8799322Y-17550423D01*
X8587977Y-17493794D01*
X8370002Y-17474724D01*
X8369998Y-17474724D01*
X8224682Y-17487437D01*
X8152023Y-17493794D01*
X8152020Y-17493794D01*
X7940677Y-17550423D01*
X7940668Y-17550427D01*
X7742361Y-17642899D01*
X7742357Y-17642901D01*
X7563121Y-17768403D01*
X7408402Y-17923122D01*
X7282900Y-18102358D01*
X7282898Y-18102362D01*
X7190426Y-18300669D01*
X7190422Y-18300678D01*
X7133793Y-18512021D01*
X7133793Y-18512025D01*
X7114723Y-18729998D01*
X7114723Y-18730003D01*
X4477425Y-18730003D01*
X4477423Y-18730001D01*
X4443656Y-18701161D01*
X4443653Y-18701160D01*
X4228859Y-18569533D01*
X3996110Y-18473126D01*
X3751151Y-18414317D01*
X3562887Y-18399500D01*
X3562882Y-18399500D01*
X3437118Y-18399500D01*
X3437112Y-18399500D01*
X3248848Y-18414317D01*
X3003889Y-18473126D01*
X2771140Y-18569533D01*
X2556346Y-18701160D01*
X2556343Y-18701161D01*
X2364776Y-18864776D01*
X2201161Y-19056343D01*
X2201160Y-19056346D01*
X2069533Y-19271140D01*
X1973126Y-19503889D01*
X1914317Y-19748848D01*
X1894551Y-20000000D01*
X800000Y-20000000D01*
X800000Y-11665701D01*
X23219500Y-11665701D01*
X23222401Y-11702567D01*
X23222402Y-11702573D01*
X23268253Y-11860392D01*
X23268255Y-11860395D01*
X23268256Y-11860397D01*
X23278907Y-11878407D01*
X23351917Y-12001861D01*
X23351923Y-12001869D01*
X23468130Y-12118076D01*
X23468134Y-12118079D01*
X23468136Y-12118081D01*
X23609603Y-12201744D01*
X23609604Y-12201744D01*
X23609607Y-12201746D01*
X23767426Y-12247597D01*
X23767429Y-12247597D01*
X23767431Y-12247598D01*
X23804306Y-12250500D01*
X23804314Y-12250500D01*
X24935686Y-12250500D01*
X24935694Y-12250500D01*
X24972569Y-12247598D01*
X24972571Y-12247597D01*
X24972573Y-12247597D01*
X25130392Y-12201746D01*
X25130393Y-12201745D01*
X25130397Y-12201744D01*
X25271864Y-12118081D01*
X25388081Y-12001864D01*
X25471744Y-11860397D01*
X25471745Y-11860393D01*
X25471746Y-11860392D01*
X25517597Y-11702573D01*
X25517598Y-11702567D01*
X25520499Y-11665701D01*
X25520500Y-11665694D01*
X25520500Y-11100000D01*
X26214571Y-11100000D01*
X26234244Y-11312310D01*
X26292596Y-11517392D01*
X26292596Y-11517394D01*
X26387632Y-11708253D01*
X26502526Y-11860395D01*
X26516128Y-11878407D01*
X26673698Y-12022052D01*
X26854981Y-12134298D01*
X27053802Y-12211321D01*
X27263390Y-12250500D01*
X27263392Y-12250500D01*
X27476608Y-12250500D01*
X27476610Y-12250500D01*
X27686198Y-12211321D01*
X27885019Y-12134298D01*
X28066302Y-12022052D01*
X28223872Y-11878407D01*
X28352366Y-11708255D01*
X28447405Y-11517389D01*
X28505756Y-11312310D01*
X28525429Y-11100000D01*
X28505756Y-10887690D01*
X28447405Y-10682611D01*
X28447403Y-10682606D01*
X28447403Y-10682605D01*
X28352367Y-10491746D01*
X28223872Y-10321593D01*
X28066302Y-10177948D01*
X27885019Y-10065702D01*
X27885017Y-10065701D01*
X27710919Y-9998256D01*
X27686198Y-9988679D01*
X27476610Y-9949500D01*
X27263390Y-9949500D01*
X27053802Y-9988679D01*
X27053799Y-9988679D01*
X27053799Y-9988680D01*
X26854982Y-10065701D01*
X26854980Y-10065702D01*
X26673699Y-10177947D01*
X26516127Y-10321593D01*
X26387632Y-10491746D01*
X26292596Y-10682605D01*
X26292596Y-10682607D01*
X26234244Y-10887689D01*
X26214571Y-11099999D01*
X26214571Y-11100000D01*
X25520500Y-11100000D01*
X25520500Y-10534306D01*
X25517598Y-10497431D01*
X25517597Y-10497426D01*
X25471746Y-10339607D01*
X25471744Y-10339604D01*
X25471744Y-10339603D01*
X25388081Y-10198136D01*
X25388079Y-10198134D01*
X25388076Y-10198130D01*
X25271869Y-10081923D01*
X25271861Y-10081917D01*
X25130395Y-9998255D01*
X25130392Y-9998253D01*
X24972573Y-9952402D01*
X24972567Y-9952401D01*
X24935701Y-9949500D01*
X24935694Y-9949500D01*
X23804306Y-9949500D01*
X23804298Y-9949500D01*
X23767432Y-9952401D01*
X23767426Y-9952402D01*
X23609607Y-9998253D01*
X23609604Y-9998255D01*
X23468138Y-10081917D01*
X23468130Y-10081923D01*
X23351923Y-10198130D01*
X23351917Y-10198138D01*
X23268255Y-10339604D01*
X23268253Y-10339607D01*
X23222402Y-10497426D01*
X23222401Y-10497432D01*
X23219500Y-10534298D01*
X23219500Y-11665701D01*
X800000Y-11665701D01*
X800000Y-5500000D01*
X16894551Y-5500000D01*
X16914317Y-5751151D01*
X16973126Y-5996110D01*
X17069533Y-6228859D01*
X17201160Y-6443653D01*
X17201161Y-6443656D01*
X17201164Y-6443659D01*
X17364776Y-6635224D01*
X17513066Y-6761875D01*
X17556343Y-6798838D01*
X17556346Y-6798839D01*
X17771140Y-6930466D01*
X18003889Y-7026873D01*
X18248852Y-7085683D01*
X18437118Y-7100500D01*
X18437126Y-7100500D01*
X18562874Y-7100500D01*
X18562882Y-7100500D01*
X18751148Y-7085683D01*
X18996111Y-7026873D01*
X19228859Y-6930466D01*
X19260319Y-6911187D01*
X24119500Y-6911187D01*
X24136938Y-7026873D01*
X24158604Y-7170615D01*
X24158605Y-7170617D01*
X24158606Y-7170623D01*
X24235938Y-7421326D01*
X24349767Y-7657696D01*
X24349768Y-7657697D01*
X24349770Y-7657700D01*
X24349772Y-7657704D01*
X24497567Y-7874479D01*
X24676014Y-8066801D01*
X24676018Y-8066804D01*
X24676019Y-8066805D01*
X24881143Y-8230386D01*
X25108357Y-8361568D01*
X25352584Y-8457420D01*
X25608370Y-8515802D01*
X25608376Y-8515802D01*
X25608379Y-8515803D01*
X25804484Y-8530499D01*
X25804503Y-8530499D01*
X25804506Y-8530500D01*
X25804508Y-8530500D01*
X25935492Y-8530500D01*
X25935494Y-8530500D01*
X25935496Y-8530499D01*
X25935515Y-8530499D01*
X26131620Y-8515803D01*
X26131622Y-8515802D01*
X26131630Y-8515802D01*
X26387416Y-8457420D01*
X26631643Y-8361568D01*
X26858857Y-8230386D01*
X27063981Y-8066805D01*
X27242433Y-7874479D01*
X27390228Y-7657704D01*
X27504063Y-7421323D01*
X27581396Y-7170615D01*
X27620500Y-6911182D01*
X27620500Y-6648818D01*
X27581396Y-6389385D01*
X27504063Y-6138677D01*
X27435407Y-5996111D01*
X27390232Y-5902303D01*
X27390231Y-5902302D01*
X27390230Y-5902301D01*
X27390228Y-5902296D01*
X27242433Y-5685521D01*
X27232441Y-5674753D01*
X27070296Y-5500000D01*
X41644551Y-5500000D01*
X41664317Y-5751151D01*
X41723126Y-5996110D01*
X41819533Y-6228859D01*
X41951160Y-6443653D01*
X41951161Y-6443656D01*
X41951164Y-6443659D01*
X42114776Y-6635224D01*
X42263066Y-6761875D01*
X42306343Y-6798838D01*
X42306346Y-6798839D01*
X42521140Y-6930466D01*
X42753889Y-7026873D01*
X42998852Y-7085683D01*
X43187118Y-7100500D01*
X43187126Y-7100500D01*
X43312874Y-7100500D01*
X43312882Y-7100500D01*
X43501148Y-7085683D01*
X43746111Y-7026873D01*
X43978859Y-6930466D01*
X44193659Y-6798836D01*
X44385224Y-6635224D01*
X44548836Y-6443659D01*
X44680466Y-6228859D01*
X44776873Y-5996111D01*
X44835683Y-5751148D01*
X44855449Y-5500000D01*
X44835683Y-5248852D01*
X44776873Y-5003889D01*
X44680466Y-4771141D01*
X44680466Y-4771140D01*
X44548839Y-4556346D01*
X44548838Y-4556343D01*
X44511875Y-4513066D01*
X44385224Y-4364776D01*
X44258571Y-4256604D01*
X44193656Y-4201161D01*
X44193653Y-4201160D01*
X43978859Y-4069533D01*
X43746110Y-3973126D01*
X43501151Y-3914317D01*
X43312887Y-3899500D01*
X43312882Y-3899500D01*
X43187118Y-3899500D01*
X43187112Y-3899500D01*
X42998848Y-3914317D01*
X42753889Y-3973126D01*
X42521140Y-4069533D01*
X42306346Y-4201160D01*
X42306343Y-4201161D01*
X42114776Y-4364776D01*
X41951161Y-4556343D01*
X41951160Y-4556346D01*
X41819533Y-4771140D01*
X41723126Y-5003889D01*
X41664317Y-5248848D01*
X41644551Y-5500000D01*
X27070296Y-5500000D01*
X27063985Y-5493198D01*
X27024533Y-5461736D01*
X26858857Y-5329614D01*
X26631643Y-5198432D01*
X26387416Y-5102580D01*
X26387411Y-5102578D01*
X26387402Y-5102576D01*
X26169818Y-5052914D01*
X26131630Y-5044198D01*
X26131629Y-5044197D01*
X26131625Y-5044197D01*
X26131620Y-5044196D01*
X25935515Y-5029500D01*
X25935494Y-5029500D01*
X25804506Y-5029500D01*
X25804484Y-5029500D01*
X25608379Y-5044196D01*
X25608374Y-5044197D01*
X25352597Y-5102576D01*
X25352578Y-5102582D01*
X25108356Y-5198432D01*
X24881143Y-5329614D01*
X24676014Y-5493198D01*
X24497567Y-5685520D01*
X24349768Y-5902302D01*
X24349767Y-5902303D01*
X24235938Y-6138673D01*
X24158606Y-6389376D01*
X24158605Y-6389381D01*
X24158604Y-6389385D01*
X24143853Y-6487247D01*
X24119500Y-6648812D01*
X24119500Y-6911187D01*
X19260319Y-6911187D01*
X19443659Y-6798836D01*
X19635224Y-6635224D01*
X19798836Y-6443659D01*
X19930466Y-6228859D01*
X20026873Y-5996111D01*
X20085683Y-5751148D01*
X20105449Y-5500000D01*
X20085683Y-5248852D01*
X20026873Y-5003889D01*
X19930466Y-4771141D01*
X19930466Y-4771140D01*
X19798839Y-4556346D01*
X19798838Y-4556343D01*
X19761875Y-4513066D01*
X19635224Y-4364776D01*
X19508571Y-4256604D01*
X19443656Y-4201161D01*
X19443653Y-4201160D01*
X19228859Y-4069533D01*
X18996110Y-3973126D01*
X18751151Y-3914317D01*
X18562887Y-3899500D01*
X18562882Y-3899500D01*
X18437118Y-3899500D01*
X18437112Y-3899500D01*
X18248848Y-3914317D01*
X18003889Y-3973126D01*
X17771140Y-4069533D01*
X17556346Y-4201160D01*
X17556343Y-4201161D01*
X17364776Y-4364776D01*
X17201161Y-4556343D01*
X17201160Y-4556346D01*
X17069533Y-4771140D01*
X16973126Y-5003889D01*
X16914317Y-5248848D01*
X16894551Y-5500000D01*
X800000Y-5500000D01*
X800000Y-2924000D01*
X819685Y-2856961D01*
X872489Y-2811206D01*
X924000Y-2800000D01*
X64076000Y-2800000D01*
X64143039Y-2819685D01*
G37*
%TD.AperFunction*%
%TD*%
M02*
