%TF.GenerationSoftware,KiCad,Pcbnew,7.0.11+dfsg-1build4*%
%TF.CreationDate,2026-10-01T15:01:07+00:00*%
%TF.ProjectId,OSBAMS_Pi_Power_Interposer_RevA,4f534241-4d53-45f5-9069-5f506f776572,rev?*%
%TF.SameCoordinates,Original*%
%TF.FileFunction,Copper,L1,Top*%
%TF.FilePolarity,Positive*%
%FSLAX46Y46*%
G04 Gerber Fmt 4.6, Leading zero omitted, Abs format (unit mm)*
G04 Created by KiCad (PCBNEW 7.0.11+dfsg-1build4) date 2026-10-01 15:01:07*
%MOMM*%
%LPD*%
G01*
G04 APERTURE LIST*
G04 Aperture macros list*
%AMRoundRect*
0 Rectangle with rounded corners*
0 $1 Rounding radius*
0 $2 $3 $4 $5 $6 $7 $8 $9 X,Y pos of 4 corners*
0 Add a 4 corners polygon primitive as box body*
4,1,4,$2,$3,$4,$5,$6,$7,$8,$9,$2,$3,0*
0 Add four circle primitives for the rounded corners*
1,1,$1+$1,$2,$3*
1,1,$1+$1,$4,$5*
1,1,$1+$1,$6,$7*
1,1,$1+$1,$8,$9*
0 Add four rect primitives between the rounded corners*
20,1,$1+$1,$2,$3,$4,$5,0*
20,1,$1+$1,$4,$5,$6,$7,0*
20,1,$1+$1,$6,$7,$8,$9,0*
20,1,$1+$1,$8,$9,$2,$3,0*%
G04 Aperture macros list end*
%TA.AperFunction,ComponentPad*%
%ADD10R,1.700000X1.700000*%
%TD*%
%TA.AperFunction,ComponentPad*%
%ADD11C,1.700000*%
%TD*%
%TA.AperFunction,ComponentPad*%
%ADD12RoundRect,0.250001X-0.499999X-0.499999X0.499999X-0.499999X0.499999X0.499999X-0.499999X0.499999X0*%
%TD*%
%TA.AperFunction,ComponentPad*%
%ADD13C,1.500000*%
%TD*%
G04 APERTURE END LIST*
D10*
%TO.P,J2,1*%
%TO.N,N/C*%
X4000000Y-21269999D03*
D11*
%TO.P,J2,2*%
%TO.N,5V_PI*%
X4000000Y-18730001D03*
%TO.P,J2,3*%
%TO.N,N/C*%
X6540000Y-21269999D03*
%TO.P,J2,4*%
%TO.N,5V_PI*%
X6540000Y-18730001D03*
%TO.P,J2,5*%
%TO.N,N/C*%
X9080000Y-21269999D03*
%TO.P,J2,6*%
%TO.N,PI_GND*%
X9080000Y-18730001D03*
%TO.P,J2,7*%
%TO.N,N/C*%
X11620000Y-21269999D03*
%TO.P,J2,8*%
X11620000Y-18730001D03*
%TO.P,J2,9*%
%TO.N,PI_GND*%
X14160000Y-21269999D03*
%TO.P,J2,10*%
%TO.N,N/C*%
X14160000Y-18730001D03*
%TO.P,J2,11*%
X16700000Y-21269999D03*
%TO.P,J2,12*%
X16700000Y-18730001D03*
%TO.P,J2,13*%
X19240000Y-21269999D03*
%TO.P,J2,14*%
%TO.N,PI_GND*%
X19240000Y-18730001D03*
%TO.P,J2,15*%
%TO.N,N/C*%
X21780000Y-21269999D03*
%TO.P,J2,16*%
X21780000Y-18730001D03*
%TO.P,J2,17*%
X24320000Y-21269999D03*
%TO.P,J2,18*%
X24320000Y-18730001D03*
%TO.P,J2,19*%
X26860000Y-21269999D03*
%TO.P,J2,20*%
%TO.N,PI_GND*%
X26860000Y-18730001D03*
%TO.P,J2,21*%
%TO.N,N/C*%
X29400000Y-21269999D03*
%TO.P,J2,22*%
X29400000Y-18730001D03*
%TO.P,J2,23*%
X31940000Y-21269999D03*
%TO.P,J2,24*%
X31940000Y-18730001D03*
%TO.P,J2,25*%
X34480000Y-21269999D03*
%TO.P,J2,26*%
X34480000Y-18730001D03*
%TO.P,J2,27*%
X37020000Y-21269999D03*
%TO.P,J2,28*%
X37020000Y-18730001D03*
%TO.P,J2,29*%
X39560000Y-21269999D03*
%TO.P,J2,30*%
X39560000Y-18730001D03*
%TO.P,J2,31*%
X42100000Y-21269999D03*
%TO.P,J2,32*%
X42100000Y-18730001D03*
%TO.P,J2,33*%
X44640000Y-21269999D03*
%TO.P,J2,34*%
X44640000Y-18730001D03*
%TO.P,J2,35*%
X47180000Y-21269999D03*
%TO.P,J2,36*%
X47180000Y-18730001D03*
%TO.P,J2,37*%
X49720000Y-21269999D03*
%TO.P,J2,38*%
X49720000Y-18730001D03*
%TO.P,J2,39*%
X52260000Y-21269999D03*
%TO.P,J2,40*%
X52260000Y-18730001D03*
%TD*%
D12*
%TO.P,J1,1*%
%TO.N,5V_PI*%
X20000000Y-11100000D03*
D13*
%TO.P,J1,2*%
X23000000Y-11100000D03*
%TO.P,J1,3*%
%TO.N,PI_GND*%
X20000000Y-14100000D03*
%TO.P,J1,4*%
X23000000Y-14100000D03*
%TD*%
%TA.AperFunction,Conductor*%
%TO.N,5V_PI*%
G36*
X24443039Y-9019685D02*
G01*
X24488794Y-9072489D01*
X24500000Y-9124000D01*
X24500000Y-12576000D01*
X24480315Y-12643039D01*
X24427511Y-12688794D01*
X24376000Y-12700000D01*
X7500000Y-12700000D01*
X7500000Y-19676000D01*
X7480315Y-19743039D01*
X7427511Y-19788794D01*
X7376000Y-19800000D01*
X2824000Y-19800000D01*
X2756961Y-19780315D01*
X2711206Y-19727511D01*
X2700000Y-19676000D01*
X2700000Y-9124000D01*
X2719685Y-9056961D01*
X2772489Y-9011206D01*
X2824000Y-9000000D01*
X24376000Y-9000000D01*
X24443039Y-9019685D01*
G37*
%TD.AperFunction*%
%TD*%
M02*
