%TF.GenerationSoftware,KiCad,Pcbnew,7.0.11+dfsg-1build4*%
%TF.CreationDate,2026-10-01T17:54:46+00:00*%
%TF.ProjectId,OSBAMS_Pi_Power_Interposer_RevA,4f534241-4d53-45f5-9069-5f506f776572,rev?*%
%TF.SameCoordinates,Original*%
%TF.FileFunction,Legend,Bot*%
%TF.FilePolarity,Positive*%
%FSLAX46Y46*%
G04 Gerber Fmt 4.6, Leading zero omitted, Abs format (unit mm)*
G04 Created by KiCad (PCBNEW 7.0.11+dfsg-1build4) date 2026-10-01 17:54:46*
%MOMM*%
%LPD*%
G01*
G04 APERTURE LIST*
G04 Aperture macros list*
%AMRoundRect*
0 Rectangle with rounded corners*
0 $1 Rounding radius*
0 $2 $3 $4 $5 $6 $7 $8 $9 X,Y pos of 4 corners*
0 Add a 4 corners polygon primitive as box body*
4,1,4,$2,$3,$4,$5,$6,$7,$8,$9,$2,$3,0*
0 Add four circle primitives for the rounded corners*
1,1,$1+$1,$2,$3*
1,1,$1+$1,$4,$5*
1,1,$1+$1,$6,$7*
1,1,$1+$1,$8,$9*
0 Add four rect primitives between the rounded corners*
20,1,$1+$1,$2,$3,$4,$5,0*
20,1,$1+$1,$4,$5,$6,$7,0*
20,1,$1+$1,$6,$7,$8,$9,0*
20,1,$1+$1,$8,$9,$2,$3,0*%
G04 Aperture macros list end*
%ADD10C,0.180000*%
%ADD11R,1.700000X1.700000*%
%ADD12C,1.700000*%
%ADD13C,2.700000*%
%ADD14C,3.000000*%
%ADD15RoundRect,0.250001X-0.499999X-0.499999X0.499999X-0.499999X0.499999X0.499999X-0.499999X0.499999X0*%
%ADD16C,1.500000*%
G04 APERTURE END LIST*
D10*
X35136040Y-21560735D02*
X34869373Y-21179782D01*
X34678897Y-21560735D02*
X34678897Y-20760735D01*
X34678897Y-20760735D02*
X34983659Y-20760735D01*
X34983659Y-20760735D02*
X35059849Y-20798830D01*
X35059849Y-20798830D02*
X35097944Y-20836925D01*
X35097944Y-20836925D02*
X35136040Y-20913116D01*
X35136040Y-20913116D02*
X35136040Y-21027401D01*
X35136040Y-21027401D02*
X35097944Y-21103592D01*
X35097944Y-21103592D02*
X35059849Y-21141687D01*
X35059849Y-21141687D02*
X34983659Y-21179782D01*
X34983659Y-21179782D02*
X34678897Y-21179782D01*
X35783659Y-21522640D02*
X35707468Y-21560735D01*
X35707468Y-21560735D02*
X35555087Y-21560735D01*
X35555087Y-21560735D02*
X35478897Y-21522640D01*
X35478897Y-21522640D02*
X35440801Y-21446449D01*
X35440801Y-21446449D02*
X35440801Y-21141687D01*
X35440801Y-21141687D02*
X35478897Y-21065497D01*
X35478897Y-21065497D02*
X35555087Y-21027401D01*
X35555087Y-21027401D02*
X35707468Y-21027401D01*
X35707468Y-21027401D02*
X35783659Y-21065497D01*
X35783659Y-21065497D02*
X35821754Y-21141687D01*
X35821754Y-21141687D02*
X35821754Y-21217878D01*
X35821754Y-21217878D02*
X35440801Y-21294068D01*
X36088420Y-21027401D02*
X36278896Y-21560735D01*
X36278896Y-21560735D02*
X36469373Y-21027401D01*
X36774135Y-21484544D02*
X36812230Y-21522640D01*
X36812230Y-21522640D02*
X36774135Y-21560735D01*
X36774135Y-21560735D02*
X36736039Y-21522640D01*
X36736039Y-21522640D02*
X36774135Y-21484544D01*
X36774135Y-21484544D02*
X36774135Y-21560735D01*
X37116991Y-21332163D02*
X37497944Y-21332163D01*
X37040801Y-21560735D02*
X37307468Y-20760735D01*
X37307468Y-20760735D02*
X37574134Y-21560735D01*
X39021753Y-20836925D02*
X39059849Y-20798830D01*
X39059849Y-20798830D02*
X39136039Y-20760735D01*
X39136039Y-20760735D02*
X39326515Y-20760735D01*
X39326515Y-20760735D02*
X39402706Y-20798830D01*
X39402706Y-20798830D02*
X39440801Y-20836925D01*
X39440801Y-20836925D02*
X39478896Y-20913116D01*
X39478896Y-20913116D02*
X39478896Y-20989306D01*
X39478896Y-20989306D02*
X39440801Y-21103592D01*
X39440801Y-21103592D02*
X38983658Y-21560735D01*
X38983658Y-21560735D02*
X39478896Y-21560735D01*
X39936039Y-21560735D02*
X39859849Y-21522640D01*
X39859849Y-21522640D02*
X39821754Y-21484544D01*
X39821754Y-21484544D02*
X39783658Y-21408354D01*
X39783658Y-21408354D02*
X39783658Y-21179782D01*
X39783658Y-21179782D02*
X39821754Y-21103592D01*
X39821754Y-21103592D02*
X39859849Y-21065497D01*
X39859849Y-21065497D02*
X39936039Y-21027401D01*
X39936039Y-21027401D02*
X40050325Y-21027401D01*
X40050325Y-21027401D02*
X40126516Y-21065497D01*
X40126516Y-21065497D02*
X40164611Y-21103592D01*
X40164611Y-21103592D02*
X40202706Y-21179782D01*
X40202706Y-21179782D02*
X40202706Y-21408354D01*
X40202706Y-21408354D02*
X40164611Y-21484544D01*
X40164611Y-21484544D02*
X40126516Y-21522640D01*
X40126516Y-21522640D02*
X40050325Y-21560735D01*
X40050325Y-21560735D02*
X39936039Y-21560735D01*
X40469373Y-21027401D02*
X40888421Y-21027401D01*
X40888421Y-21027401D02*
X40469373Y-21560735D01*
X40469373Y-21560735D02*
X40888421Y-21560735D01*
X42259850Y-21484544D02*
X42221754Y-21522640D01*
X42221754Y-21522640D02*
X42107469Y-21560735D01*
X42107469Y-21560735D02*
X42031278Y-21560735D01*
X42031278Y-21560735D02*
X41916992Y-21522640D01*
X41916992Y-21522640D02*
X41840802Y-21446449D01*
X41840802Y-21446449D02*
X41802707Y-21370259D01*
X41802707Y-21370259D02*
X41764611Y-21217878D01*
X41764611Y-21217878D02*
X41764611Y-21103592D01*
X41764611Y-21103592D02*
X41802707Y-20951211D01*
X41802707Y-20951211D02*
X41840802Y-20875020D01*
X41840802Y-20875020D02*
X41916992Y-20798830D01*
X41916992Y-20798830D02*
X42031278Y-20760735D01*
X42031278Y-20760735D02*
X42107469Y-20760735D01*
X42107469Y-20760735D02*
X42221754Y-20798830D01*
X42221754Y-20798830D02*
X42259850Y-20836925D01*
X42945564Y-21027401D02*
X42945564Y-21560735D01*
X42602707Y-21027401D02*
X42602707Y-21446449D01*
X42602707Y-21446449D02*
X42640802Y-21522640D01*
X42640802Y-21522640D02*
X42716992Y-21560735D01*
X42716992Y-21560735D02*
X42831278Y-21560735D01*
X42831278Y-21560735D02*
X42907469Y-21522640D01*
X42907469Y-21522640D02*
X42945564Y-21484544D01*
X44964612Y-21560735D02*
X44507469Y-21560735D01*
X44736041Y-21560735D02*
X44736041Y-20760735D01*
X44736041Y-20760735D02*
X44659850Y-20875020D01*
X44659850Y-20875020D02*
X44583660Y-20951211D01*
X44583660Y-20951211D02*
X44507469Y-20989306D01*
X45307470Y-21484544D02*
X45345565Y-21522640D01*
X45345565Y-21522640D02*
X45307470Y-21560735D01*
X45307470Y-21560735D02*
X45269374Y-21522640D01*
X45269374Y-21522640D02*
X45307470Y-21484544D01*
X45307470Y-21484544D02*
X45307470Y-21560735D01*
X46031279Y-20760735D02*
X45878898Y-20760735D01*
X45878898Y-20760735D02*
X45802707Y-20798830D01*
X45802707Y-20798830D02*
X45764612Y-20836925D01*
X45764612Y-20836925D02*
X45688422Y-20951211D01*
X45688422Y-20951211D02*
X45650326Y-21103592D01*
X45650326Y-21103592D02*
X45650326Y-21408354D01*
X45650326Y-21408354D02*
X45688422Y-21484544D01*
X45688422Y-21484544D02*
X45726517Y-21522640D01*
X45726517Y-21522640D02*
X45802707Y-21560735D01*
X45802707Y-21560735D02*
X45955088Y-21560735D01*
X45955088Y-21560735D02*
X46031279Y-21522640D01*
X46031279Y-21522640D02*
X46069374Y-21484544D01*
X46069374Y-21484544D02*
X46107469Y-21408354D01*
X46107469Y-21408354D02*
X46107469Y-21217878D01*
X46107469Y-21217878D02*
X46069374Y-21141687D01*
X46069374Y-21141687D02*
X46031279Y-21103592D01*
X46031279Y-21103592D02*
X45955088Y-21065497D01*
X45955088Y-21065497D02*
X45802707Y-21065497D01*
X45802707Y-21065497D02*
X45726517Y-21103592D01*
X45726517Y-21103592D02*
X45688422Y-21141687D01*
X45688422Y-21141687D02*
X45650326Y-21217878D01*
X46450327Y-21560735D02*
X46450327Y-21027401D01*
X46450327Y-21103592D02*
X46488422Y-21065497D01*
X46488422Y-21065497D02*
X46564612Y-21027401D01*
X46564612Y-21027401D02*
X46678898Y-21027401D01*
X46678898Y-21027401D02*
X46755089Y-21065497D01*
X46755089Y-21065497D02*
X46793184Y-21141687D01*
X46793184Y-21141687D02*
X46793184Y-21560735D01*
X46793184Y-21141687D02*
X46831279Y-21065497D01*
X46831279Y-21065497D02*
X46907470Y-21027401D01*
X46907470Y-21027401D02*
X47021755Y-21027401D01*
X47021755Y-21027401D02*
X47097946Y-21065497D01*
X47097946Y-21065497D02*
X47136041Y-21141687D01*
X47136041Y-21141687D02*
X47136041Y-21560735D01*
X47516994Y-21560735D02*
X47516994Y-21027401D01*
X47516994Y-21103592D02*
X47555089Y-21065497D01*
X47555089Y-21065497D02*
X47631279Y-21027401D01*
X47631279Y-21027401D02*
X47745565Y-21027401D01*
X47745565Y-21027401D02*
X47821756Y-21065497D01*
X47821756Y-21065497D02*
X47859851Y-21141687D01*
X47859851Y-21141687D02*
X47859851Y-21560735D01*
X47859851Y-21141687D02*
X47897946Y-21065497D01*
X47897946Y-21065497D02*
X47974137Y-21027401D01*
X47974137Y-21027401D02*
X48088422Y-21027401D01*
X48088422Y-21027401D02*
X48164613Y-21065497D01*
X48164613Y-21065497D02*
X48202708Y-21141687D01*
X48202708Y-21141687D02*
X48202708Y-21560735D01*
%LPC*%
D11*
%TO.C,J2*%
X8370000Y-21269999D03*
D12*
X8370000Y-18730001D03*
X10909999Y-21269999D03*
X10909999Y-18730001D03*
X13450000Y-21269999D03*
X13450000Y-18730001D03*
X15990000Y-21269999D03*
X15990000Y-18730001D03*
X18530000Y-21269999D03*
X18530000Y-18730001D03*
X21070000Y-21269999D03*
X21070000Y-18730001D03*
X23609999Y-21269999D03*
X23609999Y-18730001D03*
X26150000Y-21269999D03*
X26150000Y-18730001D03*
X28690000Y-21269999D03*
X28690000Y-18730001D03*
X31230000Y-21269999D03*
X31230000Y-18730001D03*
X33769999Y-21269999D03*
X33769999Y-18730001D03*
X36310000Y-21269999D03*
X36310000Y-18730001D03*
X38850000Y-21269999D03*
X38850000Y-18730001D03*
X41389999Y-21269999D03*
X41389999Y-18730001D03*
X43930000Y-21269999D03*
X43930000Y-18730001D03*
X46469999Y-21269999D03*
X46469999Y-18730001D03*
X49010000Y-21269999D03*
X49010000Y-18730001D03*
X51549999Y-21269999D03*
X51549999Y-18730001D03*
X54090000Y-21269999D03*
X54090000Y-18730001D03*
X56629999Y-21269999D03*
X56629999Y-18730001D03*
%TD*%
D13*
%TO.C,M1*%
X3500000Y-20000000D03*
%TD*%
%TO.C,K1*%
X18500000Y-5500000D03*
%TD*%
%TO.C,K2*%
X43250000Y-5500000D03*
%TD*%
D14*
%TO.C,J1*%
X25870000Y-6780000D03*
D15*
X24370000Y-11100000D03*
D16*
X27370000Y-11100000D03*
X24370000Y-14100000D03*
X27370000Y-14100000D03*
%TD*%
D13*
%TO.C,M2*%
X61500000Y-20000000D03*
%TD*%
%LPD*%
M02*
