%TF.GenerationSoftware,KiCad,Pcbnew,7.0.11+dfsg-1build4*%
%TF.CreationDate,2026-10-01T18:00:30+00:00*%
%TF.ProjectId,OSBAMS_Pi_Display_Power_RevA,4f534241-4d53-45f5-9069-5f446973706c,rev?*%
%TF.SameCoordinates,Original*%
%TF.FileFunction,Copper,L1,Top*%
%TF.FilePolarity,Positive*%
%FSLAX46Y46*%
G04 Gerber Fmt 4.6, Leading zero omitted, Abs format (unit mm)*
G04 Created by KiCad (PCBNEW 7.0.11+dfsg-1build4) date 2026-10-01 18:00:30*
%MOMM*%
%LPD*%
G01*
G04 APERTURE LIST*
G04 Aperture macros list*
%AMRoundRect*
0 Rectangle with rounded corners*
0 $1 Rounding radius*
0 $2 $3 $4 $5 $6 $7 $8 $9 X,Y pos of 4 corners*
0 Add a 4 corners polygon primitive as box body*
4,1,4,$2,$3,$4,$5,$6,$7,$8,$9,$2,$3,0*
0 Add four circle primitives for the rounded corners*
1,1,$1+$1,$2,$3*
1,1,$1+$1,$4,$5*
1,1,$1+$1,$6,$7*
1,1,$1+$1,$8,$9*
0 Add four rect primitives between the rounded corners*
20,1,$1+$1,$2,$3,$4,$5,0*
20,1,$1+$1,$4,$5,$6,$7,0*
20,1,$1+$1,$6,$7,$8,$9,0*
20,1,$1+$1,$8,$9,$2,$3,0*%
G04 Aperture macros list end*
%TA.AperFunction,SMDPad,CuDef*%
%ADD10C,1.000000*%
%TD*%
%TA.AperFunction,SMDPad,CuDef*%
%ADD11RoundRect,0.218750X-0.218750X-0.256250X0.218750X-0.256250X0.218750X0.256250X-0.218750X0.256250X0*%
%TD*%
%TA.AperFunction,ComponentPad*%
%ADD12R,1.600000X1.600000*%
%TD*%
%TA.AperFunction,ComponentPad*%
%ADD13C,1.600000*%
%TD*%
%TA.AperFunction,SMDPad,CuDef*%
%ADD14RoundRect,0.200000X-0.200000X-0.275000X0.200000X-0.275000X0.200000X0.275000X-0.200000X0.275000X0*%
%TD*%
%TA.AperFunction,SMDPad,CuDef*%
%ADD15R,3.150000X1.960000*%
%TD*%
%TA.AperFunction,ComponentPad*%
%ADD16C,2.400000*%
%TD*%
%TA.AperFunction,SMDPad,CuDef*%
%ADD17RoundRect,0.225000X-0.225000X-0.250000X0.225000X-0.250000X0.225000X0.250000X-0.225000X0.250000X0*%
%TD*%
%TA.AperFunction,ComponentPad*%
%ADD18RoundRect,0.250001X0.499999X0.499999X-0.499999X0.499999X-0.499999X-0.499999X0.499999X-0.499999X0*%
%TD*%
%TA.AperFunction,ComponentPad*%
%ADD19C,1.500000*%
%TD*%
%TA.AperFunction,SMDPad,CuDef*%
%ADD20RoundRect,0.250000X-0.250000X-0.475000X0.250000X-0.475000X0.250000X0.475000X-0.250000X0.475000X0*%
%TD*%
%TA.AperFunction,SMDPad,CuDef*%
%ADD21C,1.500000*%
%TD*%
%TA.AperFunction,ComponentPad*%
%ADD22R,2.000000X2.000000*%
%TD*%
%TA.AperFunction,ComponentPad*%
%ADD23C,2.000000*%
%TD*%
%TA.AperFunction,ComponentPad*%
%ADD24RoundRect,0.250001X0.499999X-0.499999X0.499999X0.499999X-0.499999X0.499999X-0.499999X-0.499999X0*%
%TD*%
%TA.AperFunction,SMDPad,CuDef*%
%ADD25R,1.000000X1.800000*%
%TD*%
%TA.AperFunction,SMDPad,CuDef*%
%ADD26RoundRect,0.250000X-1.000000X-0.900000X1.000000X-0.900000X1.000000X0.900000X-1.000000X0.900000X0*%
%TD*%
%TA.AperFunction,ViaPad*%
%ADD27C,0.800000*%
%TD*%
%TA.AperFunction,Conductor*%
%ADD28C,2.000000*%
%TD*%
%TA.AperFunction,Conductor*%
%ADD29C,0.800000*%
%TD*%
%TA.AperFunction,Conductor*%
%ADD30C,1.500000*%
%TD*%
%TA.AperFunction,Conductor*%
%ADD31C,0.500000*%
%TD*%
G04 APERTURE END LIST*
D10*
%TO.P,FID2,*%
%TO.N,*%
X88000000Y-5000000D03*
%TD*%
D11*
%TO.P,D1,1*%
%TO.N,PI_GND*%
X90212500Y-45000000D03*
%TO.P,D1,2*%
%TO.N,PG_LED_A*%
X91787500Y-45000000D03*
%TD*%
D12*
%TO.P,C2,1*%
%TO.N,+12V_F*%
X28750000Y-52000000D03*
D13*
%TO.P,C2,2*%
%TO.N,12V_GND*%
X32250000Y-52000000D03*
%TD*%
D14*
%TO.P,R1,1*%
%TO.N,5V_PI*%
X90175000Y-41500000D03*
%TO.P,R1,2*%
%TO.N,PG_LED_A*%
X91825000Y-41500000D03*
%TD*%
D15*
%TO.P,F2,1*%
%TO.N,5V_ISO_RAW*%
X80700000Y-43545000D03*
%TO.P,F2,2*%
%TO.N,5V_PI*%
X80700000Y-48455000D03*
%TD*%
D14*
%TO.P,R3,1*%
%TO.N,TRIM*%
X75675000Y-20840000D03*
%TO.P,R3,2*%
%TO.N,PI_GND*%
X77325000Y-20840000D03*
%TD*%
D16*
%TO.P,U1,1*%
%TO.N,+12V_F*%
X27140000Y-38619999D03*
%TO.P,U1,2*%
%TO.N,12V_GND*%
X27140000Y-33539999D03*
%TO.P,U1,3*%
%TO.N,N/C*%
X27140000Y-23380000D03*
%TO.P,U1,4*%
%TO.N,5V_ISO_RAW*%
X72860000Y-41160000D03*
%TO.P,U1,5*%
%TO.N,PI_GND*%
X72860000Y-31000000D03*
%TO.P,U1,6*%
%TO.N,TRIM*%
X72860000Y-20840000D03*
%TD*%
D10*
%TO.P,FID3,*%
%TO.N,*%
X95000000Y-40000000D03*
%TD*%
D17*
%TO.P,C6,1*%
%TO.N,5V_PI*%
X85725000Y-55000000D03*
%TO.P,C6,2*%
%TO.N,PI_GND*%
X87275000Y-55000000D03*
%TD*%
D18*
%TO.P,J_OUT,1*%
%TO.N,5V_PI*%
X88000000Y-60900000D03*
D19*
%TO.P,J_OUT,2*%
X85000000Y-60900000D03*
%TO.P,J_OUT,3*%
%TO.N,PI_GND*%
X88000000Y-57900000D03*
%TO.P,J_OUT,4*%
X85000000Y-57900000D03*
%TD*%
D17*
%TO.P,C1,1*%
%TO.N,+12V_F*%
X30225000Y-58000000D03*
%TO.P,C1,2*%
%TO.N,12V_GND*%
X31775000Y-58000000D03*
%TD*%
D20*
%TO.P,C5,1*%
%TO.N,5V_PI*%
X85550000Y-52000000D03*
%TO.P,C5,2*%
%TO.N,PI_GND*%
X87450000Y-52000000D03*
%TD*%
D21*
%TO.P,TP3,1*%
%TO.N,5V_ISO_RAW*%
X80000000Y-38000000D03*
%TD*%
%TO.P,TP2,1*%
%TO.N,12V_GND*%
X18000000Y-53000000D03*
%TD*%
D22*
%TO.P,C4,1*%
%TO.N,5V_PI*%
X76000000Y-53000000D03*
D23*
%TO.P,C4,2*%
%TO.N,PI_GND*%
X76000000Y-58000000D03*
%TD*%
D10*
%TO.P,FID1,*%
%TO.N,*%
X12000000Y-66000000D03*
%TD*%
D24*
%TO.P,J_IN,1*%
%TO.N,+12V_IN*%
X9100000Y-48000000D03*
D19*
%TO.P,J_IN,2*%
%TO.N,12V_GND*%
X12100000Y-48000000D03*
%TD*%
D14*
%TO.P,R2,1*%
%TO.N,TRIM*%
X75675000Y-25500000D03*
%TO.P,R2,2*%
%TO.N,5V_ISO_RAW*%
X77325000Y-25500000D03*
%TD*%
D25*
%TO.P,F1,1*%
%TO.N,+12V_IN*%
X18250000Y-44500000D03*
%TO.P,F1,2*%
%TO.N,+12V_F*%
X20750000Y-44500000D03*
%TD*%
D21*
%TO.P,TP5,1*%
%TO.N,PI_GND*%
X94000000Y-50000000D03*
%TD*%
%TO.P,TP1,1*%
%TO.N,+12V_IN*%
X10000000Y-38500000D03*
%TD*%
%TO.P,TP4,1*%
%TO.N,5V_PI*%
X87500000Y-47800000D03*
%TD*%
D26*
%TO.P,TVS1,1*%
%TO.N,+12V_F*%
X31350000Y-44000000D03*
%TO.P,TVS1,2*%
%TO.N,12V_GND*%
X35650000Y-44000000D03*
%TD*%
D27*
%TO.N,12V_GND*%
X31775000Y-60300000D03*
X38250000Y-44000000D03*
X19500000Y-53000000D03*
%TO.N,PI_GND*%
X95500000Y-50000000D03*
X78725000Y-20840000D03*
X89050000Y-52000000D03*
X88512500Y-45000000D03*
X88875000Y-55000000D03*
%TD*%
D28*
%TO.N,+12V_IN*%
X9100000Y-44500000D02*
X18250000Y-44500000D01*
D29*
X10000000Y-38500000D02*
X10000000Y-44500000D01*
D28*
X9100000Y-48000000D02*
X9100000Y-44500000D01*
D30*
%TO.N,12V_GND*%
X35650000Y-44000000D02*
X38250000Y-44000000D01*
D31*
X31775000Y-58000000D02*
X31775000Y-60300000D01*
D29*
X18000000Y-53000000D02*
X19500000Y-53000000D01*
D31*
%TO.N,5V_ISO_RAW*%
X77325000Y-25500000D02*
X77325000Y-37000000D01*
%TO.N,5V_PI*%
X85000000Y-47800000D02*
X87500000Y-47800000D01*
D29*
X85550000Y-52000000D02*
X83000000Y-52000000D01*
D31*
X85000000Y-41500000D02*
X90175000Y-41500000D01*
X83000000Y-47800000D02*
X85000000Y-47800000D01*
X85000000Y-47800000D02*
X85000000Y-41500000D01*
D29*
X85725000Y-55000000D02*
X83000000Y-55000000D01*
D28*
X76000000Y-53000000D02*
X79000000Y-53000000D01*
D29*
%TO.N,PI_GND*%
X94000000Y-50000000D02*
X95500000Y-50000000D01*
D31*
X87450000Y-52000000D02*
X89050000Y-52000000D01*
X87275000Y-55000000D02*
X88875000Y-55000000D01*
X77325000Y-20840000D02*
X78725000Y-20840000D01*
X90212500Y-45000000D02*
X88512500Y-45000000D01*
%TO.N,PG_LED_A*%
X91825000Y-41500000D02*
X91787500Y-45000000D01*
%TO.N,TRIM*%
X75675000Y-20840000D02*
X75675000Y-25500000D01*
X72860000Y-20840000D02*
X75675000Y-20840000D01*
X75675000Y-25500000D02*
X75675000Y-25500000D01*
%TD*%
%TA.AperFunction,Conductor*%
%TO.N,5V_ISO_RAW*%
G36*
X82943039Y-36019685D02*
G01*
X82988794Y-36072489D01*
X83000000Y-36124000D01*
X83000000Y-44476000D01*
X82980315Y-44543039D01*
X82927511Y-44588794D01*
X82876000Y-44600000D01*
X70124000Y-44600000D01*
X70056961Y-44580315D01*
X70011206Y-44527511D01*
X70000000Y-44476000D01*
X70000000Y-36124000D01*
X70019685Y-36056961D01*
X70072489Y-36011206D01*
X70124000Y-36000000D01*
X82876000Y-36000000D01*
X82943039Y-36019685D01*
G37*
%TD.AperFunction*%
%TD*%
%TA.AperFunction,Conductor*%
%TO.N,5V_PI*%
G36*
X82943039Y-47419685D02*
G01*
X82988794Y-47472489D01*
X83000000Y-47524000D01*
X83000000Y-59400000D01*
X89576000Y-59400000D01*
X89643039Y-59419685D01*
X89688794Y-59472489D01*
X89700000Y-59524000D01*
X89700000Y-62776000D01*
X89680315Y-62843039D01*
X89627511Y-62888794D01*
X89576000Y-62900000D01*
X78324000Y-62900000D01*
X78256961Y-62880315D01*
X78211206Y-62827511D01*
X78200000Y-62776000D01*
X78200000Y-47524000D01*
X78219685Y-47456961D01*
X78272489Y-47411206D01*
X78324000Y-47400000D01*
X82876000Y-47400000D01*
X82943039Y-47419685D01*
G37*
%TD.AperFunction*%
%TD*%
%TA.AperFunction,Conductor*%
%TO.N,+12V_F*%
G36*
X38443039Y-35319685D02*
G01*
X38488794Y-35372489D01*
X38500000Y-35424000D01*
X38500000Y-42626209D01*
X38480315Y-42693248D01*
X38427511Y-42739003D01*
X38368116Y-42749160D01*
X38368116Y-42749500D01*
X38366128Y-42749500D01*
X38364894Y-42749711D01*
X38362548Y-42749500D01*
X38362547Y-42749500D01*
X37384798Y-42749500D01*
X37317759Y-42729815D01*
X37279259Y-42690597D01*
X37242712Y-42631344D01*
X37118656Y-42507288D01*
X36969334Y-42415186D01*
X36802797Y-42360001D01*
X36802795Y-42360000D01*
X36700010Y-42349500D01*
X34599998Y-42349500D01*
X34599981Y-42349501D01*
X34497203Y-42360000D01*
X34497200Y-42360001D01*
X34330668Y-42415185D01*
X34330663Y-42415187D01*
X34181342Y-42507289D01*
X34057289Y-42631342D01*
X33965187Y-42780663D01*
X33965185Y-42780668D01*
X33937349Y-42864670D01*
X33910001Y-42947203D01*
X33910001Y-42947204D01*
X33910000Y-42947204D01*
X33899500Y-43049983D01*
X33899500Y-44950001D01*
X33899501Y-44950018D01*
X33910000Y-45052796D01*
X33910001Y-45052799D01*
X33965185Y-45219331D01*
X33965186Y-45219334D01*
X34057288Y-45368656D01*
X34181344Y-45492712D01*
X34330666Y-45584814D01*
X34497203Y-45639999D01*
X34599991Y-45650500D01*
X36700008Y-45650499D01*
X36802797Y-45639999D01*
X36969334Y-45584814D01*
X37118656Y-45492712D01*
X37242712Y-45368656D01*
X37279259Y-45309402D01*
X37331207Y-45262679D01*
X37384798Y-45250500D01*
X38306148Y-45250500D01*
X38306155Y-45250500D01*
X38364886Y-45245214D01*
X38433419Y-45258810D01*
X38483723Y-45307301D01*
X38500000Y-45368715D01*
X38500000Y-62376000D01*
X38480315Y-62443039D01*
X38427511Y-62488794D01*
X38376000Y-62500000D01*
X20124000Y-62500000D01*
X20056961Y-62480315D01*
X20011206Y-62427511D01*
X20000000Y-62376000D01*
X20000000Y-58298337D01*
X30824500Y-58298337D01*
X30824501Y-58298355D01*
X30834650Y-58397707D01*
X30834651Y-58397710D01*
X30887996Y-58558694D01*
X30888001Y-58558705D01*
X30977029Y-58703040D01*
X30977032Y-58703044D01*
X30988181Y-58714193D01*
X31021666Y-58775516D01*
X31024500Y-58801874D01*
X31024500Y-59765677D01*
X31007887Y-59827677D01*
X30947821Y-59931714D01*
X30889327Y-60111740D01*
X30889326Y-60111744D01*
X30869540Y-60300000D01*
X30889326Y-60488256D01*
X30889327Y-60488259D01*
X30947818Y-60668277D01*
X30947821Y-60668284D01*
X31042467Y-60832216D01*
X31169129Y-60972888D01*
X31322265Y-61084148D01*
X31322270Y-61084151D01*
X31495192Y-61161142D01*
X31495197Y-61161144D01*
X31680354Y-61200500D01*
X31680355Y-61200500D01*
X31869644Y-61200500D01*
X31869646Y-61200500D01*
X32054803Y-61161144D01*
X32227730Y-61084151D01*
X32380871Y-60972888D01*
X32507533Y-60832216D01*
X32602179Y-60668284D01*
X32660674Y-60488256D01*
X32680460Y-60300000D01*
X32660674Y-60111744D01*
X32602179Y-59931716D01*
X32542113Y-59827677D01*
X32525500Y-59765677D01*
X32525500Y-58801874D01*
X32545185Y-58734835D01*
X32561819Y-58714193D01*
X32572968Y-58703044D01*
X32662003Y-58558697D01*
X32715349Y-58397708D01*
X32725500Y-58298345D01*
X32725499Y-57701656D01*
X32715349Y-57602292D01*
X32662003Y-57441303D01*
X32661999Y-57441297D01*
X32661998Y-57441294D01*
X32572970Y-57296959D01*
X32572967Y-57296955D01*
X32453044Y-57177032D01*
X32453040Y-57177029D01*
X32308705Y-57088001D01*
X32308699Y-57087998D01*
X32308697Y-57087997D01*
X32308694Y-57087996D01*
X32147709Y-57034651D01*
X32048346Y-57024500D01*
X31501662Y-57024500D01*
X31501644Y-57024501D01*
X31402292Y-57034650D01*
X31402289Y-57034651D01*
X31241305Y-57087996D01*
X31241294Y-57088001D01*
X31096959Y-57177029D01*
X31096955Y-57177032D01*
X30977032Y-57296955D01*
X30977029Y-57296959D01*
X30888001Y-57441294D01*
X30887996Y-57441305D01*
X30834651Y-57602290D01*
X30824500Y-57701647D01*
X30824500Y-58298337D01*
X20000000Y-58298337D01*
X20000000Y-53816748D01*
X20019685Y-53749709D01*
X20041020Y-53724604D01*
X20062662Y-53705117D01*
X20072740Y-53696958D01*
X20105871Y-53672888D01*
X20133284Y-53642441D01*
X20142441Y-53633284D01*
X20172888Y-53605871D01*
X20196958Y-53572739D01*
X20205125Y-53562654D01*
X20232533Y-53532216D01*
X20253020Y-53496729D01*
X20260068Y-53485876D01*
X20284151Y-53452730D01*
X20300808Y-53415315D01*
X20306690Y-53403768D01*
X20327179Y-53368284D01*
X20339836Y-53329324D01*
X20344480Y-53317227D01*
X20361144Y-53279803D01*
X20369658Y-53239741D01*
X20373019Y-53227200D01*
X20373169Y-53226741D01*
X20385674Y-53188256D01*
X20389956Y-53147503D01*
X20391980Y-53134726D01*
X20400500Y-53094646D01*
X20400500Y-53053692D01*
X20401179Y-53040731D01*
X20405460Y-53000000D01*
X20401179Y-52959266D01*
X20400500Y-52946306D01*
X20400500Y-52905354D01*
X20391986Y-52865299D01*
X20389955Y-52852480D01*
X20388553Y-52839139D01*
X20385674Y-52811744D01*
X20373017Y-52772792D01*
X20369660Y-52760267D01*
X20361144Y-52720197D01*
X20344483Y-52682778D01*
X20339836Y-52670672D01*
X20327179Y-52631716D01*
X20306698Y-52596242D01*
X20300806Y-52584678D01*
X20284149Y-52547266D01*
X20260083Y-52514142D01*
X20253015Y-52503258D01*
X20232535Y-52467788D01*
X20232533Y-52467784D01*
X20232531Y-52467781D01*
X20232528Y-52467777D01*
X20205128Y-52437348D01*
X20196957Y-52427258D01*
X20172888Y-52394129D01*
X20172887Y-52394128D01*
X20142447Y-52366719D01*
X20133270Y-52357542D01*
X20105870Y-52327111D01*
X20105868Y-52327110D01*
X20072746Y-52303045D01*
X20062658Y-52294876D01*
X20041027Y-52275399D01*
X20004379Y-52215912D01*
X20000000Y-52183250D01*
X20000000Y-52000001D01*
X30944532Y-52000001D01*
X30964364Y-52226686D01*
X30964366Y-52226697D01*
X31023258Y-52446488D01*
X31023261Y-52446497D01*
X31119431Y-52652732D01*
X31119432Y-52652734D01*
X31249954Y-52839141D01*
X31410858Y-53000045D01*
X31410861Y-53000047D01*
X31597266Y-53130568D01*
X31803504Y-53226739D01*
X32023308Y-53285635D01*
X32185230Y-53299801D01*
X32249998Y-53305468D01*
X32250000Y-53305468D01*
X32250002Y-53305468D01*
X32306673Y-53300509D01*
X32476692Y-53285635D01*
X32696496Y-53226739D01*
X32902734Y-53130568D01*
X33089139Y-53000047D01*
X33250047Y-52839139D01*
X33380568Y-52652734D01*
X33476739Y-52446496D01*
X33535635Y-52226692D01*
X33555468Y-52000000D01*
X33535635Y-51773308D01*
X33476739Y-51553504D01*
X33380568Y-51347266D01*
X33250047Y-51160861D01*
X33250045Y-51160858D01*
X33089141Y-50999954D01*
X32902734Y-50869432D01*
X32902732Y-50869431D01*
X32696497Y-50773261D01*
X32696488Y-50773258D01*
X32476697Y-50714366D01*
X32476693Y-50714365D01*
X32476692Y-50714365D01*
X32476691Y-50714364D01*
X32476686Y-50714364D01*
X32250002Y-50694532D01*
X32249998Y-50694532D01*
X32023313Y-50714364D01*
X32023302Y-50714366D01*
X31803511Y-50773258D01*
X31803502Y-50773261D01*
X31597267Y-50869431D01*
X31597265Y-50869432D01*
X31410858Y-50999954D01*
X31249954Y-51160858D01*
X31119432Y-51347265D01*
X31119431Y-51347267D01*
X31023261Y-51553502D01*
X31023258Y-51553511D01*
X30964366Y-51773302D01*
X30964364Y-51773313D01*
X30944532Y-51999998D01*
X30944532Y-52000001D01*
X20000000Y-52000001D01*
X20000000Y-35424000D01*
X20019685Y-35356961D01*
X20072489Y-35311206D01*
X20124000Y-35300000D01*
X38376000Y-35300000D01*
X38443039Y-35319685D01*
G37*
%TD.AperFunction*%
%TD*%
M02*
