%TF.GenerationSoftware,KiCad,Pcbnew,7.0.11+dfsg-1build4*%
%TF.CreationDate,2026-10-01T17:36:39+00:00*%
%TF.ProjectId,OSBAMS_Pi_Display_Power_RevA,4f534241-4d53-45f5-9069-5f446973706c,rev?*%
%TF.SameCoordinates,Original*%
%TF.FileFunction,Legend,Bot*%
%TF.FilePolarity,Positive*%
%FSLAX46Y46*%
G04 Gerber Fmt 4.6, Leading zero omitted, Abs format (unit mm)*
G04 Created by KiCad (PCBNEW 7.0.11+dfsg-1build4) date 2026-10-01 17:36:39*
%MOMM*%
%LPD*%
G01*
G04 APERTURE LIST*
G04 Aperture macros list*
%AMRoundRect*
0 Rectangle with rounded corners*
0 $1 Rounding radius*
0 $2 $3 $4 $5 $6 $7 $8 $9 X,Y pos of 4 corners*
0 Add a 4 corners polygon primitive as box body*
4,1,4,$2,$3,$4,$5,$6,$7,$8,$9,$2,$3,0*
0 Add four circle primitives for the rounded corners*
1,1,$1+$1,$2,$3*
1,1,$1+$1,$4,$5*
1,1,$1+$1,$6,$7*
1,1,$1+$1,$8,$9*
0 Add four rect primitives between the rounded corners*
20,1,$1+$1,$2,$3,$4,$5,0*
20,1,$1+$1,$4,$5,$6,$7,0*
20,1,$1+$1,$6,$7,$8,$9,0*
20,1,$1+$1,$8,$9,$2,$3,0*%
G04 Aperture macros list end*
%ADD10C,0.200000*%
%ADD11C,3.200000*%
%ADD12C,3.000000*%
%ADD13RoundRect,0.250001X0.499999X-0.499999X0.499999X0.499999X-0.499999X0.499999X-0.499999X-0.499999X0*%
%ADD14C,1.500000*%
%ADD15C,2.400000*%
%ADD16R,2.000000X2.000000*%
%ADD17C,2.000000*%
%ADD18RoundRect,0.250001X0.499999X0.499999X-0.499999X0.499999X-0.499999X-0.499999X0.499999X-0.499999X0*%
%ADD19R,1.600000X1.600000*%
%ADD20C,1.600000*%
G04 APERTURE END LIST*
D10*
X36264286Y-67505957D02*
X36435714Y-67505957D01*
X36435714Y-67505957D02*
X36521429Y-67548814D01*
X36521429Y-67548814D02*
X36607143Y-67634528D01*
X36607143Y-67634528D02*
X36650000Y-67805957D01*
X36650000Y-67805957D02*
X36650000Y-68105957D01*
X36650000Y-68105957D02*
X36607143Y-68277385D01*
X36607143Y-68277385D02*
X36521429Y-68363100D01*
X36521429Y-68363100D02*
X36435714Y-68405957D01*
X36435714Y-68405957D02*
X36264286Y-68405957D01*
X36264286Y-68405957D02*
X36178572Y-68363100D01*
X36178572Y-68363100D02*
X36092857Y-68277385D01*
X36092857Y-68277385D02*
X36050000Y-68105957D01*
X36050000Y-68105957D02*
X36050000Y-67805957D01*
X36050000Y-67805957D02*
X36092857Y-67634528D01*
X36092857Y-67634528D02*
X36178572Y-67548814D01*
X36178572Y-67548814D02*
X36264286Y-67505957D01*
X36992857Y-68363100D02*
X37121429Y-68405957D01*
X37121429Y-68405957D02*
X37335714Y-68405957D01*
X37335714Y-68405957D02*
X37421429Y-68363100D01*
X37421429Y-68363100D02*
X37464286Y-68320242D01*
X37464286Y-68320242D02*
X37507143Y-68234528D01*
X37507143Y-68234528D02*
X37507143Y-68148814D01*
X37507143Y-68148814D02*
X37464286Y-68063100D01*
X37464286Y-68063100D02*
X37421429Y-68020242D01*
X37421429Y-68020242D02*
X37335714Y-67977385D01*
X37335714Y-67977385D02*
X37164286Y-67934528D01*
X37164286Y-67934528D02*
X37078571Y-67891671D01*
X37078571Y-67891671D02*
X37035714Y-67848814D01*
X37035714Y-67848814D02*
X36992857Y-67763100D01*
X36992857Y-67763100D02*
X36992857Y-67677385D01*
X36992857Y-67677385D02*
X37035714Y-67591671D01*
X37035714Y-67591671D02*
X37078571Y-67548814D01*
X37078571Y-67548814D02*
X37164286Y-67505957D01*
X37164286Y-67505957D02*
X37378571Y-67505957D01*
X37378571Y-67505957D02*
X37507143Y-67548814D01*
X38192857Y-67934528D02*
X38321429Y-67977385D01*
X38321429Y-67977385D02*
X38364286Y-68020242D01*
X38364286Y-68020242D02*
X38407143Y-68105957D01*
X38407143Y-68105957D02*
X38407143Y-68234528D01*
X38407143Y-68234528D02*
X38364286Y-68320242D01*
X38364286Y-68320242D02*
X38321429Y-68363100D01*
X38321429Y-68363100D02*
X38235714Y-68405957D01*
X38235714Y-68405957D02*
X37892857Y-68405957D01*
X37892857Y-68405957D02*
X37892857Y-67505957D01*
X37892857Y-67505957D02*
X38192857Y-67505957D01*
X38192857Y-67505957D02*
X38278572Y-67548814D01*
X38278572Y-67548814D02*
X38321429Y-67591671D01*
X38321429Y-67591671D02*
X38364286Y-67677385D01*
X38364286Y-67677385D02*
X38364286Y-67763100D01*
X38364286Y-67763100D02*
X38321429Y-67848814D01*
X38321429Y-67848814D02*
X38278572Y-67891671D01*
X38278572Y-67891671D02*
X38192857Y-67934528D01*
X38192857Y-67934528D02*
X37892857Y-67934528D01*
X38750000Y-68148814D02*
X39178572Y-68148814D01*
X38664286Y-68405957D02*
X38964286Y-67505957D01*
X38964286Y-67505957D02*
X39264286Y-68405957D01*
X39564286Y-68405957D02*
X39564286Y-67505957D01*
X39564286Y-67505957D02*
X39864286Y-68148814D01*
X39864286Y-68148814D02*
X40164286Y-67505957D01*
X40164286Y-67505957D02*
X40164286Y-68405957D01*
X40550000Y-68363100D02*
X40678572Y-68405957D01*
X40678572Y-68405957D02*
X40892857Y-68405957D01*
X40892857Y-68405957D02*
X40978572Y-68363100D01*
X40978572Y-68363100D02*
X41021429Y-68320242D01*
X41021429Y-68320242D02*
X41064286Y-68234528D01*
X41064286Y-68234528D02*
X41064286Y-68148814D01*
X41064286Y-68148814D02*
X41021429Y-68063100D01*
X41021429Y-68063100D02*
X40978572Y-68020242D01*
X40978572Y-68020242D02*
X40892857Y-67977385D01*
X40892857Y-67977385D02*
X40721429Y-67934528D01*
X40721429Y-67934528D02*
X40635714Y-67891671D01*
X40635714Y-67891671D02*
X40592857Y-67848814D01*
X40592857Y-67848814D02*
X40550000Y-67763100D01*
X40550000Y-67763100D02*
X40550000Y-67677385D01*
X40550000Y-67677385D02*
X40592857Y-67591671D01*
X40592857Y-67591671D02*
X40635714Y-67548814D01*
X40635714Y-67548814D02*
X40721429Y-67505957D01*
X40721429Y-67505957D02*
X40935714Y-67505957D01*
X40935714Y-67505957D02*
X41064286Y-67548814D01*
X42135714Y-68405957D02*
X42135714Y-67505957D01*
X42135714Y-67505957D02*
X42478571Y-67505957D01*
X42478571Y-67505957D02*
X42564286Y-67548814D01*
X42564286Y-67548814D02*
X42607143Y-67591671D01*
X42607143Y-67591671D02*
X42650000Y-67677385D01*
X42650000Y-67677385D02*
X42650000Y-67805957D01*
X42650000Y-67805957D02*
X42607143Y-67891671D01*
X42607143Y-67891671D02*
X42564286Y-67934528D01*
X42564286Y-67934528D02*
X42478571Y-67977385D01*
X42478571Y-67977385D02*
X42135714Y-67977385D01*
X43035714Y-68405957D02*
X43035714Y-67805957D01*
X43035714Y-67505957D02*
X42992857Y-67548814D01*
X42992857Y-67548814D02*
X43035714Y-67591671D01*
X43035714Y-67591671D02*
X43078571Y-67548814D01*
X43078571Y-67548814D02*
X43035714Y-67505957D01*
X43035714Y-67505957D02*
X43035714Y-67591671D01*
X44107142Y-67463100D02*
X43335714Y-68620242D01*
X44407142Y-68405957D02*
X44407142Y-67505957D01*
X44407142Y-67505957D02*
X44621428Y-67505957D01*
X44621428Y-67505957D02*
X44749999Y-67548814D01*
X44749999Y-67548814D02*
X44835714Y-67634528D01*
X44835714Y-67634528D02*
X44878571Y-67720242D01*
X44878571Y-67720242D02*
X44921428Y-67891671D01*
X44921428Y-67891671D02*
X44921428Y-68020242D01*
X44921428Y-68020242D02*
X44878571Y-68191671D01*
X44878571Y-68191671D02*
X44835714Y-68277385D01*
X44835714Y-68277385D02*
X44749999Y-68363100D01*
X44749999Y-68363100D02*
X44621428Y-68405957D01*
X44621428Y-68405957D02*
X44407142Y-68405957D01*
X45307142Y-68405957D02*
X45307142Y-67805957D01*
X45307142Y-67505957D02*
X45264285Y-67548814D01*
X45264285Y-67548814D02*
X45307142Y-67591671D01*
X45307142Y-67591671D02*
X45349999Y-67548814D01*
X45349999Y-67548814D02*
X45307142Y-67505957D01*
X45307142Y-67505957D02*
X45307142Y-67591671D01*
X45692856Y-68363100D02*
X45778570Y-68405957D01*
X45778570Y-68405957D02*
X45949999Y-68405957D01*
X45949999Y-68405957D02*
X46035713Y-68363100D01*
X46035713Y-68363100D02*
X46078570Y-68277385D01*
X46078570Y-68277385D02*
X46078570Y-68234528D01*
X46078570Y-68234528D02*
X46035713Y-68148814D01*
X46035713Y-68148814D02*
X45949999Y-68105957D01*
X45949999Y-68105957D02*
X45821428Y-68105957D01*
X45821428Y-68105957D02*
X45735713Y-68063100D01*
X45735713Y-68063100D02*
X45692856Y-67977385D01*
X45692856Y-67977385D02*
X45692856Y-67934528D01*
X45692856Y-67934528D02*
X45735713Y-67848814D01*
X45735713Y-67848814D02*
X45821428Y-67805957D01*
X45821428Y-67805957D02*
X45949999Y-67805957D01*
X45949999Y-67805957D02*
X46035713Y-67848814D01*
X46464284Y-67805957D02*
X46464284Y-68705957D01*
X46464284Y-67848814D02*
X46549999Y-67805957D01*
X46549999Y-67805957D02*
X46721427Y-67805957D01*
X46721427Y-67805957D02*
X46807141Y-67848814D01*
X46807141Y-67848814D02*
X46849999Y-67891671D01*
X46849999Y-67891671D02*
X46892856Y-67977385D01*
X46892856Y-67977385D02*
X46892856Y-68234528D01*
X46892856Y-68234528D02*
X46849999Y-68320242D01*
X46849999Y-68320242D02*
X46807141Y-68363100D01*
X46807141Y-68363100D02*
X46721427Y-68405957D01*
X46721427Y-68405957D02*
X46549999Y-68405957D01*
X46549999Y-68405957D02*
X46464284Y-68363100D01*
X47407142Y-68405957D02*
X47321427Y-68363100D01*
X47321427Y-68363100D02*
X47278570Y-68277385D01*
X47278570Y-68277385D02*
X47278570Y-67505957D01*
X48135714Y-68405957D02*
X48135714Y-67934528D01*
X48135714Y-67934528D02*
X48092856Y-67848814D01*
X48092856Y-67848814D02*
X48007142Y-67805957D01*
X48007142Y-67805957D02*
X47835714Y-67805957D01*
X47835714Y-67805957D02*
X47749999Y-67848814D01*
X48135714Y-68363100D02*
X48049999Y-68405957D01*
X48049999Y-68405957D02*
X47835714Y-68405957D01*
X47835714Y-68405957D02*
X47749999Y-68363100D01*
X47749999Y-68363100D02*
X47707142Y-68277385D01*
X47707142Y-68277385D02*
X47707142Y-68191671D01*
X47707142Y-68191671D02*
X47749999Y-68105957D01*
X47749999Y-68105957D02*
X47835714Y-68063100D01*
X47835714Y-68063100D02*
X48049999Y-68063100D01*
X48049999Y-68063100D02*
X48135714Y-68020242D01*
X48478571Y-67805957D02*
X48692857Y-68405957D01*
X48907142Y-67805957D02*
X48692857Y-68405957D01*
X48692857Y-68405957D02*
X48607142Y-68620242D01*
X48607142Y-68620242D02*
X48564285Y-68663100D01*
X48564285Y-68663100D02*
X48478571Y-68705957D01*
X49935713Y-68405957D02*
X49935713Y-67505957D01*
X49935713Y-67505957D02*
X50278570Y-67505957D01*
X50278570Y-67505957D02*
X50364285Y-67548814D01*
X50364285Y-67548814D02*
X50407142Y-67591671D01*
X50407142Y-67591671D02*
X50449999Y-67677385D01*
X50449999Y-67677385D02*
X50449999Y-67805957D01*
X50449999Y-67805957D02*
X50407142Y-67891671D01*
X50407142Y-67891671D02*
X50364285Y-67934528D01*
X50364285Y-67934528D02*
X50278570Y-67977385D01*
X50278570Y-67977385D02*
X49935713Y-67977385D01*
X50964285Y-68405957D02*
X50878570Y-68363100D01*
X50878570Y-68363100D02*
X50835713Y-68320242D01*
X50835713Y-68320242D02*
X50792856Y-68234528D01*
X50792856Y-68234528D02*
X50792856Y-67977385D01*
X50792856Y-67977385D02*
X50835713Y-67891671D01*
X50835713Y-67891671D02*
X50878570Y-67848814D01*
X50878570Y-67848814D02*
X50964285Y-67805957D01*
X50964285Y-67805957D02*
X51092856Y-67805957D01*
X51092856Y-67805957D02*
X51178570Y-67848814D01*
X51178570Y-67848814D02*
X51221428Y-67891671D01*
X51221428Y-67891671D02*
X51264285Y-67977385D01*
X51264285Y-67977385D02*
X51264285Y-68234528D01*
X51264285Y-68234528D02*
X51221428Y-68320242D01*
X51221428Y-68320242D02*
X51178570Y-68363100D01*
X51178570Y-68363100D02*
X51092856Y-68405957D01*
X51092856Y-68405957D02*
X50964285Y-68405957D01*
X51564285Y-67805957D02*
X51735714Y-68405957D01*
X51735714Y-68405957D02*
X51907142Y-67977385D01*
X51907142Y-67977385D02*
X52078571Y-68405957D01*
X52078571Y-68405957D02*
X52249999Y-67805957D01*
X52935713Y-68363100D02*
X52849999Y-68405957D01*
X52849999Y-68405957D02*
X52678571Y-68405957D01*
X52678571Y-68405957D02*
X52592856Y-68363100D01*
X52592856Y-68363100D02*
X52549999Y-68277385D01*
X52549999Y-68277385D02*
X52549999Y-67934528D01*
X52549999Y-67934528D02*
X52592856Y-67848814D01*
X52592856Y-67848814D02*
X52678571Y-67805957D01*
X52678571Y-67805957D02*
X52849999Y-67805957D01*
X52849999Y-67805957D02*
X52935713Y-67848814D01*
X52935713Y-67848814D02*
X52978571Y-67934528D01*
X52978571Y-67934528D02*
X52978571Y-68020242D01*
X52978571Y-68020242D02*
X52549999Y-68105957D01*
X53364285Y-68405957D02*
X53364285Y-67805957D01*
X53364285Y-67977385D02*
X53407142Y-67891671D01*
X53407142Y-67891671D02*
X53450000Y-67848814D01*
X53450000Y-67848814D02*
X53535714Y-67805957D01*
X53535714Y-67805957D02*
X53621428Y-67805957D01*
X55121428Y-68405957D02*
X54821428Y-67977385D01*
X54607142Y-68405957D02*
X54607142Y-67505957D01*
X54607142Y-67505957D02*
X54949999Y-67505957D01*
X54949999Y-67505957D02*
X55035714Y-67548814D01*
X55035714Y-67548814D02*
X55078571Y-67591671D01*
X55078571Y-67591671D02*
X55121428Y-67677385D01*
X55121428Y-67677385D02*
X55121428Y-67805957D01*
X55121428Y-67805957D02*
X55078571Y-67891671D01*
X55078571Y-67891671D02*
X55035714Y-67934528D01*
X55035714Y-67934528D02*
X54949999Y-67977385D01*
X54949999Y-67977385D02*
X54607142Y-67977385D01*
X55849999Y-68363100D02*
X55764285Y-68405957D01*
X55764285Y-68405957D02*
X55592857Y-68405957D01*
X55592857Y-68405957D02*
X55507142Y-68363100D01*
X55507142Y-68363100D02*
X55464285Y-68277385D01*
X55464285Y-68277385D02*
X55464285Y-67934528D01*
X55464285Y-67934528D02*
X55507142Y-67848814D01*
X55507142Y-67848814D02*
X55592857Y-67805957D01*
X55592857Y-67805957D02*
X55764285Y-67805957D01*
X55764285Y-67805957D02*
X55849999Y-67848814D01*
X55849999Y-67848814D02*
X55892857Y-67934528D01*
X55892857Y-67934528D02*
X55892857Y-68020242D01*
X55892857Y-68020242D02*
X55464285Y-68105957D01*
X56192857Y-67805957D02*
X56407143Y-68405957D01*
X56407143Y-68405957D02*
X56621428Y-67805957D01*
X56964285Y-68320242D02*
X57007142Y-68363100D01*
X57007142Y-68363100D02*
X56964285Y-68405957D01*
X56964285Y-68405957D02*
X56921428Y-68363100D01*
X56921428Y-68363100D02*
X56964285Y-68320242D01*
X56964285Y-68320242D02*
X56964285Y-68405957D01*
X57349999Y-68148814D02*
X57778571Y-68148814D01*
X57264285Y-68405957D02*
X57564285Y-67505957D01*
X57564285Y-67505957D02*
X57864285Y-68405957D01*
X59492856Y-67591671D02*
X59535713Y-67548814D01*
X59535713Y-67548814D02*
X59621428Y-67505957D01*
X59621428Y-67505957D02*
X59835713Y-67505957D01*
X59835713Y-67505957D02*
X59921428Y-67548814D01*
X59921428Y-67548814D02*
X59964285Y-67591671D01*
X59964285Y-67591671D02*
X60007142Y-67677385D01*
X60007142Y-67677385D02*
X60007142Y-67763100D01*
X60007142Y-67763100D02*
X59964285Y-67891671D01*
X59964285Y-67891671D02*
X59449999Y-68405957D01*
X59449999Y-68405957D02*
X60007142Y-68405957D01*
X60521428Y-68405957D02*
X60435713Y-68363100D01*
X60435713Y-68363100D02*
X60392856Y-68320242D01*
X60392856Y-68320242D02*
X60349999Y-68234528D01*
X60349999Y-68234528D02*
X60349999Y-67977385D01*
X60349999Y-67977385D02*
X60392856Y-67891671D01*
X60392856Y-67891671D02*
X60435713Y-67848814D01*
X60435713Y-67848814D02*
X60521428Y-67805957D01*
X60521428Y-67805957D02*
X60649999Y-67805957D01*
X60649999Y-67805957D02*
X60735713Y-67848814D01*
X60735713Y-67848814D02*
X60778571Y-67891671D01*
X60778571Y-67891671D02*
X60821428Y-67977385D01*
X60821428Y-67977385D02*
X60821428Y-68234528D01*
X60821428Y-68234528D02*
X60778571Y-68320242D01*
X60778571Y-68320242D02*
X60735713Y-68363100D01*
X60735713Y-68363100D02*
X60649999Y-68405957D01*
X60649999Y-68405957D02*
X60521428Y-68405957D01*
X61121428Y-67805957D02*
X61592857Y-67805957D01*
X61592857Y-67805957D02*
X61121428Y-68405957D01*
X61121428Y-68405957D02*
X61592857Y-68405957D01*
X63135713Y-68320242D02*
X63092856Y-68363100D01*
X63092856Y-68363100D02*
X62964284Y-68405957D01*
X62964284Y-68405957D02*
X62878570Y-68405957D01*
X62878570Y-68405957D02*
X62749999Y-68363100D01*
X62749999Y-68363100D02*
X62664284Y-68277385D01*
X62664284Y-68277385D02*
X62621427Y-68191671D01*
X62621427Y-68191671D02*
X62578570Y-68020242D01*
X62578570Y-68020242D02*
X62578570Y-67891671D01*
X62578570Y-67891671D02*
X62621427Y-67720242D01*
X62621427Y-67720242D02*
X62664284Y-67634528D01*
X62664284Y-67634528D02*
X62749999Y-67548814D01*
X62749999Y-67548814D02*
X62878570Y-67505957D01*
X62878570Y-67505957D02*
X62964284Y-67505957D01*
X62964284Y-67505957D02*
X63092856Y-67548814D01*
X63092856Y-67548814D02*
X63135713Y-67591671D01*
X63907142Y-67805957D02*
X63907142Y-68405957D01*
X63521427Y-67805957D02*
X63521427Y-68277385D01*
X63521427Y-68277385D02*
X63564284Y-68363100D01*
X63564284Y-68363100D02*
X63649999Y-68405957D01*
X63649999Y-68405957D02*
X63778570Y-68405957D01*
X63778570Y-68405957D02*
X63864284Y-68363100D01*
X63864284Y-68363100D02*
X63907142Y-68320242D01*
%LPC*%
D11*
%TO.C,H3*%
X4000000Y-66000000D03*
%TD*%
D12*
%TO.C,J_IN*%
X4780000Y-48000000D03*
D13*
X9100000Y-48000000D03*
D14*
X12100000Y-48000000D03*
%TD*%
D15*
%TO.C,U1*%
X27140000Y-38619999D03*
X27140000Y-33539999D03*
X27140000Y-23380000D03*
X72860000Y-41160000D03*
X72860000Y-31000000D03*
X72860000Y-20840000D03*
%TD*%
D16*
%TO.C,C4*%
X76000000Y-53000000D03*
D17*
X76000000Y-58000000D03*
%TD*%
D12*
%TO.C,J_OUT*%
X86500000Y-65220000D03*
D18*
X88000000Y-60900000D03*
D14*
X85000000Y-60900000D03*
X88000000Y-57900000D03*
X85000000Y-57900000D03*
%TD*%
D11*
%TO.C,H1*%
X4000000Y-4000000D03*
%TD*%
D19*
%TO.C,C2*%
X28750000Y-52000000D03*
D20*
X32250000Y-52000000D03*
%TD*%
D11*
%TO.C,H2*%
X96000000Y-4000000D03*
%TD*%
%TO.C,H4*%
X96000000Y-66000000D03*
%TD*%
%LPD*%
M02*
