%TF.GenerationSoftware,KiCad,Pcbnew,7.0.11+dfsg-1build4*%
%TF.CreationDate,2026-10-01T18:00:30+00:00*%
%TF.ProjectId,OSBAMS_Pi_Display_Power_RevA,4f534241-4d53-45f5-9069-5f446973706c,rev?*%
%TF.SameCoordinates,Original*%
%TF.FileFunction,Legend,Top*%
%TF.FilePolarity,Positive*%
%FSLAX46Y46*%
G04 Gerber Fmt 4.6, Leading zero omitted, Abs format (unit mm)*
G04 Created by KiCad (PCBNEW 7.0.11+dfsg-1build4) date 2026-10-01 18:00:30*
%MOMM*%
%LPD*%
G01*
G04 APERTURE LIST*
G04 Aperture macros list*
%AMRoundRect*
0 Rectangle with rounded corners*
0 $1 Rounding radius*
0 $2 $3 $4 $5 $6 $7 $8 $9 X,Y pos of 4 corners*
0 Add a 4 corners polygon primitive as box body*
4,1,4,$2,$3,$4,$5,$6,$7,$8,$9,$2,$3,0*
0 Add four circle primitives for the rounded corners*
1,1,$1+$1,$2,$3*
1,1,$1+$1,$4,$5*
1,1,$1+$1,$6,$7*
1,1,$1+$1,$8,$9*
0 Add four rect primitives between the rounded corners*
20,1,$1+$1,$2,$3,$4,$5,0*
20,1,$1+$1,$4,$5,$6,$7,0*
20,1,$1+$1,$6,$7,$8,$9,0*
20,1,$1+$1,$8,$9,$2,$3,0*%
G04 Aperture macros list end*
%ADD10C,0.200000*%
%ADD11C,0.250000*%
%ADD12C,0.120000*%
%ADD13C,2.000000*%
%ADD14RoundRect,0.218750X-0.218750X-0.256250X0.218750X-0.256250X0.218750X0.256250X-0.218750X0.256250X0*%
%ADD15R,1.600000X1.600000*%
%ADD16C,1.600000*%
%ADD17RoundRect,0.200000X-0.200000X-0.275000X0.200000X-0.275000X0.200000X0.275000X-0.200000X0.275000X0*%
%ADD18R,3.150000X1.960000*%
%ADD19C,3.200000*%
%ADD20C,2.400000*%
%ADD21RoundRect,0.225000X-0.225000X-0.250000X0.225000X-0.250000X0.225000X0.250000X-0.225000X0.250000X0*%
%ADD22C,3.000000*%
%ADD23RoundRect,0.250001X0.499999X0.499999X-0.499999X0.499999X-0.499999X-0.499999X0.499999X-0.499999X0*%
%ADD24C,1.500000*%
%ADD25RoundRect,0.250000X-0.250000X-0.475000X0.250000X-0.475000X0.250000X0.475000X-0.250000X0.475000X0*%
%ADD26R,2.000000X2.000000*%
%ADD27RoundRect,0.250001X0.499999X-0.499999X0.499999X0.499999X-0.499999X0.499999X-0.499999X-0.499999X0*%
%ADD28R,1.000000X1.800000*%
%ADD29RoundRect,0.250000X-1.000000X-0.900000X1.000000X-0.900000X1.000000X0.900000X-1.000000X0.900000X0*%
G04 APERTURE END LIST*
D10*
X50000000Y-41000000D02*
X50000000Y-43000000D01*
X50000000Y-5000000D02*
X50000000Y-7000000D01*
X50000000Y-9000000D02*
X50000000Y-11000000D01*
X50000000Y-61000000D02*
X50000000Y-63000000D01*
X50000000Y-21000000D02*
X50000000Y-23000000D01*
X50000000Y-57000000D02*
X50000000Y-59000000D01*
X50000000Y-13000000D02*
X50000000Y-15000000D01*
X50000000Y-49000000D02*
X50000000Y-51000000D01*
X50000000Y-53000000D02*
X50000000Y-55000000D01*
X50000000Y-45000000D02*
X50000000Y-47000000D01*
X50000000Y-65000000D02*
X50000000Y-67000000D01*
X50000000Y-25000000D02*
X50000000Y-27000000D01*
X50000000Y-29000000D02*
X50000000Y-31000000D01*
X50000000Y-37000000D02*
X50000000Y-39000000D01*
X50000000Y-17000000D02*
X50000000Y-19000000D01*
X50000000Y-33000000D02*
X50000000Y-35000000D01*
X6845863Y-51563100D02*
X7531578Y-51563100D01*
X7188720Y-51905957D02*
X7188720Y-51220242D01*
X8431578Y-51905957D02*
X7917292Y-51905957D01*
X8174435Y-51905957D02*
X8174435Y-51005957D01*
X8174435Y-51005957D02*
X8088721Y-51134528D01*
X8088721Y-51134528D02*
X8003006Y-51220242D01*
X8003006Y-51220242D02*
X7917292Y-51263100D01*
X8774435Y-51091671D02*
X8817292Y-51048814D01*
X8817292Y-51048814D02*
X8903007Y-51005957D01*
X8903007Y-51005957D02*
X9117292Y-51005957D01*
X9117292Y-51005957D02*
X9203007Y-51048814D01*
X9203007Y-51048814D02*
X9245864Y-51091671D01*
X9245864Y-51091671D02*
X9288721Y-51177385D01*
X9288721Y-51177385D02*
X9288721Y-51263100D01*
X9288721Y-51263100D02*
X9245864Y-51391671D01*
X9245864Y-51391671D02*
X8731578Y-51905957D01*
X8731578Y-51905957D02*
X9288721Y-51905957D01*
X9545864Y-51005957D02*
X9845864Y-51905957D01*
X9845864Y-51905957D02*
X10145864Y-51005957D01*
X12974435Y-51048814D02*
X12888721Y-51005957D01*
X12888721Y-51005957D02*
X12760149Y-51005957D01*
X12760149Y-51005957D02*
X12631578Y-51048814D01*
X12631578Y-51048814D02*
X12545863Y-51134528D01*
X12545863Y-51134528D02*
X12503006Y-51220242D01*
X12503006Y-51220242D02*
X12460149Y-51391671D01*
X12460149Y-51391671D02*
X12460149Y-51520242D01*
X12460149Y-51520242D02*
X12503006Y-51691671D01*
X12503006Y-51691671D02*
X12545863Y-51777385D01*
X12545863Y-51777385D02*
X12631578Y-51863100D01*
X12631578Y-51863100D02*
X12760149Y-51905957D01*
X12760149Y-51905957D02*
X12845863Y-51905957D01*
X12845863Y-51905957D02*
X12974435Y-51863100D01*
X12974435Y-51863100D02*
X13017292Y-51820242D01*
X13017292Y-51820242D02*
X13017292Y-51520242D01*
X13017292Y-51520242D02*
X12845863Y-51520242D01*
X13403006Y-51905957D02*
X13403006Y-51005957D01*
X13403006Y-51005957D02*
X13917292Y-51905957D01*
X13917292Y-51905957D02*
X13917292Y-51005957D01*
X14345863Y-51905957D02*
X14345863Y-51005957D01*
X14345863Y-51005957D02*
X14560149Y-51005957D01*
X14560149Y-51005957D02*
X14688720Y-51048814D01*
X14688720Y-51048814D02*
X14774435Y-51134528D01*
X14774435Y-51134528D02*
X14817292Y-51220242D01*
X14817292Y-51220242D02*
X14860149Y-51391671D01*
X14860149Y-51391671D02*
X14860149Y-51520242D01*
X14860149Y-51520242D02*
X14817292Y-51691671D01*
X14817292Y-51691671D02*
X14774435Y-51777385D01*
X14774435Y-51777385D02*
X14688720Y-51863100D01*
X14688720Y-51863100D02*
X14560149Y-51905957D01*
X14560149Y-51905957D02*
X14345863Y-51905957D01*
X56345863Y-63405957D02*
X56345863Y-62505957D01*
X56731577Y-63363100D02*
X56860149Y-63405957D01*
X56860149Y-63405957D02*
X57074434Y-63405957D01*
X57074434Y-63405957D02*
X57160149Y-63363100D01*
X57160149Y-63363100D02*
X57203006Y-63320242D01*
X57203006Y-63320242D02*
X57245863Y-63234528D01*
X57245863Y-63234528D02*
X57245863Y-63148814D01*
X57245863Y-63148814D02*
X57203006Y-63063100D01*
X57203006Y-63063100D02*
X57160149Y-63020242D01*
X57160149Y-63020242D02*
X57074434Y-62977385D01*
X57074434Y-62977385D02*
X56903006Y-62934528D01*
X56903006Y-62934528D02*
X56817291Y-62891671D01*
X56817291Y-62891671D02*
X56774434Y-62848814D01*
X56774434Y-62848814D02*
X56731577Y-62763100D01*
X56731577Y-62763100D02*
X56731577Y-62677385D01*
X56731577Y-62677385D02*
X56774434Y-62591671D01*
X56774434Y-62591671D02*
X56817291Y-62548814D01*
X56817291Y-62548814D02*
X56903006Y-62505957D01*
X56903006Y-62505957D02*
X57117291Y-62505957D01*
X57117291Y-62505957D02*
X57245863Y-62548814D01*
X57803006Y-62505957D02*
X57974434Y-62505957D01*
X57974434Y-62505957D02*
X58060149Y-62548814D01*
X58060149Y-62548814D02*
X58145863Y-62634528D01*
X58145863Y-62634528D02*
X58188720Y-62805957D01*
X58188720Y-62805957D02*
X58188720Y-63105957D01*
X58188720Y-63105957D02*
X58145863Y-63277385D01*
X58145863Y-63277385D02*
X58060149Y-63363100D01*
X58060149Y-63363100D02*
X57974434Y-63405957D01*
X57974434Y-63405957D02*
X57803006Y-63405957D01*
X57803006Y-63405957D02*
X57717292Y-63363100D01*
X57717292Y-63363100D02*
X57631577Y-63277385D01*
X57631577Y-63277385D02*
X57588720Y-63105957D01*
X57588720Y-63105957D02*
X57588720Y-62805957D01*
X57588720Y-62805957D02*
X57631577Y-62634528D01*
X57631577Y-62634528D02*
X57717292Y-62548814D01*
X57717292Y-62548814D02*
X57803006Y-62505957D01*
X59003006Y-63405957D02*
X58574434Y-63405957D01*
X58574434Y-63405957D02*
X58574434Y-62505957D01*
X59260148Y-63148814D02*
X59688720Y-63148814D01*
X59174434Y-63405957D02*
X59474434Y-62505957D01*
X59474434Y-62505957D02*
X59774434Y-63405957D01*
X59945863Y-62505957D02*
X60460149Y-62505957D01*
X60203006Y-63405957D02*
X60203006Y-62505957D01*
X60760148Y-62934528D02*
X61060148Y-62934528D01*
X61188720Y-63405957D02*
X60760148Y-63405957D01*
X60760148Y-63405957D02*
X60760148Y-62505957D01*
X60760148Y-62505957D02*
X61188720Y-62505957D01*
X61574434Y-63405957D02*
X61574434Y-62505957D01*
X61574434Y-62505957D02*
X61788720Y-62505957D01*
X61788720Y-62505957D02*
X61917291Y-62548814D01*
X61917291Y-62548814D02*
X62003006Y-62634528D01*
X62003006Y-62634528D02*
X62045863Y-62720242D01*
X62045863Y-62720242D02*
X62088720Y-62891671D01*
X62088720Y-62891671D02*
X62088720Y-63020242D01*
X62088720Y-63020242D02*
X62045863Y-63191671D01*
X62045863Y-63191671D02*
X62003006Y-63277385D01*
X62003006Y-63277385D02*
X61917291Y-63363100D01*
X61917291Y-63363100D02*
X61788720Y-63405957D01*
X61788720Y-63405957D02*
X61574434Y-63405957D01*
X63588720Y-62505957D02*
X63160148Y-62505957D01*
X63160148Y-62505957D02*
X63117291Y-62934528D01*
X63117291Y-62934528D02*
X63160148Y-62891671D01*
X63160148Y-62891671D02*
X63245863Y-62848814D01*
X63245863Y-62848814D02*
X63460148Y-62848814D01*
X63460148Y-62848814D02*
X63545863Y-62891671D01*
X63545863Y-62891671D02*
X63588720Y-62934528D01*
X63588720Y-62934528D02*
X63631577Y-63020242D01*
X63631577Y-63020242D02*
X63631577Y-63234528D01*
X63631577Y-63234528D02*
X63588720Y-63320242D01*
X63588720Y-63320242D02*
X63545863Y-63363100D01*
X63545863Y-63363100D02*
X63460148Y-63405957D01*
X63460148Y-63405957D02*
X63245863Y-63405957D01*
X63245863Y-63405957D02*
X63160148Y-63363100D01*
X63160148Y-63363100D02*
X63117291Y-63320242D01*
X63888720Y-62505957D02*
X64188720Y-63405957D01*
X64188720Y-63405957D02*
X64488720Y-62505957D01*
X65645863Y-62505957D02*
X65817291Y-62505957D01*
X65817291Y-62505957D02*
X65903006Y-62548814D01*
X65903006Y-62548814D02*
X65988720Y-62634528D01*
X65988720Y-62634528D02*
X66031577Y-62805957D01*
X66031577Y-62805957D02*
X66031577Y-63105957D01*
X66031577Y-63105957D02*
X65988720Y-63277385D01*
X65988720Y-63277385D02*
X65903006Y-63363100D01*
X65903006Y-63363100D02*
X65817291Y-63405957D01*
X65817291Y-63405957D02*
X65645863Y-63405957D01*
X65645863Y-63405957D02*
X65560149Y-63363100D01*
X65560149Y-63363100D02*
X65474434Y-63277385D01*
X65474434Y-63277385D02*
X65431577Y-63105957D01*
X65431577Y-63105957D02*
X65431577Y-62805957D01*
X65431577Y-62805957D02*
X65474434Y-62634528D01*
X65474434Y-62634528D02*
X65560149Y-62548814D01*
X65560149Y-62548814D02*
X65645863Y-62505957D01*
X66417291Y-62505957D02*
X66417291Y-63234528D01*
X66417291Y-63234528D02*
X66460148Y-63320242D01*
X66460148Y-63320242D02*
X66503006Y-63363100D01*
X66503006Y-63363100D02*
X66588720Y-63405957D01*
X66588720Y-63405957D02*
X66760148Y-63405957D01*
X66760148Y-63405957D02*
X66845863Y-63363100D01*
X66845863Y-63363100D02*
X66888720Y-63320242D01*
X66888720Y-63320242D02*
X66931577Y-63234528D01*
X66931577Y-63234528D02*
X66931577Y-62505957D01*
X67231577Y-62505957D02*
X67745863Y-62505957D01*
X67488720Y-63405957D02*
X67488720Y-62505957D01*
X28322054Y-14059695D02*
X28322054Y-14707314D01*
X28322054Y-14707314D02*
X28360149Y-14783504D01*
X28360149Y-14783504D02*
X28398244Y-14821600D01*
X28398244Y-14821600D02*
X28474435Y-14859695D01*
X28474435Y-14859695D02*
X28626816Y-14859695D01*
X28626816Y-14859695D02*
X28703006Y-14821600D01*
X28703006Y-14821600D02*
X28741101Y-14783504D01*
X28741101Y-14783504D02*
X28779197Y-14707314D01*
X28779197Y-14707314D02*
X28779197Y-14059695D01*
X29579196Y-14859695D02*
X29122053Y-14859695D01*
X29350625Y-14859695D02*
X29350625Y-14059695D01*
X29350625Y-14059695D02*
X29274434Y-14173980D01*
X29274434Y-14173980D02*
X29198244Y-14250171D01*
X29198244Y-14250171D02*
X29122053Y-14288266D01*
X30531578Y-14859695D02*
X30531578Y-14059695D01*
X30531578Y-14059695D02*
X30836340Y-14059695D01*
X30836340Y-14059695D02*
X30912530Y-14097790D01*
X30912530Y-14097790D02*
X30950625Y-14135885D01*
X30950625Y-14135885D02*
X30988721Y-14212076D01*
X30988721Y-14212076D02*
X30988721Y-14326361D01*
X30988721Y-14326361D02*
X30950625Y-14402552D01*
X30950625Y-14402552D02*
X30912530Y-14440647D01*
X30912530Y-14440647D02*
X30836340Y-14478742D01*
X30836340Y-14478742D02*
X30531578Y-14478742D01*
X31331578Y-14859695D02*
X31331578Y-14059695D01*
X31712530Y-14859695D02*
X31712530Y-14059695D01*
X31712530Y-14059695D02*
X32169673Y-14859695D01*
X32169673Y-14859695D02*
X32169673Y-14059695D01*
X32969672Y-14859695D02*
X32512529Y-14859695D01*
X32741101Y-14859695D02*
X32741101Y-14059695D01*
X32741101Y-14059695D02*
X32664910Y-14173980D01*
X32664910Y-14173980D02*
X32588720Y-14250171D01*
X32588720Y-14250171D02*
X32512529Y-14288266D01*
X33883958Y-14821600D02*
X33998244Y-14859695D01*
X33998244Y-14859695D02*
X34188720Y-14859695D01*
X34188720Y-14859695D02*
X34264911Y-14821600D01*
X34264911Y-14821600D02*
X34303006Y-14783504D01*
X34303006Y-14783504D02*
X34341101Y-14707314D01*
X34341101Y-14707314D02*
X34341101Y-14631123D01*
X34341101Y-14631123D02*
X34303006Y-14554933D01*
X34303006Y-14554933D02*
X34264911Y-14516838D01*
X34264911Y-14516838D02*
X34188720Y-14478742D01*
X34188720Y-14478742D02*
X34036339Y-14440647D01*
X34036339Y-14440647D02*
X33960149Y-14402552D01*
X33960149Y-14402552D02*
X33922054Y-14364457D01*
X33922054Y-14364457D02*
X33883958Y-14288266D01*
X33883958Y-14288266D02*
X33883958Y-14212076D01*
X33883958Y-14212076D02*
X33922054Y-14135885D01*
X33922054Y-14135885D02*
X33960149Y-14097790D01*
X33960149Y-14097790D02*
X34036339Y-14059695D01*
X34036339Y-14059695D02*
X34226816Y-14059695D01*
X34226816Y-14059695D02*
X34341101Y-14097790D01*
X34683959Y-14859695D02*
X34683959Y-14059695D01*
X35064911Y-14859695D02*
X35064911Y-14059695D01*
X35064911Y-14059695D02*
X35255387Y-14059695D01*
X35255387Y-14059695D02*
X35369673Y-14097790D01*
X35369673Y-14097790D02*
X35445863Y-14173980D01*
X35445863Y-14173980D02*
X35483958Y-14250171D01*
X35483958Y-14250171D02*
X35522054Y-14402552D01*
X35522054Y-14402552D02*
X35522054Y-14516838D01*
X35522054Y-14516838D02*
X35483958Y-14669219D01*
X35483958Y-14669219D02*
X35445863Y-14745409D01*
X35445863Y-14745409D02*
X35369673Y-14821600D01*
X35369673Y-14821600D02*
X35255387Y-14859695D01*
X35255387Y-14859695D02*
X35064911Y-14859695D01*
X35864911Y-14440647D02*
X36131577Y-14440647D01*
X36245863Y-14859695D02*
X35864911Y-14859695D01*
X35864911Y-14859695D02*
X35864911Y-14059695D01*
X35864911Y-14059695D02*
X36245863Y-14059695D01*
X56393482Y-66698480D02*
X56393482Y-65598480D01*
X56393482Y-65598480D02*
X56812530Y-65598480D01*
X56812530Y-65598480D02*
X56917292Y-65650861D01*
X56917292Y-65650861D02*
X56969673Y-65703242D01*
X56969673Y-65703242D02*
X57022054Y-65808004D01*
X57022054Y-65808004D02*
X57022054Y-65965147D01*
X57022054Y-65965147D02*
X56969673Y-66069909D01*
X56969673Y-66069909D02*
X56917292Y-66122290D01*
X56917292Y-66122290D02*
X56812530Y-66174671D01*
X56812530Y-66174671D02*
X56393482Y-66174671D01*
X57493482Y-66698480D02*
X57493482Y-65598480D01*
X58803006Y-66646100D02*
X58960149Y-66698480D01*
X58960149Y-66698480D02*
X59222054Y-66698480D01*
X59222054Y-66698480D02*
X59326816Y-66646100D01*
X59326816Y-66646100D02*
X59379197Y-66593719D01*
X59379197Y-66593719D02*
X59431578Y-66488957D01*
X59431578Y-66488957D02*
X59431578Y-66384195D01*
X59431578Y-66384195D02*
X59379197Y-66279433D01*
X59379197Y-66279433D02*
X59326816Y-66227052D01*
X59326816Y-66227052D02*
X59222054Y-66174671D01*
X59222054Y-66174671D02*
X59012530Y-66122290D01*
X59012530Y-66122290D02*
X58907768Y-66069909D01*
X58907768Y-66069909D02*
X58855387Y-66017528D01*
X58855387Y-66017528D02*
X58803006Y-65912766D01*
X58803006Y-65912766D02*
X58803006Y-65808004D01*
X58803006Y-65808004D02*
X58855387Y-65703242D01*
X58855387Y-65703242D02*
X58907768Y-65650861D01*
X58907768Y-65650861D02*
X59012530Y-65598480D01*
X59012530Y-65598480D02*
X59274435Y-65598480D01*
X59274435Y-65598480D02*
X59431578Y-65650861D01*
X59903006Y-66698480D02*
X59903006Y-65598480D01*
X60426816Y-66698480D02*
X60426816Y-65598480D01*
X60426816Y-65598480D02*
X60688721Y-65598480D01*
X60688721Y-65598480D02*
X60845864Y-65650861D01*
X60845864Y-65650861D02*
X60950626Y-65755623D01*
X60950626Y-65755623D02*
X61003007Y-65860385D01*
X61003007Y-65860385D02*
X61055388Y-66069909D01*
X61055388Y-66069909D02*
X61055388Y-66227052D01*
X61055388Y-66227052D02*
X61003007Y-66436576D01*
X61003007Y-66436576D02*
X60950626Y-66541338D01*
X60950626Y-66541338D02*
X60845864Y-66646100D01*
X60845864Y-66646100D02*
X60688721Y-66698480D01*
X60688721Y-66698480D02*
X60426816Y-66698480D01*
X61526816Y-66122290D02*
X61893483Y-66122290D01*
X62050626Y-66698480D02*
X61526816Y-66698480D01*
X61526816Y-66698480D02*
X61526816Y-65598480D01*
X61526816Y-65598480D02*
X62050626Y-65598480D01*
X63255387Y-66331814D02*
X64198245Y-66331814D01*
X65455387Y-66698480D02*
X65455387Y-65598480D01*
X65926816Y-66646100D02*
X66083959Y-66698480D01*
X66083959Y-66698480D02*
X66345864Y-66698480D01*
X66345864Y-66698480D02*
X66450626Y-66646100D01*
X66450626Y-66646100D02*
X66503007Y-66593719D01*
X66503007Y-66593719D02*
X66555388Y-66488957D01*
X66555388Y-66488957D02*
X66555388Y-66384195D01*
X66555388Y-66384195D02*
X66503007Y-66279433D01*
X66503007Y-66279433D02*
X66450626Y-66227052D01*
X66450626Y-66227052D02*
X66345864Y-66174671D01*
X66345864Y-66174671D02*
X66136340Y-66122290D01*
X66136340Y-66122290D02*
X66031578Y-66069909D01*
X66031578Y-66069909D02*
X65979197Y-66017528D01*
X65979197Y-66017528D02*
X65926816Y-65912766D01*
X65926816Y-65912766D02*
X65926816Y-65808004D01*
X65926816Y-65808004D02*
X65979197Y-65703242D01*
X65979197Y-65703242D02*
X66031578Y-65650861D01*
X66031578Y-65650861D02*
X66136340Y-65598480D01*
X66136340Y-65598480D02*
X66398245Y-65598480D01*
X66398245Y-65598480D02*
X66555388Y-65650861D01*
X67236340Y-65598480D02*
X67445864Y-65598480D01*
X67445864Y-65598480D02*
X67550626Y-65650861D01*
X67550626Y-65650861D02*
X67655388Y-65755623D01*
X67655388Y-65755623D02*
X67707769Y-65965147D01*
X67707769Y-65965147D02*
X67707769Y-66331814D01*
X67707769Y-66331814D02*
X67655388Y-66541338D01*
X67655388Y-66541338D02*
X67550626Y-66646100D01*
X67550626Y-66646100D02*
X67445864Y-66698480D01*
X67445864Y-66698480D02*
X67236340Y-66698480D01*
X67236340Y-66698480D02*
X67131578Y-66646100D01*
X67131578Y-66646100D02*
X67026816Y-66541338D01*
X67026816Y-66541338D02*
X66974435Y-66331814D01*
X66974435Y-66331814D02*
X66974435Y-65965147D01*
X66974435Y-65965147D02*
X67026816Y-65755623D01*
X67026816Y-65755623D02*
X67131578Y-65650861D01*
X67131578Y-65650861D02*
X67236340Y-65598480D01*
X68703007Y-66698480D02*
X68179197Y-66698480D01*
X68179197Y-66698480D02*
X68179197Y-65598480D01*
X69017292Y-66384195D02*
X69541102Y-66384195D01*
X68912530Y-66698480D02*
X69279197Y-65598480D01*
X69279197Y-65598480D02*
X69645864Y-66698480D01*
X69855387Y-65598480D02*
X70483959Y-65598480D01*
X70169673Y-66698480D02*
X70169673Y-65598480D01*
X70850625Y-66122290D02*
X71217292Y-66122290D01*
X71374435Y-66698480D02*
X70850625Y-66698480D01*
X70850625Y-66698480D02*
X70850625Y-65598480D01*
X70850625Y-65598480D02*
X71374435Y-65598480D01*
X71845863Y-66698480D02*
X71845863Y-65598480D01*
X71845863Y-65598480D02*
X72107768Y-65598480D01*
X72107768Y-65598480D02*
X72264911Y-65650861D01*
X72264911Y-65650861D02*
X72369673Y-65755623D01*
X72369673Y-65755623D02*
X72422054Y-65860385D01*
X72422054Y-65860385D02*
X72474435Y-66069909D01*
X72474435Y-66069909D02*
X72474435Y-66227052D01*
X72474435Y-66227052D02*
X72422054Y-66436576D01*
X72422054Y-66436576D02*
X72369673Y-66541338D01*
X72369673Y-66541338D02*
X72264911Y-66646100D01*
X72264911Y-66646100D02*
X72107768Y-66698480D01*
X72107768Y-66698480D02*
X71845863Y-66698480D01*
D11*
X31066665Y-1727190D02*
X31371427Y-1727190D01*
X31371427Y-1727190D02*
X31523808Y-1803380D01*
X31523808Y-1803380D02*
X31676189Y-1955761D01*
X31676189Y-1955761D02*
X31752379Y-2260523D01*
X31752379Y-2260523D02*
X31752379Y-2793857D01*
X31752379Y-2793857D02*
X31676189Y-3098619D01*
X31676189Y-3098619D02*
X31523808Y-3251000D01*
X31523808Y-3251000D02*
X31371427Y-3327190D01*
X31371427Y-3327190D02*
X31066665Y-3327190D01*
X31066665Y-3327190D02*
X30914284Y-3251000D01*
X30914284Y-3251000D02*
X30761903Y-3098619D01*
X30761903Y-3098619D02*
X30685712Y-2793857D01*
X30685712Y-2793857D02*
X30685712Y-2260523D01*
X30685712Y-2260523D02*
X30761903Y-1955761D01*
X30761903Y-1955761D02*
X30914284Y-1803380D01*
X30914284Y-1803380D02*
X31066665Y-1727190D01*
X32361902Y-3251000D02*
X32590474Y-3327190D01*
X32590474Y-3327190D02*
X32971426Y-3327190D01*
X32971426Y-3327190D02*
X33123807Y-3251000D01*
X33123807Y-3251000D02*
X33199998Y-3174809D01*
X33199998Y-3174809D02*
X33276188Y-3022428D01*
X33276188Y-3022428D02*
X33276188Y-2870047D01*
X33276188Y-2870047D02*
X33199998Y-2717666D01*
X33199998Y-2717666D02*
X33123807Y-2641476D01*
X33123807Y-2641476D02*
X32971426Y-2565285D01*
X32971426Y-2565285D02*
X32666664Y-2489095D01*
X32666664Y-2489095D02*
X32514283Y-2412904D01*
X32514283Y-2412904D02*
X32438093Y-2336714D01*
X32438093Y-2336714D02*
X32361902Y-2184333D01*
X32361902Y-2184333D02*
X32361902Y-2031952D01*
X32361902Y-2031952D02*
X32438093Y-1879571D01*
X32438093Y-1879571D02*
X32514283Y-1803380D01*
X32514283Y-1803380D02*
X32666664Y-1727190D01*
X32666664Y-1727190D02*
X33047617Y-1727190D01*
X33047617Y-1727190D02*
X33276188Y-1803380D01*
X34495236Y-2489095D02*
X34723808Y-2565285D01*
X34723808Y-2565285D02*
X34799998Y-2641476D01*
X34799998Y-2641476D02*
X34876189Y-2793857D01*
X34876189Y-2793857D02*
X34876189Y-3022428D01*
X34876189Y-3022428D02*
X34799998Y-3174809D01*
X34799998Y-3174809D02*
X34723808Y-3251000D01*
X34723808Y-3251000D02*
X34571427Y-3327190D01*
X34571427Y-3327190D02*
X33961903Y-3327190D01*
X33961903Y-3327190D02*
X33961903Y-1727190D01*
X33961903Y-1727190D02*
X34495236Y-1727190D01*
X34495236Y-1727190D02*
X34647617Y-1803380D01*
X34647617Y-1803380D02*
X34723808Y-1879571D01*
X34723808Y-1879571D02*
X34799998Y-2031952D01*
X34799998Y-2031952D02*
X34799998Y-2184333D01*
X34799998Y-2184333D02*
X34723808Y-2336714D01*
X34723808Y-2336714D02*
X34647617Y-2412904D01*
X34647617Y-2412904D02*
X34495236Y-2489095D01*
X34495236Y-2489095D02*
X33961903Y-2489095D01*
X35485712Y-2870047D02*
X36247617Y-2870047D01*
X35333331Y-3327190D02*
X35866665Y-1727190D01*
X35866665Y-1727190D02*
X36399998Y-3327190D01*
X36933332Y-3327190D02*
X36933332Y-1727190D01*
X36933332Y-1727190D02*
X37466665Y-2870047D01*
X37466665Y-2870047D02*
X37999999Y-1727190D01*
X37999999Y-1727190D02*
X37999999Y-3327190D01*
X38685712Y-3251000D02*
X38914284Y-3327190D01*
X38914284Y-3327190D02*
X39295236Y-3327190D01*
X39295236Y-3327190D02*
X39447617Y-3251000D01*
X39447617Y-3251000D02*
X39523808Y-3174809D01*
X39523808Y-3174809D02*
X39599998Y-3022428D01*
X39599998Y-3022428D02*
X39599998Y-2870047D01*
X39599998Y-2870047D02*
X39523808Y-2717666D01*
X39523808Y-2717666D02*
X39447617Y-2641476D01*
X39447617Y-2641476D02*
X39295236Y-2565285D01*
X39295236Y-2565285D02*
X38990474Y-2489095D01*
X38990474Y-2489095D02*
X38838093Y-2412904D01*
X38838093Y-2412904D02*
X38761903Y-2336714D01*
X38761903Y-2336714D02*
X38685712Y-2184333D01*
X38685712Y-2184333D02*
X38685712Y-2031952D01*
X38685712Y-2031952D02*
X38761903Y-1879571D01*
X38761903Y-1879571D02*
X38838093Y-1803380D01*
X38838093Y-1803380D02*
X38990474Y-1727190D01*
X38990474Y-1727190D02*
X39371427Y-1727190D01*
X39371427Y-1727190D02*
X39599998Y-1803380D01*
X41504761Y-3327190D02*
X41504761Y-1727190D01*
X41504761Y-1727190D02*
X42114285Y-1727190D01*
X42114285Y-1727190D02*
X42266666Y-1803380D01*
X42266666Y-1803380D02*
X42342856Y-1879571D01*
X42342856Y-1879571D02*
X42419047Y-2031952D01*
X42419047Y-2031952D02*
X42419047Y-2260523D01*
X42419047Y-2260523D02*
X42342856Y-2412904D01*
X42342856Y-2412904D02*
X42266666Y-2489095D01*
X42266666Y-2489095D02*
X42114285Y-2565285D01*
X42114285Y-2565285D02*
X41504761Y-2565285D01*
X43104761Y-3327190D02*
X43104761Y-2260523D01*
X43104761Y-1727190D02*
X43028570Y-1803380D01*
X43028570Y-1803380D02*
X43104761Y-1879571D01*
X43104761Y-1879571D02*
X43180951Y-1803380D01*
X43180951Y-1803380D02*
X43104761Y-1727190D01*
X43104761Y-1727190D02*
X43104761Y-1879571D01*
X45009523Y-1651000D02*
X43638094Y-3708142D01*
X45542856Y-3327190D02*
X45542856Y-1727190D01*
X45542856Y-1727190D02*
X45923808Y-1727190D01*
X45923808Y-1727190D02*
X46152380Y-1803380D01*
X46152380Y-1803380D02*
X46304761Y-1955761D01*
X46304761Y-1955761D02*
X46380951Y-2108142D01*
X46380951Y-2108142D02*
X46457142Y-2412904D01*
X46457142Y-2412904D02*
X46457142Y-2641476D01*
X46457142Y-2641476D02*
X46380951Y-2946238D01*
X46380951Y-2946238D02*
X46304761Y-3098619D01*
X46304761Y-3098619D02*
X46152380Y-3251000D01*
X46152380Y-3251000D02*
X45923808Y-3327190D01*
X45923808Y-3327190D02*
X45542856Y-3327190D01*
X47142856Y-3327190D02*
X47142856Y-2260523D01*
X47142856Y-1727190D02*
X47066665Y-1803380D01*
X47066665Y-1803380D02*
X47142856Y-1879571D01*
X47142856Y-1879571D02*
X47219046Y-1803380D01*
X47219046Y-1803380D02*
X47142856Y-1727190D01*
X47142856Y-1727190D02*
X47142856Y-1879571D01*
X47828570Y-3251000D02*
X47980951Y-3327190D01*
X47980951Y-3327190D02*
X48285713Y-3327190D01*
X48285713Y-3327190D02*
X48438094Y-3251000D01*
X48438094Y-3251000D02*
X48514285Y-3098619D01*
X48514285Y-3098619D02*
X48514285Y-3022428D01*
X48514285Y-3022428D02*
X48438094Y-2870047D01*
X48438094Y-2870047D02*
X48285713Y-2793857D01*
X48285713Y-2793857D02*
X48057142Y-2793857D01*
X48057142Y-2793857D02*
X47904761Y-2717666D01*
X47904761Y-2717666D02*
X47828570Y-2565285D01*
X47828570Y-2565285D02*
X47828570Y-2489095D01*
X47828570Y-2489095D02*
X47904761Y-2336714D01*
X47904761Y-2336714D02*
X48057142Y-2260523D01*
X48057142Y-2260523D02*
X48285713Y-2260523D01*
X48285713Y-2260523D02*
X48438094Y-2336714D01*
X49199999Y-2260523D02*
X49199999Y-3860523D01*
X49199999Y-2336714D02*
X49352380Y-2260523D01*
X49352380Y-2260523D02*
X49657142Y-2260523D01*
X49657142Y-2260523D02*
X49809523Y-2336714D01*
X49809523Y-2336714D02*
X49885713Y-2412904D01*
X49885713Y-2412904D02*
X49961904Y-2565285D01*
X49961904Y-2565285D02*
X49961904Y-3022428D01*
X49961904Y-3022428D02*
X49885713Y-3174809D01*
X49885713Y-3174809D02*
X49809523Y-3251000D01*
X49809523Y-3251000D02*
X49657142Y-3327190D01*
X49657142Y-3327190D02*
X49352380Y-3327190D01*
X49352380Y-3327190D02*
X49199999Y-3251000D01*
X50876189Y-3327190D02*
X50723808Y-3251000D01*
X50723808Y-3251000D02*
X50647618Y-3098619D01*
X50647618Y-3098619D02*
X50647618Y-1727190D01*
X52171427Y-3327190D02*
X52171427Y-2489095D01*
X52171427Y-2489095D02*
X52095237Y-2336714D01*
X52095237Y-2336714D02*
X51942856Y-2260523D01*
X51942856Y-2260523D02*
X51638094Y-2260523D01*
X51638094Y-2260523D02*
X51485713Y-2336714D01*
X52171427Y-3251000D02*
X52019046Y-3327190D01*
X52019046Y-3327190D02*
X51638094Y-3327190D01*
X51638094Y-3327190D02*
X51485713Y-3251000D01*
X51485713Y-3251000D02*
X51409522Y-3098619D01*
X51409522Y-3098619D02*
X51409522Y-2946238D01*
X51409522Y-2946238D02*
X51485713Y-2793857D01*
X51485713Y-2793857D02*
X51638094Y-2717666D01*
X51638094Y-2717666D02*
X52019046Y-2717666D01*
X52019046Y-2717666D02*
X52171427Y-2641476D01*
X52780951Y-2260523D02*
X53161903Y-3327190D01*
X53542856Y-2260523D02*
X53161903Y-3327190D01*
X53161903Y-3327190D02*
X53009522Y-3708142D01*
X53009522Y-3708142D02*
X52933332Y-3784333D01*
X52933332Y-3784333D02*
X52780951Y-3860523D01*
X55371428Y-3327190D02*
X55371428Y-1727190D01*
X55371428Y-1727190D02*
X55980952Y-1727190D01*
X55980952Y-1727190D02*
X56133333Y-1803380D01*
X56133333Y-1803380D02*
X56209523Y-1879571D01*
X56209523Y-1879571D02*
X56285714Y-2031952D01*
X56285714Y-2031952D02*
X56285714Y-2260523D01*
X56285714Y-2260523D02*
X56209523Y-2412904D01*
X56209523Y-2412904D02*
X56133333Y-2489095D01*
X56133333Y-2489095D02*
X55980952Y-2565285D01*
X55980952Y-2565285D02*
X55371428Y-2565285D01*
X57199999Y-3327190D02*
X57047618Y-3251000D01*
X57047618Y-3251000D02*
X56971428Y-3174809D01*
X56971428Y-3174809D02*
X56895237Y-3022428D01*
X56895237Y-3022428D02*
X56895237Y-2565285D01*
X56895237Y-2565285D02*
X56971428Y-2412904D01*
X56971428Y-2412904D02*
X57047618Y-2336714D01*
X57047618Y-2336714D02*
X57199999Y-2260523D01*
X57199999Y-2260523D02*
X57428571Y-2260523D01*
X57428571Y-2260523D02*
X57580952Y-2336714D01*
X57580952Y-2336714D02*
X57657142Y-2412904D01*
X57657142Y-2412904D02*
X57733333Y-2565285D01*
X57733333Y-2565285D02*
X57733333Y-3022428D01*
X57733333Y-3022428D02*
X57657142Y-3174809D01*
X57657142Y-3174809D02*
X57580952Y-3251000D01*
X57580952Y-3251000D02*
X57428571Y-3327190D01*
X57428571Y-3327190D02*
X57199999Y-3327190D01*
X58266666Y-2260523D02*
X58571428Y-3327190D01*
X58571428Y-3327190D02*
X58876190Y-2565285D01*
X58876190Y-2565285D02*
X59180952Y-3327190D01*
X59180952Y-3327190D02*
X59485714Y-2260523D01*
X60704761Y-3251000D02*
X60552380Y-3327190D01*
X60552380Y-3327190D02*
X60247618Y-3327190D01*
X60247618Y-3327190D02*
X60095237Y-3251000D01*
X60095237Y-3251000D02*
X60019046Y-3098619D01*
X60019046Y-3098619D02*
X60019046Y-2489095D01*
X60019046Y-2489095D02*
X60095237Y-2336714D01*
X60095237Y-2336714D02*
X60247618Y-2260523D01*
X60247618Y-2260523D02*
X60552380Y-2260523D01*
X60552380Y-2260523D02*
X60704761Y-2336714D01*
X60704761Y-2336714D02*
X60780951Y-2489095D01*
X60780951Y-2489095D02*
X60780951Y-2641476D01*
X60780951Y-2641476D02*
X60019046Y-2793857D01*
X61466666Y-3327190D02*
X61466666Y-2260523D01*
X61466666Y-2565285D02*
X61542856Y-2412904D01*
X61542856Y-2412904D02*
X61619047Y-2336714D01*
X61619047Y-2336714D02*
X61771428Y-2260523D01*
X61771428Y-2260523D02*
X61923809Y-2260523D01*
X64590476Y-3327190D02*
X64057142Y-2565285D01*
X63676190Y-3327190D02*
X63676190Y-1727190D01*
X63676190Y-1727190D02*
X64285714Y-1727190D01*
X64285714Y-1727190D02*
X64438095Y-1803380D01*
X64438095Y-1803380D02*
X64514285Y-1879571D01*
X64514285Y-1879571D02*
X64590476Y-2031952D01*
X64590476Y-2031952D02*
X64590476Y-2260523D01*
X64590476Y-2260523D02*
X64514285Y-2412904D01*
X64514285Y-2412904D02*
X64438095Y-2489095D01*
X64438095Y-2489095D02*
X64285714Y-2565285D01*
X64285714Y-2565285D02*
X63676190Y-2565285D01*
X65885714Y-3251000D02*
X65733333Y-3327190D01*
X65733333Y-3327190D02*
X65428571Y-3327190D01*
X65428571Y-3327190D02*
X65276190Y-3251000D01*
X65276190Y-3251000D02*
X65199999Y-3098619D01*
X65199999Y-3098619D02*
X65199999Y-2489095D01*
X65199999Y-2489095D02*
X65276190Y-2336714D01*
X65276190Y-2336714D02*
X65428571Y-2260523D01*
X65428571Y-2260523D02*
X65733333Y-2260523D01*
X65733333Y-2260523D02*
X65885714Y-2336714D01*
X65885714Y-2336714D02*
X65961904Y-2489095D01*
X65961904Y-2489095D02*
X65961904Y-2641476D01*
X65961904Y-2641476D02*
X65199999Y-2793857D01*
X66495238Y-2260523D02*
X66876190Y-3327190D01*
X66876190Y-3327190D02*
X67257143Y-2260523D01*
X67866667Y-3174809D02*
X67942857Y-3251000D01*
X67942857Y-3251000D02*
X67866667Y-3327190D01*
X67866667Y-3327190D02*
X67790476Y-3251000D01*
X67790476Y-3251000D02*
X67866667Y-3174809D01*
X67866667Y-3174809D02*
X67866667Y-3327190D01*
X68552381Y-2870047D02*
X69314286Y-2870047D01*
X68400000Y-3327190D02*
X68933334Y-1727190D01*
X68933334Y-1727190D02*
X69466667Y-3327190D01*
D10*
X39066666Y-40559695D02*
X39066666Y-39759695D01*
X39066666Y-39759695D02*
X39523809Y-40559695D01*
X39523809Y-40559695D02*
X39523809Y-39759695D01*
X40057142Y-39759695D02*
X40209523Y-39759695D01*
X40209523Y-39759695D02*
X40285713Y-39797790D01*
X40285713Y-39797790D02*
X40361904Y-39873980D01*
X40361904Y-39873980D02*
X40399999Y-40026361D01*
X40399999Y-40026361D02*
X40399999Y-40293028D01*
X40399999Y-40293028D02*
X40361904Y-40445409D01*
X40361904Y-40445409D02*
X40285713Y-40521600D01*
X40285713Y-40521600D02*
X40209523Y-40559695D01*
X40209523Y-40559695D02*
X40057142Y-40559695D01*
X40057142Y-40559695D02*
X39980951Y-40521600D01*
X39980951Y-40521600D02*
X39904761Y-40445409D01*
X39904761Y-40445409D02*
X39866665Y-40293028D01*
X39866665Y-40293028D02*
X39866665Y-40026361D01*
X39866665Y-40026361D02*
X39904761Y-39873980D01*
X39904761Y-39873980D02*
X39980951Y-39797790D01*
X39980951Y-39797790D02*
X40057142Y-39759695D01*
X41809523Y-40483504D02*
X41771427Y-40521600D01*
X41771427Y-40521600D02*
X41657142Y-40559695D01*
X41657142Y-40559695D02*
X41580951Y-40559695D01*
X41580951Y-40559695D02*
X41466665Y-40521600D01*
X41466665Y-40521600D02*
X41390475Y-40445409D01*
X41390475Y-40445409D02*
X41352380Y-40369219D01*
X41352380Y-40369219D02*
X41314284Y-40216838D01*
X41314284Y-40216838D02*
X41314284Y-40102552D01*
X41314284Y-40102552D02*
X41352380Y-39950171D01*
X41352380Y-39950171D02*
X41390475Y-39873980D01*
X41390475Y-39873980D02*
X41466665Y-39797790D01*
X41466665Y-39797790D02*
X41580951Y-39759695D01*
X41580951Y-39759695D02*
X41657142Y-39759695D01*
X41657142Y-39759695D02*
X41771427Y-39797790D01*
X41771427Y-39797790D02*
X41809523Y-39835885D01*
X42304761Y-39759695D02*
X42457142Y-39759695D01*
X42457142Y-39759695D02*
X42533332Y-39797790D01*
X42533332Y-39797790D02*
X42609523Y-39873980D01*
X42609523Y-39873980D02*
X42647618Y-40026361D01*
X42647618Y-40026361D02*
X42647618Y-40293028D01*
X42647618Y-40293028D02*
X42609523Y-40445409D01*
X42609523Y-40445409D02*
X42533332Y-40521600D01*
X42533332Y-40521600D02*
X42457142Y-40559695D01*
X42457142Y-40559695D02*
X42304761Y-40559695D01*
X42304761Y-40559695D02*
X42228570Y-40521600D01*
X42228570Y-40521600D02*
X42152380Y-40445409D01*
X42152380Y-40445409D02*
X42114284Y-40293028D01*
X42114284Y-40293028D02*
X42114284Y-40026361D01*
X42114284Y-40026361D02*
X42152380Y-39873980D01*
X42152380Y-39873980D02*
X42228570Y-39797790D01*
X42228570Y-39797790D02*
X42304761Y-39759695D01*
X42990475Y-40559695D02*
X42990475Y-39759695D01*
X42990475Y-39759695D02*
X43295237Y-39759695D01*
X43295237Y-39759695D02*
X43371427Y-39797790D01*
X43371427Y-39797790D02*
X43409522Y-39835885D01*
X43409522Y-39835885D02*
X43447618Y-39912076D01*
X43447618Y-39912076D02*
X43447618Y-40026361D01*
X43447618Y-40026361D02*
X43409522Y-40102552D01*
X43409522Y-40102552D02*
X43371427Y-40140647D01*
X43371427Y-40140647D02*
X43295237Y-40178742D01*
X43295237Y-40178742D02*
X42990475Y-40178742D01*
X43790475Y-40559695D02*
X43790475Y-39759695D01*
X43790475Y-39759695D02*
X44095237Y-39759695D01*
X44095237Y-39759695D02*
X44171427Y-39797790D01*
X44171427Y-39797790D02*
X44209522Y-39835885D01*
X44209522Y-39835885D02*
X44247618Y-39912076D01*
X44247618Y-39912076D02*
X44247618Y-40026361D01*
X44247618Y-40026361D02*
X44209522Y-40102552D01*
X44209522Y-40102552D02*
X44171427Y-40140647D01*
X44171427Y-40140647D02*
X44095237Y-40178742D01*
X44095237Y-40178742D02*
X43790475Y-40178742D01*
X44590475Y-40140647D02*
X44857141Y-40140647D01*
X44971427Y-40559695D02*
X44590475Y-40559695D01*
X44590475Y-40559695D02*
X44590475Y-39759695D01*
X44590475Y-39759695D02*
X44971427Y-39759695D01*
X45771428Y-40559695D02*
X45504761Y-40178742D01*
X45314285Y-40559695D02*
X45314285Y-39759695D01*
X45314285Y-39759695D02*
X45619047Y-39759695D01*
X45619047Y-39759695D02*
X45695237Y-39797790D01*
X45695237Y-39797790D02*
X45733332Y-39835885D01*
X45733332Y-39835885D02*
X45771428Y-39912076D01*
X45771428Y-39912076D02*
X45771428Y-40026361D01*
X45771428Y-40026361D02*
X45733332Y-40102552D01*
X45733332Y-40102552D02*
X45695237Y-40140647D01*
X45695237Y-40140647D02*
X45619047Y-40178742D01*
X45619047Y-40178742D02*
X45314285Y-40178742D01*
X47180952Y-40483504D02*
X47142856Y-40521600D01*
X47142856Y-40521600D02*
X47028571Y-40559695D01*
X47028571Y-40559695D02*
X46952380Y-40559695D01*
X46952380Y-40559695D02*
X46838094Y-40521600D01*
X46838094Y-40521600D02*
X46761904Y-40445409D01*
X46761904Y-40445409D02*
X46723809Y-40369219D01*
X46723809Y-40369219D02*
X46685713Y-40216838D01*
X46685713Y-40216838D02*
X46685713Y-40102552D01*
X46685713Y-40102552D02*
X46723809Y-39950171D01*
X46723809Y-39950171D02*
X46761904Y-39873980D01*
X46761904Y-39873980D02*
X46838094Y-39797790D01*
X46838094Y-39797790D02*
X46952380Y-39759695D01*
X46952380Y-39759695D02*
X47028571Y-39759695D01*
X47028571Y-39759695D02*
X47142856Y-39797790D01*
X47142856Y-39797790D02*
X47180952Y-39835885D01*
X47980952Y-40559695D02*
X47714285Y-40178742D01*
X47523809Y-40559695D02*
X47523809Y-39759695D01*
X47523809Y-39759695D02*
X47828571Y-39759695D01*
X47828571Y-39759695D02*
X47904761Y-39797790D01*
X47904761Y-39797790D02*
X47942856Y-39835885D01*
X47942856Y-39835885D02*
X47980952Y-39912076D01*
X47980952Y-39912076D02*
X47980952Y-40026361D01*
X47980952Y-40026361D02*
X47942856Y-40102552D01*
X47942856Y-40102552D02*
X47904761Y-40140647D01*
X47904761Y-40140647D02*
X47828571Y-40178742D01*
X47828571Y-40178742D02*
X47523809Y-40178742D01*
X48476190Y-39759695D02*
X48628571Y-39759695D01*
X48628571Y-39759695D02*
X48704761Y-39797790D01*
X48704761Y-39797790D02*
X48780952Y-39873980D01*
X48780952Y-39873980D02*
X48819047Y-40026361D01*
X48819047Y-40026361D02*
X48819047Y-40293028D01*
X48819047Y-40293028D02*
X48780952Y-40445409D01*
X48780952Y-40445409D02*
X48704761Y-40521600D01*
X48704761Y-40521600D02*
X48628571Y-40559695D01*
X48628571Y-40559695D02*
X48476190Y-40559695D01*
X48476190Y-40559695D02*
X48399999Y-40521600D01*
X48399999Y-40521600D02*
X48323809Y-40445409D01*
X48323809Y-40445409D02*
X48285713Y-40293028D01*
X48285713Y-40293028D02*
X48285713Y-40026361D01*
X48285713Y-40026361D02*
X48323809Y-39873980D01*
X48323809Y-39873980D02*
X48399999Y-39797790D01*
X48399999Y-39797790D02*
X48476190Y-39759695D01*
X49123808Y-40521600D02*
X49238094Y-40559695D01*
X49238094Y-40559695D02*
X49428570Y-40559695D01*
X49428570Y-40559695D02*
X49504761Y-40521600D01*
X49504761Y-40521600D02*
X49542856Y-40483504D01*
X49542856Y-40483504D02*
X49580951Y-40407314D01*
X49580951Y-40407314D02*
X49580951Y-40331123D01*
X49580951Y-40331123D02*
X49542856Y-40254933D01*
X49542856Y-40254933D02*
X49504761Y-40216838D01*
X49504761Y-40216838D02*
X49428570Y-40178742D01*
X49428570Y-40178742D02*
X49276189Y-40140647D01*
X49276189Y-40140647D02*
X49199999Y-40102552D01*
X49199999Y-40102552D02*
X49161904Y-40064457D01*
X49161904Y-40064457D02*
X49123808Y-39988266D01*
X49123808Y-39988266D02*
X49123808Y-39912076D01*
X49123808Y-39912076D02*
X49161904Y-39835885D01*
X49161904Y-39835885D02*
X49199999Y-39797790D01*
X49199999Y-39797790D02*
X49276189Y-39759695D01*
X49276189Y-39759695D02*
X49466666Y-39759695D01*
X49466666Y-39759695D02*
X49580951Y-39797790D01*
X49885713Y-40521600D02*
X49999999Y-40559695D01*
X49999999Y-40559695D02*
X50190475Y-40559695D01*
X50190475Y-40559695D02*
X50266666Y-40521600D01*
X50266666Y-40521600D02*
X50304761Y-40483504D01*
X50304761Y-40483504D02*
X50342856Y-40407314D01*
X50342856Y-40407314D02*
X50342856Y-40331123D01*
X50342856Y-40331123D02*
X50304761Y-40254933D01*
X50304761Y-40254933D02*
X50266666Y-40216838D01*
X50266666Y-40216838D02*
X50190475Y-40178742D01*
X50190475Y-40178742D02*
X50038094Y-40140647D01*
X50038094Y-40140647D02*
X49961904Y-40102552D01*
X49961904Y-40102552D02*
X49923809Y-40064457D01*
X49923809Y-40064457D02*
X49885713Y-39988266D01*
X49885713Y-39988266D02*
X49885713Y-39912076D01*
X49885713Y-39912076D02*
X49923809Y-39835885D01*
X49923809Y-39835885D02*
X49961904Y-39797790D01*
X49961904Y-39797790D02*
X50038094Y-39759695D01*
X50038094Y-39759695D02*
X50228571Y-39759695D01*
X50228571Y-39759695D02*
X50342856Y-39797790D01*
X50685714Y-40559695D02*
X50685714Y-39759695D01*
X51066666Y-40559695D02*
X51066666Y-39759695D01*
X51066666Y-39759695D02*
X51523809Y-40559695D01*
X51523809Y-40559695D02*
X51523809Y-39759695D01*
X52323808Y-39797790D02*
X52247618Y-39759695D01*
X52247618Y-39759695D02*
X52133332Y-39759695D01*
X52133332Y-39759695D02*
X52019046Y-39797790D01*
X52019046Y-39797790D02*
X51942856Y-39873980D01*
X51942856Y-39873980D02*
X51904761Y-39950171D01*
X51904761Y-39950171D02*
X51866665Y-40102552D01*
X51866665Y-40102552D02*
X51866665Y-40216838D01*
X51866665Y-40216838D02*
X51904761Y-40369219D01*
X51904761Y-40369219D02*
X51942856Y-40445409D01*
X51942856Y-40445409D02*
X52019046Y-40521600D01*
X52019046Y-40521600D02*
X52133332Y-40559695D01*
X52133332Y-40559695D02*
X52209523Y-40559695D01*
X52209523Y-40559695D02*
X52323808Y-40521600D01*
X52323808Y-40521600D02*
X52361904Y-40483504D01*
X52361904Y-40483504D02*
X52361904Y-40216838D01*
X52361904Y-40216838D02*
X52209523Y-40216838D01*
X53885713Y-39721600D02*
X53199999Y-40750171D01*
X55180951Y-40559695D02*
X54723808Y-40559695D01*
X54952380Y-40559695D02*
X54952380Y-39759695D01*
X54952380Y-39759695D02*
X54876189Y-39873980D01*
X54876189Y-39873980D02*
X54799999Y-39950171D01*
X54799999Y-39950171D02*
X54723808Y-39988266D01*
X55676190Y-39759695D02*
X55752380Y-39759695D01*
X55752380Y-39759695D02*
X55828571Y-39797790D01*
X55828571Y-39797790D02*
X55866666Y-39835885D01*
X55866666Y-39835885D02*
X55904761Y-39912076D01*
X55904761Y-39912076D02*
X55942856Y-40064457D01*
X55942856Y-40064457D02*
X55942856Y-40254933D01*
X55942856Y-40254933D02*
X55904761Y-40407314D01*
X55904761Y-40407314D02*
X55866666Y-40483504D01*
X55866666Y-40483504D02*
X55828571Y-40521600D01*
X55828571Y-40521600D02*
X55752380Y-40559695D01*
X55752380Y-40559695D02*
X55676190Y-40559695D01*
X55676190Y-40559695D02*
X55599999Y-40521600D01*
X55599999Y-40521600D02*
X55561904Y-40483504D01*
X55561904Y-40483504D02*
X55523809Y-40407314D01*
X55523809Y-40407314D02*
X55485713Y-40254933D01*
X55485713Y-40254933D02*
X55485713Y-40064457D01*
X55485713Y-40064457D02*
X55523809Y-39912076D01*
X55523809Y-39912076D02*
X55561904Y-39835885D01*
X55561904Y-39835885D02*
X55599999Y-39797790D01*
X55599999Y-39797790D02*
X55676190Y-39759695D01*
X56285714Y-40559695D02*
X56285714Y-40026361D01*
X56285714Y-40102552D02*
X56323809Y-40064457D01*
X56323809Y-40064457D02*
X56399999Y-40026361D01*
X56399999Y-40026361D02*
X56514285Y-40026361D01*
X56514285Y-40026361D02*
X56590476Y-40064457D01*
X56590476Y-40064457D02*
X56628571Y-40140647D01*
X56628571Y-40140647D02*
X56628571Y-40559695D01*
X56628571Y-40140647D02*
X56666666Y-40064457D01*
X56666666Y-40064457D02*
X56742857Y-40026361D01*
X56742857Y-40026361D02*
X56857142Y-40026361D01*
X56857142Y-40026361D02*
X56933333Y-40064457D01*
X56933333Y-40064457D02*
X56971428Y-40140647D01*
X56971428Y-40140647D02*
X56971428Y-40559695D01*
X57352381Y-40559695D02*
X57352381Y-40026361D01*
X57352381Y-40102552D02*
X57390476Y-40064457D01*
X57390476Y-40064457D02*
X57466666Y-40026361D01*
X57466666Y-40026361D02*
X57580952Y-40026361D01*
X57580952Y-40026361D02*
X57657143Y-40064457D01*
X57657143Y-40064457D02*
X57695238Y-40140647D01*
X57695238Y-40140647D02*
X57695238Y-40559695D01*
X57695238Y-40140647D02*
X57733333Y-40064457D01*
X57733333Y-40064457D02*
X57809524Y-40026361D01*
X57809524Y-40026361D02*
X57923809Y-40026361D01*
X57923809Y-40026361D02*
X58000000Y-40064457D01*
X58000000Y-40064457D02*
X58038095Y-40140647D01*
X58038095Y-40140647D02*
X58038095Y-40559695D01*
X59447619Y-39797790D02*
X59371429Y-39759695D01*
X59371429Y-39759695D02*
X59257143Y-39759695D01*
X59257143Y-39759695D02*
X59142857Y-39797790D01*
X59142857Y-39797790D02*
X59066667Y-39873980D01*
X59066667Y-39873980D02*
X59028572Y-39950171D01*
X59028572Y-39950171D02*
X58990476Y-40102552D01*
X58990476Y-40102552D02*
X58990476Y-40216838D01*
X58990476Y-40216838D02*
X59028572Y-40369219D01*
X59028572Y-40369219D02*
X59066667Y-40445409D01*
X59066667Y-40445409D02*
X59142857Y-40521600D01*
X59142857Y-40521600D02*
X59257143Y-40559695D01*
X59257143Y-40559695D02*
X59333334Y-40559695D01*
X59333334Y-40559695D02*
X59447619Y-40521600D01*
X59447619Y-40521600D02*
X59485715Y-40483504D01*
X59485715Y-40483504D02*
X59485715Y-40216838D01*
X59485715Y-40216838D02*
X59333334Y-40216838D01*
X59790476Y-40331123D02*
X60171429Y-40331123D01*
X59714286Y-40559695D02*
X59980953Y-39759695D01*
X59980953Y-39759695D02*
X60247619Y-40559695D01*
X60514286Y-40559695D02*
X60514286Y-39759695D01*
X60514286Y-39759695D02*
X60819048Y-39759695D01*
X60819048Y-39759695D02*
X60895238Y-39797790D01*
X60895238Y-39797790D02*
X60933333Y-39835885D01*
X60933333Y-39835885D02*
X60971429Y-39912076D01*
X60971429Y-39912076D02*
X60971429Y-40026361D01*
X60971429Y-40026361D02*
X60933333Y-40102552D01*
X60933333Y-40102552D02*
X60895238Y-40140647D01*
X60895238Y-40140647D02*
X60819048Y-40178742D01*
X60819048Y-40178742D02*
X60514286Y-40178742D01*
X56779197Y-52359695D02*
X56512530Y-51978742D01*
X56322054Y-52359695D02*
X56322054Y-51559695D01*
X56322054Y-51559695D02*
X56626816Y-51559695D01*
X56626816Y-51559695D02*
X56703006Y-51597790D01*
X56703006Y-51597790D02*
X56741101Y-51635885D01*
X56741101Y-51635885D02*
X56779197Y-51712076D01*
X56779197Y-51712076D02*
X56779197Y-51826361D01*
X56779197Y-51826361D02*
X56741101Y-51902552D01*
X56741101Y-51902552D02*
X56703006Y-51940647D01*
X56703006Y-51940647D02*
X56626816Y-51978742D01*
X56626816Y-51978742D02*
X56322054Y-51978742D01*
X57083958Y-51635885D02*
X57122054Y-51597790D01*
X57122054Y-51597790D02*
X57198244Y-51559695D01*
X57198244Y-51559695D02*
X57388720Y-51559695D01*
X57388720Y-51559695D02*
X57464911Y-51597790D01*
X57464911Y-51597790D02*
X57503006Y-51635885D01*
X57503006Y-51635885D02*
X57541101Y-51712076D01*
X57541101Y-51712076D02*
X57541101Y-51788266D01*
X57541101Y-51788266D02*
X57503006Y-51902552D01*
X57503006Y-51902552D02*
X57045863Y-52359695D01*
X57045863Y-52359695D02*
X57541101Y-52359695D01*
X58455387Y-51521600D02*
X57769673Y-52550171D01*
X59179197Y-52359695D02*
X58912530Y-51978742D01*
X58722054Y-52359695D02*
X58722054Y-51559695D01*
X58722054Y-51559695D02*
X59026816Y-51559695D01*
X59026816Y-51559695D02*
X59103006Y-51597790D01*
X59103006Y-51597790D02*
X59141101Y-51635885D01*
X59141101Y-51635885D02*
X59179197Y-51712076D01*
X59179197Y-51712076D02*
X59179197Y-51826361D01*
X59179197Y-51826361D02*
X59141101Y-51902552D01*
X59141101Y-51902552D02*
X59103006Y-51940647D01*
X59103006Y-51940647D02*
X59026816Y-51978742D01*
X59026816Y-51978742D02*
X58722054Y-51978742D01*
X59445863Y-51559695D02*
X59941101Y-51559695D01*
X59941101Y-51559695D02*
X59674435Y-51864457D01*
X59674435Y-51864457D02*
X59788720Y-51864457D01*
X59788720Y-51864457D02*
X59864911Y-51902552D01*
X59864911Y-51902552D02*
X59903006Y-51940647D01*
X59903006Y-51940647D02*
X59941101Y-52016838D01*
X59941101Y-52016838D02*
X59941101Y-52207314D01*
X59941101Y-52207314D02*
X59903006Y-52283504D01*
X59903006Y-52283504D02*
X59864911Y-52321600D01*
X59864911Y-52321600D02*
X59788720Y-52359695D01*
X59788720Y-52359695D02*
X59560149Y-52359695D01*
X59560149Y-52359695D02*
X59483958Y-52321600D01*
X59483958Y-52321600D02*
X59445863Y-52283504D01*
X60893483Y-52359695D02*
X60893483Y-51559695D01*
X60893483Y-51559695D02*
X61083959Y-51559695D01*
X61083959Y-51559695D02*
X61198245Y-51597790D01*
X61198245Y-51597790D02*
X61274435Y-51673980D01*
X61274435Y-51673980D02*
X61312530Y-51750171D01*
X61312530Y-51750171D02*
X61350626Y-51902552D01*
X61350626Y-51902552D02*
X61350626Y-52016838D01*
X61350626Y-52016838D02*
X61312530Y-52169219D01*
X61312530Y-52169219D02*
X61274435Y-52245409D01*
X61274435Y-52245409D02*
X61198245Y-52321600D01*
X61198245Y-52321600D02*
X61083959Y-52359695D01*
X61083959Y-52359695D02*
X60893483Y-52359695D01*
X61693483Y-52359695D02*
X61693483Y-51559695D01*
X61693483Y-51559695D02*
X62150626Y-52359695D01*
X62150626Y-52359695D02*
X62150626Y-51559695D01*
X62531578Y-52359695D02*
X62531578Y-51559695D01*
X62531578Y-51559695D02*
X62836340Y-51559695D01*
X62836340Y-51559695D02*
X62912530Y-51597790D01*
X62912530Y-51597790D02*
X62950625Y-51635885D01*
X62950625Y-51635885D02*
X62988721Y-51712076D01*
X62988721Y-51712076D02*
X62988721Y-51826361D01*
X62988721Y-51826361D02*
X62950625Y-51902552D01*
X62950625Y-51902552D02*
X62912530Y-51940647D01*
X62912530Y-51940647D02*
X62836340Y-51978742D01*
X62836340Y-51978742D02*
X62531578Y-51978742D01*
X63941102Y-52054933D02*
X64550626Y-52054933D01*
X65426816Y-51559695D02*
X65883959Y-51559695D01*
X65655387Y-52359695D02*
X65655387Y-51559695D01*
X66607769Y-52359695D02*
X66341102Y-51978742D01*
X66150626Y-52359695D02*
X66150626Y-51559695D01*
X66150626Y-51559695D02*
X66455388Y-51559695D01*
X66455388Y-51559695D02*
X66531578Y-51597790D01*
X66531578Y-51597790D02*
X66569673Y-51635885D01*
X66569673Y-51635885D02*
X66607769Y-51712076D01*
X66607769Y-51712076D02*
X66607769Y-51826361D01*
X66607769Y-51826361D02*
X66569673Y-51902552D01*
X66569673Y-51902552D02*
X66531578Y-51940647D01*
X66531578Y-51940647D02*
X66455388Y-51978742D01*
X66455388Y-51978742D02*
X66150626Y-51978742D01*
X66950626Y-52359695D02*
X66950626Y-51559695D01*
X67331578Y-52359695D02*
X67331578Y-51559695D01*
X67331578Y-51559695D02*
X67598244Y-52131123D01*
X67598244Y-52131123D02*
X67864911Y-51559695D01*
X67864911Y-51559695D02*
X67864911Y-52359695D01*
X69007769Y-51559695D02*
X69160150Y-51559695D01*
X69160150Y-51559695D02*
X69236340Y-51597790D01*
X69236340Y-51597790D02*
X69312531Y-51673980D01*
X69312531Y-51673980D02*
X69350626Y-51826361D01*
X69350626Y-51826361D02*
X69350626Y-52093028D01*
X69350626Y-52093028D02*
X69312531Y-52245409D01*
X69312531Y-52245409D02*
X69236340Y-52321600D01*
X69236340Y-52321600D02*
X69160150Y-52359695D01*
X69160150Y-52359695D02*
X69007769Y-52359695D01*
X69007769Y-52359695D02*
X68931578Y-52321600D01*
X68931578Y-52321600D02*
X68855388Y-52245409D01*
X68855388Y-52245409D02*
X68817292Y-52093028D01*
X68817292Y-52093028D02*
X68817292Y-51826361D01*
X68817292Y-51826361D02*
X68855388Y-51673980D01*
X68855388Y-51673980D02*
X68931578Y-51597790D01*
X68931578Y-51597790D02*
X69007769Y-51559695D01*
X69693483Y-52359695D02*
X69693483Y-51559695D01*
X69693483Y-51559695D02*
X69998245Y-51559695D01*
X69998245Y-51559695D02*
X70074435Y-51597790D01*
X70074435Y-51597790D02*
X70112530Y-51635885D01*
X70112530Y-51635885D02*
X70150626Y-51712076D01*
X70150626Y-51712076D02*
X70150626Y-51826361D01*
X70150626Y-51826361D02*
X70112530Y-51902552D01*
X70112530Y-51902552D02*
X70074435Y-51940647D01*
X70074435Y-51940647D02*
X69998245Y-51978742D01*
X69998245Y-51978742D02*
X69693483Y-51978742D01*
X70379197Y-51559695D02*
X70836340Y-51559695D01*
X70607768Y-52359695D02*
X70607768Y-51559695D01*
X71103007Y-52359695D02*
X71103007Y-51559695D01*
X71636340Y-51559695D02*
X71788721Y-51559695D01*
X71788721Y-51559695D02*
X71864911Y-51597790D01*
X71864911Y-51597790D02*
X71941102Y-51673980D01*
X71941102Y-51673980D02*
X71979197Y-51826361D01*
X71979197Y-51826361D02*
X71979197Y-52093028D01*
X71979197Y-52093028D02*
X71941102Y-52245409D01*
X71941102Y-52245409D02*
X71864911Y-52321600D01*
X71864911Y-52321600D02*
X71788721Y-52359695D01*
X71788721Y-52359695D02*
X71636340Y-52359695D01*
X71636340Y-52359695D02*
X71560149Y-52321600D01*
X71560149Y-52321600D02*
X71483959Y-52245409D01*
X71483959Y-52245409D02*
X71445863Y-52093028D01*
X71445863Y-52093028D02*
X71445863Y-51826361D01*
X71445863Y-51826361D02*
X71483959Y-51673980D01*
X71483959Y-51673980D02*
X71560149Y-51597790D01*
X71560149Y-51597790D02*
X71636340Y-51559695D01*
X72322054Y-52359695D02*
X72322054Y-51559695D01*
X72322054Y-51559695D02*
X72779197Y-52359695D01*
X72779197Y-52359695D02*
X72779197Y-51559695D01*
X43790477Y-69359695D02*
X43523810Y-68978742D01*
X43333334Y-69359695D02*
X43333334Y-68559695D01*
X43333334Y-68559695D02*
X43638096Y-68559695D01*
X43638096Y-68559695D02*
X43714286Y-68597790D01*
X43714286Y-68597790D02*
X43752381Y-68635885D01*
X43752381Y-68635885D02*
X43790477Y-68712076D01*
X43790477Y-68712076D02*
X43790477Y-68826361D01*
X43790477Y-68826361D02*
X43752381Y-68902552D01*
X43752381Y-68902552D02*
X43714286Y-68940647D01*
X43714286Y-68940647D02*
X43638096Y-68978742D01*
X43638096Y-68978742D02*
X43333334Y-68978742D01*
X44590477Y-69283504D02*
X44552381Y-69321600D01*
X44552381Y-69321600D02*
X44438096Y-69359695D01*
X44438096Y-69359695D02*
X44361905Y-69359695D01*
X44361905Y-69359695D02*
X44247619Y-69321600D01*
X44247619Y-69321600D02*
X44171429Y-69245409D01*
X44171429Y-69245409D02*
X44133334Y-69169219D01*
X44133334Y-69169219D02*
X44095238Y-69016838D01*
X44095238Y-69016838D02*
X44095238Y-68902552D01*
X44095238Y-68902552D02*
X44133334Y-68750171D01*
X44133334Y-68750171D02*
X44171429Y-68673980D01*
X44171429Y-68673980D02*
X44247619Y-68597790D01*
X44247619Y-68597790D02*
X44361905Y-68559695D01*
X44361905Y-68559695D02*
X44438096Y-68559695D01*
X44438096Y-68559695D02*
X44552381Y-68597790D01*
X44552381Y-68597790D02*
X44590477Y-68635885D01*
X45352381Y-69359695D02*
X44895238Y-69359695D01*
X45123810Y-69359695D02*
X45123810Y-68559695D01*
X45123810Y-68559695D02*
X45047619Y-68673980D01*
X45047619Y-68673980D02*
X44971429Y-68750171D01*
X44971429Y-68750171D02*
X44895238Y-68788266D01*
X45695239Y-69283504D02*
X45733334Y-69321600D01*
X45733334Y-69321600D02*
X45695239Y-69359695D01*
X45695239Y-69359695D02*
X45657143Y-69321600D01*
X45657143Y-69321600D02*
X45695239Y-69283504D01*
X45695239Y-69283504D02*
X45695239Y-69359695D01*
X46495238Y-69359695D02*
X46038095Y-69359695D01*
X46266667Y-69359695D02*
X46266667Y-68559695D01*
X46266667Y-68559695D02*
X46190476Y-68673980D01*
X46190476Y-68673980D02*
X46114286Y-68750171D01*
X46114286Y-68750171D02*
X46038095Y-68788266D01*
X47447620Y-69054933D02*
X48057144Y-69054933D01*
X49047620Y-69359695D02*
X49047620Y-68559695D01*
X49047620Y-68559695D02*
X49504763Y-69359695D01*
X49504763Y-69359695D02*
X49504763Y-68559695D01*
X50038096Y-68559695D02*
X50190477Y-68559695D01*
X50190477Y-68559695D02*
X50266667Y-68597790D01*
X50266667Y-68597790D02*
X50342858Y-68673980D01*
X50342858Y-68673980D02*
X50380953Y-68826361D01*
X50380953Y-68826361D02*
X50380953Y-69093028D01*
X50380953Y-69093028D02*
X50342858Y-69245409D01*
X50342858Y-69245409D02*
X50266667Y-69321600D01*
X50266667Y-69321600D02*
X50190477Y-69359695D01*
X50190477Y-69359695D02*
X50038096Y-69359695D01*
X50038096Y-69359695D02*
X49961905Y-69321600D01*
X49961905Y-69321600D02*
X49885715Y-69245409D01*
X49885715Y-69245409D02*
X49847619Y-69093028D01*
X49847619Y-69093028D02*
X49847619Y-68826361D01*
X49847619Y-68826361D02*
X49885715Y-68673980D01*
X49885715Y-68673980D02*
X49961905Y-68597790D01*
X49961905Y-68597790D02*
X50038096Y-68559695D01*
X50609524Y-68559695D02*
X51066667Y-68559695D01*
X50838095Y-69359695D02*
X50838095Y-68559695D01*
X52209524Y-68940647D02*
X51942858Y-68940647D01*
X51942858Y-69359695D02*
X51942858Y-68559695D01*
X51942858Y-68559695D02*
X52323810Y-68559695D01*
X52780953Y-68559695D02*
X52933334Y-68559695D01*
X52933334Y-68559695D02*
X53009524Y-68597790D01*
X53009524Y-68597790D02*
X53085715Y-68673980D01*
X53085715Y-68673980D02*
X53123810Y-68826361D01*
X53123810Y-68826361D02*
X53123810Y-69093028D01*
X53123810Y-69093028D02*
X53085715Y-69245409D01*
X53085715Y-69245409D02*
X53009524Y-69321600D01*
X53009524Y-69321600D02*
X52933334Y-69359695D01*
X52933334Y-69359695D02*
X52780953Y-69359695D01*
X52780953Y-69359695D02*
X52704762Y-69321600D01*
X52704762Y-69321600D02*
X52628572Y-69245409D01*
X52628572Y-69245409D02*
X52590476Y-69093028D01*
X52590476Y-69093028D02*
X52590476Y-68826361D01*
X52590476Y-68826361D02*
X52628572Y-68673980D01*
X52628572Y-68673980D02*
X52704762Y-68597790D01*
X52704762Y-68597790D02*
X52780953Y-68559695D01*
X53923810Y-69359695D02*
X53657143Y-68978742D01*
X53466667Y-69359695D02*
X53466667Y-68559695D01*
X53466667Y-68559695D02*
X53771429Y-68559695D01*
X53771429Y-68559695D02*
X53847619Y-68597790D01*
X53847619Y-68597790D02*
X53885714Y-68635885D01*
X53885714Y-68635885D02*
X53923810Y-68712076D01*
X53923810Y-68712076D02*
X53923810Y-68826361D01*
X53923810Y-68826361D02*
X53885714Y-68902552D01*
X53885714Y-68902552D02*
X53847619Y-68940647D01*
X53847619Y-68940647D02*
X53771429Y-68978742D01*
X53771429Y-68978742D02*
X53466667Y-68978742D01*
X55142857Y-68940647D02*
X54876191Y-68940647D01*
X54876191Y-69359695D02*
X54876191Y-68559695D01*
X54876191Y-68559695D02*
X55257143Y-68559695D01*
X55523809Y-69131123D02*
X55904762Y-69131123D01*
X55447619Y-69359695D02*
X55714286Y-68559695D01*
X55714286Y-68559695D02*
X55980952Y-69359695D01*
X56514285Y-68940647D02*
X56628571Y-68978742D01*
X56628571Y-68978742D02*
X56666666Y-69016838D01*
X56666666Y-69016838D02*
X56704762Y-69093028D01*
X56704762Y-69093028D02*
X56704762Y-69207314D01*
X56704762Y-69207314D02*
X56666666Y-69283504D01*
X56666666Y-69283504D02*
X56628571Y-69321600D01*
X56628571Y-69321600D02*
X56552381Y-69359695D01*
X56552381Y-69359695D02*
X56247619Y-69359695D01*
X56247619Y-69359695D02*
X56247619Y-68559695D01*
X56247619Y-68559695D02*
X56514285Y-68559695D01*
X56514285Y-68559695D02*
X56590476Y-68597790D01*
X56590476Y-68597790D02*
X56628571Y-68635885D01*
X56628571Y-68635885D02*
X56666666Y-68712076D01*
X56666666Y-68712076D02*
X56666666Y-68788266D01*
X56666666Y-68788266D02*
X56628571Y-68864457D01*
X56628571Y-68864457D02*
X56590476Y-68902552D01*
X56590476Y-68902552D02*
X56514285Y-68940647D01*
X56514285Y-68940647D02*
X56247619Y-68940647D01*
X56741101Y-68759695D02*
X56283958Y-68759695D01*
X56512530Y-68759695D02*
X56512530Y-67959695D01*
X56512530Y-67959695D02*
X56436339Y-68073980D01*
X56436339Y-68073980D02*
X56360149Y-68150171D01*
X56360149Y-68150171D02*
X56283958Y-68188266D01*
X57122054Y-68721600D02*
X57122054Y-68759695D01*
X57122054Y-68759695D02*
X57083959Y-68835885D01*
X57083959Y-68835885D02*
X57045863Y-68873980D01*
X57426815Y-68035885D02*
X57464911Y-67997790D01*
X57464911Y-67997790D02*
X57541101Y-67959695D01*
X57541101Y-67959695D02*
X57731577Y-67959695D01*
X57731577Y-67959695D02*
X57807768Y-67997790D01*
X57807768Y-67997790D02*
X57845863Y-68035885D01*
X57845863Y-68035885D02*
X57883958Y-68112076D01*
X57883958Y-68112076D02*
X57883958Y-68188266D01*
X57883958Y-68188266D02*
X57845863Y-68302552D01*
X57845863Y-68302552D02*
X57388720Y-68759695D01*
X57388720Y-68759695D02*
X57883958Y-68759695D01*
X58226816Y-68340647D02*
X58836340Y-68340647D01*
X58836340Y-68569219D02*
X58226816Y-68569219D01*
X59217292Y-68454933D02*
X59826816Y-68454933D01*
X59522054Y-68759695D02*
X59522054Y-68150171D01*
X60588720Y-67959695D02*
X60207768Y-67959695D01*
X60207768Y-67959695D02*
X60169672Y-68340647D01*
X60169672Y-68340647D02*
X60207768Y-68302552D01*
X60207768Y-68302552D02*
X60283958Y-68264457D01*
X60283958Y-68264457D02*
X60474434Y-68264457D01*
X60474434Y-68264457D02*
X60550625Y-68302552D01*
X60550625Y-68302552D02*
X60588720Y-68340647D01*
X60588720Y-68340647D02*
X60626815Y-68416838D01*
X60626815Y-68416838D02*
X60626815Y-68607314D01*
X60626815Y-68607314D02*
X60588720Y-68683504D01*
X60588720Y-68683504D02*
X60550625Y-68721600D01*
X60550625Y-68721600D02*
X60474434Y-68759695D01*
X60474434Y-68759695D02*
X60283958Y-68759695D01*
X60283958Y-68759695D02*
X60207768Y-68721600D01*
X60207768Y-68721600D02*
X60169672Y-68683504D01*
X60855387Y-67959695D02*
X61122054Y-68759695D01*
X61122054Y-68759695D02*
X61388720Y-67959695D01*
X62188720Y-67959695D02*
X62683958Y-67959695D01*
X62683958Y-67959695D02*
X62417292Y-68264457D01*
X62417292Y-68264457D02*
X62531577Y-68264457D01*
X62531577Y-68264457D02*
X62607768Y-68302552D01*
X62607768Y-68302552D02*
X62645863Y-68340647D01*
X62645863Y-68340647D02*
X62683958Y-68416838D01*
X62683958Y-68416838D02*
X62683958Y-68607314D01*
X62683958Y-68607314D02*
X62645863Y-68683504D01*
X62645863Y-68683504D02*
X62607768Y-68721600D01*
X62607768Y-68721600D02*
X62531577Y-68759695D01*
X62531577Y-68759695D02*
X62303006Y-68759695D01*
X62303006Y-68759695D02*
X62226815Y-68721600D01*
X62226815Y-68721600D02*
X62188720Y-68683504D01*
X63064911Y-68721600D02*
X63064911Y-68759695D01*
X63064911Y-68759695D02*
X63026816Y-68835885D01*
X63026816Y-68835885D02*
X62988720Y-68873980D01*
X63750625Y-68226361D02*
X63750625Y-68759695D01*
X63560149Y-67921600D02*
X63369672Y-68493028D01*
X63369672Y-68493028D02*
X63864911Y-68493028D01*
X64169673Y-68340647D02*
X64779197Y-68340647D01*
X64779197Y-68569219D02*
X64169673Y-68569219D01*
X65579196Y-67997790D02*
X65503006Y-67959695D01*
X65503006Y-67959695D02*
X65388720Y-67959695D01*
X65388720Y-67959695D02*
X65274434Y-67997790D01*
X65274434Y-67997790D02*
X65198244Y-68073980D01*
X65198244Y-68073980D02*
X65160149Y-68150171D01*
X65160149Y-68150171D02*
X65122053Y-68302552D01*
X65122053Y-68302552D02*
X65122053Y-68416838D01*
X65122053Y-68416838D02*
X65160149Y-68569219D01*
X65160149Y-68569219D02*
X65198244Y-68645409D01*
X65198244Y-68645409D02*
X65274434Y-68721600D01*
X65274434Y-68721600D02*
X65388720Y-68759695D01*
X65388720Y-68759695D02*
X65464911Y-68759695D01*
X65464911Y-68759695D02*
X65579196Y-68721600D01*
X65579196Y-68721600D02*
X65617292Y-68683504D01*
X65617292Y-68683504D02*
X65617292Y-68416838D01*
X65617292Y-68416838D02*
X65464911Y-68416838D01*
X65960149Y-68759695D02*
X65960149Y-67959695D01*
X65960149Y-67959695D02*
X66417292Y-68759695D01*
X66417292Y-68759695D02*
X66417292Y-67959695D01*
X66798244Y-68759695D02*
X66798244Y-67959695D01*
X66798244Y-67959695D02*
X66988720Y-67959695D01*
X66988720Y-67959695D02*
X67103006Y-67997790D01*
X67103006Y-67997790D02*
X67179196Y-68073980D01*
X67179196Y-68073980D02*
X67217291Y-68150171D01*
X67217291Y-68150171D02*
X67255387Y-68302552D01*
X67255387Y-68302552D02*
X67255387Y-68416838D01*
X67255387Y-68416838D02*
X67217291Y-68569219D01*
X67217291Y-68569219D02*
X67179196Y-68645409D01*
X67179196Y-68645409D02*
X67103006Y-68721600D01*
X67103006Y-68721600D02*
X66988720Y-68759695D01*
X66988720Y-68759695D02*
X66798244Y-68759695D01*
X9417292Y-64544742D02*
X9417292Y-63344742D01*
X9417292Y-63344742D02*
X9874435Y-63344742D01*
X9874435Y-63344742D02*
X9988720Y-63401885D01*
X9988720Y-63401885D02*
X10045863Y-63459028D01*
X10045863Y-63459028D02*
X10103006Y-63573314D01*
X10103006Y-63573314D02*
X10103006Y-63744742D01*
X10103006Y-63744742D02*
X10045863Y-63859028D01*
X10045863Y-63859028D02*
X9988720Y-63916171D01*
X9988720Y-63916171D02*
X9874435Y-63973314D01*
X9874435Y-63973314D02*
X9417292Y-63973314D01*
X11303006Y-64544742D02*
X10903006Y-63973314D01*
X10617292Y-64544742D02*
X10617292Y-63344742D01*
X10617292Y-63344742D02*
X11074435Y-63344742D01*
X11074435Y-63344742D02*
X11188720Y-63401885D01*
X11188720Y-63401885D02*
X11245863Y-63459028D01*
X11245863Y-63459028D02*
X11303006Y-63573314D01*
X11303006Y-63573314D02*
X11303006Y-63744742D01*
X11303006Y-63744742D02*
X11245863Y-63859028D01*
X11245863Y-63859028D02*
X11188720Y-63916171D01*
X11188720Y-63916171D02*
X11074435Y-63973314D01*
X11074435Y-63973314D02*
X10617292Y-63973314D01*
X11817292Y-64544742D02*
X11817292Y-63344742D01*
X12388721Y-64544742D02*
X12388721Y-63344742D01*
X12388721Y-63344742D02*
X12788721Y-64201885D01*
X12788721Y-64201885D02*
X13188721Y-63344742D01*
X13188721Y-63344742D02*
X13188721Y-64544742D01*
X13703007Y-64201885D02*
X14274436Y-64201885D01*
X13588721Y-64544742D02*
X13988721Y-63344742D01*
X13988721Y-63344742D02*
X14388721Y-64544742D01*
X15474435Y-64544742D02*
X15074435Y-63973314D01*
X14788721Y-64544742D02*
X14788721Y-63344742D01*
X14788721Y-63344742D02*
X15245864Y-63344742D01*
X15245864Y-63344742D02*
X15360149Y-63401885D01*
X15360149Y-63401885D02*
X15417292Y-63459028D01*
X15417292Y-63459028D02*
X15474435Y-63573314D01*
X15474435Y-63573314D02*
X15474435Y-63744742D01*
X15474435Y-63744742D02*
X15417292Y-63859028D01*
X15417292Y-63859028D02*
X15360149Y-63916171D01*
X15360149Y-63916171D02*
X15245864Y-63973314D01*
X15245864Y-63973314D02*
X14788721Y-63973314D01*
X16217292Y-63973314D02*
X16217292Y-64544742D01*
X15817292Y-63344742D02*
X16217292Y-63973314D01*
X16217292Y-63973314D02*
X16617292Y-63344742D01*
X18560149Y-64544742D02*
X17874435Y-64544742D01*
X18217292Y-64544742D02*
X18217292Y-63344742D01*
X18217292Y-63344742D02*
X18103006Y-63516171D01*
X18103006Y-63516171D02*
X17988721Y-63630457D01*
X17988721Y-63630457D02*
X17874435Y-63687600D01*
X19017292Y-63459028D02*
X19074435Y-63401885D01*
X19074435Y-63401885D02*
X19188721Y-63344742D01*
X19188721Y-63344742D02*
X19474435Y-63344742D01*
X19474435Y-63344742D02*
X19588721Y-63401885D01*
X19588721Y-63401885D02*
X19645863Y-63459028D01*
X19645863Y-63459028D02*
X19703006Y-63573314D01*
X19703006Y-63573314D02*
X19703006Y-63687600D01*
X19703006Y-63687600D02*
X19645863Y-63859028D01*
X19645863Y-63859028D02*
X18960149Y-64544742D01*
X18960149Y-64544742D02*
X19703006Y-64544742D01*
X20045863Y-63344742D02*
X20445863Y-64544742D01*
X20445863Y-64544742D02*
X20845863Y-63344742D01*
X22103006Y-64487600D02*
X22274435Y-64544742D01*
X22274435Y-64544742D02*
X22560149Y-64544742D01*
X22560149Y-64544742D02*
X22674435Y-64487600D01*
X22674435Y-64487600D02*
X22731577Y-64430457D01*
X22731577Y-64430457D02*
X22788720Y-64316171D01*
X22788720Y-64316171D02*
X22788720Y-64201885D01*
X22788720Y-64201885D02*
X22731577Y-64087600D01*
X22731577Y-64087600D02*
X22674435Y-64030457D01*
X22674435Y-64030457D02*
X22560149Y-63973314D01*
X22560149Y-63973314D02*
X22331577Y-63916171D01*
X22331577Y-63916171D02*
X22217292Y-63859028D01*
X22217292Y-63859028D02*
X22160149Y-63801885D01*
X22160149Y-63801885D02*
X22103006Y-63687600D01*
X22103006Y-63687600D02*
X22103006Y-63573314D01*
X22103006Y-63573314D02*
X22160149Y-63459028D01*
X22160149Y-63459028D02*
X22217292Y-63401885D01*
X22217292Y-63401885D02*
X22331577Y-63344742D01*
X22331577Y-63344742D02*
X22617292Y-63344742D01*
X22617292Y-63344742D02*
X22788720Y-63401885D01*
X23303006Y-64544742D02*
X23303006Y-63344742D01*
X23874435Y-64544742D02*
X23874435Y-63344742D01*
X23874435Y-63344742D02*
X24160149Y-63344742D01*
X24160149Y-63344742D02*
X24331578Y-63401885D01*
X24331578Y-63401885D02*
X24445863Y-63516171D01*
X24445863Y-63516171D02*
X24503006Y-63630457D01*
X24503006Y-63630457D02*
X24560149Y-63859028D01*
X24560149Y-63859028D02*
X24560149Y-64030457D01*
X24560149Y-64030457D02*
X24503006Y-64259028D01*
X24503006Y-64259028D02*
X24445863Y-64373314D01*
X24445863Y-64373314D02*
X24331578Y-64487600D01*
X24331578Y-64487600D02*
X24160149Y-64544742D01*
X24160149Y-64544742D02*
X23874435Y-64544742D01*
X25074435Y-63916171D02*
X25474435Y-63916171D01*
X25645863Y-64544742D02*
X25074435Y-64544742D01*
X25074435Y-64544742D02*
X25074435Y-63344742D01*
X25074435Y-63344742D02*
X25645863Y-63344742D01*
X7698244Y-57137266D02*
X6898244Y-57137266D01*
X7298244Y-57137266D02*
X7298244Y-55737266D01*
X7298244Y-55737266D02*
X7164911Y-55937266D01*
X7164911Y-55937266D02*
X7031578Y-56070600D01*
X7031578Y-56070600D02*
X6898244Y-56137266D01*
X8231577Y-55870600D02*
X8298244Y-55803933D01*
X8298244Y-55803933D02*
X8431577Y-55737266D01*
X8431577Y-55737266D02*
X8764911Y-55737266D01*
X8764911Y-55737266D02*
X8898244Y-55803933D01*
X8898244Y-55803933D02*
X8964911Y-55870600D01*
X8964911Y-55870600D02*
X9031577Y-56003933D01*
X9031577Y-56003933D02*
X9031577Y-56137266D01*
X9031577Y-56137266D02*
X8964911Y-56337266D01*
X8964911Y-56337266D02*
X8164911Y-57137266D01*
X8164911Y-57137266D02*
X9031577Y-57137266D01*
X9431577Y-55737266D02*
X9898244Y-57137266D01*
X9898244Y-57137266D02*
X10364910Y-55737266D01*
X11898244Y-57137266D02*
X11898244Y-55737266D01*
X12564911Y-57137266D02*
X12564911Y-55737266D01*
X12564911Y-55737266D02*
X13364911Y-57137266D01*
X13364911Y-57137266D02*
X13364911Y-55737266D01*
X43000000Y-38952219D02*
X43000000Y-37952219D01*
X43428571Y-38904600D02*
X43571428Y-38952219D01*
X43571428Y-38952219D02*
X43809523Y-38952219D01*
X43809523Y-38952219D02*
X43904761Y-38904600D01*
X43904761Y-38904600D02*
X43952380Y-38856980D01*
X43952380Y-38856980D02*
X43999999Y-38761742D01*
X43999999Y-38761742D02*
X43999999Y-38666504D01*
X43999999Y-38666504D02*
X43952380Y-38571266D01*
X43952380Y-38571266D02*
X43904761Y-38523647D01*
X43904761Y-38523647D02*
X43809523Y-38476028D01*
X43809523Y-38476028D02*
X43619047Y-38428409D01*
X43619047Y-38428409D02*
X43523809Y-38380790D01*
X43523809Y-38380790D02*
X43476190Y-38333171D01*
X43476190Y-38333171D02*
X43428571Y-38237933D01*
X43428571Y-38237933D02*
X43428571Y-38142695D01*
X43428571Y-38142695D02*
X43476190Y-38047457D01*
X43476190Y-38047457D02*
X43523809Y-37999838D01*
X43523809Y-37999838D02*
X43619047Y-37952219D01*
X43619047Y-37952219D02*
X43857142Y-37952219D01*
X43857142Y-37952219D02*
X43999999Y-37999838D01*
X44619047Y-37952219D02*
X44809523Y-37952219D01*
X44809523Y-37952219D02*
X44904761Y-37999838D01*
X44904761Y-37999838D02*
X44999999Y-38095076D01*
X44999999Y-38095076D02*
X45047618Y-38285552D01*
X45047618Y-38285552D02*
X45047618Y-38618885D01*
X45047618Y-38618885D02*
X44999999Y-38809361D01*
X44999999Y-38809361D02*
X44904761Y-38904600D01*
X44904761Y-38904600D02*
X44809523Y-38952219D01*
X44809523Y-38952219D02*
X44619047Y-38952219D01*
X44619047Y-38952219D02*
X44523809Y-38904600D01*
X44523809Y-38904600D02*
X44428571Y-38809361D01*
X44428571Y-38809361D02*
X44380952Y-38618885D01*
X44380952Y-38618885D02*
X44380952Y-38285552D01*
X44380952Y-38285552D02*
X44428571Y-38095076D01*
X44428571Y-38095076D02*
X44523809Y-37999838D01*
X44523809Y-37999838D02*
X44619047Y-37952219D01*
X45952380Y-38952219D02*
X45476190Y-38952219D01*
X45476190Y-38952219D02*
X45476190Y-37952219D01*
X46238095Y-38666504D02*
X46714285Y-38666504D01*
X46142857Y-38952219D02*
X46476190Y-37952219D01*
X46476190Y-37952219D02*
X46809523Y-38952219D01*
X47000000Y-37952219D02*
X47571428Y-37952219D01*
X47285714Y-38952219D02*
X47285714Y-37952219D01*
X47904762Y-38952219D02*
X47904762Y-37952219D01*
X48571428Y-37952219D02*
X48761904Y-37952219D01*
X48761904Y-37952219D02*
X48857142Y-37999838D01*
X48857142Y-37999838D02*
X48952380Y-38095076D01*
X48952380Y-38095076D02*
X48999999Y-38285552D01*
X48999999Y-38285552D02*
X48999999Y-38618885D01*
X48999999Y-38618885D02*
X48952380Y-38809361D01*
X48952380Y-38809361D02*
X48857142Y-38904600D01*
X48857142Y-38904600D02*
X48761904Y-38952219D01*
X48761904Y-38952219D02*
X48571428Y-38952219D01*
X48571428Y-38952219D02*
X48476190Y-38904600D01*
X48476190Y-38904600D02*
X48380952Y-38809361D01*
X48380952Y-38809361D02*
X48333333Y-38618885D01*
X48333333Y-38618885D02*
X48333333Y-38285552D01*
X48333333Y-38285552D02*
X48380952Y-38095076D01*
X48380952Y-38095076D02*
X48476190Y-37999838D01*
X48476190Y-37999838D02*
X48571428Y-37952219D01*
X49428571Y-38952219D02*
X49428571Y-37952219D01*
X49428571Y-37952219D02*
X49999999Y-38952219D01*
X49999999Y-38952219D02*
X49999999Y-37952219D01*
X51571428Y-38428409D02*
X51714285Y-38476028D01*
X51714285Y-38476028D02*
X51761904Y-38523647D01*
X51761904Y-38523647D02*
X51809523Y-38618885D01*
X51809523Y-38618885D02*
X51809523Y-38761742D01*
X51809523Y-38761742D02*
X51761904Y-38856980D01*
X51761904Y-38856980D02*
X51714285Y-38904600D01*
X51714285Y-38904600D02*
X51619047Y-38952219D01*
X51619047Y-38952219D02*
X51238095Y-38952219D01*
X51238095Y-38952219D02*
X51238095Y-37952219D01*
X51238095Y-37952219D02*
X51571428Y-37952219D01*
X51571428Y-37952219D02*
X51666666Y-37999838D01*
X51666666Y-37999838D02*
X51714285Y-38047457D01*
X51714285Y-38047457D02*
X51761904Y-38142695D01*
X51761904Y-38142695D02*
X51761904Y-38237933D01*
X51761904Y-38237933D02*
X51714285Y-38333171D01*
X51714285Y-38333171D02*
X51666666Y-38380790D01*
X51666666Y-38380790D02*
X51571428Y-38428409D01*
X51571428Y-38428409D02*
X51238095Y-38428409D01*
X52190476Y-38666504D02*
X52666666Y-38666504D01*
X52095238Y-38952219D02*
X52428571Y-37952219D01*
X52428571Y-37952219D02*
X52761904Y-38952219D01*
X53666666Y-38952219D02*
X53333333Y-38476028D01*
X53095238Y-38952219D02*
X53095238Y-37952219D01*
X53095238Y-37952219D02*
X53476190Y-37952219D01*
X53476190Y-37952219D02*
X53571428Y-37999838D01*
X53571428Y-37999838D02*
X53619047Y-38047457D01*
X53619047Y-38047457D02*
X53666666Y-38142695D01*
X53666666Y-38142695D02*
X53666666Y-38285552D01*
X53666666Y-38285552D02*
X53619047Y-38380790D01*
X53619047Y-38380790D02*
X53571428Y-38428409D01*
X53571428Y-38428409D02*
X53476190Y-38476028D01*
X53476190Y-38476028D02*
X53095238Y-38476028D01*
X54666666Y-38952219D02*
X54333333Y-38476028D01*
X54095238Y-38952219D02*
X54095238Y-37952219D01*
X54095238Y-37952219D02*
X54476190Y-37952219D01*
X54476190Y-37952219D02*
X54571428Y-37999838D01*
X54571428Y-37999838D02*
X54619047Y-38047457D01*
X54619047Y-38047457D02*
X54666666Y-38142695D01*
X54666666Y-38142695D02*
X54666666Y-38285552D01*
X54666666Y-38285552D02*
X54619047Y-38380790D01*
X54619047Y-38380790D02*
X54571428Y-38428409D01*
X54571428Y-38428409D02*
X54476190Y-38476028D01*
X54476190Y-38476028D02*
X54095238Y-38476028D01*
X55095238Y-38952219D02*
X55095238Y-37952219D01*
X55571428Y-38428409D02*
X55904761Y-38428409D01*
X56047618Y-38952219D02*
X55571428Y-38952219D01*
X55571428Y-38952219D02*
X55571428Y-37952219D01*
X55571428Y-37952219D02*
X56047618Y-37952219D01*
X57047618Y-38952219D02*
X56714285Y-38476028D01*
X56476190Y-38952219D02*
X56476190Y-37952219D01*
X56476190Y-37952219D02*
X56857142Y-37952219D01*
X56857142Y-37952219D02*
X56952380Y-37999838D01*
X56952380Y-37999838D02*
X56999999Y-38047457D01*
X56999999Y-38047457D02*
X57047618Y-38142695D01*
X57047618Y-38142695D02*
X57047618Y-38285552D01*
X57047618Y-38285552D02*
X56999999Y-38380790D01*
X56999999Y-38380790D02*
X56952380Y-38428409D01*
X56952380Y-38428409D02*
X56857142Y-38476028D01*
X56857142Y-38476028D02*
X56476190Y-38476028D01*
X56774435Y-60105957D02*
X56345863Y-60105957D01*
X56345863Y-60105957D02*
X56303006Y-60534528D01*
X56303006Y-60534528D02*
X56345863Y-60491671D01*
X56345863Y-60491671D02*
X56431578Y-60448814D01*
X56431578Y-60448814D02*
X56645863Y-60448814D01*
X56645863Y-60448814D02*
X56731578Y-60491671D01*
X56731578Y-60491671D02*
X56774435Y-60534528D01*
X56774435Y-60534528D02*
X56817292Y-60620242D01*
X56817292Y-60620242D02*
X56817292Y-60834528D01*
X56817292Y-60834528D02*
X56774435Y-60920242D01*
X56774435Y-60920242D02*
X56731578Y-60963100D01*
X56731578Y-60963100D02*
X56645863Y-61005957D01*
X56645863Y-61005957D02*
X56431578Y-61005957D01*
X56431578Y-61005957D02*
X56345863Y-60963100D01*
X56345863Y-60963100D02*
X56303006Y-60920242D01*
X57074435Y-60105957D02*
X57374435Y-61005957D01*
X57374435Y-61005957D02*
X57674435Y-60105957D01*
X59303006Y-60063100D02*
X58531578Y-61220242D01*
X60417292Y-60491671D02*
X60331577Y-60448814D01*
X60331577Y-60448814D02*
X60288720Y-60405957D01*
X60288720Y-60405957D02*
X60245863Y-60320242D01*
X60245863Y-60320242D02*
X60245863Y-60277385D01*
X60245863Y-60277385D02*
X60288720Y-60191671D01*
X60288720Y-60191671D02*
X60331577Y-60148814D01*
X60331577Y-60148814D02*
X60417292Y-60105957D01*
X60417292Y-60105957D02*
X60588720Y-60105957D01*
X60588720Y-60105957D02*
X60674435Y-60148814D01*
X60674435Y-60148814D02*
X60717292Y-60191671D01*
X60717292Y-60191671D02*
X60760149Y-60277385D01*
X60760149Y-60277385D02*
X60760149Y-60320242D01*
X60760149Y-60320242D02*
X60717292Y-60405957D01*
X60717292Y-60405957D02*
X60674435Y-60448814D01*
X60674435Y-60448814D02*
X60588720Y-60491671D01*
X60588720Y-60491671D02*
X60417292Y-60491671D01*
X60417292Y-60491671D02*
X60331577Y-60534528D01*
X60331577Y-60534528D02*
X60288720Y-60577385D01*
X60288720Y-60577385D02*
X60245863Y-60663100D01*
X60245863Y-60663100D02*
X60245863Y-60834528D01*
X60245863Y-60834528D02*
X60288720Y-60920242D01*
X60288720Y-60920242D02*
X60331577Y-60963100D01*
X60331577Y-60963100D02*
X60417292Y-61005957D01*
X60417292Y-61005957D02*
X60588720Y-61005957D01*
X60588720Y-61005957D02*
X60674435Y-60963100D01*
X60674435Y-60963100D02*
X60717292Y-60920242D01*
X60717292Y-60920242D02*
X60760149Y-60834528D01*
X60760149Y-60834528D02*
X60760149Y-60663100D01*
X60760149Y-60663100D02*
X60717292Y-60577385D01*
X60717292Y-60577385D02*
X60674435Y-60534528D01*
X60674435Y-60534528D02*
X60588720Y-60491671D01*
X61103006Y-60748814D02*
X61531578Y-60748814D01*
X61017292Y-61005957D02*
X61317292Y-60105957D01*
X61317292Y-60105957D02*
X61617292Y-61005957D01*
X62603006Y-61005957D02*
X62603006Y-60105957D01*
X62603006Y-60105957D02*
X62903006Y-60748814D01*
X62903006Y-60748814D02*
X63203006Y-60105957D01*
X63203006Y-60105957D02*
X63203006Y-61005957D01*
X63588720Y-60748814D02*
X64017292Y-60748814D01*
X63503006Y-61005957D02*
X63803006Y-60105957D01*
X63803006Y-60105957D02*
X64103006Y-61005957D01*
X64317292Y-60105957D02*
X64917292Y-61005957D01*
X64917292Y-60105957D02*
X64317292Y-61005957D01*
D12*
%TO.C,D1*%
X89515000Y-44265000D02*
X89515000Y-45735000D01*
X89515000Y-45735000D02*
X91800000Y-45735000D01*
X91800000Y-44265000D02*
X89515000Y-44265000D01*
%TO.C,C2*%
X26090302Y-49685000D02*
X26890302Y-49685000D01*
X26490302Y-49285000D02*
X26490302Y-50085000D01*
X30500000Y-47920000D02*
X30500000Y-56080000D01*
X30540000Y-47920000D02*
X30540000Y-56080000D01*
X30580000Y-47920000D02*
X30580000Y-56080000D01*
X30620000Y-47921000D02*
X30620000Y-56079000D01*
X30660000Y-47923000D02*
X30660000Y-56077000D01*
X30700000Y-47924000D02*
X30700000Y-56076000D01*
X30740000Y-47926000D02*
X30740000Y-56074000D01*
X30780000Y-47929000D02*
X30780000Y-56071000D01*
X30820000Y-47932000D02*
X30820000Y-56068000D01*
X30860000Y-47935000D02*
X30860000Y-56065000D01*
X30900000Y-47939000D02*
X30900000Y-56061000D01*
X30940000Y-47943000D02*
X30940000Y-56057000D01*
X30980000Y-47948000D02*
X30980000Y-56052000D01*
X31020000Y-47952000D02*
X31020000Y-56048000D01*
X31060000Y-47958000D02*
X31060000Y-56042000D01*
X31100000Y-47963000D02*
X31100000Y-56037000D01*
X31140000Y-47970000D02*
X31140000Y-56030000D01*
X31180000Y-47976000D02*
X31180000Y-56024000D01*
X31221000Y-47983000D02*
X31221000Y-50960000D01*
X31221000Y-53040000D02*
X31221000Y-56017000D01*
X31261000Y-47990000D02*
X31261000Y-50960000D01*
X31261000Y-53040000D02*
X31261000Y-56010000D01*
X31301000Y-47998000D02*
X31301000Y-50960000D01*
X31301000Y-53040000D02*
X31301000Y-56002000D01*
X31341000Y-48006000D02*
X31341000Y-50960000D01*
X31341000Y-53040000D02*
X31341000Y-55994000D01*
X31381000Y-48015000D02*
X31381000Y-50960000D01*
X31381000Y-53040000D02*
X31381000Y-55985000D01*
X31421000Y-48024000D02*
X31421000Y-50960000D01*
X31421000Y-53040000D02*
X31421000Y-55976000D01*
X31461000Y-48033000D02*
X31461000Y-50960000D01*
X31461000Y-53040000D02*
X31461000Y-55967000D01*
X31501000Y-48043000D02*
X31501000Y-50960000D01*
X31501000Y-53040000D02*
X31501000Y-55957000D01*
X31541000Y-48053000D02*
X31541000Y-50960000D01*
X31541000Y-53040000D02*
X31541000Y-55947000D01*
X31581000Y-48064000D02*
X31581000Y-50960000D01*
X31581000Y-53040000D02*
X31581000Y-55936000D01*
X31621000Y-48075000D02*
X31621000Y-50960000D01*
X31621000Y-53040000D02*
X31621000Y-55925000D01*
X31661000Y-48086000D02*
X31661000Y-50960000D01*
X31661000Y-53040000D02*
X31661000Y-55914000D01*
X31701000Y-48098000D02*
X31701000Y-50960000D01*
X31701000Y-53040000D02*
X31701000Y-55902000D01*
X31741000Y-48111000D02*
X31741000Y-50960000D01*
X31741000Y-53040000D02*
X31741000Y-55889000D01*
X31781000Y-48123000D02*
X31781000Y-50960000D01*
X31781000Y-53040000D02*
X31781000Y-55877000D01*
X31821000Y-48137000D02*
X31821000Y-50960000D01*
X31821000Y-53040000D02*
X31821000Y-55863000D01*
X31861000Y-48150000D02*
X31861000Y-50960000D01*
X31861000Y-53040000D02*
X31861000Y-55850000D01*
X31901000Y-48165000D02*
X31901000Y-50960000D01*
X31901000Y-53040000D02*
X31901000Y-55835000D01*
X31941000Y-48179000D02*
X31941000Y-50960000D01*
X31941000Y-53040000D02*
X31941000Y-55821000D01*
X31981000Y-48195000D02*
X31981000Y-50960000D01*
X31981000Y-53040000D02*
X31981000Y-55805000D01*
X32021000Y-48210000D02*
X32021000Y-50960000D01*
X32021000Y-53040000D02*
X32021000Y-55790000D01*
X32061000Y-48226000D02*
X32061000Y-50960000D01*
X32061000Y-53040000D02*
X32061000Y-55774000D01*
X32101000Y-48243000D02*
X32101000Y-50960000D01*
X32101000Y-53040000D02*
X32101000Y-55757000D01*
X32141000Y-48260000D02*
X32141000Y-50960000D01*
X32141000Y-53040000D02*
X32141000Y-55740000D01*
X32181000Y-48278000D02*
X32181000Y-50960000D01*
X32181000Y-53040000D02*
X32181000Y-55722000D01*
X32221000Y-48296000D02*
X32221000Y-50960000D01*
X32221000Y-53040000D02*
X32221000Y-55704000D01*
X32261000Y-48314000D02*
X32261000Y-50960000D01*
X32261000Y-53040000D02*
X32261000Y-55686000D01*
X32301000Y-48334000D02*
X32301000Y-50960000D01*
X32301000Y-53040000D02*
X32301000Y-55666000D01*
X32341000Y-48353000D02*
X32341000Y-50960000D01*
X32341000Y-53040000D02*
X32341000Y-55647000D01*
X32381000Y-48373000D02*
X32381000Y-50960000D01*
X32381000Y-53040000D02*
X32381000Y-55627000D01*
X32421000Y-48394000D02*
X32421000Y-50960000D01*
X32421000Y-53040000D02*
X32421000Y-55606000D01*
X32461000Y-48416000D02*
X32461000Y-50960000D01*
X32461000Y-53040000D02*
X32461000Y-55584000D01*
X32501000Y-48438000D02*
X32501000Y-50960000D01*
X32501000Y-53040000D02*
X32501000Y-55562000D01*
X32541000Y-48460000D02*
X32541000Y-50960000D01*
X32541000Y-53040000D02*
X32541000Y-55540000D01*
X32581000Y-48483000D02*
X32581000Y-50960000D01*
X32581000Y-53040000D02*
X32581000Y-55517000D01*
X32621000Y-48507000D02*
X32621000Y-50960000D01*
X32621000Y-53040000D02*
X32621000Y-55493000D01*
X32661000Y-48531000D02*
X32661000Y-50960000D01*
X32661000Y-53040000D02*
X32661000Y-55469000D01*
X32701000Y-48556000D02*
X32701000Y-50960000D01*
X32701000Y-53040000D02*
X32701000Y-55444000D01*
X32741000Y-48582000D02*
X32741000Y-50960000D01*
X32741000Y-53040000D02*
X32741000Y-55418000D01*
X32781000Y-48608000D02*
X32781000Y-50960000D01*
X32781000Y-53040000D02*
X32781000Y-55392000D01*
X32821000Y-48635000D02*
X32821000Y-50960000D01*
X32821000Y-53040000D02*
X32821000Y-55365000D01*
X32861000Y-48662000D02*
X32861000Y-50960000D01*
X32861000Y-53040000D02*
X32861000Y-55338000D01*
X32901000Y-48691000D02*
X32901000Y-50960000D01*
X32901000Y-53040000D02*
X32901000Y-55309000D01*
X32941000Y-48720000D02*
X32941000Y-50960000D01*
X32941000Y-53040000D02*
X32941000Y-55280000D01*
X32981000Y-48750000D02*
X32981000Y-50960000D01*
X32981000Y-53040000D02*
X32981000Y-55250000D01*
X33021000Y-48780000D02*
X33021000Y-50960000D01*
X33021000Y-53040000D02*
X33021000Y-55220000D01*
X33061000Y-48811000D02*
X33061000Y-50960000D01*
X33061000Y-53040000D02*
X33061000Y-55189000D01*
X33101000Y-48844000D02*
X33101000Y-50960000D01*
X33101000Y-53040000D02*
X33101000Y-55156000D01*
X33141000Y-48876000D02*
X33141000Y-50960000D01*
X33141000Y-53040000D02*
X33141000Y-55124000D01*
X33181000Y-48910000D02*
X33181000Y-50960000D01*
X33181000Y-53040000D02*
X33181000Y-55090000D01*
X33221000Y-48945000D02*
X33221000Y-50960000D01*
X33221000Y-53040000D02*
X33221000Y-55055000D01*
X33261000Y-48981000D02*
X33261000Y-50960000D01*
X33261000Y-53040000D02*
X33261000Y-55019000D01*
X33301000Y-49017000D02*
X33301000Y-54983000D01*
X33341000Y-49055000D02*
X33341000Y-54945000D01*
X33381000Y-49093000D02*
X33381000Y-54907000D01*
X33421000Y-49133000D02*
X33421000Y-54867000D01*
X33461000Y-49174000D02*
X33461000Y-54826000D01*
X33501000Y-49216000D02*
X33501000Y-54784000D01*
X33541000Y-49259000D02*
X33541000Y-54741000D01*
X33581000Y-49303000D02*
X33581000Y-54697000D01*
X33621000Y-49349000D02*
X33621000Y-54651000D01*
X33661000Y-49396000D02*
X33661000Y-54604000D01*
X33701000Y-49444000D02*
X33701000Y-54556000D01*
X33741000Y-49495000D02*
X33741000Y-54505000D01*
X33781000Y-49546000D02*
X33781000Y-54454000D01*
X33821000Y-49600000D02*
X33821000Y-54400000D01*
X33861000Y-49655000D02*
X33861000Y-54345000D01*
X33901000Y-49713000D02*
X33901000Y-54287000D01*
X33941000Y-49772000D02*
X33941000Y-54228000D01*
X33981000Y-49834000D02*
X33981000Y-54166000D01*
X34021000Y-49898000D02*
X34021000Y-54102000D01*
X34061000Y-49966000D02*
X34061000Y-54034000D01*
X34101000Y-50036000D02*
X34101000Y-53964000D01*
X34141000Y-50110000D02*
X34141000Y-53890000D01*
X34181000Y-50187000D02*
X34181000Y-53813000D01*
X34221000Y-50269000D02*
X34221000Y-53731000D01*
X34261000Y-50355000D02*
X34261000Y-53645000D01*
X34301000Y-50448000D02*
X34301000Y-53552000D01*
X34341000Y-50547000D02*
X34341000Y-53453000D01*
X34381000Y-50654000D02*
X34381000Y-53346000D01*
X34421000Y-50771000D02*
X34421000Y-53229000D01*
X34461000Y-50902000D02*
X34461000Y-53098000D01*
X34501000Y-51052000D02*
X34501000Y-52948000D01*
X34541000Y-51232000D02*
X34541000Y-52768000D01*
X34581000Y-51467000D02*
X34581000Y-52533000D01*
X34620000Y-52000000D02*
G75*
G03*
X26380000Y-52000000I-4120000J0D01*
G01*
X26380000Y-52000000D02*
G75*
G03*
X34620000Y-52000000I4120000J0D01*
G01*
%TO.C,R1*%
X90762742Y-40977500D02*
X91237258Y-40977500D01*
X90762742Y-42022500D02*
X91237258Y-42022500D01*
%TO.C,F2*%
X82155000Y-44785000D02*
X82155000Y-47215000D01*
X79245000Y-44785000D02*
X79245000Y-47215000D01*
%TO.C,R3*%
X76262742Y-20317500D02*
X76737258Y-20317500D01*
X76262742Y-21362500D02*
X76737258Y-21362500D01*
D10*
%TO.C,U1*%
X24600000Y-18300000D02*
X75400000Y-18300000D01*
X24600000Y-43700000D02*
X24600000Y-18300000D01*
X26000000Y-22500000D02*
X26000000Y-24500000D01*
X75400000Y-18300000D02*
X75400000Y-43700000D01*
X75400000Y-43700000D02*
X24600000Y-43700000D01*
D12*
%TO.C,C6*%
X86359420Y-54490000D02*
X86640580Y-54490000D01*
X86359420Y-55510000D02*
X86640580Y-55510000D01*
%TO.C,J_OUT*%
X91685000Y-68930000D02*
X90685000Y-69930000D01*
X91685000Y-59800000D02*
X91685000Y-68930000D01*
X90685000Y-69930000D02*
X82315000Y-69930000D01*
X82315000Y-69930000D02*
X81315000Y-68930000D01*
X81315000Y-68930000D02*
X81315000Y-59800000D01*
X81315000Y-59800000D02*
X91685000Y-59800000D01*
%TO.C,C1*%
X30859420Y-57490000D02*
X31140580Y-57490000D01*
X30859420Y-58510000D02*
X31140580Y-58510000D01*
%TO.C,C5*%
X86238748Y-51265000D02*
X86761252Y-51265000D01*
X86238748Y-52735000D02*
X86761252Y-52735000D01*
%TO.C,TP3*%
X80950000Y-38000000D02*
G75*
G03*
X79050000Y-38000000I-950000J0D01*
G01*
X79050000Y-38000000D02*
G75*
G03*
X80950000Y-38000000I950000J0D01*
G01*
%TO.C,TP2*%
X18950000Y-53000000D02*
G75*
G03*
X17050000Y-53000000I-950000J0D01*
G01*
X17050000Y-53000000D02*
G75*
G03*
X18950000Y-53000000I950000J0D01*
G01*
%TO.C,C4*%
X78875000Y-50020354D02*
X78875000Y-51020354D01*
X79375000Y-50520354D02*
X78375000Y-50520354D01*
X81080000Y-55500000D02*
X70920000Y-55500000D01*
X81080000Y-55540000D02*
X70920000Y-55540000D01*
X81080000Y-55580000D02*
X70920000Y-55580000D01*
X81079000Y-55620000D02*
X70921000Y-55620000D01*
X81078000Y-55660000D02*
X70922000Y-55660000D01*
X81077000Y-55700000D02*
X70923000Y-55700000D01*
X81075000Y-55740000D02*
X70925000Y-55740000D01*
X81073000Y-55780000D02*
X70927000Y-55780000D01*
X81070000Y-55820000D02*
X70930000Y-55820000D01*
X81068000Y-55860000D02*
X70932000Y-55860000D01*
X81065000Y-55900000D02*
X70935000Y-55900000D01*
X81062000Y-55940000D02*
X70938000Y-55940000D01*
X81058000Y-55980000D02*
X70942000Y-55980000D01*
X81054000Y-56020000D02*
X70946000Y-56020000D01*
X81050000Y-56060000D02*
X70950000Y-56060000D01*
X81045000Y-56100000D02*
X70955000Y-56100000D01*
X81040000Y-56140000D02*
X70960000Y-56140000D01*
X81035000Y-56180000D02*
X70965000Y-56180000D01*
X81030000Y-56221000D02*
X70970000Y-56221000D01*
X81024000Y-56261000D02*
X70976000Y-56261000D01*
X81018000Y-56301000D02*
X70982000Y-56301000D01*
X81011000Y-56341000D02*
X70989000Y-56341000D01*
X81004000Y-56381000D02*
X70996000Y-56381000D01*
X80997000Y-56421000D02*
X71003000Y-56421000D01*
X80990000Y-56461000D02*
X71010000Y-56461000D01*
X80982000Y-56501000D02*
X71018000Y-56501000D01*
X80974000Y-56541000D02*
X71026000Y-56541000D01*
X80965000Y-56581000D02*
X71035000Y-56581000D01*
X80956000Y-56621000D02*
X71044000Y-56621000D01*
X80947000Y-56661000D02*
X71053000Y-56661000D01*
X80938000Y-56701000D02*
X71062000Y-56701000D01*
X80928000Y-56741000D02*
X71072000Y-56741000D01*
X80918000Y-56781000D02*
X77241000Y-56781000D01*
X74759000Y-56781000D02*
X71082000Y-56781000D01*
X80907000Y-56821000D02*
X77241000Y-56821000D01*
X74759000Y-56821000D02*
X71093000Y-56821000D01*
X80897000Y-56861000D02*
X77241000Y-56861000D01*
X74759000Y-56861000D02*
X71103000Y-56861000D01*
X80885000Y-56901000D02*
X77241000Y-56901000D01*
X74759000Y-56901000D02*
X71115000Y-56901000D01*
X80874000Y-56941000D02*
X77241000Y-56941000D01*
X74759000Y-56941000D02*
X71126000Y-56941000D01*
X80862000Y-56981000D02*
X77241000Y-56981000D01*
X74759000Y-56981000D02*
X71138000Y-56981000D01*
X80850000Y-57021000D02*
X77241000Y-57021000D01*
X74759000Y-57021000D02*
X71150000Y-57021000D01*
X80837000Y-57061000D02*
X77241000Y-57061000D01*
X74759000Y-57061000D02*
X71163000Y-57061000D01*
X80824000Y-57101000D02*
X77241000Y-57101000D01*
X74759000Y-57101000D02*
X71176000Y-57101000D01*
X80811000Y-57141000D02*
X77241000Y-57141000D01*
X74759000Y-57141000D02*
X71189000Y-57141000D01*
X80797000Y-57181000D02*
X77241000Y-57181000D01*
X74759000Y-57181000D02*
X71203000Y-57181000D01*
X80783000Y-57221000D02*
X77241000Y-57221000D01*
X74759000Y-57221000D02*
X71217000Y-57221000D01*
X80768000Y-57261000D02*
X77241000Y-57261000D01*
X74759000Y-57261000D02*
X71232000Y-57261000D01*
X80754000Y-57301000D02*
X77241000Y-57301000D01*
X74759000Y-57301000D02*
X71246000Y-57301000D01*
X80738000Y-57341000D02*
X77241000Y-57341000D01*
X74759000Y-57341000D02*
X71262000Y-57341000D01*
X80723000Y-57381000D02*
X77241000Y-57381000D01*
X74759000Y-57381000D02*
X71277000Y-57381000D01*
X80707000Y-57421000D02*
X77241000Y-57421000D01*
X74759000Y-57421000D02*
X71293000Y-57421000D01*
X80690000Y-57461000D02*
X77241000Y-57461000D01*
X74759000Y-57461000D02*
X71310000Y-57461000D01*
X80674000Y-57501000D02*
X77241000Y-57501000D01*
X74759000Y-57501000D02*
X71326000Y-57501000D01*
X80657000Y-57541000D02*
X77241000Y-57541000D01*
X74759000Y-57541000D02*
X71343000Y-57541000D01*
X80639000Y-57581000D02*
X77241000Y-57581000D01*
X74759000Y-57581000D02*
X71361000Y-57581000D01*
X80621000Y-57621000D02*
X77241000Y-57621000D01*
X74759000Y-57621000D02*
X71379000Y-57621000D01*
X80603000Y-57661000D02*
X77241000Y-57661000D01*
X74759000Y-57661000D02*
X71397000Y-57661000D01*
X80584000Y-57701000D02*
X77241000Y-57701000D01*
X74759000Y-57701000D02*
X71416000Y-57701000D01*
X80564000Y-57741000D02*
X77241000Y-57741000D01*
X74759000Y-57741000D02*
X71436000Y-57741000D01*
X80545000Y-57781000D02*
X77241000Y-57781000D01*
X74759000Y-57781000D02*
X71455000Y-57781000D01*
X80525000Y-57821000D02*
X77241000Y-57821000D01*
X74759000Y-57821000D02*
X71475000Y-57821000D01*
X80504000Y-57861000D02*
X77241000Y-57861000D01*
X74759000Y-57861000D02*
X71496000Y-57861000D01*
X80483000Y-57901000D02*
X77241000Y-57901000D01*
X74759000Y-57901000D02*
X71517000Y-57901000D01*
X80462000Y-57941000D02*
X77241000Y-57941000D01*
X74759000Y-57941000D02*
X71538000Y-57941000D01*
X80440000Y-57981000D02*
X77241000Y-57981000D01*
X74759000Y-57981000D02*
X71560000Y-57981000D01*
X80417000Y-58021000D02*
X77241000Y-58021000D01*
X74759000Y-58021000D02*
X71583000Y-58021000D01*
X80395000Y-58061000D02*
X77241000Y-58061000D01*
X74759000Y-58061000D02*
X71605000Y-58061000D01*
X80371000Y-58101000D02*
X77241000Y-58101000D01*
X74759000Y-58101000D02*
X71629000Y-58101000D01*
X80347000Y-58141000D02*
X77241000Y-58141000D01*
X74759000Y-58141000D02*
X71653000Y-58141000D01*
X80323000Y-58181000D02*
X77241000Y-58181000D01*
X74759000Y-58181000D02*
X71677000Y-58181000D01*
X80298000Y-58221000D02*
X77241000Y-58221000D01*
X74759000Y-58221000D02*
X71702000Y-58221000D01*
X80273000Y-58261000D02*
X77241000Y-58261000D01*
X74759000Y-58261000D02*
X71727000Y-58261000D01*
X80247000Y-58301000D02*
X77241000Y-58301000D01*
X74759000Y-58301000D02*
X71753000Y-58301000D01*
X80221000Y-58341000D02*
X77241000Y-58341000D01*
X74759000Y-58341000D02*
X71779000Y-58341000D01*
X80194000Y-58381000D02*
X77241000Y-58381000D01*
X74759000Y-58381000D02*
X71806000Y-58381000D01*
X80166000Y-58421000D02*
X77241000Y-58421000D01*
X74759000Y-58421000D02*
X71834000Y-58421000D01*
X80138000Y-58461000D02*
X77241000Y-58461000D01*
X74759000Y-58461000D02*
X71862000Y-58461000D01*
X80110000Y-58501000D02*
X77241000Y-58501000D01*
X74759000Y-58501000D02*
X71890000Y-58501000D01*
X80080000Y-58541000D02*
X77241000Y-58541000D01*
X74759000Y-58541000D02*
X71920000Y-58541000D01*
X80050000Y-58581000D02*
X77241000Y-58581000D01*
X74759000Y-58581000D02*
X71950000Y-58581000D01*
X80020000Y-58621000D02*
X77241000Y-58621000D01*
X74759000Y-58621000D02*
X71980000Y-58621000D01*
X79989000Y-58661000D02*
X77241000Y-58661000D01*
X74759000Y-58661000D02*
X72011000Y-58661000D01*
X79957000Y-58701000D02*
X77241000Y-58701000D01*
X74759000Y-58701000D02*
X72043000Y-58701000D01*
X79925000Y-58741000D02*
X77241000Y-58741000D01*
X74759000Y-58741000D02*
X72075000Y-58741000D01*
X79892000Y-58781000D02*
X77241000Y-58781000D01*
X74759000Y-58781000D02*
X72108000Y-58781000D01*
X79858000Y-58821000D02*
X77241000Y-58821000D01*
X74759000Y-58821000D02*
X72142000Y-58821000D01*
X79824000Y-58861000D02*
X77241000Y-58861000D01*
X74759000Y-58861000D02*
X72176000Y-58861000D01*
X79789000Y-58901000D02*
X77241000Y-58901000D01*
X74759000Y-58901000D02*
X72211000Y-58901000D01*
X79753000Y-58941000D02*
X77241000Y-58941000D01*
X74759000Y-58941000D02*
X72247000Y-58941000D01*
X79716000Y-58981000D02*
X77241000Y-58981000D01*
X74759000Y-58981000D02*
X72284000Y-58981000D01*
X79679000Y-59021000D02*
X77241000Y-59021000D01*
X74759000Y-59021000D02*
X72321000Y-59021000D01*
X79640000Y-59061000D02*
X77241000Y-59061000D01*
X74759000Y-59061000D02*
X72360000Y-59061000D01*
X79601000Y-59101000D02*
X77241000Y-59101000D01*
X74759000Y-59101000D02*
X72399000Y-59101000D01*
X79561000Y-59141000D02*
X77241000Y-59141000D01*
X74759000Y-59141000D02*
X72439000Y-59141000D01*
X79520000Y-59181000D02*
X77241000Y-59181000D01*
X74759000Y-59181000D02*
X72480000Y-59181000D01*
X79478000Y-59221000D02*
X77241000Y-59221000D01*
X74759000Y-59221000D02*
X72522000Y-59221000D01*
X79436000Y-59261000D02*
X72564000Y-59261000D01*
X79392000Y-59301000D02*
X72608000Y-59301000D01*
X79347000Y-59341000D02*
X72653000Y-59341000D01*
X79301000Y-59381000D02*
X72699000Y-59381000D01*
X79254000Y-59421000D02*
X72746000Y-59421000D01*
X79206000Y-59461000D02*
X72794000Y-59461000D01*
X79156000Y-59501000D02*
X72844000Y-59501000D01*
X79106000Y-59541000D02*
X72894000Y-59541000D01*
X79054000Y-59581000D02*
X72946000Y-59581000D01*
X79000000Y-59621000D02*
X73000000Y-59621000D01*
X78945000Y-59661000D02*
X73055000Y-59661000D01*
X78889000Y-59701000D02*
X73111000Y-59701000D01*
X78830000Y-59741000D02*
X73170000Y-59741000D01*
X78770000Y-59781000D02*
X73230000Y-59781000D01*
X78709000Y-59821000D02*
X73291000Y-59821000D01*
X78645000Y-59861000D02*
X73355000Y-59861000D01*
X78579000Y-59901000D02*
X73421000Y-59901000D01*
X78510000Y-59941000D02*
X73490000Y-59941000D01*
X78439000Y-59981000D02*
X73561000Y-59981000D01*
X78365000Y-60021000D02*
X73635000Y-60021000D01*
X78289000Y-60061000D02*
X73711000Y-60061000D01*
X78209000Y-60101000D02*
X73791000Y-60101000D01*
X78125000Y-60141000D02*
X73875000Y-60141000D01*
X78037000Y-60181000D02*
X73963000Y-60181000D01*
X77944000Y-60221000D02*
X74056000Y-60221000D01*
X77846000Y-60261000D02*
X74154000Y-60261000D01*
X77742000Y-60301000D02*
X74258000Y-60301000D01*
X77630000Y-60341000D02*
X74370000Y-60341000D01*
X77510000Y-60381000D02*
X74490000Y-60381000D01*
X77378000Y-60421000D02*
X74622000Y-60421000D01*
X77230000Y-60461000D02*
X74770000Y-60461000D01*
X77062000Y-60501000D02*
X74938000Y-60501000D01*
X76862000Y-60541000D02*
X75138000Y-60541000D01*
X76599000Y-60581000D02*
X75401000Y-60581000D01*
X81120000Y-55500000D02*
G75*
G03*
X70880000Y-55500000I-5120000J0D01*
G01*
X70880000Y-55500000D02*
G75*
G03*
X81120000Y-55500000I5120000J0D01*
G01*
%TO.C,J_IN*%
X1070000Y-51685000D02*
X70000Y-50685000D01*
X10200000Y-51685000D02*
X1070000Y-51685000D01*
X70000Y-50685000D02*
X70000Y-45315000D01*
X70000Y-45315000D02*
X1070000Y-44315000D01*
X1070000Y-44315000D02*
X10200000Y-44315000D01*
X10200000Y-44315000D02*
X10200000Y-51685000D01*
%TO.C,R2*%
X76262742Y-24977500D02*
X76737258Y-24977500D01*
X76262742Y-26022500D02*
X76737258Y-26022500D01*
%TO.C,TP5*%
X94950000Y-50000000D02*
G75*
G03*
X93050000Y-50000000I-950000J0D01*
G01*
X93050000Y-50000000D02*
G75*
G03*
X94950000Y-50000000I950000J0D01*
G01*
%TO.C,TP1*%
X10950000Y-38500000D02*
G75*
G03*
X9050000Y-38500000I-950000J0D01*
G01*
X9050000Y-38500000D02*
G75*
G03*
X10950000Y-38500000I950000J0D01*
G01*
%TO.C,TP4*%
X88450000Y-47800000D02*
G75*
G03*
X86550000Y-47800000I-950000J0D01*
G01*
X86550000Y-47800000D02*
G75*
G03*
X88450000Y-47800000I950000J0D01*
G01*
%TO.C,TVS1*%
X29840000Y-41850000D02*
X29840000Y-46150000D01*
X29840000Y-41850000D02*
X35650000Y-41850000D01*
X29840000Y-46150000D02*
X35650000Y-46150000D01*
%TD*%
%LPC*%
D13*
%TO.C,FID2*%
X88000000Y-5000000D03*
%TD*%
D14*
%TO.C,D1*%
X90212500Y-45000000D03*
X91787500Y-45000000D03*
%TD*%
D15*
%TO.C,C2*%
X28750000Y-52000000D03*
D16*
X32250000Y-52000000D03*
%TD*%
D17*
%TO.C,R1*%
X90175000Y-41500000D03*
X91825000Y-41500000D03*
%TD*%
D18*
%TO.C,F2*%
X80700000Y-43545000D03*
X80700000Y-48455000D03*
%TD*%
D17*
%TO.C,R3*%
X75675000Y-20840000D03*
X77325000Y-20840000D03*
%TD*%
D19*
%TO.C,H2*%
X96000000Y-4000000D03*
%TD*%
D20*
%TO.C,U1*%
X27140000Y-38619999D03*
X27140000Y-33539999D03*
X27140000Y-23380000D03*
X72860000Y-41160000D03*
X72860000Y-31000000D03*
X72860000Y-20840000D03*
%TD*%
D13*
%TO.C,FID3*%
X95000000Y-40000000D03*
%TD*%
D21*
%TO.C,C6*%
X85725000Y-55000000D03*
X87275000Y-55000000D03*
%TD*%
D22*
%TO.C,J_OUT*%
X86500000Y-65220000D03*
D23*
X88000000Y-60900000D03*
D24*
X85000000Y-60900000D03*
X88000000Y-57900000D03*
X85000000Y-57900000D03*
%TD*%
D21*
%TO.C,C1*%
X30225000Y-58000000D03*
X31775000Y-58000000D03*
%TD*%
D25*
%TO.C,C5*%
X85550000Y-52000000D03*
X87450000Y-52000000D03*
%TD*%
D19*
%TO.C,H1*%
X4000000Y-4000000D03*
%TD*%
D24*
%TO.C,TP3*%
X80000000Y-38000000D03*
%TD*%
%TO.C,TP2*%
X18000000Y-53000000D03*
%TD*%
D26*
%TO.C,C4*%
X76000000Y-53000000D03*
D13*
X76000000Y-58000000D03*
%TD*%
D19*
%TO.C,H4*%
X96000000Y-66000000D03*
%TD*%
D13*
%TO.C,FID1*%
X12000000Y-66000000D03*
%TD*%
D22*
%TO.C,J_IN*%
X4780000Y-48000000D03*
D27*
X9100000Y-48000000D03*
D24*
X12100000Y-48000000D03*
%TD*%
D17*
%TO.C,R2*%
X75675000Y-25500000D03*
X77325000Y-25500000D03*
%TD*%
D28*
%TO.C,F1*%
X18250000Y-44500000D03*
X20750000Y-44500000D03*
%TD*%
D24*
%TO.C,TP5*%
X94000000Y-50000000D03*
%TD*%
%TO.C,TP1*%
X10000000Y-38500000D03*
%TD*%
%TO.C,TP4*%
X87500000Y-47800000D03*
%TD*%
D29*
%TO.C,TVS1*%
X31350000Y-44000000D03*
X35650000Y-44000000D03*
%TD*%
D19*
%TO.C,H3*%
X4000000Y-66000000D03*
%TD*%
%LPD*%
M02*
