%TF.GenerationSoftware,KiCad,Pcbnew,7.0.11+dfsg-1build4*%
%TF.CreationDate,2026-10-01T18:00:30+00:00*%
%TF.ProjectId,OSBAMS_Pi_Display_Power_RevA,4f534241-4d53-45f5-9069-5f446973706c,rev?*%
%TF.SameCoordinates,Original*%
%TF.FileFunction,Copper,L2,Bot*%
%TF.FilePolarity,Positive*%
%FSLAX46Y46*%
G04 Gerber Fmt 4.6, Leading zero omitted, Abs format (unit mm)*
G04 Created by KiCad (PCBNEW 7.0.11+dfsg-1build4) date 2026-10-01 18:00:30*
%MOMM*%
%LPD*%
G01*
G04 APERTURE LIST*
G04 Aperture macros list*
%AMRoundRect*
0 Rectangle with rounded corners*
0 $1 Rounding radius*
0 $2 $3 $4 $5 $6 $7 $8 $9 X,Y pos of 4 corners*
0 Add a 4 corners polygon primitive as box body*
4,1,4,$2,$3,$4,$5,$6,$7,$8,$9,$2,$3,0*
0 Add four circle primitives for the rounded corners*
1,1,$1+$1,$2,$3*
1,1,$1+$1,$4,$5*
1,1,$1+$1,$6,$7*
1,1,$1+$1,$8,$9*
0 Add four rect primitives between the rounded corners*
20,1,$1+$1,$2,$3,$4,$5,0*
20,1,$1+$1,$4,$5,$6,$7,0*
20,1,$1+$1,$6,$7,$8,$9,0*
20,1,$1+$1,$8,$9,$2,$3,0*%
G04 Aperture macros list end*
%TA.AperFunction,ComponentPad*%
%ADD10R,1.600000X1.600000*%
%TD*%
%TA.AperFunction,ComponentPad*%
%ADD11C,1.600000*%
%TD*%
%TA.AperFunction,ComponentPad*%
%ADD12C,2.400000*%
%TD*%
%TA.AperFunction,ComponentPad*%
%ADD13RoundRect,0.250001X0.499999X0.499999X-0.499999X0.499999X-0.499999X-0.499999X0.499999X-0.499999X0*%
%TD*%
%TA.AperFunction,ComponentPad*%
%ADD14C,1.500000*%
%TD*%
%TA.AperFunction,ComponentPad*%
%ADD15R,2.000000X2.000000*%
%TD*%
%TA.AperFunction,ComponentPad*%
%ADD16C,2.000000*%
%TD*%
%TA.AperFunction,ComponentPad*%
%ADD17RoundRect,0.250001X0.499999X-0.499999X0.499999X0.499999X-0.499999X0.499999X-0.499999X-0.499999X0*%
%TD*%
%TA.AperFunction,ViaPad*%
%ADD18C,0.800000*%
%TD*%
G04 APERTURE END LIST*
D10*
%TO.P,C2,1*%
%TO.N,+12V_F*%
X28750000Y-52000000D03*
D11*
%TO.P,C2,2*%
%TO.N,12V_GND*%
X32250000Y-52000000D03*
%TD*%
D12*
%TO.P,U1,1*%
%TO.N,+12V_F*%
X27140000Y-38619999D03*
%TO.P,U1,2*%
%TO.N,12V_GND*%
X27140000Y-33539999D03*
%TO.P,U1,3*%
%TO.N,N/C*%
X27140000Y-23380000D03*
%TO.P,U1,4*%
%TO.N,5V_ISO_RAW*%
X72860000Y-41160000D03*
%TO.P,U1,5*%
%TO.N,PI_GND*%
X72860000Y-31000000D03*
%TO.P,U1,6*%
%TO.N,TRIM*%
X72860000Y-20840000D03*
%TD*%
D13*
%TO.P,J_OUT,1*%
%TO.N,5V_PI*%
X88000000Y-60900000D03*
D14*
%TO.P,J_OUT,2*%
X85000000Y-60900000D03*
%TO.P,J_OUT,3*%
%TO.N,PI_GND*%
X88000000Y-57900000D03*
%TO.P,J_OUT,4*%
X85000000Y-57900000D03*
%TD*%
D15*
%TO.P,C4,1*%
%TO.N,5V_PI*%
X76000000Y-53000000D03*
D16*
%TO.P,C4,2*%
%TO.N,PI_GND*%
X76000000Y-58000000D03*
%TD*%
D17*
%TO.P,J_IN,1*%
%TO.N,+12V_IN*%
X9100000Y-48000000D03*
D14*
%TO.P,J_IN,2*%
%TO.N,12V_GND*%
X12100000Y-48000000D03*
%TD*%
D18*
%TO.N,12V_GND*%
X31775000Y-60300000D03*
X38250000Y-44000000D03*
X19500000Y-53000000D03*
%TO.N,PI_GND*%
X95500000Y-50000000D03*
X78725000Y-20840000D03*
X89050000Y-52000000D03*
X88512500Y-45000000D03*
X88875000Y-55000000D03*
%TD*%
%TA.AperFunction,Conductor*%
%TO.N,12V_GND*%
G36*
X44943039Y-1519685D02*
G01*
X44988794Y-1572489D01*
X45000000Y-1624000D01*
X45000000Y-68376000D01*
X44980315Y-68443039D01*
X44927511Y-68488794D01*
X44876000Y-68500000D01*
X1624000Y-68500000D01*
X1556961Y-68480315D01*
X1511206Y-68427511D01*
X1500000Y-68376000D01*
X1500000Y-66067763D01*
X2145787Y-66067763D01*
X2175413Y-66337013D01*
X2175415Y-66337024D01*
X2243926Y-66599082D01*
X2243928Y-66599088D01*
X2349870Y-66848390D01*
X2421998Y-66966575D01*
X2490979Y-67079605D01*
X2490986Y-67079615D01*
X2664253Y-67287819D01*
X2664259Y-67287824D01*
X2865998Y-67468582D01*
X3091910Y-67618044D01*
X3337176Y-67733020D01*
X3337183Y-67733022D01*
X3337185Y-67733023D01*
X3596557Y-67811057D01*
X3596564Y-67811058D01*
X3596569Y-67811060D01*
X3864561Y-67850500D01*
X3864566Y-67850500D01*
X4067629Y-67850500D01*
X4067631Y-67850500D01*
X4067636Y-67850499D01*
X4067648Y-67850499D01*
X4105191Y-67847750D01*
X4270156Y-67835677D01*
X4382758Y-67810593D01*
X4534546Y-67776782D01*
X4534548Y-67776781D01*
X4534553Y-67776780D01*
X4787558Y-67680014D01*
X5023777Y-67547441D01*
X5238177Y-67381888D01*
X5426186Y-67186881D01*
X5583799Y-66966579D01*
X5657787Y-66822669D01*
X5707649Y-66725690D01*
X5707651Y-66725684D01*
X5707656Y-66725675D01*
X5795118Y-66469305D01*
X5844319Y-66202933D01*
X5854212Y-65932235D01*
X5824586Y-65662982D01*
X5756072Y-65400912D01*
X5650130Y-65151610D01*
X5509018Y-64920390D01*
X5419747Y-64813119D01*
X5335746Y-64712180D01*
X5335740Y-64712175D01*
X5134002Y-64531418D01*
X4908092Y-64381957D01*
X4908090Y-64381956D01*
X4662824Y-64266980D01*
X4662819Y-64266978D01*
X4662814Y-64266976D01*
X4403442Y-64188942D01*
X4403428Y-64188939D01*
X4287791Y-64171921D01*
X4135439Y-64149500D01*
X3932369Y-64149500D01*
X3932351Y-64149500D01*
X3729844Y-64164323D01*
X3729831Y-64164325D01*
X3465453Y-64223217D01*
X3465446Y-64223220D01*
X3212439Y-64319987D01*
X2976226Y-64452557D01*
X2761822Y-64618112D01*
X2573822Y-64813109D01*
X2573816Y-64813116D01*
X2416202Y-65033419D01*
X2416199Y-65033424D01*
X2292350Y-65274309D01*
X2292343Y-65274327D01*
X2204884Y-65530685D01*
X2204881Y-65530699D01*
X2155681Y-65797068D01*
X2155680Y-65797075D01*
X2145787Y-66067763D01*
X1500000Y-66067763D01*
X1500000Y-52831517D01*
X27549500Y-52831517D01*
X27560292Y-52899657D01*
X27564354Y-52925304D01*
X27621950Y-53038342D01*
X27621952Y-53038344D01*
X27621954Y-53038347D01*
X27711652Y-53128045D01*
X27711654Y-53128046D01*
X27711658Y-53128050D01*
X27824694Y-53185645D01*
X27824698Y-53185647D01*
X27918475Y-53200499D01*
X27918481Y-53200500D01*
X29581518Y-53200499D01*
X29675304Y-53185646D01*
X29788342Y-53128050D01*
X29878050Y-53038342D01*
X29935646Y-52925304D01*
X29935646Y-52925302D01*
X29935647Y-52925301D01*
X29950499Y-52831524D01*
X29950500Y-52831519D01*
X29950499Y-51168482D01*
X29935646Y-51074696D01*
X29878050Y-50961658D01*
X29878046Y-50961654D01*
X29878045Y-50961652D01*
X29788347Y-50871954D01*
X29788344Y-50871952D01*
X29788342Y-50871950D01*
X29711517Y-50832805D01*
X29675301Y-50814352D01*
X29581524Y-50799500D01*
X27918482Y-50799500D01*
X27837519Y-50812323D01*
X27824696Y-50814354D01*
X27711658Y-50871950D01*
X27711657Y-50871951D01*
X27711652Y-50871954D01*
X27621954Y-50961652D01*
X27621951Y-50961657D01*
X27564352Y-51074698D01*
X27549500Y-51168475D01*
X27549500Y-52831517D01*
X1500000Y-52831517D01*
X1500000Y-48131187D01*
X3029500Y-48131187D01*
X3049794Y-48265823D01*
X3068604Y-48390615D01*
X3068605Y-48390617D01*
X3068606Y-48390623D01*
X3145938Y-48641326D01*
X3259767Y-48877696D01*
X3259768Y-48877697D01*
X3259770Y-48877700D01*
X3259772Y-48877704D01*
X3407567Y-49094479D01*
X3586014Y-49286801D01*
X3586018Y-49286804D01*
X3586019Y-49286805D01*
X3791143Y-49450386D01*
X4018357Y-49581568D01*
X4262584Y-49677420D01*
X4518370Y-49735802D01*
X4518376Y-49735802D01*
X4518379Y-49735803D01*
X4714484Y-49750499D01*
X4714503Y-49750499D01*
X4714506Y-49750500D01*
X4714508Y-49750500D01*
X4845492Y-49750500D01*
X4845494Y-49750500D01*
X4845496Y-49750499D01*
X4845515Y-49750499D01*
X5041620Y-49735803D01*
X5041622Y-49735802D01*
X5041630Y-49735802D01*
X5297416Y-49677420D01*
X5541643Y-49581568D01*
X5768857Y-49450386D01*
X5973981Y-49286805D01*
X6152433Y-49094479D01*
X6300228Y-48877704D01*
X6414063Y-48641323D01*
X6437389Y-48565701D01*
X7949500Y-48565701D01*
X7952401Y-48602567D01*
X7952402Y-48602573D01*
X7998253Y-48760392D01*
X7998255Y-48760395D01*
X8081917Y-48901861D01*
X8081923Y-48901869D01*
X8198130Y-49018076D01*
X8198134Y-49018079D01*
X8198136Y-49018081D01*
X8339603Y-49101744D01*
X8339604Y-49101744D01*
X8339607Y-49101746D01*
X8497426Y-49147597D01*
X8497429Y-49147597D01*
X8497431Y-49147598D01*
X8534306Y-49150500D01*
X8534314Y-49150500D01*
X9665686Y-49150500D01*
X9665694Y-49150500D01*
X9702569Y-49147598D01*
X9702571Y-49147597D01*
X9702573Y-49147597D01*
X9860392Y-49101746D01*
X9860393Y-49101745D01*
X9860397Y-49101744D01*
X10001864Y-49018081D01*
X10118081Y-48901864D01*
X10201744Y-48760397D01*
X10201745Y-48760393D01*
X10201746Y-48760392D01*
X10247597Y-48602573D01*
X10247598Y-48602567D01*
X10250499Y-48565701D01*
X10250500Y-48565694D01*
X10250500Y-47434306D01*
X10247598Y-47397431D01*
X10236338Y-47358673D01*
X10201746Y-47239607D01*
X10201744Y-47239604D01*
X10201744Y-47239603D01*
X10118081Y-47098136D01*
X10118079Y-47098134D01*
X10118076Y-47098130D01*
X10001869Y-46981923D01*
X10001861Y-46981917D01*
X9860395Y-46898255D01*
X9860392Y-46898253D01*
X9702573Y-46852402D01*
X9702567Y-46852401D01*
X9665701Y-46849500D01*
X9665694Y-46849500D01*
X8534306Y-46849500D01*
X8534298Y-46849500D01*
X8497432Y-46852401D01*
X8497426Y-46852402D01*
X8339607Y-46898253D01*
X8339604Y-46898255D01*
X8198138Y-46981917D01*
X8198130Y-46981923D01*
X8081923Y-47098130D01*
X8081917Y-47098138D01*
X7998255Y-47239604D01*
X7998253Y-47239607D01*
X7952402Y-47397426D01*
X7952401Y-47397432D01*
X7949500Y-47434298D01*
X7949500Y-48565701D01*
X6437389Y-48565701D01*
X6491396Y-48390615D01*
X6530500Y-48131182D01*
X6530500Y-47868818D01*
X6491396Y-47609385D01*
X6414063Y-47358677D01*
X6356720Y-47239603D01*
X6300232Y-47122303D01*
X6300231Y-47122302D01*
X6300230Y-47122301D01*
X6300228Y-47122296D01*
X6152433Y-46905521D01*
X6103145Y-46852401D01*
X5973985Y-46713198D01*
X5934533Y-46681736D01*
X5768857Y-46549614D01*
X5541643Y-46418432D01*
X5297416Y-46322580D01*
X5297411Y-46322578D01*
X5297402Y-46322576D01*
X5079818Y-46272914D01*
X5041630Y-46264198D01*
X5041629Y-46264197D01*
X5041625Y-46264197D01*
X5041620Y-46264196D01*
X4845515Y-46249500D01*
X4845494Y-46249500D01*
X4714506Y-46249500D01*
X4714484Y-46249500D01*
X4518379Y-46264196D01*
X4518374Y-46264197D01*
X4262597Y-46322576D01*
X4262578Y-46322582D01*
X4018356Y-46418432D01*
X3791143Y-46549614D01*
X3586014Y-46713198D01*
X3407567Y-46905520D01*
X3259768Y-47122302D01*
X3259767Y-47122303D01*
X3145938Y-47358673D01*
X3068606Y-47609376D01*
X3068605Y-47609381D01*
X3068604Y-47609385D01*
X3053853Y-47707247D01*
X3029500Y-47868812D01*
X3029500Y-48131187D01*
X1500000Y-48131187D01*
X1500000Y-38619999D01*
X25534551Y-38619999D01*
X25554317Y-38871150D01*
X25613126Y-39116109D01*
X25709533Y-39348858D01*
X25841160Y-39563652D01*
X25841161Y-39563655D01*
X25841164Y-39563658D01*
X26004776Y-39755223D01*
X26153066Y-39881874D01*
X26196343Y-39918837D01*
X26196346Y-39918838D01*
X26411140Y-40050465D01*
X26643889Y-40146872D01*
X26888852Y-40205682D01*
X27140000Y-40225448D01*
X27391148Y-40205682D01*
X27636111Y-40146872D01*
X27868859Y-40050465D01*
X28083659Y-39918835D01*
X28275224Y-39755223D01*
X28438836Y-39563658D01*
X28570466Y-39348858D01*
X28666873Y-39116110D01*
X28725683Y-38871147D01*
X28745449Y-38619999D01*
X28725683Y-38368851D01*
X28666873Y-38123888D01*
X28570466Y-37891140D01*
X28570466Y-37891139D01*
X28438839Y-37676345D01*
X28438838Y-37676342D01*
X28401875Y-37633065D01*
X28275224Y-37484775D01*
X28148571Y-37376603D01*
X28083656Y-37321160D01*
X28083653Y-37321159D01*
X27868859Y-37189532D01*
X27636110Y-37093125D01*
X27391151Y-37034316D01*
X27140000Y-37014550D01*
X26888848Y-37034316D01*
X26643889Y-37093125D01*
X26411140Y-37189532D01*
X26196346Y-37321159D01*
X26196343Y-37321160D01*
X26004776Y-37484775D01*
X25841161Y-37676342D01*
X25841160Y-37676345D01*
X25709533Y-37891139D01*
X25613126Y-38123888D01*
X25554317Y-38368847D01*
X25534551Y-38619999D01*
X1500000Y-38619999D01*
X1500000Y-23380000D01*
X25534551Y-23380000D01*
X25554317Y-23631151D01*
X25613126Y-23876110D01*
X25709533Y-24108859D01*
X25841160Y-24323653D01*
X25841161Y-24323656D01*
X25841164Y-24323659D01*
X26004776Y-24515224D01*
X26153066Y-24641875D01*
X26196343Y-24678838D01*
X26196346Y-24678839D01*
X26411140Y-24810466D01*
X26643889Y-24906873D01*
X26888852Y-24965683D01*
X27140000Y-24985449D01*
X27391148Y-24965683D01*
X27636111Y-24906873D01*
X27868859Y-24810466D01*
X28083659Y-24678836D01*
X28275224Y-24515224D01*
X28438836Y-24323659D01*
X28570466Y-24108859D01*
X28666873Y-23876111D01*
X28725683Y-23631148D01*
X28745449Y-23380000D01*
X28725683Y-23128852D01*
X28666873Y-22883889D01*
X28570466Y-22651141D01*
X28570466Y-22651140D01*
X28438839Y-22436346D01*
X28438838Y-22436343D01*
X28401875Y-22393066D01*
X28275224Y-22244776D01*
X28148571Y-22136604D01*
X28083656Y-22081161D01*
X28083653Y-22081160D01*
X27868859Y-21949533D01*
X27636110Y-21853126D01*
X27391151Y-21794317D01*
X27140000Y-21774551D01*
X26888848Y-21794317D01*
X26643889Y-21853126D01*
X26411140Y-21949533D01*
X26196346Y-22081160D01*
X26196343Y-22081161D01*
X26004776Y-22244776D01*
X25841161Y-22436343D01*
X25841160Y-22436346D01*
X25709533Y-22651140D01*
X25613126Y-22883889D01*
X25554317Y-23128848D01*
X25534551Y-23380000D01*
X1500000Y-23380000D01*
X1500000Y-4067763D01*
X2145787Y-4067763D01*
X2175413Y-4337013D01*
X2175415Y-4337024D01*
X2243926Y-4599082D01*
X2243928Y-4599088D01*
X2349870Y-4848390D01*
X2421998Y-4966575D01*
X2490979Y-5079605D01*
X2490986Y-5079615D01*
X2664253Y-5287819D01*
X2664259Y-5287824D01*
X2865998Y-5468582D01*
X3091910Y-5618044D01*
X3337176Y-5733020D01*
X3337183Y-5733022D01*
X3337185Y-5733023D01*
X3596557Y-5811057D01*
X3596564Y-5811058D01*
X3596569Y-5811060D01*
X3864561Y-5850500D01*
X3864566Y-5850500D01*
X4067629Y-5850500D01*
X4067631Y-5850500D01*
X4067636Y-5850499D01*
X4067648Y-5850499D01*
X4105191Y-5847750D01*
X4270156Y-5835677D01*
X4382758Y-5810593D01*
X4534546Y-5776782D01*
X4534548Y-5776781D01*
X4534553Y-5776780D01*
X4787558Y-5680014D01*
X5023777Y-5547441D01*
X5238177Y-5381888D01*
X5426186Y-5186881D01*
X5583799Y-4966579D01*
X5657787Y-4822669D01*
X5707649Y-4725690D01*
X5707651Y-4725684D01*
X5707656Y-4725675D01*
X5795118Y-4469305D01*
X5844319Y-4202933D01*
X5854212Y-3932235D01*
X5824586Y-3662982D01*
X5756072Y-3400912D01*
X5650130Y-3151610D01*
X5509018Y-2920390D01*
X5419747Y-2813119D01*
X5335746Y-2712180D01*
X5335740Y-2712175D01*
X5134002Y-2531418D01*
X4908092Y-2381957D01*
X4908090Y-2381956D01*
X4662824Y-2266980D01*
X4662819Y-2266978D01*
X4662814Y-2266976D01*
X4403442Y-2188942D01*
X4403428Y-2188939D01*
X4287791Y-2171921D01*
X4135439Y-2149500D01*
X3932369Y-2149500D01*
X3932351Y-2149500D01*
X3729844Y-2164323D01*
X3729831Y-2164325D01*
X3465453Y-2223217D01*
X3465446Y-2223220D01*
X3212439Y-2319987D01*
X2976226Y-2452557D01*
X2761822Y-2618112D01*
X2573822Y-2813109D01*
X2573816Y-2813116D01*
X2416202Y-3033419D01*
X2416199Y-3033424D01*
X2292350Y-3274309D01*
X2292343Y-3274327D01*
X2204884Y-3530685D01*
X2204881Y-3530699D01*
X2155681Y-3797068D01*
X2155680Y-3797075D01*
X2145787Y-4067763D01*
X1500000Y-4067763D01*
X1500000Y-1624000D01*
X1519685Y-1556961D01*
X1572489Y-1511206D01*
X1624000Y-1500000D01*
X44876000Y-1500000D01*
X44943039Y-1519685D01*
G37*
%TD.AperFunction*%
%TD*%
%TA.AperFunction,Conductor*%
%TO.N,PI_GND*%
G36*
X98443039Y-1519685D02*
G01*
X98488794Y-1572489D01*
X98500000Y-1624000D01*
X98500000Y-68376000D01*
X98480315Y-68443039D01*
X98427511Y-68488794D01*
X98376000Y-68500000D01*
X55124000Y-68500000D01*
X55056961Y-68480315D01*
X55011206Y-68427511D01*
X55000000Y-68376000D01*
X55000000Y-65351187D01*
X84749500Y-65351187D01*
X84756996Y-65400917D01*
X84788604Y-65610615D01*
X84788605Y-65610617D01*
X84788606Y-65610623D01*
X84865938Y-65861326D01*
X84979767Y-66097696D01*
X84979768Y-66097697D01*
X84979770Y-66097700D01*
X84979772Y-66097704D01*
X85051510Y-66202924D01*
X85127567Y-66314479D01*
X85306014Y-66506801D01*
X85306018Y-66506804D01*
X85306019Y-66506805D01*
X85511143Y-66670386D01*
X85738357Y-66801568D01*
X85982584Y-66897420D01*
X86238370Y-66955802D01*
X86238376Y-66955802D01*
X86238379Y-66955803D01*
X86434484Y-66970499D01*
X86434503Y-66970499D01*
X86434506Y-66970500D01*
X86434508Y-66970500D01*
X86565492Y-66970500D01*
X86565494Y-66970500D01*
X86565496Y-66970499D01*
X86565515Y-66970499D01*
X86761620Y-66955803D01*
X86761622Y-66955802D01*
X86761630Y-66955802D01*
X87017416Y-66897420D01*
X87261643Y-66801568D01*
X87488857Y-66670386D01*
X87693981Y-66506805D01*
X87728768Y-66469314D01*
X87851514Y-66337024D01*
X87872433Y-66314479D01*
X88020228Y-66097704D01*
X88034647Y-66067763D01*
X94145787Y-66067763D01*
X94175413Y-66337013D01*
X94175415Y-66337024D01*
X94219801Y-66506801D01*
X94243928Y-66599088D01*
X94349870Y-66848390D01*
X94424393Y-66970500D01*
X94490979Y-67079605D01*
X94490986Y-67079615D01*
X94664253Y-67287819D01*
X94664259Y-67287824D01*
X94865998Y-67468582D01*
X95091910Y-67618044D01*
X95337176Y-67733020D01*
X95337183Y-67733022D01*
X95337185Y-67733023D01*
X95596557Y-67811057D01*
X95596564Y-67811058D01*
X95596569Y-67811060D01*
X95864561Y-67850500D01*
X95864566Y-67850500D01*
X96067629Y-67850500D01*
X96067631Y-67850500D01*
X96067636Y-67850499D01*
X96067648Y-67850499D01*
X96105191Y-67847750D01*
X96270156Y-67835677D01*
X96382758Y-67810593D01*
X96534546Y-67776782D01*
X96534548Y-67776781D01*
X96534553Y-67776780D01*
X96787558Y-67680014D01*
X97023777Y-67547441D01*
X97238177Y-67381888D01*
X97426186Y-67186881D01*
X97583799Y-66966579D01*
X97668637Y-66801567D01*
X97707649Y-66725690D01*
X97707651Y-66725684D01*
X97707656Y-66725675D01*
X97795118Y-66469305D01*
X97844319Y-66202933D01*
X97854212Y-65932235D01*
X97824586Y-65662982D01*
X97756072Y-65400912D01*
X97650130Y-65151610D01*
X97509018Y-64920390D01*
X97507845Y-64918981D01*
X97335746Y-64712180D01*
X97335740Y-64712175D01*
X97134002Y-64531418D01*
X96908092Y-64381957D01*
X96823500Y-64342302D01*
X96662824Y-64266980D01*
X96662819Y-64266978D01*
X96662814Y-64266976D01*
X96403442Y-64188942D01*
X96403428Y-64188939D01*
X96287791Y-64171921D01*
X96135439Y-64149500D01*
X95932369Y-64149500D01*
X95932351Y-64149500D01*
X95729844Y-64164323D01*
X95729831Y-64164325D01*
X95465453Y-64223217D01*
X95465446Y-64223220D01*
X95212439Y-64319987D01*
X94976226Y-64452557D01*
X94761822Y-64618112D01*
X94573822Y-64813109D01*
X94573816Y-64813116D01*
X94416202Y-65033419D01*
X94416199Y-65033424D01*
X94292350Y-65274309D01*
X94292343Y-65274327D01*
X94204884Y-65530685D01*
X94204881Y-65530699D01*
X94155681Y-65797068D01*
X94155680Y-65797075D01*
X94145787Y-66067763D01*
X88034647Y-66067763D01*
X88134063Y-65861323D01*
X88211396Y-65610615D01*
X88250500Y-65351182D01*
X88250500Y-65088818D01*
X88211396Y-64829385D01*
X88134063Y-64578677D01*
X88039328Y-64381957D01*
X88020232Y-64342303D01*
X88020231Y-64342302D01*
X88020230Y-64342301D01*
X88020228Y-64342296D01*
X87872433Y-64125521D01*
X87862441Y-64114753D01*
X87693985Y-63933198D01*
X87654533Y-63901736D01*
X87488857Y-63769614D01*
X87261643Y-63638432D01*
X87017416Y-63542580D01*
X87017411Y-63542578D01*
X87017402Y-63542576D01*
X86799818Y-63492914D01*
X86761630Y-63484198D01*
X86761629Y-63484197D01*
X86761625Y-63484197D01*
X86761620Y-63484196D01*
X86565515Y-63469500D01*
X86565494Y-63469500D01*
X86434506Y-63469500D01*
X86434484Y-63469500D01*
X86238379Y-63484196D01*
X86238374Y-63484197D01*
X85982597Y-63542576D01*
X85982578Y-63542582D01*
X85738356Y-63638432D01*
X85511143Y-63769614D01*
X85306014Y-63933198D01*
X85127567Y-64125520D01*
X84979768Y-64342302D01*
X84979767Y-64342303D01*
X84865938Y-64578673D01*
X84788606Y-64829376D01*
X84788605Y-64829381D01*
X84788604Y-64829385D01*
X84774888Y-64920384D01*
X84749500Y-65088812D01*
X84749500Y-65351187D01*
X55000000Y-65351187D01*
X55000000Y-60900000D01*
X83844571Y-60900000D01*
X83864244Y-61112310D01*
X83922596Y-61317392D01*
X83922596Y-61317394D01*
X84017632Y-61508253D01*
X84132526Y-61660395D01*
X84146128Y-61678407D01*
X84303698Y-61822052D01*
X84484981Y-61934298D01*
X84683802Y-62011321D01*
X84893390Y-62050500D01*
X84893392Y-62050500D01*
X85106608Y-62050500D01*
X85106610Y-62050500D01*
X85316198Y-62011321D01*
X85515019Y-61934298D01*
X85696302Y-61822052D01*
X85853872Y-61678407D01*
X85982366Y-61508255D01*
X86003555Y-61465701D01*
X86849500Y-61465701D01*
X86852401Y-61502567D01*
X86852402Y-61502573D01*
X86898253Y-61660392D01*
X86898255Y-61660395D01*
X86898256Y-61660397D01*
X86908907Y-61678407D01*
X86981917Y-61801861D01*
X86981923Y-61801869D01*
X87098130Y-61918076D01*
X87098134Y-61918079D01*
X87098136Y-61918081D01*
X87239603Y-62001744D01*
X87239604Y-62001744D01*
X87239607Y-62001746D01*
X87397426Y-62047597D01*
X87397429Y-62047597D01*
X87397431Y-62047598D01*
X87434306Y-62050500D01*
X87434314Y-62050500D01*
X88565686Y-62050500D01*
X88565694Y-62050500D01*
X88602569Y-62047598D01*
X88602571Y-62047597D01*
X88602573Y-62047597D01*
X88760392Y-62001746D01*
X88760393Y-62001745D01*
X88760397Y-62001744D01*
X88901864Y-61918081D01*
X89018081Y-61801864D01*
X89101744Y-61660397D01*
X89101745Y-61660393D01*
X89101746Y-61660392D01*
X89147597Y-61502573D01*
X89147598Y-61502567D01*
X89150499Y-61465701D01*
X89150500Y-61465694D01*
X89150500Y-60334306D01*
X89147598Y-60297431D01*
X89147597Y-60297426D01*
X89101746Y-60139607D01*
X89101744Y-60139604D01*
X89101744Y-60139603D01*
X89018081Y-59998136D01*
X89018079Y-59998134D01*
X89018076Y-59998130D01*
X88901869Y-59881923D01*
X88901861Y-59881917D01*
X88760395Y-59798255D01*
X88760392Y-59798253D01*
X88602573Y-59752402D01*
X88602567Y-59752401D01*
X88565701Y-59749500D01*
X88565694Y-59749500D01*
X87434306Y-59749500D01*
X87434298Y-59749500D01*
X87397432Y-59752401D01*
X87397426Y-59752402D01*
X87239607Y-59798253D01*
X87239604Y-59798255D01*
X87098138Y-59881917D01*
X87098130Y-59881923D01*
X86981923Y-59998130D01*
X86981917Y-59998138D01*
X86898255Y-60139604D01*
X86898253Y-60139607D01*
X86852402Y-60297426D01*
X86852401Y-60297432D01*
X86849500Y-60334298D01*
X86849500Y-61465701D01*
X86003555Y-61465701D01*
X86077405Y-61317389D01*
X86135756Y-61112310D01*
X86155429Y-60900000D01*
X86135756Y-60687690D01*
X86077405Y-60482611D01*
X86077403Y-60482606D01*
X86077403Y-60482605D01*
X85982367Y-60291746D01*
X85853872Y-60121593D01*
X85696302Y-59977948D01*
X85515019Y-59865702D01*
X85515017Y-59865701D01*
X85340919Y-59798256D01*
X85316198Y-59788679D01*
X85106610Y-59749500D01*
X84893390Y-59749500D01*
X84683802Y-59788679D01*
X84683799Y-59788679D01*
X84683799Y-59788680D01*
X84484982Y-59865701D01*
X84484980Y-59865702D01*
X84303699Y-59977947D01*
X84146127Y-60121593D01*
X84017632Y-60291746D01*
X83922596Y-60482605D01*
X83922596Y-60482607D01*
X83864244Y-60687689D01*
X83844571Y-60899999D01*
X83844571Y-60900000D01*
X55000000Y-60900000D01*
X55000000Y-54031517D01*
X74599500Y-54031517D01*
X74610292Y-54099657D01*
X74614354Y-54125304D01*
X74671950Y-54238342D01*
X74671952Y-54238344D01*
X74671954Y-54238347D01*
X74761652Y-54328045D01*
X74761654Y-54328046D01*
X74761658Y-54328050D01*
X74874694Y-54385645D01*
X74874698Y-54385647D01*
X74968475Y-54400499D01*
X74968481Y-54400500D01*
X77031518Y-54400499D01*
X77125304Y-54385646D01*
X77238342Y-54328050D01*
X77328050Y-54238342D01*
X77385646Y-54125304D01*
X77385646Y-54125302D01*
X77385647Y-54125301D01*
X77400499Y-54031524D01*
X77400500Y-54031519D01*
X77400499Y-51968482D01*
X77385646Y-51874696D01*
X77328050Y-51761658D01*
X77328046Y-51761654D01*
X77328045Y-51761652D01*
X77238347Y-51671954D01*
X77238344Y-51671952D01*
X77238342Y-51671950D01*
X77161517Y-51632805D01*
X77125301Y-51614352D01*
X77031524Y-51599500D01*
X74968482Y-51599500D01*
X74887519Y-51612323D01*
X74874696Y-51614354D01*
X74761658Y-51671950D01*
X74761657Y-51671951D01*
X74761652Y-51671954D01*
X74671954Y-51761652D01*
X74671951Y-51761657D01*
X74614352Y-51874698D01*
X74599500Y-51968475D01*
X74599500Y-54031517D01*
X55000000Y-54031517D01*
X55000000Y-41160000D01*
X71254551Y-41160000D01*
X71274317Y-41411151D01*
X71333126Y-41656110D01*
X71429533Y-41888859D01*
X71561160Y-42103653D01*
X71561161Y-42103656D01*
X71561164Y-42103659D01*
X71724776Y-42295224D01*
X71873066Y-42421875D01*
X71916343Y-42458838D01*
X71916346Y-42458839D01*
X72131140Y-42590466D01*
X72363889Y-42686873D01*
X72608852Y-42745683D01*
X72860000Y-42765449D01*
X73111148Y-42745683D01*
X73356111Y-42686873D01*
X73588859Y-42590466D01*
X73803659Y-42458836D01*
X73995224Y-42295224D01*
X74158836Y-42103659D01*
X74290466Y-41888859D01*
X74386873Y-41656111D01*
X74445683Y-41411148D01*
X74465449Y-41160000D01*
X74445683Y-40908852D01*
X74386873Y-40663889D01*
X74290466Y-40431141D01*
X74290466Y-40431140D01*
X74158839Y-40216346D01*
X74158838Y-40216343D01*
X74121875Y-40173066D01*
X73995224Y-40024776D01*
X73868571Y-39916604D01*
X73803656Y-39861161D01*
X73803653Y-39861160D01*
X73588859Y-39729533D01*
X73356110Y-39633126D01*
X73111151Y-39574317D01*
X72860000Y-39554551D01*
X72608848Y-39574317D01*
X72363889Y-39633126D01*
X72131140Y-39729533D01*
X71916346Y-39861160D01*
X71916343Y-39861161D01*
X71724776Y-40024776D01*
X71561161Y-40216343D01*
X71561160Y-40216346D01*
X71429533Y-40431140D01*
X71333126Y-40663889D01*
X71274317Y-40908848D01*
X71254551Y-41160000D01*
X55000000Y-41160000D01*
X55000000Y-20840000D01*
X71254551Y-20840000D01*
X71274317Y-21091151D01*
X71333126Y-21336110D01*
X71429533Y-21568859D01*
X71561160Y-21783653D01*
X71561161Y-21783656D01*
X71561164Y-21783659D01*
X71724776Y-21975224D01*
X71873066Y-22101875D01*
X71916343Y-22138838D01*
X71916346Y-22138839D01*
X72131140Y-22270466D01*
X72363889Y-22366873D01*
X72608852Y-22425683D01*
X72860000Y-22445449D01*
X73111148Y-22425683D01*
X73356111Y-22366873D01*
X73588859Y-22270466D01*
X73803659Y-22138836D01*
X73995224Y-21975224D01*
X74158836Y-21783659D01*
X74290466Y-21568859D01*
X74386873Y-21336111D01*
X74445683Y-21091148D01*
X74465449Y-20840000D01*
X74445683Y-20588852D01*
X74386873Y-20343889D01*
X74290466Y-20111141D01*
X74290466Y-20111140D01*
X74158839Y-19896346D01*
X74158838Y-19896343D01*
X74121875Y-19853066D01*
X73995224Y-19704776D01*
X73868571Y-19596604D01*
X73803656Y-19541161D01*
X73803653Y-19541160D01*
X73588859Y-19409533D01*
X73356110Y-19313126D01*
X73111151Y-19254317D01*
X72860000Y-19234551D01*
X72608848Y-19254317D01*
X72363889Y-19313126D01*
X72131140Y-19409533D01*
X71916346Y-19541160D01*
X71916343Y-19541161D01*
X71724776Y-19704776D01*
X71561161Y-19896343D01*
X71561160Y-19896346D01*
X71429533Y-20111140D01*
X71333126Y-20343889D01*
X71274317Y-20588848D01*
X71254551Y-20840000D01*
X55000000Y-20840000D01*
X55000000Y-4067763D01*
X94145787Y-4067763D01*
X94175413Y-4337013D01*
X94175415Y-4337024D01*
X94243926Y-4599082D01*
X94243928Y-4599088D01*
X94349870Y-4848390D01*
X94421998Y-4966575D01*
X94490979Y-5079605D01*
X94490986Y-5079615D01*
X94664253Y-5287819D01*
X94664259Y-5287824D01*
X94865998Y-5468582D01*
X95091910Y-5618044D01*
X95337176Y-5733020D01*
X95337183Y-5733022D01*
X95337185Y-5733023D01*
X95596557Y-5811057D01*
X95596564Y-5811058D01*
X95596569Y-5811060D01*
X95864561Y-5850500D01*
X95864566Y-5850500D01*
X96067629Y-5850500D01*
X96067631Y-5850500D01*
X96067636Y-5850499D01*
X96067648Y-5850499D01*
X96105191Y-5847750D01*
X96270156Y-5835677D01*
X96382758Y-5810593D01*
X96534546Y-5776782D01*
X96534548Y-5776781D01*
X96534553Y-5776780D01*
X96787558Y-5680014D01*
X97023777Y-5547441D01*
X97238177Y-5381888D01*
X97426186Y-5186881D01*
X97583799Y-4966579D01*
X97657787Y-4822669D01*
X97707649Y-4725690D01*
X97707651Y-4725684D01*
X97707656Y-4725675D01*
X97795118Y-4469305D01*
X97844319Y-4202933D01*
X97854212Y-3932235D01*
X97824586Y-3662982D01*
X97756072Y-3400912D01*
X97650130Y-3151610D01*
X97509018Y-2920390D01*
X97419747Y-2813119D01*
X97335746Y-2712180D01*
X97335740Y-2712175D01*
X97134002Y-2531418D01*
X96908092Y-2381957D01*
X96908090Y-2381956D01*
X96662824Y-2266980D01*
X96662819Y-2266978D01*
X96662814Y-2266976D01*
X96403442Y-2188942D01*
X96403428Y-2188939D01*
X96287791Y-2171921D01*
X96135439Y-2149500D01*
X95932369Y-2149500D01*
X95932351Y-2149500D01*
X95729844Y-2164323D01*
X95729831Y-2164325D01*
X95465453Y-2223217D01*
X95465446Y-2223220D01*
X95212439Y-2319987D01*
X94976226Y-2452557D01*
X94761822Y-2618112D01*
X94573822Y-2813109D01*
X94573816Y-2813116D01*
X94416202Y-3033419D01*
X94416199Y-3033424D01*
X94292350Y-3274309D01*
X94292343Y-3274327D01*
X94204884Y-3530685D01*
X94204881Y-3530699D01*
X94155681Y-3797068D01*
X94155680Y-3797075D01*
X94145787Y-4067763D01*
X55000000Y-4067763D01*
X55000000Y-1624000D01*
X55019685Y-1556961D01*
X55072489Y-1511206D01*
X55124000Y-1500000D01*
X98376000Y-1500000D01*
X98443039Y-1519685D01*
G37*
%TD.AperFunction*%
%TD*%
M02*
