%TF.GenerationSoftware,KiCad,Pcbnew,7.0.11+dfsg-1build4*%
%TF.CreationDate,2026-10-01T14:50:59+00:00*%
%TF.ProjectId,OSBAMS_Pi_Display_Power_RevA,4f534241-4d53-45f5-9069-5f446973706c,rev?*%
%TF.SameCoordinates,Original*%
%TF.FileFunction,Soldermask,Top*%
%TF.FilePolarity,Negative*%
%FSLAX46Y46*%
G04 Gerber Fmt 4.6, Leading zero omitted, Abs format (unit mm)*
G04 Created by KiCad (PCBNEW 7.0.11+dfsg-1build4) date 2026-10-01 14:50:59*
%MOMM*%
%LPD*%
G01*
G04 APERTURE LIST*
G04 Aperture macros list*
%AMRoundRect*
0 Rectangle with rounded corners*
0 $1 Rounding radius*
0 $2 $3 $4 $5 $6 $7 $8 $9 X,Y pos of 4 corners*
0 Add a 4 corners polygon primitive as box body*
4,1,4,$2,$3,$4,$5,$6,$7,$8,$9,$2,$3,0*
0 Add four circle primitives for the rounded corners*
1,1,$1+$1,$2,$3*
1,1,$1+$1,$4,$5*
1,1,$1+$1,$6,$7*
1,1,$1+$1,$8,$9*
0 Add four rect primitives between the rounded corners*
20,1,$1+$1,$2,$3,$4,$5,0*
20,1,$1+$1,$4,$5,$6,$7,0*
20,1,$1+$1,$6,$7,$8,$9,0*
20,1,$1+$1,$8,$9,$2,$3,0*%
G04 Aperture macros list end*
%ADD10RoundRect,0.250000X-1.000000X-0.900000X1.000000X-0.900000X1.000000X0.900000X-1.000000X0.900000X0*%
%ADD11RoundRect,0.200000X-0.200000X-0.275000X0.200000X-0.275000X0.200000X0.275000X-0.200000X0.275000X0*%
%ADD12C,1.500000*%
%ADD13C,3.200000*%
%ADD14C,3.000000*%
%ADD15RoundRect,0.250001X0.499999X0.499999X-0.499999X0.499999X-0.499999X-0.499999X0.499999X-0.499999X0*%
%ADD16R,3.150000X1.960000*%
%ADD17R,2.000000X2.000000*%
%ADD18C,2.000000*%
%ADD19RoundRect,0.250000X-0.250000X-0.475000X0.250000X-0.475000X0.250000X0.475000X-0.250000X0.475000X0*%
%ADD20RoundRect,0.225000X-0.225000X-0.250000X0.225000X-0.250000X0.225000X0.250000X-0.225000X0.250000X0*%
%ADD21RoundRect,0.218750X-0.218750X-0.256250X0.218750X-0.256250X0.218750X0.256250X-0.218750X0.256250X0*%
%ADD22RoundRect,0.250001X0.499999X-0.499999X0.499999X0.499999X-0.499999X0.499999X-0.499999X-0.499999X0*%
%ADD23R,1.600000X1.600000*%
%ADD24C,1.600000*%
%ADD25C,2.400000*%
%ADD26R,1.960000X3.150000*%
G04 APERTURE END LIST*
D10*
%TO.C,TVS1*%
X31350000Y-44000000D03*
X35650000Y-44000000D03*
%TD*%
D11*
%TO.C,R1*%
X90175000Y-41500000D03*
X91825000Y-41500000D03*
%TD*%
D12*
%TO.C,TP4*%
X87500000Y-47800000D03*
%TD*%
D13*
%TO.C,H3*%
X4000000Y-66000000D03*
%TD*%
D12*
%TO.C,TP3*%
X80000000Y-38000000D03*
%TD*%
D14*
%TO.C,J_OUT*%
X86500000Y-65220000D03*
D15*
X88000000Y-60900000D03*
D12*
X85000000Y-60900000D03*
X88000000Y-57900000D03*
X85000000Y-57900000D03*
%TD*%
D11*
%TO.C,R3*%
X75675000Y-20840000D03*
X77325000Y-20840000D03*
%TD*%
D16*
%TO.C,F2*%
X80700000Y-43545000D03*
X80700000Y-48455000D03*
%TD*%
D17*
%TO.C,C4*%
X76000000Y-53000000D03*
D18*
X76000000Y-58000000D03*
%TD*%
D19*
%TO.C,C5*%
X85550000Y-52000000D03*
X87450000Y-52000000D03*
%TD*%
D20*
%TO.C,C6*%
X85725000Y-55000000D03*
X87275000Y-55000000D03*
%TD*%
D11*
%TO.C,R2*%
X75675000Y-25500000D03*
X77325000Y-25500000D03*
%TD*%
D18*
%TO.C,FID3*%
X95000000Y-40000000D03*
%TD*%
D12*
%TO.C,TP2*%
X18000000Y-53000000D03*
%TD*%
D21*
%TO.C,D1*%
X90212500Y-45000000D03*
X91787500Y-45000000D03*
%TD*%
D14*
%TO.C,J_IN*%
X4780000Y-48000000D03*
D22*
X9100000Y-48000000D03*
D12*
X12100000Y-48000000D03*
%TD*%
%TO.C,TP5*%
X94000000Y-50000000D03*
%TD*%
D13*
%TO.C,H4*%
X96000000Y-66000000D03*
%TD*%
D23*
%TO.C,C2*%
X28750000Y-52000000D03*
D24*
X32250000Y-52000000D03*
%TD*%
D18*
%TO.C,FID1*%
X12000000Y-66000000D03*
%TD*%
D25*
%TO.C,U1*%
X27140000Y-38619999D03*
X27140000Y-33539999D03*
X27140000Y-23380000D03*
X72860000Y-41160000D03*
X72860000Y-31000000D03*
X72860000Y-20840000D03*
%TD*%
D13*
%TO.C,H1*%
X4000000Y-4000000D03*
%TD*%
%TO.C,H2*%
X96000000Y-4000000D03*
%TD*%
D26*
%TO.C,F1*%
X17045000Y-44500000D03*
X21955000Y-44500000D03*
%TD*%
D18*
%TO.C,FID2*%
X88000000Y-5000000D03*
%TD*%
D12*
%TO.C,TP1*%
X10000000Y-38500000D03*
%TD*%
D20*
%TO.C,C1*%
X30225000Y-58000000D03*
X31775000Y-58000000D03*
%TD*%
M02*
