%TF.GenerationSoftware,KiCad,Pcbnew,7.0.11+dfsg-1build4*%
%TF.CreationDate,2026-10-01T08:28:47+00:00*%
%TF.ProjectId,OSBAMS_Pi_Display_Power_RevA,4f534241-4d53-45f5-9069-5f446973706c,rev?*%
%TF.SameCoordinates,Original*%
%TF.FileFunction,Legend,Top*%
%TF.FilePolarity,Positive*%
%FSLAX46Y46*%
G04 Gerber Fmt 4.6, Leading zero omitted, Abs format (unit mm)*
G04 Created by KiCad (PCBNEW 7.0.11+dfsg-1build4) date 2026-10-01 08:28:47*
%MOMM*%
%LPD*%
G01*
G04 APERTURE LIST*
G04 Aperture macros list*
%AMRoundRect*
0 Rectangle with rounded corners*
0 $1 Rounding radius*
0 $2 $3 $4 $5 $6 $7 $8 $9 X,Y pos of 4 corners*
0 Add a 4 corners polygon primitive as box body*
4,1,4,$2,$3,$4,$5,$6,$7,$8,$9,$2,$3,0*
0 Add four circle primitives for the rounded corners*
1,1,$1+$1,$2,$3*
1,1,$1+$1,$4,$5*
1,1,$1+$1,$6,$7*
1,1,$1+$1,$8,$9*
0 Add four rect primitives between the rounded corners*
20,1,$1+$1,$2,$3,$4,$5,0*
20,1,$1+$1,$4,$5,$6,$7,0*
20,1,$1+$1,$6,$7,$8,$9,0*
20,1,$1+$1,$8,$9,$2,$3,0*%
G04 Aperture macros list end*
%ADD10C,0.200000*%
%ADD11C,0.175000*%
%ADD12C,0.250000*%
%ADD13C,0.150000*%
%ADD14C,0.300000*%
%ADD15C,3.200000*%
%ADD16RoundRect,0.400000X-0.600000X-0.600000X0.600000X-0.600000X0.600000X0.600000X-0.600000X0.600000X0*%
%ADD17RoundRect,0.160000X-0.240000X-0.315000X0.240000X-0.315000X0.240000X0.315000X-0.240000X0.315000X0*%
%ADD18C,2.200000*%
%ADD19RoundRect,0.440000X-0.660000X-0.760000X0.660000X-0.760000X0.660000X0.760000X-0.660000X0.760000X0*%
%ADD20RoundRect,0.300000X-0.450000X-0.450000X0.450000X-0.450000X0.450000X0.450000X-0.450000X0.450000X0*%
%ADD21RoundRect,0.640000X-1.660000X-0.960000X1.660000X-0.960000X1.660000X0.960000X-1.660000X0.960000X0*%
%ADD22RoundRect,0.200000X-0.300000X-0.525000X0.300000X-0.525000X0.300000X0.525000X-0.300000X0.525000X0*%
%ADD23RoundRect,0.640000X-0.960000X-1.860000X0.960000X-1.860000X0.960000X1.860000X-0.960000X1.860000X0*%
%ADD24C,1.800000*%
%ADD25C,2.000000*%
G04 APERTURE END LIST*
D10*
X50000000Y-61000000D02*
X50000000Y-63000000D01*
X50000000Y-65000000D02*
X50000000Y-67000000D01*
X50000000Y-29000000D02*
X50000000Y-31000000D01*
X50000000Y-5000000D02*
X50000000Y-7000000D01*
X50000000Y-37000000D02*
X50000000Y-39000000D01*
X50000000Y-49000000D02*
X50000000Y-51000000D01*
X50000000Y-25000000D02*
X50000000Y-27000000D01*
X50000000Y-57000000D02*
X50000000Y-59000000D01*
X50000000Y-33000000D02*
X50000000Y-35000000D01*
X50000000Y-13000000D02*
X50000000Y-15000000D01*
X50000000Y-21000000D02*
X50000000Y-23000000D01*
X50000000Y-17000000D02*
X50000000Y-19000000D01*
X50000000Y-45000000D02*
X50000000Y-47000000D01*
X50000000Y-53000000D02*
X50000000Y-55000000D01*
X50000000Y-41000000D02*
X50000000Y-43000000D01*
X50000000Y-9000000D02*
X50000000Y-11000000D01*
X12417292Y-63544742D02*
X12417292Y-62344742D01*
X12417292Y-62344742D02*
X12874435Y-62344742D01*
X12874435Y-62344742D02*
X12988720Y-62401885D01*
X12988720Y-62401885D02*
X13045863Y-62459028D01*
X13045863Y-62459028D02*
X13103006Y-62573314D01*
X13103006Y-62573314D02*
X13103006Y-62744742D01*
X13103006Y-62744742D02*
X13045863Y-62859028D01*
X13045863Y-62859028D02*
X12988720Y-62916171D01*
X12988720Y-62916171D02*
X12874435Y-62973314D01*
X12874435Y-62973314D02*
X12417292Y-62973314D01*
X14303006Y-63544742D02*
X13903006Y-62973314D01*
X13617292Y-63544742D02*
X13617292Y-62344742D01*
X13617292Y-62344742D02*
X14074435Y-62344742D01*
X14074435Y-62344742D02*
X14188720Y-62401885D01*
X14188720Y-62401885D02*
X14245863Y-62459028D01*
X14245863Y-62459028D02*
X14303006Y-62573314D01*
X14303006Y-62573314D02*
X14303006Y-62744742D01*
X14303006Y-62744742D02*
X14245863Y-62859028D01*
X14245863Y-62859028D02*
X14188720Y-62916171D01*
X14188720Y-62916171D02*
X14074435Y-62973314D01*
X14074435Y-62973314D02*
X13617292Y-62973314D01*
X14817292Y-63544742D02*
X14817292Y-62344742D01*
X15388721Y-63544742D02*
X15388721Y-62344742D01*
X15388721Y-62344742D02*
X15788721Y-63201885D01*
X15788721Y-63201885D02*
X16188721Y-62344742D01*
X16188721Y-62344742D02*
X16188721Y-63544742D01*
X16703007Y-63201885D02*
X17274436Y-63201885D01*
X16588721Y-63544742D02*
X16988721Y-62344742D01*
X16988721Y-62344742D02*
X17388721Y-63544742D01*
X18474435Y-63544742D02*
X18074435Y-62973314D01*
X17788721Y-63544742D02*
X17788721Y-62344742D01*
X17788721Y-62344742D02*
X18245864Y-62344742D01*
X18245864Y-62344742D02*
X18360149Y-62401885D01*
X18360149Y-62401885D02*
X18417292Y-62459028D01*
X18417292Y-62459028D02*
X18474435Y-62573314D01*
X18474435Y-62573314D02*
X18474435Y-62744742D01*
X18474435Y-62744742D02*
X18417292Y-62859028D01*
X18417292Y-62859028D02*
X18360149Y-62916171D01*
X18360149Y-62916171D02*
X18245864Y-62973314D01*
X18245864Y-62973314D02*
X17788721Y-62973314D01*
X19217292Y-62973314D02*
X19217292Y-63544742D01*
X18817292Y-62344742D02*
X19217292Y-62973314D01*
X19217292Y-62973314D02*
X19617292Y-62344742D01*
X21560149Y-63544742D02*
X20874435Y-63544742D01*
X21217292Y-63544742D02*
X21217292Y-62344742D01*
X21217292Y-62344742D02*
X21103006Y-62516171D01*
X21103006Y-62516171D02*
X20988721Y-62630457D01*
X20988721Y-62630457D02*
X20874435Y-62687600D01*
X22017292Y-62459028D02*
X22074435Y-62401885D01*
X22074435Y-62401885D02*
X22188721Y-62344742D01*
X22188721Y-62344742D02*
X22474435Y-62344742D01*
X22474435Y-62344742D02*
X22588721Y-62401885D01*
X22588721Y-62401885D02*
X22645863Y-62459028D01*
X22645863Y-62459028D02*
X22703006Y-62573314D01*
X22703006Y-62573314D02*
X22703006Y-62687600D01*
X22703006Y-62687600D02*
X22645863Y-62859028D01*
X22645863Y-62859028D02*
X21960149Y-63544742D01*
X21960149Y-63544742D02*
X22703006Y-63544742D01*
X23045863Y-62344742D02*
X23445863Y-63544742D01*
X23445863Y-63544742D02*
X23845863Y-62344742D01*
X25103006Y-63487600D02*
X25274435Y-63544742D01*
X25274435Y-63544742D02*
X25560149Y-63544742D01*
X25560149Y-63544742D02*
X25674435Y-63487600D01*
X25674435Y-63487600D02*
X25731577Y-63430457D01*
X25731577Y-63430457D02*
X25788720Y-63316171D01*
X25788720Y-63316171D02*
X25788720Y-63201885D01*
X25788720Y-63201885D02*
X25731577Y-63087600D01*
X25731577Y-63087600D02*
X25674435Y-63030457D01*
X25674435Y-63030457D02*
X25560149Y-62973314D01*
X25560149Y-62973314D02*
X25331577Y-62916171D01*
X25331577Y-62916171D02*
X25217292Y-62859028D01*
X25217292Y-62859028D02*
X25160149Y-62801885D01*
X25160149Y-62801885D02*
X25103006Y-62687600D01*
X25103006Y-62687600D02*
X25103006Y-62573314D01*
X25103006Y-62573314D02*
X25160149Y-62459028D01*
X25160149Y-62459028D02*
X25217292Y-62401885D01*
X25217292Y-62401885D02*
X25331577Y-62344742D01*
X25331577Y-62344742D02*
X25617292Y-62344742D01*
X25617292Y-62344742D02*
X25788720Y-62401885D01*
X26303006Y-63544742D02*
X26303006Y-62344742D01*
X26874435Y-63544742D02*
X26874435Y-62344742D01*
X26874435Y-62344742D02*
X27160149Y-62344742D01*
X27160149Y-62344742D02*
X27331578Y-62401885D01*
X27331578Y-62401885D02*
X27445863Y-62516171D01*
X27445863Y-62516171D02*
X27503006Y-62630457D01*
X27503006Y-62630457D02*
X27560149Y-62859028D01*
X27560149Y-62859028D02*
X27560149Y-63030457D01*
X27560149Y-63030457D02*
X27503006Y-63259028D01*
X27503006Y-63259028D02*
X27445863Y-63373314D01*
X27445863Y-63373314D02*
X27331578Y-63487600D01*
X27331578Y-63487600D02*
X27160149Y-63544742D01*
X27160149Y-63544742D02*
X26874435Y-63544742D01*
X28074435Y-62916171D02*
X28474435Y-62916171D01*
X28645863Y-63544742D02*
X28074435Y-63544742D01*
X28074435Y-63544742D02*
X28074435Y-62344742D01*
X28074435Y-62344742D02*
X28645863Y-62344742D01*
X39066666Y-40559695D02*
X39066666Y-39759695D01*
X39066666Y-39759695D02*
X39523809Y-40559695D01*
X39523809Y-40559695D02*
X39523809Y-39759695D01*
X40057142Y-39759695D02*
X40209523Y-39759695D01*
X40209523Y-39759695D02*
X40285713Y-39797790D01*
X40285713Y-39797790D02*
X40361904Y-39873980D01*
X40361904Y-39873980D02*
X40399999Y-40026361D01*
X40399999Y-40026361D02*
X40399999Y-40293028D01*
X40399999Y-40293028D02*
X40361904Y-40445409D01*
X40361904Y-40445409D02*
X40285713Y-40521600D01*
X40285713Y-40521600D02*
X40209523Y-40559695D01*
X40209523Y-40559695D02*
X40057142Y-40559695D01*
X40057142Y-40559695D02*
X39980951Y-40521600D01*
X39980951Y-40521600D02*
X39904761Y-40445409D01*
X39904761Y-40445409D02*
X39866665Y-40293028D01*
X39866665Y-40293028D02*
X39866665Y-40026361D01*
X39866665Y-40026361D02*
X39904761Y-39873980D01*
X39904761Y-39873980D02*
X39980951Y-39797790D01*
X39980951Y-39797790D02*
X40057142Y-39759695D01*
X41809523Y-40483504D02*
X41771427Y-40521600D01*
X41771427Y-40521600D02*
X41657142Y-40559695D01*
X41657142Y-40559695D02*
X41580951Y-40559695D01*
X41580951Y-40559695D02*
X41466665Y-40521600D01*
X41466665Y-40521600D02*
X41390475Y-40445409D01*
X41390475Y-40445409D02*
X41352380Y-40369219D01*
X41352380Y-40369219D02*
X41314284Y-40216838D01*
X41314284Y-40216838D02*
X41314284Y-40102552D01*
X41314284Y-40102552D02*
X41352380Y-39950171D01*
X41352380Y-39950171D02*
X41390475Y-39873980D01*
X41390475Y-39873980D02*
X41466665Y-39797790D01*
X41466665Y-39797790D02*
X41580951Y-39759695D01*
X41580951Y-39759695D02*
X41657142Y-39759695D01*
X41657142Y-39759695D02*
X41771427Y-39797790D01*
X41771427Y-39797790D02*
X41809523Y-39835885D01*
X42304761Y-39759695D02*
X42457142Y-39759695D01*
X42457142Y-39759695D02*
X42533332Y-39797790D01*
X42533332Y-39797790D02*
X42609523Y-39873980D01*
X42609523Y-39873980D02*
X42647618Y-40026361D01*
X42647618Y-40026361D02*
X42647618Y-40293028D01*
X42647618Y-40293028D02*
X42609523Y-40445409D01*
X42609523Y-40445409D02*
X42533332Y-40521600D01*
X42533332Y-40521600D02*
X42457142Y-40559695D01*
X42457142Y-40559695D02*
X42304761Y-40559695D01*
X42304761Y-40559695D02*
X42228570Y-40521600D01*
X42228570Y-40521600D02*
X42152380Y-40445409D01*
X42152380Y-40445409D02*
X42114284Y-40293028D01*
X42114284Y-40293028D02*
X42114284Y-40026361D01*
X42114284Y-40026361D02*
X42152380Y-39873980D01*
X42152380Y-39873980D02*
X42228570Y-39797790D01*
X42228570Y-39797790D02*
X42304761Y-39759695D01*
X42990475Y-40559695D02*
X42990475Y-39759695D01*
X42990475Y-39759695D02*
X43295237Y-39759695D01*
X43295237Y-39759695D02*
X43371427Y-39797790D01*
X43371427Y-39797790D02*
X43409522Y-39835885D01*
X43409522Y-39835885D02*
X43447618Y-39912076D01*
X43447618Y-39912076D02*
X43447618Y-40026361D01*
X43447618Y-40026361D02*
X43409522Y-40102552D01*
X43409522Y-40102552D02*
X43371427Y-40140647D01*
X43371427Y-40140647D02*
X43295237Y-40178742D01*
X43295237Y-40178742D02*
X42990475Y-40178742D01*
X43790475Y-40559695D02*
X43790475Y-39759695D01*
X43790475Y-39759695D02*
X44095237Y-39759695D01*
X44095237Y-39759695D02*
X44171427Y-39797790D01*
X44171427Y-39797790D02*
X44209522Y-39835885D01*
X44209522Y-39835885D02*
X44247618Y-39912076D01*
X44247618Y-39912076D02*
X44247618Y-40026361D01*
X44247618Y-40026361D02*
X44209522Y-40102552D01*
X44209522Y-40102552D02*
X44171427Y-40140647D01*
X44171427Y-40140647D02*
X44095237Y-40178742D01*
X44095237Y-40178742D02*
X43790475Y-40178742D01*
X44590475Y-40140647D02*
X44857141Y-40140647D01*
X44971427Y-40559695D02*
X44590475Y-40559695D01*
X44590475Y-40559695D02*
X44590475Y-39759695D01*
X44590475Y-39759695D02*
X44971427Y-39759695D01*
X45771428Y-40559695D02*
X45504761Y-40178742D01*
X45314285Y-40559695D02*
X45314285Y-39759695D01*
X45314285Y-39759695D02*
X45619047Y-39759695D01*
X45619047Y-39759695D02*
X45695237Y-39797790D01*
X45695237Y-39797790D02*
X45733332Y-39835885D01*
X45733332Y-39835885D02*
X45771428Y-39912076D01*
X45771428Y-39912076D02*
X45771428Y-40026361D01*
X45771428Y-40026361D02*
X45733332Y-40102552D01*
X45733332Y-40102552D02*
X45695237Y-40140647D01*
X45695237Y-40140647D02*
X45619047Y-40178742D01*
X45619047Y-40178742D02*
X45314285Y-40178742D01*
X47180952Y-40483504D02*
X47142856Y-40521600D01*
X47142856Y-40521600D02*
X47028571Y-40559695D01*
X47028571Y-40559695D02*
X46952380Y-40559695D01*
X46952380Y-40559695D02*
X46838094Y-40521600D01*
X46838094Y-40521600D02*
X46761904Y-40445409D01*
X46761904Y-40445409D02*
X46723809Y-40369219D01*
X46723809Y-40369219D02*
X46685713Y-40216838D01*
X46685713Y-40216838D02*
X46685713Y-40102552D01*
X46685713Y-40102552D02*
X46723809Y-39950171D01*
X46723809Y-39950171D02*
X46761904Y-39873980D01*
X46761904Y-39873980D02*
X46838094Y-39797790D01*
X46838094Y-39797790D02*
X46952380Y-39759695D01*
X46952380Y-39759695D02*
X47028571Y-39759695D01*
X47028571Y-39759695D02*
X47142856Y-39797790D01*
X47142856Y-39797790D02*
X47180952Y-39835885D01*
X47980952Y-40559695D02*
X47714285Y-40178742D01*
X47523809Y-40559695D02*
X47523809Y-39759695D01*
X47523809Y-39759695D02*
X47828571Y-39759695D01*
X47828571Y-39759695D02*
X47904761Y-39797790D01*
X47904761Y-39797790D02*
X47942856Y-39835885D01*
X47942856Y-39835885D02*
X47980952Y-39912076D01*
X47980952Y-39912076D02*
X47980952Y-40026361D01*
X47980952Y-40026361D02*
X47942856Y-40102552D01*
X47942856Y-40102552D02*
X47904761Y-40140647D01*
X47904761Y-40140647D02*
X47828571Y-40178742D01*
X47828571Y-40178742D02*
X47523809Y-40178742D01*
X48476190Y-39759695D02*
X48628571Y-39759695D01*
X48628571Y-39759695D02*
X48704761Y-39797790D01*
X48704761Y-39797790D02*
X48780952Y-39873980D01*
X48780952Y-39873980D02*
X48819047Y-40026361D01*
X48819047Y-40026361D02*
X48819047Y-40293028D01*
X48819047Y-40293028D02*
X48780952Y-40445409D01*
X48780952Y-40445409D02*
X48704761Y-40521600D01*
X48704761Y-40521600D02*
X48628571Y-40559695D01*
X48628571Y-40559695D02*
X48476190Y-40559695D01*
X48476190Y-40559695D02*
X48399999Y-40521600D01*
X48399999Y-40521600D02*
X48323809Y-40445409D01*
X48323809Y-40445409D02*
X48285713Y-40293028D01*
X48285713Y-40293028D02*
X48285713Y-40026361D01*
X48285713Y-40026361D02*
X48323809Y-39873980D01*
X48323809Y-39873980D02*
X48399999Y-39797790D01*
X48399999Y-39797790D02*
X48476190Y-39759695D01*
X49123808Y-40521600D02*
X49238094Y-40559695D01*
X49238094Y-40559695D02*
X49428570Y-40559695D01*
X49428570Y-40559695D02*
X49504761Y-40521600D01*
X49504761Y-40521600D02*
X49542856Y-40483504D01*
X49542856Y-40483504D02*
X49580951Y-40407314D01*
X49580951Y-40407314D02*
X49580951Y-40331123D01*
X49580951Y-40331123D02*
X49542856Y-40254933D01*
X49542856Y-40254933D02*
X49504761Y-40216838D01*
X49504761Y-40216838D02*
X49428570Y-40178742D01*
X49428570Y-40178742D02*
X49276189Y-40140647D01*
X49276189Y-40140647D02*
X49199999Y-40102552D01*
X49199999Y-40102552D02*
X49161904Y-40064457D01*
X49161904Y-40064457D02*
X49123808Y-39988266D01*
X49123808Y-39988266D02*
X49123808Y-39912076D01*
X49123808Y-39912076D02*
X49161904Y-39835885D01*
X49161904Y-39835885D02*
X49199999Y-39797790D01*
X49199999Y-39797790D02*
X49276189Y-39759695D01*
X49276189Y-39759695D02*
X49466666Y-39759695D01*
X49466666Y-39759695D02*
X49580951Y-39797790D01*
X49885713Y-40521600D02*
X49999999Y-40559695D01*
X49999999Y-40559695D02*
X50190475Y-40559695D01*
X50190475Y-40559695D02*
X50266666Y-40521600D01*
X50266666Y-40521600D02*
X50304761Y-40483504D01*
X50304761Y-40483504D02*
X50342856Y-40407314D01*
X50342856Y-40407314D02*
X50342856Y-40331123D01*
X50342856Y-40331123D02*
X50304761Y-40254933D01*
X50304761Y-40254933D02*
X50266666Y-40216838D01*
X50266666Y-40216838D02*
X50190475Y-40178742D01*
X50190475Y-40178742D02*
X50038094Y-40140647D01*
X50038094Y-40140647D02*
X49961904Y-40102552D01*
X49961904Y-40102552D02*
X49923809Y-40064457D01*
X49923809Y-40064457D02*
X49885713Y-39988266D01*
X49885713Y-39988266D02*
X49885713Y-39912076D01*
X49885713Y-39912076D02*
X49923809Y-39835885D01*
X49923809Y-39835885D02*
X49961904Y-39797790D01*
X49961904Y-39797790D02*
X50038094Y-39759695D01*
X50038094Y-39759695D02*
X50228571Y-39759695D01*
X50228571Y-39759695D02*
X50342856Y-39797790D01*
X50685714Y-40559695D02*
X50685714Y-39759695D01*
X51066666Y-40559695D02*
X51066666Y-39759695D01*
X51066666Y-39759695D02*
X51523809Y-40559695D01*
X51523809Y-40559695D02*
X51523809Y-39759695D01*
X52323808Y-39797790D02*
X52247618Y-39759695D01*
X52247618Y-39759695D02*
X52133332Y-39759695D01*
X52133332Y-39759695D02*
X52019046Y-39797790D01*
X52019046Y-39797790D02*
X51942856Y-39873980D01*
X51942856Y-39873980D02*
X51904761Y-39950171D01*
X51904761Y-39950171D02*
X51866665Y-40102552D01*
X51866665Y-40102552D02*
X51866665Y-40216838D01*
X51866665Y-40216838D02*
X51904761Y-40369219D01*
X51904761Y-40369219D02*
X51942856Y-40445409D01*
X51942856Y-40445409D02*
X52019046Y-40521600D01*
X52019046Y-40521600D02*
X52133332Y-40559695D01*
X52133332Y-40559695D02*
X52209523Y-40559695D01*
X52209523Y-40559695D02*
X52323808Y-40521600D01*
X52323808Y-40521600D02*
X52361904Y-40483504D01*
X52361904Y-40483504D02*
X52361904Y-40216838D01*
X52361904Y-40216838D02*
X52209523Y-40216838D01*
X53885713Y-39721600D02*
X53199999Y-40750171D01*
X55180951Y-40559695D02*
X54723808Y-40559695D01*
X54952380Y-40559695D02*
X54952380Y-39759695D01*
X54952380Y-39759695D02*
X54876189Y-39873980D01*
X54876189Y-39873980D02*
X54799999Y-39950171D01*
X54799999Y-39950171D02*
X54723808Y-39988266D01*
X55676190Y-39759695D02*
X55752380Y-39759695D01*
X55752380Y-39759695D02*
X55828571Y-39797790D01*
X55828571Y-39797790D02*
X55866666Y-39835885D01*
X55866666Y-39835885D02*
X55904761Y-39912076D01*
X55904761Y-39912076D02*
X55942856Y-40064457D01*
X55942856Y-40064457D02*
X55942856Y-40254933D01*
X55942856Y-40254933D02*
X55904761Y-40407314D01*
X55904761Y-40407314D02*
X55866666Y-40483504D01*
X55866666Y-40483504D02*
X55828571Y-40521600D01*
X55828571Y-40521600D02*
X55752380Y-40559695D01*
X55752380Y-40559695D02*
X55676190Y-40559695D01*
X55676190Y-40559695D02*
X55599999Y-40521600D01*
X55599999Y-40521600D02*
X55561904Y-40483504D01*
X55561904Y-40483504D02*
X55523809Y-40407314D01*
X55523809Y-40407314D02*
X55485713Y-40254933D01*
X55485713Y-40254933D02*
X55485713Y-40064457D01*
X55485713Y-40064457D02*
X55523809Y-39912076D01*
X55523809Y-39912076D02*
X55561904Y-39835885D01*
X55561904Y-39835885D02*
X55599999Y-39797790D01*
X55599999Y-39797790D02*
X55676190Y-39759695D01*
X56285714Y-40559695D02*
X56285714Y-40026361D01*
X56285714Y-40102552D02*
X56323809Y-40064457D01*
X56323809Y-40064457D02*
X56399999Y-40026361D01*
X56399999Y-40026361D02*
X56514285Y-40026361D01*
X56514285Y-40026361D02*
X56590476Y-40064457D01*
X56590476Y-40064457D02*
X56628571Y-40140647D01*
X56628571Y-40140647D02*
X56628571Y-40559695D01*
X56628571Y-40140647D02*
X56666666Y-40064457D01*
X56666666Y-40064457D02*
X56742857Y-40026361D01*
X56742857Y-40026361D02*
X56857142Y-40026361D01*
X56857142Y-40026361D02*
X56933333Y-40064457D01*
X56933333Y-40064457D02*
X56971428Y-40140647D01*
X56971428Y-40140647D02*
X56971428Y-40559695D01*
X57352381Y-40559695D02*
X57352381Y-40026361D01*
X57352381Y-40102552D02*
X57390476Y-40064457D01*
X57390476Y-40064457D02*
X57466666Y-40026361D01*
X57466666Y-40026361D02*
X57580952Y-40026361D01*
X57580952Y-40026361D02*
X57657143Y-40064457D01*
X57657143Y-40064457D02*
X57695238Y-40140647D01*
X57695238Y-40140647D02*
X57695238Y-40559695D01*
X57695238Y-40140647D02*
X57733333Y-40064457D01*
X57733333Y-40064457D02*
X57809524Y-40026361D01*
X57809524Y-40026361D02*
X57923809Y-40026361D01*
X57923809Y-40026361D02*
X58000000Y-40064457D01*
X58000000Y-40064457D02*
X58038095Y-40140647D01*
X58038095Y-40140647D02*
X58038095Y-40559695D01*
X59447619Y-39797790D02*
X59371429Y-39759695D01*
X59371429Y-39759695D02*
X59257143Y-39759695D01*
X59257143Y-39759695D02*
X59142857Y-39797790D01*
X59142857Y-39797790D02*
X59066667Y-39873980D01*
X59066667Y-39873980D02*
X59028572Y-39950171D01*
X59028572Y-39950171D02*
X58990476Y-40102552D01*
X58990476Y-40102552D02*
X58990476Y-40216838D01*
X58990476Y-40216838D02*
X59028572Y-40369219D01*
X59028572Y-40369219D02*
X59066667Y-40445409D01*
X59066667Y-40445409D02*
X59142857Y-40521600D01*
X59142857Y-40521600D02*
X59257143Y-40559695D01*
X59257143Y-40559695D02*
X59333334Y-40559695D01*
X59333334Y-40559695D02*
X59447619Y-40521600D01*
X59447619Y-40521600D02*
X59485715Y-40483504D01*
X59485715Y-40483504D02*
X59485715Y-40216838D01*
X59485715Y-40216838D02*
X59333334Y-40216838D01*
X59790476Y-40331123D02*
X60171429Y-40331123D01*
X59714286Y-40559695D02*
X59980953Y-39759695D01*
X59980953Y-39759695D02*
X60247619Y-40559695D01*
X60514286Y-40559695D02*
X60514286Y-39759695D01*
X60514286Y-39759695D02*
X60819048Y-39759695D01*
X60819048Y-39759695D02*
X60895238Y-39797790D01*
X60895238Y-39797790D02*
X60933333Y-39835885D01*
X60933333Y-39835885D02*
X60971429Y-39912076D01*
X60971429Y-39912076D02*
X60971429Y-40026361D01*
X60971429Y-40026361D02*
X60933333Y-40102552D01*
X60933333Y-40102552D02*
X60895238Y-40140647D01*
X60895238Y-40140647D02*
X60819048Y-40178742D01*
X60819048Y-40178742D02*
X60514286Y-40178742D01*
X56774435Y-60105957D02*
X56345863Y-60105957D01*
X56345863Y-60105957D02*
X56303006Y-60534528D01*
X56303006Y-60534528D02*
X56345863Y-60491671D01*
X56345863Y-60491671D02*
X56431578Y-60448814D01*
X56431578Y-60448814D02*
X56645863Y-60448814D01*
X56645863Y-60448814D02*
X56731578Y-60491671D01*
X56731578Y-60491671D02*
X56774435Y-60534528D01*
X56774435Y-60534528D02*
X56817292Y-60620242D01*
X56817292Y-60620242D02*
X56817292Y-60834528D01*
X56817292Y-60834528D02*
X56774435Y-60920242D01*
X56774435Y-60920242D02*
X56731578Y-60963100D01*
X56731578Y-60963100D02*
X56645863Y-61005957D01*
X56645863Y-61005957D02*
X56431578Y-61005957D01*
X56431578Y-61005957D02*
X56345863Y-60963100D01*
X56345863Y-60963100D02*
X56303006Y-60920242D01*
X57074435Y-60105957D02*
X57374435Y-61005957D01*
X57374435Y-61005957D02*
X57674435Y-60105957D01*
X59303006Y-60063100D02*
X58531578Y-61220242D01*
X60417292Y-60491671D02*
X60331577Y-60448814D01*
X60331577Y-60448814D02*
X60288720Y-60405957D01*
X60288720Y-60405957D02*
X60245863Y-60320242D01*
X60245863Y-60320242D02*
X60245863Y-60277385D01*
X60245863Y-60277385D02*
X60288720Y-60191671D01*
X60288720Y-60191671D02*
X60331577Y-60148814D01*
X60331577Y-60148814D02*
X60417292Y-60105957D01*
X60417292Y-60105957D02*
X60588720Y-60105957D01*
X60588720Y-60105957D02*
X60674435Y-60148814D01*
X60674435Y-60148814D02*
X60717292Y-60191671D01*
X60717292Y-60191671D02*
X60760149Y-60277385D01*
X60760149Y-60277385D02*
X60760149Y-60320242D01*
X60760149Y-60320242D02*
X60717292Y-60405957D01*
X60717292Y-60405957D02*
X60674435Y-60448814D01*
X60674435Y-60448814D02*
X60588720Y-60491671D01*
X60588720Y-60491671D02*
X60417292Y-60491671D01*
X60417292Y-60491671D02*
X60331577Y-60534528D01*
X60331577Y-60534528D02*
X60288720Y-60577385D01*
X60288720Y-60577385D02*
X60245863Y-60663100D01*
X60245863Y-60663100D02*
X60245863Y-60834528D01*
X60245863Y-60834528D02*
X60288720Y-60920242D01*
X60288720Y-60920242D02*
X60331577Y-60963100D01*
X60331577Y-60963100D02*
X60417292Y-61005957D01*
X60417292Y-61005957D02*
X60588720Y-61005957D01*
X60588720Y-61005957D02*
X60674435Y-60963100D01*
X60674435Y-60963100D02*
X60717292Y-60920242D01*
X60717292Y-60920242D02*
X60760149Y-60834528D01*
X60760149Y-60834528D02*
X60760149Y-60663100D01*
X60760149Y-60663100D02*
X60717292Y-60577385D01*
X60717292Y-60577385D02*
X60674435Y-60534528D01*
X60674435Y-60534528D02*
X60588720Y-60491671D01*
X61103006Y-60748814D02*
X61531578Y-60748814D01*
X61017292Y-61005957D02*
X61317292Y-60105957D01*
X61317292Y-60105957D02*
X61617292Y-61005957D01*
X62603006Y-61005957D02*
X62603006Y-60105957D01*
X62603006Y-60105957D02*
X62903006Y-60748814D01*
X62903006Y-60748814D02*
X63203006Y-60105957D01*
X63203006Y-60105957D02*
X63203006Y-61005957D01*
X63588720Y-60748814D02*
X64017292Y-60748814D01*
X63503006Y-61005957D02*
X63803006Y-60105957D01*
X63803006Y-60105957D02*
X64103006Y-61005957D01*
X64317292Y-60105957D02*
X64917292Y-61005957D01*
X64917292Y-60105957D02*
X64317292Y-61005957D01*
X43000000Y-38952219D02*
X43000000Y-37952219D01*
X43428571Y-38904600D02*
X43571428Y-38952219D01*
X43571428Y-38952219D02*
X43809523Y-38952219D01*
X43809523Y-38952219D02*
X43904761Y-38904600D01*
X43904761Y-38904600D02*
X43952380Y-38856980D01*
X43952380Y-38856980D02*
X43999999Y-38761742D01*
X43999999Y-38761742D02*
X43999999Y-38666504D01*
X43999999Y-38666504D02*
X43952380Y-38571266D01*
X43952380Y-38571266D02*
X43904761Y-38523647D01*
X43904761Y-38523647D02*
X43809523Y-38476028D01*
X43809523Y-38476028D02*
X43619047Y-38428409D01*
X43619047Y-38428409D02*
X43523809Y-38380790D01*
X43523809Y-38380790D02*
X43476190Y-38333171D01*
X43476190Y-38333171D02*
X43428571Y-38237933D01*
X43428571Y-38237933D02*
X43428571Y-38142695D01*
X43428571Y-38142695D02*
X43476190Y-38047457D01*
X43476190Y-38047457D02*
X43523809Y-37999838D01*
X43523809Y-37999838D02*
X43619047Y-37952219D01*
X43619047Y-37952219D02*
X43857142Y-37952219D01*
X43857142Y-37952219D02*
X43999999Y-37999838D01*
X44619047Y-37952219D02*
X44809523Y-37952219D01*
X44809523Y-37952219D02*
X44904761Y-37999838D01*
X44904761Y-37999838D02*
X44999999Y-38095076D01*
X44999999Y-38095076D02*
X45047618Y-38285552D01*
X45047618Y-38285552D02*
X45047618Y-38618885D01*
X45047618Y-38618885D02*
X44999999Y-38809361D01*
X44999999Y-38809361D02*
X44904761Y-38904600D01*
X44904761Y-38904600D02*
X44809523Y-38952219D01*
X44809523Y-38952219D02*
X44619047Y-38952219D01*
X44619047Y-38952219D02*
X44523809Y-38904600D01*
X44523809Y-38904600D02*
X44428571Y-38809361D01*
X44428571Y-38809361D02*
X44380952Y-38618885D01*
X44380952Y-38618885D02*
X44380952Y-38285552D01*
X44380952Y-38285552D02*
X44428571Y-38095076D01*
X44428571Y-38095076D02*
X44523809Y-37999838D01*
X44523809Y-37999838D02*
X44619047Y-37952219D01*
X45952380Y-38952219D02*
X45476190Y-38952219D01*
X45476190Y-38952219D02*
X45476190Y-37952219D01*
X46238095Y-38666504D02*
X46714285Y-38666504D01*
X46142857Y-38952219D02*
X46476190Y-37952219D01*
X46476190Y-37952219D02*
X46809523Y-38952219D01*
X47000000Y-37952219D02*
X47571428Y-37952219D01*
X47285714Y-38952219D02*
X47285714Y-37952219D01*
X47904762Y-38952219D02*
X47904762Y-37952219D01*
X48571428Y-37952219D02*
X48761904Y-37952219D01*
X48761904Y-37952219D02*
X48857142Y-37999838D01*
X48857142Y-37999838D02*
X48952380Y-38095076D01*
X48952380Y-38095076D02*
X48999999Y-38285552D01*
X48999999Y-38285552D02*
X48999999Y-38618885D01*
X48999999Y-38618885D02*
X48952380Y-38809361D01*
X48952380Y-38809361D02*
X48857142Y-38904600D01*
X48857142Y-38904600D02*
X48761904Y-38952219D01*
X48761904Y-38952219D02*
X48571428Y-38952219D01*
X48571428Y-38952219D02*
X48476190Y-38904600D01*
X48476190Y-38904600D02*
X48380952Y-38809361D01*
X48380952Y-38809361D02*
X48333333Y-38618885D01*
X48333333Y-38618885D02*
X48333333Y-38285552D01*
X48333333Y-38285552D02*
X48380952Y-38095076D01*
X48380952Y-38095076D02*
X48476190Y-37999838D01*
X48476190Y-37999838D02*
X48571428Y-37952219D01*
X49428571Y-38952219D02*
X49428571Y-37952219D01*
X49428571Y-37952219D02*
X49999999Y-38952219D01*
X49999999Y-38952219D02*
X49999999Y-37952219D01*
X51571428Y-38428409D02*
X51714285Y-38476028D01*
X51714285Y-38476028D02*
X51761904Y-38523647D01*
X51761904Y-38523647D02*
X51809523Y-38618885D01*
X51809523Y-38618885D02*
X51809523Y-38761742D01*
X51809523Y-38761742D02*
X51761904Y-38856980D01*
X51761904Y-38856980D02*
X51714285Y-38904600D01*
X51714285Y-38904600D02*
X51619047Y-38952219D01*
X51619047Y-38952219D02*
X51238095Y-38952219D01*
X51238095Y-38952219D02*
X51238095Y-37952219D01*
X51238095Y-37952219D02*
X51571428Y-37952219D01*
X51571428Y-37952219D02*
X51666666Y-37999838D01*
X51666666Y-37999838D02*
X51714285Y-38047457D01*
X51714285Y-38047457D02*
X51761904Y-38142695D01*
X51761904Y-38142695D02*
X51761904Y-38237933D01*
X51761904Y-38237933D02*
X51714285Y-38333171D01*
X51714285Y-38333171D02*
X51666666Y-38380790D01*
X51666666Y-38380790D02*
X51571428Y-38428409D01*
X51571428Y-38428409D02*
X51238095Y-38428409D01*
X52190476Y-38666504D02*
X52666666Y-38666504D01*
X52095238Y-38952219D02*
X52428571Y-37952219D01*
X52428571Y-37952219D02*
X52761904Y-38952219D01*
X53666666Y-38952219D02*
X53333333Y-38476028D01*
X53095238Y-38952219D02*
X53095238Y-37952219D01*
X53095238Y-37952219D02*
X53476190Y-37952219D01*
X53476190Y-37952219D02*
X53571428Y-37999838D01*
X53571428Y-37999838D02*
X53619047Y-38047457D01*
X53619047Y-38047457D02*
X53666666Y-38142695D01*
X53666666Y-38142695D02*
X53666666Y-38285552D01*
X53666666Y-38285552D02*
X53619047Y-38380790D01*
X53619047Y-38380790D02*
X53571428Y-38428409D01*
X53571428Y-38428409D02*
X53476190Y-38476028D01*
X53476190Y-38476028D02*
X53095238Y-38476028D01*
X54666666Y-38952219D02*
X54333333Y-38476028D01*
X54095238Y-38952219D02*
X54095238Y-37952219D01*
X54095238Y-37952219D02*
X54476190Y-37952219D01*
X54476190Y-37952219D02*
X54571428Y-37999838D01*
X54571428Y-37999838D02*
X54619047Y-38047457D01*
X54619047Y-38047457D02*
X54666666Y-38142695D01*
X54666666Y-38142695D02*
X54666666Y-38285552D01*
X54666666Y-38285552D02*
X54619047Y-38380790D01*
X54619047Y-38380790D02*
X54571428Y-38428409D01*
X54571428Y-38428409D02*
X54476190Y-38476028D01*
X54476190Y-38476028D02*
X54095238Y-38476028D01*
X55095238Y-38952219D02*
X55095238Y-37952219D01*
X55571428Y-38428409D02*
X55904761Y-38428409D01*
X56047618Y-38952219D02*
X55571428Y-38952219D01*
X55571428Y-38952219D02*
X55571428Y-37952219D01*
X55571428Y-37952219D02*
X56047618Y-37952219D01*
X57047618Y-38952219D02*
X56714285Y-38476028D01*
X56476190Y-38952219D02*
X56476190Y-37952219D01*
X56476190Y-37952219D02*
X56857142Y-37952219D01*
X56857142Y-37952219D02*
X56952380Y-37999838D01*
X56952380Y-37999838D02*
X56999999Y-38047457D01*
X56999999Y-38047457D02*
X57047618Y-38142695D01*
X57047618Y-38142695D02*
X57047618Y-38285552D01*
X57047618Y-38285552D02*
X56999999Y-38380790D01*
X56999999Y-38380790D02*
X56952380Y-38428409D01*
X56952380Y-38428409D02*
X56857142Y-38476028D01*
X56857142Y-38476028D02*
X56476190Y-38476028D01*
X4845863Y-11063100D02*
X5531578Y-11063100D01*
X5188720Y-11405957D02*
X5188720Y-10720242D01*
X6431578Y-11405957D02*
X5917292Y-11405957D01*
X6174435Y-11405957D02*
X6174435Y-10505957D01*
X6174435Y-10505957D02*
X6088721Y-10634528D01*
X6088721Y-10634528D02*
X6003006Y-10720242D01*
X6003006Y-10720242D02*
X5917292Y-10763100D01*
X6774435Y-10591671D02*
X6817292Y-10548814D01*
X6817292Y-10548814D02*
X6903007Y-10505957D01*
X6903007Y-10505957D02*
X7117292Y-10505957D01*
X7117292Y-10505957D02*
X7203007Y-10548814D01*
X7203007Y-10548814D02*
X7245864Y-10591671D01*
X7245864Y-10591671D02*
X7288721Y-10677385D01*
X7288721Y-10677385D02*
X7288721Y-10763100D01*
X7288721Y-10763100D02*
X7245864Y-10891671D01*
X7245864Y-10891671D02*
X6731578Y-11405957D01*
X6731578Y-11405957D02*
X7288721Y-11405957D01*
X7545864Y-10505957D02*
X7845864Y-11405957D01*
X7845864Y-11405957D02*
X8145864Y-10505957D01*
X10974435Y-10548814D02*
X10888721Y-10505957D01*
X10888721Y-10505957D02*
X10760149Y-10505957D01*
X10760149Y-10505957D02*
X10631578Y-10548814D01*
X10631578Y-10548814D02*
X10545863Y-10634528D01*
X10545863Y-10634528D02*
X10503006Y-10720242D01*
X10503006Y-10720242D02*
X10460149Y-10891671D01*
X10460149Y-10891671D02*
X10460149Y-11020242D01*
X10460149Y-11020242D02*
X10503006Y-11191671D01*
X10503006Y-11191671D02*
X10545863Y-11277385D01*
X10545863Y-11277385D02*
X10631578Y-11363100D01*
X10631578Y-11363100D02*
X10760149Y-11405957D01*
X10760149Y-11405957D02*
X10845863Y-11405957D01*
X10845863Y-11405957D02*
X10974435Y-11363100D01*
X10974435Y-11363100D02*
X11017292Y-11320242D01*
X11017292Y-11320242D02*
X11017292Y-11020242D01*
X11017292Y-11020242D02*
X10845863Y-11020242D01*
X11403006Y-11405957D02*
X11403006Y-10505957D01*
X11403006Y-10505957D02*
X11917292Y-11405957D01*
X11917292Y-11405957D02*
X11917292Y-10505957D01*
X12345863Y-11405957D02*
X12345863Y-10505957D01*
X12345863Y-10505957D02*
X12560149Y-10505957D01*
X12560149Y-10505957D02*
X12688720Y-10548814D01*
X12688720Y-10548814D02*
X12774435Y-10634528D01*
X12774435Y-10634528D02*
X12817292Y-10720242D01*
X12817292Y-10720242D02*
X12860149Y-10891671D01*
X12860149Y-10891671D02*
X12860149Y-11020242D01*
X12860149Y-11020242D02*
X12817292Y-11191671D01*
X12817292Y-11191671D02*
X12774435Y-11277385D01*
X12774435Y-11277385D02*
X12688720Y-11363100D01*
X12688720Y-11363100D02*
X12560149Y-11405957D01*
X12560149Y-11405957D02*
X12345863Y-11405957D01*
X8698244Y-21137266D02*
X7898244Y-21137266D01*
X8298244Y-21137266D02*
X8298244Y-19737266D01*
X8298244Y-19737266D02*
X8164911Y-19937266D01*
X8164911Y-19937266D02*
X8031578Y-20070600D01*
X8031578Y-20070600D02*
X7898244Y-20137266D01*
X9231577Y-19870600D02*
X9298244Y-19803933D01*
X9298244Y-19803933D02*
X9431577Y-19737266D01*
X9431577Y-19737266D02*
X9764911Y-19737266D01*
X9764911Y-19737266D02*
X9898244Y-19803933D01*
X9898244Y-19803933D02*
X9964911Y-19870600D01*
X9964911Y-19870600D02*
X10031577Y-20003933D01*
X10031577Y-20003933D02*
X10031577Y-20137266D01*
X10031577Y-20137266D02*
X9964911Y-20337266D01*
X9964911Y-20337266D02*
X9164911Y-21137266D01*
X9164911Y-21137266D02*
X10031577Y-21137266D01*
X10431577Y-19737266D02*
X10898244Y-21137266D01*
X10898244Y-21137266D02*
X11364910Y-19737266D01*
X12898244Y-21137266D02*
X12898244Y-19737266D01*
X13564911Y-21137266D02*
X13564911Y-19737266D01*
X13564911Y-19737266D02*
X14364911Y-21137266D01*
X14364911Y-21137266D02*
X14364911Y-19737266D01*
D11*
X88948464Y-68714733D02*
X88548464Y-68714733D01*
X88748464Y-68714733D02*
X88748464Y-68014733D01*
X88748464Y-68014733D02*
X88681797Y-68114733D01*
X88681797Y-68114733D02*
X88615131Y-68181400D01*
X88615131Y-68181400D02*
X88548464Y-68214733D01*
X89281798Y-68681400D02*
X89281798Y-68714733D01*
X89281798Y-68714733D02*
X89248464Y-68781400D01*
X89248464Y-68781400D02*
X89215131Y-68814733D01*
X89548464Y-68081400D02*
X89581797Y-68048066D01*
X89581797Y-68048066D02*
X89648464Y-68014733D01*
X89648464Y-68014733D02*
X89815131Y-68014733D01*
X89815131Y-68014733D02*
X89881797Y-68048066D01*
X89881797Y-68048066D02*
X89915131Y-68081400D01*
X89915131Y-68081400D02*
X89948464Y-68148066D01*
X89948464Y-68148066D02*
X89948464Y-68214733D01*
X89948464Y-68214733D02*
X89915131Y-68314733D01*
X89915131Y-68314733D02*
X89515131Y-68714733D01*
X89515131Y-68714733D02*
X89948464Y-68714733D01*
X90248464Y-68348066D02*
X90781798Y-68348066D01*
X90781798Y-68548066D02*
X90248464Y-68548066D01*
X91115131Y-68448066D02*
X91648465Y-68448066D01*
X91381798Y-68714733D02*
X91381798Y-68181400D01*
X92315132Y-68014733D02*
X91981798Y-68014733D01*
X91981798Y-68014733D02*
X91948465Y-68348066D01*
X91948465Y-68348066D02*
X91981798Y-68314733D01*
X91981798Y-68314733D02*
X92048465Y-68281400D01*
X92048465Y-68281400D02*
X92215132Y-68281400D01*
X92215132Y-68281400D02*
X92281798Y-68314733D01*
X92281798Y-68314733D02*
X92315132Y-68348066D01*
X92315132Y-68348066D02*
X92348465Y-68414733D01*
X92348465Y-68414733D02*
X92348465Y-68581400D01*
X92348465Y-68581400D02*
X92315132Y-68648066D01*
X92315132Y-68648066D02*
X92281798Y-68681400D01*
X92281798Y-68681400D02*
X92215132Y-68714733D01*
X92215132Y-68714733D02*
X92048465Y-68714733D01*
X92048465Y-68714733D02*
X91981798Y-68681400D01*
X91981798Y-68681400D02*
X91948465Y-68648066D01*
X92548465Y-68014733D02*
X92781799Y-68714733D01*
X92781799Y-68714733D02*
X93015132Y-68014733D01*
X93715132Y-68014733D02*
X94148465Y-68014733D01*
X94148465Y-68014733D02*
X93915132Y-68281400D01*
X93915132Y-68281400D02*
X94015132Y-68281400D01*
X94015132Y-68281400D02*
X94081798Y-68314733D01*
X94081798Y-68314733D02*
X94115132Y-68348066D01*
X94115132Y-68348066D02*
X94148465Y-68414733D01*
X94148465Y-68414733D02*
X94148465Y-68581400D01*
X94148465Y-68581400D02*
X94115132Y-68648066D01*
X94115132Y-68648066D02*
X94081798Y-68681400D01*
X94081798Y-68681400D02*
X94015132Y-68714733D01*
X94015132Y-68714733D02*
X93815132Y-68714733D01*
X93815132Y-68714733D02*
X93748465Y-68681400D01*
X93748465Y-68681400D02*
X93715132Y-68648066D01*
X94481799Y-68681400D02*
X94481799Y-68714733D01*
X94481799Y-68714733D02*
X94448465Y-68781400D01*
X94448465Y-68781400D02*
X94415132Y-68814733D01*
X95081798Y-68248066D02*
X95081798Y-68714733D01*
X94915132Y-67981400D02*
X94748465Y-68481400D01*
X94748465Y-68481400D02*
X95181798Y-68481400D01*
X95448465Y-68348066D02*
X95981799Y-68348066D01*
X95981799Y-68548066D02*
X95448465Y-68548066D01*
X96681799Y-68048066D02*
X96615132Y-68014733D01*
X96615132Y-68014733D02*
X96515132Y-68014733D01*
X96515132Y-68014733D02*
X96415132Y-68048066D01*
X96415132Y-68048066D02*
X96348466Y-68114733D01*
X96348466Y-68114733D02*
X96315132Y-68181400D01*
X96315132Y-68181400D02*
X96281799Y-68314733D01*
X96281799Y-68314733D02*
X96281799Y-68414733D01*
X96281799Y-68414733D02*
X96315132Y-68548066D01*
X96315132Y-68548066D02*
X96348466Y-68614733D01*
X96348466Y-68614733D02*
X96415132Y-68681400D01*
X96415132Y-68681400D02*
X96515132Y-68714733D01*
X96515132Y-68714733D02*
X96581799Y-68714733D01*
X96581799Y-68714733D02*
X96681799Y-68681400D01*
X96681799Y-68681400D02*
X96715132Y-68648066D01*
X96715132Y-68648066D02*
X96715132Y-68414733D01*
X96715132Y-68414733D02*
X96581799Y-68414733D01*
X97015132Y-68714733D02*
X97015132Y-68014733D01*
X97015132Y-68014733D02*
X97415132Y-68714733D01*
X97415132Y-68714733D02*
X97415132Y-68014733D01*
X97748465Y-68714733D02*
X97748465Y-68014733D01*
X97748465Y-68014733D02*
X97915132Y-68014733D01*
X97915132Y-68014733D02*
X98015132Y-68048066D01*
X98015132Y-68048066D02*
X98081799Y-68114733D01*
X98081799Y-68114733D02*
X98115132Y-68181400D01*
X98115132Y-68181400D02*
X98148465Y-68314733D01*
X98148465Y-68314733D02*
X98148465Y-68414733D01*
X98148465Y-68414733D02*
X98115132Y-68548066D01*
X98115132Y-68548066D02*
X98081799Y-68614733D01*
X98081799Y-68614733D02*
X98015132Y-68681400D01*
X98015132Y-68681400D02*
X97915132Y-68714733D01*
X97915132Y-68714733D02*
X97748465Y-68714733D01*
D10*
X44361905Y-69259695D02*
X44095238Y-68878742D01*
X43904762Y-69259695D02*
X43904762Y-68459695D01*
X43904762Y-68459695D02*
X44209524Y-68459695D01*
X44209524Y-68459695D02*
X44285714Y-68497790D01*
X44285714Y-68497790D02*
X44323809Y-68535885D01*
X44323809Y-68535885D02*
X44361905Y-68612076D01*
X44361905Y-68612076D02*
X44361905Y-68726361D01*
X44361905Y-68726361D02*
X44323809Y-68802552D01*
X44323809Y-68802552D02*
X44285714Y-68840647D01*
X44285714Y-68840647D02*
X44209524Y-68878742D01*
X44209524Y-68878742D02*
X43904762Y-68878742D01*
X45161905Y-69183504D02*
X45123809Y-69221600D01*
X45123809Y-69221600D02*
X45009524Y-69259695D01*
X45009524Y-69259695D02*
X44933333Y-69259695D01*
X44933333Y-69259695D02*
X44819047Y-69221600D01*
X44819047Y-69221600D02*
X44742857Y-69145409D01*
X44742857Y-69145409D02*
X44704762Y-69069219D01*
X44704762Y-69069219D02*
X44666666Y-68916838D01*
X44666666Y-68916838D02*
X44666666Y-68802552D01*
X44666666Y-68802552D02*
X44704762Y-68650171D01*
X44704762Y-68650171D02*
X44742857Y-68573980D01*
X44742857Y-68573980D02*
X44819047Y-68497790D01*
X44819047Y-68497790D02*
X44933333Y-68459695D01*
X44933333Y-68459695D02*
X45009524Y-68459695D01*
X45009524Y-68459695D02*
X45123809Y-68497790D01*
X45123809Y-68497790D02*
X45161905Y-68535885D01*
X45923809Y-69259695D02*
X45466666Y-69259695D01*
X45695238Y-69259695D02*
X45695238Y-68459695D01*
X45695238Y-68459695D02*
X45619047Y-68573980D01*
X45619047Y-68573980D02*
X45542857Y-68650171D01*
X45542857Y-68650171D02*
X45466666Y-68688266D01*
X46876191Y-68954933D02*
X47485715Y-68954933D01*
X48476191Y-69259695D02*
X48476191Y-68459695D01*
X48476191Y-68459695D02*
X48933334Y-69259695D01*
X48933334Y-69259695D02*
X48933334Y-68459695D01*
X49466667Y-68459695D02*
X49619048Y-68459695D01*
X49619048Y-68459695D02*
X49695238Y-68497790D01*
X49695238Y-68497790D02*
X49771429Y-68573980D01*
X49771429Y-68573980D02*
X49809524Y-68726361D01*
X49809524Y-68726361D02*
X49809524Y-68993028D01*
X49809524Y-68993028D02*
X49771429Y-69145409D01*
X49771429Y-69145409D02*
X49695238Y-69221600D01*
X49695238Y-69221600D02*
X49619048Y-69259695D01*
X49619048Y-69259695D02*
X49466667Y-69259695D01*
X49466667Y-69259695D02*
X49390476Y-69221600D01*
X49390476Y-69221600D02*
X49314286Y-69145409D01*
X49314286Y-69145409D02*
X49276190Y-68993028D01*
X49276190Y-68993028D02*
X49276190Y-68726361D01*
X49276190Y-68726361D02*
X49314286Y-68573980D01*
X49314286Y-68573980D02*
X49390476Y-68497790D01*
X49390476Y-68497790D02*
X49466667Y-68459695D01*
X50038095Y-68459695D02*
X50495238Y-68459695D01*
X50266666Y-69259695D02*
X50266666Y-68459695D01*
X51638095Y-68840647D02*
X51371429Y-68840647D01*
X51371429Y-69259695D02*
X51371429Y-68459695D01*
X51371429Y-68459695D02*
X51752381Y-68459695D01*
X52209524Y-68459695D02*
X52361905Y-68459695D01*
X52361905Y-68459695D02*
X52438095Y-68497790D01*
X52438095Y-68497790D02*
X52514286Y-68573980D01*
X52514286Y-68573980D02*
X52552381Y-68726361D01*
X52552381Y-68726361D02*
X52552381Y-68993028D01*
X52552381Y-68993028D02*
X52514286Y-69145409D01*
X52514286Y-69145409D02*
X52438095Y-69221600D01*
X52438095Y-69221600D02*
X52361905Y-69259695D01*
X52361905Y-69259695D02*
X52209524Y-69259695D01*
X52209524Y-69259695D02*
X52133333Y-69221600D01*
X52133333Y-69221600D02*
X52057143Y-69145409D01*
X52057143Y-69145409D02*
X52019047Y-68993028D01*
X52019047Y-68993028D02*
X52019047Y-68726361D01*
X52019047Y-68726361D02*
X52057143Y-68573980D01*
X52057143Y-68573980D02*
X52133333Y-68497790D01*
X52133333Y-68497790D02*
X52209524Y-68459695D01*
X53352381Y-69259695D02*
X53085714Y-68878742D01*
X52895238Y-69259695D02*
X52895238Y-68459695D01*
X52895238Y-68459695D02*
X53200000Y-68459695D01*
X53200000Y-68459695D02*
X53276190Y-68497790D01*
X53276190Y-68497790D02*
X53314285Y-68535885D01*
X53314285Y-68535885D02*
X53352381Y-68612076D01*
X53352381Y-68612076D02*
X53352381Y-68726361D01*
X53352381Y-68726361D02*
X53314285Y-68802552D01*
X53314285Y-68802552D02*
X53276190Y-68840647D01*
X53276190Y-68840647D02*
X53200000Y-68878742D01*
X53200000Y-68878742D02*
X52895238Y-68878742D01*
X54571428Y-68840647D02*
X54304762Y-68840647D01*
X54304762Y-69259695D02*
X54304762Y-68459695D01*
X54304762Y-68459695D02*
X54685714Y-68459695D01*
X54952380Y-69031123D02*
X55333333Y-69031123D01*
X54876190Y-69259695D02*
X55142857Y-68459695D01*
X55142857Y-68459695D02*
X55409523Y-69259695D01*
X55942856Y-68840647D02*
X56057142Y-68878742D01*
X56057142Y-68878742D02*
X56095237Y-68916838D01*
X56095237Y-68916838D02*
X56133333Y-68993028D01*
X56133333Y-68993028D02*
X56133333Y-69107314D01*
X56133333Y-69107314D02*
X56095237Y-69183504D01*
X56095237Y-69183504D02*
X56057142Y-69221600D01*
X56057142Y-69221600D02*
X55980952Y-69259695D01*
X55980952Y-69259695D02*
X55676190Y-69259695D01*
X55676190Y-69259695D02*
X55676190Y-68459695D01*
X55676190Y-68459695D02*
X55942856Y-68459695D01*
X55942856Y-68459695D02*
X56019047Y-68497790D01*
X56019047Y-68497790D02*
X56057142Y-68535885D01*
X56057142Y-68535885D02*
X56095237Y-68612076D01*
X56095237Y-68612076D02*
X56095237Y-68688266D01*
X56095237Y-68688266D02*
X56057142Y-68764457D01*
X56057142Y-68764457D02*
X56019047Y-68802552D01*
X56019047Y-68802552D02*
X55942856Y-68840647D01*
X55942856Y-68840647D02*
X55676190Y-68840647D01*
X56345863Y-63405957D02*
X56345863Y-62505957D01*
X56731577Y-63363100D02*
X56860149Y-63405957D01*
X56860149Y-63405957D02*
X57074434Y-63405957D01*
X57074434Y-63405957D02*
X57160149Y-63363100D01*
X57160149Y-63363100D02*
X57203006Y-63320242D01*
X57203006Y-63320242D02*
X57245863Y-63234528D01*
X57245863Y-63234528D02*
X57245863Y-63148814D01*
X57245863Y-63148814D02*
X57203006Y-63063100D01*
X57203006Y-63063100D02*
X57160149Y-63020242D01*
X57160149Y-63020242D02*
X57074434Y-62977385D01*
X57074434Y-62977385D02*
X56903006Y-62934528D01*
X56903006Y-62934528D02*
X56817291Y-62891671D01*
X56817291Y-62891671D02*
X56774434Y-62848814D01*
X56774434Y-62848814D02*
X56731577Y-62763100D01*
X56731577Y-62763100D02*
X56731577Y-62677385D01*
X56731577Y-62677385D02*
X56774434Y-62591671D01*
X56774434Y-62591671D02*
X56817291Y-62548814D01*
X56817291Y-62548814D02*
X56903006Y-62505957D01*
X56903006Y-62505957D02*
X57117291Y-62505957D01*
X57117291Y-62505957D02*
X57245863Y-62548814D01*
X57803006Y-62505957D02*
X57974434Y-62505957D01*
X57974434Y-62505957D02*
X58060149Y-62548814D01*
X58060149Y-62548814D02*
X58145863Y-62634528D01*
X58145863Y-62634528D02*
X58188720Y-62805957D01*
X58188720Y-62805957D02*
X58188720Y-63105957D01*
X58188720Y-63105957D02*
X58145863Y-63277385D01*
X58145863Y-63277385D02*
X58060149Y-63363100D01*
X58060149Y-63363100D02*
X57974434Y-63405957D01*
X57974434Y-63405957D02*
X57803006Y-63405957D01*
X57803006Y-63405957D02*
X57717292Y-63363100D01*
X57717292Y-63363100D02*
X57631577Y-63277385D01*
X57631577Y-63277385D02*
X57588720Y-63105957D01*
X57588720Y-63105957D02*
X57588720Y-62805957D01*
X57588720Y-62805957D02*
X57631577Y-62634528D01*
X57631577Y-62634528D02*
X57717292Y-62548814D01*
X57717292Y-62548814D02*
X57803006Y-62505957D01*
X59003006Y-63405957D02*
X58574434Y-63405957D01*
X58574434Y-63405957D02*
X58574434Y-62505957D01*
X59260148Y-63148814D02*
X59688720Y-63148814D01*
X59174434Y-63405957D02*
X59474434Y-62505957D01*
X59474434Y-62505957D02*
X59774434Y-63405957D01*
X59945863Y-62505957D02*
X60460149Y-62505957D01*
X60203006Y-63405957D02*
X60203006Y-62505957D01*
X60760148Y-62934528D02*
X61060148Y-62934528D01*
X61188720Y-63405957D02*
X60760148Y-63405957D01*
X60760148Y-63405957D02*
X60760148Y-62505957D01*
X60760148Y-62505957D02*
X61188720Y-62505957D01*
X61574434Y-63405957D02*
X61574434Y-62505957D01*
X61574434Y-62505957D02*
X61788720Y-62505957D01*
X61788720Y-62505957D02*
X61917291Y-62548814D01*
X61917291Y-62548814D02*
X62003006Y-62634528D01*
X62003006Y-62634528D02*
X62045863Y-62720242D01*
X62045863Y-62720242D02*
X62088720Y-62891671D01*
X62088720Y-62891671D02*
X62088720Y-63020242D01*
X62088720Y-63020242D02*
X62045863Y-63191671D01*
X62045863Y-63191671D02*
X62003006Y-63277385D01*
X62003006Y-63277385D02*
X61917291Y-63363100D01*
X61917291Y-63363100D02*
X61788720Y-63405957D01*
X61788720Y-63405957D02*
X61574434Y-63405957D01*
X63588720Y-62505957D02*
X63160148Y-62505957D01*
X63160148Y-62505957D02*
X63117291Y-62934528D01*
X63117291Y-62934528D02*
X63160148Y-62891671D01*
X63160148Y-62891671D02*
X63245863Y-62848814D01*
X63245863Y-62848814D02*
X63460148Y-62848814D01*
X63460148Y-62848814D02*
X63545863Y-62891671D01*
X63545863Y-62891671D02*
X63588720Y-62934528D01*
X63588720Y-62934528D02*
X63631577Y-63020242D01*
X63631577Y-63020242D02*
X63631577Y-63234528D01*
X63631577Y-63234528D02*
X63588720Y-63320242D01*
X63588720Y-63320242D02*
X63545863Y-63363100D01*
X63545863Y-63363100D02*
X63460148Y-63405957D01*
X63460148Y-63405957D02*
X63245863Y-63405957D01*
X63245863Y-63405957D02*
X63160148Y-63363100D01*
X63160148Y-63363100D02*
X63117291Y-63320242D01*
X63888720Y-62505957D02*
X64188720Y-63405957D01*
X64188720Y-63405957D02*
X64488720Y-62505957D01*
X65645863Y-62505957D02*
X65817291Y-62505957D01*
X65817291Y-62505957D02*
X65903006Y-62548814D01*
X65903006Y-62548814D02*
X65988720Y-62634528D01*
X65988720Y-62634528D02*
X66031577Y-62805957D01*
X66031577Y-62805957D02*
X66031577Y-63105957D01*
X66031577Y-63105957D02*
X65988720Y-63277385D01*
X65988720Y-63277385D02*
X65903006Y-63363100D01*
X65903006Y-63363100D02*
X65817291Y-63405957D01*
X65817291Y-63405957D02*
X65645863Y-63405957D01*
X65645863Y-63405957D02*
X65560149Y-63363100D01*
X65560149Y-63363100D02*
X65474434Y-63277385D01*
X65474434Y-63277385D02*
X65431577Y-63105957D01*
X65431577Y-63105957D02*
X65431577Y-62805957D01*
X65431577Y-62805957D02*
X65474434Y-62634528D01*
X65474434Y-62634528D02*
X65560149Y-62548814D01*
X65560149Y-62548814D02*
X65645863Y-62505957D01*
X66417291Y-62505957D02*
X66417291Y-63234528D01*
X66417291Y-63234528D02*
X66460148Y-63320242D01*
X66460148Y-63320242D02*
X66503006Y-63363100D01*
X66503006Y-63363100D02*
X66588720Y-63405957D01*
X66588720Y-63405957D02*
X66760148Y-63405957D01*
X66760148Y-63405957D02*
X66845863Y-63363100D01*
X66845863Y-63363100D02*
X66888720Y-63320242D01*
X66888720Y-63320242D02*
X66931577Y-63234528D01*
X66931577Y-63234528D02*
X66931577Y-62505957D01*
X67231577Y-62505957D02*
X67745863Y-62505957D01*
X67488720Y-63405957D02*
X67488720Y-62505957D01*
D12*
X31066665Y-1727190D02*
X31371427Y-1727190D01*
X31371427Y-1727190D02*
X31523808Y-1803380D01*
X31523808Y-1803380D02*
X31676189Y-1955761D01*
X31676189Y-1955761D02*
X31752379Y-2260523D01*
X31752379Y-2260523D02*
X31752379Y-2793857D01*
X31752379Y-2793857D02*
X31676189Y-3098619D01*
X31676189Y-3098619D02*
X31523808Y-3251000D01*
X31523808Y-3251000D02*
X31371427Y-3327190D01*
X31371427Y-3327190D02*
X31066665Y-3327190D01*
X31066665Y-3327190D02*
X30914284Y-3251000D01*
X30914284Y-3251000D02*
X30761903Y-3098619D01*
X30761903Y-3098619D02*
X30685712Y-2793857D01*
X30685712Y-2793857D02*
X30685712Y-2260523D01*
X30685712Y-2260523D02*
X30761903Y-1955761D01*
X30761903Y-1955761D02*
X30914284Y-1803380D01*
X30914284Y-1803380D02*
X31066665Y-1727190D01*
X32361902Y-3251000D02*
X32590474Y-3327190D01*
X32590474Y-3327190D02*
X32971426Y-3327190D01*
X32971426Y-3327190D02*
X33123807Y-3251000D01*
X33123807Y-3251000D02*
X33199998Y-3174809D01*
X33199998Y-3174809D02*
X33276188Y-3022428D01*
X33276188Y-3022428D02*
X33276188Y-2870047D01*
X33276188Y-2870047D02*
X33199998Y-2717666D01*
X33199998Y-2717666D02*
X33123807Y-2641476D01*
X33123807Y-2641476D02*
X32971426Y-2565285D01*
X32971426Y-2565285D02*
X32666664Y-2489095D01*
X32666664Y-2489095D02*
X32514283Y-2412904D01*
X32514283Y-2412904D02*
X32438093Y-2336714D01*
X32438093Y-2336714D02*
X32361902Y-2184333D01*
X32361902Y-2184333D02*
X32361902Y-2031952D01*
X32361902Y-2031952D02*
X32438093Y-1879571D01*
X32438093Y-1879571D02*
X32514283Y-1803380D01*
X32514283Y-1803380D02*
X32666664Y-1727190D01*
X32666664Y-1727190D02*
X33047617Y-1727190D01*
X33047617Y-1727190D02*
X33276188Y-1803380D01*
X34495236Y-2489095D02*
X34723808Y-2565285D01*
X34723808Y-2565285D02*
X34799998Y-2641476D01*
X34799998Y-2641476D02*
X34876189Y-2793857D01*
X34876189Y-2793857D02*
X34876189Y-3022428D01*
X34876189Y-3022428D02*
X34799998Y-3174809D01*
X34799998Y-3174809D02*
X34723808Y-3251000D01*
X34723808Y-3251000D02*
X34571427Y-3327190D01*
X34571427Y-3327190D02*
X33961903Y-3327190D01*
X33961903Y-3327190D02*
X33961903Y-1727190D01*
X33961903Y-1727190D02*
X34495236Y-1727190D01*
X34495236Y-1727190D02*
X34647617Y-1803380D01*
X34647617Y-1803380D02*
X34723808Y-1879571D01*
X34723808Y-1879571D02*
X34799998Y-2031952D01*
X34799998Y-2031952D02*
X34799998Y-2184333D01*
X34799998Y-2184333D02*
X34723808Y-2336714D01*
X34723808Y-2336714D02*
X34647617Y-2412904D01*
X34647617Y-2412904D02*
X34495236Y-2489095D01*
X34495236Y-2489095D02*
X33961903Y-2489095D01*
X35485712Y-2870047D02*
X36247617Y-2870047D01*
X35333331Y-3327190D02*
X35866665Y-1727190D01*
X35866665Y-1727190D02*
X36399998Y-3327190D01*
X36933332Y-3327190D02*
X36933332Y-1727190D01*
X36933332Y-1727190D02*
X37466665Y-2870047D01*
X37466665Y-2870047D02*
X37999999Y-1727190D01*
X37999999Y-1727190D02*
X37999999Y-3327190D01*
X38685712Y-3251000D02*
X38914284Y-3327190D01*
X38914284Y-3327190D02*
X39295236Y-3327190D01*
X39295236Y-3327190D02*
X39447617Y-3251000D01*
X39447617Y-3251000D02*
X39523808Y-3174809D01*
X39523808Y-3174809D02*
X39599998Y-3022428D01*
X39599998Y-3022428D02*
X39599998Y-2870047D01*
X39599998Y-2870047D02*
X39523808Y-2717666D01*
X39523808Y-2717666D02*
X39447617Y-2641476D01*
X39447617Y-2641476D02*
X39295236Y-2565285D01*
X39295236Y-2565285D02*
X38990474Y-2489095D01*
X38990474Y-2489095D02*
X38838093Y-2412904D01*
X38838093Y-2412904D02*
X38761903Y-2336714D01*
X38761903Y-2336714D02*
X38685712Y-2184333D01*
X38685712Y-2184333D02*
X38685712Y-2031952D01*
X38685712Y-2031952D02*
X38761903Y-1879571D01*
X38761903Y-1879571D02*
X38838093Y-1803380D01*
X38838093Y-1803380D02*
X38990474Y-1727190D01*
X38990474Y-1727190D02*
X39371427Y-1727190D01*
X39371427Y-1727190D02*
X39599998Y-1803380D01*
X41504761Y-3327190D02*
X41504761Y-1727190D01*
X41504761Y-1727190D02*
X42114285Y-1727190D01*
X42114285Y-1727190D02*
X42266666Y-1803380D01*
X42266666Y-1803380D02*
X42342856Y-1879571D01*
X42342856Y-1879571D02*
X42419047Y-2031952D01*
X42419047Y-2031952D02*
X42419047Y-2260523D01*
X42419047Y-2260523D02*
X42342856Y-2412904D01*
X42342856Y-2412904D02*
X42266666Y-2489095D01*
X42266666Y-2489095D02*
X42114285Y-2565285D01*
X42114285Y-2565285D02*
X41504761Y-2565285D01*
X43104761Y-3327190D02*
X43104761Y-2260523D01*
X43104761Y-1727190D02*
X43028570Y-1803380D01*
X43028570Y-1803380D02*
X43104761Y-1879571D01*
X43104761Y-1879571D02*
X43180951Y-1803380D01*
X43180951Y-1803380D02*
X43104761Y-1727190D01*
X43104761Y-1727190D02*
X43104761Y-1879571D01*
X45009523Y-1651000D02*
X43638094Y-3708142D01*
X45542856Y-3327190D02*
X45542856Y-1727190D01*
X45542856Y-1727190D02*
X45923808Y-1727190D01*
X45923808Y-1727190D02*
X46152380Y-1803380D01*
X46152380Y-1803380D02*
X46304761Y-1955761D01*
X46304761Y-1955761D02*
X46380951Y-2108142D01*
X46380951Y-2108142D02*
X46457142Y-2412904D01*
X46457142Y-2412904D02*
X46457142Y-2641476D01*
X46457142Y-2641476D02*
X46380951Y-2946238D01*
X46380951Y-2946238D02*
X46304761Y-3098619D01*
X46304761Y-3098619D02*
X46152380Y-3251000D01*
X46152380Y-3251000D02*
X45923808Y-3327190D01*
X45923808Y-3327190D02*
X45542856Y-3327190D01*
X47142856Y-3327190D02*
X47142856Y-2260523D01*
X47142856Y-1727190D02*
X47066665Y-1803380D01*
X47066665Y-1803380D02*
X47142856Y-1879571D01*
X47142856Y-1879571D02*
X47219046Y-1803380D01*
X47219046Y-1803380D02*
X47142856Y-1727190D01*
X47142856Y-1727190D02*
X47142856Y-1879571D01*
X47828570Y-3251000D02*
X47980951Y-3327190D01*
X47980951Y-3327190D02*
X48285713Y-3327190D01*
X48285713Y-3327190D02*
X48438094Y-3251000D01*
X48438094Y-3251000D02*
X48514285Y-3098619D01*
X48514285Y-3098619D02*
X48514285Y-3022428D01*
X48514285Y-3022428D02*
X48438094Y-2870047D01*
X48438094Y-2870047D02*
X48285713Y-2793857D01*
X48285713Y-2793857D02*
X48057142Y-2793857D01*
X48057142Y-2793857D02*
X47904761Y-2717666D01*
X47904761Y-2717666D02*
X47828570Y-2565285D01*
X47828570Y-2565285D02*
X47828570Y-2489095D01*
X47828570Y-2489095D02*
X47904761Y-2336714D01*
X47904761Y-2336714D02*
X48057142Y-2260523D01*
X48057142Y-2260523D02*
X48285713Y-2260523D01*
X48285713Y-2260523D02*
X48438094Y-2336714D01*
X49199999Y-2260523D02*
X49199999Y-3860523D01*
X49199999Y-2336714D02*
X49352380Y-2260523D01*
X49352380Y-2260523D02*
X49657142Y-2260523D01*
X49657142Y-2260523D02*
X49809523Y-2336714D01*
X49809523Y-2336714D02*
X49885713Y-2412904D01*
X49885713Y-2412904D02*
X49961904Y-2565285D01*
X49961904Y-2565285D02*
X49961904Y-3022428D01*
X49961904Y-3022428D02*
X49885713Y-3174809D01*
X49885713Y-3174809D02*
X49809523Y-3251000D01*
X49809523Y-3251000D02*
X49657142Y-3327190D01*
X49657142Y-3327190D02*
X49352380Y-3327190D01*
X49352380Y-3327190D02*
X49199999Y-3251000D01*
X50876189Y-3327190D02*
X50723808Y-3251000D01*
X50723808Y-3251000D02*
X50647618Y-3098619D01*
X50647618Y-3098619D02*
X50647618Y-1727190D01*
X52171427Y-3327190D02*
X52171427Y-2489095D01*
X52171427Y-2489095D02*
X52095237Y-2336714D01*
X52095237Y-2336714D02*
X51942856Y-2260523D01*
X51942856Y-2260523D02*
X51638094Y-2260523D01*
X51638094Y-2260523D02*
X51485713Y-2336714D01*
X52171427Y-3251000D02*
X52019046Y-3327190D01*
X52019046Y-3327190D02*
X51638094Y-3327190D01*
X51638094Y-3327190D02*
X51485713Y-3251000D01*
X51485713Y-3251000D02*
X51409522Y-3098619D01*
X51409522Y-3098619D02*
X51409522Y-2946238D01*
X51409522Y-2946238D02*
X51485713Y-2793857D01*
X51485713Y-2793857D02*
X51638094Y-2717666D01*
X51638094Y-2717666D02*
X52019046Y-2717666D01*
X52019046Y-2717666D02*
X52171427Y-2641476D01*
X52780951Y-2260523D02*
X53161903Y-3327190D01*
X53542856Y-2260523D02*
X53161903Y-3327190D01*
X53161903Y-3327190D02*
X53009522Y-3708142D01*
X53009522Y-3708142D02*
X52933332Y-3784333D01*
X52933332Y-3784333D02*
X52780951Y-3860523D01*
X55371428Y-3327190D02*
X55371428Y-1727190D01*
X55371428Y-1727190D02*
X55980952Y-1727190D01*
X55980952Y-1727190D02*
X56133333Y-1803380D01*
X56133333Y-1803380D02*
X56209523Y-1879571D01*
X56209523Y-1879571D02*
X56285714Y-2031952D01*
X56285714Y-2031952D02*
X56285714Y-2260523D01*
X56285714Y-2260523D02*
X56209523Y-2412904D01*
X56209523Y-2412904D02*
X56133333Y-2489095D01*
X56133333Y-2489095D02*
X55980952Y-2565285D01*
X55980952Y-2565285D02*
X55371428Y-2565285D01*
X57199999Y-3327190D02*
X57047618Y-3251000D01*
X57047618Y-3251000D02*
X56971428Y-3174809D01*
X56971428Y-3174809D02*
X56895237Y-3022428D01*
X56895237Y-3022428D02*
X56895237Y-2565285D01*
X56895237Y-2565285D02*
X56971428Y-2412904D01*
X56971428Y-2412904D02*
X57047618Y-2336714D01*
X57047618Y-2336714D02*
X57199999Y-2260523D01*
X57199999Y-2260523D02*
X57428571Y-2260523D01*
X57428571Y-2260523D02*
X57580952Y-2336714D01*
X57580952Y-2336714D02*
X57657142Y-2412904D01*
X57657142Y-2412904D02*
X57733333Y-2565285D01*
X57733333Y-2565285D02*
X57733333Y-3022428D01*
X57733333Y-3022428D02*
X57657142Y-3174809D01*
X57657142Y-3174809D02*
X57580952Y-3251000D01*
X57580952Y-3251000D02*
X57428571Y-3327190D01*
X57428571Y-3327190D02*
X57199999Y-3327190D01*
X58266666Y-2260523D02*
X58571428Y-3327190D01*
X58571428Y-3327190D02*
X58876190Y-2565285D01*
X58876190Y-2565285D02*
X59180952Y-3327190D01*
X59180952Y-3327190D02*
X59485714Y-2260523D01*
X60704761Y-3251000D02*
X60552380Y-3327190D01*
X60552380Y-3327190D02*
X60247618Y-3327190D01*
X60247618Y-3327190D02*
X60095237Y-3251000D01*
X60095237Y-3251000D02*
X60019046Y-3098619D01*
X60019046Y-3098619D02*
X60019046Y-2489095D01*
X60019046Y-2489095D02*
X60095237Y-2336714D01*
X60095237Y-2336714D02*
X60247618Y-2260523D01*
X60247618Y-2260523D02*
X60552380Y-2260523D01*
X60552380Y-2260523D02*
X60704761Y-2336714D01*
X60704761Y-2336714D02*
X60780951Y-2489095D01*
X60780951Y-2489095D02*
X60780951Y-2641476D01*
X60780951Y-2641476D02*
X60019046Y-2793857D01*
X61466666Y-3327190D02*
X61466666Y-2260523D01*
X61466666Y-2565285D02*
X61542856Y-2412904D01*
X61542856Y-2412904D02*
X61619047Y-2336714D01*
X61619047Y-2336714D02*
X61771428Y-2260523D01*
X61771428Y-2260523D02*
X61923809Y-2260523D01*
X64590476Y-3327190D02*
X64057142Y-2565285D01*
X63676190Y-3327190D02*
X63676190Y-1727190D01*
X63676190Y-1727190D02*
X64285714Y-1727190D01*
X64285714Y-1727190D02*
X64438095Y-1803380D01*
X64438095Y-1803380D02*
X64514285Y-1879571D01*
X64514285Y-1879571D02*
X64590476Y-2031952D01*
X64590476Y-2031952D02*
X64590476Y-2260523D01*
X64590476Y-2260523D02*
X64514285Y-2412904D01*
X64514285Y-2412904D02*
X64438095Y-2489095D01*
X64438095Y-2489095D02*
X64285714Y-2565285D01*
X64285714Y-2565285D02*
X63676190Y-2565285D01*
X65885714Y-3251000D02*
X65733333Y-3327190D01*
X65733333Y-3327190D02*
X65428571Y-3327190D01*
X65428571Y-3327190D02*
X65276190Y-3251000D01*
X65276190Y-3251000D02*
X65199999Y-3098619D01*
X65199999Y-3098619D02*
X65199999Y-2489095D01*
X65199999Y-2489095D02*
X65276190Y-2336714D01*
X65276190Y-2336714D02*
X65428571Y-2260523D01*
X65428571Y-2260523D02*
X65733333Y-2260523D01*
X65733333Y-2260523D02*
X65885714Y-2336714D01*
X65885714Y-2336714D02*
X65961904Y-2489095D01*
X65961904Y-2489095D02*
X65961904Y-2641476D01*
X65961904Y-2641476D02*
X65199999Y-2793857D01*
X66495238Y-2260523D02*
X66876190Y-3327190D01*
X66876190Y-3327190D02*
X67257143Y-2260523D01*
X67866667Y-3174809D02*
X67942857Y-3251000D01*
X67942857Y-3251000D02*
X67866667Y-3327190D01*
X67866667Y-3327190D02*
X67790476Y-3251000D01*
X67790476Y-3251000D02*
X67866667Y-3174809D01*
X67866667Y-3174809D02*
X67866667Y-3327190D01*
X68552381Y-2870047D02*
X69314286Y-2870047D01*
X68400000Y-3327190D02*
X68933334Y-1727190D01*
X68933334Y-1727190D02*
X69466667Y-3327190D01*
D10*
X56393482Y-66698480D02*
X56393482Y-65598480D01*
X56393482Y-65598480D02*
X56812530Y-65598480D01*
X56812530Y-65598480D02*
X56917292Y-65650861D01*
X56917292Y-65650861D02*
X56969673Y-65703242D01*
X56969673Y-65703242D02*
X57022054Y-65808004D01*
X57022054Y-65808004D02*
X57022054Y-65965147D01*
X57022054Y-65965147D02*
X56969673Y-66069909D01*
X56969673Y-66069909D02*
X56917292Y-66122290D01*
X56917292Y-66122290D02*
X56812530Y-66174671D01*
X56812530Y-66174671D02*
X56393482Y-66174671D01*
X57493482Y-66698480D02*
X57493482Y-65598480D01*
X58803006Y-66646100D02*
X58960149Y-66698480D01*
X58960149Y-66698480D02*
X59222054Y-66698480D01*
X59222054Y-66698480D02*
X59326816Y-66646100D01*
X59326816Y-66646100D02*
X59379197Y-66593719D01*
X59379197Y-66593719D02*
X59431578Y-66488957D01*
X59431578Y-66488957D02*
X59431578Y-66384195D01*
X59431578Y-66384195D02*
X59379197Y-66279433D01*
X59379197Y-66279433D02*
X59326816Y-66227052D01*
X59326816Y-66227052D02*
X59222054Y-66174671D01*
X59222054Y-66174671D02*
X59012530Y-66122290D01*
X59012530Y-66122290D02*
X58907768Y-66069909D01*
X58907768Y-66069909D02*
X58855387Y-66017528D01*
X58855387Y-66017528D02*
X58803006Y-65912766D01*
X58803006Y-65912766D02*
X58803006Y-65808004D01*
X58803006Y-65808004D02*
X58855387Y-65703242D01*
X58855387Y-65703242D02*
X58907768Y-65650861D01*
X58907768Y-65650861D02*
X59012530Y-65598480D01*
X59012530Y-65598480D02*
X59274435Y-65598480D01*
X59274435Y-65598480D02*
X59431578Y-65650861D01*
X59903006Y-66698480D02*
X59903006Y-65598480D01*
X60426816Y-66698480D02*
X60426816Y-65598480D01*
X60426816Y-65598480D02*
X60688721Y-65598480D01*
X60688721Y-65598480D02*
X60845864Y-65650861D01*
X60845864Y-65650861D02*
X60950626Y-65755623D01*
X60950626Y-65755623D02*
X61003007Y-65860385D01*
X61003007Y-65860385D02*
X61055388Y-66069909D01*
X61055388Y-66069909D02*
X61055388Y-66227052D01*
X61055388Y-66227052D02*
X61003007Y-66436576D01*
X61003007Y-66436576D02*
X60950626Y-66541338D01*
X60950626Y-66541338D02*
X60845864Y-66646100D01*
X60845864Y-66646100D02*
X60688721Y-66698480D01*
X60688721Y-66698480D02*
X60426816Y-66698480D01*
X61526816Y-66122290D02*
X61893483Y-66122290D01*
X62050626Y-66698480D02*
X61526816Y-66698480D01*
X61526816Y-66698480D02*
X61526816Y-65598480D01*
X61526816Y-65598480D02*
X62050626Y-65598480D01*
X63255387Y-66331814D02*
X64198245Y-66331814D01*
X65455387Y-66698480D02*
X65455387Y-65598480D01*
X65926816Y-66646100D02*
X66083959Y-66698480D01*
X66083959Y-66698480D02*
X66345864Y-66698480D01*
X66345864Y-66698480D02*
X66450626Y-66646100D01*
X66450626Y-66646100D02*
X66503007Y-66593719D01*
X66503007Y-66593719D02*
X66555388Y-66488957D01*
X66555388Y-66488957D02*
X66555388Y-66384195D01*
X66555388Y-66384195D02*
X66503007Y-66279433D01*
X66503007Y-66279433D02*
X66450626Y-66227052D01*
X66450626Y-66227052D02*
X66345864Y-66174671D01*
X66345864Y-66174671D02*
X66136340Y-66122290D01*
X66136340Y-66122290D02*
X66031578Y-66069909D01*
X66031578Y-66069909D02*
X65979197Y-66017528D01*
X65979197Y-66017528D02*
X65926816Y-65912766D01*
X65926816Y-65912766D02*
X65926816Y-65808004D01*
X65926816Y-65808004D02*
X65979197Y-65703242D01*
X65979197Y-65703242D02*
X66031578Y-65650861D01*
X66031578Y-65650861D02*
X66136340Y-65598480D01*
X66136340Y-65598480D02*
X66398245Y-65598480D01*
X66398245Y-65598480D02*
X66555388Y-65650861D01*
X67236340Y-65598480D02*
X67445864Y-65598480D01*
X67445864Y-65598480D02*
X67550626Y-65650861D01*
X67550626Y-65650861D02*
X67655388Y-65755623D01*
X67655388Y-65755623D02*
X67707769Y-65965147D01*
X67707769Y-65965147D02*
X67707769Y-66331814D01*
X67707769Y-66331814D02*
X67655388Y-66541338D01*
X67655388Y-66541338D02*
X67550626Y-66646100D01*
X67550626Y-66646100D02*
X67445864Y-66698480D01*
X67445864Y-66698480D02*
X67236340Y-66698480D01*
X67236340Y-66698480D02*
X67131578Y-66646100D01*
X67131578Y-66646100D02*
X67026816Y-66541338D01*
X67026816Y-66541338D02*
X66974435Y-66331814D01*
X66974435Y-66331814D02*
X66974435Y-65965147D01*
X66974435Y-65965147D02*
X67026816Y-65755623D01*
X67026816Y-65755623D02*
X67131578Y-65650861D01*
X67131578Y-65650861D02*
X67236340Y-65598480D01*
X68703007Y-66698480D02*
X68179197Y-66698480D01*
X68179197Y-66698480D02*
X68179197Y-65598480D01*
X69017292Y-66384195D02*
X69541102Y-66384195D01*
X68912530Y-66698480D02*
X69279197Y-65598480D01*
X69279197Y-65598480D02*
X69645864Y-66698480D01*
X69855387Y-65598480D02*
X70483959Y-65598480D01*
X70169673Y-66698480D02*
X70169673Y-65598480D01*
X70850625Y-66122290D02*
X71217292Y-66122290D01*
X71374435Y-66698480D02*
X70850625Y-66698480D01*
X70850625Y-66698480D02*
X70850625Y-65598480D01*
X70850625Y-65598480D02*
X71374435Y-65598480D01*
X71845863Y-66698480D02*
X71845863Y-65598480D01*
X71845863Y-65598480D02*
X72107768Y-65598480D01*
X72107768Y-65598480D02*
X72264911Y-65650861D01*
X72264911Y-65650861D02*
X72369673Y-65755623D01*
X72369673Y-65755623D02*
X72422054Y-65860385D01*
X72422054Y-65860385D02*
X72474435Y-66069909D01*
X72474435Y-66069909D02*
X72474435Y-66227052D01*
X72474435Y-66227052D02*
X72422054Y-66436576D01*
X72422054Y-66436576D02*
X72369673Y-66541338D01*
X72369673Y-66541338D02*
X72264911Y-66646100D01*
X72264911Y-66646100D02*
X72107768Y-66698480D01*
X72107768Y-66698480D02*
X71845863Y-66698480D01*
D13*
X8414286Y-6708557D02*
X7900000Y-6708557D01*
X8157143Y-6708557D02*
X8157143Y-5808557D01*
X8157143Y-5808557D02*
X8071429Y-5937128D01*
X8071429Y-5937128D02*
X7985714Y-6022842D01*
X7985714Y-6022842D02*
X7900000Y-6065700D01*
X8757143Y-5894271D02*
X8800000Y-5851414D01*
X8800000Y-5851414D02*
X8885715Y-5808557D01*
X8885715Y-5808557D02*
X9100000Y-5808557D01*
X9100000Y-5808557D02*
X9185715Y-5851414D01*
X9185715Y-5851414D02*
X9228572Y-5894271D01*
X9228572Y-5894271D02*
X9271429Y-5979985D01*
X9271429Y-5979985D02*
X9271429Y-6065700D01*
X9271429Y-6065700D02*
X9228572Y-6194271D01*
X9228572Y-6194271D02*
X8714286Y-6708557D01*
X8714286Y-6708557D02*
X9271429Y-6708557D01*
X9528572Y-5808557D02*
X9828572Y-6708557D01*
X9828572Y-6708557D02*
X10128572Y-5808557D01*
X10214287Y-6794271D02*
X10900001Y-6794271D01*
X11114286Y-6708557D02*
X11114286Y-5808557D01*
X11542857Y-6708557D02*
X11542857Y-5808557D01*
X11542857Y-5808557D02*
X12057143Y-6708557D01*
X12057143Y-6708557D02*
X12057143Y-5808557D01*
X79321429Y-60808557D02*
X78892857Y-60808557D01*
X78892857Y-60808557D02*
X78850000Y-61237128D01*
X78850000Y-61237128D02*
X78892857Y-61194271D01*
X78892857Y-61194271D02*
X78978572Y-61151414D01*
X78978572Y-61151414D02*
X79192857Y-61151414D01*
X79192857Y-61151414D02*
X79278572Y-61194271D01*
X79278572Y-61194271D02*
X79321429Y-61237128D01*
X79321429Y-61237128D02*
X79364286Y-61322842D01*
X79364286Y-61322842D02*
X79364286Y-61537128D01*
X79364286Y-61537128D02*
X79321429Y-61622842D01*
X79321429Y-61622842D02*
X79278572Y-61665700D01*
X79278572Y-61665700D02*
X79192857Y-61708557D01*
X79192857Y-61708557D02*
X78978572Y-61708557D01*
X78978572Y-61708557D02*
X78892857Y-61665700D01*
X78892857Y-61665700D02*
X78850000Y-61622842D01*
X79621429Y-60808557D02*
X79921429Y-61708557D01*
X79921429Y-61708557D02*
X80221429Y-60808557D01*
X80307144Y-61794271D02*
X80992858Y-61794271D01*
X81207143Y-61708557D02*
X81207143Y-60808557D01*
X81207143Y-60808557D02*
X81550000Y-60808557D01*
X81550000Y-60808557D02*
X81635715Y-60851414D01*
X81635715Y-60851414D02*
X81678572Y-60894271D01*
X81678572Y-60894271D02*
X81721429Y-60979985D01*
X81721429Y-60979985D02*
X81721429Y-61108557D01*
X81721429Y-61108557D02*
X81678572Y-61194271D01*
X81678572Y-61194271D02*
X81635715Y-61237128D01*
X81635715Y-61237128D02*
X81550000Y-61279985D01*
X81550000Y-61279985D02*
X81207143Y-61279985D01*
X82107143Y-61708557D02*
X82107143Y-60808557D01*
X84835714Y-61708557D02*
X84835714Y-60808557D01*
X84835714Y-60808557D02*
X85178571Y-60808557D01*
X85178571Y-60808557D02*
X85264286Y-60851414D01*
X85264286Y-60851414D02*
X85307143Y-60894271D01*
X85307143Y-60894271D02*
X85350000Y-60979985D01*
X85350000Y-60979985D02*
X85350000Y-61108557D01*
X85350000Y-61108557D02*
X85307143Y-61194271D01*
X85307143Y-61194271D02*
X85264286Y-61237128D01*
X85264286Y-61237128D02*
X85178571Y-61279985D01*
X85178571Y-61279985D02*
X84835714Y-61279985D01*
X85735714Y-61708557D02*
X85735714Y-60808557D01*
X85950000Y-61794271D02*
X86635714Y-61794271D01*
X87321428Y-60851414D02*
X87235714Y-60808557D01*
X87235714Y-60808557D02*
X87107142Y-60808557D01*
X87107142Y-60808557D02*
X86978571Y-60851414D01*
X86978571Y-60851414D02*
X86892856Y-60937128D01*
X86892856Y-60937128D02*
X86849999Y-61022842D01*
X86849999Y-61022842D02*
X86807142Y-61194271D01*
X86807142Y-61194271D02*
X86807142Y-61322842D01*
X86807142Y-61322842D02*
X86849999Y-61494271D01*
X86849999Y-61494271D02*
X86892856Y-61579985D01*
X86892856Y-61579985D02*
X86978571Y-61665700D01*
X86978571Y-61665700D02*
X87107142Y-61708557D01*
X87107142Y-61708557D02*
X87192856Y-61708557D01*
X87192856Y-61708557D02*
X87321428Y-61665700D01*
X87321428Y-61665700D02*
X87364285Y-61622842D01*
X87364285Y-61622842D02*
X87364285Y-61322842D01*
X87364285Y-61322842D02*
X87192856Y-61322842D01*
X87749999Y-61708557D02*
X87749999Y-60808557D01*
X87749999Y-60808557D02*
X88264285Y-61708557D01*
X88264285Y-61708557D02*
X88264285Y-60808557D01*
X88692856Y-61708557D02*
X88692856Y-60808557D01*
X88692856Y-60808557D02*
X88907142Y-60808557D01*
X88907142Y-60808557D02*
X89035713Y-60851414D01*
X89035713Y-60851414D02*
X89121428Y-60937128D01*
X89121428Y-60937128D02*
X89164285Y-61022842D01*
X89164285Y-61022842D02*
X89207142Y-61194271D01*
X89207142Y-61194271D02*
X89207142Y-61322842D01*
X89207142Y-61322842D02*
X89164285Y-61494271D01*
X89164285Y-61494271D02*
X89121428Y-61579985D01*
X89121428Y-61579985D02*
X89035713Y-61665700D01*
X89035713Y-61665700D02*
X88907142Y-61708557D01*
X88907142Y-61708557D02*
X88692856Y-61708557D01*
X11728571Y-19208557D02*
X11214285Y-19208557D01*
X11471428Y-19208557D02*
X11471428Y-18308557D01*
X11471428Y-18308557D02*
X11385714Y-18437128D01*
X11385714Y-18437128D02*
X11299999Y-18522842D01*
X11299999Y-18522842D02*
X11214285Y-18565700D01*
X12071428Y-18394271D02*
X12114285Y-18351414D01*
X12114285Y-18351414D02*
X12200000Y-18308557D01*
X12200000Y-18308557D02*
X12414285Y-18308557D01*
X12414285Y-18308557D02*
X12500000Y-18351414D01*
X12500000Y-18351414D02*
X12542857Y-18394271D01*
X12542857Y-18394271D02*
X12585714Y-18479985D01*
X12585714Y-18479985D02*
X12585714Y-18565700D01*
X12585714Y-18565700D02*
X12542857Y-18694271D01*
X12542857Y-18694271D02*
X12028571Y-19208557D01*
X12028571Y-19208557D02*
X12585714Y-19208557D01*
X12842857Y-18308557D02*
X13142857Y-19208557D01*
X13142857Y-19208557D02*
X13442857Y-18308557D01*
X13528572Y-19294271D02*
X14214286Y-19294271D01*
X14900000Y-18351414D02*
X14814286Y-18308557D01*
X14814286Y-18308557D02*
X14685714Y-18308557D01*
X14685714Y-18308557D02*
X14557143Y-18351414D01*
X14557143Y-18351414D02*
X14471428Y-18437128D01*
X14471428Y-18437128D02*
X14428571Y-18522842D01*
X14428571Y-18522842D02*
X14385714Y-18694271D01*
X14385714Y-18694271D02*
X14385714Y-18822842D01*
X14385714Y-18822842D02*
X14428571Y-18994271D01*
X14428571Y-18994271D02*
X14471428Y-19079985D01*
X14471428Y-19079985D02*
X14557143Y-19165700D01*
X14557143Y-19165700D02*
X14685714Y-19208557D01*
X14685714Y-19208557D02*
X14771428Y-19208557D01*
X14771428Y-19208557D02*
X14900000Y-19165700D01*
X14900000Y-19165700D02*
X14942857Y-19122842D01*
X14942857Y-19122842D02*
X14942857Y-18822842D01*
X14942857Y-18822842D02*
X14771428Y-18822842D01*
X15328571Y-19208557D02*
X15328571Y-18308557D01*
X15328571Y-18308557D02*
X15842857Y-19208557D01*
X15842857Y-19208557D02*
X15842857Y-18308557D01*
X16271428Y-19208557D02*
X16271428Y-18308557D01*
X16271428Y-18308557D02*
X16485714Y-18308557D01*
X16485714Y-18308557D02*
X16614285Y-18351414D01*
X16614285Y-18351414D02*
X16700000Y-18437128D01*
X16700000Y-18437128D02*
X16742857Y-18522842D01*
X16742857Y-18522842D02*
X16785714Y-18694271D01*
X16785714Y-18694271D02*
X16785714Y-18822842D01*
X16785714Y-18822842D02*
X16742857Y-18994271D01*
X16742857Y-18994271D02*
X16700000Y-19079985D01*
X16700000Y-19079985D02*
X16614285Y-19165700D01*
X16614285Y-19165700D02*
X16485714Y-19208557D01*
X16485714Y-19208557D02*
X16271428Y-19208557D01*
X76678572Y-27308557D02*
X76250000Y-27308557D01*
X76250000Y-27308557D02*
X76207143Y-27737128D01*
X76207143Y-27737128D02*
X76250000Y-27694271D01*
X76250000Y-27694271D02*
X76335715Y-27651414D01*
X76335715Y-27651414D02*
X76550000Y-27651414D01*
X76550000Y-27651414D02*
X76635715Y-27694271D01*
X76635715Y-27694271D02*
X76678572Y-27737128D01*
X76678572Y-27737128D02*
X76721429Y-27822842D01*
X76721429Y-27822842D02*
X76721429Y-28037128D01*
X76721429Y-28037128D02*
X76678572Y-28122842D01*
X76678572Y-28122842D02*
X76635715Y-28165700D01*
X76635715Y-28165700D02*
X76550000Y-28208557D01*
X76550000Y-28208557D02*
X76335715Y-28208557D01*
X76335715Y-28208557D02*
X76250000Y-28165700D01*
X76250000Y-28165700D02*
X76207143Y-28122842D01*
X76978572Y-27308557D02*
X77278572Y-28208557D01*
X77278572Y-28208557D02*
X77578572Y-27308557D01*
X77664287Y-28294271D02*
X78350001Y-28294271D01*
X78564286Y-28208557D02*
X78564286Y-27308557D01*
X78950000Y-28165700D02*
X79078572Y-28208557D01*
X79078572Y-28208557D02*
X79292857Y-28208557D01*
X79292857Y-28208557D02*
X79378572Y-28165700D01*
X79378572Y-28165700D02*
X79421429Y-28122842D01*
X79421429Y-28122842D02*
X79464286Y-28037128D01*
X79464286Y-28037128D02*
X79464286Y-27951414D01*
X79464286Y-27951414D02*
X79421429Y-27865700D01*
X79421429Y-27865700D02*
X79378572Y-27822842D01*
X79378572Y-27822842D02*
X79292857Y-27779985D01*
X79292857Y-27779985D02*
X79121429Y-27737128D01*
X79121429Y-27737128D02*
X79035714Y-27694271D01*
X79035714Y-27694271D02*
X78992857Y-27651414D01*
X78992857Y-27651414D02*
X78950000Y-27565700D01*
X78950000Y-27565700D02*
X78950000Y-27479985D01*
X78950000Y-27479985D02*
X78992857Y-27394271D01*
X78992857Y-27394271D02*
X79035714Y-27351414D01*
X79035714Y-27351414D02*
X79121429Y-27308557D01*
X79121429Y-27308557D02*
X79335714Y-27308557D01*
X79335714Y-27308557D02*
X79464286Y-27351414D01*
X80021429Y-27308557D02*
X80192857Y-27308557D01*
X80192857Y-27308557D02*
X80278572Y-27351414D01*
X80278572Y-27351414D02*
X80364286Y-27437128D01*
X80364286Y-27437128D02*
X80407143Y-27608557D01*
X80407143Y-27608557D02*
X80407143Y-27908557D01*
X80407143Y-27908557D02*
X80364286Y-28079985D01*
X80364286Y-28079985D02*
X80278572Y-28165700D01*
X80278572Y-28165700D02*
X80192857Y-28208557D01*
X80192857Y-28208557D02*
X80021429Y-28208557D01*
X80021429Y-28208557D02*
X79935715Y-28165700D01*
X79935715Y-28165700D02*
X79850000Y-28079985D01*
X79850000Y-28079985D02*
X79807143Y-27908557D01*
X79807143Y-27908557D02*
X79807143Y-27608557D01*
X79807143Y-27608557D02*
X79850000Y-27437128D01*
X79850000Y-27437128D02*
X79935715Y-27351414D01*
X79935715Y-27351414D02*
X80021429Y-27308557D01*
X80578572Y-28294271D02*
X81264286Y-28294271D01*
X81992857Y-28208557D02*
X81692857Y-27779985D01*
X81478571Y-28208557D02*
X81478571Y-27308557D01*
X81478571Y-27308557D02*
X81821428Y-27308557D01*
X81821428Y-27308557D02*
X81907143Y-27351414D01*
X81907143Y-27351414D02*
X81950000Y-27394271D01*
X81950000Y-27394271D02*
X81992857Y-27479985D01*
X81992857Y-27479985D02*
X81992857Y-27608557D01*
X81992857Y-27608557D02*
X81950000Y-27694271D01*
X81950000Y-27694271D02*
X81907143Y-27737128D01*
X81907143Y-27737128D02*
X81821428Y-27779985D01*
X81821428Y-27779985D02*
X81478571Y-27779985D01*
X82335714Y-27951414D02*
X82764286Y-27951414D01*
X82250000Y-28208557D02*
X82550000Y-27308557D01*
X82550000Y-27308557D02*
X82850000Y-28208557D01*
X83064286Y-27308557D02*
X83278572Y-28208557D01*
X83278572Y-28208557D02*
X83450000Y-27565700D01*
X83450000Y-27565700D02*
X83621429Y-28208557D01*
X83621429Y-28208557D02*
X83835715Y-27308557D01*
D14*
%TO.C,D1*%
X86000000Y-52200000D02*
X86000000Y-53800000D01*
D13*
X86500000Y-52200000D02*
X89500000Y-52200000D01*
X86500000Y-53800000D02*
X86500000Y-52200000D01*
X89500000Y-52200000D02*
X89500000Y-53800000D01*
X89500000Y-53800000D02*
X86500000Y-53800000D01*
D10*
%TO.C,U1*%
X24600000Y-18300000D02*
X75400000Y-18300000D01*
X24600000Y-43700000D02*
X24600000Y-18300000D01*
X75400000Y-18300000D02*
X75400000Y-43700000D01*
X75400000Y-43700000D02*
X24600000Y-43700000D01*
X27740001Y-21500000D02*
G75*
G03*
X26539999Y-21500000I-600001J0D01*
G01*
X26539999Y-21500000D02*
G75*
G03*
X27740001Y-21500000I600001J0D01*
G01*
D13*
%TO.C,C6*%
X73000000Y-53200000D02*
X76000000Y-53200000D01*
X73000000Y-54800000D02*
X73000000Y-53200000D01*
X76000000Y-53200000D02*
X76000000Y-54800000D01*
X76000000Y-54800000D02*
X73000000Y-54800000D01*
D14*
%TO.C,TVS1*%
X27200000Y-6600000D02*
X27200000Y-10400000D01*
D13*
X29000000Y-6600000D02*
X33000000Y-6600000D01*
X29000000Y-10400000D02*
X29000000Y-6600000D01*
X33000000Y-6600000D02*
X33000000Y-10400000D01*
X33000000Y-10400000D02*
X29000000Y-10400000D01*
%TO.C,R1*%
X86500000Y-56200000D02*
X89500000Y-56200000D01*
X86500000Y-57800000D02*
X86500000Y-56200000D01*
X89500000Y-56200000D02*
X89500000Y-57800000D01*
X89500000Y-57800000D02*
X86500000Y-57800000D01*
%TO.C,F2*%
X78450000Y-40000000D02*
X82950000Y-40000000D01*
X78450000Y-52000000D02*
X78450000Y-40000000D01*
X82950000Y-40000000D02*
X82950000Y-52000000D01*
X82950000Y-52000000D02*
X78450000Y-52000000D01*
%TO.C,C5*%
X72800000Y-49000000D02*
X76200000Y-49000000D01*
X72800000Y-51000000D02*
X72800000Y-49000000D01*
X76200000Y-49000000D02*
X76200000Y-51000000D01*
X76200000Y-51000000D02*
X72800000Y-51000000D01*
%TO.C,F1*%
X12000000Y-5750000D02*
X24000000Y-5750000D01*
X12000000Y-10250000D02*
X12000000Y-5750000D01*
X24000000Y-5750000D02*
X24000000Y-10250000D01*
X24000000Y-10250000D02*
X12000000Y-10250000D01*
D10*
%TO.C,C2*%
X26550000Y-15800000D02*
X26550000Y-18200000D01*
D13*
X34500000Y-17000000D02*
G75*
G03*
X26500000Y-17000000I-4000000J0D01*
G01*
X26500000Y-17000000D02*
G75*
G03*
X34500000Y-17000000I4000000J0D01*
G01*
D10*
%TO.C,C4*%
X66300000Y-58800000D02*
X66300000Y-61200000D01*
D13*
X76000000Y-60000000D02*
G75*
G03*
X66000000Y-60000000I-5000000J0D01*
G01*
X66000000Y-60000000D02*
G75*
G03*
X76000000Y-60000000I5000000J0D01*
G01*
%TO.C,J_OUT*%
X78700000Y-60500000D02*
X87700000Y-60500000D01*
X78700000Y-69000000D02*
X78700000Y-60500000D01*
X87700000Y-60500000D02*
X87700000Y-69000000D01*
X87700000Y-69000000D02*
X78700000Y-69000000D01*
%TO.C,J_IN*%
X500000Y-11500000D02*
X11000000Y-11500000D01*
X500000Y-16500000D02*
X500000Y-11500000D01*
X11000000Y-11500000D02*
X11000000Y-16500000D01*
X11000000Y-16500000D02*
X500000Y-16500000D01*
%TO.C,C1*%
X29500000Y-23200000D02*
X32500000Y-23200000D01*
X29500000Y-24800000D02*
X29500000Y-23200000D01*
X32500000Y-23200000D02*
X32500000Y-24800000D01*
X32500000Y-24800000D02*
X29500000Y-24800000D01*
%TD*%
%LPC*%
D15*
%TO.C,H3*%
X4000000Y-66000000D03*
%TD*%
D16*
%TO.C,FID1*%
X12000000Y-66000000D03*
%TD*%
D17*
%TO.C,D1*%
X87175000Y-53000000D03*
X88825000Y-53000000D03*
%TD*%
D18*
%TO.C,U1*%
X27140000Y-25920000D03*
X27140000Y-31000000D03*
X27140000Y-36080000D03*
X72860000Y-25920000D03*
X72860000Y-31000000D03*
X72860000Y-36080000D03*
%TD*%
D17*
%TO.C,C6*%
X73675000Y-54000000D03*
X75325000Y-54000000D03*
%TD*%
D19*
%TO.C,TVS1*%
X28800000Y-8500000D03*
X33200000Y-8500000D03*
%TD*%
D17*
%TO.C,R1*%
X87175000Y-57000000D03*
X88825000Y-57000000D03*
%TD*%
D16*
%TO.C,FID2*%
X88000000Y-5000000D03*
%TD*%
D20*
%TO.C,TP1*%
X10000000Y-4500000D03*
%TD*%
D21*
%TO.C,F2*%
X80700000Y-41000000D03*
X80700000Y-51000000D03*
%TD*%
D15*
%TO.C,H4*%
X96000000Y-66000000D03*
%TD*%
D22*
%TO.C,C5*%
X73550000Y-50000000D03*
X75450000Y-50000000D03*
%TD*%
D23*
%TO.C,F1*%
X13000000Y-8000000D03*
X23000000Y-8000000D03*
%TD*%
D15*
%TO.C,H1*%
X4000000Y-4000000D03*
%TD*%
D20*
%TO.C,TP4*%
X80500000Y-59500000D03*
%TD*%
%TO.C,TP5*%
X87000000Y-59500000D03*
%TD*%
D16*
%TO.C,FID3*%
X95000000Y-40000000D03*
%TD*%
D20*
%TO.C,TP2*%
X14000000Y-17000000D03*
%TD*%
D24*
%TO.C,C2*%
X28750000Y-17000000D03*
X32250000Y-17000000D03*
%TD*%
D18*
%TO.C,C4*%
X73500000Y-60000000D03*
X68500000Y-60000000D03*
%TD*%
D25*
%TO.C,J_OUT*%
X81700000Y-63000000D03*
X81700000Y-66000000D03*
X84700000Y-63000000D03*
X84700000Y-66000000D03*
%TD*%
%TO.C,J_IN*%
X6000000Y-14000000D03*
X9000000Y-14000000D03*
%TD*%
D15*
%TO.C,H2*%
X96000000Y-4000000D03*
%TD*%
D20*
%TO.C,TP3*%
X80000000Y-26000000D03*
%TD*%
D17*
%TO.C,C1*%
X30175000Y-24000000D03*
X31825000Y-24000000D03*
%TD*%
%LPD*%
M02*
