M48
; DRILL file KiCad 10.0.6 date 2026-10-01T15:39:59
; FORMAT={-:-/ absolute / metric / decimal}
; #@! TF.CreationDate,2026-10-01T15:39:59+00:00
; #@! TF.GenerationSoftware,Kicad,Pcbnew,10.0.6
; #@! TF.FileFunction,Plated,1,4,PTH
FMAT,2
METRIC
; #@! TA.AperFunction,Plated,PTH,ViaDrill
T1C0.300
; #@! TA.AperFunction,Plated,PTH,ComponentDrill
T2C0.600
; #@! TA.AperFunction,Plated,PTH,ComponentDrill
T3C0.750
; #@! TA.AperFunction,Plated,PTH,ComponentDrill
T4C0.800
; #@! TA.AperFunction,Plated,PTH,ComponentDrill
T5C1.000
; #@! TA.AperFunction,Plated,PTH,ComponentDrill
T6C1.190
; #@! TA.AperFunction,Plated,PTH,ComponentDrill
T7C1.300
%
G90
G05
T1
X103.0Y-70.0
X103.0Y-77.0
X103.0Y-84.0
X103.0Y-91.0
X103.0Y-98.0
X103.0Y-105.0
X103.0Y-112.0
X103.0Y-119.0
X103.0Y-126.0
X103.0Y-133.0
X103.0Y-140.0
X104.75Y-66.5
X104.75Y-73.5
X104.75Y-80.5
X104.75Y-87.5
X104.75Y-94.5
X104.75Y-101.5
X104.75Y-115.5
X104.75Y-122.5
X104.75Y-129.5
X104.75Y-136.5
X104.75Y-143.5
X106.5Y-63.0
X106.5Y-70.0
X106.5Y-77.0
X106.5Y-84.0
X106.5Y-91.0
X106.5Y-98.0
X106.5Y-119.0
X106.5Y-126.0
X106.5Y-133.0
X106.5Y-140.0
X106.5Y-147.0
X108.25Y-66.5
X108.25Y-73.5
X108.25Y-80.5
X108.25Y-87.5
X108.25Y-94.5
X108.25Y-101.5
X108.25Y-108.5
X108.25Y-115.5
X108.25Y-122.5
X108.25Y-129.5
X108.25Y-136.5
X108.25Y-143.5
X110.0Y-70.0
X110.0Y-77.0
X110.0Y-84.0
X110.0Y-91.0
X110.0Y-98.0
X110.0Y-112.0
X110.0Y-119.0
X110.0Y-126.0
X110.0Y-133.0
X110.0Y-140.0
X110.0Y-147.0
X111.75Y-66.5
X111.75Y-80.5
X111.75Y-94.5
X111.75Y-101.5
X111.75Y-108.5
X111.75Y-122.5
X111.75Y-129.5
X111.75Y-136.5
X111.75Y-143.5
X113.5Y-63.0
X113.5Y-70.0
X113.5Y-84.0
X113.5Y-119.0
X113.5Y-126.0
X113.5Y-133.0
X113.5Y-147.0
X115.25Y-66.5
X115.25Y-73.5
X115.25Y-80.5
X115.25Y-87.5
X115.25Y-94.5
X115.25Y-101.5
X115.25Y-108.5
X115.25Y-115.5
X115.25Y-122.5
X115.25Y-129.5
X117.0Y-63.0
X117.0Y-77.0
X117.0Y-91.0
X117.0Y-98.0
X117.0Y-112.0
X117.0Y-119.0
X117.0Y-126.0
X117.0Y-133.0
X117.0Y-147.0
X118.75Y-73.5
X118.75Y-80.5
X118.75Y-94.5
X118.75Y-101.5
X118.75Y-115.5
X118.75Y-122.5
X118.75Y-136.5
X120.5Y-63.0
X120.5Y-70.0
X120.5Y-77.0
X120.5Y-84.0
X120.5Y-91.0
X120.5Y-98.0
X120.5Y-105.0
X120.5Y-119.0
X120.5Y-126.0
X120.5Y-147.0
X120.965Y-130.253
X122.25Y-73.5
X122.25Y-80.5
X122.25Y-94.5
X122.25Y-108.5
X122.25Y-136.5
X122.25Y-143.5
X124.0Y-63.0
X124.0Y-70.0
X124.0Y-84.0
X124.0Y-91.0
X124.0Y-98.0
X124.0Y-105.0
X124.0Y-140.0
X124.0Y-147.0
X124.089Y-128.0
X124.536Y-129.228
X125.75Y-73.5
X125.75Y-80.5
X125.75Y-87.5
X125.75Y-94.5
X125.75Y-115.5
X125.75Y-122.5
X125.75Y-136.5
X125.75Y-143.5
X127.325Y-125.945
X127.5Y-63.0
X127.5Y-70.0
X127.5Y-91.0
X127.5Y-98.0
X127.5Y-105.0
X127.5Y-119.0
X127.5Y-140.0
X127.5Y-147.0
X129.25Y-80.5
X129.25Y-94.5
X129.25Y-108.5
X129.25Y-136.5
X129.25Y-143.5
X131.0Y-63.0
X131.0Y-70.0
X131.0Y-84.0
X131.0Y-91.0
X131.0Y-98.0
X131.0Y-105.0
X131.0Y-112.0
X131.0Y-119.0
X131.0Y-133.0
X131.0Y-147.0
X132.75Y-73.5
X132.75Y-94.5
X132.75Y-108.5
X133.221Y-118.504
X133.579Y-105.175
X134.5Y-63.0
X134.5Y-70.0
X134.5Y-91.0
X134.5Y-98.0
X134.5Y-112.0
X134.5Y-126.0
X134.5Y-133.0
X134.5Y-147.0
X136.25Y-73.5
X136.25Y-87.5
X136.25Y-94.5
X136.25Y-108.5
X136.25Y-129.5
X138.0Y-63.0
X138.0Y-70.0
X138.0Y-91.0
X138.0Y-98.0
X138.0Y-112.0
X138.0Y-126.0
X138.0Y-140.0
X138.0Y-147.0
X139.375Y-103.492
X139.75Y-66.5
X139.75Y-73.5
X139.75Y-87.5
X139.75Y-108.5
X139.75Y-122.5
X139.75Y-129.5
X140.164Y-101.357
X140.366Y-117.5
X141.5Y-63.0
X141.5Y-70.0
X141.5Y-77.0
X141.5Y-91.0
X141.5Y-126.0
X141.5Y-133.0
X141.5Y-140.0
X141.5Y-147.0
X143.25Y-66.5
X143.25Y-73.5
X143.25Y-87.5
X143.25Y-94.5
X143.25Y-101.5
X143.25Y-129.5
X145.0Y-63.0
X145.0Y-70.0
X145.0Y-77.0
X145.0Y-84.0
X145.0Y-91.0
X145.0Y-98.0
X145.0Y-119.0
X145.0Y-140.0
X145.0Y-147.0
X145.273Y-99.125
X146.641Y-98.832
X146.75Y-66.5
X146.75Y-73.5
X146.75Y-80.5
X146.75Y-129.5
X146.75Y-136.5
X146.856Y-106.233
X147.527Y-115.872
X148.5Y-63.0
X148.5Y-70.0
X148.5Y-77.0
X148.5Y-84.0
X148.5Y-91.0
X148.5Y-119.0
X148.5Y-140.0
X148.5Y-147.0
X150.25Y-66.5
X150.25Y-73.5
X150.25Y-80.5
X150.25Y-94.5
X150.25Y-108.5
X151.0Y-102.7
X151.474Y-116.25
X152.0Y-63.0
X152.0Y-70.0
X152.0Y-77.0
X152.0Y-84.0
X152.0Y-133.0
X152.0Y-140.0
X152.0Y-147.0
X152.539Y-119.548
X153.255Y-105.757
X153.725Y-110.4
X153.75Y-66.5
X153.75Y-73.5
X153.75Y-80.5
X153.75Y-122.5
X153.75Y-136.5
X153.75Y-143.5
X154.743Y-102.131
X154.75Y-93.625
X154.75Y-108.375
X154.948Y-96.575
X155.452Y-94.084
X155.484Y-91.124
X155.5Y-63.0
X155.5Y-70.0
X155.5Y-77.0
X155.5Y-84.0
X155.5Y-119.0
X155.5Y-126.0
X155.5Y-133.0
X155.5Y-140.0
X155.5Y-147.0
X155.855Y-104.746
X156.071Y-100.25
X156.248Y-98.119
X156.321Y-94.078
X157.25Y-66.5
X157.25Y-73.5
X157.25Y-80.5
X157.25Y-143.5
X157.871Y-96.911
X158.85Y-88.062
X159.0Y-63.0
X159.0Y-70.0
X159.0Y-77.0
X159.0Y-84.0
X159.0Y-105.0
X159.0Y-126.0
X159.0Y-133.0
X159.0Y-140.0
X159.0Y-147.0
X159.35Y-92.5
X159.824Y-137.725
X159.996Y-139.869
X160.498Y-122.458
X160.731Y-96.868
X160.75Y-66.5
X160.75Y-73.5
X160.75Y-80.5
X160.75Y-101.5
X160.75Y-143.5
X161.25Y-108.375
X161.4Y-91.175
X162.105Y-115.395
X162.262Y-101.25
X162.332Y-97.692
X162.359Y-95.325
X162.5Y-63.0
X162.5Y-70.0
X162.5Y-77.0
X162.5Y-126.0
X162.5Y-133.0
X162.5Y-147.0
X163.828Y-118.836
X164.25Y-66.5
X164.25Y-73.5
X164.25Y-80.5
X164.25Y-87.5
X164.25Y-122.5
X164.25Y-129.5
X164.25Y-136.5
X164.25Y-143.5
X165.139Y-98.508
X165.375Y-97.75
X165.429Y-102.298
X166.0Y-63.0
X166.0Y-70.0
X166.0Y-77.0
X166.0Y-105.0
X166.0Y-112.0
X166.0Y-119.0
X166.0Y-126.0
X166.0Y-133.0
X166.0Y-140.0
X166.0Y-147.0
X166.9Y-94.725
X167.75Y-66.5
X167.75Y-73.5
X167.75Y-80.5
X167.75Y-87.5
X167.75Y-101.5
X167.75Y-108.5
X167.75Y-122.5
X167.75Y-129.5
X167.75Y-136.5
X167.75Y-143.5
X169.5Y-63.0
X169.5Y-70.0
X169.5Y-77.0
X169.5Y-84.0
X169.5Y-91.0
X169.5Y-98.0
X169.5Y-105.0
X169.5Y-126.0
X169.5Y-133.0
X169.5Y-140.0
X169.5Y-147.0
X171.25Y-108.5
X171.25Y-122.5
X171.25Y-129.5
X171.25Y-136.5
X171.25Y-143.5
X171.356Y-116.208
X173.0Y-112.0
X173.0Y-119.0
X173.0Y-126.0
X173.0Y-133.0
X173.0Y-140.0
X173.0Y-147.0
X174.75Y-108.5
X174.75Y-115.5
X174.75Y-122.5
X174.75Y-129.5
X174.75Y-143.5
X176.5Y-70.0
X176.5Y-77.0
X176.5Y-84.0
X176.5Y-91.0
X176.5Y-98.0
X176.5Y-105.0
X176.5Y-112.0
X176.5Y-119.0
X176.5Y-133.0
X176.5Y-147.0
X178.25Y-66.5
X178.25Y-73.5
X178.25Y-80.5
X178.25Y-87.5
X178.25Y-101.5
X178.25Y-108.5
X178.25Y-115.5
X178.259Y-138.046
X179.545Y-94.189
X180.0Y-70.0
X180.0Y-77.0
X180.0Y-84.0
X180.0Y-98.0
X180.0Y-105.0
X180.0Y-112.0
X180.0Y-119.0
X180.0Y-126.0
X180.0Y-147.0
X180.958Y-143.369
X181.75Y-66.5
X181.75Y-73.5
X181.75Y-101.5
X181.75Y-108.5
X181.75Y-115.5
X181.75Y-122.5
X181.75Y-129.5
X181.75Y-136.5
X181.869Y-92.7
X182.144Y-91.972
X183.142Y-90.607
X183.5Y-70.0
X183.5Y-84.0
X183.5Y-105.0
X183.5Y-112.0
X183.5Y-119.0
X183.5Y-126.0
X183.5Y-133.0
X183.5Y-140.0
X183.675Y-96.6
X184.249Y-142.687
X185.25Y-66.5
X185.25Y-73.5
X185.25Y-80.5
X185.25Y-87.5
X185.25Y-101.5
X185.25Y-108.5
X185.25Y-115.5
X185.25Y-122.5
X185.25Y-129.5
X185.25Y-136.5
X185.25Y-143.5
X187.0Y-70.0
X187.0Y-84.0
X187.0Y-105.0
X187.0Y-112.0
X187.0Y-119.0
X187.0Y-126.0
X187.0Y-133.0
X187.0Y-140.0
X187.0Y-147.0
X188.675Y-71.709
X188.75Y-66.5
X188.75Y-94.5
X188.75Y-101.5
X188.75Y-108.5
X188.75Y-115.5
X188.75Y-122.5
X188.75Y-129.5
X188.75Y-136.5
X188.75Y-143.5
X189.137Y-68.283
X190.5Y-70.0
X190.5Y-77.0
X190.5Y-91.0
X190.5Y-98.0
X190.5Y-105.0
X190.5Y-112.0
X190.5Y-119.0
X190.5Y-126.0
X190.5Y-133.0
X190.5Y-140.0
X190.5Y-147.0
X191.802Y-84.4
X191.839Y-79.6
X192.141Y-85.65
X192.25Y-66.5
X192.25Y-73.5
X192.25Y-87.5
X192.25Y-94.5
X192.25Y-101.5
X192.25Y-108.5
X192.25Y-115.5
X192.25Y-122.5
X192.25Y-129.5
X192.25Y-136.5
X192.25Y-143.5
X194.0Y-70.0
X194.0Y-91.0
X194.0Y-98.0
X194.0Y-105.0
X194.0Y-112.0
X194.0Y-119.0
X194.0Y-126.0
X194.0Y-133.0
X194.0Y-140.0
X194.0Y-147.0
X195.75Y-66.5
X195.75Y-87.5
X195.75Y-94.5
X195.75Y-101.5
X195.75Y-108.5
X195.75Y-115.5
X195.75Y-122.5
X195.75Y-129.5
X195.75Y-136.5
X195.75Y-143.5
X197.5Y-112.0
X197.5Y-119.0
X197.5Y-126.0
X197.5Y-133.0
X197.5Y-140.0
T3
X182.0Y-146.0
X184.0Y-146.0
X186.0Y-146.0
X188.0Y-146.0
T4
X122.0Y-88.0
X122.0Y-90.54
X122.5Y-77.38
X122.5Y-85.0
X129.62Y-88.0
X129.62Y-90.54
X142.0Y-136.0
X142.0Y-138.54
X144.0Y-125.38
X144.0Y-133.0
X149.62Y-136.0
X149.62Y-138.54
T5
X150.0Y-130.0
X150.0Y-132.54
T6
X114.0Y-143.0
X116.54Y-143.0
X119.08Y-143.0
X131.0Y-143.0
X133.54Y-143.0
X136.08Y-143.0
X138.62Y-143.0
T7
X112.5Y-72.0
X112.5Y-77.0
X112.5Y-87.0
X112.5Y-92.0
X112.5Y-99.0
X112.5Y-104.0
X112.5Y-111.0
X112.5Y-116.0
T2
X192.945Y-77.68G85X194.045Y-77.68
G05
X192.945Y-86.32G85X194.045Y-86.32
G05
X197.275Y-77.68G85X198.075Y-77.68
G05
X197.275Y-86.32G85X198.075Y-86.32
G05
M30
