M48
; DRILL file KiCad 10.0.6 date 2026-10-01T08:16:07
; FORMAT={-:-/ absolute / metric / decimal}
; #@! TF.CreationDate,2026-10-01T08:16:07+00:00
; #@! TF.GenerationSoftware,Kicad,Pcbnew,10.0.6
; #@! TF.FileFunction,Plated,1,4,PTH
FMAT,2
METRIC
; #@! TA.AperFunction,Plated,PTH,ViaDrill
T1C0.300
; #@! TA.AperFunction,Plated,PTH,ComponentDrill
T2C0.600
; #@! TA.AperFunction,Plated,PTH,ComponentDrill
T3C0.750
; #@! TA.AperFunction,Plated,PTH,ComponentDrill
T4C0.800
; #@! TA.AperFunction,Plated,PTH,ComponentDrill
T5C1.000
; #@! TA.AperFunction,Plated,PTH,ComponentDrill
T6C1.190
; #@! TA.AperFunction,Plated,PTH,ComponentDrill
T7C1.400
%
G90
G05
T1
X101.6Y-61.6
X103.0Y-70.0
X103.0Y-77.0
X103.0Y-84.0
X103.0Y-91.0
X103.0Y-98.0
X103.0Y-105.0
X103.0Y-112.0
X103.0Y-119.0
X103.0Y-126.0
X103.0Y-133.0
X103.0Y-140.0
X104.75Y-66.5
X104.75Y-73.5
X104.75Y-80.5
X104.75Y-87.5
X104.75Y-94.5
X104.75Y-101.5
X104.75Y-108.5
X104.75Y-115.5
X104.75Y-122.5
X104.75Y-129.5
X104.75Y-136.5
X104.75Y-143.5
X106.5Y-63.0
X106.5Y-70.0
X106.5Y-77.0
X106.5Y-84.0
X106.5Y-91.0
X106.5Y-98.0
X106.5Y-105.0
X106.5Y-112.0
X106.5Y-119.0
X106.5Y-126.0
X106.5Y-133.0
X106.5Y-140.0
X106.5Y-147.0
X108.25Y-66.5
X108.25Y-73.5
X108.25Y-80.5
X108.25Y-87.5
X108.25Y-94.5
X108.25Y-101.5
X108.25Y-108.5
X108.25Y-115.5
X108.25Y-122.5
X108.25Y-129.5
X108.25Y-136.5
X108.25Y-143.5
X110.0Y-70.0
X110.0Y-77.0
X110.0Y-84.0
X110.0Y-91.0
X110.0Y-98.0
X110.0Y-105.0
X110.0Y-112.0
X110.0Y-119.0
X110.0Y-126.0
X110.0Y-133.0
X110.0Y-140.0
X110.0Y-147.0
X111.75Y-66.5
X111.75Y-80.5
X111.75Y-94.5
X111.75Y-101.5
X111.75Y-108.5
X111.75Y-122.5
X111.75Y-129.5
X111.75Y-136.5
X111.75Y-143.5
X113.5Y-63.0
X113.5Y-70.0
X113.5Y-84.0
X113.5Y-119.0
X113.5Y-126.0
X113.5Y-133.0
X113.5Y-147.0
X115.25Y-66.5
X115.25Y-73.5
X115.25Y-80.5
X115.25Y-94.5
X115.25Y-115.5
X115.25Y-122.5
X115.25Y-129.5
X117.0Y-63.0
X117.0Y-77.0
X117.0Y-84.0
X117.0Y-91.0
X117.0Y-98.0
X117.0Y-105.0
X117.0Y-119.0
X117.0Y-126.0
X117.0Y-133.0
X117.0Y-147.0
X118.75Y-73.5
X118.75Y-80.5
X118.75Y-94.5
X118.75Y-108.5
X118.75Y-122.5
X118.75Y-136.5
X120.5Y-63.0
X120.5Y-70.0
X120.5Y-77.0
X120.5Y-84.0
X120.5Y-91.0
X120.5Y-98.0
X120.5Y-105.0
X120.5Y-119.0
X120.5Y-147.0
X122.25Y-73.5
X122.25Y-94.5
X122.25Y-101.5
X122.25Y-108.5
X122.25Y-136.5
X122.25Y-143.5
X123.095Y-121.317
X123.434Y-128.5
X123.446Y-131.45
X124.0Y-63.0
X124.0Y-70.0
X124.0Y-77.0
X124.0Y-84.0
X124.0Y-91.0
X124.0Y-98.0
X124.0Y-105.0
X124.0Y-119.0
X124.0Y-140.0
X124.0Y-147.0
X124.95Y-119.297
X125.414Y-132.013
X125.536Y-130.051
X125.75Y-73.5
X125.75Y-80.5
X125.75Y-87.5
X125.75Y-94.5
X125.75Y-101.5
X125.75Y-115.5
X125.75Y-136.5
X125.75Y-143.5
X126.153Y-125.951
X126.906Y-129.997
X127.5Y-63.0
X127.5Y-70.0
X127.5Y-91.0
X127.5Y-98.0
X127.5Y-105.0
X127.5Y-112.0
X127.5Y-140.0
X127.5Y-147.0
X129.25Y-73.5
X129.25Y-94.5
X129.25Y-101.5
X129.25Y-108.5
X129.25Y-115.5
X129.25Y-122.5
X129.25Y-136.5
X129.25Y-143.5
X131.0Y-63.0
X131.0Y-70.0
X131.0Y-84.0
X131.0Y-91.0
X131.0Y-98.0
X131.0Y-105.0
X131.0Y-112.0
X131.0Y-133.0
X131.0Y-147.0
X132.75Y-73.5
X132.75Y-94.5
X132.75Y-101.5
X132.75Y-108.5
X134.258Y-120.971
X134.5Y-63.0
X134.5Y-70.0
X134.5Y-91.0
X134.5Y-98.0
X134.5Y-105.0
X134.5Y-112.0
X134.5Y-126.0
X134.5Y-133.0
X134.5Y-147.0
X135.877Y-117.5
X136.25Y-73.5
X136.25Y-87.5
X136.25Y-94.5
X136.25Y-101.5
X136.25Y-108.5
X136.25Y-122.5
X138.0Y-63.0
X138.0Y-91.0
X138.0Y-98.0
X138.0Y-105.0
X138.0Y-112.0
X138.0Y-119.0
X138.0Y-126.0
X138.0Y-140.0
X138.0Y-147.0
X139.375Y-103.492
X139.75Y-66.5
X139.75Y-73.5
X139.75Y-87.5
X139.75Y-101.5
X139.75Y-115.5
X139.75Y-122.5
X140.31Y-107.898
X141.5Y-63.0
X141.5Y-70.0
X141.5Y-77.0
X141.5Y-84.0
X141.5Y-91.0
X141.5Y-105.0
X141.5Y-119.0
X141.5Y-126.0
X141.5Y-133.0
X141.5Y-140.0
X141.5Y-147.0
X143.25Y-66.5
X143.25Y-73.5
X143.25Y-87.5
X143.25Y-94.5
X143.25Y-101.5
X143.25Y-122.5
X144.444Y-99.998
X145.0Y-63.0
X145.0Y-70.0
X145.0Y-77.0
X145.0Y-84.0
X145.0Y-91.0
X145.0Y-119.0
X145.0Y-140.0
X145.0Y-147.0
X145.219Y-98.278
X146.7Y-105.3
X146.713Y-99.857
X146.75Y-66.5
X146.75Y-73.5
X146.75Y-87.5
X146.75Y-94.5
X146.75Y-115.5
X146.75Y-136.5
X148.5Y-63.0
X148.5Y-70.0
X148.5Y-77.0
X148.5Y-84.0
X148.5Y-91.0
X148.5Y-112.0
X148.5Y-119.0
X148.5Y-140.0
X148.5Y-147.0
X149.131Y-97.992
X149.876Y-97.275
X150.25Y-66.5
X150.25Y-73.5
X150.25Y-80.5
X150.25Y-87.5
X150.25Y-108.5
X151.0Y-102.5
X152.0Y-63.0
X152.0Y-70.0
X152.0Y-77.0
X152.0Y-91.0
X152.0Y-119.0
X152.0Y-126.0
X152.0Y-140.0
X152.0Y-147.0
X153.127Y-117.974
X153.415Y-106.64
X153.58Y-100.08
X153.704Y-102.904
X153.75Y-66.5
X153.75Y-73.5
X153.75Y-80.5
X153.75Y-87.5
X153.75Y-101.5
X153.75Y-122.5
X153.75Y-136.5
X153.75Y-143.5
X153.781Y-96.559
X154.75Y-93.625
X154.75Y-108.375
X155.114Y-111.816
X155.5Y-63.0
X155.5Y-70.0
X155.5Y-77.0
X155.5Y-84.0
X155.5Y-98.0
X155.5Y-119.0
X155.5Y-133.0
X155.5Y-140.0
X155.5Y-147.0
X155.672Y-116.25
X155.709Y-103.951
X155.75Y-94.074
X156.252Y-96.553
X157.25Y-66.5
X157.25Y-73.5
X157.25Y-80.5
X157.25Y-115.5
X157.25Y-122.5
X157.25Y-136.5
X157.25Y-143.5
X157.717Y-88.932
X158.372Y-108.112
X158.641Y-90.238
X158.75Y-96.562
X159.0Y-63.0
X159.0Y-70.0
X159.0Y-77.0
X159.0Y-84.0
X159.0Y-140.0
X159.0Y-147.0
X159.35Y-92.5
X159.987Y-108.237
X160.75Y-66.5
X160.75Y-73.5
X160.75Y-80.5
X160.75Y-143.5
X161.145Y-120.0
X161.194Y-136.321
X161.25Y-108.375
X161.969Y-98.25
X161.969Y-118.44
X162.369Y-95.834
X162.5Y-63.0
X162.5Y-70.0
X162.5Y-77.0
X162.5Y-126.0
X162.5Y-133.0
X162.5Y-147.0
X163.117Y-110.044
X164.25Y-66.5
X164.25Y-73.5
X164.25Y-80.5
X164.25Y-87.5
X164.25Y-94.5
X164.25Y-115.5
X164.25Y-122.5
X164.25Y-136.5
X164.25Y-143.5
X165.375Y-97.75
X165.38Y-102.635
X166.0Y-63.0
X166.0Y-70.0
X166.0Y-77.0
X166.0Y-91.0
X166.0Y-105.0
X166.0Y-112.0
X166.0Y-119.0
X166.0Y-126.0
X166.0Y-133.0
X166.0Y-140.0
X166.0Y-147.0
X167.75Y-66.5
X167.75Y-73.5
X167.75Y-80.5
X167.75Y-87.5
X167.75Y-101.5
X167.75Y-108.5
X167.75Y-115.5
X167.75Y-122.5
X167.75Y-136.5
X167.75Y-143.5
X169.157Y-105.0
X169.5Y-63.0
X169.5Y-70.0
X169.5Y-77.0
X169.5Y-84.0
X169.5Y-91.0
X169.5Y-98.0
X169.5Y-126.0
X169.5Y-133.0
X169.5Y-140.0
X169.5Y-147.0
X171.25Y-108.5
X171.25Y-122.5
X171.25Y-136.5
X171.25Y-143.5
X173.0Y-112.0
X173.0Y-126.0
X173.0Y-133.0
X173.0Y-140.0
X173.0Y-147.0
X174.75Y-108.5
X174.75Y-115.5
X174.75Y-122.5
X174.75Y-129.5
X174.75Y-143.5
X176.364Y-88.861
X176.5Y-70.0
X176.5Y-77.0
X176.5Y-84.0
X176.5Y-98.0
X176.5Y-105.0
X176.5Y-112.0
X176.5Y-119.0
X176.5Y-133.0
X176.5Y-147.0
X178.25Y-66.5
X178.25Y-73.5
X178.25Y-80.5
X178.25Y-94.5
X178.25Y-101.5
X178.25Y-108.5
X178.25Y-115.5
X178.25Y-122.5
X178.25Y-129.5
X178.25Y-143.5
X178.287Y-136.0
X180.0Y-70.0
X180.0Y-77.0
X180.0Y-84.0
X180.0Y-98.0
X180.0Y-105.0
X180.0Y-112.0
X180.0Y-119.0
X180.0Y-140.0
X180.0Y-147.0
X181.75Y-66.5
X181.75Y-73.5
X181.75Y-80.5
X181.75Y-101.5
X181.75Y-108.5
X181.75Y-115.5
X181.75Y-122.5
X181.75Y-129.5
X181.75Y-136.5
X181.992Y-90.723
X182.75Y-90.7
X183.5Y-70.0
X183.5Y-84.0
X183.5Y-98.0
X183.5Y-105.0
X183.5Y-112.0
X183.5Y-119.0
X183.5Y-126.0
X183.5Y-133.0
X183.5Y-140.0
X185.25Y-66.5
X185.25Y-73.5
X185.25Y-80.5
X185.25Y-87.5
X185.25Y-101.5
X185.25Y-108.5
X185.25Y-115.5
X185.25Y-122.5
X185.25Y-129.5
X185.25Y-136.5
X187.0Y-70.0
X187.0Y-84.0
X187.0Y-98.0
X187.0Y-105.0
X187.0Y-112.0
X187.0Y-119.0
X187.0Y-126.0
X187.0Y-133.0
X187.0Y-140.0
X187.0Y-147.0
X188.75Y-66.5
X188.75Y-87.5
X188.75Y-94.5
X188.75Y-101.5
X188.75Y-108.5
X188.75Y-115.5
X188.75Y-122.5
X188.75Y-129.5
X188.75Y-136.5
X188.75Y-143.5
X189.058Y-71.71
X190.269Y-69.406
X190.5Y-77.0
X190.5Y-91.0
X190.5Y-98.0
X190.5Y-105.0
X190.5Y-112.0
X190.5Y-119.0
X190.5Y-126.0
X190.5Y-133.0
X190.5Y-140.0
X190.5Y-147.0
X191.564Y-84.4
X191.822Y-79.6
X192.141Y-85.65
X192.25Y-66.5
X192.25Y-73.5
X192.25Y-87.5
X192.25Y-94.5
X192.25Y-101.5
X192.25Y-108.5
X192.25Y-115.5
X192.25Y-122.5
X192.25Y-129.5
X192.25Y-136.5
X192.25Y-143.5
X194.0Y-70.0
X194.0Y-91.0
X194.0Y-98.0
X194.0Y-105.0
X194.0Y-112.0
X194.0Y-119.0
X194.0Y-126.0
X194.0Y-133.0
X194.0Y-140.0
X194.0Y-147.0
X195.75Y-66.5
X195.75Y-87.5
X195.75Y-94.5
X195.75Y-101.5
X195.75Y-108.5
X195.75Y-115.5
X195.75Y-122.5
X195.75Y-129.5
X195.75Y-136.5
X195.75Y-143.5
X197.5Y-112.0
X197.5Y-119.0
X197.5Y-126.0
X197.5Y-133.0
X197.5Y-140.0
T3
X182.0Y-146.0
X184.0Y-146.0
X186.0Y-146.0
X188.0Y-146.0
T4
X122.0Y-88.0
X122.0Y-90.54
X122.5Y-77.38
X122.5Y-85.0
X129.62Y-88.0
X129.62Y-90.54
X142.0Y-136.0
X142.0Y-138.54
X144.0Y-125.38
X144.0Y-133.0
X149.62Y-136.0
X149.62Y-138.54
T5
X150.0Y-130.0
X150.0Y-132.54
T6
X114.0Y-143.0
X116.54Y-143.0
X119.08Y-143.0
X131.0Y-143.0
X133.54Y-143.0
X136.08Y-143.0
X138.62Y-143.0
T7
X112.5Y-72.0
X112.5Y-77.0
X112.5Y-87.0
X112.5Y-92.0
X112.5Y-99.0
X112.5Y-104.0
X112.5Y-111.0
X112.5Y-116.0
T2
X192.945Y-77.68G85X194.045Y-77.68
G05
X192.945Y-86.32G85X194.045Y-86.32
G05
X197.275Y-77.68G85X198.075Y-77.68
G05
X197.275Y-86.32G85X198.075Y-86.32
G05
M30
