M48
; DRILL file KiCad 10.0.6 date 2026-10-01T09:09:59
; FORMAT={-:-/ absolute / metric / decimal}
; #@! TF.CreationDate,2026-10-01T09:09:59+00:00
; #@! TF.GenerationSoftware,Kicad,Pcbnew,10.0.6
; #@! TF.FileFunction,Plated,1,4,PTH
FMAT,2
METRIC
; #@! TA.AperFunction,Plated,PTH,ViaDrill
T1C0.300
; #@! TA.AperFunction,Plated,PTH,ComponentDrill
T2C0.600
; #@! TA.AperFunction,Plated,PTH,ComponentDrill
T3C0.750
; #@! TA.AperFunction,Plated,PTH,ComponentDrill
T4C0.800
; #@! TA.AperFunction,Plated,PTH,ComponentDrill
T5C1.000
; #@! TA.AperFunction,Plated,PTH,ComponentDrill
T6C1.190
; #@! TA.AperFunction,Plated,PTH,ComponentDrill
T7C1.300
%
G90
G05
T1
X103.0Y-70.0
X103.0Y-77.0
X103.0Y-84.0
X103.0Y-91.0
X103.0Y-98.0
X103.0Y-105.0
X103.0Y-112.0
X103.0Y-119.0
X103.0Y-126.0
X103.0Y-133.0
X103.0Y-140.0
X104.75Y-66.5
X104.75Y-73.5
X104.75Y-80.5
X104.75Y-87.5
X104.75Y-94.5
X104.75Y-101.5
X104.75Y-115.5
X104.75Y-122.5
X104.75Y-129.5
X104.75Y-136.5
X104.75Y-143.5
X106.5Y-63.0
X106.5Y-70.0
X106.5Y-77.0
X106.5Y-84.0
X106.5Y-91.0
X106.5Y-98.0
X106.5Y-105.0
X106.5Y-119.0
X106.5Y-126.0
X106.5Y-133.0
X106.5Y-140.0
X106.5Y-147.0
X108.25Y-66.5
X108.25Y-73.5
X108.25Y-80.5
X108.25Y-87.5
X108.25Y-94.5
X108.25Y-101.5
X108.25Y-108.5
X108.25Y-122.5
X108.25Y-129.5
X108.25Y-136.5
X108.25Y-143.5
X110.0Y-70.0
X110.0Y-77.0
X110.0Y-84.0
X110.0Y-91.0
X110.0Y-98.0
X110.0Y-105.0
X110.0Y-112.0
X110.0Y-119.0
X110.0Y-126.0
X110.0Y-133.0
X110.0Y-140.0
X110.0Y-147.0
X111.75Y-66.5
X111.75Y-80.5
X111.75Y-94.5
X111.75Y-101.5
X111.75Y-108.5
X111.75Y-122.5
X111.75Y-129.5
X111.75Y-136.5
X111.75Y-143.5
X113.5Y-63.0
X113.5Y-70.0
X113.5Y-84.0
X113.5Y-119.0
X113.5Y-126.0
X113.5Y-133.0
X113.5Y-147.0
X115.25Y-66.5
X115.25Y-73.5
X115.25Y-80.5
X115.25Y-87.5
X115.25Y-94.5
X115.25Y-101.5
X115.25Y-108.5
X115.25Y-122.5
X115.25Y-129.5
X117.0Y-63.0
X117.0Y-77.0
X117.0Y-91.0
X117.0Y-98.0
X117.0Y-112.0
X117.0Y-119.0
X117.0Y-126.0
X117.0Y-133.0
X117.0Y-147.0
X118.75Y-73.5
X118.75Y-80.5
X118.75Y-94.5
X118.75Y-101.5
X118.75Y-115.5
X118.75Y-122.5
X118.75Y-136.5
X120.5Y-63.0
X120.5Y-70.0
X120.5Y-77.0
X120.5Y-84.0
X120.5Y-91.0
X120.5Y-98.0
X120.5Y-105.0
X120.5Y-119.0
X120.5Y-126.0
X120.5Y-147.0
X122.25Y-73.5
X122.25Y-80.5
X122.25Y-94.5
X122.25Y-108.5
X122.25Y-115.5
X122.25Y-136.5
X122.25Y-143.5
X123.234Y-128.5
X123.246Y-129.292
X123.306Y-127.511
X124.0Y-63.0
X124.0Y-70.0
X124.0Y-84.0
X124.0Y-91.0
X124.0Y-98.0
X124.0Y-105.0
X124.0Y-140.0
X124.0Y-147.0
X124.213Y-128.642
X125.75Y-73.5
X125.75Y-80.5
X125.75Y-87.5
X125.75Y-94.5
X125.75Y-115.5
X125.75Y-122.5
X125.75Y-136.5
X125.75Y-143.5
X127.5Y-63.0
X127.5Y-70.0
X127.5Y-91.0
X127.5Y-98.0
X127.5Y-105.0
X127.5Y-119.0
X127.5Y-140.0
X127.5Y-147.0
X128.285Y-124.585
X128.668Y-78.713
X129.25Y-73.5
X129.25Y-80.5
X129.25Y-94.5
X129.25Y-108.5
X129.25Y-115.5
X129.25Y-136.5
X129.25Y-143.5
X129.283Y-77.845
X130.4Y-124.225
X131.0Y-63.0
X131.0Y-70.0
X131.0Y-84.0
X131.0Y-91.0
X131.0Y-98.0
X131.0Y-105.0
X131.0Y-112.0
X131.0Y-119.0
X131.0Y-133.0
X131.0Y-147.0
X131.787Y-76.218
X132.75Y-73.5
X132.75Y-94.5
X132.75Y-108.5
X132.75Y-115.5
X132.75Y-129.5
X133.041Y-105.713
X134.258Y-117.346
X134.5Y-63.0
X134.5Y-70.0
X134.5Y-91.0
X134.5Y-98.0
X134.5Y-105.0
X134.5Y-112.0
X134.5Y-119.0
X134.5Y-126.0
X134.5Y-133.0
X134.5Y-147.0
X135.781Y-121.25
X136.25Y-87.5
X136.25Y-94.5
X136.25Y-108.5
X136.25Y-122.5
X136.25Y-129.5
X138.0Y-63.0
X138.0Y-70.0
X138.0Y-91.0
X138.0Y-98.0
X138.0Y-112.0
X138.0Y-119.0
X138.0Y-126.0
X138.0Y-140.0
X138.0Y-147.0
X139.75Y-66.5
X139.75Y-73.5
X139.75Y-87.5
X139.75Y-108.5
X139.75Y-115.5
X139.75Y-122.5
X139.75Y-129.5
X141.5Y-63.0
X141.5Y-70.0
X141.5Y-77.0
X141.5Y-84.0
X141.5Y-91.0
X141.5Y-119.0
X141.5Y-126.0
X141.5Y-133.0
X141.5Y-140.0
X141.5Y-147.0
X141.746Y-103.984
X142.467Y-101.495
X142.633Y-104.522
X143.25Y-66.5
X143.25Y-73.5
X143.25Y-87.5
X143.25Y-94.5
X143.25Y-115.5
X143.25Y-129.5
X145.0Y-63.0
X145.0Y-70.0
X145.0Y-77.0
X145.0Y-84.0
X145.0Y-91.0
X145.0Y-98.0
X145.0Y-119.0
X145.0Y-140.0
X145.0Y-147.0
X145.872Y-131.021
X146.75Y-66.5
X146.75Y-73.5
X146.75Y-87.5
X146.75Y-94.5
X146.75Y-101.5
X146.75Y-129.5
X146.75Y-136.5
X147.265Y-105.614
X148.5Y-63.0
X148.5Y-70.0
X148.5Y-77.0
X148.5Y-84.0
X148.5Y-91.0
X148.5Y-112.0
X148.5Y-119.0
X148.5Y-140.0
X148.5Y-147.0
X148.956Y-98.544
X150.25Y-66.5
X150.25Y-73.5
X150.25Y-80.5
X150.25Y-87.5
X150.25Y-108.5
X150.764Y-111.497
X150.939Y-106.204
X151.0Y-102.5
X151.474Y-116.25
X152.0Y-63.0
X152.0Y-70.0
X152.0Y-77.0
X152.0Y-91.0
X152.0Y-140.0
X152.0Y-147.0
X152.731Y-112.057
X153.631Y-105.009
X153.75Y-66.5
X153.75Y-73.5
X153.75Y-80.5
X153.75Y-87.5
X153.75Y-122.5
X153.75Y-136.5
X153.75Y-143.5
X154.218Y-100.25
X154.577Y-96.557
X154.593Y-97.323
X154.698Y-119.237
X154.75Y-93.625
X154.75Y-108.375
X154.779Y-113.725
X155.5Y-63.0
X155.5Y-70.0
X155.5Y-77.0
X155.5Y-84.0
X155.5Y-126.0
X155.5Y-133.0
X155.5Y-140.0
X155.5Y-147.0
X156.571Y-94.096
X156.991Y-109.281
X157.25Y-66.5
X157.25Y-73.5
X157.25Y-80.5
X157.25Y-87.5
X157.25Y-101.5
X157.25Y-115.5
X157.25Y-122.5
X157.25Y-129.5
X157.25Y-136.5
X157.25Y-143.5
X158.175Y-115.37
X158.197Y-101.25
X158.404Y-89.885
X158.75Y-96.569
X159.0Y-63.0
X159.0Y-70.0
X159.0Y-77.0
X159.0Y-84.0
X159.0Y-140.0
X159.0Y-147.0
X159.35Y-92.5
X159.824Y-137.725
X160.0Y-139.681
X160.315Y-107.986
X160.75Y-66.5
X160.75Y-73.5
X160.75Y-80.5
X160.75Y-87.5
X160.75Y-143.5
X161.25Y-108.375
X161.4Y-91.175
X161.457Y-111.942
X162.165Y-118.672
X162.239Y-93.48
X162.353Y-95.281
X162.5Y-63.0
X162.5Y-70.0
X162.5Y-77.0
X162.5Y-84.0
X162.5Y-126.0
X162.5Y-133.0
X162.5Y-147.0
X163.993Y-120.346
X164.25Y-66.5
X164.25Y-73.5
X164.25Y-80.5
X164.25Y-94.5
X164.25Y-122.5
X164.25Y-129.5
X164.25Y-143.5
X165.139Y-98.508
X165.375Y-97.75
X165.43Y-102.3
X166.0Y-63.0
X166.0Y-70.0
X166.0Y-77.0
X166.0Y-84.0
X166.0Y-91.0
X166.0Y-112.0
X166.0Y-119.0
X166.0Y-126.0
X166.0Y-133.0
X166.0Y-140.0
X166.0Y-147.0
X167.75Y-66.5
X167.75Y-73.5
X167.75Y-80.5
X167.75Y-87.5
X167.75Y-101.5
X167.75Y-108.5
X167.75Y-115.5
X167.75Y-122.5
X167.75Y-129.5
X167.75Y-143.5
X169.5Y-63.0
X169.5Y-70.0
X169.5Y-77.0
X169.5Y-84.0
X169.5Y-91.0
X169.5Y-98.0
X169.5Y-126.0
X169.5Y-133.0
X169.5Y-140.0
X169.5Y-147.0
X171.25Y-108.5
X171.25Y-122.5
X171.25Y-129.5
X171.25Y-143.5
X173.0Y-112.0
X173.0Y-126.0
X173.0Y-133.0
X173.0Y-140.0
X173.0Y-147.0
X174.75Y-108.5
X174.75Y-115.5
X174.75Y-122.5
X174.75Y-129.5
X174.75Y-143.5
X176.5Y-70.0
X176.5Y-77.0
X176.5Y-84.0
X176.5Y-98.0
X176.5Y-105.0
X176.5Y-112.0
X176.5Y-119.0
X176.5Y-133.0
X176.5Y-147.0
X177.752Y-87.951
X178.192Y-136.484
X178.25Y-66.5
X178.25Y-73.5
X178.25Y-80.5
X178.25Y-94.5
X178.25Y-101.5
X178.25Y-108.5
X178.25Y-115.5
X178.25Y-122.5
X178.25Y-143.5
X180.0Y-70.0
X180.0Y-77.0
X180.0Y-84.0
X180.0Y-98.0
X180.0Y-105.0
X180.0Y-112.0
X180.0Y-119.0
X180.0Y-147.0
X181.75Y-66.5
X181.75Y-73.5
X181.75Y-80.5
X181.75Y-101.5
X181.75Y-108.5
X181.75Y-115.5
X181.75Y-122.5
X181.75Y-129.5
X181.75Y-136.5
X182.19Y-90.797
X182.748Y-89.447
X183.5Y-70.0
X183.5Y-77.0
X183.5Y-84.0
X183.5Y-98.0
X183.5Y-105.0
X183.5Y-112.0
X183.5Y-119.0
X183.5Y-126.0
X183.5Y-133.0
X183.5Y-140.0
X185.25Y-66.5
X185.25Y-73.5
X185.25Y-80.5
X185.25Y-101.5
X185.25Y-108.5
X185.25Y-115.5
X185.25Y-122.5
X185.25Y-129.5
X185.25Y-136.5
X187.0Y-84.0
X187.0Y-98.0
X187.0Y-105.0
X187.0Y-112.0
X187.0Y-119.0
X187.0Y-126.0
X187.0Y-133.0
X187.0Y-140.0
X187.0Y-147.0
X188.49Y-85.46
X188.75Y-66.5
X188.75Y-94.5
X188.75Y-101.5
X188.75Y-108.5
X188.75Y-115.5
X188.75Y-122.5
X188.75Y-129.5
X188.75Y-136.5
X188.75Y-143.5
X189.137Y-68.283
X189.183Y-71.713
X189.796Y-78.446
X190.5Y-70.0
X190.5Y-77.0
X190.5Y-91.0
X190.5Y-98.0
X190.5Y-105.0
X190.5Y-112.0
X190.5Y-119.0
X190.5Y-126.0
X190.5Y-133.0
X190.5Y-140.0
X190.5Y-147.0
X192.141Y-85.65
X192.25Y-66.5
X192.25Y-73.5
X192.25Y-94.5
X192.25Y-101.5
X192.25Y-108.5
X192.25Y-115.5
X192.25Y-122.5
X192.25Y-129.5
X192.25Y-136.5
X192.25Y-143.5
X194.0Y-70.0
X194.0Y-91.0
X194.0Y-98.0
X194.0Y-105.0
X194.0Y-112.0
X194.0Y-119.0
X194.0Y-126.0
X194.0Y-133.0
X194.0Y-140.0
X194.0Y-147.0
X195.75Y-66.5
X195.75Y-87.5
X195.75Y-94.5
X195.75Y-101.5
X195.75Y-108.5
X195.75Y-115.5
X195.75Y-122.5
X195.75Y-129.5
X195.75Y-136.5
X195.75Y-143.5
X197.5Y-112.0
X197.5Y-119.0
X197.5Y-126.0
X197.5Y-133.0
X197.5Y-140.0
T3
X182.0Y-146.0
X184.0Y-146.0
X186.0Y-146.0
X188.0Y-146.0
T4
X122.0Y-88.0
X122.0Y-90.54
X122.5Y-77.38
X122.5Y-85.0
X129.62Y-88.0
X129.62Y-90.54
X142.0Y-136.0
X142.0Y-138.54
X144.0Y-125.38
X144.0Y-133.0
X149.62Y-136.0
X149.62Y-138.54
T5
X150.0Y-130.0
X150.0Y-132.54
T6
X114.0Y-143.0
X116.54Y-143.0
X119.08Y-143.0
X131.0Y-143.0
X133.54Y-143.0
X136.08Y-143.0
X138.62Y-143.0
T7
X112.5Y-72.0
X112.5Y-77.0
X112.5Y-87.0
X112.5Y-92.0
X112.5Y-99.0
X112.5Y-104.0
X112.5Y-111.0
X112.5Y-116.0
T2
X192.945Y-77.68G85X194.045Y-77.68
G05
X192.945Y-86.32G85X194.045Y-86.32
G05
X197.275Y-77.68G85X198.075Y-77.68
G05
X197.275Y-86.32G85X198.075Y-86.32
G05
M30
