; XNC file generated by gerbonara
M48
METRIC
T01C0000.80000
T02C0001.00000
T03C0001.02000
T04C0001.10000
T05C0001.30000
T06C0001.60000
%
T02
G05
X0039.83000Y0015.04000
X0039.83000Y0012.50000
X0037.29000Y0015.04000
X0037.29000Y0012.50000
X0034.75000Y0015.04000
X0034.75000Y0012.50000
X0032.21000Y0015.04000
X0032.21000Y0012.50000
X0064.09000Y0031.04000
X0066.63000Y0031.04000
X0069.17000Y0031.04000
X0071.71000Y0031.04000
T04
X0051.39000Y0023.00000
X0053.09000Y0023.00000
X0054.79000Y0023.00000
X0056.49000Y0023.00000
X0058.19000Y0023.00000
T01
X0020.17000Y0019.50000
X0010.01000Y0019.50000
T05
X0025.09000Y0064.00000
X0030.09000Y0064.00000
T03
X0032.21000Y0024.50000
X0034.75000Y0024.50000
X0037.29000Y0024.50000
X0039.83000Y0024.50000
T05
X0061.84000Y0063.03250
X0066.84000Y0063.03250
T01
X0061.59000Y0017.00000
X0066.59000Y0017.00000
T05
X0011.00000Y0064.00000
X0016.00000Y0064.00000
T06
X0011.59000Y0036.26000
X0011.59000Y0051.50000
X0049.09000Y0066.62000
X0049.09000Y0051.38000
T01
X0015.01000Y0012.00000
X0025.17000Y0012.00000
X0067.59000Y0042.50000
X0065.59000Y0042.50000
T04
X0011.01000Y0026.50000
X0013.55000Y0026.50000
X0016.09000Y0026.50000
T01
X0068.09000Y0024.00000
X0073.09000Y0024.00000
M30