%TF.GenerationSoftware,KiCad,Pcbnew,10.0.6*%
%TF.CreationDate,2026-10-01T15:39:59+00:00*%
%TF.ProjectId,OSBAMS_Rev2_RC1,4f534241-4d53-45f5-9265-76325f524331,rev?*%
%TF.SameCoordinates,Original*%
%TF.FileFunction,Copper,L3,Inr*%
%TF.FilePolarity,Positive*%
%FSLAX46Y46*%
G04 Gerber Fmt 4.6, Leading zero omitted, Abs format (unit mm)*
G04 Created by KiCad (PCBNEW 10.0.6) date 2026-10-01 15:39:59*
%MOMM*%
%LPD*%
G01*
G04 APERTURE LIST*
G04 Aperture macros list*
%AMRoundRect*
0 Rectangle with rounded corners*
0 $1 Rounding radius*
0 $2 $3 $4 $5 $6 $7 $8 $9 X,Y pos of 4 corners*
0 Add a 4 corners polygon primitive as box body*
4,1,4,$2,$3,$4,$5,$6,$7,$8,$9,$2,$3,0*
0 Add four circle primitives for the rounded corners*
1,1,$1+$1,$2,$3*
1,1,$1+$1,$4,$5*
1,1,$1+$1,$6,$7*
1,1,$1+$1,$8,$9*
0 Add four rect primitives between the rounded corners*
20,1,$1+$1,$2,$3,$4,$5,0*
20,1,$1+$1,$4,$5,$6,$7,0*
20,1,$1+$1,$6,$7,$8,$9,0*
20,1,$1+$1,$8,$9,$2,$3,0*%
G04 Aperture macros list end*
%TA.AperFunction,ComponentPad*%
%ADD10RoundRect,0.250000X0.550000X-0.550000X0.550000X0.550000X-0.550000X0.550000X-0.550000X-0.550000X0*%
%TD*%
%TA.AperFunction,ComponentPad*%
%ADD11C,1.600000*%
%TD*%
%TA.AperFunction,ComponentPad*%
%ADD12R,2.600000X2.600000*%
%TD*%
%TA.AperFunction,ComponentPad*%
%ADD13C,2.600000*%
%TD*%
%TA.AperFunction,ComponentPad*%
%ADD14RoundRect,0.250000X-0.620000X-0.845000X0.620000X-0.845000X0.620000X0.845000X-0.620000X0.845000X0*%
%TD*%
%TA.AperFunction,ComponentPad*%
%ADD15O,1.740000X2.190000*%
%TD*%
%TA.AperFunction,ComponentPad*%
%ADD16RoundRect,0.250000X-0.350000X-0.625000X0.350000X-0.625000X0.350000X0.625000X-0.350000X0.625000X0*%
%TD*%
%TA.AperFunction,ComponentPad*%
%ADD17O,1.200000X1.750000*%
%TD*%
%TA.AperFunction,ComponentPad*%
%ADD18RoundRect,0.250000X-0.550000X-0.550000X0.550000X-0.550000X0.550000X0.550000X-0.550000X0.550000X0*%
%TD*%
%TA.AperFunction,ComponentPad*%
%ADD19R,1.700000X1.700000*%
%TD*%
%TA.AperFunction,ComponentPad*%
%ADD20C,1.700000*%
%TD*%
%TA.AperFunction,ComponentPad*%
%ADD21O,2.100000X1.000000*%
%TD*%
%TA.AperFunction,ComponentPad*%
%ADD22O,1.800000X1.000000*%
%TD*%
%TA.AperFunction,ViaPad*%
%ADD23C,0.600000*%
%TD*%
%TA.AperFunction,ViaPad*%
%ADD24C,0.500000*%
%TD*%
%TA.AperFunction,Conductor*%
%ADD25C,0.200000*%
%TD*%
%TA.AperFunction,Conductor*%
%ADD26C,0.300000*%
%TD*%
G04 APERTURE END LIST*
D10*
%TO.N,ES_LED_A*%
%TO.C,D11*%
X122500000Y-85000000D03*
D11*
%TO.N,GND*%
X122500000Y-77380000D03*
%TD*%
D12*
%TO.N,ESTOP_OUT*%
%TO.C,J3*%
X112500000Y-99000000D03*
D13*
%TO.N,COIL_V*%
X112500000Y-104000000D03*
%TD*%
D14*
%TO.N,PACK_INA*%
%TO.C,J6*%
X131000000Y-143000000D03*
D15*
%TO.N,PACK_ADC*%
X133540000Y-143000000D03*
%TO.N,RELAY_OUT*%
X136080000Y-143000000D03*
%TO.N,GND*%
X138620000Y-143000000D03*
%TD*%
D16*
%TO.N,+3V3*%
%TO.C,J7*%
X182000000Y-146000000D03*
D17*
%TO.N,SDA2_J*%
X184000000Y-146000000D03*
%TO.N,SCL2_J*%
X186000000Y-146000000D03*
%TO.N,GND*%
X188000000Y-146000000D03*
%TD*%
D12*
%TO.N,COIL_V*%
%TO.C,J4*%
X112500000Y-111000000D03*
D13*
%TO.N,COIL_SW*%
X112500000Y-116000000D03*
%TD*%
D18*
%TO.N,ES_LED_A*%
%TO.C,U4*%
X122000000Y-88000000D03*
D11*
%TO.N,GND*%
X122000000Y-90540000D03*
X129620000Y-90540000D03*
%TO.N,ESTOP_SENSE*%
X129620000Y-88000000D03*
%TD*%
D19*
%TO.N,+3V3*%
%TO.C,JP1*%
X150000000Y-130000000D03*
D20*
%TO.N,BOOT0*%
X150000000Y-132540000D03*
%TD*%
D12*
%TO.N,+12V*%
%TO.C,J2*%
X112500000Y-87000000D03*
D13*
%TO.N,ESTOP_OUT*%
X112500000Y-92000000D03*
%TD*%
D12*
%TO.N,12V_RAW*%
%TO.C,J1*%
X112500000Y-72000000D03*
D13*
%TO.N,GND*%
X112500000Y-77000000D03*
%TD*%
D14*
%TO.N,SHUNT_INP_RAW*%
%TO.C,J5*%
X114000000Y-143000000D03*
D15*
%TO.N,SHUNT_INN_RAW*%
X116540000Y-143000000D03*
%TO.N,GND*%
X119080000Y-143000000D03*
%TD*%
D18*
%TO.N,FB_LED_A*%
%TO.C,U5*%
X142000000Y-136000000D03*
D11*
%TO.N,GND*%
X142000000Y-138540000D03*
X149620000Y-138540000D03*
%TO.N,RELAY_FB*%
X149620000Y-136000000D03*
%TD*%
D21*
%TO.N,USB_SHIELD*%
%TO.C,J8*%
X193495000Y-86320000D03*
D22*
X197675000Y-86320000D03*
D21*
X193495000Y-77680000D03*
D22*
X197675000Y-77680000D03*
%TD*%
D10*
%TO.N,FB_LED_A*%
%TO.C,D12*%
X144000000Y-133000000D03*
D11*
%TO.N,GND*%
X144000000Y-125380000D03*
%TD*%
D23*
%TO.N,GND*%
X110000000Y-140000000D03*
X122250000Y-73500000D03*
X104750000Y-101500000D03*
X120500000Y-77000000D03*
X132750000Y-108500000D03*
X115250000Y-115500000D03*
X166000000Y-119000000D03*
X111750000Y-66500000D03*
X117000000Y-133000000D03*
X106500000Y-84000000D03*
X125750000Y-87500000D03*
X106500000Y-91000000D03*
X111750000Y-80500000D03*
X148500000Y-70000000D03*
X154750000Y-93625000D03*
X129250000Y-143500000D03*
X106500000Y-140000000D03*
X141500000Y-91000000D03*
X141500000Y-70000000D03*
X171250000Y-122500000D03*
X110000000Y-84000000D03*
X157250000Y-66500000D03*
X138000000Y-63000000D03*
X153750000Y-143500000D03*
X160750000Y-66500000D03*
X185250000Y-136500000D03*
X122250000Y-136500000D03*
X187000000Y-147000000D03*
X169500000Y-77000000D03*
X108250000Y-94500000D03*
X124000000Y-84000000D03*
X166900000Y-94725000D03*
X106500000Y-70000000D03*
X192250000Y-108500000D03*
X194000000Y-140000000D03*
X152000000Y-147000000D03*
X134500000Y-63000000D03*
X167750000Y-136500000D03*
X169500000Y-63000000D03*
X120500000Y-91000000D03*
X138000000Y-70000000D03*
X110000000Y-112000000D03*
X173000000Y-147000000D03*
X108250000Y-87500000D03*
X160750000Y-80500000D03*
X178250000Y-115500000D03*
X113500000Y-119000000D03*
X120500000Y-105000000D03*
X157250000Y-73500000D03*
X155500000Y-140000000D03*
X145000000Y-140000000D03*
X159000000Y-133000000D03*
X127500000Y-105000000D03*
X164250000Y-143500000D03*
X118750000Y-94500000D03*
X187000000Y-133000000D03*
X152000000Y-84000000D03*
X185250000Y-129500000D03*
X197500000Y-126000000D03*
X155500000Y-126000000D03*
X124000000Y-70000000D03*
X103000000Y-119000000D03*
X138000000Y-98000000D03*
X134500000Y-70000000D03*
X158850000Y-88062500D03*
X139750000Y-66500000D03*
X154750000Y-108375000D03*
X180000000Y-119000000D03*
X108250000Y-101500000D03*
X131000000Y-63000000D03*
X166000000Y-77000000D03*
X153750000Y-122500000D03*
X138000000Y-126000000D03*
X136250000Y-129500000D03*
X103000000Y-91000000D03*
X155500000Y-70000000D03*
X164250000Y-129500000D03*
X108250000Y-143500000D03*
X146750000Y-73500000D03*
X122250000Y-108500000D03*
X113500000Y-84000000D03*
X169500000Y-133000000D03*
X164250000Y-122500000D03*
X152000000Y-140000000D03*
X132750000Y-94500000D03*
X124000000Y-105000000D03*
X162500000Y-147000000D03*
X197500000Y-140000000D03*
X167750000Y-101500000D03*
X169500000Y-140000000D03*
X145000000Y-98000000D03*
X141500000Y-77000000D03*
X131000000Y-133000000D03*
X110000000Y-147000000D03*
X167750000Y-66500000D03*
X152000000Y-77000000D03*
X110000000Y-119000000D03*
X134500000Y-112000000D03*
X117000000Y-98000000D03*
X108250000Y-108500000D03*
X171250000Y-108500000D03*
X188750000Y-136500000D03*
X134500000Y-147000000D03*
X174750000Y-122500000D03*
X187000000Y-112000000D03*
X141500000Y-126000000D03*
X138000000Y-147000000D03*
X129250000Y-80500000D03*
X194000000Y-126000000D03*
X167750000Y-129500000D03*
X181750000Y-115500000D03*
X155500000Y-133000000D03*
X155500000Y-77000000D03*
X146750000Y-136500000D03*
X188750000Y-143500000D03*
X124000000Y-140000000D03*
X117000000Y-119000000D03*
X176500000Y-112000000D03*
X195750000Y-108500000D03*
X120500000Y-70000000D03*
X185250000Y-115500000D03*
X117000000Y-77000000D03*
X104750000Y-143500000D03*
X159000000Y-126000000D03*
X155500000Y-119000000D03*
X103000000Y-133000000D03*
X117000000Y-63000000D03*
X118750000Y-122500000D03*
X145000000Y-119000000D03*
X167750000Y-143500000D03*
X166000000Y-105000000D03*
X129250000Y-94500000D03*
X150250000Y-94500000D03*
X115250000Y-108500000D03*
X171250000Y-143500000D03*
X139750000Y-129500000D03*
X183500000Y-112000000D03*
X185250000Y-143500000D03*
X113500000Y-147000000D03*
X110000000Y-98000000D03*
X162500000Y-126000000D03*
X104750000Y-115500000D03*
X125750000Y-94500000D03*
X145000000Y-70000000D03*
X134500000Y-126000000D03*
X166000000Y-126000000D03*
X131000000Y-112000000D03*
X176500000Y-119000000D03*
X120500000Y-147000000D03*
X115250000Y-80500000D03*
X111750000Y-136500000D03*
X103000000Y-126000000D03*
X174750000Y-115500000D03*
X104750000Y-136500000D03*
X127500000Y-91000000D03*
X167750000Y-73500000D03*
X136250000Y-87500000D03*
X155500000Y-63000000D03*
X124000000Y-91000000D03*
X134500000Y-91000000D03*
X159350000Y-92500000D03*
X183500000Y-126000000D03*
X141500000Y-140000000D03*
X110000000Y-126000000D03*
X166000000Y-140000000D03*
X106500000Y-119000000D03*
X103000000Y-105000000D03*
X118750000Y-80500000D03*
X106500000Y-147000000D03*
X195750000Y-115500000D03*
X190500000Y-126000000D03*
X117000000Y-126000000D03*
X150250000Y-66500000D03*
X104750000Y-87500000D03*
X187000000Y-140000000D03*
X157250000Y-143500000D03*
X167750000Y-122500000D03*
X155500000Y-147000000D03*
X162500000Y-133000000D03*
X136250000Y-94500000D03*
X103000000Y-98000000D03*
X180957937Y-143369333D03*
X124000000Y-98000000D03*
X185250000Y-108500000D03*
X108250000Y-115500000D03*
X141500000Y-63000000D03*
X190500000Y-112000000D03*
X152000000Y-70000000D03*
X188750000Y-129500000D03*
X127500000Y-140000000D03*
X136250000Y-73500000D03*
X103000000Y-70000000D03*
X143250000Y-87500000D03*
X171250000Y-136500000D03*
X111750000Y-143500000D03*
X124000000Y-147000000D03*
X106500000Y-133000000D03*
X131000000Y-84000000D03*
X174750000Y-108500000D03*
X195750000Y-136500000D03*
X117000000Y-91000000D03*
X148500000Y-91000000D03*
X138000000Y-91000000D03*
X161400000Y-91175000D03*
X190500000Y-140000000D03*
X131000000Y-70000000D03*
X122250000Y-143500000D03*
X108250000Y-136500000D03*
X190500000Y-133000000D03*
X169500000Y-98000000D03*
X176500000Y-147000000D03*
X148500000Y-140000000D03*
X166000000Y-63000000D03*
X148500000Y-77000000D03*
X160750000Y-73500000D03*
X148500000Y-147000000D03*
X162500000Y-63000000D03*
X194000000Y-133000000D03*
X125750000Y-73500000D03*
X124000000Y-63000000D03*
X148500000Y-119000000D03*
X169500000Y-105000000D03*
X108250000Y-73500000D03*
X160750000Y-143500000D03*
X181750000Y-122500000D03*
X120500000Y-119000000D03*
X120500000Y-98000000D03*
X192250000Y-129500000D03*
X197500000Y-119000000D03*
X194000000Y-147000000D03*
X197500000Y-112000000D03*
X145000000Y-63000000D03*
X118750000Y-115500000D03*
X138000000Y-140000000D03*
X195750000Y-143500000D03*
X152000000Y-133000000D03*
X113500000Y-70000000D03*
X104750000Y-66500000D03*
X169500000Y-84000000D03*
X194000000Y-112000000D03*
X145000000Y-147000000D03*
X127500000Y-119000000D03*
X169500000Y-91000000D03*
X167750000Y-108500000D03*
X120500000Y-126000000D03*
X192250000Y-136500000D03*
X139750000Y-108500000D03*
X181750000Y-108500000D03*
X173000000Y-119000000D03*
X113500000Y-63000000D03*
X173000000Y-112000000D03*
X103000000Y-112000000D03*
X143250000Y-129500000D03*
X132750000Y-73500000D03*
X185250000Y-122500000D03*
X187000000Y-126000000D03*
X113500000Y-126000000D03*
X181750000Y-129500000D03*
X169500000Y-147000000D03*
X127500000Y-98000000D03*
X176500000Y-133000000D03*
X162500000Y-77000000D03*
X146855666Y-106232937D03*
X127500000Y-63000000D03*
X103000000Y-84000000D03*
X180000000Y-112000000D03*
X153750000Y-136500000D03*
X108250000Y-129500000D03*
X159000000Y-84000000D03*
X159000000Y-140000000D03*
X150250000Y-108500000D03*
X104750000Y-122500000D03*
X127500000Y-70000000D03*
X164250000Y-66500000D03*
X143250000Y-101500000D03*
X146750000Y-66500000D03*
X139750000Y-122500000D03*
X117000000Y-112000000D03*
X118750000Y-73500000D03*
X115250000Y-94500000D03*
X150250000Y-73500000D03*
X159000000Y-77000000D03*
X122250000Y-94500000D03*
X125750000Y-115500000D03*
X106500000Y-126000000D03*
X141500000Y-147000000D03*
X143250000Y-66500000D03*
X118750000Y-101500000D03*
X183500000Y-133000000D03*
X166000000Y-112000000D03*
X111750000Y-122500000D03*
X178250000Y-108500000D03*
X174750000Y-143500000D03*
X146750000Y-129500000D03*
X190500000Y-147000000D03*
X104750000Y-94500000D03*
X153750000Y-73500000D03*
X118750000Y-136500000D03*
X125750000Y-80500000D03*
X122250000Y-80500000D03*
X104750000Y-73500000D03*
X188750000Y-122500000D03*
X115250000Y-87500000D03*
X162500000Y-70000000D03*
X131000000Y-119000000D03*
X115250000Y-122500000D03*
X197500000Y-133000000D03*
X194000000Y-119000000D03*
X145000000Y-91000000D03*
X192250000Y-115500000D03*
X131000000Y-91000000D03*
X134500000Y-98000000D03*
X165375000Y-97750000D03*
X166000000Y-70000000D03*
X188750000Y-115500000D03*
X104750000Y-129500000D03*
X115250000Y-101500000D03*
X129250000Y-136500000D03*
X166000000Y-133000000D03*
X195750000Y-129500000D03*
X159000000Y-70000000D03*
X138000000Y-112000000D03*
X164250000Y-73500000D03*
X145000000Y-84000000D03*
X111750000Y-108500000D03*
X136250000Y-108500000D03*
X145000000Y-77000000D03*
X160750000Y-101500000D03*
X141500000Y-133000000D03*
X113500000Y-133000000D03*
X131000000Y-105000000D03*
X173000000Y-133000000D03*
X125750000Y-143500000D03*
X164250000Y-87500000D03*
X187000000Y-119000000D03*
X157250000Y-80500000D03*
X153750000Y-66500000D03*
X195750000Y-122500000D03*
X139750000Y-87500000D03*
X120500000Y-63000000D03*
X181750000Y-136500000D03*
X159000000Y-105000000D03*
X106500000Y-63000000D03*
X183500000Y-119000000D03*
X108250000Y-80500000D03*
X117000000Y-147000000D03*
X131000000Y-98000000D03*
X110000000Y-70000000D03*
X131000000Y-147000000D03*
X115250000Y-66500000D03*
X169500000Y-70000000D03*
X192250000Y-143500000D03*
X134500000Y-133000000D03*
X111750000Y-94500000D03*
X125750000Y-122500000D03*
X180000000Y-126000000D03*
X103000000Y-140000000D03*
X164250000Y-136500000D03*
X146750000Y-80500000D03*
X167750000Y-80500000D03*
X155500000Y-84000000D03*
X110000000Y-133000000D03*
X159000000Y-147000000D03*
X173000000Y-140000000D03*
X106500000Y-98000000D03*
X125750000Y-136500000D03*
X192250000Y-122500000D03*
X120500000Y-84000000D03*
X111750000Y-101500000D03*
D24*
X151000000Y-102700000D03*
D23*
X153750000Y-80500000D03*
X115250000Y-129500000D03*
X104750000Y-80500000D03*
X164250000Y-80500000D03*
X153725000Y-110400000D03*
X108250000Y-122500000D03*
X108250000Y-66500000D03*
X173000000Y-126000000D03*
X161250000Y-108375000D03*
X180000000Y-147000000D03*
X188750000Y-108500000D03*
X148500000Y-63000000D03*
X110000000Y-91000000D03*
X106500000Y-77000000D03*
X129250000Y-108500000D03*
X115250000Y-73500000D03*
X150250000Y-80500000D03*
X143250000Y-94500000D03*
X159000000Y-63000000D03*
X174750000Y-129500000D03*
X169500000Y-126000000D03*
X143250000Y-73500000D03*
X148500000Y-84000000D03*
X110000000Y-77000000D03*
X139750000Y-73500000D03*
X190500000Y-119000000D03*
X171250000Y-129500000D03*
X166000000Y-147000000D03*
X183500000Y-140000000D03*
X127500000Y-147000000D03*
X111750000Y-129500000D03*
X152000000Y-63000000D03*
X167750000Y-87500000D03*
X103000000Y-77000000D03*
%TO.N,+3V3*%
X162331900Y-97692100D03*
X184248600Y-142687100D03*
X159824200Y-137725000D03*
X147526800Y-115872100D03*
X160730800Y-96868500D03*
X151474300Y-116250000D03*
%TO.N,INA_ALERT*%
X124089400Y-128000000D03*
X155854900Y-104745800D03*
%TO.N,SHUNT_INP_RAW*%
X127325000Y-125945400D03*
%TO.N,SDA1*%
X120964900Y-130253100D03*
X155452300Y-94084400D03*
X140366300Y-117500000D03*
%TO.N,LOAD_EN*%
X139375000Y-103492000D03*
X165428700Y-102298500D03*
%TO.N,3V3_A*%
X124535900Y-129227700D03*
X133579100Y-105174800D03*
%TO.N,ESTOP_SENSE*%
X154742800Y-102131100D03*
X145273100Y-99124800D03*
%TO.N,UART_TX_MCU*%
X156248100Y-98118800D03*
X153255500Y-105757200D03*
%TO.N,SWDIO*%
X163828400Y-118836400D03*
X165138600Y-98507600D03*
%TO.N,SWCLK*%
X162359500Y-95325000D03*
X160498300Y-122457800D03*
%TO.N,SWO*%
X157871200Y-96911200D03*
X159995900Y-139869100D03*
%TO.N,NRST*%
X146641300Y-98832400D03*
X152539100Y-119548100D03*
X156071400Y-100250000D03*
%TO.N,GND_HOST*%
X180000000Y-84000000D03*
X187000000Y-70000000D03*
X187000000Y-84000000D03*
X190500000Y-91000000D03*
X195750000Y-87500000D03*
X192140577Y-85650000D03*
X180000000Y-105000000D03*
X185250000Y-66500000D03*
X192250000Y-66500000D03*
X176500000Y-105000000D03*
X178250000Y-73500000D03*
X190500000Y-77000000D03*
X185250000Y-101500000D03*
X192250000Y-87500000D03*
X176500000Y-91000000D03*
X181750000Y-101500000D03*
X183675000Y-96600000D03*
X181750000Y-66500000D03*
X188750000Y-101500000D03*
X176500000Y-70000000D03*
X180000000Y-98000000D03*
X180000000Y-70000000D03*
X194000000Y-70000000D03*
X179545481Y-94189110D03*
X185250000Y-80500000D03*
X192250000Y-73500000D03*
X176500000Y-77000000D03*
X187000000Y-105000000D03*
X178250000Y-66500000D03*
X190500000Y-98000000D03*
X195750000Y-101500000D03*
X183500000Y-84000000D03*
X185250000Y-87500000D03*
X176500000Y-98000000D03*
X188750000Y-66500000D03*
X194000000Y-105000000D03*
X192250000Y-94500000D03*
X183500000Y-105000000D03*
X194000000Y-98000000D03*
X178250000Y-80500000D03*
X190500000Y-70000000D03*
X183500000Y-70000000D03*
X185250000Y-73500000D03*
X192250000Y-101500000D03*
X181869000Y-92700000D03*
X178250000Y-87500000D03*
X190500000Y-105000000D03*
X181750000Y-73500000D03*
X176500000Y-84000000D03*
X178250000Y-101500000D03*
X195750000Y-94500000D03*
X195750000Y-66500000D03*
X194000000Y-91000000D03*
X180000000Y-77000000D03*
X188750000Y-94500000D03*
%TO.N,ARM_DIV*%
X140164400Y-101357300D03*
X155483700Y-91123900D03*
%TO.N,SCL2*%
X171355900Y-116208400D03*
X178259400Y-138046200D03*
%TO.N,VBUS_USB*%
X191839500Y-79600000D03*
X191802300Y-84400000D03*
%TO.N,BOOT0*%
X156321300Y-94077800D03*
%TO.N,SCL1*%
X154948100Y-96575200D03*
X133221200Y-118503800D03*
%TO.N,RELAY_FB*%
X162105000Y-115395000D03*
X162262100Y-101250000D03*
%TO.N,USB_DM*%
X188675300Y-71708600D03*
X182144200Y-91972000D03*
%TO.N,USB_DP*%
X183142200Y-90607000D03*
X189137500Y-68282900D03*
%TD*%
%TO.N,ES_LED_A*%
D25*
X122500000Y-87500000D02*
X122500000Y-85000000D01*
X122000000Y-88000000D02*
X122500000Y-87500000D01*
%TO.N,COIL_V*%
D26*
X112500000Y-111000000D02*
X112500000Y-104000000D01*
%TO.N,+3V3*%
X150000000Y-128848300D02*
X151474300Y-127374000D01*
X151474300Y-127374000D02*
X151474300Y-116250000D01*
X182000000Y-146000000D02*
X184248600Y-143751400D01*
X150000000Y-130000000D02*
X150000000Y-128848300D01*
X184248600Y-143751400D02*
X184248600Y-142687100D01*
%TO.N,INA_ALERT*%
D25*
X155854900Y-104745800D02*
X141545200Y-119055500D01*
X133033900Y-119055500D02*
X124089400Y-128000000D01*
X141545200Y-119055500D02*
X133033900Y-119055500D01*
%TO.N,ESTOP_OUT*%
D26*
X112500000Y-92000000D02*
X112500000Y-99000000D01*
%TO.N,SHUNT_INP_RAW*%
D25*
X114000000Y-143000000D02*
X127325000Y-129675000D01*
X127325000Y-129675000D02*
X127325000Y-125945400D01*
%TO.N,SDA1*%
X155452300Y-94084400D02*
X155519700Y-94151800D01*
X155519700Y-94151800D02*
X155519700Y-99366900D01*
X140366300Y-114520300D02*
X140366300Y-117500000D01*
X155519700Y-99366900D02*
X140366300Y-114520300D01*
%TO.N,3V3_A*%
D26*
X124535900Y-129227700D02*
X124450300Y-129227700D01*
X123487600Y-115266300D02*
X133579100Y-105174800D01*
X124450300Y-129227700D02*
X123487600Y-128265000D01*
X123487600Y-128265000D02*
X123487600Y-115266300D01*
%TO.N,UART_TX_MCU*%
D25*
X153255500Y-102216100D02*
X156248100Y-99223500D01*
X153255500Y-105757200D02*
X153255500Y-102216100D01*
X156248100Y-99223500D02*
X156248100Y-98118800D01*
%TO.N,SWDIO*%
X163828400Y-118836400D02*
X163828400Y-99817800D01*
X163828400Y-99817800D02*
X165138600Y-98507600D01*
%TO.N,SWCLK*%
X162883600Y-120072500D02*
X162883600Y-95849100D01*
X162883600Y-95849100D02*
X162359500Y-95325000D01*
X160498300Y-122457800D02*
X162883600Y-120072500D01*
%TO.N,SWO*%
X159995900Y-139869100D02*
X157871200Y-137744400D01*
X157871200Y-137744400D02*
X157871200Y-96911200D01*
%TO.N,NRST*%
X152539100Y-119548100D02*
X156465500Y-115621700D01*
X156465500Y-100644100D02*
X156071400Y-100250000D01*
X156465500Y-115621700D02*
X156465500Y-100644100D01*
%TO.N,ARM_DIV*%
X140164400Y-101357300D02*
X150397800Y-91123900D01*
X150397800Y-91123900D02*
X155483700Y-91123900D01*
%TO.N,USB_SHIELD*%
X197675000Y-86320000D02*
X196523300Y-86320000D01*
X196523300Y-86320000D02*
X196523300Y-77680000D01*
X197675000Y-77680000D02*
X196523300Y-77680000D01*
%TO.N,SCL2*%
X178259400Y-138046200D02*
X178259400Y-123111900D01*
X178259400Y-123111900D02*
X171355900Y-116208400D01*
%TO.N,VBUS_USB*%
D26*
X191839500Y-84362800D02*
X191839500Y-79600000D01*
X191802300Y-84400000D02*
X191839500Y-84362800D01*
%TO.N,BOOT0*%
D25*
X150000000Y-132540000D02*
X156817200Y-125722800D01*
X156817200Y-94573700D02*
X156321300Y-94077800D01*
X156817200Y-125722800D02*
X156817200Y-94573700D01*
%TO.N,FB_LED_A*%
X142000000Y-136000000D02*
X144000000Y-134000000D01*
X144000000Y-134000000D02*
X144000000Y-133000000D01*
%TO.N,SCL1*%
X133221200Y-118302100D02*
X154948100Y-96575200D01*
X133221200Y-118503800D02*
X133221200Y-118302100D01*
%TO.N,RELAY_FB*%
X162262100Y-115237900D02*
X162105000Y-115395000D01*
X162262100Y-101250000D02*
X162262100Y-115237900D01*
%TO.N,USB_DM*%
X182144200Y-91972000D02*
X182144200Y-78239700D01*
X182144200Y-78239700D02*
X188675300Y-71708600D01*
%TO.N,USB_DP*%
X189227000Y-84522200D02*
X183142200Y-90607000D01*
X189137500Y-68282900D02*
X189227000Y-68372400D01*
X189227000Y-68372400D02*
X189227000Y-84522200D01*
%TD*%
%TA.AperFunction,Conductor*%
%TO.N,GND*%
G36*
X156436361Y-116291310D02*
G01*
X156462618Y-116338189D01*
X156463962Y-116343784D01*
X156466700Y-116366907D01*
X156466700Y-125520928D01*
X156461854Y-125551521D01*
X156454307Y-125574748D01*
X156430157Y-125614159D01*
X151280590Y-130763726D01*
X151255529Y-130781933D01*
X151245786Y-130786897D01*
X151185354Y-130796467D01*
X151130838Y-130768688D01*
X151104577Y-130721793D01*
X151103234Y-130716198D01*
X151100500Y-130693091D01*
X151100500Y-129125327D01*
X151100498Y-129125315D01*
X151097015Y-129107810D01*
X151097014Y-129107804D01*
X151085966Y-129052260D01*
X151061214Y-129015215D01*
X151030602Y-128969400D01*
X151030599Y-128969397D01*
X151030595Y-128969394D01*
X151030593Y-128969392D01*
X150947748Y-128914038D01*
X150947737Y-128914032D01*
X150947534Y-128913964D01*
X150945997Y-128913687D01*
X150874694Y-128899503D01*
X150874684Y-128899501D01*
X150874679Y-128899500D01*
X150874676Y-128899500D01*
X150874674Y-128899500D01*
X150874673Y-128899500D01*
X150769881Y-128899500D01*
X150739287Y-128894654D01*
X150728885Y-128891274D01*
X150679385Y-128855309D01*
X150660479Y-128797118D01*
X150675062Y-128745402D01*
X150678073Y-128740489D01*
X150692480Y-128722213D01*
X150925462Y-128489231D01*
X151096969Y-128317724D01*
X151794780Y-127619913D01*
X151847507Y-127528588D01*
X151874800Y-127426727D01*
X151874800Y-127321273D01*
X151874800Y-119883651D01*
X151879644Y-119853062D01*
X151882191Y-119845222D01*
X151918153Y-119795721D01*
X151976343Y-119776811D01*
X152034530Y-119795713D01*
X152037940Y-119798190D01*
X152065491Y-119828784D01*
X152098591Y-119886115D01*
X152201085Y-119988609D01*
X152201087Y-119988610D01*
X152201194Y-119988717D01*
X152201445Y-119988903D01*
X152203638Y-119990084D01*
X152266464Y-120026356D01*
X152323857Y-120059492D01*
X152326270Y-120060990D01*
X152326608Y-120061080D01*
X152326611Y-120061082D01*
X152326612Y-120061082D01*
X152326615Y-120061084D01*
X152466625Y-120098600D01*
X152466626Y-120098600D01*
X152611574Y-120098600D01*
X152611575Y-120098600D01*
X152751585Y-120061084D01*
X152751586Y-120061083D01*
X152751588Y-120061082D01*
X152751589Y-120061082D01*
X152870980Y-119992151D01*
X152873868Y-119990748D01*
X152874654Y-119990231D01*
X152879663Y-119987137D01*
X152880962Y-119986386D01*
X152886320Y-119979403D01*
X152979609Y-119886115D01*
X152979612Y-119886110D01*
X153052082Y-119760589D01*
X153052082Y-119760587D01*
X153052084Y-119760585D01*
X153089600Y-119620575D01*
X153089600Y-119549970D01*
X153094444Y-119519381D01*
X153101991Y-119496150D01*
X153126140Y-119456741D01*
X156286612Y-116296269D01*
X156311664Y-116278068D01*
X156321415Y-116273100D01*
X156381845Y-116263531D01*
X156436361Y-116291310D01*
G37*
%TD.AperFunction*%
%TA.AperFunction,Conductor*%
G36*
X155072430Y-97120728D02*
G01*
X155129569Y-97142599D01*
X155162261Y-97191473D01*
X155165121Y-97201126D01*
X155169200Y-97229249D01*
X155169200Y-99165029D01*
X155164354Y-99195622D01*
X155156807Y-99218849D01*
X155132657Y-99258260D01*
X140085830Y-114305088D01*
X140039686Y-114385012D01*
X140015800Y-114474158D01*
X140015800Y-117015287D01*
X140010954Y-117045881D01*
X140003407Y-117069107D01*
X139979258Y-117108515D01*
X139925796Y-117161978D01*
X139925788Y-117161987D01*
X139853318Y-117287507D01*
X139853317Y-117287509D01*
X139853317Y-117287510D01*
X139815800Y-117427525D01*
X139815800Y-117572474D01*
X139848885Y-117695949D01*
X139853318Y-117712493D01*
X139925785Y-117838008D01*
X139925787Y-117838010D01*
X139925789Y-117838012D01*
X139925791Y-117838015D01*
X140028285Y-117940509D01*
X140028287Y-117940510D01*
X140028394Y-117940617D01*
X140028645Y-117940803D01*
X140030838Y-117941984D01*
X140115411Y-117990812D01*
X140151057Y-118011392D01*
X140153470Y-118012890D01*
X140153808Y-118012980D01*
X140153811Y-118012982D01*
X140153812Y-118012982D01*
X140153815Y-118012984D01*
X140293825Y-118050500D01*
X140293826Y-118050500D01*
X140438774Y-118050500D01*
X140438775Y-118050500D01*
X140578785Y-118012984D01*
X140578786Y-118012983D01*
X140578788Y-118012982D01*
X140578789Y-118012982D01*
X140698180Y-117944051D01*
X140701068Y-117942648D01*
X140701854Y-117942131D01*
X140706863Y-117939037D01*
X140708162Y-117938286D01*
X140713520Y-117931303D01*
X140806809Y-117838015D01*
X140806813Y-117838008D01*
X140879282Y-117712489D01*
X140879282Y-117712487D01*
X140879284Y-117712485D01*
X140916800Y-117572475D01*
X140916800Y-117427525D01*
X140879284Y-117287515D01*
X140879282Y-117287512D01*
X140879282Y-117287510D01*
X140879280Y-117287507D01*
X140879190Y-117287169D01*
X140877696Y-117284763D01*
X140806814Y-117161992D01*
X140806811Y-117161988D01*
X140806810Y-117161987D01*
X140806808Y-117161984D01*
X140756883Y-117112058D01*
X140738678Y-117087000D01*
X140727588Y-117065236D01*
X140716800Y-117020294D01*
X140716800Y-114722170D01*
X140721644Y-114691581D01*
X140729191Y-114668350D01*
X140753340Y-114628941D01*
X152724912Y-102657369D01*
X152749964Y-102639168D01*
X152759715Y-102634200D01*
X152820145Y-102624631D01*
X152874661Y-102652410D01*
X152900918Y-102699289D01*
X152902262Y-102704884D01*
X152905000Y-102728007D01*
X152905000Y-105272487D01*
X152900154Y-105303081D01*
X152892607Y-105326307D01*
X152868458Y-105365715D01*
X152814996Y-105419178D01*
X152814988Y-105419187D01*
X152742518Y-105544707D01*
X152742517Y-105544709D01*
X152742517Y-105544710D01*
X152705000Y-105684725D01*
X152705000Y-105829674D01*
X152738085Y-105953149D01*
X152742518Y-105969693D01*
X152814985Y-106095208D01*
X152814987Y-106095210D01*
X152814989Y-106095212D01*
X152814991Y-106095215D01*
X152917485Y-106197709D01*
X152917487Y-106197710D01*
X152917594Y-106197817D01*
X152917845Y-106198003D01*
X152920038Y-106199184D01*
X153032607Y-106264175D01*
X153040257Y-106268592D01*
X153042670Y-106270090D01*
X153043008Y-106270180D01*
X153043011Y-106270182D01*
X153043012Y-106270182D01*
X153043015Y-106270184D01*
X153183025Y-106307700D01*
X153183026Y-106307700D01*
X153327974Y-106307700D01*
X153327975Y-106307700D01*
X153467985Y-106270184D01*
X153467986Y-106270183D01*
X153467988Y-106270182D01*
X153467989Y-106270182D01*
X153587380Y-106201251D01*
X153590268Y-106199848D01*
X153591054Y-106199331D01*
X153596063Y-106196237D01*
X153597362Y-106195486D01*
X153602720Y-106188503D01*
X153696009Y-106095215D01*
X153696013Y-106095208D01*
X153768482Y-105969689D01*
X153768482Y-105969687D01*
X153768484Y-105969685D01*
X153806000Y-105829675D01*
X153806000Y-105684725D01*
X153768484Y-105544715D01*
X153768482Y-105544712D01*
X153768482Y-105544710D01*
X153768480Y-105544707D01*
X153768390Y-105544369D01*
X153766896Y-105541963D01*
X153696014Y-105419192D01*
X153696011Y-105419188D01*
X153696010Y-105419187D01*
X153696008Y-105419184D01*
X153695980Y-105419156D01*
X153646083Y-105369258D01*
X153627878Y-105344200D01*
X153616788Y-105322436D01*
X153606000Y-105277494D01*
X153606000Y-102417969D01*
X153610844Y-102387380D01*
X153616174Y-102370975D01*
X153618391Y-102364149D01*
X153642540Y-102324740D01*
X154023781Y-101943499D01*
X154048830Y-101925301D01*
X154056182Y-101921555D01*
X154116610Y-101911984D01*
X154171127Y-101939761D01*
X154198905Y-101994277D01*
X154198906Y-101994286D01*
X154199565Y-101998449D01*
X154197411Y-102039547D01*
X154192300Y-102058624D01*
X154192300Y-102058625D01*
X154192300Y-102203574D01*
X154224766Y-102324738D01*
X154229818Y-102343593D01*
X154302285Y-102469108D01*
X154302287Y-102469110D01*
X154302289Y-102469112D01*
X154302291Y-102469115D01*
X154404785Y-102571609D01*
X154404787Y-102571610D01*
X154404894Y-102571717D01*
X154405145Y-102571903D01*
X154407338Y-102573084D01*
X154486017Y-102618509D01*
X154527557Y-102642492D01*
X154529970Y-102643990D01*
X154530308Y-102644080D01*
X154530311Y-102644082D01*
X154530312Y-102644082D01*
X154530315Y-102644084D01*
X154670325Y-102681600D01*
X154670326Y-102681600D01*
X154815274Y-102681600D01*
X154815275Y-102681600D01*
X154955285Y-102644084D01*
X154955286Y-102644083D01*
X154955288Y-102644082D01*
X154955289Y-102644082D01*
X155074680Y-102575151D01*
X155077568Y-102573748D01*
X155078354Y-102573231D01*
X155083363Y-102570137D01*
X155084662Y-102569386D01*
X155090020Y-102562403D01*
X155183309Y-102469115D01*
X155221891Y-102402289D01*
X155255782Y-102343589D01*
X155255782Y-102343587D01*
X155255784Y-102343585D01*
X155293300Y-102203575D01*
X155293300Y-102058625D01*
X155255784Y-101918615D01*
X155255782Y-101918612D01*
X155255782Y-101918610D01*
X155255781Y-101918608D01*
X155255690Y-101918268D01*
X155254197Y-101915864D01*
X155184785Y-101795639D01*
X155183605Y-101793447D01*
X155183417Y-101793194D01*
X155183310Y-101793087D01*
X155183309Y-101793085D01*
X155080815Y-101690591D01*
X155080812Y-101690589D01*
X155080810Y-101690587D01*
X155012574Y-101651191D01*
X154991541Y-101627831D01*
X154925697Y-101610187D01*
X154925696Y-101610187D01*
X154815275Y-101580600D01*
X154815273Y-101580600D01*
X154670325Y-101580600D01*
X154654888Y-101584736D01*
X154624079Y-101587972D01*
X154618995Y-101587706D01*
X154615846Y-101587541D01*
X154558726Y-101565610D01*
X154525406Y-101514293D01*
X154528609Y-101453202D01*
X154530121Y-101449264D01*
X154552539Y-101414741D01*
X155436476Y-100530803D01*
X155461534Y-100512599D01*
X155472499Y-100507012D01*
X155532931Y-100497446D01*
X155585582Y-100523411D01*
X155592885Y-100530342D01*
X155610474Y-100552653D01*
X155630891Y-100588015D01*
X155733385Y-100690509D01*
X155733387Y-100690510D01*
X155733494Y-100690617D01*
X155733745Y-100690803D01*
X155735938Y-100691984D01*
X155782604Y-100718926D01*
X155856157Y-100761392D01*
X155858570Y-100762890D01*
X155858908Y-100762980D01*
X155858911Y-100762982D01*
X155858912Y-100762982D01*
X155858915Y-100762984D01*
X155998925Y-100800500D01*
X156000320Y-100800500D01*
X156030908Y-100805343D01*
X156043595Y-100809466D01*
X156093095Y-100845427D01*
X156093096Y-100845428D01*
X156096091Y-100849550D01*
X156115000Y-100907740D01*
X156115000Y-104100873D01*
X156110153Y-104131471D01*
X156106350Y-104143173D01*
X156070383Y-104192671D01*
X156014794Y-104211541D01*
X156004732Y-104211805D01*
X155976513Y-104208466D01*
X155973558Y-104207674D01*
X155927375Y-104195300D01*
X155927374Y-104195300D01*
X155782423Y-104195300D01*
X155720688Y-104211841D01*
X155720687Y-104211840D01*
X155642412Y-104232815D01*
X155642406Y-104232818D01*
X155516893Y-104305283D01*
X155414383Y-104407793D01*
X155341918Y-104533305D01*
X155341917Y-104533310D01*
X155307484Y-104661818D01*
X155304400Y-104673326D01*
X155304400Y-104743929D01*
X155299554Y-104774522D01*
X155292007Y-104797749D01*
X155267857Y-104837160D01*
X141440100Y-118664917D01*
X141415043Y-118683121D01*
X141393285Y-118694208D01*
X141348338Y-118705000D01*
X133881908Y-118705000D01*
X133851310Y-118700153D01*
X133839608Y-118696350D01*
X133790110Y-118660383D01*
X133771240Y-118604793D01*
X133770907Y-118592085D01*
X133771356Y-118579734D01*
X133771699Y-118576280D01*
X133771700Y-118576275D01*
X133771700Y-118431325D01*
X133751658Y-118356528D01*
X133748420Y-118325727D01*
X133749413Y-118306770D01*
X133765247Y-118258037D01*
X133767555Y-118254484D01*
X133780572Y-118238407D01*
X154853202Y-97165779D01*
X154878254Y-97147578D01*
X154900021Y-97136488D01*
X154944962Y-97125700D01*
X155043537Y-97125700D01*
X155051221Y-97121784D01*
X155071800Y-97120695D01*
X155072430Y-97120728D01*
G37*
%TD.AperFunction*%
%TA.AperFunction,Conductor*%
G36*
X171415908Y-60504843D02*
G01*
X171428595Y-60508966D01*
X171478095Y-60544927D01*
X171478096Y-60544928D01*
X171481091Y-60549050D01*
X171500000Y-60607240D01*
X171500000Y-107500000D01*
X174197069Y-107500000D01*
X174255260Y-107518907D01*
X174286975Y-107557552D01*
X174298140Y-107581772D01*
X174298141Y-107581773D01*
X174334101Y-107631269D01*
X174334104Y-107631272D01*
X174334105Y-107631273D01*
X174374876Y-107675378D01*
X174461857Y-107724088D01*
X174520048Y-107742995D01*
X174520049Y-107742995D01*
X174520052Y-107742996D01*
X174598997Y-107755500D01*
X197401000Y-107755500D01*
X197459191Y-107774407D01*
X197495155Y-107823907D01*
X197500000Y-107854500D01*
X197500000Y-144713162D01*
X197495154Y-144743756D01*
X197491774Y-144754158D01*
X197455809Y-144803658D01*
X197397618Y-144822564D01*
X197345892Y-144807975D01*
X197340990Y-144804971D01*
X197322715Y-144790564D01*
X197183090Y-144650940D01*
X196996889Y-144508063D01*
X196996886Y-144508061D01*
X196793612Y-144390701D01*
X196793608Y-144390699D01*
X196793604Y-144390697D01*
X196597047Y-144309281D01*
X196597046Y-144309280D01*
X196597046Y-144309281D01*
X196580007Y-144302223D01*
X196577326Y-144300999D01*
X196575343Y-144300500D01*
X196533950Y-144289409D01*
X196350059Y-144240136D01*
X196117356Y-144209500D01*
X195882642Y-144209500D01*
X195649939Y-144240136D01*
X195423231Y-144300881D01*
X195423172Y-144300902D01*
X195422693Y-144301104D01*
X195206391Y-144390698D01*
X195003109Y-144508063D01*
X194816917Y-144650933D01*
X194650933Y-144816917D01*
X194508063Y-145003109D01*
X194390698Y-145206391D01*
X194301104Y-145422693D01*
X194300902Y-145423172D01*
X194300881Y-145423231D01*
X194240136Y-145649939D01*
X194209500Y-145882642D01*
X194209500Y-146117356D01*
X194240136Y-146350059D01*
X194300881Y-146576767D01*
X194300901Y-146576825D01*
X194301104Y-146577305D01*
X194390705Y-146793622D01*
X194390744Y-146793700D01*
X194391110Y-146794320D01*
X194499783Y-146982549D01*
X194508061Y-146996886D01*
X194650936Y-147183085D01*
X194650938Y-147183087D01*
X194650942Y-147183092D01*
X194816908Y-147349058D01*
X194816911Y-147349060D01*
X194816917Y-147349066D01*
X194816939Y-147349085D01*
X194817313Y-147349369D01*
X195003113Y-147491938D01*
X195003117Y-147491941D01*
X195203654Y-147607720D01*
X195205041Y-147608582D01*
X195207811Y-147610120D01*
X195208266Y-147610382D01*
X195212362Y-147611773D01*
X195264877Y-147633525D01*
X195423228Y-147699117D01*
X195649941Y-147759864D01*
X195882644Y-147790500D01*
X195882645Y-147790500D01*
X196117355Y-147790500D01*
X196117356Y-147790500D01*
X196350059Y-147759864D01*
X196576772Y-147699117D01*
X196793617Y-147609296D01*
X196996883Y-147491941D01*
X197183092Y-147349058D01*
X197319911Y-147212237D01*
X197344969Y-147194032D01*
X197354717Y-147189065D01*
X197415150Y-147179499D01*
X197469664Y-147207280D01*
X197495918Y-147254156D01*
X197497262Y-147259751D01*
X197500000Y-147282874D01*
X197500000Y-149385319D01*
X197495154Y-149415912D01*
X197491032Y-149428598D01*
X197455080Y-149478089D01*
X197450959Y-149481084D01*
X197392771Y-149500000D01*
X100614680Y-149500000D01*
X100584087Y-149495154D01*
X100571401Y-149491032D01*
X100521901Y-149455068D01*
X100521894Y-149455058D01*
X100518900Y-149450936D01*
X100500000Y-149392756D01*
X100500000Y-145882642D01*
X102209500Y-145882642D01*
X102209500Y-146117356D01*
X102240136Y-146350059D01*
X102300881Y-146576767D01*
X102300901Y-146576825D01*
X102301104Y-146577305D01*
X102390705Y-146793622D01*
X102390744Y-146793700D01*
X102391110Y-146794320D01*
X102499783Y-146982549D01*
X102508061Y-146996886D01*
X102650936Y-147183085D01*
X102650938Y-147183087D01*
X102650942Y-147183092D01*
X102816908Y-147349058D01*
X102816911Y-147349060D01*
X102816917Y-147349066D01*
X102816939Y-147349085D01*
X102817313Y-147349369D01*
X103003113Y-147491938D01*
X103003117Y-147491941D01*
X103203654Y-147607720D01*
X103205041Y-147608582D01*
X103207811Y-147610120D01*
X103208266Y-147610382D01*
X103212362Y-147611773D01*
X103264877Y-147633525D01*
X103423228Y-147699117D01*
X103649941Y-147759864D01*
X103882644Y-147790500D01*
X103882645Y-147790500D01*
X104117355Y-147790500D01*
X104117356Y-147790500D01*
X104350059Y-147759864D01*
X104576772Y-147699117D01*
X104793617Y-147609296D01*
X104996883Y-147491941D01*
X105183092Y-147349058D01*
X105349058Y-147183092D01*
X105491941Y-146996883D01*
X105609296Y-146793617D01*
X105699117Y-146576772D01*
X105759864Y-146350059D01*
X105790500Y-146117356D01*
X105790500Y-145882644D01*
X105759864Y-145649941D01*
X105699117Y-145423228D01*
X105659312Y-145327132D01*
X181149500Y-145327132D01*
X181149500Y-146673401D01*
X181149786Y-146675521D01*
X181150038Y-146677863D01*
X181155908Y-146732480D01*
X181155909Y-146732485D01*
X181157755Y-146737434D01*
X181206200Y-146867327D01*
X181286114Y-146974077D01*
X181292523Y-146982638D01*
X181292696Y-146982807D01*
X181294595Y-146984149D01*
X181354112Y-147028703D01*
X181407668Y-147068796D01*
X181407669Y-147068796D01*
X181407670Y-147068797D01*
X181541544Y-147118728D01*
X181542985Y-147119285D01*
X181544247Y-147119466D01*
X181547767Y-147119655D01*
X181602127Y-147125500D01*
X182397872Y-147125499D01*
X182457483Y-147119091D01*
X182527935Y-147092814D01*
X182582255Y-147072554D01*
X182590694Y-147069407D01*
X182594023Y-147068232D01*
X182597583Y-147067046D01*
X182605167Y-147059186D01*
X182707546Y-146982546D01*
X182793796Y-146867331D01*
X182800740Y-146848715D01*
X182842252Y-146737413D01*
X182843454Y-146734650D01*
X182844087Y-146732492D01*
X182844089Y-146732488D01*
X182844090Y-146732485D01*
X182844091Y-146732483D01*
X182850500Y-146672873D01*
X182850499Y-145772578D01*
X182855344Y-145741988D01*
X182862890Y-145718762D01*
X182887039Y-145679351D01*
X182969416Y-145596974D01*
X182994466Y-145578775D01*
X183004217Y-145573807D01*
X183064645Y-145564238D01*
X183119161Y-145592017D01*
X183145419Y-145638899D01*
X183146763Y-145644499D01*
X183149500Y-145667615D01*
X183149500Y-146358771D01*
X183158789Y-146405467D01*
X183182183Y-146523079D01*
X183182185Y-146523085D01*
X183188164Y-146537519D01*
X183246295Y-146677861D01*
X183246304Y-146677874D01*
X183277181Y-146724084D01*
X183339374Y-146817162D01*
X183457838Y-146935626D01*
X183597137Y-147028703D01*
X183751918Y-147092816D01*
X183916233Y-147125500D01*
X183916234Y-147125500D01*
X184083766Y-147125500D01*
X184083767Y-147125500D01*
X184248082Y-147092816D01*
X184402863Y-147028703D01*
X184542162Y-146935626D01*
X184660626Y-146817162D01*
X184753703Y-146677863D01*
X184817816Y-146523082D01*
X184850500Y-146358767D01*
X184850500Y-145641233D01*
X184850499Y-145641230D01*
X184850498Y-145641227D01*
X185149500Y-145641227D01*
X185149500Y-146358771D01*
X185158789Y-146405467D01*
X185182183Y-146523079D01*
X185182185Y-146523085D01*
X185188164Y-146537519D01*
X185246295Y-146677861D01*
X185246304Y-146677874D01*
X185277181Y-146724084D01*
X185339374Y-146817162D01*
X185457838Y-146935626D01*
X185597137Y-147028703D01*
X185751918Y-147092816D01*
X185916233Y-147125500D01*
X185916234Y-147125500D01*
X186083766Y-147125500D01*
X186083767Y-147125500D01*
X186248082Y-147092816D01*
X186402863Y-147028703D01*
X186542162Y-146935626D01*
X186660626Y-146817162D01*
X186753703Y-146677863D01*
X186817816Y-146523082D01*
X186850500Y-146358767D01*
X186850500Y-145641233D01*
X186850499Y-145641230D01*
X186849529Y-145636352D01*
X187100000Y-145636352D01*
X187100000Y-145636355D01*
X187100000Y-145799999D01*
X187100001Y-145800000D01*
X187536342Y-145800000D01*
X187594533Y-145818907D01*
X187630497Y-145868407D01*
X187631968Y-145924621D01*
X187625000Y-145950630D01*
X187625000Y-146049370D01*
X187631968Y-146075377D01*
X187628767Y-146136478D01*
X187590262Y-146184028D01*
X187536342Y-146200000D01*
X187100001Y-146200000D01*
X187100000Y-146200001D01*
X187100000Y-146200002D01*
X187100000Y-146363646D01*
X187132684Y-146527957D01*
X187132684Y-146527958D01*
X187134585Y-146537520D01*
X187202426Y-146701303D01*
X187202432Y-146701315D01*
X187264111Y-146793622D01*
X187300923Y-146848715D01*
X187426284Y-146974076D01*
X187441391Y-146984170D01*
X187573683Y-147072566D01*
X187573689Y-147072568D01*
X187573691Y-147072570D01*
X187737473Y-147140411D01*
X187737484Y-147140414D01*
X187800000Y-147152848D01*
X187800000Y-147152847D01*
X187800000Y-146463658D01*
X187818907Y-146405467D01*
X187868407Y-146369503D01*
X187924621Y-146368031D01*
X187950630Y-146375000D01*
X188049368Y-146375000D01*
X188049370Y-146375000D01*
X188075377Y-146368031D01*
X188136478Y-146371233D01*
X188184028Y-146409738D01*
X188200000Y-146463658D01*
X188200000Y-147152847D01*
X188262486Y-147140420D01*
X188262491Y-147140418D01*
X188262515Y-147140414D01*
X188262526Y-147140411D01*
X188426308Y-147072570D01*
X188426311Y-147072567D01*
X188426315Y-147072566D01*
X188475889Y-147039440D01*
X188573715Y-146974076D01*
X188699076Y-146848715D01*
X188764440Y-146750889D01*
X188797566Y-146701315D01*
X188797572Y-146701303D01*
X188809348Y-146672873D01*
X188865413Y-146537521D01*
X188865413Y-146537519D01*
X188898789Y-146369725D01*
X188899364Y-146367555D01*
X188900000Y-146363642D01*
X188900000Y-146200002D01*
X188900000Y-146200001D01*
X188899999Y-146200000D01*
X188899998Y-146200000D01*
X188463658Y-146200000D01*
X188405467Y-146181093D01*
X188369503Y-146131593D01*
X188368031Y-146075378D01*
X188375000Y-146049370D01*
X188375000Y-145950630D01*
X188368031Y-145924622D01*
X188371233Y-145863522D01*
X188409738Y-145815972D01*
X188463658Y-145800000D01*
X188899998Y-145800000D01*
X188899999Y-145800000D01*
X188900000Y-145799999D01*
X188900000Y-145636358D01*
X188900000Y-145636356D01*
X188899364Y-145632443D01*
X188898789Y-145630273D01*
X188865413Y-145462480D01*
X188865413Y-145462478D01*
X188809351Y-145327132D01*
X188797572Y-145298695D01*
X188797566Y-145298683D01*
X188731758Y-145200196D01*
X188699076Y-145151284D01*
X188573715Y-145025923D01*
X188426308Y-144927429D01*
X188262520Y-144859586D01*
X188200000Y-144847149D01*
X188200000Y-145536341D01*
X188181093Y-145594532D01*
X188131593Y-145630496D01*
X188075379Y-145631968D01*
X188049372Y-145625000D01*
X188049370Y-145625000D01*
X187950630Y-145625000D01*
X187950627Y-145625000D01*
X187924621Y-145631968D01*
X187863519Y-145628765D01*
X187815970Y-145590258D01*
X187800000Y-145536341D01*
X187800000Y-144847148D01*
X187753851Y-144856329D01*
X187747046Y-144857683D01*
X187747041Y-144857683D01*
X187737478Y-144859585D01*
X187573695Y-144927426D01*
X187573683Y-144927432D01*
X187426285Y-145025922D01*
X187300922Y-145151285D01*
X187202432Y-145298683D01*
X187202426Y-145298695D01*
X187134586Y-145462478D01*
X187134585Y-145462479D01*
X187134586Y-145462480D01*
X187100000Y-145636352D01*
X186849529Y-145636352D01*
X186817816Y-145476920D01*
X186817816Y-145476918D01*
X186753703Y-145322137D01*
X186660626Y-145182838D01*
X186542162Y-145064374D01*
X186460002Y-145009476D01*
X186447496Y-144993612D01*
X186402869Y-144971299D01*
X186402862Y-144971296D01*
X186248085Y-144907185D01*
X186248079Y-144907183D01*
X186165924Y-144890841D01*
X186083771Y-144874500D01*
X186083769Y-144874500D01*
X186083767Y-144874500D01*
X185916233Y-144874500D01*
X185916230Y-144874500D01*
X185916227Y-144874500D01*
X185792997Y-144899012D01*
X185751920Y-144907183D01*
X185751914Y-144907185D01*
X185751912Y-144907185D01*
X185751911Y-144907186D01*
X185597137Y-144971295D01*
X185457838Y-145064373D01*
X185339373Y-145182838D01*
X185246295Y-145322137D01*
X185182186Y-145476911D01*
X185182183Y-145476921D01*
X185149500Y-145641227D01*
X184850498Y-145641227D01*
X184818786Y-145481794D01*
X184817816Y-145476918D01*
X184753703Y-145322137D01*
X184660626Y-145182838D01*
X184542162Y-145064374D01*
X184460002Y-145009476D01*
X184447496Y-144993612D01*
X184402869Y-144971299D01*
X184402862Y-144971296D01*
X184248085Y-144907185D01*
X184248079Y-144907183D01*
X184165924Y-144890841D01*
X184083771Y-144874500D01*
X184083769Y-144874500D01*
X184083767Y-144874500D01*
X183946580Y-144874500D01*
X183915986Y-144869654D01*
X183905584Y-144866274D01*
X183856084Y-144830309D01*
X183837178Y-144772118D01*
X183851769Y-144720389D01*
X183854781Y-144715473D01*
X183869177Y-144697215D01*
X184486359Y-144080032D01*
X184494510Y-144071881D01*
X184494513Y-144071880D01*
X184569080Y-143997313D01*
X184621807Y-143905987D01*
X184621809Y-143905980D01*
X184625321Y-143892874D01*
X184625321Y-143892872D01*
X184625322Y-143892869D01*
X184626999Y-143886611D01*
X184627002Y-143886597D01*
X184639967Y-143838216D01*
X184649101Y-143804127D01*
X184649101Y-143698673D01*
X184649101Y-143692611D01*
X184649101Y-143691274D01*
X184649100Y-143691200D01*
X184649100Y-143121811D01*
X184653944Y-143091222D01*
X184655950Y-143085047D01*
X184661491Y-143067991D01*
X184685649Y-143028573D01*
X184689109Y-143025115D01*
X184689112Y-143025110D01*
X184761582Y-142899589D01*
X184761582Y-142899587D01*
X184761584Y-142899585D01*
X184799100Y-142759575D01*
X184799100Y-142614625D01*
X184761584Y-142474615D01*
X184761582Y-142474612D01*
X184761582Y-142474610D01*
X184761581Y-142474608D01*
X184761490Y-142474268D01*
X184759997Y-142471864D01*
X184690585Y-142351639D01*
X184689405Y-142349447D01*
X184689217Y-142349194D01*
X184689110Y-142349087D01*
X184689109Y-142349085D01*
X184586615Y-142246591D01*
X184586612Y-142246589D01*
X184586610Y-142246587D01*
X184586609Y-142246586D01*
X184518375Y-142207191D01*
X184497341Y-142183830D01*
X184415036Y-142161777D01*
X184382806Y-142153141D01*
X184321075Y-142136600D01*
X184321074Y-142136600D01*
X184176123Y-142136600D01*
X184114388Y-142153141D01*
X184114387Y-142153140D01*
X184036112Y-142174115D01*
X184036106Y-142174118D01*
X183910593Y-142246583D01*
X183808083Y-142349093D01*
X183735618Y-142474605D01*
X183725430Y-142512629D01*
X183698100Y-142614625D01*
X183698100Y-142759574D01*
X183725950Y-142863510D01*
X183735618Y-142899593D01*
X183808156Y-143025231D01*
X183808224Y-143025324D01*
X183809061Y-143026380D01*
X183810261Y-143027944D01*
X183811932Y-143029811D01*
X183811936Y-143029816D01*
X183811788Y-143029934D01*
X183812036Y-143030257D01*
X183811889Y-143030369D01*
X183826224Y-143050101D01*
X183837310Y-143071859D01*
X183848100Y-143116803D01*
X183848100Y-143528817D01*
X183843254Y-143559410D01*
X183835707Y-143582637D01*
X183811557Y-143622048D01*
X182582905Y-144850699D01*
X182557844Y-144868906D01*
X182543200Y-144876367D01*
X182488381Y-144886662D01*
X182479953Y-144885817D01*
X182462746Y-144881817D01*
X182462643Y-144882223D01*
X182457491Y-144880910D01*
X182457464Y-144880906D01*
X182426252Y-144877549D01*
X182426252Y-144877550D01*
X182397876Y-144874500D01*
X182397873Y-144874500D01*
X182397870Y-144874500D01*
X181602133Y-144874500D01*
X181602129Y-144874500D01*
X181593938Y-144874500D01*
X181587975Y-144876021D01*
X181579069Y-144876978D01*
X181542520Y-144880907D01*
X181542514Y-144880908D01*
X181542514Y-144880909D01*
X181542506Y-144880912D01*
X181407671Y-144931200D01*
X181292456Y-145017451D01*
X181292454Y-145017453D01*
X181206200Y-145132671D01*
X181155912Y-145267504D01*
X181155908Y-145267520D01*
X181155908Y-145267521D01*
X181149500Y-145327132D01*
X105659312Y-145327132D01*
X105634621Y-145267522D01*
X105609298Y-145206387D01*
X105577485Y-145151285D01*
X105491941Y-145003117D01*
X105418329Y-144907184D01*
X105349369Y-144817313D01*
X105349085Y-144816939D01*
X105349066Y-144816917D01*
X105349061Y-144816912D01*
X105349058Y-144816908D01*
X105183092Y-144650942D01*
X105183087Y-144650938D01*
X105183085Y-144650936D01*
X104996886Y-144508061D01*
X104793612Y-144390701D01*
X104793608Y-144390699D01*
X104793604Y-144390697D01*
X104597047Y-144309281D01*
X104597046Y-144309280D01*
X104597046Y-144309281D01*
X104580007Y-144302223D01*
X104577326Y-144300999D01*
X104575343Y-144300500D01*
X104533950Y-144289409D01*
X104350059Y-144240136D01*
X104117356Y-144209500D01*
X103882642Y-144209500D01*
X103649939Y-144240136D01*
X103423231Y-144300881D01*
X103423172Y-144300902D01*
X103422693Y-144301104D01*
X103206391Y-144390698D01*
X103003109Y-144508063D01*
X102816917Y-144650933D01*
X102650933Y-144816917D01*
X102508063Y-145003109D01*
X102390698Y-145206391D01*
X102301104Y-145422693D01*
X102300902Y-145423172D01*
X102300881Y-145423231D01*
X102240136Y-145649939D01*
X102209500Y-145882642D01*
X100500000Y-145882642D01*
X100500000Y-142107129D01*
X112879500Y-142107129D01*
X112879500Y-143892866D01*
X112879500Y-143892867D01*
X112879500Y-143892871D01*
X112879873Y-143896630D01*
X112879977Y-143897309D01*
X112880909Y-143905975D01*
X112880910Y-143905981D01*
X112885907Y-143952478D01*
X112885908Y-143952480D01*
X112885909Y-143952485D01*
X112886831Y-143954957D01*
X112936200Y-144087327D01*
X113022449Y-144202541D01*
X113022522Y-144202633D01*
X113022799Y-144202879D01*
X113024588Y-144204144D01*
X113072668Y-144240136D01*
X113137668Y-144288796D01*
X113137669Y-144288796D01*
X113137670Y-144288797D01*
X113271544Y-144338728D01*
X113272985Y-144339285D01*
X113274247Y-144339466D01*
X113277767Y-144339655D01*
X113332127Y-144345500D01*
X114667872Y-144345499D01*
X114727483Y-144339091D01*
X114727489Y-144339089D01*
X114752252Y-144329852D01*
X114829927Y-144300882D01*
X114860690Y-144289408D01*
X114864021Y-144288233D01*
X114867582Y-144287047D01*
X114875167Y-144279186D01*
X114977546Y-144202546D01*
X115063796Y-144087331D01*
X115066519Y-144080032D01*
X115112251Y-143957415D01*
X115113454Y-143954651D01*
X115114087Y-143952492D01*
X115114089Y-143952488D01*
X115114090Y-143952485D01*
X115114091Y-143952483D01*
X115120500Y-143892873D01*
X115120499Y-142431868D01*
X115125344Y-142401277D01*
X115132891Y-142378049D01*
X115157040Y-142338639D01*
X115412934Y-142082745D01*
X115437990Y-142064542D01*
X115445338Y-142060798D01*
X115505770Y-142051231D01*
X115560285Y-142079011D01*
X115588060Y-142133529D01*
X115578488Y-142193955D01*
X115501593Y-142344872D01*
X115447086Y-142512625D01*
X115419567Y-142686385D01*
X115419501Y-142686788D01*
X115419500Y-142686808D01*
X115419500Y-143313192D01*
X115447085Y-143487369D01*
X115447087Y-143487377D01*
X115447088Y-143487379D01*
X115468882Y-143554452D01*
X115501592Y-143655123D01*
X115581662Y-143812270D01*
X115685330Y-143954957D01*
X115810043Y-144079670D01*
X115952730Y-144183338D01*
X116109877Y-144263408D01*
X116277455Y-144317857D01*
X116277614Y-144317910D01*
X116451809Y-144345500D01*
X116628188Y-144345500D01*
X116628191Y-144345500D01*
X116697498Y-144334522D01*
X116802379Y-144317911D01*
X116802379Y-144317910D01*
X116802381Y-144317910D01*
X116802384Y-144317910D01*
X116802387Y-144317909D01*
X116804963Y-144317501D01*
X116809770Y-144315509D01*
X116970123Y-144263408D01*
X117127270Y-144183338D01*
X117269957Y-144079670D01*
X117394670Y-143954957D01*
X117498338Y-143812270D01*
X117578408Y-143655123D01*
X117632910Y-143487384D01*
X117632911Y-143487379D01*
X117639808Y-143443831D01*
X117660500Y-143313191D01*
X117660500Y-142686807D01*
X117659883Y-142682911D01*
X117910000Y-142682911D01*
X117910000Y-142682915D01*
X117910000Y-142799999D01*
X117910001Y-142800000D01*
X118388581Y-142800000D01*
X118446772Y-142818907D01*
X118482736Y-142868407D01*
X118483958Y-142914986D01*
X118485847Y-142915235D01*
X118485000Y-142921668D01*
X118485000Y-143078332D01*
X118485847Y-143084765D01*
X118483703Y-143085047D01*
X118481001Y-143136490D01*
X118442490Y-143184035D01*
X118388581Y-143200000D01*
X117910001Y-143200000D01*
X117910000Y-143200001D01*
X117910000Y-143200002D01*
X117910000Y-143317087D01*
X117938806Y-143498966D01*
X117938807Y-143498971D01*
X117970432Y-143596302D01*
X117995718Y-143674124D01*
X118079323Y-143838210D01*
X118079327Y-143838216D01*
X118187568Y-143987196D01*
X118187570Y-143987198D01*
X118187573Y-143987202D01*
X118317797Y-144117426D01*
X118317800Y-144117428D01*
X118317802Y-144117430D01*
X118444525Y-144209500D01*
X118466788Y-144225675D01*
X118630875Y-144309281D01*
X118806027Y-144366192D01*
X118806028Y-144366192D01*
X118806031Y-144366193D01*
X118879997Y-144377907D01*
X118879997Y-144377906D01*
X118879999Y-144377907D01*
X118880000Y-144377906D01*
X118880000Y-143691418D01*
X118898907Y-143633227D01*
X118948407Y-143597263D01*
X118994983Y-143596048D01*
X118995233Y-143594153D01*
X119001666Y-143595000D01*
X119158333Y-143595000D01*
X119158334Y-143595000D01*
X119164767Y-143594153D01*
X119165050Y-143596302D01*
X119216457Y-143598985D01*
X119264016Y-143637480D01*
X119280000Y-143691418D01*
X119280000Y-144377907D01*
X119353967Y-144366193D01*
X119353968Y-144366192D01*
X119353972Y-144366192D01*
X119529124Y-144309281D01*
X119693211Y-144225675D01*
X119842202Y-144117426D01*
X119972426Y-143987202D01*
X120080675Y-143838211D01*
X120164281Y-143674124D01*
X120221192Y-143498971D01*
X120250000Y-143317084D01*
X120250000Y-143200001D01*
X120249999Y-143200000D01*
X120249998Y-143200000D01*
X119771419Y-143200000D01*
X119713228Y-143181093D01*
X119677264Y-143131593D01*
X119676041Y-143085013D01*
X119674153Y-143084765D01*
X119675000Y-143078332D01*
X119675000Y-142921668D01*
X119674153Y-142915235D01*
X119676296Y-142914952D01*
X119678999Y-142863510D01*
X119717510Y-142815965D01*
X119771419Y-142800000D01*
X120249998Y-142800000D01*
X120249999Y-142800000D01*
X120250000Y-142799999D01*
X120250000Y-142682915D01*
X120250000Y-142682911D01*
X120221193Y-142501032D01*
X120221192Y-142501028D01*
X120164281Y-142325875D01*
X120080674Y-142161786D01*
X120080668Y-142161777D01*
X120080664Y-142161772D01*
X120080658Y-142161762D01*
X120040964Y-142107129D01*
X129879500Y-142107129D01*
X129879500Y-143892866D01*
X129879500Y-143892867D01*
X129879500Y-143892871D01*
X129879873Y-143896630D01*
X129879977Y-143897309D01*
X129880909Y-143905975D01*
X129880910Y-143905981D01*
X129885907Y-143952478D01*
X129885908Y-143952480D01*
X129885909Y-143952485D01*
X129886831Y-143954957D01*
X129936200Y-144087327D01*
X130022449Y-144202541D01*
X130022522Y-144202633D01*
X130022799Y-144202879D01*
X130024588Y-144204144D01*
X130072668Y-144240136D01*
X130137668Y-144288796D01*
X130137669Y-144288796D01*
X130137670Y-144288797D01*
X130271544Y-144338728D01*
X130272985Y-144339285D01*
X130274247Y-144339466D01*
X130277767Y-144339655D01*
X130332127Y-144345500D01*
X131667872Y-144345499D01*
X131727483Y-144339091D01*
X131727489Y-144339089D01*
X131752252Y-144329852D01*
X131829927Y-144300882D01*
X131860690Y-144289408D01*
X131864021Y-144288233D01*
X131867582Y-144287047D01*
X131875167Y-144279186D01*
X131977546Y-144202546D01*
X132063796Y-144087331D01*
X132066519Y-144080032D01*
X132112251Y-143957415D01*
X132113454Y-143954651D01*
X132114087Y-143952492D01*
X132114089Y-143952488D01*
X132114090Y-143952485D01*
X132114091Y-143952483D01*
X132120500Y-143892873D01*
X132120499Y-142686808D01*
X132419500Y-142686808D01*
X132419500Y-143313192D01*
X132447085Y-143487369D01*
X132447087Y-143487377D01*
X132447088Y-143487379D01*
X132468882Y-143554452D01*
X132501592Y-143655123D01*
X132581662Y-143812270D01*
X132685330Y-143954957D01*
X132810043Y-144079670D01*
X132952730Y-144183338D01*
X133109877Y-144263408D01*
X133277455Y-144317857D01*
X133277614Y-144317910D01*
X133451809Y-144345500D01*
X133628188Y-144345500D01*
X133628191Y-144345500D01*
X133697498Y-144334522D01*
X133802379Y-144317911D01*
X133802379Y-144317910D01*
X133802381Y-144317910D01*
X133802384Y-144317910D01*
X133802387Y-144317909D01*
X133804963Y-144317501D01*
X133809770Y-144315509D01*
X133970123Y-144263408D01*
X134127270Y-144183338D01*
X134269957Y-144079670D01*
X134394670Y-143954957D01*
X134498338Y-143812270D01*
X134578408Y-143655123D01*
X134632910Y-143487384D01*
X134632911Y-143487379D01*
X134639808Y-143443831D01*
X134660500Y-143313191D01*
X134660500Y-142688087D01*
X134660500Y-142686810D01*
X134660500Y-142686808D01*
X134959500Y-142686808D01*
X134959500Y-143313192D01*
X134987085Y-143487369D01*
X134987087Y-143487377D01*
X134987088Y-143487379D01*
X135008882Y-143554452D01*
X135041592Y-143655123D01*
X135121662Y-143812270D01*
X135225330Y-143954957D01*
X135350043Y-144079670D01*
X135492730Y-144183338D01*
X135649877Y-144263408D01*
X135817455Y-144317857D01*
X135817614Y-144317910D01*
X135991809Y-144345500D01*
X136168188Y-144345500D01*
X136168191Y-144345500D01*
X136237498Y-144334522D01*
X136342379Y-144317911D01*
X136342379Y-144317910D01*
X136342381Y-144317910D01*
X136342384Y-144317910D01*
X136342387Y-144317909D01*
X136344963Y-144317501D01*
X136349770Y-144315509D01*
X136510123Y-144263408D01*
X136667270Y-144183338D01*
X136809957Y-144079670D01*
X136934670Y-143954957D01*
X137038338Y-143812270D01*
X137118408Y-143655123D01*
X137172910Y-143487384D01*
X137172911Y-143487379D01*
X137179808Y-143443831D01*
X137200500Y-143313191D01*
X137200500Y-142686807D01*
X137199883Y-142682911D01*
X137450000Y-142682911D01*
X137450000Y-142682915D01*
X137450000Y-142799999D01*
X137450001Y-142800000D01*
X137928581Y-142800000D01*
X137986772Y-142818907D01*
X138022736Y-142868407D01*
X138023958Y-142914986D01*
X138025847Y-142915235D01*
X138025000Y-142921668D01*
X138025000Y-143078332D01*
X138025847Y-143084765D01*
X138023703Y-143085047D01*
X138021001Y-143136490D01*
X137982490Y-143184035D01*
X137928581Y-143200000D01*
X137450001Y-143200000D01*
X137450000Y-143200001D01*
X137450000Y-143200002D01*
X137450000Y-143317087D01*
X137478806Y-143498966D01*
X137478807Y-143498971D01*
X137510432Y-143596302D01*
X137535718Y-143674124D01*
X137619323Y-143838210D01*
X137619327Y-143838216D01*
X137727568Y-143987196D01*
X137727570Y-143987198D01*
X137727573Y-143987202D01*
X137857797Y-144117426D01*
X137857800Y-144117428D01*
X137857802Y-144117430D01*
X137984525Y-144209500D01*
X138006788Y-144225675D01*
X138170875Y-144309281D01*
X138346027Y-144366192D01*
X138346028Y-144366192D01*
X138346031Y-144366193D01*
X138419997Y-144377907D01*
X138419997Y-144377906D01*
X138419999Y-144377907D01*
X138420000Y-144377906D01*
X138420000Y-143691418D01*
X138438907Y-143633227D01*
X138488407Y-143597263D01*
X138534983Y-143596048D01*
X138535233Y-143594153D01*
X138541666Y-143595000D01*
X138698333Y-143595000D01*
X138698334Y-143595000D01*
X138704767Y-143594153D01*
X138705050Y-143596302D01*
X138756457Y-143598985D01*
X138804016Y-143637480D01*
X138820000Y-143691418D01*
X138820000Y-144377907D01*
X138893967Y-144366193D01*
X138893968Y-144366192D01*
X138893972Y-144366192D01*
X139069124Y-144309281D01*
X139233211Y-144225675D01*
X139382202Y-144117426D01*
X139512426Y-143987202D01*
X139620675Y-143838211D01*
X139704281Y-143674124D01*
X139761192Y-143498971D01*
X139790000Y-143317084D01*
X139790000Y-143200001D01*
X139789999Y-143200000D01*
X139789998Y-143200000D01*
X139311419Y-143200000D01*
X139253228Y-143181093D01*
X139217264Y-143131593D01*
X139216041Y-143085013D01*
X139214153Y-143084765D01*
X139215000Y-143078332D01*
X139215000Y-142921668D01*
X139214153Y-142915235D01*
X139216296Y-142914952D01*
X139218999Y-142863510D01*
X139257510Y-142815965D01*
X139311419Y-142800000D01*
X139789998Y-142800000D01*
X139789999Y-142800000D01*
X139790000Y-142799999D01*
X139790000Y-142682915D01*
X139790000Y-142682911D01*
X139761193Y-142501032D01*
X139761192Y-142501028D01*
X139704281Y-142325875D01*
X139620675Y-142161788D01*
X139620674Y-142161786D01*
X139620668Y-142161777D01*
X139512429Y-142012801D01*
X139512428Y-142012800D01*
X139512426Y-142012797D01*
X139382202Y-141882573D01*
X139382198Y-141882570D01*
X139382196Y-141882568D01*
X139233216Y-141774327D01*
X139233210Y-141774323D01*
X139069124Y-141690718D01*
X138893968Y-141633806D01*
X138820000Y-141622090D01*
X138820000Y-142308581D01*
X138801093Y-142366772D01*
X138751593Y-142402736D01*
X138705013Y-142403958D01*
X138704765Y-142405847D01*
X138698333Y-142405000D01*
X138698332Y-142405000D01*
X138541668Y-142405000D01*
X138541667Y-142405000D01*
X138541666Y-142405000D01*
X138535235Y-142405847D01*
X138534952Y-142403703D01*
X138483510Y-142401001D01*
X138435965Y-142362490D01*
X138420000Y-142308581D01*
X138420000Y-141622093D01*
X138420000Y-141622092D01*
X138419999Y-141622091D01*
X138419998Y-141622091D01*
X138346030Y-141633806D01*
X138170874Y-141690718D01*
X138006788Y-141774323D01*
X138006782Y-141774327D01*
X137857802Y-141882568D01*
X137857797Y-141882572D01*
X137857797Y-141882573D01*
X137727573Y-142012797D01*
X137727570Y-142012800D01*
X137727570Y-142012801D01*
X137619331Y-142161777D01*
X137619323Y-142161788D01*
X137535718Y-142325874D01*
X137478806Y-142501031D01*
X137450000Y-142682911D01*
X137199883Y-142682911D01*
X137172912Y-142512626D01*
X137172911Y-142512620D01*
X137169146Y-142501032D01*
X137118408Y-142344877D01*
X137038338Y-142187730D01*
X136934670Y-142045043D01*
X136809957Y-141920330D01*
X136673570Y-141821239D01*
X136673296Y-141821005D01*
X136667270Y-141816662D01*
X136667269Y-141816661D01*
X136667267Y-141816660D01*
X136667266Y-141816659D01*
X136667260Y-141816655D01*
X136667004Y-141816526D01*
X136510123Y-141736592D01*
X136342374Y-141682086D01*
X136168192Y-141654500D01*
X136168188Y-141654500D01*
X136168185Y-141654500D01*
X135991815Y-141654500D01*
X135991812Y-141654500D01*
X135991808Y-141654500D01*
X135817624Y-141682086D01*
X135649875Y-141736592D01*
X135492733Y-141816658D01*
X135350045Y-141920328D01*
X135225328Y-142045045D01*
X135121658Y-142187733D01*
X135041592Y-142344875D01*
X134987086Y-142512625D01*
X134959567Y-142686385D01*
X134959501Y-142686788D01*
X134959500Y-142686808D01*
X134660500Y-142686808D01*
X134660499Y-142686804D01*
X134632911Y-142512620D01*
X134632910Y-142512616D01*
X134578408Y-142344877D01*
X134498338Y-142187730D01*
X134394670Y-142045043D01*
X134269957Y-141920330D01*
X134133570Y-141821239D01*
X134133296Y-141821005D01*
X134127270Y-141816662D01*
X134127269Y-141816661D01*
X134127267Y-141816660D01*
X134127266Y-141816659D01*
X134127260Y-141816655D01*
X134127004Y-141816526D01*
X133970123Y-141736592D01*
X133802374Y-141682086D01*
X133628192Y-141654500D01*
X133628188Y-141654500D01*
X133628185Y-141654500D01*
X133451815Y-141654500D01*
X133451812Y-141654500D01*
X133451808Y-141654500D01*
X133277624Y-141682086D01*
X133109875Y-141736592D01*
X132952733Y-141816658D01*
X132810045Y-141920328D01*
X132685328Y-142045045D01*
X132581658Y-142187733D01*
X132501592Y-142344875D01*
X132447086Y-142512625D01*
X132419567Y-142686385D01*
X132419501Y-142686788D01*
X132419500Y-142686808D01*
X132120499Y-142686808D01*
X132120499Y-142107128D01*
X132114091Y-142047517D01*
X132101143Y-142012801D01*
X132101142Y-142012797D01*
X132063798Y-141912671D01*
X131999516Y-141826802D01*
X131979156Y-141799605D01*
X131977881Y-141797802D01*
X131977633Y-141797522D01*
X131977541Y-141797449D01*
X131862330Y-141711202D01*
X131862328Y-141711201D01*
X131732428Y-141662752D01*
X131728939Y-141661234D01*
X131728025Y-141660996D01*
X131725927Y-141660540D01*
X131722206Y-141660341D01*
X131705312Y-141658524D01*
X131696249Y-141657550D01*
X131696248Y-141657549D01*
X131667876Y-141654500D01*
X131667873Y-141654500D01*
X131667870Y-141654500D01*
X130332133Y-141654500D01*
X130332129Y-141654500D01*
X130323938Y-141654500D01*
X130317975Y-141656021D01*
X130309069Y-141656978D01*
X130272520Y-141660907D01*
X130272514Y-141660908D01*
X130272514Y-141660909D01*
X130272506Y-141660912D01*
X130137671Y-141711200D01*
X130022456Y-141797451D01*
X130022454Y-141797453D01*
X130022451Y-141797456D01*
X130022450Y-141797458D01*
X130012013Y-141811400D01*
X129936200Y-141912671D01*
X129885912Y-142047504D01*
X129885910Y-142047508D01*
X129885910Y-142047511D01*
X129885908Y-142047522D01*
X129879500Y-142107129D01*
X120040964Y-142107129D01*
X119972434Y-142012806D01*
X119972432Y-142012804D01*
X119972430Y-142012801D01*
X119842202Y-141882573D01*
X119842198Y-141882570D01*
X119842196Y-141882568D01*
X119693216Y-141774327D01*
X119693210Y-141774323D01*
X119529124Y-141690718D01*
X119353968Y-141633806D01*
X119280000Y-141622090D01*
X119280000Y-142308581D01*
X119261093Y-142366772D01*
X119211593Y-142402736D01*
X119165013Y-142403958D01*
X119164765Y-142405847D01*
X119158333Y-142405000D01*
X119158332Y-142405000D01*
X119001668Y-142405000D01*
X119001667Y-142405000D01*
X119001666Y-142405000D01*
X118995235Y-142405847D01*
X118994952Y-142403703D01*
X118943510Y-142401001D01*
X118895965Y-142362490D01*
X118880000Y-142308581D01*
X118880000Y-141622093D01*
X118880000Y-141622092D01*
X118879999Y-141622091D01*
X118879998Y-141622091D01*
X118806030Y-141633806D01*
X118630874Y-141690718D01*
X118466788Y-141774323D01*
X118466782Y-141774327D01*
X118317802Y-141882568D01*
X118317797Y-141882572D01*
X118317797Y-141882573D01*
X118187573Y-142012797D01*
X118187570Y-142012800D01*
X118187570Y-142012801D01*
X118079331Y-142161777D01*
X118079323Y-142161788D01*
X117995718Y-142325874D01*
X117938806Y-142501031D01*
X117910000Y-142682911D01*
X117659883Y-142682911D01*
X117632912Y-142512626D01*
X117632911Y-142512620D01*
X117629146Y-142501032D01*
X117578408Y-142344877D01*
X117498338Y-142187730D01*
X117394670Y-142045043D01*
X117269957Y-141920330D01*
X117133570Y-141821239D01*
X117133296Y-141821005D01*
X117127270Y-141816662D01*
X117127269Y-141816661D01*
X117127267Y-141816660D01*
X117127266Y-141816659D01*
X117127260Y-141816655D01*
X117127004Y-141816526D01*
X116970123Y-141736592D01*
X116802374Y-141682086D01*
X116628192Y-141654500D01*
X116628188Y-141654500D01*
X116628185Y-141654500D01*
X116451815Y-141654500D01*
X116451812Y-141654500D01*
X116451808Y-141654500D01*
X116277624Y-141682086D01*
X116109875Y-141736592D01*
X115965581Y-141810113D01*
X115936122Y-141819684D01*
X115927979Y-141820973D01*
X115867548Y-141811400D01*
X115824285Y-141768134D01*
X115813496Y-141723192D01*
X115813496Y-141723191D01*
X115832403Y-141665000D01*
X115842486Y-141653193D01*
X119042260Y-138453420D01*
X140900000Y-138453420D01*
X140900000Y-138626578D01*
X140927082Y-138797574D01*
X140980588Y-138962248D01*
X140988694Y-138978158D01*
X141059197Y-139116527D01*
X141093462Y-139163690D01*
X141093463Y-139163691D01*
X141512419Y-138744733D01*
X141566936Y-138716956D01*
X141627368Y-138726527D01*
X141668158Y-138765235D01*
X141679918Y-138785603D01*
X141679920Y-138785606D01*
X141754394Y-138860080D01*
X141754396Y-138860081D01*
X141774759Y-138871838D01*
X141815700Y-138917307D01*
X141822096Y-138978158D01*
X141795263Y-139027577D01*
X141376307Y-139446534D01*
X141376307Y-139446535D01*
X141423476Y-139480804D01*
X141577751Y-139559411D01*
X141742420Y-139612915D01*
X141742421Y-139612915D01*
X141742424Y-139612916D01*
X141913422Y-139640000D01*
X142086575Y-139640000D01*
X142086578Y-139640000D01*
X142257574Y-139612916D01*
X142257575Y-139612915D01*
X142257579Y-139612915D01*
X142422248Y-139559411D01*
X142576524Y-139480804D01*
X142576530Y-139480800D01*
X142623691Y-139446535D01*
X142204733Y-139027577D01*
X142176957Y-138973061D01*
X142186528Y-138912629D01*
X142225237Y-138871839D01*
X142245606Y-138860080D01*
X142320080Y-138785606D01*
X142331839Y-138765238D01*
X142377303Y-138724299D01*
X142438153Y-138717900D01*
X142487578Y-138744734D01*
X142906535Y-139163691D01*
X142940800Y-139116530D01*
X142940804Y-139116524D01*
X143019411Y-138962248D01*
X143072915Y-138797579D01*
X143072916Y-138797574D01*
X143100000Y-138626577D01*
X143100000Y-138453421D01*
X143100000Y-138453420D01*
X148520000Y-138453420D01*
X148520000Y-138626578D01*
X148547082Y-138797574D01*
X148600588Y-138962248D01*
X148608694Y-138978158D01*
X148679197Y-139116527D01*
X148713462Y-139163690D01*
X148713463Y-139163691D01*
X149132419Y-138744733D01*
X149186936Y-138716956D01*
X149247368Y-138726527D01*
X149288158Y-138765235D01*
X149299918Y-138785603D01*
X149299920Y-138785606D01*
X149374394Y-138860080D01*
X149374396Y-138860081D01*
X149394759Y-138871838D01*
X149435700Y-138917307D01*
X149442096Y-138978158D01*
X149415263Y-139027577D01*
X148996307Y-139446534D01*
X148996307Y-139446535D01*
X149043476Y-139480804D01*
X149197751Y-139559411D01*
X149362420Y-139612915D01*
X149362421Y-139612915D01*
X149362424Y-139612916D01*
X149533422Y-139640000D01*
X149706575Y-139640000D01*
X149706578Y-139640000D01*
X149877574Y-139612916D01*
X149877575Y-139612915D01*
X149877579Y-139612915D01*
X150042248Y-139559411D01*
X150196524Y-139480804D01*
X150196530Y-139480800D01*
X150243691Y-139446535D01*
X149824733Y-139027577D01*
X149796957Y-138973061D01*
X149806528Y-138912629D01*
X149845237Y-138871839D01*
X149865606Y-138860080D01*
X149940080Y-138785606D01*
X149951839Y-138765238D01*
X149997303Y-138724299D01*
X150058153Y-138717900D01*
X150107578Y-138744734D01*
X150526535Y-139163691D01*
X150560800Y-139116530D01*
X150560804Y-139116524D01*
X150639411Y-138962248D01*
X150692915Y-138797579D01*
X150692916Y-138797574D01*
X150720000Y-138626577D01*
X150720000Y-138453421D01*
X150692916Y-138282424D01*
X150692915Y-138282420D01*
X150639411Y-138117751D01*
X150560804Y-137963476D01*
X150560798Y-137963468D01*
X150526535Y-137916307D01*
X150526534Y-137916307D01*
X150107577Y-138335263D01*
X150053061Y-138363040D01*
X149992629Y-138353469D01*
X149951838Y-138314759D01*
X149940081Y-138294396D01*
X149940080Y-138294394D01*
X149865606Y-138219920D01*
X149865603Y-138219918D01*
X149845235Y-138208158D01*
X149804295Y-138162688D01*
X149797901Y-138101837D01*
X149824734Y-138052419D01*
X149960846Y-137916307D01*
X150243691Y-137633463D01*
X150243690Y-137633462D01*
X150196527Y-137599197D01*
X150196524Y-137599195D01*
X150196522Y-137599194D01*
X150042248Y-137520588D01*
X150017393Y-137512512D01*
X149877574Y-137467082D01*
X149706578Y-137440000D01*
X149706575Y-137440000D01*
X149533425Y-137440000D01*
X149533422Y-137440000D01*
X149362424Y-137467082D01*
X149197750Y-137520588D01*
X149043468Y-137599198D01*
X148996307Y-137633462D01*
X148996307Y-137633463D01*
X149415266Y-138052422D01*
X149443042Y-138106937D01*
X149433471Y-138167369D01*
X149394763Y-138208159D01*
X149374396Y-138219918D01*
X149299918Y-138294396D01*
X149288159Y-138314763D01*
X149242688Y-138355703D01*
X149181838Y-138362097D01*
X149132422Y-138335266D01*
X148713463Y-137916307D01*
X148713462Y-137916307D01*
X148679198Y-137963468D01*
X148600588Y-138117750D01*
X148547082Y-138282424D01*
X148520000Y-138453420D01*
X143100000Y-138453420D01*
X143072916Y-138282424D01*
X143072915Y-138282420D01*
X143019411Y-138117751D01*
X142940804Y-137963476D01*
X142940798Y-137963468D01*
X142906535Y-137916307D01*
X142906534Y-137916307D01*
X142487577Y-138335263D01*
X142433061Y-138363040D01*
X142372629Y-138353469D01*
X142331838Y-138314759D01*
X142320081Y-138294396D01*
X142320080Y-138294394D01*
X142245606Y-138219920D01*
X142245603Y-138219918D01*
X142225235Y-138208158D01*
X142184295Y-138162688D01*
X142177901Y-138101837D01*
X142204734Y-138052419D01*
X142340846Y-137916307D01*
X142623691Y-137633463D01*
X142623690Y-137633462D01*
X142576527Y-137599197D01*
X142576524Y-137599195D01*
X142576522Y-137599194D01*
X142422248Y-137520588D01*
X142397393Y-137512512D01*
X142257574Y-137467082D01*
X142086578Y-137440000D01*
X142086575Y-137440000D01*
X141913425Y-137440000D01*
X141913422Y-137440000D01*
X141742424Y-137467082D01*
X141577750Y-137520588D01*
X141423468Y-137599198D01*
X141376307Y-137633462D01*
X141376307Y-137633463D01*
X141795266Y-138052422D01*
X141823042Y-138106937D01*
X141813471Y-138167369D01*
X141774763Y-138208159D01*
X141754396Y-138219918D01*
X141679918Y-138294396D01*
X141668159Y-138314763D01*
X141622688Y-138355703D01*
X141561838Y-138362097D01*
X141512422Y-138335266D01*
X141093463Y-137916307D01*
X141093462Y-137916307D01*
X141059198Y-137963468D01*
X140980588Y-138117750D01*
X140927082Y-138282424D01*
X140900000Y-138453420D01*
X119042260Y-138453420D01*
X122093549Y-135402132D01*
X140949500Y-135402132D01*
X140949500Y-136597920D01*
X140949584Y-136598648D01*
X140954281Y-136642349D01*
X140955908Y-136657480D01*
X140955909Y-136657485D01*
X140955912Y-136657492D01*
X141006200Y-136792327D01*
X141092449Y-136907541D01*
X141092522Y-136907633D01*
X141092799Y-136907879D01*
X141094588Y-136909144D01*
X141179142Y-136972441D01*
X141207668Y-136993796D01*
X141207669Y-136993796D01*
X141207670Y-136993797D01*
X141341544Y-137043728D01*
X141342985Y-137044285D01*
X141344247Y-137044466D01*
X141347767Y-137044655D01*
X141402127Y-137050500D01*
X142597872Y-137050499D01*
X142657483Y-137044091D01*
X142748537Y-137010130D01*
X142776401Y-136999737D01*
X142790692Y-136994408D01*
X142794020Y-136993233D01*
X142797583Y-136992046D01*
X142805167Y-136984186D01*
X142907546Y-136907546D01*
X142993796Y-136792331D01*
X142993798Y-136792327D01*
X143044089Y-136657488D01*
X143044090Y-136657485D01*
X143044091Y-136657483D01*
X143050500Y-136597873D01*
X143050499Y-135896529D01*
X148569500Y-135896529D01*
X148569500Y-136103469D01*
X148609869Y-136306417D01*
X148609869Y-136306419D01*
X148689055Y-136497593D01*
X148689057Y-136497595D01*
X148689059Y-136497598D01*
X148795886Y-136657478D01*
X148804023Y-136669655D01*
X148950345Y-136815977D01*
X149122402Y-136930941D01*
X149313580Y-137010130D01*
X149516535Y-137050500D01*
X149516536Y-137050500D01*
X149723464Y-137050500D01*
X149723465Y-137050500D01*
X149926420Y-137010130D01*
X150117598Y-136930941D01*
X150289655Y-136815977D01*
X150435977Y-136669655D01*
X150550941Y-136497598D01*
X150630130Y-136306420D01*
X150670500Y-136103465D01*
X150670500Y-135896535D01*
X150630130Y-135693580D01*
X150550941Y-135502402D01*
X150435977Y-135330345D01*
X150289655Y-135184023D01*
X150289651Y-135184020D01*
X150117597Y-135069058D01*
X150117596Y-135069057D01*
X150117594Y-135069056D01*
X149926418Y-134989869D01*
X149723469Y-134949500D01*
X149723467Y-134949500D01*
X149723465Y-134949500D01*
X149516535Y-134949500D01*
X149516532Y-134949500D01*
X149516529Y-134949500D01*
X149313581Y-134989869D01*
X149313579Y-134989869D01*
X149122404Y-135069056D01*
X148950351Y-135184017D01*
X148804017Y-135330351D01*
X148689056Y-135502404D01*
X148609869Y-135693579D01*
X148609869Y-135693581D01*
X148569500Y-135896529D01*
X143050499Y-135896529D01*
X143050499Y-135501868D01*
X143055344Y-135471278D01*
X143062890Y-135448052D01*
X143087039Y-135408641D01*
X144280470Y-134215212D01*
X144326614Y-134135288D01*
X144326615Y-134135283D01*
X144329096Y-134129296D01*
X144329813Y-134129593D01*
X144338212Y-134110724D01*
X144345475Y-134099540D01*
X144393024Y-134061035D01*
X144403340Y-134057075D01*
X144438819Y-134050499D01*
X144597867Y-134050499D01*
X144597872Y-134050499D01*
X144657483Y-134044091D01*
X144724907Y-134018943D01*
X144730782Y-134016752D01*
X144790697Y-133994406D01*
X144794030Y-133993230D01*
X144797582Y-133992047D01*
X144805167Y-133984186D01*
X144907546Y-133907546D01*
X144993796Y-133792331D01*
X144993798Y-133792327D01*
X145044089Y-133657488D01*
X145044090Y-133657485D01*
X145044091Y-133657483D01*
X145050500Y-133597873D01*
X145050499Y-132402128D01*
X145044091Y-132342517D01*
X145044089Y-132342511D01*
X145021626Y-132282285D01*
X144993798Y-132207671D01*
X144981461Y-132191191D01*
X144909144Y-132094588D01*
X144907879Y-132092799D01*
X144907633Y-132092522D01*
X144907541Y-132092449D01*
X144792330Y-132006202D01*
X144792328Y-132006201D01*
X144662428Y-131957752D01*
X144658939Y-131956234D01*
X144658025Y-131955996D01*
X144655927Y-131955540D01*
X144652206Y-131955341D01*
X144635312Y-131953524D01*
X144626249Y-131952550D01*
X144626248Y-131952549D01*
X144597876Y-131949500D01*
X144597873Y-131949500D01*
X144597870Y-131949500D01*
X143402133Y-131949500D01*
X143402129Y-131949500D01*
X143393938Y-131949500D01*
X143387975Y-131951021D01*
X143379069Y-131951978D01*
X143342520Y-131955907D01*
X143342514Y-131955908D01*
X143342514Y-131955909D01*
X143342506Y-131955912D01*
X143207671Y-132006200D01*
X143092456Y-132092451D01*
X143092454Y-132092453D01*
X143006200Y-132207671D01*
X142955912Y-132342504D01*
X142955910Y-132342508D01*
X142955910Y-132342511D01*
X142955908Y-132342522D01*
X142949501Y-132402127D01*
X142949500Y-132402132D01*
X142949500Y-133597920D01*
X142949584Y-133598648D01*
X142954083Y-133640500D01*
X142955908Y-133657480D01*
X142955909Y-133657485D01*
X142955912Y-133657492D01*
X143006200Y-133792327D01*
X143092449Y-133907541D01*
X143092522Y-133907633D01*
X143092802Y-133907881D01*
X143094605Y-133909156D01*
X143161664Y-133959356D01*
X143207668Y-133993796D01*
X143207669Y-133993796D01*
X143207670Y-133993797D01*
X143269225Y-134016755D01*
X143296191Y-134031983D01*
X143305113Y-134039068D01*
X143338925Y-134090062D01*
X143336306Y-134151191D01*
X143336305Y-134151193D01*
X143333828Y-134157834D01*
X143311074Y-134193241D01*
X142594898Y-134909417D01*
X142569841Y-134927621D01*
X142548083Y-134938708D01*
X142503136Y-134949500D01*
X141393938Y-134949500D01*
X141387975Y-134951021D01*
X141379069Y-134951978D01*
X141342520Y-134955907D01*
X141342506Y-134955912D01*
X141207671Y-135006200D01*
X141092456Y-135092451D01*
X141092454Y-135092453D01*
X141006200Y-135207671D01*
X140955912Y-135342504D01*
X140955908Y-135342520D01*
X140955908Y-135342521D01*
X140949500Y-135402132D01*
X122093549Y-135402132D01*
X127605470Y-129890212D01*
X127651614Y-129810288D01*
X127675500Y-129721143D01*
X127675500Y-129628856D01*
X127675500Y-126430111D01*
X127680345Y-126399520D01*
X127687892Y-126376291D01*
X127712043Y-126336879D01*
X127765509Y-126283415D01*
X127765510Y-126283412D01*
X127765512Y-126283411D01*
X127837982Y-126157889D01*
X127837982Y-126157887D01*
X127837984Y-126157885D01*
X127875500Y-126017875D01*
X127875500Y-125872925D01*
X127837984Y-125732915D01*
X127837982Y-125732912D01*
X127837982Y-125732910D01*
X127837981Y-125732908D01*
X127837890Y-125732568D01*
X127836397Y-125730164D01*
X127766985Y-125609939D01*
X127765805Y-125607747D01*
X127765617Y-125607494D01*
X127765510Y-125607387D01*
X127765509Y-125607385D01*
X127663015Y-125504891D01*
X127663012Y-125504889D01*
X127663010Y-125504887D01*
X127663009Y-125504886D01*
X127537504Y-125432425D01*
X127537492Y-125432419D01*
X127537490Y-125432418D01*
X127537488Y-125432417D01*
X127537484Y-125432415D01*
X127525737Y-125429267D01*
X127414759Y-125399529D01*
X127402576Y-125391617D01*
X127401303Y-125391247D01*
X127400462Y-125393441D01*
X127395944Y-125391707D01*
X127388908Y-125387644D01*
X127386471Y-125386936D01*
X127382023Y-125384048D01*
X127382202Y-125383772D01*
X127369100Y-125376207D01*
X127368089Y-125375388D01*
X127334775Y-125324067D01*
X127336385Y-125293420D01*
X142900000Y-125293420D01*
X142900000Y-125466578D01*
X142927082Y-125637574D01*
X142969766Y-125768941D01*
X142980588Y-125802248D01*
X143049762Y-125938011D01*
X143059197Y-125956527D01*
X143093462Y-126003690D01*
X143093463Y-126003691D01*
X143512419Y-125584733D01*
X143566936Y-125556956D01*
X143627368Y-125566527D01*
X143668158Y-125605235D01*
X143673311Y-125614159D01*
X143679920Y-125625606D01*
X143754394Y-125700080D01*
X143754396Y-125700081D01*
X143774759Y-125711838D01*
X143815700Y-125757307D01*
X143822096Y-125818158D01*
X143795263Y-125867577D01*
X143376307Y-126286534D01*
X143376307Y-126286535D01*
X143423476Y-126320804D01*
X143577751Y-126399411D01*
X143742420Y-126452915D01*
X143742421Y-126452915D01*
X143742424Y-126452916D01*
X143913422Y-126480000D01*
X144086575Y-126480000D01*
X144086578Y-126480000D01*
X144257574Y-126452916D01*
X144257575Y-126452915D01*
X144257579Y-126452915D01*
X144422248Y-126399411D01*
X144576524Y-126320804D01*
X144576530Y-126320800D01*
X144623691Y-126286535D01*
X144204733Y-125867577D01*
X144176957Y-125813061D01*
X144186528Y-125752629D01*
X144225237Y-125711839D01*
X144245606Y-125700080D01*
X144320080Y-125625606D01*
X144331839Y-125605238D01*
X144377303Y-125564299D01*
X144438153Y-125557900D01*
X144487578Y-125584734D01*
X144906535Y-126003691D01*
X144940800Y-125956530D01*
X144940804Y-125956524D01*
X145019411Y-125802248D01*
X145072915Y-125637579D01*
X145072916Y-125637574D01*
X145100000Y-125466577D01*
X145100000Y-125293421D01*
X145072916Y-125122424D01*
X145072915Y-125122420D01*
X145019411Y-124957751D01*
X144940804Y-124803476D01*
X144940798Y-124803468D01*
X144906535Y-124756307D01*
X144906534Y-124756307D01*
X144487577Y-125175263D01*
X144433061Y-125203040D01*
X144372629Y-125193469D01*
X144331838Y-125154759D01*
X144320081Y-125134396D01*
X144320080Y-125134394D01*
X144245606Y-125059920D01*
X144245603Y-125059918D01*
X144225235Y-125048158D01*
X144184295Y-125002688D01*
X144177901Y-124941837D01*
X144204734Y-124892419D01*
X144340846Y-124756307D01*
X144623691Y-124473463D01*
X144576528Y-124439198D01*
X144576527Y-124439197D01*
X144576524Y-124439195D01*
X144576522Y-124439194D01*
X144422248Y-124360588D01*
X144257574Y-124307082D01*
X144086578Y-124280000D01*
X144086575Y-124280000D01*
X143913425Y-124280000D01*
X143913422Y-124280000D01*
X143742424Y-124307082D01*
X143577750Y-124360588D01*
X143423468Y-124439198D01*
X143376307Y-124473462D01*
X143376307Y-124473463D01*
X143795266Y-124892422D01*
X143823042Y-124946937D01*
X143813471Y-125007369D01*
X143774763Y-125048159D01*
X143754396Y-125059918D01*
X143679918Y-125134396D01*
X143668159Y-125154763D01*
X143622688Y-125195703D01*
X143561838Y-125202097D01*
X143512422Y-125175266D01*
X143093463Y-124756307D01*
X143093462Y-124756307D01*
X143059198Y-124803468D01*
X142980588Y-124957750D01*
X142927082Y-125122424D01*
X142900000Y-125293420D01*
X127336385Y-125293420D01*
X127337538Y-125271482D01*
X127335510Y-125270939D01*
X127336463Y-125267381D01*
X127337882Y-125264921D01*
X127337985Y-125262975D01*
X127338718Y-125261066D01*
X127339856Y-125261503D01*
X127362086Y-125222993D01*
X133139002Y-119446079D01*
X133164054Y-119427878D01*
X133185821Y-119416788D01*
X133230762Y-119406000D01*
X141591342Y-119406000D01*
X141591344Y-119406000D01*
X141680488Y-119382114D01*
X141760412Y-119335970D01*
X145296757Y-115799625D01*
X146976300Y-115799625D01*
X146976300Y-115944575D01*
X147005887Y-116054996D01*
X147010465Y-116072082D01*
X147013817Y-116084591D01*
X147013818Y-116084592D01*
X147086285Y-116210108D01*
X147086287Y-116210110D01*
X147086289Y-116210112D01*
X147086291Y-116210115D01*
X147188785Y-116312609D01*
X147188787Y-116312610D01*
X147188894Y-116312717D01*
X147189145Y-116312903D01*
X147191338Y-116314084D01*
X147282831Y-116366907D01*
X147311557Y-116383492D01*
X147313970Y-116384990D01*
X147314308Y-116385080D01*
X147314311Y-116385082D01*
X147314312Y-116385082D01*
X147314315Y-116385084D01*
X147454325Y-116422600D01*
X147454326Y-116422600D01*
X147599274Y-116422600D01*
X147599275Y-116422600D01*
X147739285Y-116385084D01*
X147739286Y-116385083D01*
X147739288Y-116385082D01*
X147739289Y-116385082D01*
X147858680Y-116316151D01*
X147861568Y-116314748D01*
X147862354Y-116314231D01*
X147867363Y-116311137D01*
X147868662Y-116310386D01*
X147874020Y-116303403D01*
X147967309Y-116210115D01*
X148018167Y-116122027D01*
X148039782Y-116084589D01*
X148039782Y-116084587D01*
X148039784Y-116084585D01*
X148077300Y-115944575D01*
X148077300Y-115799625D01*
X148039784Y-115659615D01*
X148039782Y-115659612D01*
X148039782Y-115659610D01*
X148039781Y-115659608D01*
X148039690Y-115659268D01*
X148038197Y-115656864D01*
X147968785Y-115536639D01*
X147967605Y-115534447D01*
X147967417Y-115534194D01*
X147967310Y-115534087D01*
X147967309Y-115534085D01*
X147864815Y-115431591D01*
X147864812Y-115431589D01*
X147864810Y-115431587D01*
X147796574Y-115392191D01*
X147775541Y-115368831D01*
X147709697Y-115351187D01*
X147709696Y-115351187D01*
X147599275Y-115321600D01*
X147599273Y-115321600D01*
X147454323Y-115321600D01*
X147392588Y-115338141D01*
X147392587Y-115338140D01*
X147314312Y-115359115D01*
X147314306Y-115359118D01*
X147188793Y-115431583D01*
X147086283Y-115534093D01*
X147013818Y-115659606D01*
X147013816Y-115659610D01*
X146994147Y-115733013D01*
X146994148Y-115733014D01*
X146976300Y-115799625D01*
X145296757Y-115799625D01*
X155760002Y-105336379D01*
X155785054Y-105318178D01*
X155806821Y-105307088D01*
X155851762Y-105296300D01*
X155927376Y-105296300D01*
X155927376Y-105296299D01*
X155975234Y-105283476D01*
X156006036Y-105280238D01*
X156018325Y-105280882D01*
X156075445Y-105302810D01*
X156108061Y-105351623D01*
X156110921Y-105361276D01*
X156115000Y-105389399D01*
X156115000Y-115419829D01*
X156110154Y-115450422D01*
X156102607Y-115473649D01*
X156078457Y-115513060D01*
X152634000Y-118957517D01*
X152608943Y-118975721D01*
X152587185Y-118986808D01*
X152542238Y-118997600D01*
X152466623Y-118997600D01*
X152404888Y-119014141D01*
X152404887Y-119014140D01*
X152326612Y-119035115D01*
X152326606Y-119035118D01*
X152201093Y-119107583D01*
X152098588Y-119210088D01*
X152067375Y-119264150D01*
X152047877Y-119288226D01*
X152041751Y-119293741D01*
X151985854Y-119318622D01*
X151926006Y-119305897D01*
X151885069Y-119260424D01*
X151885066Y-119260417D01*
X151883353Y-119256568D01*
X151874800Y-119216315D01*
X151874800Y-116684711D01*
X151879644Y-116654122D01*
X151881337Y-116648912D01*
X151887191Y-116630891D01*
X151911349Y-116591473D01*
X151914809Y-116588015D01*
X151938831Y-116546408D01*
X151987282Y-116462489D01*
X151987282Y-116462487D01*
X151987284Y-116462485D01*
X152024800Y-116322475D01*
X152024800Y-116177525D01*
X151987284Y-116037515D01*
X151987282Y-116037512D01*
X151987282Y-116037510D01*
X151987281Y-116037508D01*
X151987190Y-116037168D01*
X151985697Y-116034764D01*
X151916285Y-115914539D01*
X151915105Y-115912347D01*
X151914917Y-115912094D01*
X151914810Y-115911987D01*
X151914809Y-115911985D01*
X151812315Y-115809491D01*
X151812312Y-115809489D01*
X151812310Y-115809487D01*
X151812309Y-115809486D01*
X151744075Y-115770091D01*
X151723041Y-115746730D01*
X151634970Y-115723132D01*
X151608506Y-115716041D01*
X151546775Y-115699500D01*
X151546774Y-115699500D01*
X151401823Y-115699500D01*
X151340088Y-115716041D01*
X151340087Y-115716040D01*
X151261812Y-115737015D01*
X151261806Y-115737018D01*
X151136293Y-115809483D01*
X151033783Y-115911993D01*
X150961318Y-116037505D01*
X150956631Y-116054997D01*
X150923800Y-116177525D01*
X150923800Y-116322474D01*
X150950170Y-116420889D01*
X150961318Y-116462493D01*
X151033856Y-116588131D01*
X151033924Y-116588224D01*
X151034761Y-116589280D01*
X151035961Y-116590844D01*
X151037632Y-116592711D01*
X151037636Y-116592716D01*
X151037488Y-116592834D01*
X151037736Y-116593157D01*
X151037589Y-116593269D01*
X151051924Y-116613001D01*
X151063010Y-116634759D01*
X151073800Y-116679703D01*
X151073800Y-127151418D01*
X151068954Y-127182011D01*
X151061407Y-127205238D01*
X151037257Y-127244649D01*
X149679514Y-128602393D01*
X149659696Y-128636718D01*
X149659693Y-128636725D01*
X149626793Y-128693711D01*
X149626792Y-128693711D01*
X149626793Y-128693712D01*
X149599500Y-128795573D01*
X149599500Y-128800500D01*
X149595079Y-128814105D01*
X149595057Y-128814167D01*
X149590534Y-128828093D01*
X149554580Y-128877589D01*
X149550459Y-128880584D01*
X149492271Y-128899500D01*
X149125322Y-128899500D01*
X149125318Y-128899500D01*
X149125315Y-128899501D01*
X149089039Y-128906717D01*
X149052261Y-128914033D01*
X149052256Y-128914035D01*
X148969403Y-128969394D01*
X148969394Y-128969403D01*
X148914035Y-129052256D01*
X148914033Y-129052261D01*
X148899500Y-129125320D01*
X148899500Y-130874678D01*
X148899500Y-130874682D01*
X148899501Y-130874684D01*
X148914033Y-130947736D01*
X148914035Y-130947742D01*
X148969397Y-131030599D01*
X148969399Y-131030601D01*
X148969402Y-131030603D01*
X148969404Y-131030605D01*
X149052260Y-131085966D01*
X149107807Y-131097015D01*
X149107808Y-131097015D01*
X149119240Y-131099289D01*
X149121405Y-131099863D01*
X149123579Y-131100216D01*
X149125152Y-131100500D01*
X149125326Y-131100500D01*
X149125327Y-131100500D01*
X150689129Y-131100500D01*
X150719720Y-131105345D01*
X150730120Y-131108724D01*
X150779621Y-131144687D01*
X150798529Y-131202878D01*
X150783938Y-131254611D01*
X150780930Y-131259519D01*
X150766524Y-131277791D01*
X150551794Y-131492520D01*
X150526741Y-131510723D01*
X150514855Y-131516780D01*
X150454423Y-131526354D01*
X150439695Y-131524022D01*
X150437131Y-131523616D01*
X150422030Y-131519990D01*
X150337485Y-131492520D01*
X150257701Y-131466596D01*
X150257696Y-131466595D01*
X150086617Y-131439500D01*
X150086614Y-131439500D01*
X150086611Y-131439500D01*
X149913389Y-131439500D01*
X149913386Y-131439500D01*
X149913383Y-131439500D01*
X149742302Y-131466595D01*
X149742297Y-131466596D01*
X149577561Y-131520123D01*
X149573685Y-131522000D01*
X149572407Y-131522749D01*
X149423209Y-131598768D01*
X149283078Y-131700580D01*
X149160580Y-131823078D01*
X149058768Y-131963209D01*
X148982749Y-132112407D01*
X148982000Y-132113685D01*
X148980123Y-132117561D01*
X148926596Y-132282297D01*
X148926595Y-132282302D01*
X148899500Y-132453381D01*
X148899500Y-132626617D01*
X148926595Y-132797696D01*
X148926596Y-132797701D01*
X148980553Y-132963763D01*
X148981254Y-132965039D01*
X148982749Y-132967591D01*
X149058765Y-133116784D01*
X149058768Y-133116788D01*
X149160586Y-133256928D01*
X149283072Y-133379414D01*
X149423212Y-133481232D01*
X149572414Y-133557253D01*
X149573683Y-133557996D01*
X149576651Y-133559434D01*
X149578246Y-133560226D01*
X149581227Y-133561067D01*
X149742293Y-133613401D01*
X149742297Y-133613402D01*
X149742303Y-133613403D01*
X149913383Y-133640500D01*
X150086614Y-133640500D01*
X150086617Y-133640500D01*
X150225843Y-133618447D01*
X150257702Y-133613402D01*
X150257706Y-133613401D01*
X150416960Y-133561655D01*
X150418379Y-133561285D01*
X150421448Y-133560219D01*
X150423174Y-133559638D01*
X150425899Y-133558113D01*
X150576782Y-133481235D01*
X150576784Y-133481234D01*
X150576783Y-133481234D01*
X150576788Y-133481232D01*
X150716928Y-133379414D01*
X150839414Y-133256928D01*
X150941232Y-133116788D01*
X151018114Y-132965896D01*
X151019638Y-132963174D01*
X151020219Y-132961448D01*
X151021285Y-132958379D01*
X151021655Y-132956960D01*
X151073401Y-132797706D01*
X151073402Y-132797702D01*
X151100500Y-132626614D01*
X151100500Y-132453385D01*
X151100500Y-132453381D01*
X151073403Y-132282303D01*
X151073402Y-132282302D01*
X151073402Y-132282297D01*
X151073401Y-132282293D01*
X151020008Y-132117970D01*
X151016386Y-132102886D01*
X151013644Y-132085579D01*
X151023212Y-132025154D01*
X151029266Y-132013270D01*
X151047472Y-131988207D01*
X157097670Y-125938012D01*
X157143814Y-125858088D01*
X157167700Y-125768943D01*
X157167700Y-125676656D01*
X157167700Y-97177125D01*
X157172544Y-97146536D01*
X157173887Y-97142402D01*
X157175091Y-97138694D01*
X157211053Y-97089195D01*
X157269243Y-97070285D01*
X157327417Y-97089177D01*
X157329104Y-97090402D01*
X157356670Y-97121010D01*
X157430688Y-97249212D01*
X157480618Y-97299143D01*
X157498823Y-97324200D01*
X157509909Y-97345957D01*
X157520700Y-97390903D01*
X157520700Y-137790547D01*
X157528893Y-137821121D01*
X157532267Y-137846746D01*
X157532267Y-137847443D01*
X157539132Y-137859336D01*
X157544586Y-137879688D01*
X157590730Y-137959612D01*
X158502953Y-138871835D01*
X159405318Y-139774200D01*
X159423523Y-139799258D01*
X159434609Y-139821015D01*
X159445400Y-139865961D01*
X159445400Y-139941574D01*
X159478485Y-140065049D01*
X159482918Y-140081593D01*
X159555385Y-140207108D01*
X159555387Y-140207110D01*
X159555389Y-140207112D01*
X159555391Y-140207115D01*
X159657885Y-140309609D01*
X159657887Y-140309610D01*
X159657994Y-140309717D01*
X159658245Y-140309903D01*
X159660438Y-140311084D01*
X159773007Y-140376075D01*
X159780657Y-140380492D01*
X159783070Y-140381990D01*
X159783408Y-140382080D01*
X159783411Y-140382082D01*
X159783412Y-140382082D01*
X159783415Y-140382084D01*
X159923425Y-140419600D01*
X159923426Y-140419600D01*
X160068374Y-140419600D01*
X160068375Y-140419600D01*
X160208385Y-140382084D01*
X160208386Y-140382083D01*
X160208388Y-140382082D01*
X160208389Y-140382082D01*
X160327780Y-140313151D01*
X160330668Y-140311748D01*
X160331454Y-140311231D01*
X160336463Y-140308137D01*
X160337762Y-140307386D01*
X160343120Y-140300403D01*
X160436409Y-140207115D01*
X160436413Y-140207108D01*
X160508882Y-140081589D01*
X160508882Y-140081587D01*
X160508884Y-140081585D01*
X160546400Y-139941575D01*
X160546400Y-139796625D01*
X160508884Y-139656615D01*
X160508882Y-139656612D01*
X160508882Y-139656610D01*
X160508881Y-139656608D01*
X160508790Y-139656268D01*
X160507297Y-139653864D01*
X160437885Y-139533639D01*
X160436705Y-139531447D01*
X160436517Y-139531194D01*
X160436410Y-139531087D01*
X160436409Y-139531085D01*
X160333915Y-139428591D01*
X160333912Y-139428589D01*
X160333910Y-139428587D01*
X160265674Y-139389191D01*
X160244641Y-139365831D01*
X160178797Y-139348187D01*
X160178796Y-139348187D01*
X160068375Y-139318600D01*
X160068374Y-139318600D01*
X160068373Y-139318600D01*
X159997770Y-139318600D01*
X159967177Y-139313754D01*
X159943950Y-139306207D01*
X159904539Y-139282057D01*
X158275007Y-137652525D01*
X159273700Y-137652525D01*
X159273700Y-137657926D01*
X159273700Y-137797477D01*
X159283410Y-137833713D01*
X159283410Y-137833715D01*
X159283411Y-137833715D01*
X159311218Y-137937493D01*
X159383685Y-138063008D01*
X159383687Y-138063010D01*
X159383689Y-138063012D01*
X159383691Y-138063015D01*
X159486185Y-138165509D01*
X159486187Y-138165510D01*
X159486294Y-138165617D01*
X159486545Y-138165803D01*
X159488738Y-138166984D01*
X159560054Y-138208158D01*
X159608957Y-138236392D01*
X159611370Y-138237890D01*
X159611708Y-138237980D01*
X159611711Y-138237982D01*
X159611712Y-138237982D01*
X159611715Y-138237984D01*
X159751725Y-138275500D01*
X159751726Y-138275500D01*
X159896674Y-138275500D01*
X159896675Y-138275500D01*
X160036685Y-138237984D01*
X160036686Y-138237983D01*
X160036688Y-138237982D01*
X160036689Y-138237982D01*
X160156080Y-138169051D01*
X160158968Y-138167648D01*
X160159754Y-138167131D01*
X160164763Y-138164037D01*
X160166062Y-138163286D01*
X160171420Y-138156303D01*
X160264709Y-138063015D01*
X160324410Y-137959611D01*
X160337182Y-137937489D01*
X160337182Y-137937487D01*
X160337184Y-137937485D01*
X160374700Y-137797475D01*
X160374700Y-137652525D01*
X160337184Y-137512515D01*
X160337182Y-137512512D01*
X160337182Y-137512510D01*
X160337181Y-137512508D01*
X160337090Y-137512168D01*
X160335597Y-137509764D01*
X160266185Y-137389539D01*
X160265005Y-137387347D01*
X160264817Y-137387094D01*
X160264710Y-137386987D01*
X160264709Y-137386985D01*
X160162215Y-137284491D01*
X160162212Y-137284489D01*
X160162210Y-137284487D01*
X160093974Y-137245091D01*
X160072941Y-137221731D01*
X160007097Y-137204087D01*
X160007096Y-137204087D01*
X159896675Y-137174500D01*
X159896673Y-137174500D01*
X159751723Y-137174500D01*
X159689988Y-137191041D01*
X159689987Y-137191040D01*
X159611712Y-137212015D01*
X159611706Y-137212018D01*
X159486193Y-137284483D01*
X159383683Y-137386993D01*
X159311218Y-137512505D01*
X159288270Y-137598148D01*
X159288262Y-137598176D01*
X159287984Y-137599218D01*
X159273700Y-137652525D01*
X158275007Y-137652525D01*
X158261782Y-137639300D01*
X158243576Y-137614241D01*
X158232488Y-137592479D01*
X158221700Y-137547537D01*
X158221700Y-122385325D01*
X159947800Y-122385325D01*
X159947800Y-122530274D01*
X159980885Y-122653749D01*
X159985318Y-122670293D01*
X160057785Y-122795808D01*
X160057787Y-122795810D01*
X160057789Y-122795812D01*
X160057791Y-122795815D01*
X160160285Y-122898309D01*
X160160287Y-122898310D01*
X160160394Y-122898417D01*
X160160645Y-122898603D01*
X160162838Y-122899784D01*
X160275407Y-122964775D01*
X160283057Y-122969192D01*
X160285470Y-122970690D01*
X160285808Y-122970780D01*
X160285811Y-122970782D01*
X160285812Y-122970782D01*
X160285815Y-122970784D01*
X160425825Y-123008300D01*
X160425826Y-123008300D01*
X160570774Y-123008300D01*
X160570775Y-123008300D01*
X160710785Y-122970784D01*
X160710786Y-122970783D01*
X160710788Y-122970782D01*
X160710789Y-122970782D01*
X160830180Y-122901851D01*
X160833068Y-122900448D01*
X160833854Y-122899931D01*
X160838863Y-122896837D01*
X160840162Y-122896086D01*
X160845520Y-122889103D01*
X160938809Y-122795815D01*
X160945252Y-122784655D01*
X161011282Y-122670289D01*
X161011282Y-122670287D01*
X161011284Y-122670285D01*
X161048800Y-122530275D01*
X161048800Y-122459669D01*
X161053644Y-122429080D01*
X161061191Y-122405849D01*
X161085340Y-122366440D01*
X163164070Y-120287712D01*
X163210214Y-120207788D01*
X163234100Y-120118643D01*
X163234100Y-120026356D01*
X163234100Y-119275311D01*
X163238943Y-119244725D01*
X163242323Y-119234320D01*
X163278283Y-119184820D01*
X163336472Y-119165909D01*
X163388212Y-119180501D01*
X163393115Y-119183506D01*
X163411385Y-119197910D01*
X163490490Y-119277014D01*
X163490745Y-119277203D01*
X163492938Y-119278384D01*
X163573791Y-119325064D01*
X163613157Y-119347792D01*
X163615570Y-119349290D01*
X163615908Y-119349380D01*
X163615911Y-119349382D01*
X163615912Y-119349382D01*
X163615915Y-119349384D01*
X163755925Y-119386900D01*
X163755926Y-119386900D01*
X163900874Y-119386900D01*
X163900875Y-119386900D01*
X164040885Y-119349384D01*
X164040886Y-119349383D01*
X164040888Y-119349382D01*
X164040889Y-119349382D01*
X164160280Y-119280451D01*
X164163168Y-119279048D01*
X164163954Y-119278531D01*
X164168963Y-119275437D01*
X164170262Y-119274686D01*
X164175620Y-119267703D01*
X164268909Y-119174415D01*
X164341384Y-119048885D01*
X164378900Y-118908875D01*
X164378900Y-118763925D01*
X164341384Y-118623915D01*
X164341382Y-118623912D01*
X164341382Y-118623910D01*
X164341380Y-118623907D01*
X164341290Y-118623569D01*
X164339796Y-118621163D01*
X164268914Y-118498392D01*
X164268911Y-118498388D01*
X164268908Y-118498384D01*
X164247571Y-118477047D01*
X164218983Y-118448458D01*
X164200778Y-118423400D01*
X164189688Y-118401636D01*
X164178900Y-118356694D01*
X164178900Y-116135922D01*
X170805400Y-116135922D01*
X170805400Y-116280877D01*
X170813269Y-116310243D01*
X170813269Y-116310245D01*
X170813270Y-116310245D01*
X170842918Y-116420893D01*
X170915385Y-116546408D01*
X170915387Y-116546410D01*
X170915389Y-116546412D01*
X170915391Y-116546415D01*
X171017885Y-116648909D01*
X171017887Y-116648910D01*
X171017994Y-116649017D01*
X171018245Y-116649203D01*
X171020438Y-116650384D01*
X171071221Y-116679703D01*
X171140657Y-116719792D01*
X171143070Y-116721290D01*
X171143408Y-116721380D01*
X171143411Y-116721382D01*
X171143412Y-116721382D01*
X171143415Y-116721384D01*
X171283425Y-116758900D01*
X171354030Y-116758900D01*
X171384621Y-116763745D01*
X171396958Y-116767753D01*
X171407847Y-116771291D01*
X171447260Y-116795442D01*
X177868817Y-123216998D01*
X177887022Y-123242056D01*
X177898109Y-123263815D01*
X177908900Y-123308761D01*
X177908900Y-137561487D01*
X177904054Y-137592081D01*
X177896507Y-137615307D01*
X177872358Y-137654715D01*
X177818896Y-137708178D01*
X177818888Y-137708187D01*
X177746418Y-137833707D01*
X177746417Y-137833709D01*
X177746417Y-137833710D01*
X177708900Y-137973725D01*
X177708900Y-138118674D01*
X177736028Y-138219918D01*
X177746418Y-138258693D01*
X177818885Y-138384208D01*
X177818887Y-138384210D01*
X177818889Y-138384212D01*
X177818891Y-138384215D01*
X177921385Y-138486709D01*
X177921387Y-138486710D01*
X177921494Y-138486817D01*
X177921745Y-138487003D01*
X177923938Y-138488184D01*
X178036507Y-138553175D01*
X178044157Y-138557592D01*
X178046570Y-138559090D01*
X178046908Y-138559180D01*
X178046911Y-138559182D01*
X178046912Y-138559182D01*
X178046915Y-138559184D01*
X178186925Y-138596700D01*
X178186926Y-138596700D01*
X178331874Y-138596700D01*
X178331875Y-138596700D01*
X178471885Y-138559184D01*
X178471886Y-138559183D01*
X178471888Y-138559182D01*
X178471889Y-138559182D01*
X178591280Y-138490251D01*
X178594168Y-138488848D01*
X178594954Y-138488331D01*
X178599963Y-138485237D01*
X178601262Y-138484486D01*
X178606620Y-138477503D01*
X178699909Y-138384215D01*
X178699912Y-138384210D01*
X178772382Y-138258689D01*
X178772382Y-138258687D01*
X178772384Y-138258685D01*
X178809900Y-138118675D01*
X178809900Y-137973725D01*
X178772384Y-137833715D01*
X178772382Y-137833712D01*
X178772382Y-137833710D01*
X178772380Y-137833707D01*
X178772290Y-137833369D01*
X178770796Y-137830963D01*
X178699914Y-137708192D01*
X178699911Y-137708188D01*
X178699910Y-137708187D01*
X178699908Y-137708184D01*
X178649983Y-137658258D01*
X178631778Y-137633200D01*
X178620688Y-137611436D01*
X178609900Y-137566494D01*
X178609900Y-123065757D01*
X178609900Y-123065756D01*
X178586014Y-122976612D01*
X178568110Y-122945602D01*
X178539870Y-122896689D01*
X178539867Y-122896686D01*
X178427837Y-122784655D01*
X178427837Y-122784656D01*
X175193151Y-119549970D01*
X171946482Y-116303300D01*
X171928276Y-116278241D01*
X171917188Y-116256479D01*
X171906400Y-116211537D01*
X171906400Y-116135924D01*
X171901110Y-116116182D01*
X171892643Y-116084585D01*
X171892643Y-116084583D01*
X171883255Y-116049549D01*
X171868884Y-115995915D01*
X171868882Y-115995912D01*
X171868882Y-115995910D01*
X171868881Y-115995909D01*
X171868791Y-115995571D01*
X171867297Y-115993164D01*
X171797885Y-115872939D01*
X171796705Y-115870747D01*
X171796517Y-115870494D01*
X171796410Y-115870387D01*
X171796409Y-115870385D01*
X171693915Y-115767891D01*
X171693912Y-115767889D01*
X171693910Y-115767887D01*
X171625674Y-115728491D01*
X171604641Y-115705131D01*
X171538797Y-115687487D01*
X171538796Y-115687487D01*
X171428375Y-115657900D01*
X171428373Y-115657900D01*
X171283423Y-115657900D01*
X171221688Y-115674441D01*
X171221687Y-115674440D01*
X171143412Y-115695415D01*
X171143406Y-115695418D01*
X171017893Y-115767883D01*
X170915383Y-115870393D01*
X170842919Y-115995904D01*
X170842917Y-115995908D01*
X170842917Y-115995910D01*
X170810690Y-116116182D01*
X170810690Y-116116183D01*
X170810689Y-116116182D01*
X170805400Y-116135922D01*
X164178900Y-116135922D01*
X164178900Y-102226026D01*
X164878200Y-102226026D01*
X164878200Y-102370974D01*
X164904497Y-102469116D01*
X164904496Y-102469116D01*
X164915716Y-102510988D01*
X164915718Y-102510992D01*
X164988185Y-102636508D01*
X164988187Y-102636510D01*
X164988189Y-102636512D01*
X164988191Y-102636515D01*
X165090685Y-102739009D01*
X165090687Y-102739010D01*
X165090794Y-102739117D01*
X165091045Y-102739303D01*
X165093238Y-102740484D01*
X165205807Y-102805475D01*
X165213457Y-102809892D01*
X165215870Y-102811390D01*
X165216208Y-102811480D01*
X165216211Y-102811482D01*
X165216212Y-102811482D01*
X165216215Y-102811484D01*
X165356225Y-102849000D01*
X165356226Y-102849000D01*
X165501174Y-102849000D01*
X165501175Y-102849000D01*
X165641185Y-102811484D01*
X165641186Y-102811483D01*
X165641188Y-102811482D01*
X165641189Y-102811482D01*
X165760580Y-102742551D01*
X165763468Y-102741148D01*
X165764254Y-102740631D01*
X165769263Y-102737537D01*
X165770562Y-102736786D01*
X165775920Y-102729803D01*
X165869209Y-102636515D01*
X165906681Y-102571612D01*
X165941682Y-102510989D01*
X165941682Y-102510987D01*
X165941684Y-102510985D01*
X165979200Y-102370975D01*
X165979200Y-102226025D01*
X165941684Y-102086015D01*
X165941682Y-102086012D01*
X165941682Y-102086010D01*
X165941681Y-102086008D01*
X165941590Y-102085668D01*
X165940097Y-102083264D01*
X165870685Y-101963039D01*
X165869505Y-101960847D01*
X165869317Y-101960594D01*
X165869210Y-101960487D01*
X165869209Y-101960485D01*
X165766715Y-101857991D01*
X165766712Y-101857989D01*
X165766710Y-101857987D01*
X165698474Y-101818591D01*
X165677441Y-101795231D01*
X165611597Y-101777587D01*
X165611596Y-101777587D01*
X165501175Y-101748000D01*
X165501173Y-101748000D01*
X165356223Y-101748000D01*
X165294488Y-101764541D01*
X165294487Y-101764540D01*
X165216212Y-101785515D01*
X165216206Y-101785518D01*
X165090693Y-101857983D01*
X164988183Y-101960493D01*
X164915718Y-102086005D01*
X164894742Y-102164287D01*
X164884216Y-102203575D01*
X164878200Y-102226026D01*
X164178900Y-102226026D01*
X164178900Y-100019670D01*
X164183744Y-99989081D01*
X164191291Y-99965850D01*
X164215440Y-99926441D01*
X165043702Y-99098179D01*
X165068754Y-99079978D01*
X165090521Y-99068888D01*
X165135462Y-99058100D01*
X165211074Y-99058100D01*
X165211075Y-99058100D01*
X165351085Y-99020584D01*
X165351086Y-99020583D01*
X165351088Y-99020582D01*
X165351089Y-99020582D01*
X165470480Y-98951651D01*
X165473368Y-98950248D01*
X165474154Y-98949731D01*
X165479163Y-98946637D01*
X165480462Y-98945886D01*
X165485820Y-98938903D01*
X165579109Y-98845615D01*
X165603751Y-98802934D01*
X165651582Y-98720089D01*
X165651582Y-98720087D01*
X165651584Y-98720085D01*
X165689100Y-98580075D01*
X165689100Y-98435125D01*
X165651584Y-98295115D01*
X165651582Y-98295112D01*
X165651582Y-98295110D01*
X165651581Y-98295108D01*
X165651490Y-98294768D01*
X165649997Y-98292364D01*
X165580585Y-98172139D01*
X165579405Y-98169947D01*
X165579217Y-98169694D01*
X165579110Y-98169587D01*
X165579109Y-98169585D01*
X165476615Y-98067091D01*
X165476612Y-98067089D01*
X165476610Y-98067087D01*
X165408374Y-98027691D01*
X165387341Y-98004331D01*
X165321497Y-97986687D01*
X165321496Y-97986687D01*
X165211075Y-97957100D01*
X165211073Y-97957100D01*
X165066123Y-97957100D01*
X165004388Y-97973641D01*
X165004387Y-97973640D01*
X164926112Y-97994615D01*
X164926106Y-97994618D01*
X164800593Y-98067083D01*
X164698083Y-98169593D01*
X164625618Y-98295105D01*
X164588100Y-98435126D01*
X164588100Y-98505729D01*
X164583254Y-98536322D01*
X164575707Y-98559549D01*
X164551557Y-98598960D01*
X164044801Y-99105717D01*
X163547930Y-99602588D01*
X163527665Y-99637690D01*
X163527612Y-99637781D01*
X163527608Y-99637787D01*
X163516223Y-99657501D01*
X163516224Y-99657502D01*
X163501788Y-99682504D01*
X163477900Y-99771658D01*
X163477900Y-118351687D01*
X163473054Y-118382280D01*
X163465507Y-118405507D01*
X163441357Y-118444918D01*
X163414190Y-118472085D01*
X163389129Y-118490292D01*
X163379386Y-118495256D01*
X163318954Y-118504826D01*
X163264438Y-118477047D01*
X163238177Y-118430152D01*
X163236834Y-118424557D01*
X163234100Y-118401450D01*
X163234100Y-95802957D01*
X163224462Y-95766988D01*
X163210214Y-95713812D01*
X163164069Y-95633888D01*
X163164068Y-95633887D01*
X163098817Y-95568635D01*
X163098816Y-95568634D01*
X163097241Y-95567059D01*
X163097218Y-95567037D01*
X162950084Y-95419902D01*
X162931878Y-95394843D01*
X162920790Y-95373081D01*
X162910000Y-95328137D01*
X162910000Y-95252527D01*
X162910000Y-95252525D01*
X162872484Y-95112515D01*
X162872482Y-95112512D01*
X162872482Y-95112510D01*
X162872481Y-95112508D01*
X162872390Y-95112168D01*
X162870897Y-95109764D01*
X162801485Y-94989539D01*
X162800305Y-94987347D01*
X162800117Y-94987094D01*
X162800010Y-94986987D01*
X162800009Y-94986985D01*
X162697515Y-94884491D01*
X162697512Y-94884489D01*
X162697510Y-94884487D01*
X162629274Y-94845091D01*
X162608241Y-94821731D01*
X162542397Y-94804087D01*
X162542396Y-94804087D01*
X162431975Y-94774500D01*
X162431973Y-94774500D01*
X162287023Y-94774500D01*
X162225288Y-94791041D01*
X162225287Y-94791040D01*
X162147012Y-94812015D01*
X162147006Y-94812018D01*
X162021493Y-94884483D01*
X161918983Y-94986993D01*
X161846516Y-95112510D01*
X161846239Y-95113244D01*
X161845692Y-95115587D01*
X161809000Y-95252525D01*
X161809000Y-95397475D01*
X161838587Y-95507896D01*
X161843165Y-95524982D01*
X161846517Y-95537491D01*
X161846518Y-95537492D01*
X161918985Y-95663008D01*
X161918987Y-95663010D01*
X161918989Y-95663012D01*
X161918991Y-95663015D01*
X162021485Y-95765509D01*
X162021487Y-95765510D01*
X162021594Y-95765617D01*
X162021845Y-95765803D01*
X162024046Y-95766988D01*
X162144257Y-95836392D01*
X162146670Y-95837890D01*
X162147008Y-95837980D01*
X162147011Y-95837982D01*
X162147012Y-95837982D01*
X162147015Y-95837984D01*
X162287025Y-95875500D01*
X162357631Y-95875500D01*
X162388222Y-95880345D01*
X162400559Y-95884353D01*
X162411448Y-95887891D01*
X162450861Y-95912042D01*
X162493017Y-95954198D01*
X162511222Y-95979256D01*
X162522309Y-96001015D01*
X162533100Y-96045961D01*
X162533100Y-97031391D01*
X162528253Y-97061989D01*
X162524450Y-97073691D01*
X162488483Y-97123189D01*
X162432893Y-97142059D01*
X162419816Y-97142402D01*
X162404506Y-97141600D01*
X162404380Y-97141600D01*
X162404375Y-97141600D01*
X162259425Y-97141600D01*
X162255697Y-97142599D01*
X162210550Y-97154695D01*
X162210551Y-97154696D01*
X162119410Y-97179117D01*
X162119408Y-97179117D01*
X162119404Y-97179119D01*
X161993893Y-97251583D01*
X161891383Y-97354093D01*
X161818918Y-97479605D01*
X161803640Y-97536625D01*
X161781400Y-97619625D01*
X161781400Y-97764574D01*
X161814485Y-97888049D01*
X161818918Y-97904593D01*
X161891385Y-98030108D01*
X161891387Y-98030110D01*
X161891389Y-98030112D01*
X161891391Y-98030115D01*
X161993885Y-98132609D01*
X161993887Y-98132610D01*
X161993994Y-98132717D01*
X161994245Y-98132903D01*
X161996446Y-98134088D01*
X162116657Y-98203492D01*
X162119070Y-98204990D01*
X162119408Y-98205080D01*
X162119411Y-98205082D01*
X162119412Y-98205082D01*
X162119415Y-98205084D01*
X162259425Y-98242600D01*
X162259426Y-98242600D01*
X162259427Y-98242600D01*
X162404375Y-98242600D01*
X162408816Y-98242600D01*
X162420583Y-98242136D01*
X162436417Y-98242965D01*
X162493540Y-98264890D01*
X162526160Y-98313703D01*
X162529021Y-98323360D01*
X162533100Y-98351482D01*
X162533100Y-100607994D01*
X162528253Y-100638592D01*
X162524450Y-100650294D01*
X162488483Y-100699792D01*
X162432894Y-100718662D01*
X162422833Y-100718926D01*
X162394611Y-100715586D01*
X162375997Y-100710598D01*
X162375997Y-100710597D01*
X162334577Y-100699500D01*
X162334575Y-100699500D01*
X162189625Y-100699500D01*
X162189623Y-100699500D01*
X162127888Y-100716041D01*
X162127887Y-100716040D01*
X162049612Y-100737015D01*
X162049606Y-100737018D01*
X161924093Y-100809483D01*
X161821583Y-100911993D01*
X161749118Y-101037505D01*
X161749117Y-101037510D01*
X161711600Y-101177525D01*
X161711600Y-101322474D01*
X161740351Y-101429774D01*
X161749118Y-101462493D01*
X161821586Y-101588010D01*
X161871518Y-101637943D01*
X161889723Y-101663000D01*
X161900809Y-101684757D01*
X161911600Y-101729703D01*
X161911600Y-114798158D01*
X161906753Y-114828755D01*
X161900888Y-114846803D01*
X161872984Y-114889772D01*
X161869837Y-114892606D01*
X161853089Y-114904776D01*
X161766990Y-114954486D01*
X161664486Y-115056990D01*
X161592015Y-115182513D01*
X161592014Y-115182516D01*
X161590717Y-115187359D01*
X161590717Y-115187362D01*
X161554500Y-115322526D01*
X161554500Y-115467477D01*
X161564692Y-115505512D01*
X161564692Y-115505514D01*
X161564693Y-115505514D01*
X161592018Y-115607493D01*
X161664485Y-115733008D01*
X161664487Y-115733010D01*
X161664489Y-115733012D01*
X161664491Y-115733015D01*
X161766985Y-115835509D01*
X161766987Y-115835510D01*
X161767094Y-115835617D01*
X161767345Y-115835803D01*
X161769538Y-115836984D01*
X161827398Y-115870389D01*
X161889757Y-115906392D01*
X161892170Y-115907890D01*
X161892508Y-115907980D01*
X161892511Y-115907982D01*
X161892512Y-115907982D01*
X161892515Y-115907984D01*
X162032525Y-115945500D01*
X162032526Y-115945500D01*
X162177474Y-115945500D01*
X162177475Y-115945500D01*
X162317485Y-115907984D01*
X162371027Y-115877070D01*
X162399934Y-115865974D01*
X162411085Y-115863604D01*
X162471934Y-115870003D01*
X162517389Y-115910924D01*
X162518065Y-115912094D01*
X162519826Y-115915145D01*
X162533100Y-115964661D01*
X162533100Y-119870629D01*
X162528254Y-119901222D01*
X162520707Y-119924449D01*
X162496557Y-119963860D01*
X160593200Y-121867217D01*
X160568143Y-121885421D01*
X160546385Y-121896508D01*
X160501438Y-121907300D01*
X160425823Y-121907300D01*
X160364088Y-121923841D01*
X160364087Y-121923840D01*
X160285812Y-121944815D01*
X160285806Y-121944818D01*
X160160293Y-122017283D01*
X160057783Y-122119793D01*
X159985318Y-122245305D01*
X159985317Y-122245310D01*
X159947800Y-122385325D01*
X158221700Y-122385325D01*
X158221700Y-97395911D01*
X158226545Y-97365320D01*
X158232836Y-97345957D01*
X158234092Y-97342090D01*
X158258243Y-97302679D01*
X158311709Y-97249215D01*
X158366280Y-97154696D01*
X158384182Y-97123689D01*
X158384182Y-97123687D01*
X158384184Y-97123685D01*
X158421700Y-96983675D01*
X158421700Y-96838725D01*
X158410258Y-96796025D01*
X160180300Y-96796025D01*
X160180300Y-96940974D01*
X160191742Y-96983675D01*
X160217818Y-97080993D01*
X160290285Y-97206508D01*
X160290287Y-97206510D01*
X160290289Y-97206512D01*
X160290291Y-97206515D01*
X160392785Y-97309009D01*
X160392787Y-97309010D01*
X160392894Y-97309117D01*
X160393145Y-97309303D01*
X160395338Y-97310484D01*
X160470865Y-97354089D01*
X160515557Y-97379892D01*
X160517970Y-97381390D01*
X160518308Y-97381480D01*
X160518311Y-97381482D01*
X160518312Y-97381482D01*
X160518315Y-97381484D01*
X160658325Y-97419000D01*
X160658326Y-97419000D01*
X160803274Y-97419000D01*
X160803275Y-97419000D01*
X160943285Y-97381484D01*
X160943286Y-97381483D01*
X160943288Y-97381482D01*
X160943289Y-97381482D01*
X161062680Y-97312551D01*
X161065568Y-97311148D01*
X161066354Y-97310631D01*
X161071363Y-97307537D01*
X161072662Y-97306786D01*
X161078020Y-97299803D01*
X161171309Y-97206515D01*
X161201227Y-97154696D01*
X161243782Y-97080989D01*
X161243782Y-97080987D01*
X161243784Y-97080985D01*
X161281300Y-96940975D01*
X161281300Y-96796025D01*
X161243784Y-96656015D01*
X161243782Y-96656012D01*
X161243782Y-96656010D01*
X161243781Y-96656008D01*
X161243690Y-96655668D01*
X161242197Y-96653264D01*
X161172785Y-96533039D01*
X161171605Y-96530847D01*
X161171417Y-96530594D01*
X161171310Y-96530487D01*
X161171309Y-96530485D01*
X161068815Y-96427991D01*
X161068812Y-96427989D01*
X161068810Y-96427987D01*
X161000574Y-96388591D01*
X160979541Y-96365231D01*
X160913697Y-96347587D01*
X160913696Y-96347587D01*
X160803275Y-96318000D01*
X160803273Y-96318000D01*
X160658323Y-96318000D01*
X160596588Y-96334541D01*
X160596587Y-96334540D01*
X160518312Y-96355515D01*
X160518306Y-96355518D01*
X160392793Y-96427983D01*
X160290283Y-96530493D01*
X160217818Y-96656005D01*
X160204842Y-96704433D01*
X160180300Y-96796025D01*
X158410258Y-96796025D01*
X158384184Y-96698715D01*
X158384182Y-96698711D01*
X158384182Y-96698710D01*
X158354443Y-96647200D01*
X158313185Y-96575739D01*
X158312005Y-96573547D01*
X158311817Y-96573294D01*
X158311710Y-96573187D01*
X158311709Y-96573185D01*
X158209215Y-96470691D01*
X158209212Y-96470689D01*
X158209210Y-96470687D01*
X158209209Y-96470686D01*
X158140975Y-96431291D01*
X158119941Y-96407930D01*
X158043749Y-96387515D01*
X158005406Y-96377241D01*
X157943675Y-96360700D01*
X157943674Y-96360700D01*
X157798723Y-96360700D01*
X157736988Y-96377241D01*
X157736987Y-96377240D01*
X157658712Y-96398215D01*
X157658706Y-96398218D01*
X157533193Y-96470683D01*
X157430686Y-96573190D01*
X157362645Y-96691039D01*
X157352190Y-96705833D01*
X157342627Y-96717030D01*
X157290458Y-96748999D01*
X157229461Y-96744199D01*
X157182935Y-96704463D01*
X157182917Y-96704433D01*
X157182271Y-96703378D01*
X157167700Y-96651680D01*
X157167700Y-94527557D01*
X157167234Y-94525818D01*
X157143814Y-94438412D01*
X157134578Y-94422415D01*
X157134578Y-94422414D01*
X157097670Y-94358488D01*
X156911884Y-94172701D01*
X156893678Y-94147642D01*
X156882590Y-94125880D01*
X156871800Y-94080936D01*
X156871800Y-94005326D01*
X156871799Y-94005322D01*
X156864110Y-93976623D01*
X156864110Y-93976622D01*
X156849332Y-93921476D01*
X156834284Y-93865315D01*
X156834282Y-93865312D01*
X156834282Y-93865310D01*
X156834281Y-93865309D01*
X156834191Y-93864971D01*
X156832697Y-93862564D01*
X156763285Y-93742339D01*
X156762105Y-93740147D01*
X156761917Y-93739894D01*
X156761810Y-93739787D01*
X156761809Y-93739785D01*
X156659315Y-93637291D01*
X156659312Y-93637289D01*
X156659310Y-93637287D01*
X156591074Y-93597891D01*
X156570041Y-93574531D01*
X156504197Y-93556887D01*
X156504196Y-93556887D01*
X156393775Y-93527300D01*
X156393773Y-93527300D01*
X156248825Y-93527300D01*
X156224193Y-93533899D01*
X156224194Y-93533900D01*
X156108810Y-93564817D01*
X156108808Y-93564817D01*
X156108804Y-93564819D01*
X155983293Y-93637283D01*
X155983284Y-93637290D01*
X155983279Y-93637296D01*
X155964588Y-93655986D01*
X155939527Y-93674193D01*
X155927644Y-93680247D01*
X155867219Y-93689817D01*
X155862186Y-93689020D01*
X155807668Y-93661244D01*
X155807668Y-93661243D01*
X155790314Y-93643890D01*
X155790311Y-93643888D01*
X155790310Y-93643887D01*
X155722074Y-93604491D01*
X155701041Y-93581131D01*
X155635197Y-93563487D01*
X155635196Y-93563487D01*
X155524775Y-93533900D01*
X155524773Y-93533900D01*
X155379823Y-93533900D01*
X155318088Y-93550441D01*
X155318087Y-93550440D01*
X155239812Y-93571415D01*
X155239806Y-93571418D01*
X155114293Y-93643883D01*
X155011783Y-93746393D01*
X154939318Y-93871905D01*
X154939317Y-93871910D01*
X154901800Y-94011925D01*
X154901800Y-94156874D01*
X154903070Y-94161613D01*
X154939318Y-94296893D01*
X155011785Y-94422408D01*
X155011787Y-94422410D01*
X155011789Y-94422412D01*
X155011791Y-94422415D01*
X155114285Y-94524909D01*
X155114290Y-94524912D01*
X155115471Y-94525818D01*
X155128775Y-94538115D01*
X155142890Y-94553789D01*
X155166154Y-94599444D01*
X155167036Y-94603595D01*
X155169200Y-94624174D01*
X155169200Y-95919823D01*
X155164353Y-95950421D01*
X155160550Y-95962123D01*
X155124583Y-96011621D01*
X155068994Y-96030491D01*
X155058933Y-96030755D01*
X155030717Y-96027417D01*
X155020577Y-96024700D01*
X155020575Y-96024700D01*
X154875625Y-96024700D01*
X154836106Y-96035288D01*
X154836107Y-96035289D01*
X154735610Y-96062217D01*
X154735608Y-96062217D01*
X154735604Y-96062219D01*
X154610093Y-96134683D01*
X154507583Y-96237193D01*
X154435118Y-96362705D01*
X154397600Y-96502726D01*
X154397600Y-96573328D01*
X154392754Y-96603921D01*
X154385207Y-96627148D01*
X154361057Y-96666559D01*
X133075052Y-117952563D01*
X133054549Y-117968295D01*
X133032748Y-117980882D01*
X133011999Y-117989478D01*
X133012061Y-117989656D01*
X133009082Y-117990687D01*
X133008890Y-117990767D01*
X133008722Y-117990812D01*
X133008717Y-117990813D01*
X133008712Y-117990816D01*
X133008709Y-117990817D01*
X132883191Y-118063285D01*
X132780683Y-118165793D01*
X132708216Y-118291310D01*
X132707939Y-118292044D01*
X132707392Y-118294387D01*
X132670700Y-118431325D01*
X132670700Y-118576275D01*
X132671799Y-118580376D01*
X132671800Y-118580380D01*
X132708216Y-118716287D01*
X132708217Y-118716289D01*
X132724330Y-118744199D01*
X132735429Y-118773113D01*
X132738202Y-118786159D01*
X132731806Y-118847008D01*
X132727312Y-118857102D01*
X132706875Y-118886840D01*
X124184300Y-127409417D01*
X124159243Y-127427621D01*
X124137485Y-127438708D01*
X124092538Y-127449500D01*
X124012922Y-127449500D01*
X124000518Y-127449987D01*
X123984772Y-127449161D01*
X123927651Y-127427231D01*
X123895034Y-127378410D01*
X123892176Y-127368760D01*
X123888100Y-127340647D01*
X123888100Y-115488881D01*
X123892944Y-115458292D01*
X123895501Y-115450422D01*
X123900491Y-115435061D01*
X123924640Y-115395652D01*
X133554913Y-105765379D01*
X133579965Y-105747178D01*
X133601732Y-105736088D01*
X133646673Y-105725300D01*
X133651574Y-105725300D01*
X133651575Y-105725300D01*
X133791585Y-105687784D01*
X133791586Y-105687783D01*
X133791588Y-105687782D01*
X133791589Y-105687782D01*
X133910980Y-105618851D01*
X133913868Y-105617448D01*
X133914654Y-105616931D01*
X133919663Y-105613837D01*
X133920962Y-105613086D01*
X133926320Y-105606103D01*
X134019609Y-105512815D01*
X134061355Y-105440509D01*
X134063437Y-105436904D01*
X134071095Y-105423637D01*
X134092082Y-105387289D01*
X134092082Y-105387287D01*
X134092084Y-105387285D01*
X134129600Y-105247275D01*
X134129600Y-105102325D01*
X134092084Y-104962315D01*
X134092082Y-104962312D01*
X134092082Y-104962310D01*
X134092081Y-104962308D01*
X134091990Y-104961968D01*
X134090497Y-104959564D01*
X134021085Y-104839339D01*
X134019905Y-104837147D01*
X134019717Y-104836894D01*
X134019610Y-104836787D01*
X134019609Y-104836785D01*
X133917115Y-104734291D01*
X133917112Y-104734289D01*
X133917110Y-104734287D01*
X133848874Y-104694891D01*
X133827841Y-104671531D01*
X133761997Y-104653887D01*
X133761996Y-104653887D01*
X133651575Y-104624300D01*
X133651573Y-104624300D01*
X133506623Y-104624300D01*
X133444888Y-104640841D01*
X133444887Y-104640840D01*
X133366612Y-104661815D01*
X133366606Y-104661818D01*
X133241093Y-104734283D01*
X133138583Y-104836793D01*
X133066118Y-104962305D01*
X133028599Y-105102327D01*
X133027753Y-105108759D01*
X133027567Y-105108734D01*
X133023754Y-105132811D01*
X133016207Y-105156038D01*
X132992057Y-105195449D01*
X123167115Y-115020392D01*
X123114389Y-115111716D01*
X123114347Y-115111801D01*
X123114007Y-115113152D01*
X123095422Y-115182514D01*
X123087100Y-115213573D01*
X123087100Y-128317724D01*
X123087099Y-128317727D01*
X123092534Y-128338006D01*
X123092534Y-128338009D01*
X123092535Y-128338009D01*
X123092535Y-128338010D01*
X123114394Y-128419592D01*
X123114395Y-128419595D01*
X123167116Y-128510909D01*
X123625603Y-128969397D01*
X123625604Y-128969397D01*
X123968050Y-129311843D01*
X123983783Y-129332348D01*
X123996370Y-129354150D01*
X124006258Y-129378023D01*
X124020868Y-129432544D01*
X124020869Y-129432547D01*
X124020868Y-129432547D01*
X124022915Y-129440184D01*
X124022918Y-129440191D01*
X124095385Y-129565708D01*
X124095387Y-129565710D01*
X124095389Y-129565712D01*
X124095391Y-129565715D01*
X124197885Y-129668209D01*
X124197887Y-129668210D01*
X124197994Y-129668317D01*
X124198245Y-129668503D01*
X124200438Y-129669684D01*
X124257451Y-129702600D01*
X124320657Y-129739092D01*
X124323070Y-129740590D01*
X124323408Y-129740680D01*
X124323411Y-129740682D01*
X124323412Y-129740682D01*
X124323415Y-129740684D01*
X124463425Y-129778200D01*
X124463426Y-129778200D01*
X124608374Y-129778200D01*
X124608375Y-129778200D01*
X124748385Y-129740684D01*
X124748386Y-129740683D01*
X124748388Y-129740682D01*
X124748389Y-129740682D01*
X124867780Y-129671751D01*
X124870668Y-129670348D01*
X124871454Y-129669831D01*
X124876463Y-129666737D01*
X124877762Y-129665986D01*
X124883120Y-129659003D01*
X124976409Y-129565715D01*
X124998791Y-129526948D01*
X125048882Y-129440189D01*
X125048882Y-129440187D01*
X125048884Y-129440185D01*
X125086400Y-129300175D01*
X125086400Y-129155225D01*
X125048884Y-129015215D01*
X125048882Y-129015212D01*
X125048882Y-129015210D01*
X125048881Y-129015208D01*
X125048790Y-129014868D01*
X125047297Y-129012464D01*
X124977885Y-128892239D01*
X124976705Y-128890047D01*
X124976517Y-128889794D01*
X124976410Y-128889687D01*
X124976409Y-128889685D01*
X124873915Y-128787191D01*
X124873912Y-128787189D01*
X124873910Y-128787187D01*
X124805674Y-128747791D01*
X124784641Y-128724431D01*
X124718797Y-128706787D01*
X124718796Y-128706787D01*
X124608375Y-128677200D01*
X124608374Y-128677200D01*
X124608373Y-128677200D01*
X124522881Y-128677200D01*
X124492288Y-128672354D01*
X124469061Y-128664807D01*
X124429650Y-128640657D01*
X124404259Y-128615266D01*
X124386054Y-128590208D01*
X124380469Y-128579247D01*
X124370897Y-128518815D01*
X124396863Y-128466157D01*
X124403796Y-128458851D01*
X124426116Y-128441258D01*
X124427415Y-128440509D01*
X124529909Y-128338015D01*
X124541622Y-128317727D01*
X124602382Y-128212489D01*
X124602382Y-128212487D01*
X124602384Y-128212485D01*
X124639900Y-128072475D01*
X124639900Y-128001869D01*
X124644744Y-127971280D01*
X124652291Y-127948049D01*
X124676440Y-127908640D01*
X126598360Y-125986719D01*
X126623419Y-125968515D01*
X126633569Y-125963344D01*
X126694001Y-125953776D01*
X126748513Y-125981552D01*
X126751958Y-125984997D01*
X126777580Y-126029377D01*
X126807864Y-126142393D01*
X126812015Y-126157884D01*
X126812017Y-126157888D01*
X126812019Y-126157892D01*
X126812025Y-126157904D01*
X126884488Y-126283412D01*
X126934418Y-126333343D01*
X126952623Y-126358400D01*
X126963709Y-126380157D01*
X126974500Y-126425103D01*
X126974500Y-129473128D01*
X126969654Y-129503721D01*
X126962107Y-129526948D01*
X126937957Y-129566359D01*
X114867990Y-141636325D01*
X114842931Y-141654531D01*
X114828288Y-141661992D01*
X114773461Y-141672288D01*
X114765028Y-141671442D01*
X114740314Y-141665694D01*
X114727485Y-141660909D01*
X114703639Y-141658345D01*
X114667873Y-141654500D01*
X114667870Y-141654500D01*
X113323938Y-141654500D01*
X113317975Y-141656021D01*
X113309069Y-141656978D01*
X113272520Y-141660907D01*
X113272514Y-141660908D01*
X113272514Y-141660909D01*
X113272506Y-141660912D01*
X113137671Y-141711200D01*
X113022456Y-141797451D01*
X113022454Y-141797453D01*
X113022451Y-141797456D01*
X113022450Y-141797458D01*
X113012013Y-141811400D01*
X112936200Y-141912671D01*
X112885912Y-142047504D01*
X112885910Y-142047508D01*
X112885910Y-142047511D01*
X112885908Y-142047522D01*
X112879500Y-142107129D01*
X100500000Y-142107129D01*
X100500000Y-130180625D01*
X120414400Y-130180625D01*
X120414400Y-130325574D01*
X120447485Y-130449049D01*
X120451918Y-130465593D01*
X120524385Y-130591108D01*
X120524387Y-130591110D01*
X120524389Y-130591112D01*
X120524391Y-130591115D01*
X120626885Y-130693609D01*
X120626887Y-130693610D01*
X120626994Y-130693717D01*
X120627245Y-130693903D01*
X120629438Y-130695084D01*
X120675700Y-130721793D01*
X120749657Y-130764492D01*
X120752070Y-130765990D01*
X120752408Y-130766080D01*
X120752411Y-130766082D01*
X120752412Y-130766082D01*
X120752415Y-130766084D01*
X120892425Y-130803600D01*
X120892426Y-130803600D01*
X121037374Y-130803600D01*
X121037375Y-130803600D01*
X121177385Y-130766084D01*
X121177386Y-130766083D01*
X121177388Y-130766082D01*
X121177389Y-130766082D01*
X121296780Y-130697151D01*
X121299668Y-130695748D01*
X121300454Y-130695231D01*
X121305463Y-130692137D01*
X121306762Y-130691386D01*
X121312120Y-130684403D01*
X121405409Y-130591115D01*
X121405413Y-130591108D01*
X121477882Y-130465589D01*
X121477882Y-130465587D01*
X121477884Y-130465585D01*
X121515400Y-130325575D01*
X121515400Y-130180625D01*
X121477884Y-130040615D01*
X121477882Y-130040612D01*
X121477882Y-130040610D01*
X121477881Y-130040608D01*
X121477790Y-130040268D01*
X121476297Y-130037864D01*
X121406885Y-129917639D01*
X121405705Y-129915447D01*
X121405517Y-129915194D01*
X121405410Y-129915087D01*
X121405409Y-129915085D01*
X121302915Y-129812591D01*
X121302912Y-129812589D01*
X121302910Y-129812587D01*
X121234674Y-129773191D01*
X121213641Y-129749831D01*
X121147797Y-129732187D01*
X121147796Y-129732187D01*
X121037375Y-129702600D01*
X121037373Y-129702600D01*
X120892423Y-129702600D01*
X120830688Y-129719141D01*
X120830687Y-129719140D01*
X120752412Y-129740115D01*
X120752406Y-129740118D01*
X120626893Y-129812583D01*
X120524383Y-129915093D01*
X120451918Y-130040605D01*
X120430942Y-130118887D01*
X120414400Y-130180625D01*
X100500000Y-130180625D01*
X100500000Y-115877965D01*
X110949500Y-115877965D01*
X110949500Y-116122033D01*
X110987675Y-116363066D01*
X111060765Y-116588010D01*
X111063096Y-116595185D01*
X111156145Y-116777807D01*
X111173894Y-116812640D01*
X111252347Y-116920623D01*
X111317340Y-117010077D01*
X111317342Y-117010079D01*
X111317345Y-117010083D01*
X111489917Y-117182655D01*
X111489920Y-117182657D01*
X111489922Y-117182659D01*
X111547554Y-117224530D01*
X111633367Y-117286876D01*
X111633368Y-117286878D01*
X111669231Y-117312933D01*
X111687362Y-117326107D01*
X111796088Y-117381505D01*
X111904815Y-117436904D01*
X112136822Y-117512288D01*
X112136923Y-117512321D01*
X112136926Y-117512321D01*
X112136928Y-117512322D01*
X112210328Y-117523947D01*
X112377967Y-117550500D01*
X112622030Y-117550500D01*
X112622032Y-117550500D01*
X112696080Y-117538771D01*
X112863071Y-117512322D01*
X112863071Y-117512321D01*
X112863073Y-117512321D01*
X112863076Y-117512321D01*
X112863079Y-117512320D01*
X112865655Y-117511912D01*
X112870462Y-117509920D01*
X113095185Y-117436904D01*
X113312639Y-117326106D01*
X113510083Y-117182655D01*
X113682655Y-117010083D01*
X113826106Y-116812639D01*
X113936904Y-116595185D01*
X114012321Y-116363076D01*
X114020314Y-116312612D01*
X114050500Y-116122030D01*
X114050500Y-115877969D01*
X114050499Y-115877965D01*
X114025976Y-115723132D01*
X114012322Y-115636928D01*
X114002757Y-115607489D01*
X113936904Y-115404815D01*
X113826106Y-115187361D01*
X113822584Y-115182514D01*
X113771144Y-115111712D01*
X113682655Y-114989917D01*
X113510083Y-114817345D01*
X113357504Y-114706490D01*
X113336984Y-114691581D01*
X113312642Y-114673895D01*
X113312636Y-114673891D01*
X113095185Y-114563096D01*
X112863066Y-114487675D01*
X112622033Y-114449500D01*
X112622030Y-114449500D01*
X112622027Y-114449500D01*
X112377973Y-114449500D01*
X112377970Y-114449500D01*
X112377967Y-114449500D01*
X112136932Y-114487675D01*
X111904813Y-114563096D01*
X111687363Y-114673890D01*
X111489919Y-114817343D01*
X111317343Y-114989919D01*
X111173892Y-115187362D01*
X111063096Y-115404813D01*
X110987675Y-115636932D01*
X110949500Y-115877965D01*
X100500000Y-115877965D01*
X100500000Y-103877965D01*
X110949500Y-103877965D01*
X110949500Y-104122033D01*
X110987675Y-104363066D01*
X111063096Y-104595185D01*
X111154471Y-104774522D01*
X111173892Y-104812637D01*
X111177644Y-104817801D01*
X111317345Y-105010083D01*
X111489917Y-105182655D01*
X111489920Y-105182657D01*
X111489922Y-105182659D01*
X111547554Y-105224530D01*
X111633367Y-105286876D01*
X111633368Y-105286878D01*
X111661186Y-105307089D01*
X111687362Y-105326107D01*
X111750292Y-105358171D01*
X111904815Y-105436904D01*
X112016179Y-105473088D01*
X112043777Y-105487150D01*
X112054568Y-105494990D01*
X112090532Y-105544490D01*
X112094654Y-105557176D01*
X112099500Y-105587769D01*
X112099500Y-109334819D01*
X112094654Y-109365412D01*
X112090532Y-109378098D01*
X112054580Y-109427589D01*
X112050459Y-109430584D01*
X111992271Y-109449500D01*
X111175322Y-109449500D01*
X111175318Y-109449500D01*
X111175315Y-109449501D01*
X111139039Y-109456717D01*
X111102261Y-109464033D01*
X111102256Y-109464035D01*
X111019403Y-109519394D01*
X111019394Y-109519403D01*
X110964035Y-109602256D01*
X110964033Y-109602261D01*
X110949500Y-109675320D01*
X110949500Y-112324678D01*
X110949500Y-112324682D01*
X110949501Y-112324684D01*
X110964033Y-112397736D01*
X110964035Y-112397742D01*
X111019397Y-112480599D01*
X111019399Y-112480601D01*
X111019402Y-112480603D01*
X111019404Y-112480605D01*
X111102260Y-112535966D01*
X111157807Y-112547015D01*
X111157808Y-112547015D01*
X111169240Y-112549289D01*
X111171405Y-112549863D01*
X111173579Y-112550216D01*
X111175152Y-112550500D01*
X111175326Y-112550500D01*
X111175327Y-112550500D01*
X113824673Y-112550500D01*
X113824674Y-112550500D01*
X113897740Y-112535966D01*
X113980601Y-112480601D01*
X114035966Y-112397740D01*
X114050500Y-112324674D01*
X114050500Y-109675326D01*
X114035966Y-109602260D01*
X113980601Y-109519399D01*
X113980599Y-109519397D01*
X113980595Y-109519394D01*
X113980593Y-109519392D01*
X113897748Y-109464038D01*
X113897737Y-109464032D01*
X113897534Y-109463964D01*
X113895997Y-109463687D01*
X113824694Y-109449503D01*
X113824684Y-109449501D01*
X113824679Y-109449500D01*
X113824676Y-109449500D01*
X113824674Y-109449500D01*
X113824673Y-109449500D01*
X113015180Y-109449500D01*
X112984587Y-109444654D01*
X112971901Y-109440532D01*
X112922401Y-109404568D01*
X112922394Y-109404558D01*
X112919400Y-109400436D01*
X112900500Y-109342256D01*
X112900500Y-105587769D01*
X112905345Y-105557178D01*
X112909467Y-105544491D01*
X112945428Y-105494991D01*
X112956223Y-105487148D01*
X112983816Y-105473089D01*
X113095185Y-105436904D01*
X113312639Y-105326106D01*
X113510083Y-105182655D01*
X113682655Y-105010083D01*
X113826106Y-104812639D01*
X113936904Y-104595185D01*
X114012321Y-104363076D01*
X114012322Y-104363071D01*
X114050500Y-104122030D01*
X114050500Y-103877969D01*
X114050499Y-103877965D01*
X114012323Y-103636934D01*
X114012322Y-103636928D01*
X114012321Y-103636924D01*
X113941684Y-103419525D01*
X138824500Y-103419525D01*
X138824500Y-103564474D01*
X138843913Y-103636924D01*
X138862018Y-103704493D01*
X138934485Y-103830008D01*
X138934487Y-103830010D01*
X138934489Y-103830012D01*
X138934491Y-103830015D01*
X139036985Y-103932509D01*
X139036987Y-103932510D01*
X139037094Y-103932617D01*
X139037345Y-103932803D01*
X139039538Y-103933984D01*
X139152107Y-103998975D01*
X139159757Y-104003392D01*
X139162170Y-104004890D01*
X139162508Y-104004980D01*
X139162511Y-104004982D01*
X139162512Y-104004982D01*
X139162515Y-104004984D01*
X139302525Y-104042500D01*
X139302526Y-104042500D01*
X139447474Y-104042500D01*
X139447475Y-104042500D01*
X139587485Y-104004984D01*
X139587486Y-104004983D01*
X139587488Y-104004982D01*
X139587489Y-104004982D01*
X139706880Y-103936051D01*
X139709768Y-103934648D01*
X139710554Y-103934131D01*
X139715563Y-103931037D01*
X139716862Y-103930286D01*
X139722220Y-103923303D01*
X139815509Y-103830015D01*
X139815513Y-103830008D01*
X139887982Y-103704489D01*
X139887982Y-103704487D01*
X139887984Y-103704485D01*
X139925500Y-103564475D01*
X139925500Y-103419525D01*
X139887984Y-103279515D01*
X139887982Y-103279512D01*
X139887982Y-103279510D01*
X139887981Y-103279508D01*
X139887890Y-103279168D01*
X139886397Y-103276764D01*
X139816985Y-103156539D01*
X139815805Y-103154347D01*
X139815617Y-103154094D01*
X139815510Y-103153987D01*
X139815509Y-103153985D01*
X139713015Y-103051491D01*
X139713012Y-103051489D01*
X139713010Y-103051487D01*
X139644774Y-103012091D01*
X139623741Y-102988731D01*
X139557897Y-102971087D01*
X139557896Y-102971087D01*
X139447475Y-102941500D01*
X139447473Y-102941500D01*
X139302523Y-102941500D01*
X139240788Y-102958041D01*
X139240787Y-102958040D01*
X139162512Y-102979015D01*
X139162506Y-102979018D01*
X139036993Y-103051483D01*
X138934483Y-103153993D01*
X138862018Y-103279505D01*
X138841042Y-103357787D01*
X138824500Y-103419525D01*
X113941684Y-103419525D01*
X113936904Y-103404815D01*
X113871659Y-103276764D01*
X113826107Y-103187362D01*
X113727391Y-103051491D01*
X113682655Y-102989917D01*
X113510083Y-102817345D01*
X113510079Y-102817342D01*
X113510077Y-102817340D01*
X113402268Y-102739012D01*
X113312640Y-102673893D01*
X113312636Y-102673891D01*
X113095185Y-102563096D01*
X112863066Y-102487675D01*
X112622033Y-102449500D01*
X112622030Y-102449500D01*
X112622027Y-102449500D01*
X112377973Y-102449500D01*
X112377970Y-102449500D01*
X112377967Y-102449500D01*
X112136932Y-102487675D01*
X111904813Y-102563096D01*
X111687363Y-102673890D01*
X111489919Y-102817343D01*
X111317343Y-102989919D01*
X111173890Y-103187363D01*
X111063096Y-103404813D01*
X110987675Y-103636932D01*
X110949500Y-103877965D01*
X100500000Y-103877965D01*
X100500000Y-101284825D01*
X139613900Y-101284825D01*
X139613900Y-101429774D01*
X139622666Y-101462489D01*
X139651418Y-101569793D01*
X139723885Y-101695308D01*
X139723887Y-101695310D01*
X139723889Y-101695312D01*
X139723891Y-101695315D01*
X139826385Y-101797809D01*
X139826387Y-101797810D01*
X139826494Y-101797917D01*
X139826745Y-101798103D01*
X139828938Y-101799284D01*
X139930615Y-101857987D01*
X139949157Y-101868692D01*
X139951570Y-101870190D01*
X139951908Y-101870280D01*
X139951911Y-101870282D01*
X139951912Y-101870282D01*
X139951915Y-101870284D01*
X140091925Y-101907800D01*
X140091926Y-101907800D01*
X140236874Y-101907800D01*
X140236875Y-101907800D01*
X140376885Y-101870284D01*
X140376886Y-101870283D01*
X140376888Y-101870282D01*
X140376889Y-101870282D01*
X140496280Y-101801351D01*
X140499168Y-101799948D01*
X140499954Y-101799431D01*
X140504963Y-101796337D01*
X140506262Y-101795586D01*
X140511620Y-101788603D01*
X140604909Y-101695315D01*
X140604912Y-101695310D01*
X140677382Y-101569789D01*
X140677382Y-101569787D01*
X140677384Y-101569785D01*
X140714900Y-101429775D01*
X140714900Y-101359170D01*
X140719744Y-101328581D01*
X140721729Y-101322472D01*
X140727291Y-101305350D01*
X140751440Y-101265941D01*
X142965056Y-99052325D01*
X144722600Y-99052325D01*
X144722600Y-99197274D01*
X144742945Y-99273203D01*
X144760118Y-99337293D01*
X144832585Y-99462808D01*
X144832587Y-99462810D01*
X144832589Y-99462812D01*
X144832591Y-99462815D01*
X144935085Y-99565309D01*
X144935087Y-99565310D01*
X144935194Y-99565417D01*
X144935445Y-99565603D01*
X144937638Y-99566784D01*
X144999653Y-99602588D01*
X145057857Y-99636192D01*
X145060270Y-99637690D01*
X145060608Y-99637780D01*
X145060611Y-99637782D01*
X145060612Y-99637782D01*
X145060615Y-99637784D01*
X145200625Y-99675300D01*
X145200626Y-99675300D01*
X145345574Y-99675300D01*
X145345575Y-99675300D01*
X145485585Y-99637784D01*
X145485586Y-99637783D01*
X145485588Y-99637782D01*
X145485589Y-99637782D01*
X145604980Y-99568851D01*
X145607868Y-99567448D01*
X145608654Y-99566931D01*
X145613663Y-99563837D01*
X145614962Y-99563086D01*
X145620320Y-99556103D01*
X145713609Y-99462815D01*
X145781409Y-99345382D01*
X145786082Y-99337289D01*
X145786082Y-99337287D01*
X145786084Y-99337285D01*
X145823600Y-99197275D01*
X145823600Y-99052325D01*
X145786084Y-98912315D01*
X145781788Y-98904874D01*
X145722934Y-98802936D01*
X145722933Y-98802933D01*
X145714952Y-98789112D01*
X145713609Y-98786785D01*
X145686749Y-98759925D01*
X146090800Y-98759925D01*
X146090800Y-98904875D01*
X146120387Y-99015296D01*
X146124965Y-99032382D01*
X146128317Y-99044891D01*
X146128318Y-99044892D01*
X146200785Y-99170408D01*
X146200787Y-99170410D01*
X146200789Y-99170412D01*
X146200791Y-99170415D01*
X146303285Y-99272909D01*
X146303287Y-99272910D01*
X146303394Y-99273017D01*
X146303645Y-99273203D01*
X146305838Y-99274384D01*
X146414787Y-99337285D01*
X146426057Y-99343792D01*
X146428470Y-99345290D01*
X146428808Y-99345380D01*
X146428811Y-99345382D01*
X146428812Y-99345382D01*
X146428815Y-99345384D01*
X146568825Y-99382900D01*
X146568826Y-99382900D01*
X146713774Y-99382900D01*
X146713775Y-99382900D01*
X146853785Y-99345384D01*
X146853786Y-99345383D01*
X146853788Y-99345382D01*
X146853789Y-99345382D01*
X146973180Y-99276451D01*
X146976068Y-99275048D01*
X146976854Y-99274531D01*
X146981863Y-99271437D01*
X146983162Y-99270686D01*
X146988520Y-99263703D01*
X147081809Y-99170415D01*
X147119162Y-99105718D01*
X147154282Y-99044889D01*
X147154282Y-99044887D01*
X147154284Y-99044885D01*
X147191800Y-98904875D01*
X147191800Y-98759925D01*
X147154284Y-98619915D01*
X147154282Y-98619912D01*
X147154282Y-98619910D01*
X147154281Y-98619908D01*
X147154190Y-98619568D01*
X147152697Y-98617164D01*
X147083285Y-98496939D01*
X147082105Y-98494747D01*
X147081917Y-98494494D01*
X147081810Y-98494387D01*
X147081809Y-98494385D01*
X146979315Y-98391891D01*
X146979312Y-98391889D01*
X146979310Y-98391887D01*
X146979309Y-98391886D01*
X146911075Y-98352491D01*
X146890041Y-98329130D01*
X146763093Y-98295115D01*
X146763092Y-98295114D01*
X146726989Y-98285440D01*
X146713775Y-98281900D01*
X146713774Y-98281900D01*
X146568826Y-98281900D01*
X146568825Y-98281900D01*
X146558407Y-98284691D01*
X146519525Y-98295109D01*
X146519525Y-98295110D01*
X146428810Y-98319417D01*
X146428808Y-98319417D01*
X146428804Y-98319419D01*
X146303293Y-98391883D01*
X146200783Y-98494393D01*
X146128316Y-98619910D01*
X146128039Y-98620644D01*
X146127492Y-98622987D01*
X146101474Y-98720089D01*
X146090800Y-98759925D01*
X145686749Y-98759925D01*
X145611115Y-98684291D01*
X145611112Y-98684289D01*
X145611110Y-98684287D01*
X145542874Y-98644891D01*
X145521841Y-98621531D01*
X145455997Y-98603887D01*
X145455996Y-98603887D01*
X145345575Y-98574300D01*
X145345573Y-98574300D01*
X145200626Y-98574300D01*
X145200625Y-98574300D01*
X145180842Y-98579601D01*
X145179073Y-98580075D01*
X145060605Y-98611818D01*
X144935093Y-98684283D01*
X144832583Y-98786793D01*
X144760118Y-98912305D01*
X144749574Y-98951657D01*
X144722600Y-99052325D01*
X142965056Y-99052325D01*
X150502902Y-91514479D01*
X150527954Y-91496278D01*
X150549721Y-91485188D01*
X150594662Y-91474400D01*
X154998988Y-91474400D01*
X155029579Y-91479245D01*
X155041916Y-91483253D01*
X155052805Y-91486791D01*
X155092217Y-91510942D01*
X155145684Y-91564408D01*
X155145689Y-91564412D01*
X155268479Y-91635304D01*
X155270871Y-91636791D01*
X155271212Y-91636882D01*
X155271215Y-91636884D01*
X155411225Y-91674400D01*
X155411226Y-91674400D01*
X155556174Y-91674400D01*
X155556175Y-91674400D01*
X155696185Y-91636884D01*
X155696186Y-91636883D01*
X155696188Y-91636882D01*
X155696189Y-91636882D01*
X155815580Y-91567951D01*
X155818468Y-91566548D01*
X155819254Y-91566031D01*
X155824263Y-91562937D01*
X155825562Y-91562186D01*
X155830920Y-91555203D01*
X155924209Y-91461915D01*
X155937210Y-91439397D01*
X155996682Y-91336389D01*
X155996682Y-91336387D01*
X155996684Y-91336385D01*
X156034200Y-91196375D01*
X156034200Y-91051425D01*
X155996684Y-90911415D01*
X155996682Y-90911412D01*
X155996682Y-90911410D01*
X155996681Y-90911408D01*
X155996590Y-90911068D01*
X155995097Y-90908664D01*
X155925685Y-90788439D01*
X155924505Y-90786247D01*
X155924317Y-90785994D01*
X155924210Y-90785887D01*
X155924209Y-90785885D01*
X155821715Y-90683391D01*
X155821712Y-90683389D01*
X155821710Y-90683387D01*
X155821709Y-90683386D01*
X155753475Y-90643991D01*
X155732441Y-90620630D01*
X155628057Y-90592661D01*
X155617902Y-90589940D01*
X155556175Y-90573400D01*
X155556174Y-90573400D01*
X155411223Y-90573400D01*
X155349488Y-90589941D01*
X155349487Y-90589940D01*
X155271212Y-90610915D01*
X155271209Y-90610916D01*
X155145687Y-90683388D01*
X155145678Y-90683396D01*
X155095755Y-90733318D01*
X155070700Y-90751521D01*
X155048942Y-90762608D01*
X155003995Y-90773400D01*
X150351656Y-90773400D01*
X150295530Y-90788439D01*
X150262512Y-90797286D01*
X150182588Y-90843430D01*
X140259300Y-100766717D01*
X140234243Y-100784921D01*
X140212485Y-100796008D01*
X140167538Y-100806800D01*
X140091925Y-100806800D01*
X140083717Y-100808999D01*
X140044875Y-100819406D01*
X140044876Y-100819407D01*
X139951910Y-100844317D01*
X139951908Y-100844317D01*
X139951904Y-100844319D01*
X139826393Y-100916783D01*
X139723883Y-101019293D01*
X139651418Y-101144805D01*
X139651417Y-101144810D01*
X139613900Y-101284825D01*
X100500000Y-101284825D01*
X100500000Y-91877965D01*
X110949500Y-91877965D01*
X110949500Y-92122033D01*
X110987675Y-92363066D01*
X111063096Y-92595185D01*
X111173892Y-92812637D01*
X111246436Y-92912485D01*
X111317345Y-93010083D01*
X111489917Y-93182655D01*
X111489920Y-93182657D01*
X111583297Y-93250500D01*
X111583298Y-93250500D01*
X111687362Y-93326107D01*
X111796088Y-93381505D01*
X111904815Y-93436904D01*
X112016179Y-93473088D01*
X112043777Y-93487150D01*
X112054568Y-93494990D01*
X112090532Y-93544490D01*
X112094654Y-93557176D01*
X112099500Y-93587769D01*
X112099500Y-97334819D01*
X112094654Y-97365412D01*
X112090532Y-97378098D01*
X112054580Y-97427589D01*
X112050459Y-97430584D01*
X111992271Y-97449500D01*
X111175322Y-97449500D01*
X111175318Y-97449500D01*
X111175315Y-97449501D01*
X111139039Y-97456717D01*
X111102261Y-97464033D01*
X111102256Y-97464035D01*
X111019403Y-97519394D01*
X111019394Y-97519403D01*
X110964035Y-97602256D01*
X110964033Y-97602261D01*
X110949500Y-97675320D01*
X110949500Y-100324678D01*
X110949500Y-100324682D01*
X110949501Y-100324684D01*
X110964033Y-100397736D01*
X110964035Y-100397742D01*
X111019397Y-100480599D01*
X111019400Y-100480602D01*
X111077947Y-100519721D01*
X111102260Y-100535966D01*
X111139292Y-100543332D01*
X111157807Y-100547015D01*
X111157808Y-100547015D01*
X111169240Y-100549289D01*
X111171405Y-100549863D01*
X111173579Y-100550216D01*
X111175152Y-100550500D01*
X111175326Y-100550500D01*
X111175327Y-100550500D01*
X113824673Y-100550500D01*
X113824674Y-100550500D01*
X113897740Y-100535966D01*
X113980601Y-100480601D01*
X114035966Y-100397740D01*
X114050500Y-100324674D01*
X114050500Y-97675326D01*
X114035966Y-97602260D01*
X113980601Y-97519399D01*
X113980599Y-97519397D01*
X113980595Y-97519394D01*
X113980593Y-97519392D01*
X113897748Y-97464038D01*
X113897737Y-97464032D01*
X113897534Y-97463964D01*
X113895997Y-97463687D01*
X113824694Y-97449503D01*
X113824684Y-97449501D01*
X113824679Y-97449500D01*
X113824676Y-97449500D01*
X113824674Y-97449500D01*
X113824673Y-97449500D01*
X113015180Y-97449500D01*
X112984587Y-97444654D01*
X112971901Y-97440532D01*
X112922401Y-97404568D01*
X112922394Y-97404558D01*
X112919400Y-97400436D01*
X112900500Y-97342256D01*
X112900500Y-93587769D01*
X112905345Y-93557178D01*
X112909467Y-93544491D01*
X112945428Y-93494991D01*
X112956223Y-93487148D01*
X112983816Y-93473089D01*
X113095185Y-93436904D01*
X113312639Y-93326106D01*
X113510083Y-93182655D01*
X113682655Y-93010083D01*
X113826106Y-92812639D01*
X113936904Y-92595185D01*
X114012321Y-92363076D01*
X114038572Y-92197338D01*
X114050500Y-92122030D01*
X114050500Y-91877969D01*
X114050499Y-91877965D01*
X114018257Y-91674400D01*
X114012322Y-91636928D01*
X113968935Y-91503396D01*
X113936904Y-91404815D01*
X113880450Y-91294018D01*
X113826107Y-91187362D01*
X113826106Y-91187360D01*
X113774639Y-91116521D01*
X113774639Y-91116520D01*
X113682659Y-90989922D01*
X113682656Y-90989919D01*
X113682655Y-90989917D01*
X113510083Y-90817345D01*
X113325711Y-90683391D01*
X113312637Y-90673892D01*
X113095185Y-90563096D01*
X113061595Y-90552182D01*
X113061595Y-90552181D01*
X113035457Y-90543689D01*
X113035455Y-90543687D01*
X112961125Y-90519536D01*
X112863076Y-90487677D01*
X112863072Y-90487676D01*
X112646783Y-90453420D01*
X120900000Y-90453420D01*
X120900000Y-90626578D01*
X120927082Y-90797574D01*
X120980588Y-90962248D01*
X121059194Y-91116522D01*
X121059195Y-91116524D01*
X121093462Y-91163690D01*
X121093463Y-91163691D01*
X121512419Y-90744733D01*
X121566936Y-90716956D01*
X121627368Y-90726527D01*
X121668158Y-90765235D01*
X121679918Y-90785603D01*
X121679920Y-90785606D01*
X121754394Y-90860080D01*
X121754396Y-90860081D01*
X121774759Y-90871838D01*
X121815700Y-90917307D01*
X121822096Y-90978158D01*
X121795263Y-91027577D01*
X121376307Y-91446534D01*
X121376307Y-91446535D01*
X121397476Y-91461915D01*
X121423476Y-91480804D01*
X121577751Y-91559411D01*
X121742420Y-91612915D01*
X121742421Y-91612915D01*
X121742424Y-91612916D01*
X121913422Y-91640000D01*
X122086575Y-91640000D01*
X122086578Y-91640000D01*
X122257574Y-91612916D01*
X122257575Y-91612915D01*
X122257579Y-91612915D01*
X122422248Y-91559411D01*
X122576524Y-91480804D01*
X122576530Y-91480800D01*
X122623691Y-91446535D01*
X122204733Y-91027577D01*
X122176957Y-90973061D01*
X122186528Y-90912629D01*
X122225237Y-90871839D01*
X122245606Y-90860080D01*
X122320080Y-90785606D01*
X122331839Y-90765238D01*
X122377303Y-90724299D01*
X122438153Y-90717900D01*
X122487578Y-90744734D01*
X122906535Y-91163691D01*
X122940800Y-91116530D01*
X122940804Y-91116524D01*
X123019411Y-90962248D01*
X123072915Y-90797579D01*
X123072916Y-90797574D01*
X123100000Y-90626577D01*
X123100000Y-90453421D01*
X123100000Y-90453420D01*
X128520000Y-90453420D01*
X128520000Y-90626578D01*
X128547082Y-90797574D01*
X128600588Y-90962248D01*
X128679194Y-91116522D01*
X128679195Y-91116524D01*
X128713462Y-91163690D01*
X128713463Y-91163691D01*
X129132419Y-90744733D01*
X129186936Y-90716956D01*
X129247368Y-90726527D01*
X129288158Y-90765235D01*
X129299918Y-90785603D01*
X129299920Y-90785606D01*
X129374394Y-90860080D01*
X129374396Y-90860081D01*
X129394759Y-90871838D01*
X129435700Y-90917307D01*
X129442096Y-90978158D01*
X129415263Y-91027577D01*
X128996307Y-91446534D01*
X128996307Y-91446535D01*
X129017476Y-91461915D01*
X129043476Y-91480804D01*
X129197751Y-91559411D01*
X129362420Y-91612915D01*
X129362421Y-91612915D01*
X129362424Y-91612916D01*
X129533422Y-91640000D01*
X129706575Y-91640000D01*
X129706578Y-91640000D01*
X129877574Y-91612916D01*
X129877575Y-91612915D01*
X129877579Y-91612915D01*
X130042248Y-91559411D01*
X130196524Y-91480804D01*
X130196530Y-91480800D01*
X130243691Y-91446535D01*
X129824733Y-91027577D01*
X129796957Y-90973061D01*
X129806528Y-90912629D01*
X129845237Y-90871839D01*
X129865606Y-90860080D01*
X129940080Y-90785606D01*
X129951839Y-90765238D01*
X129997303Y-90724299D01*
X130058153Y-90717900D01*
X130107578Y-90744734D01*
X130526535Y-91163691D01*
X130560800Y-91116530D01*
X130560804Y-91116524D01*
X130639411Y-90962248D01*
X130692915Y-90797579D01*
X130692916Y-90797574D01*
X130720000Y-90626577D01*
X130720000Y-90453421D01*
X130692916Y-90282424D01*
X130692915Y-90282420D01*
X130639411Y-90117751D01*
X130560804Y-89963476D01*
X130560798Y-89963468D01*
X130526535Y-89916307D01*
X130526534Y-89916307D01*
X130107577Y-90335263D01*
X130053061Y-90363040D01*
X129992629Y-90353469D01*
X129951838Y-90314759D01*
X129940081Y-90294396D01*
X129940080Y-90294394D01*
X129865606Y-90219920D01*
X129865603Y-90219918D01*
X129845235Y-90208158D01*
X129804295Y-90162688D01*
X129797901Y-90101837D01*
X129824734Y-90052419D01*
X129960846Y-89916307D01*
X130243691Y-89633463D01*
X130196528Y-89599198D01*
X130196527Y-89599197D01*
X130196524Y-89599195D01*
X130196522Y-89599194D01*
X130042248Y-89520588D01*
X129877574Y-89467082D01*
X129706578Y-89440000D01*
X129706575Y-89440000D01*
X129533425Y-89440000D01*
X129533422Y-89440000D01*
X129362424Y-89467082D01*
X129197750Y-89520588D01*
X129043468Y-89599198D01*
X128996307Y-89633462D01*
X128996307Y-89633463D01*
X129415266Y-90052422D01*
X129443042Y-90106937D01*
X129433471Y-90167369D01*
X129394763Y-90208159D01*
X129374396Y-90219918D01*
X129299918Y-90294396D01*
X129288159Y-90314763D01*
X129242688Y-90355703D01*
X129181838Y-90362097D01*
X129132422Y-90335266D01*
X128713463Y-89916307D01*
X128713462Y-89916307D01*
X128679198Y-89963468D01*
X128600588Y-90117750D01*
X128547082Y-90282424D01*
X128520000Y-90453420D01*
X123100000Y-90453420D01*
X123072916Y-90282424D01*
X123072915Y-90282420D01*
X123019411Y-90117751D01*
X122940804Y-89963476D01*
X122940798Y-89963468D01*
X122906535Y-89916307D01*
X122906534Y-89916307D01*
X122487577Y-90335263D01*
X122433061Y-90363040D01*
X122372629Y-90353469D01*
X122331838Y-90314759D01*
X122320081Y-90294396D01*
X122320080Y-90294394D01*
X122245606Y-90219920D01*
X122245603Y-90219918D01*
X122225235Y-90208158D01*
X122184295Y-90162688D01*
X122177901Y-90101837D01*
X122204734Y-90052419D01*
X122340846Y-89916307D01*
X122623691Y-89633463D01*
X122576528Y-89599198D01*
X122576527Y-89599197D01*
X122576524Y-89599195D01*
X122576522Y-89599194D01*
X122422248Y-89520588D01*
X122257574Y-89467082D01*
X122086578Y-89440000D01*
X122086575Y-89440000D01*
X121913425Y-89440000D01*
X121913422Y-89440000D01*
X121742424Y-89467082D01*
X121577750Y-89520588D01*
X121423468Y-89599198D01*
X121376307Y-89633462D01*
X121376307Y-89633463D01*
X121795266Y-90052422D01*
X121823042Y-90106937D01*
X121813471Y-90167369D01*
X121774763Y-90208159D01*
X121754396Y-90219918D01*
X121679918Y-90294396D01*
X121668159Y-90314763D01*
X121622688Y-90355703D01*
X121561838Y-90362097D01*
X121512422Y-90335266D01*
X121093463Y-89916307D01*
X121093462Y-89916307D01*
X121059198Y-89963468D01*
X120980588Y-90117750D01*
X120927082Y-90282424D01*
X120900000Y-90453420D01*
X112646783Y-90453420D01*
X112622033Y-90449500D01*
X112622030Y-90449500D01*
X112622027Y-90449500D01*
X112377973Y-90449500D01*
X112377970Y-90449500D01*
X112377967Y-90449500D01*
X112136932Y-90487675D01*
X111904813Y-90563096D01*
X111687363Y-90673890D01*
X111489919Y-90817343D01*
X111317343Y-90989919D01*
X111173890Y-91187363D01*
X111063096Y-91404813D01*
X110987675Y-91636932D01*
X110949500Y-91877965D01*
X100500000Y-91877965D01*
X100500000Y-85675320D01*
X110949500Y-85675320D01*
X110949500Y-88324678D01*
X110949500Y-88324682D01*
X110949501Y-88324684D01*
X110964033Y-88397736D01*
X110964035Y-88397742D01*
X111019397Y-88480599D01*
X111019400Y-88480602D01*
X111044835Y-88497596D01*
X111044836Y-88497598D01*
X111102260Y-88535966D01*
X111157807Y-88547015D01*
X111157808Y-88547015D01*
X111169240Y-88549289D01*
X111171405Y-88549863D01*
X111173579Y-88550216D01*
X111175152Y-88550500D01*
X111175326Y-88550500D01*
X111175327Y-88550500D01*
X113824673Y-88550500D01*
X113824674Y-88550500D01*
X113897740Y-88535966D01*
X113980601Y-88480601D01*
X114035966Y-88397740D01*
X114050500Y-88324674D01*
X114050500Y-87402132D01*
X120949500Y-87402132D01*
X120949500Y-88597920D01*
X120949584Y-88598648D01*
X120954281Y-88642349D01*
X120955908Y-88657480D01*
X120955909Y-88657485D01*
X120955912Y-88657492D01*
X121006200Y-88792327D01*
X121092449Y-88907541D01*
X121092522Y-88907633D01*
X121092799Y-88907879D01*
X121094588Y-88909144D01*
X121179142Y-88972441D01*
X121207668Y-88993796D01*
X121207669Y-88993796D01*
X121207670Y-88993797D01*
X121341544Y-89043728D01*
X121342985Y-89044285D01*
X121344247Y-89044466D01*
X121347767Y-89044655D01*
X121402127Y-89050500D01*
X122597872Y-89050499D01*
X122657483Y-89044091D01*
X122748537Y-89010130D01*
X122776401Y-88999737D01*
X122790692Y-88994408D01*
X122794020Y-88993233D01*
X122797583Y-88992046D01*
X122805167Y-88984186D01*
X122907546Y-88907546D01*
X122993796Y-88792331D01*
X122993798Y-88792327D01*
X123039551Y-88669655D01*
X123044091Y-88657483D01*
X123050500Y-88597873D01*
X123050499Y-87896529D01*
X128569500Y-87896529D01*
X128569500Y-88103469D01*
X128609869Y-88306417D01*
X128609869Y-88306419D01*
X128689056Y-88497594D01*
X128756054Y-88597865D01*
X128804022Y-88669654D01*
X128804030Y-88669663D01*
X128926695Y-88792327D01*
X128950345Y-88815977D01*
X129122402Y-88930941D01*
X129313580Y-89010130D01*
X129516535Y-89050500D01*
X129516536Y-89050500D01*
X129723464Y-89050500D01*
X129723465Y-89050500D01*
X129926420Y-89010130D01*
X130117598Y-88930941D01*
X130289655Y-88815977D01*
X130435977Y-88669655D01*
X130550941Y-88497598D01*
X130630130Y-88306420D01*
X130670500Y-88103465D01*
X130670500Y-87896535D01*
X130630130Y-87693580D01*
X130550941Y-87502402D01*
X130435977Y-87330345D01*
X130393147Y-87287515D01*
X130289656Y-87184023D01*
X130289657Y-87184023D01*
X130256674Y-87161986D01*
X130256675Y-87161986D01*
X130256673Y-87161985D01*
X130117597Y-87069058D01*
X130117592Y-87069056D01*
X129926418Y-86989869D01*
X129723469Y-86949500D01*
X129723467Y-86949500D01*
X129723465Y-86949500D01*
X129516535Y-86949500D01*
X129516532Y-86949500D01*
X129516529Y-86949500D01*
X129313581Y-86989869D01*
X129313579Y-86989869D01*
X129122404Y-87069056D01*
X128950351Y-87184017D01*
X128804017Y-87330351D01*
X128689056Y-87502404D01*
X128609869Y-87693579D01*
X128609869Y-87693581D01*
X128569500Y-87896529D01*
X123050499Y-87896529D01*
X123050499Y-87402128D01*
X123044091Y-87342517D01*
X123023577Y-87287515D01*
X122993797Y-87207670D01*
X122909144Y-87094588D01*
X122907879Y-87092799D01*
X122907636Y-87092526D01*
X122907546Y-87092454D01*
X122907541Y-87092450D01*
X122902719Y-87088840D01*
X122881134Y-87066628D01*
X122868582Y-87048821D01*
X122850500Y-86991783D01*
X122850500Y-86165179D01*
X122855343Y-86134593D01*
X122859465Y-86121904D01*
X122895423Y-86072405D01*
X122896022Y-86071970D01*
X122899563Y-86069399D01*
X122957743Y-86050499D01*
X123097867Y-86050499D01*
X123097872Y-86050499D01*
X123157483Y-86044091D01*
X123224907Y-86018943D01*
X123224910Y-86018942D01*
X123290697Y-85994406D01*
X123294030Y-85993230D01*
X123297582Y-85992047D01*
X123305167Y-85984186D01*
X123407546Y-85907546D01*
X123493796Y-85792331D01*
X123493798Y-85792327D01*
X123544089Y-85657488D01*
X123544090Y-85657485D01*
X123544091Y-85657483D01*
X123550500Y-85597873D01*
X123550499Y-84402128D01*
X123544091Y-84342517D01*
X123542412Y-84338015D01*
X123542411Y-84338011D01*
X123493798Y-84207671D01*
X123471998Y-84178551D01*
X123409156Y-84094605D01*
X123407807Y-84092696D01*
X123407637Y-84092522D01*
X123366845Y-84061985D01*
X123322266Y-84028613D01*
X123292327Y-84006200D01*
X123162428Y-83957752D01*
X123158939Y-83956234D01*
X123158025Y-83955996D01*
X123155927Y-83955540D01*
X123152206Y-83955341D01*
X123135312Y-83953524D01*
X123126249Y-83952550D01*
X123126248Y-83952549D01*
X123097876Y-83949500D01*
X123097873Y-83949500D01*
X123097870Y-83949500D01*
X121902133Y-83949500D01*
X121902129Y-83949500D01*
X121893938Y-83949500D01*
X121887975Y-83951021D01*
X121879069Y-83951978D01*
X121842520Y-83955907D01*
X121842514Y-83955908D01*
X121842514Y-83955909D01*
X121842506Y-83955912D01*
X121707671Y-84006200D01*
X121592456Y-84092451D01*
X121592454Y-84092453D01*
X121592451Y-84092456D01*
X121592450Y-84092458D01*
X121577758Y-84112082D01*
X121506200Y-84207671D01*
X121455912Y-84342504D01*
X121455908Y-84342520D01*
X121455908Y-84342521D01*
X121449500Y-84402132D01*
X121449500Y-85598401D01*
X121449782Y-85600491D01*
X121449968Y-85602214D01*
X121449970Y-85602260D01*
X121449973Y-85602260D01*
X121455907Y-85657478D01*
X121455908Y-85657480D01*
X121455909Y-85657485D01*
X121455912Y-85657492D01*
X121506200Y-85792327D01*
X121506203Y-85792331D01*
X121558721Y-85862485D01*
X121592522Y-85907637D01*
X121592695Y-85907806D01*
X121594588Y-85909144D01*
X121679142Y-85972441D01*
X121707668Y-85993796D01*
X121707669Y-85993796D01*
X121707670Y-85993797D01*
X121841544Y-86043728D01*
X121842985Y-86044285D01*
X121844247Y-86044466D01*
X121847767Y-86044655D01*
X121902127Y-86050500D01*
X122034817Y-86050499D01*
X122065404Y-86055342D01*
X122071183Y-86057219D01*
X122078091Y-86059463D01*
X122127592Y-86095423D01*
X122130588Y-86099546D01*
X122149500Y-86157736D01*
X122149500Y-86834819D01*
X122144654Y-86865412D01*
X122140532Y-86878098D01*
X122104580Y-86927589D01*
X122100459Y-86930584D01*
X122042271Y-86949500D01*
X121393938Y-86949500D01*
X121387975Y-86951021D01*
X121379069Y-86951978D01*
X121342520Y-86955907D01*
X121342506Y-86955912D01*
X121207671Y-87006200D01*
X121092456Y-87092451D01*
X121092454Y-87092453D01*
X121006200Y-87207671D01*
X120955912Y-87342504D01*
X120955908Y-87342520D01*
X120955908Y-87342521D01*
X120949500Y-87402132D01*
X114050500Y-87402132D01*
X114050500Y-85675326D01*
X114035966Y-85602260D01*
X113980601Y-85519399D01*
X113980599Y-85519397D01*
X113980595Y-85519394D01*
X113980593Y-85519392D01*
X113897748Y-85464038D01*
X113897737Y-85464032D01*
X113897534Y-85463964D01*
X113895997Y-85463687D01*
X113824694Y-85449503D01*
X113824684Y-85449501D01*
X113824679Y-85449500D01*
X113824676Y-85449500D01*
X113824674Y-85449500D01*
X111175326Y-85449500D01*
X111175325Y-85449500D01*
X111175322Y-85449500D01*
X111175318Y-85449500D01*
X111175315Y-85449501D01*
X111139039Y-85456717D01*
X111102261Y-85464033D01*
X111102256Y-85464035D01*
X111019403Y-85519394D01*
X111019394Y-85519403D01*
X110964035Y-85602256D01*
X110964035Y-85602257D01*
X110964033Y-85602263D01*
X110949690Y-85674360D01*
X110949500Y-85675320D01*
X100500000Y-85675320D01*
X100500000Y-76874069D01*
X110900000Y-76874069D01*
X110900000Y-77125929D01*
X110939393Y-77374658D01*
X111001011Y-77564299D01*
X111017221Y-77614187D01*
X111131556Y-77838582D01*
X111131560Y-77838588D01*
X111131562Y-77838591D01*
X111131566Y-77838597D01*
X111235502Y-77981651D01*
X111235503Y-77981652D01*
X111832784Y-77384369D01*
X111887301Y-77356592D01*
X111947733Y-77366163D01*
X111985104Y-77399373D01*
X111995112Y-77414351D01*
X112085649Y-77504888D01*
X112085652Y-77504890D01*
X112085654Y-77504892D01*
X112100622Y-77514893D01*
X112138502Y-77562942D01*
X112140905Y-77624080D01*
X112115626Y-77667212D01*
X111518346Y-78264493D01*
X111518346Y-78264495D01*
X111659544Y-78367083D01*
X111661411Y-78368439D01*
X111661417Y-78368443D01*
X111885812Y-78482778D01*
X112125336Y-78560604D01*
X112125337Y-78560604D01*
X112125340Y-78560605D01*
X112374071Y-78600000D01*
X112625926Y-78600000D01*
X112625929Y-78600000D01*
X112874658Y-78560605D01*
X112874659Y-78560604D01*
X112874663Y-78560604D01*
X113114187Y-78482778D01*
X113338582Y-78368443D01*
X113338587Y-78368439D01*
X113338597Y-78368431D01*
X113339142Y-78368081D01*
X113340403Y-78367119D01*
X113481652Y-78264495D01*
X113481652Y-78264494D01*
X112884372Y-77667214D01*
X112856595Y-77612697D01*
X112866166Y-77552265D01*
X112899377Y-77514893D01*
X112914351Y-77504888D01*
X113004888Y-77414351D01*
X113014893Y-77399376D01*
X113062942Y-77361496D01*
X113124080Y-77359092D01*
X113167214Y-77384372D01*
X113764494Y-77981652D01*
X113764495Y-77981652D01*
X113867119Y-77840403D01*
X113868081Y-77839142D01*
X113868436Y-77838591D01*
X113868439Y-77838587D01*
X113868443Y-77838582D01*
X113982778Y-77614187D01*
X114060604Y-77374663D01*
X114061951Y-77366163D01*
X114073472Y-77293420D01*
X121400000Y-77293420D01*
X121400000Y-77466578D01*
X121427082Y-77637574D01*
X121480588Y-77802248D01*
X121499100Y-77838581D01*
X121559197Y-77956527D01*
X121593462Y-78003690D01*
X121593463Y-78003691D01*
X122012419Y-77584733D01*
X122066936Y-77556956D01*
X122127368Y-77566527D01*
X122168158Y-77605235D01*
X122173327Y-77614187D01*
X122179920Y-77625606D01*
X122254394Y-77700080D01*
X122254396Y-77700081D01*
X122274759Y-77711838D01*
X122315700Y-77757307D01*
X122322096Y-77818158D01*
X122295263Y-77867577D01*
X121876307Y-78286534D01*
X121876307Y-78286535D01*
X121923476Y-78320804D01*
X122077751Y-78399411D01*
X122242420Y-78452915D01*
X122242421Y-78452915D01*
X122242424Y-78452916D01*
X122413422Y-78480000D01*
X122586575Y-78480000D01*
X122586578Y-78480000D01*
X122757574Y-78452916D01*
X122757575Y-78452915D01*
X122757579Y-78452915D01*
X122922248Y-78399411D01*
X123076524Y-78320804D01*
X123076530Y-78320800D01*
X123123691Y-78286535D01*
X122704733Y-77867577D01*
X122676957Y-77813061D01*
X122686528Y-77752629D01*
X122725237Y-77711839D01*
X122745606Y-77700080D01*
X122820080Y-77625606D01*
X122831839Y-77605238D01*
X122877303Y-77564299D01*
X122938153Y-77557900D01*
X122987578Y-77584734D01*
X123406535Y-78003691D01*
X123440800Y-77956530D01*
X123440804Y-77956524D01*
X123519411Y-77802248D01*
X123572915Y-77637579D01*
X123572916Y-77637574D01*
X123600000Y-77466577D01*
X123600000Y-77293421D01*
X123572916Y-77122424D01*
X123572915Y-77122420D01*
X123519411Y-76957751D01*
X123440804Y-76803476D01*
X123440798Y-76803468D01*
X123406535Y-76756307D01*
X123406534Y-76756307D01*
X122987577Y-77175263D01*
X122933061Y-77203040D01*
X122872629Y-77193469D01*
X122831838Y-77154759D01*
X122820081Y-77134396D01*
X122820080Y-77134394D01*
X122745606Y-77059920D01*
X122745603Y-77059918D01*
X122725235Y-77048158D01*
X122684295Y-77002688D01*
X122677901Y-76941837D01*
X122704734Y-76892419D01*
X122840846Y-76756307D01*
X123123691Y-76473463D01*
X123076528Y-76439198D01*
X123076527Y-76439197D01*
X123076524Y-76439195D01*
X123076522Y-76439194D01*
X122922248Y-76360588D01*
X122836676Y-76332784D01*
X122757574Y-76307082D01*
X122586578Y-76280000D01*
X122586575Y-76280000D01*
X122413425Y-76280000D01*
X122413422Y-76280000D01*
X122242424Y-76307082D01*
X122077750Y-76360588D01*
X121923468Y-76439198D01*
X121876307Y-76473462D01*
X121876307Y-76473463D01*
X122295266Y-76892422D01*
X122323042Y-76946937D01*
X122313471Y-77007369D01*
X122274763Y-77048159D01*
X122254396Y-77059918D01*
X122179918Y-77134396D01*
X122168159Y-77154763D01*
X122122688Y-77195703D01*
X122061838Y-77202097D01*
X122012422Y-77175266D01*
X121593463Y-76756307D01*
X121593462Y-76756307D01*
X121559198Y-76803468D01*
X121480588Y-76957750D01*
X121427082Y-77122424D01*
X121400000Y-77293420D01*
X114073472Y-77293420D01*
X114076540Y-77274051D01*
X114076541Y-77274042D01*
X114100000Y-77125929D01*
X114100000Y-76874069D01*
X114063465Y-76643403D01*
X114060603Y-76625334D01*
X114033458Y-76541787D01*
X113982778Y-76385812D01*
X113868443Y-76161417D01*
X113868439Y-76161411D01*
X113868432Y-76161401D01*
X113764496Y-76018346D01*
X113764495Y-76018346D01*
X113764494Y-76018346D01*
X113764493Y-76018346D01*
X113167212Y-76615626D01*
X113112696Y-76643403D01*
X113052264Y-76633832D01*
X113014893Y-76600622D01*
X113004892Y-76585654D01*
X113004890Y-76585652D01*
X113004888Y-76585649D01*
X112914351Y-76495112D01*
X112914345Y-76495108D01*
X112899374Y-76485105D01*
X112861493Y-76437056D01*
X112859089Y-76375918D01*
X112884370Y-76332784D01*
X113055753Y-76161401D01*
X113481652Y-75735503D01*
X113481651Y-75735502D01*
X113338597Y-75631566D01*
X113338591Y-75631562D01*
X113338585Y-75631558D01*
X113338582Y-75631556D01*
X113114187Y-75517221D01*
X112874658Y-75439393D01*
X112625929Y-75400000D01*
X112625926Y-75400000D01*
X112374074Y-75400000D01*
X112374071Y-75400000D01*
X112125339Y-75439394D01*
X111885811Y-75517221D01*
X111661419Y-75631554D01*
X111661413Y-75631558D01*
X111518347Y-75735503D01*
X111518347Y-75735504D01*
X112115628Y-76332785D01*
X112143405Y-76387302D01*
X112133834Y-76447734D01*
X112100626Y-76485104D01*
X112085653Y-76495108D01*
X111995108Y-76585653D01*
X111985104Y-76600626D01*
X111937054Y-76638505D01*
X111875916Y-76640907D01*
X111832785Y-76615628D01*
X111235504Y-76018347D01*
X111235503Y-76018347D01*
X111131558Y-76161413D01*
X111131554Y-76161419D01*
X111017221Y-76385811D01*
X110939393Y-76625340D01*
X110900000Y-76874069D01*
X100500000Y-76874069D01*
X100500000Y-70675320D01*
X110949500Y-70675320D01*
X110949500Y-73324678D01*
X110949500Y-73324682D01*
X110949501Y-73324684D01*
X110964033Y-73397736D01*
X110964035Y-73397742D01*
X111019397Y-73480599D01*
X111019399Y-73480601D01*
X111019402Y-73480603D01*
X111019404Y-73480605D01*
X111102260Y-73535966D01*
X111157807Y-73547015D01*
X111157808Y-73547015D01*
X111169240Y-73549289D01*
X111171405Y-73549863D01*
X111173579Y-73550216D01*
X111175152Y-73550500D01*
X111175326Y-73550500D01*
X111175327Y-73550500D01*
X113824673Y-73550500D01*
X113824674Y-73550500D01*
X113897740Y-73535966D01*
X113980601Y-73480601D01*
X114035966Y-73397740D01*
X114050500Y-73324674D01*
X114050500Y-70675326D01*
X114035966Y-70602260D01*
X113980601Y-70519399D01*
X113980599Y-70519397D01*
X113980595Y-70519394D01*
X113980593Y-70519392D01*
X113897748Y-70464038D01*
X113897737Y-70464032D01*
X113897534Y-70463964D01*
X113895997Y-70463687D01*
X113824694Y-70449503D01*
X113824684Y-70449501D01*
X113824679Y-70449500D01*
X113824676Y-70449500D01*
X113824674Y-70449500D01*
X111175326Y-70449500D01*
X111175325Y-70449500D01*
X111175322Y-70449500D01*
X111175318Y-70449500D01*
X111175315Y-70449501D01*
X111139039Y-70456717D01*
X111102261Y-70464033D01*
X111102256Y-70464035D01*
X111019403Y-70519394D01*
X111019394Y-70519403D01*
X110964035Y-70602256D01*
X110964033Y-70602261D01*
X110949500Y-70675320D01*
X100500000Y-70675320D01*
X100500000Y-63882642D01*
X102209500Y-63882642D01*
X102209500Y-64117356D01*
X102240136Y-64350059D01*
X102300881Y-64576767D01*
X102300901Y-64576825D01*
X102301104Y-64577305D01*
X102390698Y-64793607D01*
X102390701Y-64793612D01*
X102508061Y-64996886D01*
X102650936Y-65183085D01*
X102650938Y-65183087D01*
X102650942Y-65183092D01*
X102816908Y-65349058D01*
X102816912Y-65349061D01*
X102816917Y-65349066D01*
X102816939Y-65349085D01*
X102817313Y-65349369D01*
X103003113Y-65491938D01*
X103003117Y-65491941D01*
X103203654Y-65607720D01*
X103205041Y-65608582D01*
X103207811Y-65610120D01*
X103208266Y-65610382D01*
X103212362Y-65611773D01*
X103264877Y-65633525D01*
X103423228Y-65699117D01*
X103649941Y-65759864D01*
X103882644Y-65790500D01*
X103882645Y-65790500D01*
X104117355Y-65790500D01*
X104117356Y-65790500D01*
X104350059Y-65759864D01*
X104576772Y-65699117D01*
X104793617Y-65609296D01*
X104996883Y-65491941D01*
X105183092Y-65349058D01*
X105349058Y-65183092D01*
X105491941Y-64996883D01*
X105609296Y-64793617D01*
X105699117Y-64576772D01*
X105759864Y-64350059D01*
X105790500Y-64117356D01*
X105790500Y-63882644D01*
X105759864Y-63649941D01*
X105699117Y-63423228D01*
X105633525Y-63264877D01*
X105609298Y-63206387D01*
X105609296Y-63206383D01*
X105491941Y-63003117D01*
X105349058Y-62816908D01*
X105183092Y-62650942D01*
X105183087Y-62650938D01*
X105183085Y-62650936D01*
X104996886Y-62508061D01*
X104793612Y-62390701D01*
X104793607Y-62390698D01*
X104635266Y-62325112D01*
X104580012Y-62302225D01*
X104577326Y-62300999D01*
X104575343Y-62300500D01*
X104350059Y-62240136D01*
X104117356Y-62209500D01*
X103882644Y-62209500D01*
X103882643Y-62209500D01*
X103882642Y-62209500D01*
X103649939Y-62240136D01*
X103423231Y-62300881D01*
X103423172Y-62300902D01*
X103422693Y-62301104D01*
X103206391Y-62390698D01*
X103003109Y-62508063D01*
X102816917Y-62650933D01*
X102650933Y-62816917D01*
X102508063Y-63003109D01*
X102390698Y-63206391D01*
X102301104Y-63422693D01*
X102300902Y-63423172D01*
X102300881Y-63423231D01*
X102240136Y-63649939D01*
X102209500Y-63882642D01*
X100500000Y-63882642D01*
X100500000Y-60614680D01*
X100504843Y-60584094D01*
X100508965Y-60571405D01*
X100544923Y-60521906D01*
X100545522Y-60521471D01*
X100549063Y-60518900D01*
X100607243Y-60500000D01*
X171385320Y-60500000D01*
X171415908Y-60504843D01*
G37*
%TD.AperFunction*%
%TD*%
%TA.AperFunction,Conductor*%
%TO.N,GND_HOST*%
G36*
X188812973Y-72261201D02*
G01*
X188860525Y-72299703D01*
X188876500Y-72353627D01*
X188876500Y-84336010D01*
X188857593Y-84394201D01*
X188847504Y-84406014D01*
X183226014Y-90027504D01*
X183171497Y-90055281D01*
X183156010Y-90056500D01*
X183069725Y-90056500D01*
X183007990Y-90073041D01*
X182929710Y-90094017D01*
X182804189Y-90166487D01*
X182701687Y-90268989D01*
X182679436Y-90307530D01*
X182633966Y-90348471D01*
X182573116Y-90354866D01*
X182520128Y-90324274D01*
X182495242Y-90268378D01*
X182494700Y-90258030D01*
X182494700Y-78425890D01*
X182513607Y-78367699D01*
X182523696Y-78355886D01*
X188591486Y-72288096D01*
X188646003Y-72260319D01*
X188661490Y-72259100D01*
X188747774Y-72259100D01*
X188747775Y-72259100D01*
X188751872Y-72258002D01*
X188812973Y-72261201D01*
G37*
%TD.AperFunction*%
%TA.AperFunction,Conductor*%
G36*
X194787034Y-62518907D02*
G01*
X194822998Y-62568407D01*
X194822998Y-62629593D01*
X194798848Y-62669001D01*
X194650942Y-62816908D01*
X194650936Y-62816914D01*
X194508061Y-63003113D01*
X194390701Y-63206387D01*
X194300885Y-63423223D01*
X194300882Y-63423230D01*
X194240136Y-63649940D01*
X194209500Y-63882643D01*
X194209500Y-64117356D01*
X194240136Y-64350059D01*
X194300882Y-64576769D01*
X194300885Y-64576776D01*
X194390701Y-64793612D01*
X194508061Y-64996886D01*
X194650936Y-65183085D01*
X194650938Y-65183087D01*
X194650942Y-65183092D01*
X194816908Y-65349058D01*
X194816912Y-65349061D01*
X194816914Y-65349063D01*
X195003113Y-65491938D01*
X195003117Y-65491941D01*
X195206383Y-65609296D01*
X195206384Y-65609296D01*
X195206387Y-65609298D01*
X195264877Y-65633525D01*
X195423228Y-65699117D01*
X195649941Y-65759864D01*
X195882644Y-65790500D01*
X195882645Y-65790500D01*
X196117355Y-65790500D01*
X196117356Y-65790500D01*
X196350059Y-65759864D01*
X196576772Y-65699117D01*
X196793617Y-65609296D01*
X196996883Y-65491941D01*
X197183092Y-65349058D01*
X197330998Y-65201151D01*
X197385513Y-65173376D01*
X197445945Y-65182947D01*
X197489210Y-65226212D01*
X197500000Y-65271157D01*
X197500000Y-76830500D01*
X197481093Y-76888691D01*
X197431593Y-76924655D01*
X197401000Y-76929500D01*
X197201081Y-76929500D01*
X197056085Y-76958342D01*
X196919506Y-77014915D01*
X196796585Y-77097048D01*
X196692048Y-77201585D01*
X196635977Y-77285502D01*
X196587927Y-77323381D01*
X196553662Y-77329500D01*
X196477156Y-77329500D01*
X196388012Y-77353386D01*
X196388011Y-77353386D01*
X196388009Y-77353387D01*
X196308090Y-77399529D01*
X196242829Y-77464790D01*
X196196687Y-77544709D01*
X196196686Y-77544711D01*
X196196686Y-77544712D01*
X196172800Y-77633856D01*
X196172800Y-86366144D01*
X196196686Y-86455288D01*
X196242831Y-86535212D01*
X196308088Y-86600469D01*
X196388012Y-86646614D01*
X196477156Y-86670500D01*
X196553662Y-86670500D01*
X196611853Y-86689407D01*
X196635976Y-86714497D01*
X196692049Y-86798416D01*
X196796584Y-86902951D01*
X196919505Y-86985084D01*
X197056087Y-87041658D01*
X197201082Y-87070500D01*
X197201083Y-87070500D01*
X197401000Y-87070500D01*
X197459191Y-87089407D01*
X197495155Y-87138907D01*
X197500000Y-87169500D01*
X197500000Y-107401000D01*
X197481093Y-107459191D01*
X197431593Y-107495155D01*
X197401000Y-107500000D01*
X174599000Y-107500000D01*
X174540809Y-107481093D01*
X174504845Y-107431593D01*
X174500000Y-107401000D01*
X174500000Y-91899525D01*
X181593700Y-91899525D01*
X181593700Y-92044474D01*
X181631217Y-92184489D01*
X181703687Y-92310010D01*
X181703689Y-92310012D01*
X181703691Y-92310015D01*
X181806185Y-92412509D01*
X181806187Y-92412510D01*
X181806189Y-92412512D01*
X181931711Y-92484982D01*
X181931712Y-92484982D01*
X181931715Y-92484984D01*
X182071725Y-92522500D01*
X182071726Y-92522500D01*
X182216674Y-92522500D01*
X182216675Y-92522500D01*
X182356685Y-92484984D01*
X182356687Y-92484982D01*
X182356689Y-92484982D01*
X182482210Y-92412512D01*
X182482210Y-92412511D01*
X182482215Y-92412509D01*
X182584709Y-92310015D01*
X182657184Y-92184485D01*
X182694700Y-92044475D01*
X182694700Y-91899525D01*
X182657184Y-91759515D01*
X182657182Y-91759512D01*
X182657182Y-91759510D01*
X182584712Y-91633989D01*
X182584708Y-91633984D01*
X182523696Y-91572971D01*
X182495919Y-91518454D01*
X182494700Y-91502968D01*
X182494700Y-90955969D01*
X182513607Y-90897778D01*
X182563107Y-90861814D01*
X182624293Y-90861814D01*
X182673793Y-90897778D01*
X182679431Y-90906460D01*
X182701691Y-90945015D01*
X182804185Y-91047509D01*
X182804187Y-91047510D01*
X182804189Y-91047512D01*
X182929711Y-91119982D01*
X182929712Y-91119982D01*
X182929715Y-91119984D01*
X183069725Y-91157500D01*
X183069726Y-91157500D01*
X183214674Y-91157500D01*
X183214675Y-91157500D01*
X183354685Y-91119984D01*
X183354687Y-91119982D01*
X183354689Y-91119982D01*
X183480210Y-91047512D01*
X183480210Y-91047511D01*
X183480215Y-91047509D01*
X183582709Y-90945015D01*
X183604964Y-90906469D01*
X183655182Y-90819489D01*
X183655182Y-90819487D01*
X183655184Y-90819485D01*
X183692700Y-90679475D01*
X183692700Y-90593189D01*
X183711607Y-90534998D01*
X183721690Y-90523191D01*
X187998801Y-86246081D01*
X192194500Y-86246081D01*
X192194500Y-86393918D01*
X192223342Y-86538914D01*
X192267952Y-86646612D01*
X192279916Y-86675495D01*
X192362049Y-86798416D01*
X192466584Y-86902951D01*
X192589505Y-86985084D01*
X192726087Y-87041658D01*
X192871082Y-87070500D01*
X192871083Y-87070500D01*
X194118917Y-87070500D01*
X194118918Y-87070500D01*
X194263913Y-87041658D01*
X194400495Y-86985084D01*
X194523416Y-86902951D01*
X194627951Y-86798416D01*
X194710084Y-86675495D01*
X194766658Y-86538913D01*
X194795500Y-86393918D01*
X194795500Y-86246082D01*
X194766658Y-86101087D01*
X194710084Y-85964505D01*
X194627951Y-85841584D01*
X194523416Y-85737049D01*
X194400495Y-85654916D01*
X194320901Y-85621947D01*
X194263914Y-85598342D01*
X194151894Y-85576059D01*
X194098510Y-85546161D01*
X194072895Y-85490596D01*
X194084832Y-85430586D01*
X194129763Y-85389054D01*
X194145574Y-85383338D01*
X194193975Y-85370369D01*
X194193977Y-85370367D01*
X194193979Y-85370367D01*
X194228899Y-85350205D01*
X194311524Y-85302502D01*
X194407502Y-85206524D01*
X194475369Y-85088975D01*
X194510500Y-84957867D01*
X194510500Y-84822133D01*
X194475369Y-84691025D01*
X194456006Y-84657488D01*
X194407503Y-84573478D01*
X194407502Y-84573476D01*
X194311524Y-84477498D01*
X194302824Y-84472475D01*
X194193978Y-84409632D01*
X194193974Y-84409630D01*
X194062869Y-84374500D01*
X194062867Y-84374500D01*
X193927133Y-84374500D01*
X193927130Y-84374500D01*
X193796025Y-84409630D01*
X193796021Y-84409632D01*
X193678478Y-84477496D01*
X193582496Y-84573478D01*
X193514632Y-84691021D01*
X193514630Y-84691025D01*
X193479500Y-84822130D01*
X193479500Y-84957869D01*
X193514630Y-85088974D01*
X193514632Y-85088978D01*
X193582496Y-85206521D01*
X193582498Y-85206524D01*
X193678476Y-85302502D01*
X193678478Y-85302503D01*
X193796021Y-85370367D01*
X193796025Y-85370369D01*
X193812836Y-85374874D01*
X193864150Y-85408198D01*
X193886076Y-85465320D01*
X193870240Y-85524420D01*
X193822689Y-85562925D01*
X193787212Y-85569500D01*
X192871081Y-85569500D01*
X192726085Y-85598342D01*
X192589506Y-85654915D01*
X192466585Y-85737048D01*
X192362048Y-85841585D01*
X192279915Y-85964506D01*
X192223342Y-86101085D01*
X192194500Y-86246081D01*
X187998801Y-86246081D01*
X189507470Y-84737412D01*
X189553614Y-84657488D01*
X189577500Y-84568344D01*
X189577500Y-84327525D01*
X191251800Y-84327525D01*
X191251800Y-84472475D01*
X191253146Y-84477498D01*
X191289317Y-84612489D01*
X191361787Y-84738010D01*
X191361789Y-84738012D01*
X191361791Y-84738015D01*
X191464285Y-84840509D01*
X191464287Y-84840510D01*
X191464289Y-84840512D01*
X191589811Y-84912982D01*
X191589812Y-84912982D01*
X191589815Y-84912984D01*
X191729825Y-84950500D01*
X191729826Y-84950500D01*
X191874774Y-84950500D01*
X191874775Y-84950500D01*
X192014785Y-84912984D01*
X192014787Y-84912982D01*
X192014789Y-84912982D01*
X192140310Y-84840512D01*
X192140310Y-84840511D01*
X192140315Y-84840509D01*
X192242809Y-84738015D01*
X192269941Y-84691021D01*
X192315282Y-84612489D01*
X192315282Y-84612487D01*
X192315284Y-84612485D01*
X192352800Y-84472475D01*
X192352800Y-84327525D01*
X192315284Y-84187515D01*
X192315282Y-84187512D01*
X192315282Y-84187510D01*
X192253264Y-84080092D01*
X192240000Y-84030592D01*
X192240000Y-80019031D01*
X192258907Y-79960840D01*
X192268990Y-79949033D01*
X192280009Y-79938015D01*
X192352484Y-79812485D01*
X192390000Y-79672475D01*
X192390000Y-79527525D01*
X192352484Y-79387515D01*
X192352482Y-79387512D01*
X192352482Y-79387510D01*
X192280012Y-79261989D01*
X192280010Y-79261987D01*
X192280009Y-79261985D01*
X192177515Y-79159491D01*
X192177512Y-79159489D01*
X192177510Y-79159487D01*
X192051988Y-79087017D01*
X192051989Y-79087017D01*
X192022396Y-79079087D01*
X191911975Y-79049500D01*
X191767025Y-79049500D01*
X191705290Y-79066041D01*
X191627010Y-79087017D01*
X191501489Y-79159487D01*
X191398987Y-79261989D01*
X191326517Y-79387510D01*
X191289000Y-79527525D01*
X191289000Y-79672474D01*
X191326517Y-79812489D01*
X191398987Y-79938010D01*
X191398989Y-79938012D01*
X191398991Y-79938015D01*
X191410005Y-79949029D01*
X191437781Y-80003544D01*
X191439000Y-80019031D01*
X191439000Y-83943768D01*
X191420093Y-84001959D01*
X191410004Y-84013771D01*
X191361791Y-84061983D01*
X191361787Y-84061989D01*
X191289317Y-84187510D01*
X191289316Y-84187515D01*
X191251800Y-84327525D01*
X189577500Y-84327525D01*
X189577500Y-77606081D01*
X192194500Y-77606081D01*
X192194500Y-77606082D01*
X192194500Y-77753918D01*
X192223342Y-77898913D01*
X192279916Y-78035495D01*
X192362049Y-78158416D01*
X192466584Y-78262951D01*
X192589505Y-78345084D01*
X192726087Y-78401658D01*
X192871082Y-78430500D01*
X192871083Y-78430500D01*
X193787212Y-78430500D01*
X193845403Y-78449407D01*
X193881367Y-78498907D01*
X193881367Y-78560093D01*
X193845403Y-78609593D01*
X193812836Y-78625126D01*
X193796025Y-78629630D01*
X193796021Y-78629632D01*
X193678478Y-78697496D01*
X193582496Y-78793478D01*
X193514632Y-78911021D01*
X193514630Y-78911025D01*
X193479500Y-79042130D01*
X193479500Y-79177869D01*
X193514630Y-79308974D01*
X193514632Y-79308978D01*
X193559973Y-79387510D01*
X193582498Y-79426524D01*
X193678476Y-79522502D01*
X193678478Y-79522503D01*
X193796021Y-79590367D01*
X193796025Y-79590369D01*
X193927130Y-79625499D01*
X193927132Y-79625500D01*
X193927133Y-79625500D01*
X194062868Y-79625500D01*
X194062868Y-79625499D01*
X194193975Y-79590369D01*
X194311524Y-79522502D01*
X194407502Y-79426524D01*
X194475369Y-79308975D01*
X194510500Y-79177867D01*
X194510500Y-79042133D01*
X194475369Y-78911025D01*
X194407502Y-78793476D01*
X194311524Y-78697498D01*
X194311521Y-78697496D01*
X194193978Y-78629632D01*
X194193974Y-78629630D01*
X194145585Y-78616664D01*
X194094271Y-78583340D01*
X194072345Y-78526218D01*
X194088181Y-78467118D01*
X194135732Y-78428613D01*
X194151891Y-78423940D01*
X194263913Y-78401658D01*
X194400495Y-78345084D01*
X194523416Y-78262951D01*
X194627951Y-78158416D01*
X194710084Y-78035495D01*
X194766658Y-77898913D01*
X194795500Y-77753918D01*
X194795500Y-77606082D01*
X194766658Y-77461087D01*
X194710084Y-77324505D01*
X194627951Y-77201584D01*
X194523416Y-77097049D01*
X194400495Y-77014916D01*
X194400493Y-77014915D01*
X194263914Y-76958342D01*
X194118918Y-76929500D01*
X192871082Y-76929500D01*
X192871081Y-76929500D01*
X192726085Y-76958342D01*
X192589506Y-77014915D01*
X192466585Y-77097048D01*
X192362048Y-77201585D01*
X192279915Y-77324506D01*
X192223342Y-77461085D01*
X192194500Y-77606081D01*
X189577500Y-77606081D01*
X189577500Y-68648324D01*
X189590764Y-68598824D01*
X189650482Y-68495389D01*
X189650482Y-68495387D01*
X189650484Y-68495385D01*
X189688000Y-68355375D01*
X189688000Y-68210425D01*
X189650484Y-68070415D01*
X189650482Y-68070412D01*
X189650482Y-68070410D01*
X189578012Y-67944889D01*
X189578010Y-67944887D01*
X189578009Y-67944885D01*
X189475515Y-67842391D01*
X189475512Y-67842389D01*
X189475510Y-67842387D01*
X189349988Y-67769917D01*
X189349989Y-67769917D01*
X189320396Y-67761987D01*
X189209975Y-67732400D01*
X189065025Y-67732400D01*
X189003290Y-67748941D01*
X188925010Y-67769917D01*
X188799489Y-67842387D01*
X188696987Y-67944889D01*
X188624517Y-68070410D01*
X188587000Y-68210425D01*
X188587000Y-68355374D01*
X188624517Y-68495389D01*
X188696987Y-68620910D01*
X188696989Y-68620912D01*
X188696991Y-68620915D01*
X188799485Y-68723409D01*
X188827000Y-68739294D01*
X188867940Y-68784761D01*
X188876500Y-68825030D01*
X188876500Y-71063572D01*
X188857593Y-71121763D01*
X188808093Y-71157727D01*
X188751880Y-71159199D01*
X188747780Y-71158100D01*
X188747775Y-71158100D01*
X188602825Y-71158100D01*
X188598724Y-71159199D01*
X188462810Y-71195617D01*
X188337289Y-71268087D01*
X188234787Y-71370589D01*
X188162317Y-71496110D01*
X188124800Y-71636125D01*
X188124800Y-71722410D01*
X188105893Y-71780601D01*
X188095804Y-71792414D01*
X181863730Y-78024488D01*
X181817586Y-78104412D01*
X181793700Y-78193557D01*
X181793700Y-91502968D01*
X181774793Y-91561159D01*
X181764704Y-91572971D01*
X181703691Y-91633984D01*
X181703687Y-91633989D01*
X181631217Y-91759510D01*
X181593700Y-91899525D01*
X174500000Y-91899525D01*
X174500000Y-62599000D01*
X174518907Y-62540809D01*
X174568407Y-62504845D01*
X174599000Y-62500000D01*
X194728843Y-62500000D01*
X194787034Y-62518907D01*
G37*
%TD.AperFunction*%
%TD*%
M02*
