%TF.GenerationSoftware,KiCad,Pcbnew,10.0.6*%
%TF.CreationDate,2026-10-01T08:16:07+00:00*%
%TF.ProjectId,OSBAMS_Rev2_RC1,4f534241-4d53-45f5-9265-76325f524331,rev?*%
%TF.SameCoordinates,Original*%
%TF.FileFunction,Copper,L4,Bot*%
%TF.FilePolarity,Positive*%
%FSLAX46Y46*%
G04 Gerber Fmt 4.6, Leading zero omitted, Abs format (unit mm)*
G04 Created by KiCad (PCBNEW 10.0.6) date 2026-10-01 08:16:07*
%MOMM*%
%LPD*%
G01*
G04 APERTURE LIST*
G04 Aperture macros list*
%AMRoundRect*
0 Rectangle with rounded corners*
0 $1 Rounding radius*
0 $2 $3 $4 $5 $6 $7 $8 $9 X,Y pos of 4 corners*
0 Add a 4 corners polygon primitive as box body*
4,1,4,$2,$3,$4,$5,$6,$7,$8,$9,$2,$3,0*
0 Add four circle primitives for the rounded corners*
1,1,$1+$1,$2,$3*
1,1,$1+$1,$4,$5*
1,1,$1+$1,$6,$7*
1,1,$1+$1,$8,$9*
0 Add four rect primitives between the rounded corners*
20,1,$1+$1,$2,$3,$4,$5,0*
20,1,$1+$1,$4,$5,$6,$7,0*
20,1,$1+$1,$6,$7,$8,$9,0*
20,1,$1+$1,$8,$9,$2,$3,0*%
G04 Aperture macros list end*
%TA.AperFunction,ComponentPad*%
%ADD10R,2.600000X2.600000*%
%TD*%
%TA.AperFunction,ComponentPad*%
%ADD11C,2.600000*%
%TD*%
%TA.AperFunction,ComponentPad*%
%ADD12O,2.100000X1.000000*%
%TD*%
%TA.AperFunction,ComponentPad*%
%ADD13O,1.800000X1.000000*%
%TD*%
%TA.AperFunction,ComponentPad*%
%ADD14RoundRect,0.250000X0.550000X-0.550000X0.550000X0.550000X-0.550000X0.550000X-0.550000X-0.550000X0*%
%TD*%
%TA.AperFunction,ComponentPad*%
%ADD15C,1.600000*%
%TD*%
%TA.AperFunction,ComponentPad*%
%ADD16RoundRect,0.250000X-0.550000X-0.550000X0.550000X-0.550000X0.550000X0.550000X-0.550000X0.550000X0*%
%TD*%
%TA.AperFunction,ComponentPad*%
%ADD17RoundRect,0.250000X-0.620000X-0.845000X0.620000X-0.845000X0.620000X0.845000X-0.620000X0.845000X0*%
%TD*%
%TA.AperFunction,ComponentPad*%
%ADD18O,1.740000X2.190000*%
%TD*%
%TA.AperFunction,ComponentPad*%
%ADD19RoundRect,0.250000X-0.350000X-0.625000X0.350000X-0.625000X0.350000X0.625000X-0.350000X0.625000X0*%
%TD*%
%TA.AperFunction,ComponentPad*%
%ADD20O,1.200000X1.750000*%
%TD*%
%TA.AperFunction,ComponentPad*%
%ADD21R,1.700000X1.700000*%
%TD*%
%TA.AperFunction,ComponentPad*%
%ADD22C,1.700000*%
%TD*%
%TA.AperFunction,ViaPad*%
%ADD23C,0.600000*%
%TD*%
%TA.AperFunction,Conductor*%
%ADD24C,0.200000*%
%TD*%
%TA.AperFunction,Conductor*%
%ADD25C,0.300000*%
%TD*%
G04 APERTURE END LIST*
D10*
%TO.P,J3,1*%
%TO.N,ESTOP_OUT*%
X112500000Y-99000000D03*
D11*
%TO.P,J3,2*%
%TO.N,COIL_V*%
X112500000Y-104000000D03*
%TD*%
D12*
%TO.P,J8,SH*%
%TO.N,USB_SHIELD*%
X193495000Y-86320000D03*
D13*
X197675000Y-86320000D03*
D12*
X193495000Y-77680000D03*
D13*
X197675000Y-77680000D03*
%TD*%
D14*
%TO.P,D11,1*%
%TO.N,ES_LED_A*%
X122500000Y-85000000D03*
D15*
%TO.P,D11,2*%
%TO.N,GND*%
X122500000Y-77380000D03*
%TD*%
D16*
%TO.P,U4,1*%
%TO.N,ES_LED_A*%
X122000000Y-88000000D03*
D15*
%TO.P,U4,2*%
%TO.N,GND*%
X122000000Y-90540000D03*
%TO.P,U4,3*%
X129620000Y-90540000D03*
%TO.P,U4,4*%
%TO.N,ESTOP_SENSE*%
X129620000Y-88000000D03*
%TD*%
D10*
%TO.P,J2,1*%
%TO.N,+12V*%
X112500000Y-87000000D03*
D11*
%TO.P,J2,2*%
%TO.N,ESTOP_OUT*%
X112500000Y-92000000D03*
%TD*%
D17*
%TO.P,J6,1*%
%TO.N,PACK_INA*%
X131000000Y-143000000D03*
D18*
%TO.P,J6,2*%
%TO.N,PACK_ADC*%
X133540000Y-143000000D03*
%TO.P,J6,3*%
%TO.N,RELAY_OUT*%
X136080000Y-143000000D03*
%TO.P,J6,4*%
%TO.N,GND*%
X138620000Y-143000000D03*
%TD*%
D16*
%TO.P,U5,1*%
%TO.N,FB_LED_A*%
X142000000Y-136000000D03*
D15*
%TO.P,U5,2*%
%TO.N,GND*%
X142000000Y-138540000D03*
%TO.P,U5,3*%
X149620000Y-138540000D03*
%TO.P,U5,4*%
%TO.N,RELAY_FB*%
X149620000Y-136000000D03*
%TD*%
D19*
%TO.P,J7,1*%
%TO.N,+3V3*%
X182000000Y-146000000D03*
D20*
%TO.P,J7,2*%
%TO.N,SDA2_J*%
X184000000Y-146000000D03*
%TO.P,J7,3*%
%TO.N,SCL2_J*%
X186000000Y-146000000D03*
%TO.P,J7,4*%
%TO.N,GND*%
X188000000Y-146000000D03*
%TD*%
D10*
%TO.P,J4,1*%
%TO.N,COIL_V*%
X112500000Y-111000000D03*
D11*
%TO.P,J4,2*%
%TO.N,COIL_SW*%
X112500000Y-116000000D03*
%TD*%
D14*
%TO.P,D12,1*%
%TO.N,FB_LED_A*%
X144000000Y-133000000D03*
D15*
%TO.P,D12,2*%
%TO.N,GND*%
X144000000Y-125380000D03*
%TD*%
D21*
%TO.P,JP1,1*%
%TO.N,+3V3*%
X150000000Y-130000000D03*
D22*
%TO.P,JP1,2*%
%TO.N,BOOT0*%
X150000000Y-132540000D03*
%TD*%
D10*
%TO.P,J1,1*%
%TO.N,12V_RAW*%
X112500000Y-72000000D03*
D11*
%TO.P,J1,2*%
%TO.N,GND*%
X112500000Y-77000000D03*
%TD*%
D17*
%TO.P,J5,1*%
%TO.N,SHUNT_INP_RAW*%
X114000000Y-143000000D03*
D18*
%TO.P,J5,2*%
%TO.N,SHUNT_INN_RAW*%
X116540000Y-143000000D03*
%TO.P,J5,3*%
%TO.N,GND*%
X119080000Y-143000000D03*
%TD*%
D23*
%TO.N,SDA2*%
X159986800Y-108237200D03*
X163116500Y-110044100D03*
%TO.N,+3V3*%
X126905800Y-129997300D03*
X178287100Y-136000000D03*
%TO.N,GND*%
X195750000Y-143500000D03*
X127500000Y-147000000D03*
X161250000Y-108375000D03*
X129250000Y-94500000D03*
X136250000Y-122500000D03*
X110000000Y-112000000D03*
X131000000Y-98000000D03*
X131000000Y-112000000D03*
X166000000Y-70000000D03*
X165375000Y-97750000D03*
X162500000Y-63000000D03*
X106500000Y-133000000D03*
X131000000Y-91000000D03*
X104750000Y-87500000D03*
X117000000Y-105000000D03*
X194000000Y-126000000D03*
X120500000Y-63000000D03*
X108250000Y-115500000D03*
X192250000Y-108500000D03*
X192250000Y-122500000D03*
X104750000Y-129500000D03*
X171250000Y-108500000D03*
X157250000Y-122500000D03*
X108250000Y-80500000D03*
X138000000Y-147000000D03*
X117000000Y-133000000D03*
X104750000Y-94500000D03*
X188750000Y-136500000D03*
X134500000Y-70000000D03*
X169500000Y-77000000D03*
X106500000Y-119000000D03*
X129250000Y-136500000D03*
X141500000Y-133000000D03*
X141500000Y-126000000D03*
X108250000Y-73500000D03*
X106500000Y-98000000D03*
X153750000Y-101500000D03*
X187000000Y-140000000D03*
X138000000Y-119000000D03*
X111750000Y-80500000D03*
X104750000Y-101500000D03*
X145000000Y-63000000D03*
X110000000Y-133000000D03*
X125750000Y-101500000D03*
X188750000Y-122500000D03*
X173000000Y-112000000D03*
X129250000Y-73500000D03*
X166000000Y-126000000D03*
X190500000Y-119000000D03*
X125750000Y-143500000D03*
X129250000Y-101500000D03*
X115250000Y-80500000D03*
X187000000Y-112000000D03*
X124000000Y-147000000D03*
X120500000Y-70000000D03*
X124000000Y-70000000D03*
X125750000Y-80500000D03*
X154750000Y-108375000D03*
X148500000Y-91000000D03*
X132750000Y-73500000D03*
X162500000Y-77000000D03*
X139750000Y-87500000D03*
X123445577Y-131450000D03*
X185250000Y-115500000D03*
X120500000Y-98000000D03*
X194000000Y-133000000D03*
X185250000Y-122500000D03*
X132750000Y-94500000D03*
X104750000Y-115500000D03*
X110000000Y-140000000D03*
X143250000Y-122500000D03*
X195750000Y-136500000D03*
X104750000Y-136500000D03*
X120500000Y-105000000D03*
X155500000Y-77000000D03*
X192250000Y-129500000D03*
X157250000Y-66500000D03*
X113500000Y-70000000D03*
X166000000Y-105000000D03*
X127500000Y-140000000D03*
X192250000Y-115500000D03*
X171250000Y-136500000D03*
X190500000Y-126000000D03*
X153750000Y-143500000D03*
X120500000Y-77000000D03*
X146750000Y-73500000D03*
X164250000Y-66500000D03*
X183500000Y-133000000D03*
X169500000Y-84000000D03*
X138000000Y-63000000D03*
X111750000Y-129500000D03*
X111750000Y-101500000D03*
X197500000Y-112000000D03*
X113500000Y-119000000D03*
X159000000Y-147000000D03*
X194000000Y-112000000D03*
X118750000Y-108500000D03*
X181750000Y-122500000D03*
X115250000Y-73500000D03*
X125750000Y-115500000D03*
X117000000Y-119000000D03*
X131000000Y-63000000D03*
X157250000Y-115500000D03*
X129250000Y-122500000D03*
X141500000Y-63000000D03*
X125750000Y-87500000D03*
X195750000Y-115500000D03*
X167750000Y-87500000D03*
X101600000Y-61600000D03*
X153750000Y-87500000D03*
X190500000Y-133000000D03*
X110000000Y-91000000D03*
X138000000Y-105000000D03*
X134500000Y-63000000D03*
X157250000Y-80500000D03*
X148500000Y-119000000D03*
X134500000Y-133000000D03*
X150250000Y-66500000D03*
X139750000Y-66500000D03*
X143250000Y-73500000D03*
X169500000Y-126000000D03*
X150250000Y-73500000D03*
X180000000Y-119000000D03*
X159350000Y-92500000D03*
X134500000Y-147000000D03*
X141500000Y-105000000D03*
X108250000Y-108500000D03*
X145000000Y-147000000D03*
X152000000Y-140000000D03*
X157250000Y-136500000D03*
X139750000Y-122500000D03*
X166000000Y-91000000D03*
X153750000Y-80500000D03*
X190500000Y-140000000D03*
X110000000Y-147000000D03*
X169500000Y-147000000D03*
X194000000Y-140000000D03*
X176500000Y-147000000D03*
X194000000Y-119000000D03*
X178250000Y-143500000D03*
X155500000Y-70000000D03*
X124000000Y-98000000D03*
X108250000Y-143500000D03*
X122250000Y-73500000D03*
X138000000Y-112000000D03*
X132750000Y-101500000D03*
X111750000Y-94500000D03*
X106500000Y-77000000D03*
X111750000Y-143500000D03*
X110000000Y-77000000D03*
X132750000Y-108500000D03*
X110000000Y-119000000D03*
X153750000Y-122500000D03*
X141500000Y-77000000D03*
X176500000Y-133000000D03*
X103000000Y-126000000D03*
X122250000Y-108500000D03*
X174750000Y-143500000D03*
X166000000Y-147000000D03*
X104750000Y-73500000D03*
X160750000Y-80500000D03*
X152000000Y-126000000D03*
X185250000Y-108500000D03*
X155500000Y-140000000D03*
X145000000Y-119000000D03*
X134500000Y-112000000D03*
X103000000Y-119000000D03*
X169500000Y-91000000D03*
X162500000Y-133000000D03*
X106500000Y-84000000D03*
X106500000Y-140000000D03*
X148500000Y-147000000D03*
X167750000Y-115500000D03*
X166000000Y-133000000D03*
X124000000Y-91000000D03*
X143250000Y-94500000D03*
X106500000Y-126000000D03*
X167750000Y-73500000D03*
X134500000Y-105000000D03*
X134500000Y-91000000D03*
X113500000Y-63000000D03*
X110000000Y-126000000D03*
X162500000Y-147000000D03*
X152000000Y-77000000D03*
X167750000Y-80500000D03*
X134500000Y-126000000D03*
X174750000Y-108500000D03*
X188750000Y-129500000D03*
X197500000Y-126000000D03*
X155500000Y-84000000D03*
X194000000Y-147000000D03*
X181750000Y-115500000D03*
X108250000Y-87500000D03*
X127500000Y-70000000D03*
X162500000Y-70000000D03*
X131000000Y-105000000D03*
X145000000Y-91000000D03*
X104750000Y-122500000D03*
X164250000Y-122500000D03*
X143250000Y-101500000D03*
X157717062Y-88931833D03*
X166000000Y-119000000D03*
X183500000Y-126000000D03*
X178250000Y-122500000D03*
X173000000Y-133000000D03*
X167750000Y-101500000D03*
X136250000Y-87500000D03*
X185250000Y-136500000D03*
X167750000Y-108500000D03*
X111750000Y-66500000D03*
X104750000Y-80500000D03*
X169500000Y-140000000D03*
X159000000Y-77000000D03*
X115250000Y-115500000D03*
X103000000Y-140000000D03*
X167750000Y-122500000D03*
X118750000Y-122500000D03*
X131000000Y-147000000D03*
X146750000Y-87500000D03*
X190500000Y-147000000D03*
X155500000Y-133000000D03*
X164250000Y-143500000D03*
X159000000Y-70000000D03*
X187000000Y-126000000D03*
X167750000Y-66500000D03*
X113500000Y-147000000D03*
X152000000Y-147000000D03*
X164250000Y-73500000D03*
X148500000Y-140000000D03*
X183500000Y-119000000D03*
X169500000Y-63000000D03*
X110000000Y-105000000D03*
X141500000Y-140000000D03*
X113500000Y-84000000D03*
X125750000Y-73500000D03*
X159000000Y-140000000D03*
X139750000Y-115500000D03*
X146750000Y-66500000D03*
X149130666Y-97992062D03*
X164250000Y-136500000D03*
X129250000Y-115500000D03*
X197500000Y-140000000D03*
X146750000Y-136500000D03*
X166000000Y-140000000D03*
X173000000Y-140000000D03*
X117000000Y-147000000D03*
X111750000Y-108500000D03*
X122250000Y-143500000D03*
X127500000Y-63000000D03*
X124000000Y-84000000D03*
X152000000Y-63000000D03*
X174750000Y-129500000D03*
X143250000Y-66500000D03*
X150250000Y-80500000D03*
X155500000Y-63000000D03*
X115250000Y-122500000D03*
X131000000Y-133000000D03*
X120500000Y-84000000D03*
X120500000Y-147000000D03*
X129250000Y-108500000D03*
X118750000Y-80500000D03*
X164250000Y-115500000D03*
X115250000Y-94500000D03*
X188750000Y-115500000D03*
X185250000Y-129500000D03*
X148500000Y-63000000D03*
X148500000Y-70000000D03*
X192250000Y-136500000D03*
X173000000Y-126000000D03*
X141500000Y-84000000D03*
X146750000Y-94500000D03*
X155500000Y-119000000D03*
X106500000Y-63000000D03*
X166000000Y-77000000D03*
X148500000Y-112000000D03*
X155500000Y-147000000D03*
X145000000Y-140000000D03*
X117000000Y-63000000D03*
X127500000Y-112000000D03*
X148500000Y-77000000D03*
X176500000Y-119000000D03*
X171250000Y-143500000D03*
X151000000Y-102500000D03*
X164250000Y-87500000D03*
X104750000Y-143500000D03*
X129250000Y-143500000D03*
X164250000Y-80500000D03*
X160750000Y-143500000D03*
X181750000Y-129500000D03*
X195750000Y-129500000D03*
X104750000Y-108500000D03*
X141500000Y-119000000D03*
X110000000Y-98000000D03*
X124000000Y-119000000D03*
X131000000Y-70000000D03*
X153750000Y-73500000D03*
X160750000Y-66500000D03*
X115250000Y-129500000D03*
X136250000Y-108500000D03*
X141500000Y-70000000D03*
X103000000Y-98000000D03*
X178250000Y-108500000D03*
X159000000Y-84000000D03*
X146700000Y-105300000D03*
X188750000Y-108500000D03*
X104750000Y-66500000D03*
X164250000Y-94500000D03*
X103000000Y-112000000D03*
X183500000Y-140000000D03*
X113500000Y-133000000D03*
X117000000Y-98000000D03*
X166000000Y-112000000D03*
X108250000Y-136500000D03*
X174750000Y-122500000D03*
X169500000Y-70000000D03*
X159000000Y-63000000D03*
X173000000Y-147000000D03*
X127500000Y-105000000D03*
X152000000Y-70000000D03*
X180000000Y-112000000D03*
X174750000Y-115500000D03*
X139750000Y-101500000D03*
X153750000Y-66500000D03*
X124000000Y-63000000D03*
X178250000Y-129500000D03*
X111750000Y-122500000D03*
X106500000Y-91000000D03*
X192250000Y-143500000D03*
X106500000Y-105000000D03*
X162500000Y-126000000D03*
X187000000Y-119000000D03*
X113500000Y-126000000D03*
X169500000Y-98000000D03*
X195750000Y-122500000D03*
X160750000Y-73500000D03*
X134500000Y-98000000D03*
X108250000Y-94500000D03*
X138000000Y-98000000D03*
X103000000Y-70000000D03*
X197500000Y-119000000D03*
X154750000Y-93625000D03*
X176500000Y-112000000D03*
X124000000Y-77000000D03*
X146750000Y-115500000D03*
X148500000Y-84000000D03*
X188750000Y-143500000D03*
X141500000Y-91000000D03*
X178250000Y-115500000D03*
X150250000Y-87500000D03*
X122250000Y-101500000D03*
X197500000Y-133000000D03*
X125750000Y-136500000D03*
X127500000Y-91000000D03*
X117000000Y-84000000D03*
X118750000Y-94500000D03*
X106500000Y-147000000D03*
X108250000Y-129500000D03*
X190500000Y-112000000D03*
X122250000Y-136500000D03*
X187000000Y-133000000D03*
X157250000Y-143500000D03*
X120500000Y-119000000D03*
X136250000Y-101500000D03*
X108250000Y-101500000D03*
X117000000Y-77000000D03*
X145000000Y-77000000D03*
X110000000Y-84000000D03*
X155500000Y-98000000D03*
X181750000Y-136500000D03*
X106500000Y-70000000D03*
X180000000Y-147000000D03*
X118750000Y-136500000D03*
X138000000Y-126000000D03*
X106500000Y-112000000D03*
X183500000Y-112000000D03*
X171250000Y-122500000D03*
X131000000Y-84000000D03*
X152000000Y-119000000D03*
X115250000Y-66500000D03*
X108250000Y-122500000D03*
X195750000Y-108500000D03*
X103000000Y-77000000D03*
X180000000Y-140000000D03*
X124000000Y-105000000D03*
X136250000Y-94500000D03*
X153750000Y-136500000D03*
X122250000Y-94500000D03*
X117000000Y-91000000D03*
X169500000Y-133000000D03*
X138000000Y-140000000D03*
X167750000Y-136500000D03*
X150250000Y-108500000D03*
X166000000Y-63000000D03*
X124000000Y-140000000D03*
X125750000Y-94500000D03*
X152000000Y-91000000D03*
X143250000Y-87500000D03*
X108250000Y-66500000D03*
X103000000Y-84000000D03*
X138000000Y-91000000D03*
X181750000Y-108500000D03*
X145000000Y-84000000D03*
X141500000Y-147000000D03*
X111750000Y-136500000D03*
X103000000Y-91000000D03*
X187000000Y-147000000D03*
X136250000Y-73500000D03*
X157250000Y-73500000D03*
X103000000Y-105000000D03*
X139750000Y-73500000D03*
X117000000Y-126000000D03*
X103000000Y-133000000D03*
X127500000Y-98000000D03*
X110000000Y-70000000D03*
X118750000Y-73500000D03*
X167750000Y-143500000D03*
X120500000Y-91000000D03*
X145000000Y-70000000D03*
%TO.N,SWDIO*%
X161968900Y-118439900D03*
X161968900Y-98250000D03*
%TO.N,GND_HOST*%
X195750000Y-87500000D03*
X176500000Y-77000000D03*
X192250000Y-73500000D03*
X185250000Y-87500000D03*
X188750000Y-66500000D03*
X187000000Y-105000000D03*
X192140577Y-85650000D03*
X183500000Y-98000000D03*
X176500000Y-105000000D03*
X188750000Y-94500000D03*
X185250000Y-73500000D03*
X185250000Y-66500000D03*
X187000000Y-84000000D03*
X190500000Y-91000000D03*
X180000000Y-105000000D03*
X192250000Y-87500000D03*
X192250000Y-94500000D03*
X194000000Y-98000000D03*
X187000000Y-98000000D03*
X178250000Y-94500000D03*
X195750000Y-101500000D03*
X176500000Y-84000000D03*
X195750000Y-94500000D03*
X194000000Y-105000000D03*
X181750000Y-80500000D03*
X176500000Y-70000000D03*
X183500000Y-84000000D03*
X194000000Y-70000000D03*
X190500000Y-77000000D03*
X180000000Y-77000000D03*
X180000000Y-70000000D03*
X194000000Y-91000000D03*
X188750000Y-87500000D03*
X192250000Y-101500000D03*
X185250000Y-80500000D03*
X181750000Y-66500000D03*
X180000000Y-98000000D03*
X180000000Y-84000000D03*
X187000000Y-70000000D03*
X195750000Y-66500000D03*
X190500000Y-105000000D03*
X190500000Y-98000000D03*
X178250000Y-80500000D03*
X178250000Y-73500000D03*
X185250000Y-101500000D03*
X192250000Y-66500000D03*
X176500000Y-98000000D03*
X181750000Y-101500000D03*
X188750000Y-101500000D03*
X181750000Y-73500000D03*
X183500000Y-70000000D03*
X178250000Y-101500000D03*
X178250000Y-66500000D03*
X176363603Y-88861396D03*
X183500000Y-105000000D03*
%TO.N,VBUS_USB*%
X191821800Y-79600000D03*
X191564500Y-84400000D03*
%TO.N,ESTOP_SENSE*%
X146712900Y-99857100D03*
X155114500Y-111816100D03*
X153704200Y-102904000D03*
%TO.N,ARM_DIV*%
X158641500Y-90238000D03*
X144443900Y-99998500D03*
%TO.N,SCL1*%
X125413700Y-132013000D03*
X155750000Y-94074300D03*
X134257600Y-120971100D03*
%TO.N,SHUNT_INP_RAW*%
X126152800Y-125951400D03*
%TO.N,RELAY_FB*%
X155672300Y-116250000D03*
X155709300Y-103950600D03*
%TO.N,UART_RX_MCU*%
X169156900Y-104999600D03*
X153415500Y-106639700D03*
%TO.N,3V3_A*%
X125535800Y-130050600D03*
X140309700Y-107898100D03*
X145219300Y-98277600D03*
%TO.N,INA_ALERT*%
X158371800Y-108112200D03*
X123094900Y-121317000D03*
%TO.N,LOAD_EN*%
X165380200Y-102635300D03*
X139375000Y-103492000D03*
%TO.N,NRST*%
X153126700Y-117973900D03*
X149876100Y-97275000D03*
X153580000Y-100080100D03*
%TO.N,SWCLK*%
X161145000Y-120000000D03*
X162368600Y-95834300D03*
%TO.N,SWO*%
X161193700Y-136320700D03*
X158750000Y-96562400D03*
%TO.N,BOOT0*%
X156251600Y-96553400D03*
%TO.N,SDA1*%
X153780700Y-96559000D03*
X123433800Y-128500000D03*
X135877200Y-117500000D03*
X124950400Y-119296600D03*
%TO.N,USB_DM*%
X189057600Y-71709600D03*
X181991700Y-90723400D03*
%TO.N,USB_DP*%
X182749900Y-90700300D03*
X190269400Y-69406000D03*
%TD*%
%TO.N,SDA2*%
D24*
X161793700Y-110044100D02*
X163116500Y-110044100D01*
X159986800Y-108237200D02*
X161793700Y-110044100D01*
%TO.N,+3V3*%
D25*
X149928800Y-130000000D02*
X148848300Y-130000000D01*
X126905800Y-129997300D02*
X148845600Y-129997300D01*
X149928800Y-130000000D02*
X150000000Y-130000000D01*
X148845600Y-129997300D02*
X148848300Y-130000000D01*
X150000000Y-130000000D02*
X172287100Y-130000000D01*
X172287100Y-130000000D02*
X178287100Y-136000000D01*
%TO.N,ESTOP_SENSE*%
D24*
X150657300Y-99857100D02*
X153704200Y-102904000D01*
X146712900Y-99857100D02*
X150657300Y-99857100D01*
%TO.N,UART_RX_MCU*%
X169156900Y-104999600D02*
X167516800Y-106639700D01*
X167516800Y-106639700D02*
X153415500Y-106639700D01*
%TO.N,INA_ALERT*%
X144627700Y-121522800D02*
X123300700Y-121522800D01*
X123300700Y-121522800D02*
X123094900Y-121317000D01*
X158371800Y-108112200D02*
X158038300Y-108112200D01*
X158038300Y-108112200D02*
X144627700Y-121522800D01*
%TO.N,LOAD_EN*%
X156244500Y-102635300D02*
X155387800Y-103492000D01*
X155387800Y-103492000D02*
X139375000Y-103492000D01*
X165380200Y-102635300D02*
X156244500Y-102635300D01*
%TD*%
%TA.AperFunction,Conductor*%
%TO.N,GND_HOST*%
G36*
X194787034Y-62518907D02*
G01*
X194822998Y-62568407D01*
X194822998Y-62629593D01*
X194798848Y-62669001D01*
X194650942Y-62816908D01*
X194650936Y-62816914D01*
X194508061Y-63003113D01*
X194390701Y-63206387D01*
X194300885Y-63423223D01*
X194300882Y-63423230D01*
X194240136Y-63649940D01*
X194209500Y-63882643D01*
X194209500Y-64117356D01*
X194240136Y-64350059D01*
X194300882Y-64576769D01*
X194300885Y-64576776D01*
X194390701Y-64793612D01*
X194508061Y-64996886D01*
X194650936Y-65183085D01*
X194650938Y-65183087D01*
X194650942Y-65183092D01*
X194816908Y-65349058D01*
X194816912Y-65349061D01*
X194816914Y-65349063D01*
X195003113Y-65491938D01*
X195003117Y-65491941D01*
X195206383Y-65609296D01*
X195206384Y-65609296D01*
X195206387Y-65609298D01*
X195264877Y-65633525D01*
X195423228Y-65699117D01*
X195649941Y-65759864D01*
X195882644Y-65790500D01*
X195882645Y-65790500D01*
X196117355Y-65790500D01*
X196117356Y-65790500D01*
X196350059Y-65759864D01*
X196576772Y-65699117D01*
X196793617Y-65609296D01*
X196996883Y-65491941D01*
X197183092Y-65349058D01*
X197330998Y-65201151D01*
X197385513Y-65173376D01*
X197445945Y-65182947D01*
X197489210Y-65226212D01*
X197500000Y-65271157D01*
X197500000Y-76830500D01*
X197481093Y-76888691D01*
X197431593Y-76924655D01*
X197401000Y-76929500D01*
X197201081Y-76929500D01*
X197056085Y-76958342D01*
X196919506Y-77014915D01*
X196796585Y-77097048D01*
X196692048Y-77201585D01*
X196609915Y-77324506D01*
X196553342Y-77461085D01*
X196553342Y-77461087D01*
X196524500Y-77606082D01*
X196524500Y-77753918D01*
X196553342Y-77898913D01*
X196609916Y-78035495D01*
X196692049Y-78158416D01*
X196796584Y-78262951D01*
X196919505Y-78345084D01*
X197056087Y-78401658D01*
X197201082Y-78430500D01*
X197201083Y-78430500D01*
X197401000Y-78430500D01*
X197459191Y-78449407D01*
X197495155Y-78498907D01*
X197500000Y-78529500D01*
X197500000Y-85470500D01*
X197481093Y-85528691D01*
X197431593Y-85564655D01*
X197401000Y-85569500D01*
X197201081Y-85569500D01*
X197056085Y-85598342D01*
X196919506Y-85654915D01*
X196796585Y-85737048D01*
X196692048Y-85841585D01*
X196609915Y-85964506D01*
X196553342Y-86101085D01*
X196553342Y-86101087D01*
X196524500Y-86246082D01*
X196524500Y-86393918D01*
X196553342Y-86538913D01*
X196609916Y-86675495D01*
X196692049Y-86798416D01*
X196796584Y-86902951D01*
X196919505Y-86985084D01*
X197056087Y-87041658D01*
X197201082Y-87070500D01*
X197201083Y-87070500D01*
X197401000Y-87070500D01*
X197459191Y-87089407D01*
X197495155Y-87138907D01*
X197500000Y-87169500D01*
X197500000Y-107401000D01*
X197481093Y-107459191D01*
X197431593Y-107495155D01*
X197401000Y-107500000D01*
X174599000Y-107500000D01*
X174540809Y-107481093D01*
X174504845Y-107431593D01*
X174500000Y-107401000D01*
X174500000Y-90650925D01*
X181441200Y-90650925D01*
X181441200Y-90795874D01*
X181478717Y-90935889D01*
X181551187Y-91061410D01*
X181551189Y-91061412D01*
X181551191Y-91061415D01*
X181653685Y-91163909D01*
X181653687Y-91163910D01*
X181653689Y-91163912D01*
X181779211Y-91236382D01*
X181779212Y-91236382D01*
X181779215Y-91236384D01*
X181919225Y-91273900D01*
X181919226Y-91273900D01*
X182064174Y-91273900D01*
X182064175Y-91273900D01*
X182204185Y-91236384D01*
X182204187Y-91236382D01*
X182204189Y-91236382D01*
X182335335Y-91160665D01*
X182335941Y-91161714D01*
X182387361Y-91143501D01*
X182439461Y-91156731D01*
X182537411Y-91213282D01*
X182537412Y-91213282D01*
X182537415Y-91213284D01*
X182677425Y-91250800D01*
X182677426Y-91250800D01*
X182822374Y-91250800D01*
X182822375Y-91250800D01*
X182962385Y-91213284D01*
X182962387Y-91213282D01*
X182962389Y-91213282D01*
X183087910Y-91140812D01*
X183087910Y-91140811D01*
X183087915Y-91140809D01*
X183190409Y-91038315D01*
X183262884Y-90912785D01*
X183300400Y-90772775D01*
X183300400Y-90627825D01*
X183262884Y-90487815D01*
X183262882Y-90487812D01*
X183262882Y-90487810D01*
X183190412Y-90362289D01*
X183190410Y-90362287D01*
X183190409Y-90362285D01*
X183087915Y-90259791D01*
X183087912Y-90259789D01*
X183087910Y-90259787D01*
X182962388Y-90187317D01*
X182962389Y-90187317D01*
X182908584Y-90172900D01*
X182822375Y-90149800D01*
X182677425Y-90149800D01*
X182615690Y-90166341D01*
X182537410Y-90187317D01*
X182406265Y-90263035D01*
X182405660Y-90261988D01*
X182354216Y-90280198D01*
X182302138Y-90266969D01*
X182204186Y-90210416D01*
X182117979Y-90187317D01*
X182064175Y-90172900D01*
X181919225Y-90172900D01*
X181865421Y-90187317D01*
X181779210Y-90210417D01*
X181653689Y-90282887D01*
X181551187Y-90385389D01*
X181478717Y-90510910D01*
X181441200Y-90650925D01*
X174500000Y-90650925D01*
X174500000Y-86246082D01*
X192194500Y-86246082D01*
X192194500Y-86393918D01*
X192223342Y-86538913D01*
X192279916Y-86675495D01*
X192362049Y-86798416D01*
X192466584Y-86902951D01*
X192589505Y-86985084D01*
X192726087Y-87041658D01*
X192871082Y-87070500D01*
X192871083Y-87070500D01*
X194118917Y-87070500D01*
X194118918Y-87070500D01*
X194263913Y-87041658D01*
X194400495Y-86985084D01*
X194523416Y-86902951D01*
X194627951Y-86798416D01*
X194710084Y-86675495D01*
X194766658Y-86538913D01*
X194795500Y-86393918D01*
X194795500Y-86246082D01*
X194766658Y-86101087D01*
X194710084Y-85964505D01*
X194627951Y-85841584D01*
X194523416Y-85737049D01*
X194400495Y-85654916D01*
X194400493Y-85654915D01*
X194263914Y-85598342D01*
X194151894Y-85576059D01*
X194098510Y-85546161D01*
X194072895Y-85490596D01*
X194084832Y-85430586D01*
X194129763Y-85389054D01*
X194145574Y-85383338D01*
X194193975Y-85370369D01*
X194193977Y-85370367D01*
X194193979Y-85370367D01*
X194228899Y-85350205D01*
X194311524Y-85302502D01*
X194407502Y-85206524D01*
X194475369Y-85088975D01*
X194510500Y-84957867D01*
X194510500Y-84822133D01*
X194475369Y-84691025D01*
X194407502Y-84573476D01*
X194311524Y-84477498D01*
X194302824Y-84472475D01*
X194193978Y-84409632D01*
X194193974Y-84409630D01*
X194062869Y-84374500D01*
X194062867Y-84374500D01*
X193927133Y-84374500D01*
X193927130Y-84374500D01*
X193796025Y-84409630D01*
X193796021Y-84409632D01*
X193678478Y-84477496D01*
X193582496Y-84573478D01*
X193514632Y-84691021D01*
X193514630Y-84691025D01*
X193479500Y-84822130D01*
X193479500Y-84957869D01*
X193514630Y-85088974D01*
X193514632Y-85088978D01*
X193582496Y-85206521D01*
X193582498Y-85206524D01*
X193678476Y-85302502D01*
X193678478Y-85302503D01*
X193796021Y-85370367D01*
X193796025Y-85370369D01*
X193812836Y-85374874D01*
X193864150Y-85408198D01*
X193886076Y-85465320D01*
X193870240Y-85524420D01*
X193822689Y-85562925D01*
X193787212Y-85569500D01*
X192871081Y-85569500D01*
X192726085Y-85598342D01*
X192589506Y-85654915D01*
X192466585Y-85737048D01*
X192362048Y-85841585D01*
X192279915Y-85964506D01*
X192223342Y-86101085D01*
X192223342Y-86101087D01*
X192194500Y-86246082D01*
X174500000Y-86246082D01*
X174500000Y-84327525D01*
X191014000Y-84327525D01*
X191014000Y-84472475D01*
X191015346Y-84477498D01*
X191051517Y-84612489D01*
X191123987Y-84738010D01*
X191123989Y-84738012D01*
X191123991Y-84738015D01*
X191226485Y-84840509D01*
X191226487Y-84840510D01*
X191226489Y-84840512D01*
X191352011Y-84912982D01*
X191352012Y-84912982D01*
X191352015Y-84912984D01*
X191492025Y-84950500D01*
X191492026Y-84950500D01*
X191636974Y-84950500D01*
X191636975Y-84950500D01*
X191776985Y-84912984D01*
X191776987Y-84912982D01*
X191776989Y-84912982D01*
X191902510Y-84840512D01*
X191902510Y-84840511D01*
X191902515Y-84840509D01*
X192005009Y-84738015D01*
X192077484Y-84612485D01*
X192115000Y-84472475D01*
X192115000Y-84327525D01*
X192077484Y-84187515D01*
X192077482Y-84187512D01*
X192077482Y-84187510D01*
X192005012Y-84061989D01*
X192005010Y-84061987D01*
X192005009Y-84061985D01*
X191902515Y-83959491D01*
X191902512Y-83959489D01*
X191902510Y-83959487D01*
X191776988Y-83887017D01*
X191776989Y-83887017D01*
X191747396Y-83879087D01*
X191636975Y-83849500D01*
X191492025Y-83849500D01*
X191430290Y-83866041D01*
X191352010Y-83887017D01*
X191226489Y-83959487D01*
X191123987Y-84061989D01*
X191051517Y-84187510D01*
X191051516Y-84187515D01*
X191014000Y-84327525D01*
X174500000Y-84327525D01*
X174500000Y-79527525D01*
X191271300Y-79527525D01*
X191271300Y-79672474D01*
X191308817Y-79812489D01*
X191381287Y-79938010D01*
X191381289Y-79938012D01*
X191381291Y-79938015D01*
X191483785Y-80040509D01*
X191483787Y-80040510D01*
X191483789Y-80040512D01*
X191609311Y-80112982D01*
X191609312Y-80112982D01*
X191609315Y-80112984D01*
X191749325Y-80150500D01*
X191749326Y-80150500D01*
X191894274Y-80150500D01*
X191894275Y-80150500D01*
X192034285Y-80112984D01*
X192034287Y-80112982D01*
X192034289Y-80112982D01*
X192159810Y-80040512D01*
X192159810Y-80040511D01*
X192159815Y-80040509D01*
X192262309Y-79938015D01*
X192334784Y-79812485D01*
X192372300Y-79672475D01*
X192372300Y-79527525D01*
X192334784Y-79387515D01*
X192334782Y-79387512D01*
X192334782Y-79387510D01*
X192262312Y-79261989D01*
X192262310Y-79261987D01*
X192262309Y-79261985D01*
X192159815Y-79159491D01*
X192159812Y-79159489D01*
X192159810Y-79159487D01*
X192034288Y-79087017D01*
X192034289Y-79087017D01*
X192004696Y-79079087D01*
X191894275Y-79049500D01*
X191749325Y-79049500D01*
X191687590Y-79066041D01*
X191609310Y-79087017D01*
X191483789Y-79159487D01*
X191381287Y-79261989D01*
X191308817Y-79387510D01*
X191271300Y-79527525D01*
X174500000Y-79527525D01*
X174500000Y-77606082D01*
X192194500Y-77606082D01*
X192194500Y-77753918D01*
X192223342Y-77898913D01*
X192279916Y-78035495D01*
X192362049Y-78158416D01*
X192466584Y-78262951D01*
X192589505Y-78345084D01*
X192726087Y-78401658D01*
X192871082Y-78430500D01*
X192871083Y-78430500D01*
X193787212Y-78430500D01*
X193845403Y-78449407D01*
X193881367Y-78498907D01*
X193881367Y-78560093D01*
X193845403Y-78609593D01*
X193812836Y-78625126D01*
X193796025Y-78629630D01*
X193796021Y-78629632D01*
X193678478Y-78697496D01*
X193582496Y-78793478D01*
X193514632Y-78911021D01*
X193514630Y-78911025D01*
X193479500Y-79042130D01*
X193479500Y-79177869D01*
X193514630Y-79308974D01*
X193514632Y-79308978D01*
X193559973Y-79387510D01*
X193582498Y-79426524D01*
X193678476Y-79522502D01*
X193678478Y-79522503D01*
X193796021Y-79590367D01*
X193796025Y-79590369D01*
X193927130Y-79625499D01*
X193927132Y-79625500D01*
X193927133Y-79625500D01*
X194062868Y-79625500D01*
X194062868Y-79625499D01*
X194193975Y-79590369D01*
X194311524Y-79522502D01*
X194407502Y-79426524D01*
X194475369Y-79308975D01*
X194510500Y-79177867D01*
X194510500Y-79042133D01*
X194475369Y-78911025D01*
X194407502Y-78793476D01*
X194311524Y-78697498D01*
X194311521Y-78697496D01*
X194193978Y-78629632D01*
X194193974Y-78629630D01*
X194145585Y-78616664D01*
X194094271Y-78583340D01*
X194072345Y-78526218D01*
X194088181Y-78467118D01*
X194135732Y-78428613D01*
X194151891Y-78423940D01*
X194263913Y-78401658D01*
X194400495Y-78345084D01*
X194523416Y-78262951D01*
X194627951Y-78158416D01*
X194710084Y-78035495D01*
X194766658Y-77898913D01*
X194795500Y-77753918D01*
X194795500Y-77606082D01*
X194766658Y-77461087D01*
X194710084Y-77324505D01*
X194627951Y-77201584D01*
X194523416Y-77097049D01*
X194400495Y-77014916D01*
X194400493Y-77014915D01*
X194263914Y-76958342D01*
X194118918Y-76929500D01*
X192871082Y-76929500D01*
X192871081Y-76929500D01*
X192726085Y-76958342D01*
X192589506Y-77014915D01*
X192466585Y-77097048D01*
X192362048Y-77201585D01*
X192279915Y-77324506D01*
X192223342Y-77461085D01*
X192223342Y-77461087D01*
X192194500Y-77606082D01*
X174500000Y-77606082D01*
X174500000Y-71637125D01*
X188507100Y-71637125D01*
X188507100Y-71782074D01*
X188544617Y-71922089D01*
X188617087Y-72047610D01*
X188617089Y-72047612D01*
X188617091Y-72047615D01*
X188719585Y-72150109D01*
X188719587Y-72150110D01*
X188719589Y-72150112D01*
X188845111Y-72222582D01*
X188845112Y-72222582D01*
X188845115Y-72222584D01*
X188985125Y-72260100D01*
X188985126Y-72260100D01*
X189130074Y-72260100D01*
X189130075Y-72260100D01*
X189270085Y-72222584D01*
X189270087Y-72222582D01*
X189270089Y-72222582D01*
X189395610Y-72150112D01*
X189395610Y-72150111D01*
X189395615Y-72150109D01*
X189498109Y-72047615D01*
X189570584Y-71922085D01*
X189608100Y-71782075D01*
X189608100Y-71637125D01*
X189570584Y-71497115D01*
X189570582Y-71497112D01*
X189570582Y-71497110D01*
X189498112Y-71371589D01*
X189498110Y-71371587D01*
X189498109Y-71371585D01*
X189395615Y-71269091D01*
X189395612Y-71269089D01*
X189395610Y-71269087D01*
X189270088Y-71196617D01*
X189270089Y-71196617D01*
X189240496Y-71188687D01*
X189130075Y-71159100D01*
X188985125Y-71159100D01*
X188923390Y-71175641D01*
X188845110Y-71196617D01*
X188719589Y-71269087D01*
X188617087Y-71371589D01*
X188544617Y-71497110D01*
X188507100Y-71637125D01*
X174500000Y-71637125D01*
X174500000Y-69333525D01*
X189718900Y-69333525D01*
X189718900Y-69478474D01*
X189756417Y-69618489D01*
X189828887Y-69744010D01*
X189828889Y-69744012D01*
X189828891Y-69744015D01*
X189931385Y-69846509D01*
X189931387Y-69846510D01*
X189931389Y-69846512D01*
X190056911Y-69918982D01*
X190056912Y-69918982D01*
X190056915Y-69918984D01*
X190196925Y-69956500D01*
X190196926Y-69956500D01*
X190341874Y-69956500D01*
X190341875Y-69956500D01*
X190481885Y-69918984D01*
X190481887Y-69918982D01*
X190481889Y-69918982D01*
X190607410Y-69846512D01*
X190607410Y-69846511D01*
X190607415Y-69846509D01*
X190709909Y-69744015D01*
X190782384Y-69618485D01*
X190819900Y-69478475D01*
X190819900Y-69333525D01*
X190782384Y-69193515D01*
X190782382Y-69193512D01*
X190782382Y-69193510D01*
X190709912Y-69067989D01*
X190709910Y-69067987D01*
X190709909Y-69067985D01*
X190607415Y-68965491D01*
X190607412Y-68965489D01*
X190607410Y-68965487D01*
X190481888Y-68893017D01*
X190481889Y-68893017D01*
X190452296Y-68885087D01*
X190341875Y-68855500D01*
X190196925Y-68855500D01*
X190135190Y-68872041D01*
X190056910Y-68893017D01*
X189931389Y-68965487D01*
X189828887Y-69067989D01*
X189756417Y-69193510D01*
X189718900Y-69333525D01*
X174500000Y-69333525D01*
X174500000Y-62599000D01*
X174518907Y-62540809D01*
X174568407Y-62504845D01*
X174599000Y-62500000D01*
X194728843Y-62500000D01*
X194787034Y-62518907D01*
G37*
%TD.AperFunction*%
%TD*%
%TA.AperFunction,Conductor*%
%TO.N,GND*%
G36*
X171415908Y-60504843D02*
G01*
X171428595Y-60508966D01*
X171478095Y-60544927D01*
X171478096Y-60544928D01*
X171481091Y-60549050D01*
X171500000Y-60607240D01*
X171500000Y-107500000D01*
X174197069Y-107500000D01*
X174255260Y-107518907D01*
X174286975Y-107557552D01*
X174298140Y-107581772D01*
X174298141Y-107581773D01*
X174334101Y-107631269D01*
X174334104Y-107631272D01*
X174334105Y-107631273D01*
X174374876Y-107675378D01*
X174461857Y-107724088D01*
X174520048Y-107742995D01*
X174520049Y-107742995D01*
X174520052Y-107742996D01*
X174598997Y-107755500D01*
X197401000Y-107755500D01*
X197459191Y-107774407D01*
X197495155Y-107823907D01*
X197500000Y-107854500D01*
X197500000Y-144713162D01*
X197495154Y-144743756D01*
X197491774Y-144754158D01*
X197455809Y-144803658D01*
X197397618Y-144822564D01*
X197345892Y-144807975D01*
X197340990Y-144804971D01*
X197322715Y-144790564D01*
X197183090Y-144650940D01*
X196996889Y-144508063D01*
X196996886Y-144508061D01*
X196793612Y-144390701D01*
X196793608Y-144390699D01*
X196793604Y-144390697D01*
X196617878Y-144317910D01*
X196580012Y-144302225D01*
X196577326Y-144300999D01*
X196575343Y-144300500D01*
X196533950Y-144289409D01*
X196350059Y-144240136D01*
X196117356Y-144209500D01*
X195882642Y-144209500D01*
X195649939Y-144240136D01*
X195423231Y-144300881D01*
X195423172Y-144300902D01*
X195422693Y-144301104D01*
X195206391Y-144390698D01*
X195003109Y-144508063D01*
X194816917Y-144650933D01*
X194650933Y-144816917D01*
X194508063Y-145003109D01*
X194390698Y-145206391D01*
X194301104Y-145422693D01*
X194300902Y-145423172D01*
X194300881Y-145423231D01*
X194240136Y-145649939D01*
X194209500Y-145882642D01*
X194209500Y-146117356D01*
X194240136Y-146350059D01*
X194300881Y-146576767D01*
X194300901Y-146576825D01*
X194301104Y-146577305D01*
X194390705Y-146793622D01*
X194390744Y-146793700D01*
X194391110Y-146794320D01*
X194499783Y-146982549D01*
X194508061Y-146996886D01*
X194650936Y-147183085D01*
X194650938Y-147183087D01*
X194650942Y-147183092D01*
X194816908Y-147349058D01*
X194816911Y-147349060D01*
X194816917Y-147349066D01*
X194816939Y-147349085D01*
X194817313Y-147349369D01*
X195003113Y-147491938D01*
X195003117Y-147491941D01*
X195203654Y-147607720D01*
X195205041Y-147608582D01*
X195207811Y-147610120D01*
X195208266Y-147610382D01*
X195212362Y-147611773D01*
X195264877Y-147633525D01*
X195423228Y-147699117D01*
X195649941Y-147759864D01*
X195882644Y-147790500D01*
X195882645Y-147790500D01*
X196117355Y-147790500D01*
X196117356Y-147790500D01*
X196350059Y-147759864D01*
X196576772Y-147699117D01*
X196793617Y-147609296D01*
X196996883Y-147491941D01*
X197183092Y-147349058D01*
X197319911Y-147212237D01*
X197344969Y-147194032D01*
X197354717Y-147189065D01*
X197415150Y-147179499D01*
X197469664Y-147207280D01*
X197495918Y-147254156D01*
X197497262Y-147259751D01*
X197500000Y-147282874D01*
X197500000Y-149385319D01*
X197495154Y-149415912D01*
X197491032Y-149428598D01*
X197455080Y-149478089D01*
X197450959Y-149481084D01*
X197392771Y-149500000D01*
X100614680Y-149500000D01*
X100584087Y-149495154D01*
X100571401Y-149491032D01*
X100521901Y-149455068D01*
X100521894Y-149455058D01*
X100518900Y-149450936D01*
X100500000Y-149392756D01*
X100500000Y-145882642D01*
X102209500Y-145882642D01*
X102209500Y-146117356D01*
X102240136Y-146350059D01*
X102300881Y-146576767D01*
X102300901Y-146576825D01*
X102301104Y-146577305D01*
X102390705Y-146793622D01*
X102390744Y-146793700D01*
X102391110Y-146794320D01*
X102499783Y-146982549D01*
X102508061Y-146996886D01*
X102650936Y-147183085D01*
X102650938Y-147183087D01*
X102650942Y-147183092D01*
X102816908Y-147349058D01*
X102816911Y-147349060D01*
X102816917Y-147349066D01*
X102816939Y-147349085D01*
X102817313Y-147349369D01*
X103003113Y-147491938D01*
X103003117Y-147491941D01*
X103203654Y-147607720D01*
X103205041Y-147608582D01*
X103207811Y-147610120D01*
X103208266Y-147610382D01*
X103212362Y-147611773D01*
X103264877Y-147633525D01*
X103423228Y-147699117D01*
X103649941Y-147759864D01*
X103882644Y-147790500D01*
X103882645Y-147790500D01*
X104117355Y-147790500D01*
X104117356Y-147790500D01*
X104350059Y-147759864D01*
X104576772Y-147699117D01*
X104793617Y-147609296D01*
X104996883Y-147491941D01*
X105183092Y-147349058D01*
X105349058Y-147183092D01*
X105491941Y-146996883D01*
X105609296Y-146793617D01*
X105699117Y-146576772D01*
X105759864Y-146350059D01*
X105790500Y-146117356D01*
X105790500Y-145882644D01*
X105759864Y-145649941D01*
X105699117Y-145423228D01*
X105659312Y-145327132D01*
X181149500Y-145327132D01*
X181149500Y-146673401D01*
X181149786Y-146675521D01*
X181150038Y-146677863D01*
X181155908Y-146732480D01*
X181155909Y-146732485D01*
X181155912Y-146732492D01*
X181206200Y-146867327D01*
X181292449Y-146982541D01*
X181292522Y-146982633D01*
X181292799Y-146982879D01*
X181294588Y-146984144D01*
X181354112Y-147028703D01*
X181407668Y-147068796D01*
X181407669Y-147068796D01*
X181407670Y-147068797D01*
X181541544Y-147118728D01*
X181542985Y-147119285D01*
X181544247Y-147119466D01*
X181547767Y-147119655D01*
X181602127Y-147125500D01*
X182397872Y-147125499D01*
X182457483Y-147119091D01*
X182527935Y-147092814D01*
X182582255Y-147072554D01*
X182590694Y-147069407D01*
X182594023Y-147068232D01*
X182597583Y-147067046D01*
X182605167Y-147059186D01*
X182707546Y-146982546D01*
X182793796Y-146867331D01*
X182793798Y-146867327D01*
X182844089Y-146732488D01*
X182844090Y-146732485D01*
X182844091Y-146732483D01*
X182850500Y-146672873D01*
X182850499Y-145641227D01*
X183149500Y-145641227D01*
X183149500Y-145641230D01*
X183149500Y-146358769D01*
X183182183Y-146523079D01*
X183182184Y-146523082D01*
X183182186Y-146523087D01*
X183244227Y-146672869D01*
X183246296Y-146677862D01*
X183246297Y-146677863D01*
X183339374Y-146817162D01*
X183457838Y-146935626D01*
X183597137Y-147028703D01*
X183751918Y-147092816D01*
X183916233Y-147125500D01*
X183916234Y-147125500D01*
X184083766Y-147125500D01*
X184083767Y-147125500D01*
X184248082Y-147092816D01*
X184402863Y-147028703D01*
X184542162Y-146935626D01*
X184660626Y-146817162D01*
X184753703Y-146677863D01*
X184817816Y-146523082D01*
X184850500Y-146358767D01*
X184850500Y-145641233D01*
X184850499Y-145641230D01*
X184850498Y-145641227D01*
X185149500Y-145641227D01*
X185149500Y-145641230D01*
X185149500Y-146358769D01*
X185182183Y-146523079D01*
X185182184Y-146523082D01*
X185182186Y-146523087D01*
X185244227Y-146672869D01*
X185246296Y-146677862D01*
X185246297Y-146677863D01*
X185339374Y-146817162D01*
X185457838Y-146935626D01*
X185597137Y-147028703D01*
X185751918Y-147092816D01*
X185916233Y-147125500D01*
X185916234Y-147125500D01*
X186083766Y-147125500D01*
X186083767Y-147125500D01*
X186248082Y-147092816D01*
X186402863Y-147028703D01*
X186542162Y-146935626D01*
X186660626Y-146817162D01*
X186753703Y-146677863D01*
X186817816Y-146523082D01*
X186850500Y-146358767D01*
X186850500Y-145641233D01*
X186817816Y-145476918D01*
X186753703Y-145322137D01*
X186660626Y-145182838D01*
X186542162Y-145064374D01*
X186460002Y-145009476D01*
X186447496Y-144993612D01*
X186402869Y-144971299D01*
X186402862Y-144971296D01*
X186248085Y-144907185D01*
X186248079Y-144907183D01*
X186165924Y-144890841D01*
X186083771Y-144874500D01*
X186083769Y-144874500D01*
X186083767Y-144874500D01*
X185916233Y-144874500D01*
X185916230Y-144874500D01*
X185916227Y-144874500D01*
X185792997Y-144899012D01*
X185751920Y-144907183D01*
X185751914Y-144907185D01*
X185751912Y-144907185D01*
X185751911Y-144907186D01*
X185597137Y-144971295D01*
X185457838Y-145064373D01*
X185457834Y-145064376D01*
X185457834Y-145064377D01*
X185339377Y-145182834D01*
X185339374Y-145182838D01*
X185323642Y-145206383D01*
X185246295Y-145322137D01*
X185182186Y-145476911D01*
X185182183Y-145476921D01*
X185149500Y-145641227D01*
X184850498Y-145641227D01*
X184839605Y-145586461D01*
X184817816Y-145476918D01*
X184753703Y-145322137D01*
X184660626Y-145182838D01*
X184542162Y-145064374D01*
X184460002Y-145009476D01*
X184447496Y-144993612D01*
X184402869Y-144971299D01*
X184402862Y-144971296D01*
X184248085Y-144907185D01*
X184248079Y-144907183D01*
X184165924Y-144890841D01*
X184083771Y-144874500D01*
X184083769Y-144874500D01*
X184083767Y-144874500D01*
X183916233Y-144874500D01*
X183916230Y-144874500D01*
X183916227Y-144874500D01*
X183792997Y-144899012D01*
X183751920Y-144907183D01*
X183751914Y-144907185D01*
X183751912Y-144907185D01*
X183751911Y-144907186D01*
X183597137Y-144971295D01*
X183457838Y-145064373D01*
X183457834Y-145064376D01*
X183457834Y-145064377D01*
X183339377Y-145182834D01*
X183339374Y-145182838D01*
X183323642Y-145206383D01*
X183246295Y-145322137D01*
X183182186Y-145476911D01*
X183182183Y-145476921D01*
X183149500Y-145641227D01*
X182850499Y-145641227D01*
X182850499Y-145327128D01*
X182844091Y-145267517D01*
X182844086Y-145267504D01*
X182812508Y-145182839D01*
X182812508Y-145182838D01*
X182793797Y-145132670D01*
X182709156Y-145019605D01*
X182707881Y-145017802D01*
X182707633Y-145017522D01*
X182707541Y-145017449D01*
X182592330Y-144931202D01*
X182592328Y-144931201D01*
X182462428Y-144882752D01*
X182458939Y-144881234D01*
X182458025Y-144880996D01*
X182455927Y-144880540D01*
X182452206Y-144880341D01*
X182435312Y-144878524D01*
X182426249Y-144877550D01*
X182426248Y-144877549D01*
X182397876Y-144874500D01*
X182397873Y-144874500D01*
X182397870Y-144874500D01*
X181602133Y-144874500D01*
X181602129Y-144874500D01*
X181593938Y-144874500D01*
X181587975Y-144876021D01*
X181579069Y-144876978D01*
X181542520Y-144880907D01*
X181542514Y-144880908D01*
X181542514Y-144880909D01*
X181542506Y-144880912D01*
X181407671Y-144931200D01*
X181292456Y-145017451D01*
X181292454Y-145017453D01*
X181292451Y-145017456D01*
X181292450Y-145017458D01*
X181277758Y-145037082D01*
X181206200Y-145132671D01*
X181155912Y-145267504D01*
X181155908Y-145267520D01*
X181155908Y-145267521D01*
X181149500Y-145327132D01*
X105659312Y-145327132D01*
X105634621Y-145267522D01*
X105609298Y-145206387D01*
X105595702Y-145182838D01*
X105491941Y-145003117D01*
X105418329Y-144907184D01*
X105349369Y-144817313D01*
X105349085Y-144816939D01*
X105349066Y-144816917D01*
X105349061Y-144816912D01*
X105349058Y-144816908D01*
X105183092Y-144650942D01*
X105183087Y-144650938D01*
X105183085Y-144650936D01*
X104996886Y-144508061D01*
X104793612Y-144390701D01*
X104793608Y-144390699D01*
X104793604Y-144390697D01*
X104617878Y-144317910D01*
X104580012Y-144302225D01*
X104577326Y-144300999D01*
X104575343Y-144300500D01*
X104533950Y-144289409D01*
X104350059Y-144240136D01*
X104117356Y-144209500D01*
X103882642Y-144209500D01*
X103649939Y-144240136D01*
X103423231Y-144300881D01*
X103423172Y-144300902D01*
X103422693Y-144301104D01*
X103206391Y-144390698D01*
X103003109Y-144508063D01*
X102816917Y-144650933D01*
X102650933Y-144816917D01*
X102508063Y-145003109D01*
X102390698Y-145206391D01*
X102301104Y-145422693D01*
X102300902Y-145423172D01*
X102300881Y-145423231D01*
X102240136Y-145649939D01*
X102209500Y-145882642D01*
X100500000Y-145882642D01*
X100500000Y-142107132D01*
X112879500Y-142107132D01*
X112879500Y-143892920D01*
X112879584Y-143893648D01*
X112884281Y-143937349D01*
X112885908Y-143952480D01*
X112885909Y-143952485D01*
X112886831Y-143954957D01*
X112936200Y-144087327D01*
X113022449Y-144202541D01*
X113022522Y-144202633D01*
X113022799Y-144202879D01*
X113024588Y-144204144D01*
X113072668Y-144240136D01*
X113137668Y-144288796D01*
X113137669Y-144288796D01*
X113137670Y-144288797D01*
X113271544Y-144338728D01*
X113272985Y-144339285D01*
X113274247Y-144339466D01*
X113277767Y-144339655D01*
X113332127Y-144345500D01*
X114667872Y-144345499D01*
X114727483Y-144339091D01*
X114727489Y-144339089D01*
X114752252Y-144329852D01*
X114829927Y-144300882D01*
X114860690Y-144289408D01*
X114864021Y-144288233D01*
X114867582Y-144287047D01*
X114875167Y-144279186D01*
X114977546Y-144202546D01*
X115063796Y-144087331D01*
X115066654Y-144079670D01*
X115112251Y-143957415D01*
X115113454Y-143954651D01*
X115114087Y-143952492D01*
X115114089Y-143952488D01*
X115114090Y-143952485D01*
X115114091Y-143952483D01*
X115120500Y-143892873D01*
X115120499Y-142686806D01*
X115419500Y-142686806D01*
X115419500Y-143313191D01*
X115447087Y-143487376D01*
X115447461Y-143488731D01*
X115448101Y-143490500D01*
X115501588Y-143655116D01*
X115501590Y-143655119D01*
X115501591Y-143655122D01*
X115501592Y-143655123D01*
X115581662Y-143812270D01*
X115685330Y-143954957D01*
X115810043Y-144079670D01*
X115952730Y-144183338D01*
X116109877Y-144263408D01*
X116277455Y-144317857D01*
X116277614Y-144317910D01*
X116451809Y-144345500D01*
X116628188Y-144345500D01*
X116628191Y-144345500D01*
X116697498Y-144334522D01*
X116802379Y-144317911D01*
X116802379Y-144317910D01*
X116802381Y-144317910D01*
X116802384Y-144317910D01*
X116802387Y-144317909D01*
X116804963Y-144317501D01*
X116809770Y-144315509D01*
X116970123Y-144263408D01*
X117127270Y-144183338D01*
X117269957Y-144079670D01*
X117394670Y-143954957D01*
X117498338Y-143812270D01*
X117578408Y-143655123D01*
X117632910Y-143487384D01*
X117632911Y-143487376D01*
X117660500Y-143313188D01*
X117660500Y-142686807D01*
X117632912Y-142512626D01*
X117632911Y-142512620D01*
X117632910Y-142512616D01*
X117578408Y-142344877D01*
X117498338Y-142187730D01*
X117498336Y-142187726D01*
X117480132Y-142162671D01*
X117480130Y-142162669D01*
X117439780Y-142107132D01*
X129879500Y-142107132D01*
X129879500Y-143892920D01*
X129879584Y-143893648D01*
X129884281Y-143937349D01*
X129885908Y-143952480D01*
X129885909Y-143952485D01*
X129886831Y-143954957D01*
X129936200Y-144087327D01*
X130022449Y-144202541D01*
X130022522Y-144202633D01*
X130022799Y-144202879D01*
X130024588Y-144204144D01*
X130072668Y-144240136D01*
X130137668Y-144288796D01*
X130137669Y-144288796D01*
X130137670Y-144288797D01*
X130271544Y-144338728D01*
X130272985Y-144339285D01*
X130274247Y-144339466D01*
X130277767Y-144339655D01*
X130332127Y-144345500D01*
X131667872Y-144345499D01*
X131727483Y-144339091D01*
X131727489Y-144339089D01*
X131752252Y-144329852D01*
X131829927Y-144300882D01*
X131860690Y-144289408D01*
X131864021Y-144288233D01*
X131867582Y-144287047D01*
X131875167Y-144279186D01*
X131977546Y-144202546D01*
X132063796Y-144087331D01*
X132066654Y-144079670D01*
X132112251Y-143957415D01*
X132113454Y-143954651D01*
X132114087Y-143952492D01*
X132114089Y-143952488D01*
X132114090Y-143952485D01*
X132114091Y-143952483D01*
X132120500Y-143892873D01*
X132120499Y-142686806D01*
X132419500Y-142686806D01*
X132419500Y-143313191D01*
X132447087Y-143487376D01*
X132447461Y-143488731D01*
X132448101Y-143490500D01*
X132501588Y-143655116D01*
X132501590Y-143655119D01*
X132501591Y-143655122D01*
X132501592Y-143655123D01*
X132581662Y-143812270D01*
X132685330Y-143954957D01*
X132810043Y-144079670D01*
X132952730Y-144183338D01*
X133109877Y-144263408D01*
X133277455Y-144317857D01*
X133277614Y-144317910D01*
X133451809Y-144345500D01*
X133628188Y-144345500D01*
X133628191Y-144345500D01*
X133697498Y-144334522D01*
X133802379Y-144317911D01*
X133802379Y-144317910D01*
X133802381Y-144317910D01*
X133802384Y-144317910D01*
X133802387Y-144317909D01*
X133804963Y-144317501D01*
X133809770Y-144315509D01*
X133970123Y-144263408D01*
X134127270Y-144183338D01*
X134269957Y-144079670D01*
X134394670Y-143954957D01*
X134498338Y-143812270D01*
X134578408Y-143655123D01*
X134632910Y-143487384D01*
X134632911Y-143487376D01*
X134660500Y-143313188D01*
X134660500Y-142686807D01*
X134660500Y-142686806D01*
X134959500Y-142686806D01*
X134959500Y-143313191D01*
X134987087Y-143487376D01*
X134987461Y-143488731D01*
X134988101Y-143490500D01*
X135041588Y-143655116D01*
X135041590Y-143655119D01*
X135041591Y-143655122D01*
X135041592Y-143655123D01*
X135121662Y-143812270D01*
X135225330Y-143954957D01*
X135350043Y-144079670D01*
X135492730Y-144183338D01*
X135649877Y-144263408D01*
X135817455Y-144317857D01*
X135817614Y-144317910D01*
X135991809Y-144345500D01*
X136168188Y-144345500D01*
X136168191Y-144345500D01*
X136237498Y-144334522D01*
X136342379Y-144317911D01*
X136342379Y-144317910D01*
X136342381Y-144317910D01*
X136342384Y-144317910D01*
X136342387Y-144317909D01*
X136344963Y-144317501D01*
X136349770Y-144315509D01*
X136510123Y-144263408D01*
X136667270Y-144183338D01*
X136809957Y-144079670D01*
X136934670Y-143954957D01*
X137038338Y-143812270D01*
X137118408Y-143655123D01*
X137172910Y-143487384D01*
X137172911Y-143487376D01*
X137200500Y-143313188D01*
X137200500Y-142686807D01*
X137172912Y-142512626D01*
X137172911Y-142512620D01*
X137172910Y-142512616D01*
X137118408Y-142344877D01*
X137038338Y-142187730D01*
X136934670Y-142045043D01*
X136809957Y-141920330D01*
X136673570Y-141821239D01*
X136673296Y-141821005D01*
X136667270Y-141816662D01*
X136667269Y-141816661D01*
X136667267Y-141816660D01*
X136667266Y-141816659D01*
X136667260Y-141816655D01*
X136667004Y-141816526D01*
X136510123Y-141736592D01*
X136342374Y-141682086D01*
X136168192Y-141654500D01*
X136168188Y-141654500D01*
X136168185Y-141654500D01*
X135991815Y-141654500D01*
X135991812Y-141654500D01*
X135991808Y-141654500D01*
X135817624Y-141682086D01*
X135649875Y-141736592D01*
X135492733Y-141816658D01*
X135350045Y-141920328D01*
X135225328Y-142045045D01*
X135121658Y-142187733D01*
X135041592Y-142344875D01*
X134987086Y-142512624D01*
X134959500Y-142686806D01*
X134660500Y-142686806D01*
X134632912Y-142512626D01*
X134632911Y-142512620D01*
X134632910Y-142512616D01*
X134578408Y-142344877D01*
X134498338Y-142187730D01*
X134394670Y-142045043D01*
X134269957Y-141920330D01*
X134133570Y-141821239D01*
X134133296Y-141821005D01*
X134127270Y-141816662D01*
X134127269Y-141816661D01*
X134127267Y-141816660D01*
X134127266Y-141816659D01*
X134127260Y-141816655D01*
X134127004Y-141816526D01*
X133970123Y-141736592D01*
X133802374Y-141682086D01*
X133628192Y-141654500D01*
X133628188Y-141654500D01*
X133628185Y-141654500D01*
X133451815Y-141654500D01*
X133451812Y-141654500D01*
X133451808Y-141654500D01*
X133277624Y-141682086D01*
X133109875Y-141736592D01*
X132952733Y-141816658D01*
X132810045Y-141920328D01*
X132685328Y-142045045D01*
X132581658Y-142187733D01*
X132501592Y-142344875D01*
X132447086Y-142512624D01*
X132419500Y-142686806D01*
X132120499Y-142686806D01*
X132120499Y-142107128D01*
X132114091Y-142047517D01*
X132113168Y-142045043D01*
X132113165Y-142045034D01*
X132063798Y-141912671D01*
X132041998Y-141883551D01*
X131979156Y-141799605D01*
X131977881Y-141797802D01*
X131977633Y-141797522D01*
X131977541Y-141797449D01*
X131862330Y-141711202D01*
X131862328Y-141711201D01*
X131732428Y-141662752D01*
X131728939Y-141661234D01*
X131728025Y-141660996D01*
X131725927Y-141660540D01*
X131722206Y-141660341D01*
X131705312Y-141658524D01*
X131696249Y-141657550D01*
X131696248Y-141657549D01*
X131667876Y-141654500D01*
X131667873Y-141654500D01*
X131667870Y-141654500D01*
X130332133Y-141654500D01*
X130332129Y-141654500D01*
X130323938Y-141654500D01*
X130317975Y-141656021D01*
X130309069Y-141656978D01*
X130272520Y-141660907D01*
X130272514Y-141660908D01*
X130272514Y-141660909D01*
X130272506Y-141660912D01*
X130137671Y-141711200D01*
X130022456Y-141797451D01*
X130022454Y-141797453D01*
X130022451Y-141797456D01*
X130022450Y-141797458D01*
X130008176Y-141816526D01*
X129936200Y-141912671D01*
X129885912Y-142047504D01*
X129885909Y-142047518D01*
X129885908Y-142047522D01*
X129879501Y-142107127D01*
X129879500Y-142107132D01*
X117439780Y-142107132D01*
X117439777Y-142107128D01*
X117394670Y-142045043D01*
X117269957Y-141920330D01*
X117133570Y-141821239D01*
X117133296Y-141821005D01*
X117127270Y-141816662D01*
X117127269Y-141816661D01*
X117127267Y-141816660D01*
X117127266Y-141816659D01*
X117127260Y-141816655D01*
X117127004Y-141816526D01*
X116970123Y-141736592D01*
X116802374Y-141682086D01*
X116628192Y-141654500D01*
X116628188Y-141654500D01*
X116628185Y-141654500D01*
X116451815Y-141654500D01*
X116451812Y-141654500D01*
X116451808Y-141654500D01*
X116277624Y-141682086D01*
X116109875Y-141736592D01*
X115952733Y-141816658D01*
X115810045Y-141920328D01*
X115685328Y-142045045D01*
X115581658Y-142187733D01*
X115501592Y-142344875D01*
X115447086Y-142512624D01*
X115419500Y-142686806D01*
X115120499Y-142686806D01*
X115120499Y-142107128D01*
X115114091Y-142047517D01*
X115113168Y-142045043D01*
X115113165Y-142045034D01*
X115063798Y-141912671D01*
X115041998Y-141883551D01*
X114979156Y-141799605D01*
X114977881Y-141797802D01*
X114977633Y-141797522D01*
X114977541Y-141797449D01*
X114862330Y-141711202D01*
X114862328Y-141711201D01*
X114732428Y-141662752D01*
X114728939Y-141661234D01*
X114728025Y-141660996D01*
X114725927Y-141660540D01*
X114722206Y-141660341D01*
X114705312Y-141658524D01*
X114696249Y-141657550D01*
X114696248Y-141657549D01*
X114667876Y-141654500D01*
X114667873Y-141654500D01*
X114667870Y-141654500D01*
X113332133Y-141654500D01*
X113332129Y-141654500D01*
X113323938Y-141654500D01*
X113317975Y-141656021D01*
X113309069Y-141656978D01*
X113272520Y-141660907D01*
X113272514Y-141660908D01*
X113272514Y-141660909D01*
X113272506Y-141660912D01*
X113137671Y-141711200D01*
X113022456Y-141797451D01*
X113022454Y-141797453D01*
X113022451Y-141797456D01*
X113022450Y-141797458D01*
X113008176Y-141816526D01*
X112936200Y-141912671D01*
X112885912Y-142047504D01*
X112885909Y-142047518D01*
X112885908Y-142047522D01*
X112879501Y-142107127D01*
X112879500Y-142107132D01*
X100500000Y-142107132D01*
X100500000Y-135402132D01*
X140949500Y-135402132D01*
X140949500Y-136597920D01*
X140949584Y-136598648D01*
X140953746Y-136637370D01*
X140955908Y-136657480D01*
X140955909Y-136657485D01*
X140956366Y-136658710D01*
X141006200Y-136792327D01*
X141065245Y-136871200D01*
X141092522Y-136907637D01*
X141092695Y-136907806D01*
X141094588Y-136909144D01*
X141179142Y-136972441D01*
X141207668Y-136993796D01*
X141207669Y-136993796D01*
X141207670Y-136993797D01*
X141341544Y-137043728D01*
X141342985Y-137044285D01*
X141344247Y-137044466D01*
X141347767Y-137044655D01*
X141402127Y-137050500D01*
X142597872Y-137050499D01*
X142657483Y-137044091D01*
X142748537Y-137010130D01*
X142776401Y-136999737D01*
X142790692Y-136994408D01*
X142794020Y-136993233D01*
X142797583Y-136992046D01*
X142805167Y-136984186D01*
X142907546Y-136907546D01*
X142993796Y-136792331D01*
X142993798Y-136792327D01*
X143039551Y-136669655D01*
X143044091Y-136657483D01*
X143050500Y-136597873D01*
X143050499Y-135896529D01*
X148569500Y-135896529D01*
X148569500Y-136103469D01*
X148609869Y-136306417D01*
X148609869Y-136306419D01*
X148689056Y-136497594D01*
X148756054Y-136597865D01*
X148804022Y-136669654D01*
X148804030Y-136669663D01*
X148886367Y-136751999D01*
X148950345Y-136815977D01*
X149122402Y-136930941D01*
X149313580Y-137010130D01*
X149516535Y-137050500D01*
X149516536Y-137050500D01*
X149723464Y-137050500D01*
X149723465Y-137050500D01*
X149926420Y-137010130D01*
X150117598Y-136930941D01*
X150289655Y-136815977D01*
X150435977Y-136669655D01*
X150550941Y-136497598D01*
X150630130Y-136306420D01*
X150641706Y-136248225D01*
X160643200Y-136248225D01*
X160643200Y-136393174D01*
X160675278Y-136512890D01*
X160680718Y-136533193D01*
X160753185Y-136658708D01*
X160753187Y-136658710D01*
X160753189Y-136658712D01*
X160753191Y-136658715D01*
X160855685Y-136761209D01*
X160855687Y-136761210D01*
X160855794Y-136761317D01*
X160856045Y-136761503D01*
X160858238Y-136762684D01*
X160970807Y-136827675D01*
X160978457Y-136832092D01*
X160980870Y-136833590D01*
X160981208Y-136833680D01*
X160981211Y-136833682D01*
X160981212Y-136833682D01*
X160981215Y-136833684D01*
X161121225Y-136871200D01*
X161121226Y-136871200D01*
X161266174Y-136871200D01*
X161266175Y-136871200D01*
X161406185Y-136833684D01*
X161406186Y-136833683D01*
X161406188Y-136833682D01*
X161406189Y-136833682D01*
X161525580Y-136764751D01*
X161528468Y-136763348D01*
X161529254Y-136762831D01*
X161534263Y-136759737D01*
X161535562Y-136758986D01*
X161540920Y-136752003D01*
X161634209Y-136658715D01*
X161634212Y-136658710D01*
X161706682Y-136533189D01*
X161706682Y-136533187D01*
X161706684Y-136533185D01*
X161744200Y-136393175D01*
X161744200Y-136248225D01*
X161706684Y-136108215D01*
X161706682Y-136108212D01*
X161706682Y-136108210D01*
X161706681Y-136108208D01*
X161706590Y-136107868D01*
X161705097Y-136105464D01*
X161635685Y-135985239D01*
X161634505Y-135983047D01*
X161634317Y-135982794D01*
X161634210Y-135982687D01*
X161634209Y-135982685D01*
X161531715Y-135880191D01*
X161531712Y-135880189D01*
X161531710Y-135880187D01*
X161463474Y-135840791D01*
X161442441Y-135817431D01*
X161376597Y-135799787D01*
X161376596Y-135799787D01*
X161266175Y-135770200D01*
X161266173Y-135770200D01*
X161121223Y-135770200D01*
X161059488Y-135786741D01*
X161059487Y-135786740D01*
X160981212Y-135807715D01*
X160981206Y-135807718D01*
X160855693Y-135880183D01*
X160753183Y-135982693D01*
X160680718Y-136108205D01*
X160659742Y-136186487D01*
X160643200Y-136248225D01*
X150641706Y-136248225D01*
X150670500Y-136103465D01*
X150670500Y-135896535D01*
X150630130Y-135693580D01*
X150550941Y-135502402D01*
X150435977Y-135330345D01*
X150289655Y-135184023D01*
X150289651Y-135184020D01*
X150117597Y-135069058D01*
X150117596Y-135069057D01*
X150117594Y-135069056D01*
X149926418Y-134989869D01*
X149723469Y-134949500D01*
X149723467Y-134949500D01*
X149723465Y-134949500D01*
X149516535Y-134949500D01*
X149516532Y-134949500D01*
X149516529Y-134949500D01*
X149313581Y-134989869D01*
X149313579Y-134989869D01*
X149122404Y-135069056D01*
X148950351Y-135184017D01*
X148804017Y-135330351D01*
X148689056Y-135502404D01*
X148609869Y-135693579D01*
X148609869Y-135693581D01*
X148569500Y-135896529D01*
X143050499Y-135896529D01*
X143050499Y-135402128D01*
X143044091Y-135342517D01*
X143039551Y-135330345D01*
X143039550Y-135330342D01*
X142993798Y-135207671D01*
X142971998Y-135178551D01*
X142909156Y-135094605D01*
X142907881Y-135092802D01*
X142907633Y-135092522D01*
X142907541Y-135092449D01*
X142792330Y-135006202D01*
X142792328Y-135006201D01*
X142662428Y-134957752D01*
X142658939Y-134956234D01*
X142658025Y-134955996D01*
X142655927Y-134955540D01*
X142652206Y-134955341D01*
X142635312Y-134953524D01*
X142626249Y-134952550D01*
X142626248Y-134952549D01*
X142597876Y-134949500D01*
X142597873Y-134949500D01*
X142597870Y-134949500D01*
X141402133Y-134949500D01*
X141402129Y-134949500D01*
X141393938Y-134949500D01*
X141387975Y-134951021D01*
X141379069Y-134951978D01*
X141342520Y-134955907D01*
X141342514Y-134955908D01*
X141342514Y-134955909D01*
X141342506Y-134955912D01*
X141207671Y-135006200D01*
X141092456Y-135092451D01*
X141092454Y-135092453D01*
X141092451Y-135092456D01*
X141092450Y-135092458D01*
X141077758Y-135112082D01*
X141006200Y-135207671D01*
X140955912Y-135342504D01*
X140955908Y-135342520D01*
X140955908Y-135342521D01*
X140949500Y-135402132D01*
X100500000Y-135402132D01*
X100500000Y-131940525D01*
X124863200Y-131940525D01*
X124863200Y-132085474D01*
X124872783Y-132121237D01*
X124900718Y-132225493D01*
X124973185Y-132351008D01*
X124973187Y-132351010D01*
X124973189Y-132351012D01*
X124973191Y-132351015D01*
X125075685Y-132453509D01*
X125075687Y-132453510D01*
X125075794Y-132453617D01*
X125076045Y-132453803D01*
X125078246Y-132454988D01*
X125198457Y-132524392D01*
X125200870Y-132525890D01*
X125201208Y-132525980D01*
X125201211Y-132525982D01*
X125201212Y-132525982D01*
X125201215Y-132525984D01*
X125341225Y-132563500D01*
X125341226Y-132563500D01*
X125486174Y-132563500D01*
X125486175Y-132563500D01*
X125626185Y-132525984D01*
X125626186Y-132525983D01*
X125626188Y-132525982D01*
X125626189Y-132525982D01*
X125751710Y-132453512D01*
X125751710Y-132453511D01*
X125751715Y-132453509D01*
X125803096Y-132402128D01*
X142949500Y-132402128D01*
X142949500Y-132402132D01*
X142949500Y-133597920D01*
X142949584Y-133598648D01*
X142954083Y-133640500D01*
X142955908Y-133657480D01*
X142955909Y-133657485D01*
X142955912Y-133657492D01*
X143006200Y-133792327D01*
X143092449Y-133907541D01*
X143092522Y-133907633D01*
X143092799Y-133907879D01*
X143094588Y-133909144D01*
X143179142Y-133972441D01*
X143207668Y-133993796D01*
X143207669Y-133993796D01*
X143207670Y-133993797D01*
X143341544Y-134043728D01*
X143342985Y-134044285D01*
X143344247Y-134044466D01*
X143347767Y-134044655D01*
X143402127Y-134050500D01*
X144597872Y-134050499D01*
X144657483Y-134044091D01*
X144724907Y-134018943D01*
X144724910Y-134018942D01*
X144790697Y-133994406D01*
X144794030Y-133993230D01*
X144797582Y-133992047D01*
X144805167Y-133984186D01*
X144907546Y-133907546D01*
X144993796Y-133792331D01*
X144993798Y-133792327D01*
X145044089Y-133657488D01*
X145044090Y-133657485D01*
X145044091Y-133657483D01*
X145050500Y-133597873D01*
X145050499Y-132453381D01*
X148899500Y-132453381D01*
X148899500Y-132626617D01*
X148926595Y-132797696D01*
X148926596Y-132797701D01*
X148980553Y-132963763D01*
X148981254Y-132965039D01*
X148982749Y-132967591D01*
X149058765Y-133116784D01*
X149058768Y-133116788D01*
X149160586Y-133256928D01*
X149283072Y-133379414D01*
X149423212Y-133481232D01*
X149572414Y-133557253D01*
X149573683Y-133557996D01*
X149576651Y-133559434D01*
X149578246Y-133560226D01*
X149581227Y-133561067D01*
X149742293Y-133613401D01*
X149742297Y-133613402D01*
X149742303Y-133613403D01*
X149913383Y-133640500D01*
X150086614Y-133640500D01*
X150086617Y-133640500D01*
X150225843Y-133618447D01*
X150257702Y-133613402D01*
X150257706Y-133613401D01*
X150416960Y-133561655D01*
X150418379Y-133561285D01*
X150421448Y-133560219D01*
X150423174Y-133559638D01*
X150425899Y-133558113D01*
X150576782Y-133481235D01*
X150576784Y-133481234D01*
X150576783Y-133481234D01*
X150576788Y-133481232D01*
X150716928Y-133379414D01*
X150839414Y-133256928D01*
X150941232Y-133116788D01*
X151018114Y-132965896D01*
X151019638Y-132963174D01*
X151020219Y-132961448D01*
X151021285Y-132958379D01*
X151021655Y-132956960D01*
X151073401Y-132797706D01*
X151073402Y-132797702D01*
X151100500Y-132626614D01*
X151100500Y-132453385D01*
X151100500Y-132453381D01*
X151073403Y-132282303D01*
X151073401Y-132282294D01*
X151073401Y-132282293D01*
X151021067Y-132121227D01*
X151020226Y-132118246D01*
X151019434Y-132116651D01*
X151017996Y-132113683D01*
X151017250Y-132112408D01*
X150941232Y-131963212D01*
X150839414Y-131823072D01*
X150716928Y-131700586D01*
X150716924Y-131700583D01*
X150716922Y-131700581D01*
X150583089Y-131603345D01*
X150582821Y-131603116D01*
X150576788Y-131598768D01*
X150576787Y-131598767D01*
X150576785Y-131598766D01*
X150576784Y-131598765D01*
X150576778Y-131598761D01*
X150576522Y-131598632D01*
X150427591Y-131522749D01*
X150426311Y-131522000D01*
X150422440Y-131520124D01*
X150422438Y-131520123D01*
X150336153Y-131492087D01*
X150257701Y-131466596D01*
X150257696Y-131466595D01*
X150086617Y-131439500D01*
X150086614Y-131439500D01*
X150086611Y-131439500D01*
X149913389Y-131439500D01*
X149913386Y-131439500D01*
X149913383Y-131439500D01*
X149742302Y-131466595D01*
X149742297Y-131466596D01*
X149577561Y-131520123D01*
X149573685Y-131522000D01*
X149572407Y-131522749D01*
X149423209Y-131598768D01*
X149283078Y-131700580D01*
X149160580Y-131823078D01*
X149058768Y-131963209D01*
X148982749Y-132112407D01*
X148982000Y-132113685D01*
X148980123Y-132117561D01*
X148926599Y-132282292D01*
X148926598Y-132282294D01*
X148926595Y-132282302D01*
X148899500Y-132453381D01*
X145050499Y-132453381D01*
X145050499Y-132402128D01*
X145045005Y-132351015D01*
X145044092Y-132342520D01*
X145044090Y-132342513D01*
X145044088Y-132342509D01*
X144993798Y-132207671D01*
X144981461Y-132191191D01*
X144909144Y-132094588D01*
X144907879Y-132092799D01*
X144907633Y-132092522D01*
X144907541Y-132092449D01*
X144792330Y-132006202D01*
X144792328Y-132006201D01*
X144662428Y-131957752D01*
X144658939Y-131956234D01*
X144658025Y-131955996D01*
X144655927Y-131955540D01*
X144652206Y-131955341D01*
X144635312Y-131953524D01*
X144626249Y-131952550D01*
X144626248Y-131952549D01*
X144597876Y-131949500D01*
X144597873Y-131949500D01*
X144597870Y-131949500D01*
X143402133Y-131949500D01*
X143402129Y-131949500D01*
X143393938Y-131949500D01*
X143387975Y-131951021D01*
X143379069Y-131951978D01*
X143342520Y-131955907D01*
X143342514Y-131955908D01*
X143342514Y-131955909D01*
X143342506Y-131955912D01*
X143207671Y-132006200D01*
X143092456Y-132092451D01*
X143092454Y-132092453D01*
X143006200Y-132207671D01*
X142955912Y-132342504D01*
X142955910Y-132342508D01*
X142955910Y-132342511D01*
X142955908Y-132342522D01*
X142949500Y-132402128D01*
X125803096Y-132402128D01*
X125854209Y-132351015D01*
X125859113Y-132342522D01*
X125886328Y-132295383D01*
X125893887Y-132282292D01*
X125926679Y-132225493D01*
X125926684Y-132225485D01*
X125964200Y-132085475D01*
X125964200Y-131940525D01*
X125926684Y-131800515D01*
X125926682Y-131800512D01*
X125926682Y-131800510D01*
X125926681Y-131800508D01*
X125926590Y-131800168D01*
X125925097Y-131797764D01*
X125855685Y-131677539D01*
X125854505Y-131675347D01*
X125854317Y-131675094D01*
X125854210Y-131674987D01*
X125854209Y-131674985D01*
X125751715Y-131572491D01*
X125751712Y-131572489D01*
X125751710Y-131572487D01*
X125683474Y-131533091D01*
X125662441Y-131509731D01*
X125596597Y-131492087D01*
X125596596Y-131492087D01*
X125486175Y-131462500D01*
X125486173Y-131462500D01*
X125341223Y-131462500D01*
X125279488Y-131479041D01*
X125279487Y-131479040D01*
X125201212Y-131500015D01*
X125201206Y-131500018D01*
X125075693Y-131572483D01*
X124973183Y-131674993D01*
X124900718Y-131800505D01*
X124894671Y-131823073D01*
X124863200Y-131940525D01*
X100500000Y-131940525D01*
X100500000Y-129978125D01*
X124985300Y-129978125D01*
X124985300Y-130123074D01*
X125018385Y-130246549D01*
X125022818Y-130263093D01*
X125095285Y-130388608D01*
X125095287Y-130388610D01*
X125095289Y-130388612D01*
X125095291Y-130388615D01*
X125197785Y-130491109D01*
X125197787Y-130491110D01*
X125197894Y-130491217D01*
X125198145Y-130491403D01*
X125200338Y-130492584D01*
X125230996Y-130510284D01*
X125320557Y-130561992D01*
X125322970Y-130563490D01*
X125323308Y-130563580D01*
X125323311Y-130563582D01*
X125323312Y-130563582D01*
X125323315Y-130563584D01*
X125463325Y-130601100D01*
X125463326Y-130601100D01*
X125608274Y-130601100D01*
X125608275Y-130601100D01*
X125748285Y-130563584D01*
X125748286Y-130563583D01*
X125748288Y-130563582D01*
X125748289Y-130563582D01*
X125867680Y-130494651D01*
X125870568Y-130493248D01*
X125871354Y-130492731D01*
X125876363Y-130489637D01*
X125877662Y-130488886D01*
X125883020Y-130481903D01*
X125976309Y-130388615D01*
X126007086Y-130335308D01*
X126048782Y-130263089D01*
X126048782Y-130263087D01*
X126048784Y-130263085D01*
X126086300Y-130123075D01*
X126086300Y-129978125D01*
X126077145Y-129943958D01*
X126077145Y-129943956D01*
X126072019Y-129924825D01*
X126355300Y-129924825D01*
X126355300Y-130069774D01*
X126369581Y-130123072D01*
X126392818Y-130209793D01*
X126465285Y-130335308D01*
X126465287Y-130335310D01*
X126465289Y-130335312D01*
X126465291Y-130335315D01*
X126567785Y-130437809D01*
X126567787Y-130437810D01*
X126567894Y-130437917D01*
X126568145Y-130438103D01*
X126570338Y-130439284D01*
X126626845Y-130471908D01*
X126690557Y-130508692D01*
X126692970Y-130510190D01*
X126693308Y-130510280D01*
X126693311Y-130510282D01*
X126693312Y-130510282D01*
X126693315Y-130510284D01*
X126833325Y-130547800D01*
X126833326Y-130547800D01*
X126978274Y-130547800D01*
X126978275Y-130547800D01*
X127118285Y-130510284D01*
X127118286Y-130510282D01*
X127118288Y-130510282D01*
X127118289Y-130510282D01*
X127237672Y-130441356D01*
X127240565Y-130439951D01*
X127241354Y-130439431D01*
X127246359Y-130436340D01*
X127265398Y-130425347D01*
X127274361Y-130416843D01*
X127290562Y-130408589D01*
X127335504Y-130397800D01*
X148765973Y-130397800D01*
X148778877Y-130398645D01*
X148783844Y-130399298D01*
X148793410Y-130401860D01*
X148815408Y-130405343D01*
X148828095Y-130409466D01*
X148877595Y-130445427D01*
X148877596Y-130445428D01*
X148880591Y-130449550D01*
X148899500Y-130507740D01*
X148899500Y-130874678D01*
X148899500Y-130874682D01*
X148899501Y-130874684D01*
X148914033Y-130947736D01*
X148914035Y-130947742D01*
X148969397Y-131030599D01*
X148969399Y-131030601D01*
X148969402Y-131030603D01*
X148969404Y-131030605D01*
X149052260Y-131085966D01*
X149107807Y-131097015D01*
X149107808Y-131097015D01*
X149119240Y-131099289D01*
X149121405Y-131099863D01*
X149123579Y-131100216D01*
X149125152Y-131100500D01*
X149125326Y-131100500D01*
X149125327Y-131100500D01*
X150874673Y-131100500D01*
X150874674Y-131100500D01*
X150947740Y-131085966D01*
X151030601Y-131030601D01*
X151085966Y-130947740D01*
X151100500Y-130874674D01*
X151100500Y-130515180D01*
X151105343Y-130484594D01*
X151109465Y-130471905D01*
X151145423Y-130422406D01*
X151146022Y-130421971D01*
X151149563Y-130419400D01*
X151207743Y-130400500D01*
X172064519Y-130400500D01*
X172095110Y-130405345D01*
X172105095Y-130408589D01*
X172118336Y-130412891D01*
X172157749Y-130437042D01*
X177696517Y-135975810D01*
X177714722Y-136000868D01*
X177725809Y-136022627D01*
X177736600Y-136067573D01*
X177736600Y-136072474D01*
X177746174Y-136108209D01*
X177774116Y-136212488D01*
X177774118Y-136212492D01*
X177846585Y-136338008D01*
X177846587Y-136338010D01*
X177846589Y-136338012D01*
X177846591Y-136338015D01*
X177949085Y-136440509D01*
X177949087Y-136440510D01*
X177949194Y-136440617D01*
X177949445Y-136440803D01*
X177951638Y-136441984D01*
X178047958Y-136497594D01*
X178071857Y-136511392D01*
X178074270Y-136512890D01*
X178074608Y-136512980D01*
X178074611Y-136512982D01*
X178074612Y-136512982D01*
X178074615Y-136512984D01*
X178214625Y-136550500D01*
X178214626Y-136550500D01*
X178359574Y-136550500D01*
X178359575Y-136550500D01*
X178499585Y-136512984D01*
X178499586Y-136512983D01*
X178499588Y-136512982D01*
X178499589Y-136512982D01*
X178618980Y-136444051D01*
X178621868Y-136442648D01*
X178622654Y-136442131D01*
X178627663Y-136439037D01*
X178628962Y-136438286D01*
X178634320Y-136431303D01*
X178727609Y-136338015D01*
X178727612Y-136338010D01*
X178800082Y-136212489D01*
X178800082Y-136212487D01*
X178800084Y-136212485D01*
X178837600Y-136072475D01*
X178837600Y-135927525D01*
X178800084Y-135787515D01*
X178800082Y-135787512D01*
X178800082Y-135787510D01*
X178800081Y-135787508D01*
X178799990Y-135787168D01*
X178798497Y-135784764D01*
X178729085Y-135664539D01*
X178727905Y-135662347D01*
X178727717Y-135662094D01*
X178727610Y-135661987D01*
X178727609Y-135661985D01*
X178625115Y-135559491D01*
X178625112Y-135559489D01*
X178625110Y-135559487D01*
X178556874Y-135520091D01*
X178535841Y-135496731D01*
X178469997Y-135479087D01*
X178469996Y-135479087D01*
X178382908Y-135455752D01*
X178359572Y-135449499D01*
X178353141Y-135448653D01*
X178353165Y-135448467D01*
X178329088Y-135444654D01*
X178305861Y-135437107D01*
X178266450Y-135412957D01*
X175416993Y-132563500D01*
X174292993Y-131439500D01*
X172533013Y-129679520D01*
X172533010Y-129679518D01*
X172533009Y-129679517D01*
X172533008Y-129679516D01*
X172533007Y-129679515D01*
X172498980Y-129659870D01*
X172477943Y-129636507D01*
X172441693Y-129626794D01*
X172402170Y-129616204D01*
X172402169Y-129616203D01*
X172356530Y-129603975D01*
X172339827Y-129599500D01*
X172339826Y-129599500D01*
X151215180Y-129599500D01*
X151184587Y-129594654D01*
X151171901Y-129590532D01*
X151122401Y-129554568D01*
X151122394Y-129554558D01*
X151119400Y-129550436D01*
X151100500Y-129492256D01*
X151100500Y-129125327D01*
X151100498Y-129125315D01*
X151097015Y-129107810D01*
X151097014Y-129107804D01*
X151085966Y-129052260D01*
X151030605Y-128969404D01*
X151030603Y-128969402D01*
X151030601Y-128969399D01*
X151030599Y-128969397D01*
X151030595Y-128969394D01*
X151030593Y-128969392D01*
X150947748Y-128914038D01*
X150947737Y-128914032D01*
X150947534Y-128913964D01*
X150945997Y-128913687D01*
X150874694Y-128899503D01*
X150874684Y-128899501D01*
X150874679Y-128899500D01*
X150874676Y-128899500D01*
X150874674Y-128899500D01*
X149125326Y-128899500D01*
X149125325Y-128899500D01*
X149125322Y-128899500D01*
X149125318Y-128899500D01*
X149125315Y-128899501D01*
X149089039Y-128906717D01*
X149052261Y-128914033D01*
X149052256Y-128914035D01*
X148969403Y-128969394D01*
X148969394Y-128969403D01*
X148914035Y-129052256D01*
X148914033Y-129052261D01*
X148899500Y-129125320D01*
X148899500Y-129482119D01*
X148894654Y-129512712D01*
X148890532Y-129525398D01*
X148854580Y-129574889D01*
X148850459Y-129577884D01*
X148792271Y-129596800D01*
X127340511Y-129596800D01*
X127309918Y-129591954D01*
X127286691Y-129584407D01*
X127247282Y-129560258D01*
X127243815Y-129556791D01*
X127243812Y-129556789D01*
X127243810Y-129556787D01*
X127175574Y-129517391D01*
X127154541Y-129494031D01*
X127088697Y-129476387D01*
X127088696Y-129476387D01*
X126978275Y-129446800D01*
X126978273Y-129446800D01*
X126833323Y-129446800D01*
X126771588Y-129463341D01*
X126771587Y-129463340D01*
X126693312Y-129484315D01*
X126693306Y-129484318D01*
X126567793Y-129556783D01*
X126465283Y-129659293D01*
X126392818Y-129784805D01*
X126378535Y-129838110D01*
X126355300Y-129924825D01*
X126072019Y-129924825D01*
X126062361Y-129888785D01*
X126048784Y-129838115D01*
X126048781Y-129838109D01*
X125977776Y-129715125D01*
X125976603Y-129712944D01*
X125976417Y-129712694D01*
X125976310Y-129712587D01*
X125976309Y-129712585D01*
X125873815Y-129610091D01*
X125873812Y-129610089D01*
X125873810Y-129610087D01*
X125805574Y-129570691D01*
X125784541Y-129547331D01*
X125718697Y-129529687D01*
X125718696Y-129529687D01*
X125608275Y-129500100D01*
X125608273Y-129500100D01*
X125463323Y-129500100D01*
X125401588Y-129516641D01*
X125401587Y-129516640D01*
X125323312Y-129537615D01*
X125323306Y-129537618D01*
X125197793Y-129610083D01*
X125095283Y-129712593D01*
X125022818Y-129838105D01*
X125022814Y-129838121D01*
X124985300Y-129978125D01*
X100500000Y-129978125D01*
X100500000Y-128427525D01*
X122883300Y-128427525D01*
X122883300Y-128572474D01*
X122916385Y-128695949D01*
X122920818Y-128712493D01*
X122993285Y-128838008D01*
X122993287Y-128838010D01*
X122993289Y-128838012D01*
X122993291Y-128838015D01*
X123095785Y-128940509D01*
X123095787Y-128940510D01*
X123095894Y-128940617D01*
X123096145Y-128940803D01*
X123098338Y-128941984D01*
X123145823Y-128969399D01*
X123218557Y-129011392D01*
X123220970Y-129012890D01*
X123221308Y-129012980D01*
X123221311Y-129012982D01*
X123221312Y-129012982D01*
X123221315Y-129012984D01*
X123361325Y-129050500D01*
X123361326Y-129050500D01*
X123506274Y-129050500D01*
X123506275Y-129050500D01*
X123646285Y-129012984D01*
X123646286Y-129012983D01*
X123646288Y-129012982D01*
X123646289Y-129012982D01*
X123765680Y-128944051D01*
X123768568Y-128942648D01*
X123769354Y-128942131D01*
X123774363Y-128939037D01*
X123775662Y-128938286D01*
X123781020Y-128931303D01*
X123874309Y-128838015D01*
X123874313Y-128838008D01*
X123946782Y-128712489D01*
X123946782Y-128712487D01*
X123946784Y-128712485D01*
X123984300Y-128572475D01*
X123984300Y-128427525D01*
X123946784Y-128287515D01*
X123946782Y-128287512D01*
X123946782Y-128287510D01*
X123946781Y-128287508D01*
X123946690Y-128287168D01*
X123945197Y-128284764D01*
X123875785Y-128164539D01*
X123874605Y-128162347D01*
X123874417Y-128162094D01*
X123874310Y-128161987D01*
X123874309Y-128161985D01*
X123771815Y-128059491D01*
X123771812Y-128059489D01*
X123771810Y-128059487D01*
X123703574Y-128020091D01*
X123682541Y-127996731D01*
X123616697Y-127979087D01*
X123616696Y-127979087D01*
X123506275Y-127949500D01*
X123506273Y-127949500D01*
X123361323Y-127949500D01*
X123299588Y-127966041D01*
X123299587Y-127966040D01*
X123221312Y-127987015D01*
X123221306Y-127987018D01*
X123095793Y-128059483D01*
X122993283Y-128161993D01*
X122920818Y-128287505D01*
X122899842Y-128365787D01*
X122883300Y-128427525D01*
X100500000Y-128427525D01*
X100500000Y-125878925D01*
X125602300Y-125878925D01*
X125602300Y-126023874D01*
X125635385Y-126147349D01*
X125639818Y-126163893D01*
X125712285Y-126289408D01*
X125712287Y-126289410D01*
X125712289Y-126289412D01*
X125712291Y-126289415D01*
X125814785Y-126391909D01*
X125814787Y-126391910D01*
X125814894Y-126392017D01*
X125815145Y-126392203D01*
X125817338Y-126393384D01*
X125929907Y-126458375D01*
X125937557Y-126462792D01*
X125939970Y-126464290D01*
X125940308Y-126464380D01*
X125940311Y-126464382D01*
X125940312Y-126464382D01*
X125940315Y-126464384D01*
X126080325Y-126501900D01*
X126080326Y-126501900D01*
X126225274Y-126501900D01*
X126225275Y-126501900D01*
X126365285Y-126464384D01*
X126365286Y-126464383D01*
X126365288Y-126464382D01*
X126365289Y-126464382D01*
X126484680Y-126395451D01*
X126487568Y-126394048D01*
X126488354Y-126393531D01*
X126493363Y-126390437D01*
X126494662Y-126389686D01*
X126500020Y-126382703D01*
X126593309Y-126289415D01*
X126593313Y-126289408D01*
X126665782Y-126163889D01*
X126665782Y-126163887D01*
X126665784Y-126163885D01*
X126703300Y-126023875D01*
X126703300Y-125878925D01*
X126665784Y-125738915D01*
X126665782Y-125738912D01*
X126665782Y-125738910D01*
X126665781Y-125738908D01*
X126665690Y-125738568D01*
X126664197Y-125736164D01*
X126594785Y-125615939D01*
X126593605Y-125613747D01*
X126593417Y-125613494D01*
X126593310Y-125613387D01*
X126593309Y-125613385D01*
X126490815Y-125510891D01*
X126490812Y-125510889D01*
X126490810Y-125510887D01*
X126422574Y-125471491D01*
X126401541Y-125448131D01*
X126335697Y-125430487D01*
X126335696Y-125430487D01*
X126225275Y-125400900D01*
X126225273Y-125400900D01*
X126080323Y-125400900D01*
X126018588Y-125417441D01*
X126018587Y-125417440D01*
X125940312Y-125438415D01*
X125940306Y-125438418D01*
X125814793Y-125510883D01*
X125712283Y-125613393D01*
X125639818Y-125738905D01*
X125618842Y-125817187D01*
X125602300Y-125878925D01*
X100500000Y-125878925D01*
X100500000Y-121244525D01*
X122544400Y-121244525D01*
X122544400Y-121389474D01*
X122577485Y-121512949D01*
X122581918Y-121529493D01*
X122654385Y-121655008D01*
X122654387Y-121655010D01*
X122654389Y-121655012D01*
X122654391Y-121655015D01*
X122756885Y-121757509D01*
X122756887Y-121757510D01*
X122756994Y-121757617D01*
X122757245Y-121757803D01*
X122759438Y-121758984D01*
X122872007Y-121823975D01*
X122879657Y-121828392D01*
X122882070Y-121829890D01*
X122882408Y-121829980D01*
X122882411Y-121829982D01*
X122882412Y-121829982D01*
X122882415Y-121829984D01*
X123022425Y-121867500D01*
X123022426Y-121867500D01*
X123167377Y-121867500D01*
X123173808Y-121866653D01*
X123173905Y-121867389D01*
X123187544Y-121865586D01*
X123212737Y-121865586D01*
X123238348Y-121868956D01*
X123244865Y-121870702D01*
X123247027Y-121871523D01*
X123254554Y-121873300D01*
X123254555Y-121873300D01*
X123254556Y-121873300D01*
X144673842Y-121873300D01*
X144673844Y-121873300D01*
X144762988Y-121849414D01*
X144842912Y-121803270D01*
X146718656Y-119927525D01*
X160594500Y-119927525D01*
X160594500Y-120072474D01*
X160627585Y-120195949D01*
X160632018Y-120212493D01*
X160704485Y-120338008D01*
X160704487Y-120338010D01*
X160704489Y-120338012D01*
X160704491Y-120338015D01*
X160806985Y-120440509D01*
X160806987Y-120440510D01*
X160807094Y-120440617D01*
X160807345Y-120440803D01*
X160809538Y-120441984D01*
X160837482Y-120458117D01*
X160929757Y-120511392D01*
X160932170Y-120512890D01*
X160932508Y-120512980D01*
X160932511Y-120512982D01*
X160932512Y-120512982D01*
X160932515Y-120512984D01*
X161072525Y-120550500D01*
X161072526Y-120550500D01*
X161217474Y-120550500D01*
X161217475Y-120550500D01*
X161357485Y-120512984D01*
X161357486Y-120512983D01*
X161357488Y-120512982D01*
X161357489Y-120512982D01*
X161476880Y-120444051D01*
X161479768Y-120442648D01*
X161480554Y-120442131D01*
X161485563Y-120439037D01*
X161486862Y-120438286D01*
X161492220Y-120431303D01*
X161585509Y-120338015D01*
X161585513Y-120338008D01*
X161657982Y-120212489D01*
X161657982Y-120212487D01*
X161657984Y-120212485D01*
X161695500Y-120072475D01*
X161695500Y-119927525D01*
X161657984Y-119787515D01*
X161657982Y-119787512D01*
X161657982Y-119787510D01*
X161657981Y-119787508D01*
X161657890Y-119787168D01*
X161656397Y-119784764D01*
X161586985Y-119664539D01*
X161585805Y-119662347D01*
X161585617Y-119662094D01*
X161585510Y-119661987D01*
X161585509Y-119661985D01*
X161483015Y-119559491D01*
X161483012Y-119559489D01*
X161483010Y-119559487D01*
X161414774Y-119520091D01*
X161393741Y-119496731D01*
X161327897Y-119479087D01*
X161327896Y-119479087D01*
X161217475Y-119449500D01*
X161217473Y-119449500D01*
X161072523Y-119449500D01*
X161010788Y-119466041D01*
X161010787Y-119466040D01*
X160932512Y-119487015D01*
X160932506Y-119487018D01*
X160806993Y-119559483D01*
X160704483Y-119661993D01*
X160632018Y-119787505D01*
X160626102Y-119809584D01*
X160594500Y-119927525D01*
X146718656Y-119927525D01*
X148744755Y-117901425D01*
X152576200Y-117901425D01*
X152576200Y-118046375D01*
X152591074Y-118101885D01*
X152591073Y-118101885D01*
X152613716Y-118186388D01*
X152613718Y-118186392D01*
X152686185Y-118311908D01*
X152686187Y-118311910D01*
X152686189Y-118311912D01*
X152686191Y-118311915D01*
X152788685Y-118414409D01*
X152788687Y-118414410D01*
X152788794Y-118414517D01*
X152789045Y-118414703D01*
X152791246Y-118415888D01*
X152911457Y-118485292D01*
X152913870Y-118486790D01*
X152914208Y-118486880D01*
X152914211Y-118486882D01*
X152914212Y-118486882D01*
X152914215Y-118486884D01*
X153054225Y-118524400D01*
X153054226Y-118524400D01*
X153199174Y-118524400D01*
X153199175Y-118524400D01*
X153339185Y-118486884D01*
X153339186Y-118486883D01*
X153339188Y-118486882D01*
X153339189Y-118486882D01*
X153464710Y-118414412D01*
X153464710Y-118414411D01*
X153464715Y-118414409D01*
X153511699Y-118367425D01*
X161418400Y-118367425D01*
X161418400Y-118512374D01*
X161451485Y-118635849D01*
X161455918Y-118652393D01*
X161528385Y-118777908D01*
X161528387Y-118777910D01*
X161528389Y-118777912D01*
X161528391Y-118777915D01*
X161630885Y-118880409D01*
X161630887Y-118880410D01*
X161630994Y-118880517D01*
X161631245Y-118880703D01*
X161633438Y-118881884D01*
X161746007Y-118946875D01*
X161753657Y-118951292D01*
X161756070Y-118952790D01*
X161756408Y-118952880D01*
X161756411Y-118952882D01*
X161756412Y-118952882D01*
X161756415Y-118952884D01*
X161896425Y-118990400D01*
X161896426Y-118990400D01*
X162041374Y-118990400D01*
X162041375Y-118990400D01*
X162181385Y-118952884D01*
X162181386Y-118952883D01*
X162181388Y-118952882D01*
X162181389Y-118952882D01*
X162300780Y-118883951D01*
X162303668Y-118882548D01*
X162304454Y-118882031D01*
X162309463Y-118878937D01*
X162310762Y-118878186D01*
X162316120Y-118871203D01*
X162409409Y-118777915D01*
X162409412Y-118777910D01*
X162481882Y-118652389D01*
X162481882Y-118652387D01*
X162481884Y-118652385D01*
X162519400Y-118512375D01*
X162519400Y-118367425D01*
X162481884Y-118227415D01*
X162481882Y-118227412D01*
X162481882Y-118227410D01*
X162481881Y-118227408D01*
X162481790Y-118227068D01*
X162480297Y-118224664D01*
X162410885Y-118104439D01*
X162409705Y-118102247D01*
X162409517Y-118101994D01*
X162409410Y-118101887D01*
X162409409Y-118101885D01*
X162306915Y-117999391D01*
X162306912Y-117999389D01*
X162306910Y-117999387D01*
X162306909Y-117999386D01*
X162238675Y-117959991D01*
X162217641Y-117936630D01*
X162086252Y-117901425D01*
X162086251Y-117901424D01*
X162053399Y-117892621D01*
X162041375Y-117889400D01*
X162041374Y-117889400D01*
X161896426Y-117889400D01*
X161896425Y-117889400D01*
X161888596Y-117891497D01*
X161851547Y-117901424D01*
X161851548Y-117901425D01*
X161756410Y-117926917D01*
X161756408Y-117926917D01*
X161756404Y-117926919D01*
X161630893Y-117999383D01*
X161528383Y-118101893D01*
X161455918Y-118227405D01*
X161436038Y-118301599D01*
X161418400Y-118367425D01*
X153511699Y-118367425D01*
X153567209Y-118311915D01*
X153567484Y-118311439D01*
X153567485Y-118311438D01*
X153567486Y-118311436D01*
X153639682Y-118186389D01*
X153639682Y-118186387D01*
X153639684Y-118186385D01*
X153677200Y-118046375D01*
X153677200Y-117901425D01*
X153639684Y-117761415D01*
X153639682Y-117761412D01*
X153639682Y-117761410D01*
X153639681Y-117761408D01*
X153639590Y-117761068D01*
X153638097Y-117758664D01*
X153568685Y-117638439D01*
X153567505Y-117636247D01*
X153567317Y-117635994D01*
X153567210Y-117635887D01*
X153567209Y-117635885D01*
X153464715Y-117533391D01*
X153464712Y-117533389D01*
X153464710Y-117533387D01*
X153396474Y-117493991D01*
X153375441Y-117470631D01*
X153309597Y-117452987D01*
X153309596Y-117452987D01*
X153199175Y-117423400D01*
X153199173Y-117423400D01*
X153054226Y-117423400D01*
X153054225Y-117423400D01*
X153045434Y-117425755D01*
X153003831Y-117436902D01*
X153003832Y-117436903D01*
X152914210Y-117460917D01*
X152914208Y-117460917D01*
X152914204Y-117460919D01*
X152788693Y-117533383D01*
X152686183Y-117635893D01*
X152613716Y-117761410D01*
X152613439Y-117762144D01*
X152613149Y-117763383D01*
X152613156Y-117763480D01*
X152613003Y-117764074D01*
X152576200Y-117901425D01*
X148744755Y-117901425D01*
X150468654Y-116177525D01*
X155121800Y-116177525D01*
X155121800Y-116322474D01*
X155154885Y-116445949D01*
X155159318Y-116462493D01*
X155231785Y-116588008D01*
X155231787Y-116588010D01*
X155231789Y-116588012D01*
X155231791Y-116588015D01*
X155334285Y-116690509D01*
X155334287Y-116690510D01*
X155334394Y-116690617D01*
X155334645Y-116690803D01*
X155336838Y-116691984D01*
X155449407Y-116756975D01*
X155457057Y-116761392D01*
X155459470Y-116762890D01*
X155459808Y-116762980D01*
X155459811Y-116762982D01*
X155459812Y-116762982D01*
X155459815Y-116762984D01*
X155599825Y-116800500D01*
X155599826Y-116800500D01*
X155744774Y-116800500D01*
X155744775Y-116800500D01*
X155884785Y-116762984D01*
X155884786Y-116762983D01*
X155884788Y-116762982D01*
X155884789Y-116762982D01*
X156004180Y-116694051D01*
X156007068Y-116692648D01*
X156007854Y-116692131D01*
X156012863Y-116689037D01*
X156014162Y-116688286D01*
X156019520Y-116681303D01*
X156112809Y-116588015D01*
X156112813Y-116588008D01*
X156185282Y-116462489D01*
X156185282Y-116462487D01*
X156185284Y-116462485D01*
X156222800Y-116322475D01*
X156222800Y-116177525D01*
X156185284Y-116037515D01*
X156185282Y-116037512D01*
X156185282Y-116037510D01*
X156185281Y-116037508D01*
X156185190Y-116037168D01*
X156183697Y-116034764D01*
X156114285Y-115914539D01*
X156113105Y-115912347D01*
X156112917Y-115912094D01*
X156112810Y-115911987D01*
X156112809Y-115911985D01*
X156010315Y-115809491D01*
X156010312Y-115809489D01*
X156010310Y-115809487D01*
X155942074Y-115770091D01*
X155921041Y-115746731D01*
X155855197Y-115729087D01*
X155855196Y-115729087D01*
X155744775Y-115699500D01*
X155744773Y-115699500D01*
X155599823Y-115699500D01*
X155538088Y-115716041D01*
X155538087Y-115716040D01*
X155459812Y-115737015D01*
X155459806Y-115737018D01*
X155334293Y-115809483D01*
X155231783Y-115911993D01*
X155159318Y-116037505D01*
X155142296Y-116101032D01*
X155121800Y-116177525D01*
X150468654Y-116177525D01*
X154505086Y-112141092D01*
X154516116Y-112135472D01*
X154524253Y-112126147D01*
X154530138Y-112122891D01*
X154541108Y-112117301D01*
X154556592Y-112114849D01*
X154559601Y-112113317D01*
X154562936Y-112113845D01*
X154601540Y-112107732D01*
X154654196Y-112133700D01*
X154663734Y-112142751D01*
X154673732Y-112153855D01*
X154673989Y-112154112D01*
X154673991Y-112154115D01*
X154776485Y-112256609D01*
X154776487Y-112256610D01*
X154776489Y-112256612D01*
X154894373Y-112324672D01*
X154899257Y-112327492D01*
X154901670Y-112328990D01*
X154902008Y-112329080D01*
X154902011Y-112329082D01*
X154902012Y-112329082D01*
X154902015Y-112329084D01*
X155042025Y-112366600D01*
X155042026Y-112366600D01*
X155186974Y-112366600D01*
X155186975Y-112366600D01*
X155326985Y-112329084D01*
X155326986Y-112329083D01*
X155326988Y-112329082D01*
X155326989Y-112329082D01*
X155446380Y-112260151D01*
X155449268Y-112258748D01*
X155450054Y-112258231D01*
X155455063Y-112255137D01*
X155456362Y-112254386D01*
X155461720Y-112247403D01*
X155555009Y-112154115D01*
X155584964Y-112102232D01*
X155627482Y-112028589D01*
X155627482Y-112028587D01*
X155627484Y-112028585D01*
X155665000Y-111888575D01*
X155665000Y-111743625D01*
X155627484Y-111603615D01*
X155627482Y-111603612D01*
X155627482Y-111603610D01*
X155627481Y-111603608D01*
X155627390Y-111603268D01*
X155625897Y-111600864D01*
X155557495Y-111482389D01*
X155557493Y-111482387D01*
X155555012Y-111478089D01*
X155555010Y-111478087D01*
X155555009Y-111478085D01*
X155452515Y-111375591D01*
X155452512Y-111375589D01*
X155452509Y-111375586D01*
X155451694Y-111374918D01*
X155440894Y-111364606D01*
X155430178Y-111352704D01*
X155405299Y-111296809D01*
X155416756Y-111239231D01*
X155421558Y-111230387D01*
X155423035Y-111228407D01*
X155423267Y-111227366D01*
X155424876Y-111225942D01*
X155438553Y-111207625D01*
X158006826Y-108639352D01*
X158031879Y-108621151D01*
X158043770Y-108615093D01*
X158104188Y-108605524D01*
X158115110Y-108607254D01*
X158149120Y-108619298D01*
X158152323Y-108621147D01*
X158159311Y-108625182D01*
X158159315Y-108625184D01*
X158299325Y-108662700D01*
X158299326Y-108662700D01*
X158444274Y-108662700D01*
X158444275Y-108662700D01*
X158584285Y-108625184D01*
X158584286Y-108625183D01*
X158584288Y-108625182D01*
X158584289Y-108625182D01*
X158703680Y-108556251D01*
X158706568Y-108554848D01*
X158707354Y-108554331D01*
X158712363Y-108551237D01*
X158713662Y-108550486D01*
X158719020Y-108543503D01*
X158812309Y-108450215D01*
X158812615Y-108449685D01*
X158884782Y-108324689D01*
X158884782Y-108324687D01*
X158884784Y-108324685D01*
X158922300Y-108184675D01*
X158922300Y-108164725D01*
X159436300Y-108164725D01*
X159436300Y-108170740D01*
X159436300Y-108309677D01*
X159440321Y-108324685D01*
X159473816Y-108449688D01*
X159473818Y-108449692D01*
X159546285Y-108575208D01*
X159546287Y-108575210D01*
X159546289Y-108575212D01*
X159546291Y-108575215D01*
X159648785Y-108677709D01*
X159648787Y-108677710D01*
X159648894Y-108677817D01*
X159649145Y-108678003D01*
X159651346Y-108679188D01*
X159771557Y-108748592D01*
X159773970Y-108750090D01*
X159774308Y-108750180D01*
X159774311Y-108750182D01*
X159774312Y-108750182D01*
X159774315Y-108750184D01*
X159914325Y-108787700D01*
X159984930Y-108787700D01*
X160015521Y-108792545D01*
X160027858Y-108796553D01*
X160038747Y-108800091D01*
X160078160Y-108824242D01*
X161578487Y-110324569D01*
X161647788Y-110364580D01*
X161658412Y-110370714D01*
X161747556Y-110394600D01*
X162631788Y-110394600D01*
X162662379Y-110399445D01*
X162674716Y-110403453D01*
X162685605Y-110406991D01*
X162725017Y-110431142D01*
X162778484Y-110484608D01*
X162778489Y-110484612D01*
X162901279Y-110555504D01*
X162903671Y-110556991D01*
X162904012Y-110557082D01*
X162904015Y-110557084D01*
X163044025Y-110594600D01*
X163044026Y-110594600D01*
X163188974Y-110594600D01*
X163188975Y-110594600D01*
X163328985Y-110557084D01*
X163328986Y-110557083D01*
X163328988Y-110557082D01*
X163328989Y-110557082D01*
X163448380Y-110488151D01*
X163451268Y-110486748D01*
X163452054Y-110486231D01*
X163457063Y-110483137D01*
X163458362Y-110482386D01*
X163463720Y-110475403D01*
X163557009Y-110382115D01*
X163557012Y-110382110D01*
X163629482Y-110256589D01*
X163629482Y-110256587D01*
X163629484Y-110256585D01*
X163667000Y-110116575D01*
X163667000Y-109971625D01*
X163629484Y-109831615D01*
X163629482Y-109831612D01*
X163629482Y-109831610D01*
X163629481Y-109831608D01*
X163629390Y-109831268D01*
X163627897Y-109828864D01*
X163558485Y-109708639D01*
X163557305Y-109706447D01*
X163557117Y-109706194D01*
X163557010Y-109706087D01*
X163557009Y-109706085D01*
X163454515Y-109603591D01*
X163454512Y-109603589D01*
X163454510Y-109603587D01*
X163454509Y-109603586D01*
X163386275Y-109564191D01*
X163365241Y-109540830D01*
X163285257Y-109519399D01*
X163250702Y-109510140D01*
X163188975Y-109493600D01*
X163188974Y-109493600D01*
X163044023Y-109493600D01*
X162982288Y-109510141D01*
X162982287Y-109510140D01*
X162904012Y-109531115D01*
X162904009Y-109531116D01*
X162778487Y-109603588D01*
X162778478Y-109603596D01*
X162728555Y-109653518D01*
X162703500Y-109671721D01*
X162681742Y-109682808D01*
X162636795Y-109693600D01*
X161995570Y-109693600D01*
X161964977Y-109688754D01*
X161941750Y-109681207D01*
X161902339Y-109657057D01*
X160577382Y-108332100D01*
X160559176Y-108307041D01*
X160548088Y-108285279D01*
X160537300Y-108240337D01*
X160537300Y-108164725D01*
X160522793Y-108110585D01*
X160522793Y-108110584D01*
X160503806Y-108039727D01*
X160499784Y-108024715D01*
X160499782Y-108024712D01*
X160499782Y-108024710D01*
X160499781Y-108024709D01*
X160499691Y-108024371D01*
X160498197Y-108021964D01*
X160428785Y-107901739D01*
X160427605Y-107899547D01*
X160427417Y-107899294D01*
X160427310Y-107899187D01*
X160427309Y-107899185D01*
X160324815Y-107796691D01*
X160324812Y-107796689D01*
X160324810Y-107796687D01*
X160256574Y-107757291D01*
X160235541Y-107733931D01*
X160169697Y-107716287D01*
X160169696Y-107716287D01*
X160059275Y-107686700D01*
X160059273Y-107686700D01*
X159914323Y-107686700D01*
X159852588Y-107703241D01*
X159852587Y-107703240D01*
X159774312Y-107724215D01*
X159774306Y-107724218D01*
X159648793Y-107796683D01*
X159546283Y-107899193D01*
X159473816Y-108024710D01*
X159473539Y-108025444D01*
X159473249Y-108026683D01*
X159473256Y-108026780D01*
X159473103Y-108027374D01*
X159436300Y-108164725D01*
X158922300Y-108164725D01*
X158922300Y-108039725D01*
X158884784Y-107899715D01*
X158884782Y-107899712D01*
X158884782Y-107899710D01*
X158884781Y-107899708D01*
X158884690Y-107899368D01*
X158883197Y-107896964D01*
X158813785Y-107776739D01*
X158812605Y-107774547D01*
X158812417Y-107774294D01*
X158812310Y-107774187D01*
X158812309Y-107774185D01*
X158709815Y-107671691D01*
X158709812Y-107671689D01*
X158709810Y-107671687D01*
X158641574Y-107632291D01*
X158620541Y-107608931D01*
X158554697Y-107591287D01*
X158554696Y-107591287D01*
X158444275Y-107561700D01*
X158444273Y-107561700D01*
X158299323Y-107561700D01*
X158237588Y-107578241D01*
X158237587Y-107578240D01*
X158159312Y-107599215D01*
X158159309Y-107599216D01*
X158033787Y-107671688D01*
X158033779Y-107671695D01*
X157954037Y-107751436D01*
X157933537Y-107767167D01*
X157883809Y-107795879D01*
X157883391Y-107796439D01*
X157875802Y-107801294D01*
X157823090Y-107831727D01*
X157823091Y-107831728D01*
X144522600Y-121132217D01*
X144497543Y-121150421D01*
X144475785Y-121161508D01*
X144430838Y-121172300D01*
X134918308Y-121172300D01*
X134887710Y-121167453D01*
X134876008Y-121163650D01*
X134826510Y-121127683D01*
X134807640Y-121072093D01*
X134807307Y-121059385D01*
X134807756Y-121047034D01*
X134808099Y-121043580D01*
X134808100Y-121043575D01*
X134808100Y-120898625D01*
X134808100Y-120898624D01*
X134802168Y-120876485D01*
X134802168Y-120876484D01*
X134782750Y-120804018D01*
X134770584Y-120758615D01*
X134770582Y-120758612D01*
X134770582Y-120758610D01*
X134770581Y-120758609D01*
X134770491Y-120758271D01*
X134768997Y-120755864D01*
X134699585Y-120635639D01*
X134698405Y-120633447D01*
X134698217Y-120633194D01*
X134698110Y-120633087D01*
X134698109Y-120633085D01*
X134595615Y-120530591D01*
X134595612Y-120530589D01*
X134595610Y-120530587D01*
X134527374Y-120491191D01*
X134506341Y-120467831D01*
X134440497Y-120450187D01*
X134440496Y-120450187D01*
X134330075Y-120420600D01*
X134330073Y-120420600D01*
X134185123Y-120420600D01*
X134123388Y-120437141D01*
X134123387Y-120437140D01*
X134045112Y-120458115D01*
X134045106Y-120458118D01*
X133919593Y-120530583D01*
X133817083Y-120633093D01*
X133744618Y-120758605D01*
X133734575Y-120796087D01*
X133707101Y-120898624D01*
X133707100Y-120898626D01*
X133707100Y-121048013D01*
X133707563Y-121059807D01*
X133706733Y-121075627D01*
X133684803Y-121132747D01*
X133635995Y-121165361D01*
X133626343Y-121168221D01*
X133598217Y-121172300D01*
X123717692Y-121172300D01*
X123687101Y-121167455D01*
X123674414Y-121163333D01*
X123624915Y-121127372D01*
X123612131Y-121109775D01*
X123612129Y-121109775D01*
X123609285Y-121105860D01*
X123603651Y-121097184D01*
X123536884Y-120981538D01*
X123535704Y-120979345D01*
X123535517Y-120979094D01*
X123535410Y-120978987D01*
X123535409Y-120978985D01*
X123432915Y-120876491D01*
X123432912Y-120876489D01*
X123432910Y-120876487D01*
X123364674Y-120837091D01*
X123343641Y-120813731D01*
X123277797Y-120796087D01*
X123277796Y-120796087D01*
X123167375Y-120766500D01*
X123167373Y-120766500D01*
X123022423Y-120766500D01*
X122960688Y-120783041D01*
X122960687Y-120783040D01*
X122882412Y-120804015D01*
X122882406Y-120804018D01*
X122756893Y-120876483D01*
X122654383Y-120978993D01*
X122581918Y-121104505D01*
X122575708Y-121127683D01*
X122544400Y-121244525D01*
X100500000Y-121244525D01*
X100500000Y-119224125D01*
X124399900Y-119224125D01*
X124399900Y-119369074D01*
X124421450Y-119449500D01*
X124437418Y-119509093D01*
X124509885Y-119634608D01*
X124509887Y-119634610D01*
X124509889Y-119634612D01*
X124509891Y-119634615D01*
X124612385Y-119737109D01*
X124612387Y-119737110D01*
X124612494Y-119737217D01*
X124612745Y-119737403D01*
X124614938Y-119738584D01*
X124699681Y-119787510D01*
X124735157Y-119807992D01*
X124737570Y-119809490D01*
X124737908Y-119809580D01*
X124737911Y-119809582D01*
X124737912Y-119809582D01*
X124737915Y-119809584D01*
X124877925Y-119847100D01*
X124877926Y-119847100D01*
X125022874Y-119847100D01*
X125022875Y-119847100D01*
X125162885Y-119809584D01*
X125162886Y-119809583D01*
X125162888Y-119809582D01*
X125162889Y-119809582D01*
X125282280Y-119740651D01*
X125285168Y-119739248D01*
X125285954Y-119738731D01*
X125290963Y-119735637D01*
X125292262Y-119734886D01*
X125297620Y-119727903D01*
X125390909Y-119634615D01*
X125434282Y-119559491D01*
X125463382Y-119509089D01*
X125463382Y-119509087D01*
X125463384Y-119509085D01*
X125500900Y-119369075D01*
X125500900Y-119224125D01*
X125463384Y-119084115D01*
X125463382Y-119084112D01*
X125463382Y-119084110D01*
X125463381Y-119084108D01*
X125463290Y-119083768D01*
X125461797Y-119081364D01*
X125392385Y-118961139D01*
X125391205Y-118958947D01*
X125391017Y-118958694D01*
X125390910Y-118958587D01*
X125390909Y-118958585D01*
X125288415Y-118856091D01*
X125288412Y-118856089D01*
X125288410Y-118856087D01*
X125220174Y-118816691D01*
X125199141Y-118793331D01*
X125133297Y-118775687D01*
X125133296Y-118775687D01*
X125022875Y-118746100D01*
X125022873Y-118746100D01*
X124877923Y-118746100D01*
X124816188Y-118762641D01*
X124816187Y-118762640D01*
X124737912Y-118783615D01*
X124737906Y-118783618D01*
X124612393Y-118856083D01*
X124509883Y-118958593D01*
X124437418Y-119084105D01*
X124416442Y-119162387D01*
X124399900Y-119224125D01*
X100500000Y-119224125D01*
X100500000Y-115877965D01*
X110949500Y-115877965D01*
X110949500Y-116122033D01*
X110987675Y-116363066D01*
X111019979Y-116462485D01*
X111063096Y-116595185D01*
X111148592Y-116762983D01*
X111173894Y-116812640D01*
X111252347Y-116920623D01*
X111317340Y-117010077D01*
X111317342Y-117010079D01*
X111317345Y-117010083D01*
X111489917Y-117182655D01*
X111489920Y-117182657D01*
X111489922Y-117182659D01*
X111547554Y-117224530D01*
X111633367Y-117286876D01*
X111633368Y-117286878D01*
X111669231Y-117312933D01*
X111687362Y-117326107D01*
X111796088Y-117381505D01*
X111904815Y-117436904D01*
X112136822Y-117512288D01*
X112136923Y-117512321D01*
X112136926Y-117512321D01*
X112136928Y-117512322D01*
X112210328Y-117523947D01*
X112377967Y-117550500D01*
X112622030Y-117550500D01*
X112622032Y-117550500D01*
X112696080Y-117538771D01*
X112863071Y-117512322D01*
X112863071Y-117512321D01*
X112863073Y-117512321D01*
X112863076Y-117512321D01*
X112863079Y-117512320D01*
X112865655Y-117511912D01*
X112870462Y-117509920D01*
X113095185Y-117436904D01*
X113113592Y-117427525D01*
X135326700Y-117427525D01*
X135326700Y-117572474D01*
X135359785Y-117695949D01*
X135364218Y-117712493D01*
X135436685Y-117838008D01*
X135436687Y-117838010D01*
X135436689Y-117838012D01*
X135436691Y-117838015D01*
X135539185Y-117940509D01*
X135539187Y-117940510D01*
X135539294Y-117940617D01*
X135539545Y-117940803D01*
X135541738Y-117941984D01*
X135572928Y-117959991D01*
X135661957Y-118011392D01*
X135664370Y-118012890D01*
X135664708Y-118012980D01*
X135664711Y-118012982D01*
X135664712Y-118012982D01*
X135664715Y-118012984D01*
X135804725Y-118050500D01*
X135804726Y-118050500D01*
X135949674Y-118050500D01*
X135949675Y-118050500D01*
X136089685Y-118012984D01*
X136089686Y-118012983D01*
X136089688Y-118012982D01*
X136089689Y-118012982D01*
X136209080Y-117944051D01*
X136211968Y-117942648D01*
X136212754Y-117942131D01*
X136217763Y-117939037D01*
X136219062Y-117938286D01*
X136224420Y-117931303D01*
X136317709Y-117838015D01*
X136317712Y-117838010D01*
X136390182Y-117712489D01*
X136390182Y-117712487D01*
X136390184Y-117712485D01*
X136427700Y-117572475D01*
X136427700Y-117427525D01*
X136390184Y-117287515D01*
X136390182Y-117287512D01*
X136390182Y-117287510D01*
X136390181Y-117287508D01*
X136390090Y-117287168D01*
X136388597Y-117284764D01*
X136319185Y-117164539D01*
X136318005Y-117162347D01*
X136317817Y-117162094D01*
X136317710Y-117161987D01*
X136317709Y-117161985D01*
X136215215Y-117059491D01*
X136215212Y-117059489D01*
X136215210Y-117059487D01*
X136146974Y-117020091D01*
X136125941Y-116996731D01*
X136060097Y-116979087D01*
X136060096Y-116979087D01*
X135949675Y-116949500D01*
X135949673Y-116949500D01*
X135804723Y-116949500D01*
X135742988Y-116966041D01*
X135742987Y-116966040D01*
X135664712Y-116987015D01*
X135664706Y-116987018D01*
X135539193Y-117059483D01*
X135436683Y-117161993D01*
X135364218Y-117287505D01*
X135343242Y-117365787D01*
X135326700Y-117427525D01*
X113113592Y-117427525D01*
X113312639Y-117326106D01*
X113510083Y-117182655D01*
X113682655Y-117010083D01*
X113826106Y-116812639D01*
X113936904Y-116595185D01*
X114012321Y-116363076D01*
X114041710Y-116177525D01*
X114050500Y-116122030D01*
X114050500Y-115877966D01*
X114012323Y-115636934D01*
X114012322Y-115636928D01*
X114012321Y-115636924D01*
X113936904Y-115404815D01*
X113881505Y-115296088D01*
X113826107Y-115187362D01*
X113682656Y-114989919D01*
X113682655Y-114989917D01*
X113510083Y-114817345D01*
X113510079Y-114817342D01*
X113510077Y-114817340D01*
X113420624Y-114752348D01*
X113312640Y-114673894D01*
X113312639Y-114673893D01*
X113312637Y-114673892D01*
X113095185Y-114563096D01*
X112863066Y-114487675D01*
X112622033Y-114449500D01*
X112622030Y-114449500D01*
X112622027Y-114449500D01*
X112377973Y-114449500D01*
X112377970Y-114449500D01*
X112377967Y-114449500D01*
X112136932Y-114487675D01*
X111904813Y-114563096D01*
X111687363Y-114673890D01*
X111489919Y-114817343D01*
X111317343Y-114989919D01*
X111173890Y-115187363D01*
X111063096Y-115404813D01*
X110987675Y-115636932D01*
X110949500Y-115877965D01*
X100500000Y-115877965D01*
X100500000Y-109675320D01*
X110949500Y-109675320D01*
X110949500Y-112324678D01*
X110949500Y-112324682D01*
X110949501Y-112324684D01*
X110964033Y-112397736D01*
X110964035Y-112397742D01*
X111019397Y-112480599D01*
X111019399Y-112480601D01*
X111019402Y-112480603D01*
X111019404Y-112480605D01*
X111102260Y-112535966D01*
X111157807Y-112547015D01*
X111157808Y-112547015D01*
X111169240Y-112549289D01*
X111171405Y-112549863D01*
X111173579Y-112550216D01*
X111175152Y-112550500D01*
X111175326Y-112550500D01*
X111175327Y-112550500D01*
X113824673Y-112550500D01*
X113824674Y-112550500D01*
X113897740Y-112535966D01*
X113980601Y-112480601D01*
X114035966Y-112397740D01*
X114050500Y-112324674D01*
X114050500Y-109675326D01*
X114035966Y-109602260D01*
X113980601Y-109519399D01*
X113980599Y-109519397D01*
X113980595Y-109519394D01*
X113980593Y-109519392D01*
X113897748Y-109464038D01*
X113897737Y-109464032D01*
X113897534Y-109463964D01*
X113895997Y-109463687D01*
X113824694Y-109449503D01*
X113824684Y-109449501D01*
X113824679Y-109449500D01*
X113824676Y-109449500D01*
X113824674Y-109449500D01*
X111175326Y-109449500D01*
X111175325Y-109449500D01*
X111175322Y-109449500D01*
X111175318Y-109449500D01*
X111175315Y-109449501D01*
X111139039Y-109456717D01*
X111102261Y-109464033D01*
X111102256Y-109464035D01*
X111019403Y-109519394D01*
X111019394Y-109519403D01*
X110964035Y-109602256D01*
X110964033Y-109602261D01*
X110949500Y-109675320D01*
X100500000Y-109675320D01*
X100500000Y-107825625D01*
X139759200Y-107825625D01*
X139759200Y-107970574D01*
X139777729Y-108039725D01*
X139796718Y-108110593D01*
X139869185Y-108236108D01*
X139869187Y-108236110D01*
X139869189Y-108236112D01*
X139869191Y-108236115D01*
X139971685Y-108338609D01*
X139971687Y-108338610D01*
X139971794Y-108338717D01*
X139972045Y-108338903D01*
X139974238Y-108340084D01*
X140086807Y-108405075D01*
X140094457Y-108409492D01*
X140096870Y-108410990D01*
X140097208Y-108411080D01*
X140097211Y-108411082D01*
X140097212Y-108411082D01*
X140097215Y-108411084D01*
X140237225Y-108448600D01*
X140237226Y-108448600D01*
X140382174Y-108448600D01*
X140382175Y-108448600D01*
X140522185Y-108411084D01*
X140522186Y-108411083D01*
X140522188Y-108411082D01*
X140522189Y-108411082D01*
X140641580Y-108342151D01*
X140644468Y-108340748D01*
X140645254Y-108340231D01*
X140650263Y-108337137D01*
X140651562Y-108336386D01*
X140656920Y-108329403D01*
X140750209Y-108236115D01*
X140779909Y-108184674D01*
X140822682Y-108110589D01*
X140822682Y-108110587D01*
X140822684Y-108110585D01*
X140860200Y-107970575D01*
X140860200Y-107825625D01*
X140822684Y-107685615D01*
X140822682Y-107685612D01*
X140822682Y-107685610D01*
X140822681Y-107685608D01*
X140822590Y-107685268D01*
X140821097Y-107682864D01*
X140751685Y-107562639D01*
X140750505Y-107560447D01*
X140750317Y-107560194D01*
X140750210Y-107560087D01*
X140750209Y-107560085D01*
X140647715Y-107457591D01*
X140647712Y-107457589D01*
X140647710Y-107457587D01*
X140579474Y-107418191D01*
X140558441Y-107394831D01*
X140492597Y-107377187D01*
X140492596Y-107377187D01*
X140382175Y-107347600D01*
X140382173Y-107347600D01*
X140237223Y-107347600D01*
X140175488Y-107364141D01*
X140175487Y-107364140D01*
X140097212Y-107385115D01*
X140097206Y-107385118D01*
X139971693Y-107457583D01*
X139869183Y-107560093D01*
X139796718Y-107685605D01*
X139796425Y-107686700D01*
X139759200Y-107825625D01*
X100500000Y-107825625D01*
X100500000Y-106567225D01*
X152865000Y-106567225D01*
X152865000Y-106712174D01*
X152898085Y-106835649D01*
X152902518Y-106852193D01*
X152974985Y-106977708D01*
X152974987Y-106977710D01*
X152974989Y-106977712D01*
X152974991Y-106977715D01*
X153077485Y-107080209D01*
X153077487Y-107080210D01*
X153077594Y-107080317D01*
X153077845Y-107080503D01*
X153080038Y-107081684D01*
X153192607Y-107146675D01*
X153200257Y-107151092D01*
X153202670Y-107152590D01*
X153203008Y-107152680D01*
X153203011Y-107152682D01*
X153203012Y-107152682D01*
X153203015Y-107152684D01*
X153343025Y-107190200D01*
X153343026Y-107190200D01*
X153487974Y-107190200D01*
X153487975Y-107190200D01*
X153627985Y-107152684D01*
X153627986Y-107152683D01*
X153627988Y-107152682D01*
X153627989Y-107152682D01*
X153747380Y-107083751D01*
X153750268Y-107082348D01*
X153751054Y-107081831D01*
X153756063Y-107078737D01*
X153757362Y-107077986D01*
X153762722Y-107071001D01*
X153784022Y-107049702D01*
X153803444Y-107030280D01*
X153828495Y-107012079D01*
X153850264Y-107000988D01*
X153895205Y-106990200D01*
X167562942Y-106990200D01*
X167562944Y-106990200D01*
X167652088Y-106966314D01*
X167662712Y-106960180D01*
X167732012Y-106920170D01*
X169062002Y-105590179D01*
X169087054Y-105571978D01*
X169108821Y-105560888D01*
X169153762Y-105550100D01*
X169229374Y-105550100D01*
X169229375Y-105550100D01*
X169369385Y-105512584D01*
X169369386Y-105512583D01*
X169369388Y-105512582D01*
X169369389Y-105512582D01*
X169488780Y-105443651D01*
X169491668Y-105442248D01*
X169492454Y-105441731D01*
X169497463Y-105438637D01*
X169498762Y-105437886D01*
X169504120Y-105430903D01*
X169597409Y-105337615D01*
X169669884Y-105212085D01*
X169707400Y-105072075D01*
X169707400Y-104927125D01*
X169669884Y-104787115D01*
X169669882Y-104787112D01*
X169669882Y-104787110D01*
X169669881Y-104787108D01*
X169669790Y-104786768D01*
X169668297Y-104784364D01*
X169598885Y-104664139D01*
X169597705Y-104661947D01*
X169597517Y-104661694D01*
X169597410Y-104661587D01*
X169597409Y-104661585D01*
X169494915Y-104559091D01*
X169494912Y-104559089D01*
X169494910Y-104559087D01*
X169494909Y-104559086D01*
X169426675Y-104519691D01*
X169405641Y-104496330D01*
X169283429Y-104463584D01*
X169283428Y-104463583D01*
X169243858Y-104452980D01*
X169229375Y-104449100D01*
X169229374Y-104449100D01*
X169084426Y-104449100D01*
X169084425Y-104449100D01*
X169073004Y-104452160D01*
X169030378Y-104463581D01*
X169030378Y-104463582D01*
X168944410Y-104486617D01*
X168944408Y-104486617D01*
X168944404Y-104486619D01*
X168818893Y-104559083D01*
X168716383Y-104661593D01*
X168643918Y-104787105D01*
X168606400Y-104927126D01*
X168606400Y-104997729D01*
X168601554Y-105028322D01*
X168594007Y-105051549D01*
X168569857Y-105090960D01*
X167411700Y-106249117D01*
X167386643Y-106267321D01*
X167364885Y-106278408D01*
X167319938Y-106289200D01*
X153900212Y-106289200D01*
X153869619Y-106284354D01*
X153846392Y-106276807D01*
X153806982Y-106252657D01*
X153753519Y-106199195D01*
X153753515Y-106199191D01*
X153753510Y-106199187D01*
X153685274Y-106159791D01*
X153664241Y-106136431D01*
X153598397Y-106118787D01*
X153598396Y-106118787D01*
X153487975Y-106089200D01*
X153487973Y-106089200D01*
X153343023Y-106089200D01*
X153281288Y-106105741D01*
X153281287Y-106105740D01*
X153203012Y-106126715D01*
X153203006Y-106126718D01*
X153077493Y-106199183D01*
X152974983Y-106301693D01*
X152902518Y-106427205D01*
X152902517Y-106427210D01*
X152865000Y-106567225D01*
X100500000Y-106567225D01*
X100500000Y-103877965D01*
X110949500Y-103877965D01*
X110949500Y-104122033D01*
X110987675Y-104363066D01*
X111020336Y-104463584D01*
X111063096Y-104595185D01*
X111160885Y-104787110D01*
X111173894Y-104812640D01*
X111252347Y-104920623D01*
X111317340Y-105010077D01*
X111317342Y-105010079D01*
X111317345Y-105010083D01*
X111489917Y-105182655D01*
X111530428Y-105212087D01*
X111530429Y-105212089D01*
X111530430Y-105212089D01*
X111687362Y-105326107D01*
X111796088Y-105381505D01*
X111904815Y-105436904D01*
X112136822Y-105512288D01*
X112136923Y-105512321D01*
X112136926Y-105512321D01*
X112136928Y-105512322D01*
X112210328Y-105523947D01*
X112377967Y-105550500D01*
X112622030Y-105550500D01*
X112622032Y-105550500D01*
X112696080Y-105538771D01*
X112863071Y-105512322D01*
X112863071Y-105512321D01*
X112863073Y-105512321D01*
X112863076Y-105512321D01*
X112863079Y-105512320D01*
X112865655Y-105511912D01*
X112870462Y-105509920D01*
X113095185Y-105436904D01*
X113312639Y-105326106D01*
X113510083Y-105182655D01*
X113682655Y-105010083D01*
X113826106Y-104812639D01*
X113936904Y-104595185D01*
X114012321Y-104363076D01*
X114024115Y-104288615D01*
X114050500Y-104122032D01*
X114050500Y-103877966D01*
X114023023Y-103704489D01*
X114012322Y-103636928D01*
X114004414Y-103612589D01*
X113941684Y-103419525D01*
X138824500Y-103419525D01*
X138824500Y-103564474D01*
X138843914Y-103636928D01*
X138862018Y-103704493D01*
X138934485Y-103830008D01*
X138934487Y-103830010D01*
X138934489Y-103830012D01*
X138934491Y-103830015D01*
X139036985Y-103932509D01*
X139036987Y-103932510D01*
X139037094Y-103932617D01*
X139037345Y-103932803D01*
X139039538Y-103933984D01*
X139052557Y-103941500D01*
X139159757Y-104003392D01*
X139162170Y-104004890D01*
X139162508Y-104004980D01*
X139162511Y-104004982D01*
X139162512Y-104004982D01*
X139162515Y-104004984D01*
X139302525Y-104042500D01*
X139302526Y-104042500D01*
X139447474Y-104042500D01*
X139447475Y-104042500D01*
X139587485Y-104004984D01*
X139587486Y-104004983D01*
X139587488Y-104004982D01*
X139587489Y-104004982D01*
X139706880Y-103936051D01*
X139709768Y-103934648D01*
X139710554Y-103934131D01*
X139715563Y-103931037D01*
X139716862Y-103930286D01*
X139722222Y-103923301D01*
X139743522Y-103902002D01*
X139762944Y-103882580D01*
X139787995Y-103864379D01*
X139809764Y-103853288D01*
X139854705Y-103842500D01*
X155044120Y-103842500D01*
X155074708Y-103847343D01*
X155087395Y-103851466D01*
X155136895Y-103887427D01*
X155136896Y-103887428D01*
X155139891Y-103891550D01*
X155158800Y-103949740D01*
X155158800Y-104023074D01*
X155185315Y-104122030D01*
X155196318Y-104163093D01*
X155268785Y-104288608D01*
X155268787Y-104288610D01*
X155268789Y-104288612D01*
X155268791Y-104288615D01*
X155371285Y-104391109D01*
X155371287Y-104391110D01*
X155371394Y-104391217D01*
X155371645Y-104391403D01*
X155373838Y-104392584D01*
X155471727Y-104449100D01*
X155494057Y-104461992D01*
X155496470Y-104463490D01*
X155496808Y-104463580D01*
X155496811Y-104463582D01*
X155496812Y-104463582D01*
X155496815Y-104463584D01*
X155636825Y-104501100D01*
X155636826Y-104501100D01*
X155781774Y-104501100D01*
X155781775Y-104501100D01*
X155921785Y-104463584D01*
X155921786Y-104463583D01*
X155921788Y-104463582D01*
X155921789Y-104463582D01*
X156041180Y-104394651D01*
X156044068Y-104393248D01*
X156044854Y-104392731D01*
X156049863Y-104389637D01*
X156051162Y-104388886D01*
X156056520Y-104381903D01*
X156149809Y-104288615D01*
X156149813Y-104288608D01*
X156222282Y-104163089D01*
X156222282Y-104163087D01*
X156222284Y-104163085D01*
X156259800Y-104023075D01*
X156259800Y-103878125D01*
X156222284Y-103738115D01*
X156222282Y-103738112D01*
X156222282Y-103738110D01*
X156222281Y-103738108D01*
X156222190Y-103737768D01*
X156220697Y-103735364D01*
X156152297Y-103616892D01*
X156152295Y-103616889D01*
X156149812Y-103612589D01*
X156149810Y-103612587D01*
X156149809Y-103612585D01*
X156047315Y-103510091D01*
X156047312Y-103510089D01*
X156043956Y-103506733D01*
X156035635Y-103499040D01*
X156024989Y-103487217D01*
X156000102Y-103431322D01*
X156011552Y-103373740D01*
X156011656Y-103373547D01*
X156016356Y-103364890D01*
X156017836Y-103362909D01*
X156018068Y-103361864D01*
X156019682Y-103360435D01*
X156033354Y-103342125D01*
X156349600Y-103025881D01*
X156374658Y-103007677D01*
X156396421Y-102996589D01*
X156441363Y-102985800D01*
X164895488Y-102985800D01*
X164926079Y-102990645D01*
X164938416Y-102994653D01*
X164949305Y-102998191D01*
X164988717Y-103022342D01*
X165042184Y-103075808D01*
X165042189Y-103075812D01*
X165164979Y-103146704D01*
X165167371Y-103148191D01*
X165167712Y-103148282D01*
X165167715Y-103148284D01*
X165307725Y-103185800D01*
X165307726Y-103185800D01*
X165452674Y-103185800D01*
X165452675Y-103185800D01*
X165592685Y-103148284D01*
X165592686Y-103148283D01*
X165592688Y-103148282D01*
X165592689Y-103148282D01*
X165712080Y-103079351D01*
X165714968Y-103077948D01*
X165715754Y-103077431D01*
X165720763Y-103074337D01*
X165722062Y-103073586D01*
X165727420Y-103066603D01*
X165820709Y-102973315D01*
X165820712Y-102973310D01*
X165893182Y-102847789D01*
X165893182Y-102847787D01*
X165893184Y-102847785D01*
X165930700Y-102707775D01*
X165930700Y-102562825D01*
X165893184Y-102422815D01*
X165893182Y-102422812D01*
X165893182Y-102422810D01*
X165893181Y-102422808D01*
X165893090Y-102422468D01*
X165891597Y-102420064D01*
X165822185Y-102299839D01*
X165821005Y-102297647D01*
X165820817Y-102297394D01*
X165820710Y-102297287D01*
X165820709Y-102297285D01*
X165718215Y-102194791D01*
X165718212Y-102194789D01*
X165718210Y-102194787D01*
X165649974Y-102155391D01*
X165628941Y-102132031D01*
X165563097Y-102114387D01*
X165563096Y-102114387D01*
X165452675Y-102084800D01*
X165452673Y-102084800D01*
X165307723Y-102084800D01*
X165245988Y-102101341D01*
X165245987Y-102101340D01*
X165167712Y-102122315D01*
X165167709Y-102122316D01*
X165042187Y-102194788D01*
X165042178Y-102194796D01*
X164992255Y-102244718D01*
X164967200Y-102262921D01*
X164945442Y-102274008D01*
X164900495Y-102284800D01*
X156198356Y-102284800D01*
X156109212Y-102308686D01*
X156039986Y-102348654D01*
X156029285Y-102354832D01*
X155282699Y-103101417D01*
X155257643Y-103119621D01*
X155235885Y-103130708D01*
X155190938Y-103141500D01*
X154355181Y-103141500D01*
X154324583Y-103136653D01*
X154312881Y-103132850D01*
X154263383Y-103096883D01*
X154244513Y-103041294D01*
X154244249Y-103031226D01*
X154247589Y-103003010D01*
X154251098Y-102989917D01*
X154254700Y-102976475D01*
X154254700Y-102831525D01*
X154217184Y-102691515D01*
X154217182Y-102691512D01*
X154217182Y-102691510D01*
X154217181Y-102691508D01*
X154217090Y-102691168D01*
X154215597Y-102688764D01*
X154146185Y-102568539D01*
X154145005Y-102566347D01*
X154144817Y-102566094D01*
X154144710Y-102565987D01*
X154144709Y-102565985D01*
X154042215Y-102463491D01*
X154042212Y-102463489D01*
X154042210Y-102463487D01*
X153973974Y-102424091D01*
X153952941Y-102400731D01*
X153887097Y-102383087D01*
X153887096Y-102383087D01*
X153776675Y-102353500D01*
X153776674Y-102353500D01*
X153776673Y-102353500D01*
X153706069Y-102353500D01*
X153675476Y-102348654D01*
X153652249Y-102341107D01*
X153612838Y-102316957D01*
X151584278Y-100288397D01*
X151303507Y-100007626D01*
X153029500Y-100007626D01*
X153029500Y-100152577D01*
X153040898Y-100195113D01*
X153040898Y-100195115D01*
X153040899Y-100195115D01*
X153067018Y-100292593D01*
X153139485Y-100418108D01*
X153139487Y-100418110D01*
X153139489Y-100418112D01*
X153139491Y-100418115D01*
X153241985Y-100520609D01*
X153241987Y-100520610D01*
X153242094Y-100520717D01*
X153242345Y-100520903D01*
X153244538Y-100522084D01*
X153293265Y-100550216D01*
X153364757Y-100591492D01*
X153367170Y-100592990D01*
X153367508Y-100593080D01*
X153367511Y-100593082D01*
X153367512Y-100593082D01*
X153367515Y-100593084D01*
X153507525Y-100630600D01*
X153507526Y-100630600D01*
X153652474Y-100630600D01*
X153652475Y-100630600D01*
X153792485Y-100593084D01*
X153792486Y-100593083D01*
X153792488Y-100593082D01*
X153792489Y-100593082D01*
X153911880Y-100524151D01*
X153914768Y-100522748D01*
X153915554Y-100522231D01*
X153920563Y-100519137D01*
X153921862Y-100518386D01*
X153927220Y-100511403D01*
X154020509Y-100418115D01*
X154020513Y-100418108D01*
X154026580Y-100407601D01*
X154059781Y-100350094D01*
X154092982Y-100292589D01*
X154092982Y-100292587D01*
X154092984Y-100292585D01*
X154130500Y-100152575D01*
X154130500Y-100007625D01*
X154092984Y-99867615D01*
X154092982Y-99867612D01*
X154092982Y-99867610D01*
X154092981Y-99867608D01*
X154092890Y-99867268D01*
X154091397Y-99864864D01*
X154021985Y-99744639D01*
X154020805Y-99742447D01*
X154020617Y-99742194D01*
X154020510Y-99742087D01*
X154020509Y-99742085D01*
X153918015Y-99639591D01*
X153918012Y-99639589D01*
X153918010Y-99639587D01*
X153918009Y-99639586D01*
X153849775Y-99600191D01*
X153828741Y-99576830D01*
X153758430Y-99557991D01*
X153758400Y-99557983D01*
X153652475Y-99529600D01*
X153652474Y-99529600D01*
X153507523Y-99529600D01*
X153445788Y-99546141D01*
X153445787Y-99546140D01*
X153367512Y-99567115D01*
X153367506Y-99567118D01*
X153241993Y-99639583D01*
X153139483Y-99742093D01*
X153067018Y-99867605D01*
X153029500Y-100007626D01*
X151303507Y-100007626D01*
X150872512Y-99576630D01*
X150792588Y-99530486D01*
X150789281Y-99529600D01*
X150703444Y-99506600D01*
X150703442Y-99506600D01*
X147197612Y-99506600D01*
X147167019Y-99501754D01*
X147143792Y-99494207D01*
X147104382Y-99470057D01*
X147050919Y-99416595D01*
X147050915Y-99416591D01*
X147050910Y-99416587D01*
X146982674Y-99377191D01*
X146961641Y-99353831D01*
X146895797Y-99336187D01*
X146895796Y-99336187D01*
X146785375Y-99306600D01*
X146785373Y-99306600D01*
X146640423Y-99306600D01*
X146578688Y-99323141D01*
X146578687Y-99323140D01*
X146500412Y-99344115D01*
X146500406Y-99344118D01*
X146374893Y-99416583D01*
X146272383Y-99519093D01*
X146199918Y-99644605D01*
X146195662Y-99660489D01*
X146162400Y-99784625D01*
X146162400Y-99929574D01*
X146183314Y-100007625D01*
X146199918Y-100069593D01*
X146272385Y-100195108D01*
X146272387Y-100195110D01*
X146272389Y-100195112D01*
X146272391Y-100195115D01*
X146374885Y-100297609D01*
X146374887Y-100297610D01*
X146374994Y-100297717D01*
X146375245Y-100297903D01*
X146377438Y-100299084D01*
X146442264Y-100336511D01*
X146497657Y-100368492D01*
X146500070Y-100369990D01*
X146500408Y-100370080D01*
X146500411Y-100370082D01*
X146500412Y-100370082D01*
X146500415Y-100370084D01*
X146640425Y-100407600D01*
X146640426Y-100407600D01*
X146785374Y-100407600D01*
X146785375Y-100407600D01*
X146925385Y-100370084D01*
X146925386Y-100370083D01*
X146925388Y-100370082D01*
X146925389Y-100370082D01*
X147044780Y-100301151D01*
X147047668Y-100299748D01*
X147048454Y-100299231D01*
X147053463Y-100296137D01*
X147054762Y-100295386D01*
X147060122Y-100288401D01*
X147081422Y-100267102D01*
X147100844Y-100247680D01*
X147125895Y-100229479D01*
X147147664Y-100218388D01*
X147192605Y-100207600D01*
X150455430Y-100207600D01*
X150486021Y-100212445D01*
X150498358Y-100216453D01*
X150509247Y-100219991D01*
X150548660Y-100244142D01*
X153113617Y-102809098D01*
X153131822Y-102834156D01*
X153142909Y-102855915D01*
X153153700Y-102900861D01*
X153153700Y-102976476D01*
X153157301Y-102989914D01*
X153157302Y-102989918D01*
X153160468Y-103001734D01*
X153163705Y-103032539D01*
X153163061Y-103044823D01*
X153141133Y-103101944D01*
X153092320Y-103134561D01*
X153082667Y-103137421D01*
X153054544Y-103141500D01*
X139859712Y-103141500D01*
X139829119Y-103136654D01*
X139805892Y-103129107D01*
X139766482Y-103104957D01*
X139713019Y-103051495D01*
X139713015Y-103051491D01*
X139713010Y-103051487D01*
X139644774Y-103012091D01*
X139623741Y-102988731D01*
X139557897Y-102971087D01*
X139557896Y-102971087D01*
X139447475Y-102941500D01*
X139447473Y-102941500D01*
X139302523Y-102941500D01*
X139240788Y-102958041D01*
X139240787Y-102958040D01*
X139162512Y-102979015D01*
X139162506Y-102979018D01*
X139036993Y-103051483D01*
X138934483Y-103153993D01*
X138862018Y-103279505D01*
X138862017Y-103279510D01*
X138824500Y-103419525D01*
X113941684Y-103419525D01*
X113936904Y-103404815D01*
X113826106Y-103187361D01*
X113791900Y-103140281D01*
X113745058Y-103075808D01*
X113719982Y-103041294D01*
X113682659Y-102989922D01*
X113682657Y-102989920D01*
X113682655Y-102989917D01*
X113510083Y-102817345D01*
X113510079Y-102817342D01*
X113510077Y-102817340D01*
X113420624Y-102752348D01*
X113312640Y-102673894D01*
X113312639Y-102673893D01*
X113312637Y-102673892D01*
X113095185Y-102563096D01*
X113094351Y-102562825D01*
X112863066Y-102487675D01*
X112622033Y-102449500D01*
X112622030Y-102449500D01*
X112622027Y-102449500D01*
X112377973Y-102449500D01*
X112377970Y-102449500D01*
X112377967Y-102449500D01*
X112136932Y-102487675D01*
X111904813Y-102563096D01*
X111687363Y-102673890D01*
X111489919Y-102817343D01*
X111489918Y-102817344D01*
X111317344Y-102989918D01*
X111272606Y-103051495D01*
X111173890Y-103187363D01*
X111063096Y-103404813D01*
X110987675Y-103636932D01*
X110949500Y-103877965D01*
X100500000Y-103877965D01*
X100500000Y-97675320D01*
X110949500Y-97675320D01*
X110949500Y-100324678D01*
X110964033Y-100397737D01*
X110964035Y-100397742D01*
X110991804Y-100439303D01*
X111019397Y-100480599D01*
X111019399Y-100480601D01*
X111019402Y-100480603D01*
X111019404Y-100480605D01*
X111102260Y-100535966D01*
X111157807Y-100547015D01*
X111157808Y-100547015D01*
X111169240Y-100549289D01*
X111171405Y-100549863D01*
X111173579Y-100550216D01*
X111175152Y-100550500D01*
X111175326Y-100550500D01*
X111175327Y-100550500D01*
X113824673Y-100550500D01*
X113824674Y-100550500D01*
X113897740Y-100535966D01*
X113980601Y-100480601D01*
X114035966Y-100397740D01*
X114043257Y-100361084D01*
X114050499Y-100324683D01*
X114050500Y-100324672D01*
X114050500Y-99926025D01*
X143893400Y-99926025D01*
X143893400Y-100070974D01*
X143915265Y-100152574D01*
X143930918Y-100210993D01*
X144003385Y-100336508D01*
X144003387Y-100336510D01*
X144003389Y-100336512D01*
X144003391Y-100336515D01*
X144105885Y-100439009D01*
X144105887Y-100439010D01*
X144105994Y-100439117D01*
X144106245Y-100439303D01*
X144108438Y-100440484D01*
X144221007Y-100505475D01*
X144228657Y-100509892D01*
X144231070Y-100511390D01*
X144231408Y-100511480D01*
X144231411Y-100511482D01*
X144231412Y-100511482D01*
X144231415Y-100511484D01*
X144371425Y-100549000D01*
X144371426Y-100549000D01*
X144516374Y-100549000D01*
X144516375Y-100549000D01*
X144656385Y-100511484D01*
X144656386Y-100511483D01*
X144656388Y-100511482D01*
X144656389Y-100511482D01*
X144775780Y-100442551D01*
X144778668Y-100441148D01*
X144779454Y-100440631D01*
X144784463Y-100437537D01*
X144785762Y-100436786D01*
X144791120Y-100429803D01*
X144884409Y-100336515D01*
X144891240Y-100324684D01*
X144956882Y-100210989D01*
X144956882Y-100210987D01*
X144956884Y-100210985D01*
X144994400Y-100070975D01*
X144994400Y-99926025D01*
X144956884Y-99786015D01*
X144956882Y-99786012D01*
X144956882Y-99786010D01*
X144956881Y-99786008D01*
X144956790Y-99785668D01*
X144955297Y-99783264D01*
X144885885Y-99663039D01*
X144884705Y-99660847D01*
X144884517Y-99660594D01*
X144884410Y-99660487D01*
X144884409Y-99660485D01*
X144781915Y-99557991D01*
X144781912Y-99557989D01*
X144781910Y-99557987D01*
X144713674Y-99518591D01*
X144692641Y-99495231D01*
X144626797Y-99477587D01*
X144626796Y-99477587D01*
X144516375Y-99448000D01*
X144516373Y-99448000D01*
X144371423Y-99448000D01*
X144309688Y-99464541D01*
X144309687Y-99464540D01*
X144231412Y-99485515D01*
X144231406Y-99485518D01*
X144105893Y-99557983D01*
X144003383Y-99660493D01*
X143930918Y-99786005D01*
X143909942Y-99864287D01*
X143893400Y-99926025D01*
X114050500Y-99926025D01*
X114050500Y-98205125D01*
X144668800Y-98205125D01*
X144668800Y-98350074D01*
X144698921Y-98462485D01*
X144706318Y-98490093D01*
X144778785Y-98615608D01*
X144778787Y-98615610D01*
X144778789Y-98615612D01*
X144778791Y-98615615D01*
X144881285Y-98718109D01*
X144881287Y-98718110D01*
X144881394Y-98718217D01*
X144881645Y-98718403D01*
X144883838Y-98719584D01*
X144956252Y-98761392D01*
X145004057Y-98788992D01*
X145006470Y-98790490D01*
X145006808Y-98790580D01*
X145006811Y-98790582D01*
X145006812Y-98790582D01*
X145006815Y-98790584D01*
X145146825Y-98828100D01*
X145146826Y-98828100D01*
X145291774Y-98828100D01*
X145291775Y-98828100D01*
X145431785Y-98790584D01*
X145431786Y-98790583D01*
X145431788Y-98790582D01*
X145431789Y-98790582D01*
X145551180Y-98721651D01*
X145554068Y-98720248D01*
X145554854Y-98719731D01*
X145559863Y-98716637D01*
X145561162Y-98715886D01*
X145566520Y-98708903D01*
X145659809Y-98615615D01*
X145675764Y-98587980D01*
X145732282Y-98490089D01*
X145732282Y-98490087D01*
X145732284Y-98490085D01*
X145769800Y-98350075D01*
X145769800Y-98205125D01*
X145762405Y-98177525D01*
X161418400Y-98177525D01*
X161418400Y-98322475D01*
X161447987Y-98432896D01*
X161452565Y-98449982D01*
X161455917Y-98462491D01*
X161455918Y-98462492D01*
X161528385Y-98588008D01*
X161528387Y-98588010D01*
X161528389Y-98588012D01*
X161528391Y-98588015D01*
X161630885Y-98690509D01*
X161630887Y-98690510D01*
X161630994Y-98690617D01*
X161631245Y-98690803D01*
X161633438Y-98691984D01*
X161684834Y-98721657D01*
X161753657Y-98761392D01*
X161756070Y-98762890D01*
X161756408Y-98762980D01*
X161756411Y-98762982D01*
X161756412Y-98762982D01*
X161756415Y-98762984D01*
X161896425Y-98800500D01*
X161896426Y-98800500D01*
X162041374Y-98800500D01*
X162041375Y-98800500D01*
X162181385Y-98762984D01*
X162181386Y-98762983D01*
X162181388Y-98762982D01*
X162181389Y-98762982D01*
X162300780Y-98694051D01*
X162303668Y-98692648D01*
X162304454Y-98692131D01*
X162309463Y-98689037D01*
X162310762Y-98688286D01*
X162316120Y-98681303D01*
X162409409Y-98588015D01*
X162409412Y-98588010D01*
X162481882Y-98462489D01*
X162481882Y-98462487D01*
X162481884Y-98462485D01*
X162519400Y-98322475D01*
X162519400Y-98177525D01*
X162481884Y-98037515D01*
X162481882Y-98037512D01*
X162481882Y-98037510D01*
X162481881Y-98037508D01*
X162481790Y-98037168D01*
X162480297Y-98034764D01*
X162410885Y-97914539D01*
X162409705Y-97912347D01*
X162409517Y-97912094D01*
X162409410Y-97911987D01*
X162409409Y-97911985D01*
X162306915Y-97809491D01*
X162306912Y-97809489D01*
X162306910Y-97809487D01*
X162306909Y-97809486D01*
X162238675Y-97770091D01*
X162217641Y-97746730D01*
X162144378Y-97727100D01*
X162041375Y-97699500D01*
X162041374Y-97699500D01*
X161896426Y-97699500D01*
X161896425Y-97699500D01*
X161883799Y-97702882D01*
X161836679Y-97715508D01*
X161836679Y-97715509D01*
X161756410Y-97737017D01*
X161756408Y-97737017D01*
X161756404Y-97737019D01*
X161630893Y-97809483D01*
X161528383Y-97911993D01*
X161455918Y-98037506D01*
X161455916Y-98037510D01*
X161446547Y-98072474D01*
X161446548Y-98072475D01*
X161418400Y-98177525D01*
X145762405Y-98177525D01*
X145732284Y-98065115D01*
X145732282Y-98065112D01*
X145732282Y-98065110D01*
X145716350Y-98037515D01*
X145661285Y-97942139D01*
X145660105Y-97939947D01*
X145659917Y-97939694D01*
X145659810Y-97939587D01*
X145659809Y-97939585D01*
X145557315Y-97837091D01*
X145557312Y-97837089D01*
X145557310Y-97837087D01*
X145557309Y-97837086D01*
X145489075Y-97797691D01*
X145468041Y-97774330D01*
X145328785Y-97737017D01*
X145328783Y-97737016D01*
X145291775Y-97727100D01*
X145146825Y-97727100D01*
X145109814Y-97737016D01*
X145109815Y-97737017D01*
X145006810Y-97764617D01*
X145006808Y-97764617D01*
X145006804Y-97764619D01*
X144881293Y-97837083D01*
X144778783Y-97939593D01*
X144706318Y-98065105D01*
X144685342Y-98143387D01*
X144668800Y-98205125D01*
X114050500Y-98205125D01*
X114050500Y-97675327D01*
X114050498Y-97675315D01*
X114047015Y-97657808D01*
X114035966Y-97602260D01*
X113980601Y-97519399D01*
X113980599Y-97519397D01*
X113980595Y-97519394D01*
X113980593Y-97519392D01*
X113897748Y-97464038D01*
X113897737Y-97464032D01*
X113897534Y-97463964D01*
X113895997Y-97463687D01*
X113824694Y-97449503D01*
X113824684Y-97449501D01*
X113824679Y-97449500D01*
X113824676Y-97449500D01*
X113824674Y-97449500D01*
X111175326Y-97449500D01*
X111175325Y-97449500D01*
X111175322Y-97449500D01*
X111175318Y-97449500D01*
X111175315Y-97449501D01*
X111139039Y-97456717D01*
X111102261Y-97464033D01*
X111102256Y-97464035D01*
X111019403Y-97519394D01*
X111019394Y-97519403D01*
X110964035Y-97602256D01*
X110964033Y-97602261D01*
X110949500Y-97675320D01*
X100500000Y-97675320D01*
X100500000Y-97202525D01*
X149325600Y-97202525D01*
X149325600Y-97347474D01*
X149356832Y-97464032D01*
X149363118Y-97487493D01*
X149435585Y-97613008D01*
X149435587Y-97613010D01*
X149435589Y-97613012D01*
X149435591Y-97613015D01*
X149538085Y-97715509D01*
X149538087Y-97715510D01*
X149538194Y-97715617D01*
X149538445Y-97715803D01*
X149540638Y-97716984D01*
X149623142Y-97764617D01*
X149660857Y-97786392D01*
X149663270Y-97787890D01*
X149663608Y-97787980D01*
X149663611Y-97787982D01*
X149663612Y-97787982D01*
X149663615Y-97787984D01*
X149803625Y-97825500D01*
X149803626Y-97825500D01*
X149948574Y-97825500D01*
X149948575Y-97825500D01*
X150088585Y-97787984D01*
X150088586Y-97787983D01*
X150088588Y-97787982D01*
X150088589Y-97787982D01*
X150207980Y-97719051D01*
X150210868Y-97717648D01*
X150211654Y-97717131D01*
X150216663Y-97714037D01*
X150217962Y-97713286D01*
X150223320Y-97706303D01*
X150316609Y-97613015D01*
X150322817Y-97602263D01*
X150322819Y-97602261D01*
X150370658Y-97519400D01*
X150389082Y-97487489D01*
X150389082Y-97487487D01*
X150389084Y-97487485D01*
X150426600Y-97347475D01*
X150426600Y-97202525D01*
X150389084Y-97062515D01*
X150389082Y-97062512D01*
X150389082Y-97062510D01*
X150389081Y-97062508D01*
X150388990Y-97062168D01*
X150387497Y-97059764D01*
X150318085Y-96939539D01*
X150316905Y-96937347D01*
X150316717Y-96937094D01*
X150316610Y-96936987D01*
X150316609Y-96936985D01*
X150214115Y-96834491D01*
X150214112Y-96834489D01*
X150214110Y-96834487D01*
X150145874Y-96795091D01*
X150124841Y-96771731D01*
X150058997Y-96754087D01*
X150058996Y-96754087D01*
X149948575Y-96724500D01*
X149948573Y-96724500D01*
X149803623Y-96724500D01*
X149741888Y-96741041D01*
X149741887Y-96741040D01*
X149663612Y-96762015D01*
X149663606Y-96762018D01*
X149538093Y-96834483D01*
X149435583Y-96936993D01*
X149363118Y-97062505D01*
X149350526Y-97109500D01*
X149325600Y-97202525D01*
X100500000Y-97202525D01*
X100500000Y-96486525D01*
X153230200Y-96486525D01*
X153230200Y-96631474D01*
X153263054Y-96754087D01*
X153267718Y-96771493D01*
X153340185Y-96897008D01*
X153340187Y-96897010D01*
X153340189Y-96897012D01*
X153340191Y-96897015D01*
X153442685Y-96999509D01*
X153442687Y-96999510D01*
X153442794Y-96999617D01*
X153443045Y-96999803D01*
X153445238Y-97000984D01*
X153547049Y-97059764D01*
X153565457Y-97070392D01*
X153567870Y-97071890D01*
X153568208Y-97071980D01*
X153568211Y-97071982D01*
X153568212Y-97071982D01*
X153568215Y-97071984D01*
X153708225Y-97109500D01*
X153708226Y-97109500D01*
X153853174Y-97109500D01*
X153853175Y-97109500D01*
X153993185Y-97071984D01*
X153993186Y-97071983D01*
X153993188Y-97071982D01*
X153993189Y-97071982D01*
X154112580Y-97003051D01*
X154115468Y-97001648D01*
X154116254Y-97001131D01*
X154121263Y-96998037D01*
X154122562Y-96997286D01*
X154127920Y-96990303D01*
X154221209Y-96897015D01*
X154224445Y-96891410D01*
X154293682Y-96771489D01*
X154293682Y-96771487D01*
X154293684Y-96771485D01*
X154331200Y-96631475D01*
X154331200Y-96486525D01*
X154329699Y-96480925D01*
X155701100Y-96480925D01*
X155701100Y-96625875D01*
X155703512Y-96634875D01*
X155706479Y-96645951D01*
X155706480Y-96645953D01*
X155738618Y-96765893D01*
X155811085Y-96891408D01*
X155811087Y-96891410D01*
X155811089Y-96891412D01*
X155811091Y-96891415D01*
X155913585Y-96993909D01*
X155913587Y-96993910D01*
X155913694Y-96994017D01*
X155913945Y-96994203D01*
X155916138Y-96995384D01*
X155935318Y-97006457D01*
X156036357Y-97064792D01*
X156038770Y-97066290D01*
X156039108Y-97066380D01*
X156039111Y-97066382D01*
X156039112Y-97066382D01*
X156039115Y-97066384D01*
X156179125Y-97103900D01*
X156179126Y-97103900D01*
X156324074Y-97103900D01*
X156324075Y-97103900D01*
X156464085Y-97066384D01*
X156464086Y-97066383D01*
X156464088Y-97066382D01*
X156464089Y-97066382D01*
X156583480Y-96997451D01*
X156586368Y-96996048D01*
X156587154Y-96995531D01*
X156592163Y-96992437D01*
X156593462Y-96991686D01*
X156598820Y-96984703D01*
X156692109Y-96891415D01*
X156724974Y-96834491D01*
X156764582Y-96765889D01*
X156764582Y-96765887D01*
X156764584Y-96765885D01*
X156802100Y-96625875D01*
X156802100Y-96489925D01*
X158199500Y-96489925D01*
X158199500Y-96634874D01*
X158231443Y-96754087D01*
X158237018Y-96774893D01*
X158309485Y-96900408D01*
X158309487Y-96900410D01*
X158309489Y-96900412D01*
X158309491Y-96900415D01*
X158411985Y-97002909D01*
X158411987Y-97002910D01*
X158412094Y-97003017D01*
X158412345Y-97003203D01*
X158414538Y-97004384D01*
X158515225Y-97062515D01*
X158534757Y-97073792D01*
X158537170Y-97075290D01*
X158537508Y-97075380D01*
X158537511Y-97075382D01*
X158537512Y-97075382D01*
X158537515Y-97075384D01*
X158677525Y-97112900D01*
X158677526Y-97112900D01*
X158822474Y-97112900D01*
X158822475Y-97112900D01*
X158962485Y-97075384D01*
X158962486Y-97075383D01*
X158962488Y-97075382D01*
X158962489Y-97075382D01*
X159081880Y-97006451D01*
X159084768Y-97005048D01*
X159085554Y-97004531D01*
X159090563Y-97001437D01*
X159091862Y-97000686D01*
X159097220Y-96993703D01*
X159190509Y-96900415D01*
X159195708Y-96891410D01*
X159262982Y-96774889D01*
X159262982Y-96774887D01*
X159262984Y-96774885D01*
X159300500Y-96634875D01*
X159300500Y-96489925D01*
X159262984Y-96349915D01*
X159262982Y-96349912D01*
X159262982Y-96349910D01*
X159262981Y-96349908D01*
X159262890Y-96349568D01*
X159261397Y-96347164D01*
X159191985Y-96226939D01*
X159190805Y-96224747D01*
X159190617Y-96224494D01*
X159190510Y-96224387D01*
X159190509Y-96224385D01*
X159088015Y-96121891D01*
X159088012Y-96121889D01*
X159088010Y-96121887D01*
X159088009Y-96121886D01*
X159019775Y-96082491D01*
X158998741Y-96059130D01*
X158928897Y-96040416D01*
X158920205Y-96038087D01*
X158822475Y-96011900D01*
X158822474Y-96011900D01*
X158677523Y-96011900D01*
X158615788Y-96028441D01*
X158615787Y-96028440D01*
X158537512Y-96049415D01*
X158537506Y-96049418D01*
X158411993Y-96121883D01*
X158309483Y-96224393D01*
X158237018Y-96349905D01*
X158237015Y-96349918D01*
X158199500Y-96489925D01*
X156802100Y-96489925D01*
X156802100Y-96480925D01*
X156764584Y-96340915D01*
X156764582Y-96340912D01*
X156764582Y-96340910D01*
X156728467Y-96278357D01*
X156693585Y-96217939D01*
X156692405Y-96215747D01*
X156692217Y-96215494D01*
X156692110Y-96215387D01*
X156692109Y-96215385D01*
X156589615Y-96112891D01*
X156589612Y-96112889D01*
X156589610Y-96112887D01*
X156521374Y-96073491D01*
X156500341Y-96050131D01*
X156434497Y-96032487D01*
X156434496Y-96032487D01*
X156324075Y-96002900D01*
X156324073Y-96002900D01*
X156179125Y-96002900D01*
X156158225Y-96008499D01*
X156158226Y-96008500D01*
X156039110Y-96040417D01*
X156039108Y-96040417D01*
X156039104Y-96040419D01*
X155913593Y-96112883D01*
X155811083Y-96215393D01*
X155738618Y-96340906D01*
X155738617Y-96340908D01*
X155736203Y-96349918D01*
X155726857Y-96384800D01*
X155701100Y-96480925D01*
X154329699Y-96480925D01*
X154293684Y-96346515D01*
X154293682Y-96346512D01*
X154293682Y-96346510D01*
X154254334Y-96278357D01*
X154222685Y-96223539D01*
X154221505Y-96221347D01*
X154221317Y-96221094D01*
X154221210Y-96220987D01*
X154221209Y-96220985D01*
X154118715Y-96118491D01*
X154118712Y-96118489D01*
X154118710Y-96118487D01*
X154050474Y-96079091D01*
X154029441Y-96055731D01*
X153963597Y-96038087D01*
X153963596Y-96038087D01*
X153853175Y-96008500D01*
X153853173Y-96008500D01*
X153708223Y-96008500D01*
X153646488Y-96025041D01*
X153646487Y-96025040D01*
X153568212Y-96046015D01*
X153568206Y-96046018D01*
X153442693Y-96118483D01*
X153340183Y-96220993D01*
X153267718Y-96346505D01*
X153266804Y-96349918D01*
X153230200Y-96486525D01*
X100500000Y-96486525D01*
X100500000Y-95761825D01*
X161818100Y-95761825D01*
X161818100Y-95906774D01*
X161849789Y-96025040D01*
X161855618Y-96046793D01*
X161928085Y-96172308D01*
X161928087Y-96172310D01*
X161928089Y-96172312D01*
X161928091Y-96172315D01*
X162030585Y-96274809D01*
X162030587Y-96274810D01*
X162030694Y-96274917D01*
X162030945Y-96275103D01*
X162033138Y-96276284D01*
X162132103Y-96333421D01*
X162153357Y-96345692D01*
X162155770Y-96347190D01*
X162156108Y-96347280D01*
X162156111Y-96347282D01*
X162156112Y-96347282D01*
X162156115Y-96347284D01*
X162296125Y-96384800D01*
X162296126Y-96384800D01*
X162441074Y-96384800D01*
X162441075Y-96384800D01*
X162581085Y-96347284D01*
X162581086Y-96347283D01*
X162581088Y-96347282D01*
X162581089Y-96347282D01*
X162700480Y-96278351D01*
X162703368Y-96276948D01*
X162704154Y-96276431D01*
X162709163Y-96273337D01*
X162710462Y-96272586D01*
X162715820Y-96265603D01*
X162809109Y-96172315D01*
X162809112Y-96172310D01*
X162881582Y-96046789D01*
X162881582Y-96046787D01*
X162881584Y-96046785D01*
X162919100Y-95906775D01*
X162919100Y-95761825D01*
X162881584Y-95621815D01*
X162881582Y-95621812D01*
X162881582Y-95621810D01*
X162881581Y-95621808D01*
X162881490Y-95621468D01*
X162879997Y-95619064D01*
X162810585Y-95498839D01*
X162809405Y-95496647D01*
X162809217Y-95496394D01*
X162809110Y-95496287D01*
X162809109Y-95496285D01*
X162706615Y-95393791D01*
X162706612Y-95393789D01*
X162706610Y-95393787D01*
X162638374Y-95354391D01*
X162617341Y-95331031D01*
X162551497Y-95313387D01*
X162551496Y-95313387D01*
X162441075Y-95283800D01*
X162441073Y-95283800D01*
X162296123Y-95283800D01*
X162234388Y-95300341D01*
X162234387Y-95300340D01*
X162156112Y-95321315D01*
X162156106Y-95321318D01*
X162030593Y-95393783D01*
X161928083Y-95496293D01*
X161855618Y-95621805D01*
X161834642Y-95700087D01*
X161818100Y-95761825D01*
X100500000Y-95761825D01*
X100500000Y-94001825D01*
X155199500Y-94001825D01*
X155199500Y-94146774D01*
X155232585Y-94270249D01*
X155237018Y-94286793D01*
X155309485Y-94412308D01*
X155309487Y-94412310D01*
X155309489Y-94412312D01*
X155309491Y-94412315D01*
X155411985Y-94514809D01*
X155411987Y-94514810D01*
X155412094Y-94514917D01*
X155412345Y-94515103D01*
X155414538Y-94516284D01*
X155527107Y-94581275D01*
X155534757Y-94585692D01*
X155537170Y-94587190D01*
X155537508Y-94587280D01*
X155537511Y-94587282D01*
X155537512Y-94587282D01*
X155537515Y-94587284D01*
X155677525Y-94624800D01*
X155677526Y-94624800D01*
X155822474Y-94624800D01*
X155822475Y-94624800D01*
X155962485Y-94587284D01*
X155962486Y-94587283D01*
X155962488Y-94587282D01*
X155962489Y-94587282D01*
X156081880Y-94518351D01*
X156084768Y-94516948D01*
X156085554Y-94516431D01*
X156090563Y-94513337D01*
X156091862Y-94512586D01*
X156097220Y-94505603D01*
X156190509Y-94412315D01*
X156190513Y-94412308D01*
X156262982Y-94286789D01*
X156262982Y-94286787D01*
X156262984Y-94286785D01*
X156300500Y-94146775D01*
X156300500Y-94001825D01*
X156262984Y-93861815D01*
X156262982Y-93861812D01*
X156262982Y-93861810D01*
X156262981Y-93861808D01*
X156262890Y-93861468D01*
X156261397Y-93859064D01*
X156191985Y-93738839D01*
X156190805Y-93736647D01*
X156190617Y-93736394D01*
X156190510Y-93736287D01*
X156190509Y-93736285D01*
X156088015Y-93633791D01*
X156088012Y-93633789D01*
X156088010Y-93633787D01*
X156019774Y-93594391D01*
X155998740Y-93571030D01*
X155922120Y-93550499D01*
X155922120Y-93550500D01*
X155822475Y-93523800D01*
X155822474Y-93523800D01*
X155677523Y-93523800D01*
X155615788Y-93540341D01*
X155615787Y-93540340D01*
X155537512Y-93561315D01*
X155537506Y-93561318D01*
X155411993Y-93633783D01*
X155309483Y-93736293D01*
X155237018Y-93861805D01*
X155216042Y-93940087D01*
X155199500Y-94001825D01*
X100500000Y-94001825D01*
X100500000Y-91877965D01*
X110949500Y-91877965D01*
X110949500Y-92122033D01*
X110987675Y-92363066D01*
X111063096Y-92595185D01*
X111173894Y-92812640D01*
X111252347Y-92920623D01*
X111317340Y-93010077D01*
X111317342Y-93010079D01*
X111317345Y-93010083D01*
X111489917Y-93182655D01*
X111489920Y-93182657D01*
X111489922Y-93182659D01*
X111547554Y-93224530D01*
X111633367Y-93286876D01*
X111633368Y-93286878D01*
X111669231Y-93312933D01*
X111687362Y-93326107D01*
X111796088Y-93381505D01*
X111904815Y-93436904D01*
X112136822Y-93512288D01*
X112136923Y-93512321D01*
X112136926Y-93512321D01*
X112136928Y-93512322D01*
X112209396Y-93523800D01*
X112377967Y-93550500D01*
X112622030Y-93550500D01*
X112622032Y-93550500D01*
X112696080Y-93538771D01*
X112863071Y-93512322D01*
X112863071Y-93512321D01*
X112863073Y-93512321D01*
X112863076Y-93512321D01*
X112863079Y-93512320D01*
X112865655Y-93511912D01*
X112870462Y-93509920D01*
X113095185Y-93436904D01*
X113312639Y-93326106D01*
X113510083Y-93182655D01*
X113682655Y-93010083D01*
X113826106Y-92812639D01*
X113936904Y-92595185D01*
X114012321Y-92363076D01*
X114012323Y-92363066D01*
X114050500Y-92122030D01*
X114050500Y-91877966D01*
X114027593Y-91733344D01*
X114012322Y-91636928D01*
X113972050Y-91512984D01*
X113936904Y-91404815D01*
X113858430Y-91250800D01*
X113826107Y-91187362D01*
X113826105Y-91187358D01*
X113770826Y-91111273D01*
X113770826Y-91111274D01*
X113682655Y-90989917D01*
X113510083Y-90817345D01*
X113418742Y-90750982D01*
X113312637Y-90673892D01*
X113095185Y-90563096D01*
X112934590Y-90510915D01*
X112863066Y-90487675D01*
X112622033Y-90449500D01*
X112622030Y-90449500D01*
X112622027Y-90449500D01*
X112377973Y-90449500D01*
X112377970Y-90449500D01*
X112377967Y-90449500D01*
X112136932Y-90487675D01*
X111904813Y-90563096D01*
X111687363Y-90673890D01*
X111489919Y-90817343D01*
X111317343Y-90989919D01*
X111173890Y-91187363D01*
X111063096Y-91404813D01*
X110987675Y-91636932D01*
X110949500Y-91877965D01*
X100500000Y-91877965D01*
X100500000Y-90165525D01*
X158091000Y-90165525D01*
X158091000Y-90310474D01*
X158124085Y-90433949D01*
X158128518Y-90450493D01*
X158200985Y-90576008D01*
X158200987Y-90576010D01*
X158200989Y-90576012D01*
X158200991Y-90576015D01*
X158303485Y-90678509D01*
X158303487Y-90678510D01*
X158303594Y-90678617D01*
X158303845Y-90678803D01*
X158306038Y-90679984D01*
X158418607Y-90744975D01*
X158426257Y-90749392D01*
X158428670Y-90750890D01*
X158429008Y-90750980D01*
X158429011Y-90750982D01*
X158429012Y-90750982D01*
X158429015Y-90750984D01*
X158569025Y-90788500D01*
X158569026Y-90788500D01*
X158713974Y-90788500D01*
X158713975Y-90788500D01*
X158853985Y-90750984D01*
X158853986Y-90750983D01*
X158853988Y-90750982D01*
X158853989Y-90750982D01*
X158973380Y-90682051D01*
X158976268Y-90680648D01*
X158977054Y-90680131D01*
X158982063Y-90677037D01*
X158983362Y-90676286D01*
X158988720Y-90669303D01*
X159082009Y-90576015D01*
X159119595Y-90510915D01*
X159154482Y-90450489D01*
X159154482Y-90450487D01*
X159154484Y-90450485D01*
X159192000Y-90310475D01*
X159192000Y-90165525D01*
X159154484Y-90025515D01*
X159154482Y-90025512D01*
X159154482Y-90025510D01*
X159154481Y-90025508D01*
X159154390Y-90025168D01*
X159152897Y-90022764D01*
X159083485Y-89902539D01*
X159082305Y-89900347D01*
X159082117Y-89900094D01*
X159082010Y-89899987D01*
X159082009Y-89899985D01*
X158979515Y-89797491D01*
X158979512Y-89797489D01*
X158979510Y-89797487D01*
X158911274Y-89758091D01*
X158890241Y-89734731D01*
X158824397Y-89717087D01*
X158824396Y-89717087D01*
X158713975Y-89687500D01*
X158713973Y-89687500D01*
X158569023Y-89687500D01*
X158507288Y-89704041D01*
X158507287Y-89704040D01*
X158429012Y-89725015D01*
X158429006Y-89725018D01*
X158303493Y-89797483D01*
X158200983Y-89899993D01*
X158128518Y-90025505D01*
X158107542Y-90103787D01*
X158091000Y-90165525D01*
X100500000Y-90165525D01*
X100500000Y-85675320D01*
X110949500Y-85675320D01*
X110949500Y-88324678D01*
X110949500Y-88324682D01*
X110949501Y-88324684D01*
X110964033Y-88397736D01*
X110964035Y-88397742D01*
X111019397Y-88480599D01*
X111019400Y-88480602D01*
X111044835Y-88497596D01*
X111044836Y-88497598D01*
X111102260Y-88535966D01*
X111157807Y-88547015D01*
X111157808Y-88547015D01*
X111169240Y-88549289D01*
X111171405Y-88549863D01*
X111173579Y-88550216D01*
X111175152Y-88550500D01*
X111175326Y-88550500D01*
X111175327Y-88550500D01*
X113824673Y-88550500D01*
X113824674Y-88550500D01*
X113897740Y-88535966D01*
X113980601Y-88480601D01*
X114035966Y-88397740D01*
X114050500Y-88324674D01*
X114050500Y-87402132D01*
X120949500Y-87402132D01*
X120949500Y-88597920D01*
X120949584Y-88598648D01*
X120954281Y-88642349D01*
X120955908Y-88657480D01*
X120955909Y-88657485D01*
X120955912Y-88657492D01*
X121006200Y-88792327D01*
X121092449Y-88907541D01*
X121092522Y-88907633D01*
X121092799Y-88907879D01*
X121094588Y-88909144D01*
X121179142Y-88972441D01*
X121207668Y-88993796D01*
X121207669Y-88993796D01*
X121207670Y-88993797D01*
X121341544Y-89043728D01*
X121342985Y-89044285D01*
X121344247Y-89044466D01*
X121347767Y-89044655D01*
X121402127Y-89050500D01*
X122597872Y-89050499D01*
X122657483Y-89044091D01*
X122748537Y-89010130D01*
X122776401Y-88999737D01*
X122790692Y-88994408D01*
X122794020Y-88993233D01*
X122797583Y-88992046D01*
X122805167Y-88984186D01*
X122907546Y-88907546D01*
X122993796Y-88792331D01*
X122993798Y-88792327D01*
X123039551Y-88669655D01*
X123044091Y-88657483D01*
X123050500Y-88597873D01*
X123050499Y-87896529D01*
X128569500Y-87896529D01*
X128569500Y-88103469D01*
X128609869Y-88306417D01*
X128609869Y-88306419D01*
X128689056Y-88497594D01*
X128756054Y-88597865D01*
X128804022Y-88669654D01*
X128804030Y-88669663D01*
X128926695Y-88792327D01*
X128950345Y-88815977D01*
X129122402Y-88930941D01*
X129313580Y-89010130D01*
X129516535Y-89050500D01*
X129516536Y-89050500D01*
X129723464Y-89050500D01*
X129723465Y-89050500D01*
X129926420Y-89010130D01*
X130117598Y-88930941D01*
X130289655Y-88815977D01*
X130435977Y-88669655D01*
X130550941Y-88497598D01*
X130630130Y-88306420D01*
X130670500Y-88103465D01*
X130670500Y-87896535D01*
X130630130Y-87693580D01*
X130550941Y-87502402D01*
X130435977Y-87330345D01*
X130393147Y-87287515D01*
X130289656Y-87184023D01*
X130289657Y-87184023D01*
X130256674Y-87161986D01*
X130256675Y-87161986D01*
X130256673Y-87161985D01*
X130117597Y-87069058D01*
X130117592Y-87069056D01*
X129926418Y-86989869D01*
X129723469Y-86949500D01*
X129723467Y-86949500D01*
X129723465Y-86949500D01*
X129516535Y-86949500D01*
X129516532Y-86949500D01*
X129516529Y-86949500D01*
X129313581Y-86989869D01*
X129313579Y-86989869D01*
X129122404Y-87069056D01*
X128950351Y-87184017D01*
X128804017Y-87330351D01*
X128689056Y-87502404D01*
X128609869Y-87693579D01*
X128609869Y-87693581D01*
X128569500Y-87896529D01*
X123050499Y-87896529D01*
X123050499Y-87402128D01*
X123044091Y-87342517D01*
X123023577Y-87287515D01*
X122993797Y-87207670D01*
X122909144Y-87094588D01*
X122907879Y-87092799D01*
X122907633Y-87092522D01*
X122907541Y-87092449D01*
X122792330Y-87006202D01*
X122792328Y-87006201D01*
X122662428Y-86957752D01*
X122658939Y-86956234D01*
X122658025Y-86955996D01*
X122655927Y-86955540D01*
X122652206Y-86955341D01*
X122635312Y-86953524D01*
X122626249Y-86952550D01*
X122626248Y-86952549D01*
X122597876Y-86949500D01*
X122597873Y-86949500D01*
X122597870Y-86949500D01*
X121402133Y-86949500D01*
X121402129Y-86949500D01*
X121393938Y-86949500D01*
X121387975Y-86951021D01*
X121379069Y-86951978D01*
X121342520Y-86955907D01*
X121342514Y-86955908D01*
X121342514Y-86955909D01*
X121342506Y-86955912D01*
X121207671Y-87006200D01*
X121092456Y-87092451D01*
X121092454Y-87092453D01*
X121006200Y-87207671D01*
X120955912Y-87342504D01*
X120955908Y-87342520D01*
X120955908Y-87342521D01*
X120949500Y-87402132D01*
X114050500Y-87402132D01*
X114050500Y-85675326D01*
X114035966Y-85602260D01*
X113980601Y-85519399D01*
X113980599Y-85519397D01*
X113980595Y-85519394D01*
X113980593Y-85519392D01*
X113897748Y-85464038D01*
X113897737Y-85464032D01*
X113897534Y-85463964D01*
X113895997Y-85463687D01*
X113824694Y-85449503D01*
X113824684Y-85449501D01*
X113824679Y-85449500D01*
X113824676Y-85449500D01*
X113824674Y-85449500D01*
X111175326Y-85449500D01*
X111175325Y-85449500D01*
X111175322Y-85449500D01*
X111175318Y-85449500D01*
X111175315Y-85449501D01*
X111139039Y-85456717D01*
X111102261Y-85464033D01*
X111102256Y-85464035D01*
X111019403Y-85519394D01*
X111019394Y-85519403D01*
X110964035Y-85602256D01*
X110964035Y-85602257D01*
X110964033Y-85602263D01*
X110949690Y-85674360D01*
X110949500Y-85675320D01*
X100500000Y-85675320D01*
X100500000Y-84402132D01*
X121449500Y-84402132D01*
X121449500Y-85598401D01*
X121449782Y-85600491D01*
X121449968Y-85602214D01*
X121449970Y-85602260D01*
X121449973Y-85602260D01*
X121455907Y-85657478D01*
X121455908Y-85657480D01*
X121455909Y-85657485D01*
X121455912Y-85657492D01*
X121506200Y-85792327D01*
X121506203Y-85792331D01*
X121558721Y-85862485D01*
X121592522Y-85907637D01*
X121592695Y-85907806D01*
X121594588Y-85909144D01*
X121679142Y-85972441D01*
X121707668Y-85993796D01*
X121707669Y-85993796D01*
X121707670Y-85993797D01*
X121841544Y-86043728D01*
X121842985Y-86044285D01*
X121844247Y-86044466D01*
X121847767Y-86044655D01*
X121902127Y-86050500D01*
X123097872Y-86050499D01*
X123157483Y-86044091D01*
X123224907Y-86018943D01*
X123224910Y-86018942D01*
X123290697Y-85994406D01*
X123294030Y-85993230D01*
X123297582Y-85992047D01*
X123305167Y-85984186D01*
X123407546Y-85907546D01*
X123493796Y-85792331D01*
X123493798Y-85792327D01*
X123544089Y-85657488D01*
X123544090Y-85657485D01*
X123544091Y-85657483D01*
X123550500Y-85597873D01*
X123550499Y-84402128D01*
X123544091Y-84342517D01*
X123542412Y-84338015D01*
X123542411Y-84338011D01*
X123493798Y-84207671D01*
X123471998Y-84178551D01*
X123409156Y-84094605D01*
X123407807Y-84092696D01*
X123407637Y-84092522D01*
X123366845Y-84061985D01*
X123322266Y-84028613D01*
X123292327Y-84006200D01*
X123162428Y-83957752D01*
X123158939Y-83956234D01*
X123158025Y-83955996D01*
X123155927Y-83955540D01*
X123152206Y-83955341D01*
X123135312Y-83953524D01*
X123126249Y-83952550D01*
X123126248Y-83952549D01*
X123097876Y-83949500D01*
X123097873Y-83949500D01*
X123097870Y-83949500D01*
X121902133Y-83949500D01*
X121902129Y-83949500D01*
X121893938Y-83949500D01*
X121887975Y-83951021D01*
X121879069Y-83951978D01*
X121842520Y-83955907D01*
X121842514Y-83955908D01*
X121842514Y-83955909D01*
X121842506Y-83955912D01*
X121707671Y-84006200D01*
X121592456Y-84092451D01*
X121592454Y-84092453D01*
X121592451Y-84092456D01*
X121592450Y-84092458D01*
X121577758Y-84112082D01*
X121506200Y-84207671D01*
X121455912Y-84342504D01*
X121455908Y-84342520D01*
X121455908Y-84342521D01*
X121449500Y-84402132D01*
X100500000Y-84402132D01*
X100500000Y-70675320D01*
X110949500Y-70675320D01*
X110949500Y-73324678D01*
X110949500Y-73324682D01*
X110949501Y-73324684D01*
X110964033Y-73397736D01*
X110964035Y-73397742D01*
X111019397Y-73480599D01*
X111019399Y-73480601D01*
X111019402Y-73480603D01*
X111019404Y-73480605D01*
X111102260Y-73535966D01*
X111157807Y-73547015D01*
X111157808Y-73547015D01*
X111169240Y-73549289D01*
X111171405Y-73549863D01*
X111173579Y-73550216D01*
X111175152Y-73550500D01*
X111175326Y-73550500D01*
X111175327Y-73550500D01*
X113824673Y-73550500D01*
X113824674Y-73550500D01*
X113897740Y-73535966D01*
X113980601Y-73480601D01*
X114035966Y-73397740D01*
X114050500Y-73324674D01*
X114050500Y-70675326D01*
X114035966Y-70602260D01*
X113980601Y-70519399D01*
X113980599Y-70519397D01*
X113980595Y-70519394D01*
X113980593Y-70519392D01*
X113897748Y-70464038D01*
X113897737Y-70464032D01*
X113897534Y-70463964D01*
X113895997Y-70463687D01*
X113824694Y-70449503D01*
X113824684Y-70449501D01*
X113824679Y-70449500D01*
X113824676Y-70449500D01*
X113824674Y-70449500D01*
X111175326Y-70449500D01*
X111175325Y-70449500D01*
X111175322Y-70449500D01*
X111175318Y-70449500D01*
X111175315Y-70449501D01*
X111139039Y-70456717D01*
X111102261Y-70464033D01*
X111102256Y-70464035D01*
X111019403Y-70519394D01*
X111019394Y-70519403D01*
X110964035Y-70602256D01*
X110964033Y-70602261D01*
X110949500Y-70675320D01*
X100500000Y-70675320D01*
X100500000Y-63882642D01*
X102209500Y-63882642D01*
X102209500Y-64117356D01*
X102240136Y-64350059D01*
X102300881Y-64576767D01*
X102300901Y-64576825D01*
X102301104Y-64577305D01*
X102390698Y-64793607D01*
X102390701Y-64793612D01*
X102508061Y-64996886D01*
X102650936Y-65183085D01*
X102650938Y-65183087D01*
X102650942Y-65183092D01*
X102816908Y-65349058D01*
X102816912Y-65349061D01*
X102816917Y-65349066D01*
X102816939Y-65349085D01*
X102817313Y-65349369D01*
X103003113Y-65491938D01*
X103003117Y-65491941D01*
X103203654Y-65607720D01*
X103205041Y-65608582D01*
X103207811Y-65610120D01*
X103208266Y-65610382D01*
X103212362Y-65611773D01*
X103264877Y-65633525D01*
X103423228Y-65699117D01*
X103649941Y-65759864D01*
X103882644Y-65790500D01*
X103882645Y-65790500D01*
X104117355Y-65790500D01*
X104117356Y-65790500D01*
X104350059Y-65759864D01*
X104576772Y-65699117D01*
X104793617Y-65609296D01*
X104996883Y-65491941D01*
X105183092Y-65349058D01*
X105349058Y-65183092D01*
X105491941Y-64996883D01*
X105609296Y-64793617D01*
X105699117Y-64576772D01*
X105759864Y-64350059D01*
X105790500Y-64117356D01*
X105790500Y-63882644D01*
X105759864Y-63649941D01*
X105699117Y-63423228D01*
X105633525Y-63264877D01*
X105609298Y-63206387D01*
X105609296Y-63206383D01*
X105491941Y-63003117D01*
X105349058Y-62816908D01*
X105183092Y-62650942D01*
X105183087Y-62650938D01*
X105183085Y-62650936D01*
X104996886Y-62508061D01*
X104793612Y-62390701D01*
X104793607Y-62390698D01*
X104635266Y-62325112D01*
X104580012Y-62302225D01*
X104577326Y-62300999D01*
X104575343Y-62300500D01*
X104350059Y-62240136D01*
X104117356Y-62209500D01*
X103882644Y-62209500D01*
X103882643Y-62209500D01*
X103882642Y-62209500D01*
X103649939Y-62240136D01*
X103423231Y-62300881D01*
X103423172Y-62300902D01*
X103422693Y-62301104D01*
X103206391Y-62390698D01*
X103003109Y-62508063D01*
X102816917Y-62650933D01*
X102650933Y-62816917D01*
X102508063Y-63003109D01*
X102390698Y-63206391D01*
X102301104Y-63422693D01*
X102300902Y-63423172D01*
X102300881Y-63423231D01*
X102240136Y-63649939D01*
X102209500Y-63882642D01*
X100500000Y-63882642D01*
X100500000Y-60614680D01*
X100504843Y-60584094D01*
X100508965Y-60571405D01*
X100544923Y-60521906D01*
X100545522Y-60521471D01*
X100549063Y-60518900D01*
X100607243Y-60500000D01*
X171385320Y-60500000D01*
X171415908Y-60504843D01*
G37*
%TD.AperFunction*%
%TD*%
M02*
