%TF.GenerationSoftware,KiCad,Pcbnew,10.0.6*%
%TF.CreationDate,2026-10-01T09:09:58+00:00*%
%TF.ProjectId,OSBAMS_Rev2_RC1,4f534241-4d53-45f5-9265-76325f524331,rev?*%
%TF.SameCoordinates,Original*%
%TF.FileFunction,Paste,Top*%
%TF.FilePolarity,Positive*%
%FSLAX46Y46*%
G04 Gerber Fmt 4.6, Leading zero omitted, Abs format (unit mm)*
G04 Created by KiCad (PCBNEW 10.0.6) date 2026-10-01 09:09:58*
%MOMM*%
%LPD*%
G01*
G04 APERTURE LIST*
G04 Aperture macros list*
%AMRoundRect*
0 Rectangle with rounded corners*
0 $1 Rounding radius*
0 $2 $3 $4 $5 $6 $7 $8 $9 X,Y pos of 4 corners*
0 Add a 4 corners polygon primitive as box body*
4,1,4,$2,$3,$4,$5,$6,$7,$8,$9,$2,$3,0*
0 Add four circle primitives for the rounded corners*
1,1,$1+$1,$2,$3*
1,1,$1+$1,$4,$5*
1,1,$1+$1,$6,$7*
1,1,$1+$1,$8,$9*
0 Add four rect primitives between the rounded corners*
20,1,$1+$1,$2,$3,$4,$5,0*
20,1,$1+$1,$4,$5,$6,$7,0*
20,1,$1+$1,$6,$7,$8,$9,0*
20,1,$1+$1,$8,$9,$2,$3,0*%
G04 Aperture macros list end*
%ADD10RoundRect,0.250000X-0.475000X0.250000X-0.475000X-0.250000X0.475000X-0.250000X0.475000X0.250000X0*%
%ADD11RoundRect,0.200000X-0.275000X0.200000X-0.275000X-0.200000X0.275000X-0.200000X0.275000X0.200000X0*%
%ADD12RoundRect,0.225000X0.225000X0.250000X-0.225000X0.250000X-0.225000X-0.250000X0.225000X-0.250000X0*%
%ADD13RoundRect,0.225000X0.250000X-0.225000X0.250000X0.225000X-0.250000X0.225000X-0.250000X-0.225000X0*%
%ADD14RoundRect,0.200000X0.275000X-0.200000X0.275000X0.200000X-0.275000X0.200000X-0.275000X-0.200000X0*%
%ADD15RoundRect,0.225000X-0.250000X0.225000X-0.250000X-0.225000X0.250000X-0.225000X0.250000X0.225000X0*%
%ADD16RoundRect,0.200000X0.200000X0.275000X-0.200000X0.275000X-0.200000X-0.275000X0.200000X-0.275000X0*%
%ADD17R,1.050000X0.650000*%
%ADD18RoundRect,0.243750X-0.243750X-0.456250X0.243750X-0.456250X0.243750X0.456250X-0.243750X0.456250X0*%
%ADD19R,2.400000X0.740000*%
%ADD20RoundRect,0.250000X-1.100000X0.325000X-1.100000X-0.325000X1.100000X-0.325000X1.100000X0.325000X0*%
%ADD21RoundRect,0.150000X-0.587500X-0.150000X0.587500X-0.150000X0.587500X0.150000X-0.587500X0.150000X0*%
%ADD22RoundRect,0.250000X0.250000X0.475000X-0.250000X0.475000X-0.250000X-0.475000X0.250000X-0.475000X0*%
%ADD23RoundRect,0.200000X-0.200000X-0.275000X0.200000X-0.275000X0.200000X0.275000X-0.200000X0.275000X0*%
%ADD24RoundRect,0.250000X-0.262500X-0.450000X0.262500X-0.450000X0.262500X0.450000X-0.262500X0.450000X0*%
%ADD25RoundRect,0.250000X0.325000X1.100000X-0.325000X1.100000X-0.325000X-1.100000X0.325000X-1.100000X0*%
%ADD26RoundRect,0.150000X-0.512500X-0.150000X0.512500X-0.150000X0.512500X0.150000X-0.512500X0.150000X0*%
%ADD27RoundRect,0.250000X-0.625000X0.312500X-0.625000X-0.312500X0.625000X-0.312500X0.625000X0.312500X0*%
%ADD28R,2.350000X5.100000*%
%ADD29RoundRect,0.250000X0.900000X-1.000000X0.900000X1.000000X-0.900000X1.000000X-0.900000X-1.000000X0*%
%ADD30RoundRect,0.250000X-0.250000X-0.475000X0.250000X-0.475000X0.250000X0.475000X-0.250000X0.475000X0*%
%ADD31RoundRect,0.250000X-1.000000X-0.900000X1.000000X-0.900000X1.000000X0.900000X-1.000000X0.900000X0*%
%ADD32RoundRect,0.250000X0.650000X-1.000000X0.650000X1.000000X-0.650000X1.000000X-0.650000X-1.000000X0*%
%ADD33RoundRect,0.243750X0.456250X-0.243750X0.456250X0.243750X-0.456250X0.243750X-0.456250X-0.243750X0*%
%ADD34RoundRect,0.250000X-0.375000X-0.625000X0.375000X-0.625000X0.375000X0.625000X-0.375000X0.625000X0*%
%ADD35R,0.540000X0.540000*%
%ADD36R,0.300000X0.300000*%
%ADD37R,0.900000X0.300000*%
%ADD38R,0.300000X0.900000*%
%ADD39RoundRect,0.250000X-1.000000X-0.650000X1.000000X-0.650000X1.000000X0.650000X-1.000000X0.650000X0*%
%ADD40RoundRect,0.087500X-0.662500X-0.087500X0.662500X-0.087500X0.662500X0.087500X-0.662500X0.087500X0*%
%ADD41RoundRect,0.250000X1.000000X0.900000X-1.000000X0.900000X-1.000000X-0.900000X1.000000X-0.900000X0*%
%ADD42RoundRect,0.250000X-0.312500X-0.625000X0.312500X-0.625000X0.312500X0.625000X-0.312500X0.625000X0*%
%ADD43RoundRect,0.150000X0.587500X0.150000X-0.587500X0.150000X-0.587500X-0.150000X0.587500X-0.150000X0*%
%ADD44RoundRect,0.250000X0.625000X-0.312500X0.625000X0.312500X-0.625000X0.312500X-0.625000X-0.312500X0*%
%ADD45RoundRect,0.218750X-0.256250X0.218750X-0.256250X-0.218750X0.256250X-0.218750X0.256250X0.218750X0*%
%ADD46RoundRect,0.075000X-0.700000X-0.075000X0.700000X-0.075000X0.700000X0.075000X-0.700000X0.075000X0*%
%ADD47RoundRect,0.075000X-0.075000X-0.700000X0.075000X-0.700000X0.075000X0.700000X-0.075000X0.700000X0*%
%ADD48RoundRect,0.150000X-0.150000X0.587500X-0.150000X-0.587500X0.150000X-0.587500X0.150000X0.587500X0*%
%ADD49RoundRect,0.150000X-0.825000X-0.150000X0.825000X-0.150000X0.825000X0.150000X-0.825000X0.150000X0*%
%ADD50RoundRect,0.150000X0.425000X-0.150000X0.425000X0.150000X-0.425000X0.150000X-0.425000X-0.150000X0*%
%ADD51RoundRect,0.075000X0.500000X-0.075000X0.500000X0.075000X-0.500000X0.075000X-0.500000X-0.075000X0*%
%ADD52O,2.100000X1.000000*%
%ADD53O,1.800000X1.000000*%
%ADD54RoundRect,0.250000X0.475000X-0.250000X0.475000X0.250000X-0.475000X0.250000X-0.475000X-0.250000X0*%
G04 APERTURE END LIST*
D10*
%TO.C,C19*%
X190000000Y-85550000D03*
X190000000Y-87450000D03*
%TD*%
D11*
%TO.C,R16*%
X119500000Y-125175000D03*
X119500000Y-126825000D03*
%TD*%
D12*
%TO.C,C12*%
X154275000Y-92500000D03*
X152725000Y-92500000D03*
%TD*%
D13*
%TO.C,C18*%
X148000000Y-97275000D03*
X148000000Y-95725000D03*
%TD*%
D14*
%TO.C,R6*%
X160500000Y-92825000D03*
X160500000Y-91175000D03*
%TD*%
D12*
%TO.C,C3*%
X132275000Y-74500000D03*
X130725000Y-74500000D03*
%TD*%
D11*
%TO.C,R24*%
X119500000Y-86175000D03*
X119500000Y-87825000D03*
%TD*%
D15*
%TO.C,C29*%
X145500000Y-105725000D03*
X145500000Y-107275000D03*
%TD*%
D16*
%TO.C,R3*%
X135825000Y-83500000D03*
X134175000Y-83500000D03*
%TD*%
D17*
%TO.C,SW1*%
X146925000Y-121925000D03*
X151075000Y-121925000D03*
X146925000Y-124075000D03*
X151075000Y-124075000D03*
%TD*%
D18*
%TO.C,D10*%
X104062500Y-108000000D03*
X105937500Y-108000000D03*
%TD*%
D19*
%TO.C,J9*%
X158050000Y-137460000D03*
X161950000Y-137460000D03*
X158050000Y-138730000D03*
X161950000Y-138730000D03*
X158050000Y-140000000D03*
X161950000Y-140000000D03*
X158050000Y-141270000D03*
X161950000Y-141270000D03*
X158050000Y-142540000D03*
X161950000Y-142540000D03*
%TD*%
D20*
%TO.C,C2*%
X131500000Y-81025000D03*
X131500000Y-83975000D03*
%TD*%
D21*
%TO.C,Q1*%
X125062500Y-113050000D03*
X125062500Y-114950000D03*
X126937500Y-114000000D03*
%TD*%
D22*
%TO.C,C7*%
X147950000Y-103500000D03*
X146050000Y-103500000D03*
%TD*%
D12*
%TO.C,C26*%
X123775000Y-124500000D03*
X122225000Y-124500000D03*
%TD*%
D23*
%TO.C,R25*%
X144175000Y-101000000D03*
X145825000Y-101000000D03*
%TD*%
D24*
%TO.C,R19*%
X138587500Y-133000000D03*
X140412500Y-133000000D03*
%TD*%
D12*
%TO.C,C11*%
X161775000Y-109500000D03*
X160225000Y-109500000D03*
%TD*%
D25*
%TO.C,C1*%
X138475000Y-72000000D03*
X135525000Y-72000000D03*
%TD*%
D14*
%TO.C,R12*%
X128500000Y-129325000D03*
X128500000Y-127675000D03*
%TD*%
D26*
%TO.C,U10*%
X174862500Y-135050000D03*
X174862500Y-136000000D03*
X174862500Y-136950000D03*
X177137500Y-136950000D03*
X177137500Y-136000000D03*
X177137500Y-135050000D03*
%TD*%
D27*
%TO.C,R28*%
X150000000Y-142537500D03*
X150000000Y-145462500D03*
%TD*%
D16*
%TO.C,R2*%
X128325000Y-83000000D03*
X126675000Y-83000000D03*
%TD*%
D14*
%TO.C,R14*%
X119500000Y-130325000D03*
X119500000Y-128675000D03*
%TD*%
D28*
%TO.C,L1*%
X135425000Y-78500000D03*
X139575000Y-78500000D03*
%TD*%
D29*
%TO.C,D6*%
X124000000Y-145150000D03*
X124000000Y-140850000D03*
%TD*%
D30*
%TO.C,C15*%
X156550000Y-92500000D03*
X158450000Y-92500000D03*
%TD*%
D14*
%TO.C,R35*%
X164000000Y-110825000D03*
X164000000Y-109175000D03*
%TD*%
%TO.C,R4*%
X148000000Y-101325000D03*
X148000000Y-99675000D03*
%TD*%
D31*
%TO.C,D1*%
X137850000Y-67500000D03*
X142150000Y-67500000D03*
%TD*%
D10*
%TO.C,C20*%
X184000000Y-96050000D03*
X184000000Y-97950000D03*
%TD*%
D13*
%TO.C,C25*%
X177000000Y-89775000D03*
X177000000Y-88225000D03*
%TD*%
D32*
%TO.C,D9*%
X119000000Y-113000000D03*
X119000000Y-109000000D03*
%TD*%
D13*
%TO.C,C32*%
X165000000Y-92775000D03*
X165000000Y-91225000D03*
%TD*%
D33*
%TO.C,D3*%
X138500000Y-86937500D03*
X138500000Y-85062500D03*
%TD*%
D15*
%TO.C,C4*%
X127500000Y-77225000D03*
X127500000Y-78775000D03*
%TD*%
D10*
%TO.C,C16*%
X149000000Y-108050000D03*
X149000000Y-109950000D03*
%TD*%
D14*
%TO.C,R15*%
X121500000Y-132825000D03*
X121500000Y-131175000D03*
%TD*%
D34*
%TO.C,F1*%
X123600000Y-67000000D03*
X126400000Y-67000000D03*
%TD*%
D14*
%TO.C,R9*%
X190500000Y-79325000D03*
X190500000Y-77675000D03*
%TD*%
D35*
%TO.C,U6*%
X184550000Y-91550000D03*
X184550000Y-92450000D03*
X185450000Y-91550000D03*
X185450000Y-92450000D03*
D36*
X183750000Y-90750000D03*
D37*
X183450000Y-91250000D03*
X183450000Y-91750000D03*
X183450000Y-92250000D03*
X183450000Y-92750000D03*
D36*
X183750000Y-93250000D03*
D38*
X184250000Y-93550000D03*
X184750000Y-93550000D03*
X185250000Y-93550000D03*
X185750000Y-93550000D03*
D36*
X186250000Y-93250000D03*
D37*
X186550000Y-92750000D03*
X186550000Y-92250000D03*
X186550000Y-91750000D03*
X186550000Y-91250000D03*
D36*
X186250000Y-90750000D03*
D38*
X185750000Y-90450000D03*
X185250000Y-90450000D03*
X184750000Y-90450000D03*
X184250000Y-90450000D03*
%TD*%
D16*
%TO.C,R5*%
X139825000Y-83000000D03*
X138175000Y-83000000D03*
%TD*%
D39*
%TO.C,D2*%
X130500000Y-67000000D03*
X134500000Y-67000000D03*
%TD*%
D11*
%TO.C,R33*%
X179500000Y-135175000D03*
X179500000Y-136825000D03*
%TD*%
D40*
%TO.C,U2*%
X121900000Y-127000000D03*
X121900000Y-127500000D03*
X121900000Y-128000000D03*
X121900000Y-128500000D03*
X121900000Y-129000000D03*
X126100000Y-129000000D03*
X126100000Y-128500000D03*
X126100000Y-128000000D03*
X126100000Y-127500000D03*
X126100000Y-127000000D03*
%TD*%
D11*
%TO.C,R32*%
X163000000Y-91175000D03*
X163000000Y-92825000D03*
%TD*%
D41*
%TO.C,D7*%
X132150000Y-136500000D03*
X127850000Y-136500000D03*
%TD*%
D42*
%TO.C,R27*%
X144537500Y-143000000D03*
X147462500Y-143000000D03*
%TD*%
D12*
%TO.C,C23*%
X181275000Y-94500000D03*
X179725000Y-94500000D03*
%TD*%
D43*
%TO.C,D14*%
X145437500Y-115450000D03*
X145437500Y-113550000D03*
X143562500Y-114500000D03*
%TD*%
D23*
%TO.C,R10*%
X193175000Y-88500000D03*
X194825000Y-88500000D03*
%TD*%
%TO.C,R21*%
X123675000Y-111000000D03*
X125325000Y-111000000D03*
%TD*%
D14*
%TO.C,R37*%
X141500000Y-111325000D03*
X141500000Y-109675000D03*
%TD*%
D26*
%TO.C,U3*%
X129862500Y-77050000D03*
X129862500Y-78000000D03*
X129862500Y-78950000D03*
X132137500Y-78950000D03*
X132137500Y-78000000D03*
X132137500Y-77050000D03*
%TD*%
D41*
%TO.C,D5*%
X115150000Y-136500000D03*
X110850000Y-136500000D03*
%TD*%
D44*
%TO.C,R26*%
X142000000Y-144462500D03*
X142000000Y-141537500D03*
%TD*%
D26*
%TO.C,U9*%
X186862500Y-69050000D03*
X186862500Y-70000000D03*
X186862500Y-70950000D03*
X189137500Y-70950000D03*
X189137500Y-70000000D03*
X189137500Y-69050000D03*
%TD*%
D22*
%TO.C,C22*%
X181450000Y-92000000D03*
X179550000Y-92000000D03*
%TD*%
D45*
%TO.C,FB1*%
X150000000Y-101712500D03*
X150000000Y-103287500D03*
%TD*%
D15*
%TO.C,C34*%
X141000000Y-113225000D03*
X141000000Y-114775000D03*
%TD*%
D46*
%TO.C,U1*%
X152325000Y-97250000D03*
X152325000Y-97750000D03*
X152325000Y-98250000D03*
X152325000Y-98750000D03*
X152325000Y-99250000D03*
X152325000Y-99750000D03*
X152325000Y-100250000D03*
X152325000Y-100750000D03*
X152325000Y-101250000D03*
X152325000Y-101750000D03*
X152325000Y-102250000D03*
X152325000Y-102750000D03*
X152325000Y-103250000D03*
X152325000Y-103750000D03*
X152325000Y-104250000D03*
X152325000Y-104750000D03*
D47*
X154250000Y-106675000D03*
X154750000Y-106675000D03*
X155250000Y-106675000D03*
X155750000Y-106675000D03*
X156250000Y-106675000D03*
X156750000Y-106675000D03*
X157250000Y-106675000D03*
X157750000Y-106675000D03*
X158250000Y-106675000D03*
X158750000Y-106675000D03*
X159250000Y-106675000D03*
X159750000Y-106675000D03*
X160250000Y-106675000D03*
X160750000Y-106675000D03*
X161250000Y-106675000D03*
X161750000Y-106675000D03*
D46*
X163675000Y-104750000D03*
X163675000Y-104250000D03*
X163675000Y-103750000D03*
X163675000Y-103250000D03*
X163675000Y-102750000D03*
X163675000Y-102250000D03*
X163675000Y-101750000D03*
X163675000Y-101250000D03*
X163675000Y-100750000D03*
X163675000Y-100250000D03*
X163675000Y-99750000D03*
X163675000Y-99250000D03*
X163675000Y-98750000D03*
X163675000Y-98250000D03*
X163675000Y-97750000D03*
X163675000Y-97250000D03*
D47*
X161750000Y-95325000D03*
X161250000Y-95325000D03*
X160750000Y-95325000D03*
X160250000Y-95325000D03*
X159750000Y-95325000D03*
X159250000Y-95325000D03*
X158750000Y-95325000D03*
X158250000Y-95325000D03*
X157750000Y-95325000D03*
X157250000Y-95325000D03*
X156750000Y-95325000D03*
X156250000Y-95325000D03*
X155750000Y-95325000D03*
X155250000Y-95325000D03*
X154750000Y-95325000D03*
X154250000Y-95325000D03*
%TD*%
D14*
%TO.C,R31*%
X120000000Y-103325000D03*
X120000000Y-101675000D03*
%TD*%
D48*
%TO.C,D13*%
X157950000Y-88062500D03*
X156050000Y-88062500D03*
X157000000Y-89937500D03*
%TD*%
D12*
%TO.C,C10*%
X155275000Y-109500000D03*
X153725000Y-109500000D03*
%TD*%
D15*
%TO.C,C30*%
X154000000Y-111725000D03*
X154000000Y-113275000D03*
%TD*%
D49*
%TO.C,U7*%
X170525000Y-92095000D03*
X170525000Y-93365000D03*
X170525000Y-94635000D03*
X170525000Y-95905000D03*
X175475000Y-95905000D03*
X175475000Y-94635000D03*
X175475000Y-93365000D03*
X175475000Y-92095000D03*
%TD*%
D12*
%TO.C,C8*%
X149275000Y-106000000D03*
X147725000Y-106000000D03*
%TD*%
D14*
%TO.C,R36*%
X166000000Y-109325000D03*
X166000000Y-107675000D03*
%TD*%
D11*
%TO.C,R22*%
X122500000Y-113175000D03*
X122500000Y-114825000D03*
%TD*%
D18*
%TO.C,D4*%
X156562500Y-113000000D03*
X158437500Y-113000000D03*
%TD*%
D13*
%TO.C,C17*%
X150000000Y-99775000D03*
X150000000Y-98225000D03*
%TD*%
D24*
%TO.C,R17*%
X135587500Y-138000000D03*
X137412500Y-138000000D03*
%TD*%
D16*
%TO.C,R11*%
X127325000Y-125000000D03*
X125675000Y-125000000D03*
%TD*%
D23*
%TO.C,R34*%
X176675000Y-139000000D03*
X178325000Y-139000000D03*
%TD*%
D13*
%TO.C,C13*%
X166000000Y-96275000D03*
X166000000Y-94725000D03*
%TD*%
D24*
%TO.C,R18*%
X137087500Y-135500000D03*
X138912500Y-135500000D03*
%TD*%
D50*
%TO.C,J8*%
X192920000Y-85200000D03*
X192920000Y-84400000D03*
D51*
X192920000Y-83250000D03*
X192920000Y-82250000D03*
X192920000Y-81750000D03*
X192920000Y-80750000D03*
D50*
X192920000Y-79600000D03*
X192920000Y-78800000D03*
X192920000Y-78800000D03*
X192920000Y-79600000D03*
D51*
X192920000Y-80250000D03*
X192920000Y-81250000D03*
X192920000Y-82750000D03*
X192920000Y-83750000D03*
D50*
X192920000Y-84400000D03*
X192920000Y-85200000D03*
D52*
X193495000Y-86320000D03*
D53*
X197675000Y-86320000D03*
D52*
X193495000Y-77680000D03*
D53*
X197675000Y-77680000D03*
%TD*%
D54*
%TO.C,C5*%
X142500000Y-78450000D03*
X142500000Y-76550000D03*
%TD*%
D12*
%TO.C,C33*%
X182275000Y-142500000D03*
X180725000Y-142500000D03*
%TD*%
D23*
%TO.C,R1*%
X126675000Y-81000000D03*
X128325000Y-81000000D03*
%TD*%
D11*
%TO.C,R29*%
X166000000Y-99675000D03*
X166000000Y-101325000D03*
%TD*%
D13*
%TO.C,C28*%
X129500000Y-125775000D03*
X129500000Y-124225000D03*
%TD*%
D15*
%TO.C,C31*%
X166500000Y-103225000D03*
X166500000Y-104775000D03*
%TD*%
D10*
%TO.C,C6*%
X143000000Y-80550000D03*
X143000000Y-82450000D03*
%TD*%
D14*
%TO.C,R23*%
X106500000Y-111825000D03*
X106500000Y-110175000D03*
%TD*%
D12*
%TO.C,C24*%
X170275000Y-90000000D03*
X168725000Y-90000000D03*
%TD*%
%TO.C,C27*%
X125775000Y-131000000D03*
X124225000Y-131000000D03*
%TD*%
D14*
%TO.C,R20*%
X151500000Y-110825000D03*
X151500000Y-109175000D03*
%TD*%
%TO.C,R8*%
X190500000Y-83325000D03*
X190500000Y-81675000D03*
%TD*%
D13*
%TO.C,C14*%
X150000000Y-96275000D03*
X150000000Y-94725000D03*
%TD*%
D11*
%TO.C,R7*%
X158000000Y-109175000D03*
X158000000Y-110825000D03*
%TD*%
D21*
%TO.C,D8*%
X144062500Y-109550000D03*
X144062500Y-111450000D03*
X145937500Y-110500000D03*
%TD*%
D14*
%TO.C,R30*%
X118000000Y-104825000D03*
X118000000Y-103175000D03*
%TD*%
%TO.C,R13*%
X128500000Y-132825000D03*
X128500000Y-131175000D03*
%TD*%
D15*
%TO.C,C21*%
X186500000Y-95725000D03*
X186500000Y-97275000D03*
%TD*%
M02*
