%TF.GenerationSoftware,KiCad,Pcbnew,10.0.6*%
%TF.CreationDate,2026-10-01T15:39:59+00:00*%
%TF.ProjectId,OSBAMS_Rev2_RC1,4f534241-4d53-45f5-9265-76325f524331,rev?*%
%TF.SameCoordinates,Original*%
%TF.FileFunction,Copper,L4,Bot*%
%TF.FilePolarity,Positive*%
%FSLAX46Y46*%
G04 Gerber Fmt 4.6, Leading zero omitted, Abs format (unit mm)*
G04 Created by KiCad (PCBNEW 10.0.6) date 2026-10-01 15:39:59*
%MOMM*%
%LPD*%
G01*
G04 APERTURE LIST*
G04 Aperture macros list*
%AMRoundRect*
0 Rectangle with rounded corners*
0 $1 Rounding radius*
0 $2 $3 $4 $5 $6 $7 $8 $9 X,Y pos of 4 corners*
0 Add a 4 corners polygon primitive as box body*
4,1,4,$2,$3,$4,$5,$6,$7,$8,$9,$2,$3,0*
0 Add four circle primitives for the rounded corners*
1,1,$1+$1,$2,$3*
1,1,$1+$1,$4,$5*
1,1,$1+$1,$6,$7*
1,1,$1+$1,$8,$9*
0 Add four rect primitives between the rounded corners*
20,1,$1+$1,$2,$3,$4,$5,0*
20,1,$1+$1,$4,$5,$6,$7,0*
20,1,$1+$1,$6,$7,$8,$9,0*
20,1,$1+$1,$8,$9,$2,$3,0*%
G04 Aperture macros list end*
%TA.AperFunction,ComponentPad*%
%ADD10RoundRect,0.250000X0.550000X-0.550000X0.550000X0.550000X-0.550000X0.550000X-0.550000X-0.550000X0*%
%TD*%
%TA.AperFunction,ComponentPad*%
%ADD11C,1.600000*%
%TD*%
%TA.AperFunction,ComponentPad*%
%ADD12R,2.600000X2.600000*%
%TD*%
%TA.AperFunction,ComponentPad*%
%ADD13C,2.600000*%
%TD*%
%TA.AperFunction,ComponentPad*%
%ADD14RoundRect,0.250000X-0.620000X-0.845000X0.620000X-0.845000X0.620000X0.845000X-0.620000X0.845000X0*%
%TD*%
%TA.AperFunction,ComponentPad*%
%ADD15O,1.740000X2.190000*%
%TD*%
%TA.AperFunction,ComponentPad*%
%ADD16RoundRect,0.250000X-0.350000X-0.625000X0.350000X-0.625000X0.350000X0.625000X-0.350000X0.625000X0*%
%TD*%
%TA.AperFunction,ComponentPad*%
%ADD17O,1.200000X1.750000*%
%TD*%
%TA.AperFunction,ComponentPad*%
%ADD18RoundRect,0.250000X-0.550000X-0.550000X0.550000X-0.550000X0.550000X0.550000X-0.550000X0.550000X0*%
%TD*%
%TA.AperFunction,ComponentPad*%
%ADD19R,1.700000X1.700000*%
%TD*%
%TA.AperFunction,ComponentPad*%
%ADD20C,1.700000*%
%TD*%
%TA.AperFunction,ComponentPad*%
%ADD21O,2.100000X1.000000*%
%TD*%
%TA.AperFunction,ComponentPad*%
%ADD22O,1.800000X1.000000*%
%TD*%
%TA.AperFunction,ViaPad*%
%ADD23C,0.600000*%
%TD*%
%TA.AperFunction,ViaPad*%
%ADD24C,0.500000*%
%TD*%
%TA.AperFunction,Conductor*%
%ADD25C,0.300000*%
%TD*%
%TA.AperFunction,Conductor*%
%ADD26C,0.200000*%
%TD*%
G04 APERTURE END LIST*
D10*
%TO.P,D11,1*%
%TO.N,ES_LED_A*%
X122500000Y-85000000D03*
D11*
%TO.P,D11,2*%
%TO.N,GND*%
X122500000Y-77380000D03*
%TD*%
D12*
%TO.P,J3,1*%
%TO.N,ESTOP_OUT*%
X112500000Y-99000000D03*
D13*
%TO.P,J3,2*%
%TO.N,COIL_V*%
X112500000Y-104000000D03*
%TD*%
D14*
%TO.P,J6,1*%
%TO.N,PACK_INA*%
X131000000Y-143000000D03*
D15*
%TO.P,J6,2*%
%TO.N,PACK_ADC*%
X133540000Y-143000000D03*
%TO.P,J6,3*%
%TO.N,RELAY_OUT*%
X136080000Y-143000000D03*
%TO.P,J6,4*%
%TO.N,GND*%
X138620000Y-143000000D03*
%TD*%
D16*
%TO.P,J7,1*%
%TO.N,+3V3*%
X182000000Y-146000000D03*
D17*
%TO.P,J7,2*%
%TO.N,SDA2_J*%
X184000000Y-146000000D03*
%TO.P,J7,3*%
%TO.N,SCL2_J*%
X186000000Y-146000000D03*
%TO.P,J7,4*%
%TO.N,GND*%
X188000000Y-146000000D03*
%TD*%
D12*
%TO.P,J4,1*%
%TO.N,COIL_V*%
X112500000Y-111000000D03*
D13*
%TO.P,J4,2*%
%TO.N,COIL_SW*%
X112500000Y-116000000D03*
%TD*%
D18*
%TO.P,U4,1*%
%TO.N,ES_LED_A*%
X122000000Y-88000000D03*
D11*
%TO.P,U4,2*%
%TO.N,GND*%
X122000000Y-90540000D03*
%TO.P,U4,3*%
X129620000Y-90540000D03*
%TO.P,U4,4*%
%TO.N,ESTOP_SENSE*%
X129620000Y-88000000D03*
%TD*%
D19*
%TO.P,JP1,1*%
%TO.N,+3V3*%
X150000000Y-130000000D03*
D20*
%TO.P,JP1,2*%
%TO.N,BOOT0*%
X150000000Y-132540000D03*
%TD*%
D12*
%TO.P,J2,1*%
%TO.N,+12V*%
X112500000Y-87000000D03*
D13*
%TO.P,J2,2*%
%TO.N,ESTOP_OUT*%
X112500000Y-92000000D03*
%TD*%
D12*
%TO.P,J1,1*%
%TO.N,12V_RAW*%
X112500000Y-72000000D03*
D13*
%TO.P,J1,2*%
%TO.N,GND*%
X112500000Y-77000000D03*
%TD*%
D14*
%TO.P,J5,1*%
%TO.N,SHUNT_INP_RAW*%
X114000000Y-143000000D03*
D15*
%TO.P,J5,2*%
%TO.N,SHUNT_INN_RAW*%
X116540000Y-143000000D03*
%TO.P,J5,3*%
%TO.N,GND*%
X119080000Y-143000000D03*
%TD*%
D18*
%TO.P,U5,1*%
%TO.N,FB_LED_A*%
X142000000Y-136000000D03*
D11*
%TO.P,U5,2*%
%TO.N,GND*%
X142000000Y-138540000D03*
%TO.P,U5,3*%
X149620000Y-138540000D03*
%TO.P,U5,4*%
%TO.N,RELAY_FB*%
X149620000Y-136000000D03*
%TD*%
D21*
%TO.P,J8,SH*%
%TO.N,USB_SHIELD*%
X193495000Y-86320000D03*
D22*
X197675000Y-86320000D03*
D21*
X193495000Y-77680000D03*
D22*
X197675000Y-77680000D03*
%TD*%
D10*
%TO.P,D12,1*%
%TO.N,FB_LED_A*%
X144000000Y-133000000D03*
D11*
%TO.P,D12,2*%
%TO.N,GND*%
X144000000Y-125380000D03*
%TD*%
D23*
%TO.N,GND*%
X110000000Y-140000000D03*
X122250000Y-73500000D03*
X104750000Y-101500000D03*
X120500000Y-77000000D03*
X132750000Y-108500000D03*
X115250000Y-115500000D03*
X166000000Y-119000000D03*
X111750000Y-66500000D03*
X117000000Y-133000000D03*
X106500000Y-84000000D03*
X125750000Y-87500000D03*
X106500000Y-91000000D03*
X111750000Y-80500000D03*
X148500000Y-70000000D03*
X154750000Y-93625000D03*
X129250000Y-143500000D03*
X106500000Y-140000000D03*
X141500000Y-91000000D03*
X141500000Y-70000000D03*
X171250000Y-122500000D03*
X110000000Y-84000000D03*
X157250000Y-66500000D03*
X138000000Y-63000000D03*
X153750000Y-143500000D03*
X160750000Y-66500000D03*
X185250000Y-136500000D03*
X122250000Y-136500000D03*
X187000000Y-147000000D03*
X169500000Y-77000000D03*
X108250000Y-94500000D03*
X124000000Y-84000000D03*
X166900000Y-94725000D03*
X106500000Y-70000000D03*
X192250000Y-108500000D03*
X194000000Y-140000000D03*
X152000000Y-147000000D03*
X134500000Y-63000000D03*
X167750000Y-136500000D03*
X169500000Y-63000000D03*
X120500000Y-91000000D03*
X138000000Y-70000000D03*
X110000000Y-112000000D03*
X173000000Y-147000000D03*
X108250000Y-87500000D03*
X160750000Y-80500000D03*
X178250000Y-115500000D03*
X113500000Y-119000000D03*
X120500000Y-105000000D03*
X157250000Y-73500000D03*
X155500000Y-140000000D03*
X145000000Y-140000000D03*
X159000000Y-133000000D03*
X127500000Y-105000000D03*
X164250000Y-143500000D03*
X118750000Y-94500000D03*
X187000000Y-133000000D03*
X152000000Y-84000000D03*
X185250000Y-129500000D03*
X197500000Y-126000000D03*
X155500000Y-126000000D03*
X124000000Y-70000000D03*
X103000000Y-119000000D03*
X138000000Y-98000000D03*
X134500000Y-70000000D03*
X158850000Y-88062500D03*
X139750000Y-66500000D03*
X154750000Y-108375000D03*
X180000000Y-119000000D03*
X108250000Y-101500000D03*
X131000000Y-63000000D03*
X166000000Y-77000000D03*
X153750000Y-122500000D03*
X138000000Y-126000000D03*
X136250000Y-129500000D03*
X103000000Y-91000000D03*
X155500000Y-70000000D03*
X164250000Y-129500000D03*
X108250000Y-143500000D03*
X146750000Y-73500000D03*
X122250000Y-108500000D03*
X113500000Y-84000000D03*
X169500000Y-133000000D03*
X164250000Y-122500000D03*
X152000000Y-140000000D03*
X132750000Y-94500000D03*
X124000000Y-105000000D03*
X162500000Y-147000000D03*
X197500000Y-140000000D03*
X167750000Y-101500000D03*
X169500000Y-140000000D03*
X145000000Y-98000000D03*
X141500000Y-77000000D03*
X131000000Y-133000000D03*
X110000000Y-147000000D03*
X167750000Y-66500000D03*
X152000000Y-77000000D03*
X110000000Y-119000000D03*
X134500000Y-112000000D03*
X117000000Y-98000000D03*
X108250000Y-108500000D03*
X171250000Y-108500000D03*
X188750000Y-136500000D03*
X134500000Y-147000000D03*
X174750000Y-122500000D03*
X187000000Y-112000000D03*
X141500000Y-126000000D03*
X138000000Y-147000000D03*
X129250000Y-80500000D03*
X194000000Y-126000000D03*
X167750000Y-129500000D03*
X181750000Y-115500000D03*
X155500000Y-133000000D03*
X155500000Y-77000000D03*
X146750000Y-136500000D03*
X188750000Y-143500000D03*
X124000000Y-140000000D03*
X117000000Y-119000000D03*
X176500000Y-112000000D03*
X195750000Y-108500000D03*
X120500000Y-70000000D03*
X185250000Y-115500000D03*
X117000000Y-77000000D03*
X104750000Y-143500000D03*
X159000000Y-126000000D03*
X155500000Y-119000000D03*
X103000000Y-133000000D03*
X117000000Y-63000000D03*
X118750000Y-122500000D03*
X145000000Y-119000000D03*
X167750000Y-143500000D03*
X166000000Y-105000000D03*
X129250000Y-94500000D03*
X150250000Y-94500000D03*
X115250000Y-108500000D03*
X171250000Y-143500000D03*
X139750000Y-129500000D03*
X183500000Y-112000000D03*
X185250000Y-143500000D03*
X113500000Y-147000000D03*
X110000000Y-98000000D03*
X162500000Y-126000000D03*
X104750000Y-115500000D03*
X125750000Y-94500000D03*
X145000000Y-70000000D03*
X134500000Y-126000000D03*
X166000000Y-126000000D03*
X131000000Y-112000000D03*
X176500000Y-119000000D03*
X120500000Y-147000000D03*
X115250000Y-80500000D03*
X111750000Y-136500000D03*
X103000000Y-126000000D03*
X174750000Y-115500000D03*
X104750000Y-136500000D03*
X127500000Y-91000000D03*
X167750000Y-73500000D03*
X136250000Y-87500000D03*
X155500000Y-63000000D03*
X124000000Y-91000000D03*
X134500000Y-91000000D03*
X159350000Y-92500000D03*
X183500000Y-126000000D03*
X141500000Y-140000000D03*
X110000000Y-126000000D03*
X166000000Y-140000000D03*
X106500000Y-119000000D03*
X103000000Y-105000000D03*
X118750000Y-80500000D03*
X106500000Y-147000000D03*
X195750000Y-115500000D03*
X190500000Y-126000000D03*
X117000000Y-126000000D03*
X150250000Y-66500000D03*
X104750000Y-87500000D03*
X187000000Y-140000000D03*
X157250000Y-143500000D03*
X167750000Y-122500000D03*
X155500000Y-147000000D03*
X162500000Y-133000000D03*
X136250000Y-94500000D03*
X103000000Y-98000000D03*
X180957937Y-143369333D03*
X124000000Y-98000000D03*
X185250000Y-108500000D03*
X108250000Y-115500000D03*
X141500000Y-63000000D03*
X190500000Y-112000000D03*
X152000000Y-70000000D03*
X188750000Y-129500000D03*
X127500000Y-140000000D03*
X136250000Y-73500000D03*
X103000000Y-70000000D03*
X143250000Y-87500000D03*
X171250000Y-136500000D03*
X111750000Y-143500000D03*
X124000000Y-147000000D03*
X106500000Y-133000000D03*
X131000000Y-84000000D03*
X174750000Y-108500000D03*
X195750000Y-136500000D03*
X117000000Y-91000000D03*
X148500000Y-91000000D03*
X138000000Y-91000000D03*
X161400000Y-91175000D03*
X190500000Y-140000000D03*
X131000000Y-70000000D03*
X122250000Y-143500000D03*
X108250000Y-136500000D03*
X190500000Y-133000000D03*
X169500000Y-98000000D03*
X176500000Y-147000000D03*
X148500000Y-140000000D03*
X166000000Y-63000000D03*
X148500000Y-77000000D03*
X160750000Y-73500000D03*
X148500000Y-147000000D03*
X162500000Y-63000000D03*
X194000000Y-133000000D03*
X125750000Y-73500000D03*
X124000000Y-63000000D03*
X148500000Y-119000000D03*
X169500000Y-105000000D03*
X108250000Y-73500000D03*
X160750000Y-143500000D03*
X181750000Y-122500000D03*
X120500000Y-119000000D03*
X120500000Y-98000000D03*
X192250000Y-129500000D03*
X197500000Y-119000000D03*
X194000000Y-147000000D03*
X197500000Y-112000000D03*
X145000000Y-63000000D03*
X118750000Y-115500000D03*
X138000000Y-140000000D03*
X195750000Y-143500000D03*
X152000000Y-133000000D03*
X113500000Y-70000000D03*
X104750000Y-66500000D03*
X169500000Y-84000000D03*
X194000000Y-112000000D03*
X145000000Y-147000000D03*
X127500000Y-119000000D03*
X169500000Y-91000000D03*
X167750000Y-108500000D03*
X120500000Y-126000000D03*
X192250000Y-136500000D03*
X139750000Y-108500000D03*
X181750000Y-108500000D03*
X173000000Y-119000000D03*
X113500000Y-63000000D03*
X173000000Y-112000000D03*
X103000000Y-112000000D03*
X143250000Y-129500000D03*
X132750000Y-73500000D03*
X185250000Y-122500000D03*
X187000000Y-126000000D03*
X113500000Y-126000000D03*
X181750000Y-129500000D03*
X169500000Y-147000000D03*
X127500000Y-98000000D03*
X176500000Y-133000000D03*
X162500000Y-77000000D03*
X146855666Y-106232937D03*
X127500000Y-63000000D03*
X103000000Y-84000000D03*
X180000000Y-112000000D03*
X153750000Y-136500000D03*
X108250000Y-129500000D03*
X159000000Y-84000000D03*
X159000000Y-140000000D03*
X150250000Y-108500000D03*
X104750000Y-122500000D03*
X127500000Y-70000000D03*
X164250000Y-66500000D03*
X143250000Y-101500000D03*
X146750000Y-66500000D03*
X139750000Y-122500000D03*
X117000000Y-112000000D03*
X118750000Y-73500000D03*
X115250000Y-94500000D03*
X150250000Y-73500000D03*
X159000000Y-77000000D03*
X122250000Y-94500000D03*
X125750000Y-115500000D03*
X106500000Y-126000000D03*
X141500000Y-147000000D03*
X143250000Y-66500000D03*
X118750000Y-101500000D03*
X183500000Y-133000000D03*
X166000000Y-112000000D03*
X111750000Y-122500000D03*
X178250000Y-108500000D03*
X174750000Y-143500000D03*
X146750000Y-129500000D03*
X190500000Y-147000000D03*
X104750000Y-94500000D03*
X153750000Y-73500000D03*
X118750000Y-136500000D03*
X125750000Y-80500000D03*
X122250000Y-80500000D03*
X104750000Y-73500000D03*
X188750000Y-122500000D03*
X115250000Y-87500000D03*
X162500000Y-70000000D03*
X131000000Y-119000000D03*
X115250000Y-122500000D03*
X197500000Y-133000000D03*
X194000000Y-119000000D03*
X145000000Y-91000000D03*
X192250000Y-115500000D03*
X131000000Y-91000000D03*
X134500000Y-98000000D03*
X165375000Y-97750000D03*
X166000000Y-70000000D03*
X188750000Y-115500000D03*
X104750000Y-129500000D03*
X115250000Y-101500000D03*
X129250000Y-136500000D03*
X166000000Y-133000000D03*
X195750000Y-129500000D03*
X159000000Y-70000000D03*
X138000000Y-112000000D03*
X164250000Y-73500000D03*
X145000000Y-84000000D03*
X111750000Y-108500000D03*
X136250000Y-108500000D03*
X145000000Y-77000000D03*
X160750000Y-101500000D03*
X141500000Y-133000000D03*
X113500000Y-133000000D03*
X131000000Y-105000000D03*
X173000000Y-133000000D03*
X125750000Y-143500000D03*
X164250000Y-87500000D03*
X187000000Y-119000000D03*
X157250000Y-80500000D03*
X153750000Y-66500000D03*
X195750000Y-122500000D03*
X139750000Y-87500000D03*
X120500000Y-63000000D03*
X181750000Y-136500000D03*
X159000000Y-105000000D03*
X106500000Y-63000000D03*
X183500000Y-119000000D03*
X108250000Y-80500000D03*
X117000000Y-147000000D03*
X131000000Y-98000000D03*
X110000000Y-70000000D03*
X131000000Y-147000000D03*
X115250000Y-66500000D03*
X169500000Y-70000000D03*
X192250000Y-143500000D03*
X134500000Y-133000000D03*
X111750000Y-94500000D03*
X125750000Y-122500000D03*
X180000000Y-126000000D03*
X103000000Y-140000000D03*
X164250000Y-136500000D03*
X146750000Y-80500000D03*
X167750000Y-80500000D03*
X155500000Y-84000000D03*
X110000000Y-133000000D03*
X159000000Y-147000000D03*
X173000000Y-140000000D03*
X106500000Y-98000000D03*
X125750000Y-136500000D03*
X192250000Y-122500000D03*
X120500000Y-84000000D03*
X111750000Y-101500000D03*
D24*
X151000000Y-102700000D03*
D23*
X153750000Y-80500000D03*
X115250000Y-129500000D03*
X104750000Y-80500000D03*
X164250000Y-80500000D03*
X153725000Y-110400000D03*
X108250000Y-122500000D03*
X108250000Y-66500000D03*
X173000000Y-126000000D03*
X161250000Y-108375000D03*
X180000000Y-147000000D03*
X188750000Y-108500000D03*
X148500000Y-63000000D03*
X110000000Y-91000000D03*
X106500000Y-77000000D03*
X129250000Y-108500000D03*
X115250000Y-73500000D03*
X150250000Y-80500000D03*
X143250000Y-94500000D03*
X159000000Y-63000000D03*
X174750000Y-129500000D03*
X169500000Y-126000000D03*
X143250000Y-73500000D03*
X148500000Y-84000000D03*
X110000000Y-77000000D03*
X139750000Y-73500000D03*
X190500000Y-119000000D03*
X171250000Y-129500000D03*
X166000000Y-147000000D03*
X183500000Y-140000000D03*
X127500000Y-147000000D03*
X111750000Y-129500000D03*
X152000000Y-63000000D03*
X167750000Y-87500000D03*
X103000000Y-77000000D03*
%TO.N,+3V3*%
X162331900Y-97692100D03*
X184248600Y-142687100D03*
X159824200Y-137725000D03*
X147526800Y-115872100D03*
X160730800Y-96868500D03*
X151474300Y-116250000D03*
%TO.N,INA_ALERT*%
X124089400Y-128000000D03*
X155854900Y-104745800D03*
%TO.N,SHUNT_INP_RAW*%
X127325000Y-125945400D03*
%TO.N,SDA1*%
X120964900Y-130253100D03*
X155452300Y-94084400D03*
X140366300Y-117500000D03*
%TO.N,LOAD_EN*%
X139375000Y-103492000D03*
X165428700Y-102298500D03*
%TO.N,3V3_A*%
X124535900Y-129227700D03*
X133579100Y-105174800D03*
%TO.N,ESTOP_SENSE*%
X154742800Y-102131100D03*
X145273100Y-99124800D03*
%TO.N,UART_TX_MCU*%
X156248100Y-98118800D03*
X153255500Y-105757200D03*
%TO.N,SWDIO*%
X163828400Y-118836400D03*
X165138600Y-98507600D03*
%TO.N,SWCLK*%
X162359500Y-95325000D03*
X160498300Y-122457800D03*
%TO.N,SWO*%
X157871200Y-96911200D03*
X159995900Y-139869100D03*
%TO.N,NRST*%
X146641300Y-98832400D03*
X152539100Y-119548100D03*
X156071400Y-100250000D03*
%TO.N,GND_HOST*%
X180000000Y-84000000D03*
X187000000Y-70000000D03*
X187000000Y-84000000D03*
X190500000Y-91000000D03*
X195750000Y-87500000D03*
X192140577Y-85650000D03*
X180000000Y-105000000D03*
X185250000Y-66500000D03*
X192250000Y-66500000D03*
X176500000Y-105000000D03*
X178250000Y-73500000D03*
X190500000Y-77000000D03*
X185250000Y-101500000D03*
X192250000Y-87500000D03*
X176500000Y-91000000D03*
X181750000Y-101500000D03*
X183675000Y-96600000D03*
X181750000Y-66500000D03*
X188750000Y-101500000D03*
X176500000Y-70000000D03*
X180000000Y-98000000D03*
X180000000Y-70000000D03*
X194000000Y-70000000D03*
X179545481Y-94189110D03*
X185250000Y-80500000D03*
X192250000Y-73500000D03*
X176500000Y-77000000D03*
X187000000Y-105000000D03*
X178250000Y-66500000D03*
X190500000Y-98000000D03*
X195750000Y-101500000D03*
X183500000Y-84000000D03*
X185250000Y-87500000D03*
X176500000Y-98000000D03*
X188750000Y-66500000D03*
X194000000Y-105000000D03*
X192250000Y-94500000D03*
X183500000Y-105000000D03*
X194000000Y-98000000D03*
X178250000Y-80500000D03*
X190500000Y-70000000D03*
X183500000Y-70000000D03*
X185250000Y-73500000D03*
X192250000Y-101500000D03*
X181869000Y-92700000D03*
X178250000Y-87500000D03*
X190500000Y-105000000D03*
X181750000Y-73500000D03*
X176500000Y-84000000D03*
X178250000Y-101500000D03*
X195750000Y-94500000D03*
X195750000Y-66500000D03*
X194000000Y-91000000D03*
X180000000Y-77000000D03*
X188750000Y-94500000D03*
%TO.N,ARM_DIV*%
X140164400Y-101357300D03*
X155483700Y-91123900D03*
%TO.N,SCL2*%
X171355900Y-116208400D03*
X178259400Y-138046200D03*
%TO.N,VBUS_USB*%
X191839500Y-79600000D03*
X191802300Y-84400000D03*
%TO.N,BOOT0*%
X156321300Y-94077800D03*
%TO.N,SCL1*%
X154948100Y-96575200D03*
X133221200Y-118503800D03*
%TO.N,RELAY_FB*%
X162105000Y-115395000D03*
X162262100Y-101250000D03*
%TO.N,USB_DM*%
X188675300Y-71708600D03*
X182144200Y-91972000D03*
%TO.N,USB_DP*%
X183142200Y-90607000D03*
X189137500Y-68282900D03*
%TD*%
%TO.N,+3V3*%
D25*
X182000000Y-146000000D02*
X168099200Y-146000000D01*
X147904700Y-116250000D02*
X147526800Y-115872100D01*
X160730800Y-96868500D02*
X161554400Y-97692100D01*
X161554400Y-97692100D02*
X162331900Y-97692100D01*
X151474300Y-116250000D02*
X147904700Y-116250000D01*
X168099200Y-146000000D02*
X159824200Y-137725000D01*
%TO.N,SDA1*%
D26*
X127613200Y-130253100D02*
X120964900Y-130253100D01*
X140366300Y-117500000D02*
X127613200Y-130253100D01*
%TO.N,LOAD_EN*%
X164235200Y-103492000D02*
X165428700Y-102298500D01*
X139375000Y-103492000D02*
X164235200Y-103492000D01*
%TO.N,ESTOP_SENSE*%
X154742800Y-102131100D02*
X148279400Y-102131100D01*
X148279400Y-102131100D02*
X145273100Y-99124800D01*
%TO.N,NRST*%
X156071400Y-100250000D02*
X148058900Y-100250000D01*
X148058900Y-100250000D02*
X146641300Y-98832400D01*
%TD*%
%TA.AperFunction,Conductor*%
%TO.N,GND*%
G36*
X171415908Y-60504843D02*
G01*
X171428595Y-60508966D01*
X171478095Y-60544927D01*
X171478096Y-60544928D01*
X171481091Y-60549050D01*
X171500000Y-60607240D01*
X171500000Y-107500000D01*
X174197069Y-107500000D01*
X174255260Y-107518907D01*
X174286975Y-107557552D01*
X174298140Y-107581772D01*
X174298141Y-107581773D01*
X174334101Y-107631269D01*
X174334104Y-107631272D01*
X174334105Y-107631273D01*
X174374876Y-107675378D01*
X174461857Y-107724088D01*
X174520048Y-107742995D01*
X174520049Y-107742995D01*
X174520052Y-107742996D01*
X174598997Y-107755500D01*
X197401000Y-107755500D01*
X197459191Y-107774407D01*
X197495155Y-107823907D01*
X197500000Y-107854500D01*
X197500000Y-144713162D01*
X197495154Y-144743756D01*
X197491774Y-144754158D01*
X197455809Y-144803658D01*
X197397618Y-144822564D01*
X197345892Y-144807975D01*
X197340990Y-144804971D01*
X197322715Y-144790564D01*
X197183090Y-144650940D01*
X196996889Y-144508063D01*
X196996886Y-144508061D01*
X196793612Y-144390701D01*
X196793608Y-144390699D01*
X196793604Y-144390697D01*
X196617878Y-144317910D01*
X196580012Y-144302225D01*
X196577326Y-144300999D01*
X196575343Y-144300500D01*
X196533950Y-144289409D01*
X196350059Y-144240136D01*
X196117356Y-144209500D01*
X195882642Y-144209500D01*
X195649939Y-144240136D01*
X195423231Y-144300881D01*
X195423172Y-144300902D01*
X195422693Y-144301104D01*
X195206391Y-144390698D01*
X195003109Y-144508063D01*
X194816917Y-144650933D01*
X194650933Y-144816917D01*
X194508063Y-145003109D01*
X194390698Y-145206391D01*
X194301104Y-145422693D01*
X194300902Y-145423172D01*
X194300881Y-145423231D01*
X194240136Y-145649939D01*
X194209500Y-145882642D01*
X194209500Y-146117356D01*
X194240136Y-146350059D01*
X194300881Y-146576767D01*
X194300901Y-146576825D01*
X194301104Y-146577305D01*
X194390705Y-146793622D01*
X194390744Y-146793700D01*
X194391110Y-146794320D01*
X194499783Y-146982549D01*
X194508061Y-146996886D01*
X194650936Y-147183085D01*
X194650938Y-147183087D01*
X194650942Y-147183092D01*
X194816908Y-147349058D01*
X194816911Y-147349060D01*
X194816917Y-147349066D01*
X194816939Y-147349085D01*
X194817313Y-147349369D01*
X195003113Y-147491938D01*
X195003117Y-147491941D01*
X195203654Y-147607720D01*
X195205041Y-147608582D01*
X195207811Y-147610120D01*
X195208266Y-147610382D01*
X195212362Y-147611773D01*
X195264877Y-147633525D01*
X195423228Y-147699117D01*
X195649941Y-147759864D01*
X195882644Y-147790500D01*
X195882645Y-147790500D01*
X196117355Y-147790500D01*
X196117356Y-147790500D01*
X196350059Y-147759864D01*
X196576772Y-147699117D01*
X196793617Y-147609296D01*
X196996883Y-147491941D01*
X197183092Y-147349058D01*
X197319911Y-147212237D01*
X197344969Y-147194032D01*
X197354717Y-147189065D01*
X197415150Y-147179499D01*
X197469664Y-147207280D01*
X197495918Y-147254156D01*
X197497262Y-147259751D01*
X197500000Y-147282874D01*
X197500000Y-149385319D01*
X197495154Y-149415912D01*
X197491032Y-149428598D01*
X197455080Y-149478089D01*
X197450959Y-149481084D01*
X197392771Y-149500000D01*
X100614680Y-149500000D01*
X100584087Y-149495154D01*
X100571401Y-149491032D01*
X100521901Y-149455068D01*
X100521894Y-149455058D01*
X100518900Y-149450936D01*
X100500000Y-149392756D01*
X100500000Y-145882642D01*
X102209500Y-145882642D01*
X102209500Y-146117356D01*
X102240136Y-146350059D01*
X102300881Y-146576767D01*
X102300901Y-146576825D01*
X102301104Y-146577305D01*
X102390705Y-146793622D01*
X102390744Y-146793700D01*
X102391110Y-146794320D01*
X102499783Y-146982549D01*
X102508061Y-146996886D01*
X102650936Y-147183085D01*
X102650938Y-147183087D01*
X102650942Y-147183092D01*
X102816908Y-147349058D01*
X102816911Y-147349060D01*
X102816917Y-147349066D01*
X102816939Y-147349085D01*
X102817313Y-147349369D01*
X103003113Y-147491938D01*
X103003117Y-147491941D01*
X103203654Y-147607720D01*
X103205041Y-147608582D01*
X103207811Y-147610120D01*
X103208266Y-147610382D01*
X103212362Y-147611773D01*
X103264877Y-147633525D01*
X103423228Y-147699117D01*
X103649941Y-147759864D01*
X103882644Y-147790500D01*
X103882645Y-147790500D01*
X104117355Y-147790500D01*
X104117356Y-147790500D01*
X104350059Y-147759864D01*
X104576772Y-147699117D01*
X104793617Y-147609296D01*
X104996883Y-147491941D01*
X105183092Y-147349058D01*
X105349058Y-147183092D01*
X105491941Y-146996883D01*
X105609296Y-146793617D01*
X105699117Y-146576772D01*
X105759864Y-146350059D01*
X105790500Y-146117356D01*
X105790500Y-145882644D01*
X105759864Y-145649941D01*
X105699117Y-145423228D01*
X105633525Y-145264877D01*
X105609298Y-145206387D01*
X105595702Y-145182838D01*
X105491941Y-145003117D01*
X105418329Y-144907184D01*
X105349369Y-144817313D01*
X105349085Y-144816939D01*
X105349066Y-144816917D01*
X105349061Y-144816912D01*
X105349058Y-144816908D01*
X105183092Y-144650942D01*
X105183087Y-144650938D01*
X105183085Y-144650936D01*
X104996886Y-144508061D01*
X104793612Y-144390701D01*
X104793608Y-144390699D01*
X104793604Y-144390697D01*
X104617878Y-144317910D01*
X104580012Y-144302225D01*
X104577326Y-144300999D01*
X104575343Y-144300500D01*
X104533950Y-144289409D01*
X104350059Y-144240136D01*
X104117356Y-144209500D01*
X103882642Y-144209500D01*
X103649939Y-144240136D01*
X103423231Y-144300881D01*
X103423172Y-144300902D01*
X103422693Y-144301104D01*
X103206391Y-144390698D01*
X103003109Y-144508063D01*
X102816917Y-144650933D01*
X102650933Y-144816917D01*
X102508063Y-145003109D01*
X102390698Y-145206391D01*
X102301104Y-145422693D01*
X102300902Y-145423172D01*
X102300881Y-145423231D01*
X102240136Y-145649939D01*
X102209500Y-145882642D01*
X100500000Y-145882642D01*
X100500000Y-142107132D01*
X112879500Y-142107132D01*
X112879500Y-143892920D01*
X112879584Y-143893648D01*
X112884281Y-143937349D01*
X112885908Y-143952480D01*
X112885909Y-143952485D01*
X112886831Y-143954957D01*
X112936200Y-144087327D01*
X113022449Y-144202541D01*
X113022522Y-144202633D01*
X113022799Y-144202879D01*
X113024588Y-144204144D01*
X113072668Y-144240136D01*
X113137668Y-144288796D01*
X113137669Y-144288796D01*
X113137670Y-144288797D01*
X113271544Y-144338728D01*
X113272985Y-144339285D01*
X113274247Y-144339466D01*
X113277767Y-144339655D01*
X113332127Y-144345500D01*
X114667872Y-144345499D01*
X114727483Y-144339091D01*
X114727489Y-144339089D01*
X114752252Y-144329852D01*
X114829927Y-144300882D01*
X114860690Y-144289408D01*
X114864021Y-144288233D01*
X114867582Y-144287047D01*
X114875167Y-144279186D01*
X114977546Y-144202546D01*
X115063796Y-144087331D01*
X115066654Y-144079670D01*
X115112251Y-143957415D01*
X115113454Y-143954651D01*
X115114087Y-143952492D01*
X115114089Y-143952488D01*
X115114090Y-143952485D01*
X115114091Y-143952483D01*
X115120500Y-143892873D01*
X115120499Y-142686806D01*
X115419500Y-142686806D01*
X115419500Y-143313191D01*
X115447087Y-143487376D01*
X115447461Y-143488731D01*
X115448101Y-143490500D01*
X115501588Y-143655116D01*
X115501590Y-143655119D01*
X115501591Y-143655122D01*
X115501592Y-143655123D01*
X115581662Y-143812270D01*
X115685330Y-143954957D01*
X115810043Y-144079670D01*
X115952730Y-144183338D01*
X116109877Y-144263408D01*
X116277455Y-144317857D01*
X116277614Y-144317910D01*
X116451809Y-144345500D01*
X116628188Y-144345500D01*
X116628191Y-144345500D01*
X116697498Y-144334522D01*
X116802379Y-144317911D01*
X116802379Y-144317910D01*
X116802381Y-144317910D01*
X116802384Y-144317910D01*
X116802387Y-144317909D01*
X116804963Y-144317501D01*
X116809770Y-144315509D01*
X116970123Y-144263408D01*
X117127270Y-144183338D01*
X117269957Y-144079670D01*
X117394670Y-143954957D01*
X117498338Y-143812270D01*
X117578408Y-143655123D01*
X117632910Y-143487384D01*
X117632911Y-143487376D01*
X117660500Y-143313188D01*
X117660500Y-142686807D01*
X117632912Y-142512626D01*
X117632911Y-142512620D01*
X117632910Y-142512616D01*
X117578408Y-142344877D01*
X117498338Y-142187730D01*
X117498336Y-142187726D01*
X117480132Y-142162671D01*
X117480130Y-142162669D01*
X117480129Y-142162667D01*
X117439780Y-142107132D01*
X129879500Y-142107132D01*
X129879500Y-143892920D01*
X129879584Y-143893648D01*
X129884281Y-143937349D01*
X129885908Y-143952480D01*
X129885909Y-143952485D01*
X129886831Y-143954957D01*
X129936200Y-144087327D01*
X130022449Y-144202541D01*
X130022522Y-144202633D01*
X130022799Y-144202879D01*
X130024588Y-144204144D01*
X130072668Y-144240136D01*
X130137668Y-144288796D01*
X130137669Y-144288796D01*
X130137670Y-144288797D01*
X130271544Y-144338728D01*
X130272985Y-144339285D01*
X130274247Y-144339466D01*
X130277767Y-144339655D01*
X130332127Y-144345500D01*
X131667872Y-144345499D01*
X131727483Y-144339091D01*
X131727489Y-144339089D01*
X131752252Y-144329852D01*
X131829927Y-144300882D01*
X131860690Y-144289408D01*
X131864021Y-144288233D01*
X131867582Y-144287047D01*
X131875167Y-144279186D01*
X131977546Y-144202546D01*
X132063796Y-144087331D01*
X132066654Y-144079670D01*
X132112251Y-143957415D01*
X132113454Y-143954651D01*
X132114087Y-143952492D01*
X132114089Y-143952488D01*
X132114090Y-143952485D01*
X132114091Y-143952483D01*
X132120500Y-143892873D01*
X132120499Y-142686806D01*
X132419500Y-142686806D01*
X132419500Y-143313191D01*
X132447087Y-143487376D01*
X132447461Y-143488731D01*
X132448101Y-143490500D01*
X132501588Y-143655116D01*
X132501590Y-143655119D01*
X132501591Y-143655122D01*
X132501592Y-143655123D01*
X132581662Y-143812270D01*
X132685330Y-143954957D01*
X132810043Y-144079670D01*
X132952730Y-144183338D01*
X133109877Y-144263408D01*
X133277455Y-144317857D01*
X133277614Y-144317910D01*
X133451809Y-144345500D01*
X133628188Y-144345500D01*
X133628191Y-144345500D01*
X133697498Y-144334522D01*
X133802379Y-144317911D01*
X133802379Y-144317910D01*
X133802381Y-144317910D01*
X133802384Y-144317910D01*
X133802387Y-144317909D01*
X133804963Y-144317501D01*
X133809770Y-144315509D01*
X133970123Y-144263408D01*
X134127270Y-144183338D01*
X134269957Y-144079670D01*
X134394670Y-143954957D01*
X134498338Y-143812270D01*
X134578408Y-143655123D01*
X134632910Y-143487384D01*
X134632911Y-143487376D01*
X134660500Y-143313188D01*
X134660500Y-142686807D01*
X134660500Y-142686806D01*
X134959500Y-142686806D01*
X134959500Y-143313191D01*
X134987087Y-143487376D01*
X134987461Y-143488731D01*
X134988101Y-143490500D01*
X135041588Y-143655116D01*
X135041590Y-143655119D01*
X135041591Y-143655122D01*
X135041592Y-143655123D01*
X135121662Y-143812270D01*
X135225330Y-143954957D01*
X135350043Y-144079670D01*
X135492730Y-144183338D01*
X135649877Y-144263408D01*
X135817455Y-144317857D01*
X135817614Y-144317910D01*
X135991809Y-144345500D01*
X136168188Y-144345500D01*
X136168191Y-144345500D01*
X136237498Y-144334522D01*
X136342379Y-144317911D01*
X136342379Y-144317910D01*
X136342381Y-144317910D01*
X136342384Y-144317910D01*
X136342387Y-144317909D01*
X136344963Y-144317501D01*
X136349770Y-144315509D01*
X136510123Y-144263408D01*
X136667270Y-144183338D01*
X136809957Y-144079670D01*
X136934670Y-143954957D01*
X137038338Y-143812270D01*
X137118408Y-143655123D01*
X137172910Y-143487384D01*
X137172911Y-143487376D01*
X137200500Y-143313188D01*
X137200500Y-142686807D01*
X137172912Y-142512626D01*
X137172911Y-142512620D01*
X137172910Y-142512616D01*
X137118408Y-142344877D01*
X137038338Y-142187730D01*
X136934670Y-142045043D01*
X136809957Y-141920330D01*
X136673570Y-141821239D01*
X136673296Y-141821005D01*
X136667270Y-141816662D01*
X136667269Y-141816661D01*
X136667267Y-141816660D01*
X136667266Y-141816659D01*
X136667260Y-141816655D01*
X136667004Y-141816526D01*
X136510123Y-141736592D01*
X136342374Y-141682086D01*
X136168192Y-141654500D01*
X136168188Y-141654500D01*
X136168185Y-141654500D01*
X135991815Y-141654500D01*
X135991812Y-141654500D01*
X135991808Y-141654500D01*
X135817624Y-141682086D01*
X135649875Y-141736592D01*
X135492733Y-141816658D01*
X135350045Y-141920328D01*
X135225328Y-142045045D01*
X135121658Y-142187733D01*
X135041592Y-142344875D01*
X134987086Y-142512624D01*
X134959500Y-142686806D01*
X134660500Y-142686806D01*
X134632912Y-142512626D01*
X134632911Y-142512620D01*
X134632910Y-142512616D01*
X134578408Y-142344877D01*
X134498338Y-142187730D01*
X134394670Y-142045043D01*
X134269957Y-141920330D01*
X134133570Y-141821239D01*
X134133296Y-141821005D01*
X134127270Y-141816662D01*
X134127269Y-141816661D01*
X134127267Y-141816660D01*
X134127266Y-141816659D01*
X134127260Y-141816655D01*
X134127004Y-141816526D01*
X133970123Y-141736592D01*
X133802374Y-141682086D01*
X133628192Y-141654500D01*
X133628188Y-141654500D01*
X133628185Y-141654500D01*
X133451815Y-141654500D01*
X133451812Y-141654500D01*
X133451808Y-141654500D01*
X133277624Y-141682086D01*
X133109875Y-141736592D01*
X132952733Y-141816658D01*
X132810045Y-141920328D01*
X132685328Y-142045045D01*
X132581658Y-142187733D01*
X132501592Y-142344875D01*
X132447086Y-142512624D01*
X132419500Y-142686806D01*
X132120499Y-142686806D01*
X132120499Y-142107128D01*
X132114091Y-142047517D01*
X132113168Y-142045043D01*
X132113165Y-142045034D01*
X132063798Y-141912671D01*
X132041998Y-141883551D01*
X131979156Y-141799605D01*
X131977881Y-141797802D01*
X131977633Y-141797522D01*
X131977541Y-141797449D01*
X131862330Y-141711202D01*
X131862328Y-141711201D01*
X131732428Y-141662752D01*
X131728939Y-141661234D01*
X131728025Y-141660996D01*
X131725927Y-141660540D01*
X131722206Y-141660341D01*
X131705312Y-141658524D01*
X131696249Y-141657550D01*
X131696248Y-141657549D01*
X131667876Y-141654500D01*
X131667873Y-141654500D01*
X131667870Y-141654500D01*
X130332133Y-141654500D01*
X130332129Y-141654500D01*
X130323938Y-141654500D01*
X130317975Y-141656021D01*
X130309069Y-141656978D01*
X130272520Y-141660907D01*
X130272514Y-141660908D01*
X130272514Y-141660909D01*
X130272506Y-141660912D01*
X130137671Y-141711200D01*
X130022456Y-141797451D01*
X130022454Y-141797453D01*
X130022451Y-141797456D01*
X130022450Y-141797458D01*
X130008176Y-141816526D01*
X129936200Y-141912671D01*
X129885912Y-142047504D01*
X129885909Y-142047518D01*
X129885908Y-142047522D01*
X129879501Y-142107127D01*
X129879500Y-142107132D01*
X117439780Y-142107132D01*
X117394670Y-142045043D01*
X117269957Y-141920330D01*
X117133570Y-141821239D01*
X117133296Y-141821005D01*
X117127270Y-141816662D01*
X117127269Y-141816661D01*
X117127267Y-141816660D01*
X117127266Y-141816659D01*
X117127260Y-141816655D01*
X117127004Y-141816526D01*
X116970123Y-141736592D01*
X116802374Y-141682086D01*
X116628192Y-141654500D01*
X116628188Y-141654500D01*
X116628185Y-141654500D01*
X116451815Y-141654500D01*
X116451812Y-141654500D01*
X116451808Y-141654500D01*
X116277624Y-141682086D01*
X116109875Y-141736592D01*
X115952733Y-141816658D01*
X115810045Y-141920328D01*
X115685328Y-142045045D01*
X115581658Y-142187733D01*
X115501592Y-142344875D01*
X115447086Y-142512624D01*
X115419500Y-142686806D01*
X115120499Y-142686806D01*
X115120499Y-142107128D01*
X115114091Y-142047517D01*
X115113168Y-142045043D01*
X115113165Y-142045034D01*
X115063798Y-141912671D01*
X115041998Y-141883551D01*
X114979156Y-141799605D01*
X114977881Y-141797802D01*
X114977633Y-141797522D01*
X114977541Y-141797449D01*
X114862330Y-141711202D01*
X114862328Y-141711201D01*
X114732428Y-141662752D01*
X114728939Y-141661234D01*
X114728025Y-141660996D01*
X114725927Y-141660540D01*
X114722206Y-141660341D01*
X114705312Y-141658524D01*
X114696249Y-141657550D01*
X114696248Y-141657549D01*
X114667876Y-141654500D01*
X114667873Y-141654500D01*
X114667870Y-141654500D01*
X113332133Y-141654500D01*
X113332129Y-141654500D01*
X113323938Y-141654500D01*
X113317975Y-141656021D01*
X113309069Y-141656978D01*
X113272520Y-141660907D01*
X113272514Y-141660908D01*
X113272514Y-141660909D01*
X113272506Y-141660912D01*
X113137671Y-141711200D01*
X113022456Y-141797451D01*
X113022454Y-141797453D01*
X113022451Y-141797456D01*
X113022450Y-141797458D01*
X113008176Y-141816526D01*
X112936200Y-141912671D01*
X112885912Y-142047504D01*
X112885909Y-142047518D01*
X112885908Y-142047522D01*
X112879501Y-142107127D01*
X112879500Y-142107132D01*
X100500000Y-142107132D01*
X100500000Y-139796625D01*
X159445400Y-139796625D01*
X159445400Y-139941574D01*
X159478485Y-140065049D01*
X159482918Y-140081593D01*
X159555385Y-140207108D01*
X159555387Y-140207110D01*
X159555389Y-140207112D01*
X159555391Y-140207115D01*
X159657885Y-140309609D01*
X159657887Y-140309610D01*
X159657994Y-140309717D01*
X159658245Y-140309903D01*
X159660438Y-140311084D01*
X159773007Y-140376075D01*
X159780657Y-140380492D01*
X159783070Y-140381990D01*
X159783408Y-140382080D01*
X159783411Y-140382082D01*
X159783412Y-140382082D01*
X159783415Y-140382084D01*
X159923425Y-140419600D01*
X159923426Y-140419600D01*
X160068374Y-140419600D01*
X160068375Y-140419600D01*
X160208385Y-140382084D01*
X160208386Y-140382083D01*
X160208388Y-140382082D01*
X160208389Y-140382082D01*
X160327780Y-140313151D01*
X160330668Y-140311748D01*
X160331454Y-140311231D01*
X160336463Y-140308137D01*
X160337762Y-140307386D01*
X160343120Y-140300403D01*
X160436409Y-140207115D01*
X160436413Y-140207108D01*
X160508882Y-140081589D01*
X160508882Y-140081587D01*
X160508884Y-140081585D01*
X160546400Y-139941575D01*
X160546400Y-139796625D01*
X160508884Y-139656615D01*
X160508882Y-139656612D01*
X160508882Y-139656610D01*
X160508881Y-139656608D01*
X160508790Y-139656268D01*
X160507297Y-139653864D01*
X160437885Y-139533639D01*
X160436705Y-139531447D01*
X160436517Y-139531194D01*
X160436410Y-139531087D01*
X160436409Y-139531085D01*
X160333915Y-139428591D01*
X160333912Y-139428589D01*
X160333910Y-139428587D01*
X160265674Y-139389191D01*
X160244641Y-139365831D01*
X160178797Y-139348187D01*
X160178796Y-139348187D01*
X160068375Y-139318600D01*
X160068373Y-139318600D01*
X159923423Y-139318600D01*
X159861688Y-139335141D01*
X159861687Y-139335140D01*
X159783412Y-139356115D01*
X159783406Y-139356118D01*
X159657893Y-139428583D01*
X159555383Y-139531093D01*
X159482918Y-139656605D01*
X159461942Y-139734887D01*
X159445400Y-139796625D01*
X100500000Y-139796625D01*
X100500000Y-137652525D01*
X159273700Y-137652525D01*
X159273700Y-137797474D01*
X159283410Y-137833712D01*
X159311218Y-137937493D01*
X159383685Y-138063008D01*
X159383687Y-138063010D01*
X159383689Y-138063012D01*
X159383691Y-138063015D01*
X159486185Y-138165509D01*
X159486187Y-138165510D01*
X159486294Y-138165617D01*
X159486545Y-138165803D01*
X159488746Y-138166988D01*
X159597854Y-138229982D01*
X159597855Y-138229982D01*
X159611711Y-138237982D01*
X159611712Y-138237982D01*
X159611715Y-138237984D01*
X159751725Y-138275500D01*
X159764868Y-138275500D01*
X159777651Y-138278984D01*
X159778936Y-138279826D01*
X159782210Y-138280345D01*
X159794547Y-138284353D01*
X159805436Y-138287891D01*
X159844849Y-138312042D01*
X167853287Y-146320480D01*
X167853288Y-146320480D01*
X167853396Y-146320588D01*
X167853647Y-146320775D01*
X167855842Y-146321956D01*
X167887838Y-146340429D01*
X167909432Y-146364411D01*
X167943758Y-146372993D01*
X167945359Y-146373407D01*
X168046473Y-146400500D01*
X168151927Y-146400500D01*
X181034821Y-146400500D01*
X181065409Y-146405343D01*
X181078096Y-146409466D01*
X181127596Y-146445427D01*
X181127597Y-146445428D01*
X181130592Y-146449550D01*
X181149501Y-146507740D01*
X181149501Y-146672872D01*
X181150038Y-146677863D01*
X181155908Y-146732480D01*
X181155909Y-146732485D01*
X181155912Y-146732492D01*
X181206200Y-146867327D01*
X181292449Y-146982541D01*
X181292522Y-146982633D01*
X181292799Y-146982879D01*
X181294588Y-146984144D01*
X181354112Y-147028703D01*
X181407668Y-147068796D01*
X181407669Y-147068796D01*
X181407670Y-147068797D01*
X181541544Y-147118728D01*
X181542985Y-147119285D01*
X181544247Y-147119466D01*
X181547767Y-147119655D01*
X181602127Y-147125500D01*
X182397872Y-147125499D01*
X182457483Y-147119091D01*
X182527935Y-147092814D01*
X182582255Y-147072554D01*
X182590694Y-147069407D01*
X182594023Y-147068232D01*
X182597583Y-147067046D01*
X182605167Y-147059186D01*
X182707546Y-146982546D01*
X182793796Y-146867331D01*
X182793798Y-146867327D01*
X182844089Y-146732488D01*
X182844090Y-146732485D01*
X182844091Y-146732483D01*
X182850500Y-146672873D01*
X182850499Y-145641227D01*
X183149500Y-145641227D01*
X183149500Y-146358771D01*
X183165841Y-146440924D01*
X183182183Y-146523079D01*
X183182184Y-146523082D01*
X183182186Y-146523087D01*
X183244228Y-146672871D01*
X183246296Y-146677862D01*
X183246297Y-146677863D01*
X183339374Y-146817162D01*
X183457838Y-146935626D01*
X183597137Y-147028703D01*
X183751918Y-147092816D01*
X183916233Y-147125500D01*
X183916234Y-147125500D01*
X184083766Y-147125500D01*
X184083767Y-147125500D01*
X184248082Y-147092816D01*
X184402863Y-147028703D01*
X184542162Y-146935626D01*
X184660626Y-146817162D01*
X184753703Y-146677863D01*
X184755771Y-146672872D01*
X184765544Y-146649274D01*
X184817816Y-146523082D01*
X184850500Y-146358767D01*
X184850500Y-145641233D01*
X184850499Y-145641230D01*
X184850498Y-145641227D01*
X185149500Y-145641227D01*
X185149500Y-146358771D01*
X185165841Y-146440924D01*
X185182183Y-146523079D01*
X185182184Y-146523082D01*
X185182186Y-146523087D01*
X185244228Y-146672871D01*
X185246296Y-146677862D01*
X185246297Y-146677863D01*
X185339374Y-146817162D01*
X185457838Y-146935626D01*
X185597137Y-147028703D01*
X185751918Y-147092816D01*
X185916233Y-147125500D01*
X185916234Y-147125500D01*
X186083766Y-147125500D01*
X186083767Y-147125500D01*
X186248082Y-147092816D01*
X186402863Y-147028703D01*
X186542162Y-146935626D01*
X186660626Y-146817162D01*
X186753703Y-146677863D01*
X186755771Y-146672872D01*
X186765544Y-146649274D01*
X186817816Y-146523082D01*
X186850500Y-146358767D01*
X186850500Y-145641233D01*
X186817816Y-145476918D01*
X186753703Y-145322137D01*
X186660626Y-145182838D01*
X186542162Y-145064374D01*
X186460002Y-145009476D01*
X186447496Y-144993612D01*
X186402869Y-144971299D01*
X186402862Y-144971296D01*
X186248085Y-144907185D01*
X186248079Y-144907183D01*
X186165924Y-144890841D01*
X186083771Y-144874500D01*
X186083769Y-144874500D01*
X186083767Y-144874500D01*
X185916233Y-144874500D01*
X185916230Y-144874500D01*
X185916227Y-144874500D01*
X185792997Y-144899012D01*
X185751920Y-144907183D01*
X185751914Y-144907185D01*
X185751912Y-144907185D01*
X185751911Y-144907186D01*
X185597137Y-144971295D01*
X185457838Y-145064373D01*
X185457834Y-145064376D01*
X185457834Y-145064377D01*
X185339377Y-145182834D01*
X185339374Y-145182838D01*
X185323642Y-145206383D01*
X185246295Y-145322137D01*
X185182186Y-145476911D01*
X185182183Y-145476921D01*
X185149500Y-145641227D01*
X184850498Y-145641227D01*
X184838436Y-145580584D01*
X184817816Y-145476918D01*
X184753703Y-145322137D01*
X184660626Y-145182838D01*
X184542162Y-145064374D01*
X184460002Y-145009476D01*
X184447496Y-144993612D01*
X184402869Y-144971299D01*
X184402862Y-144971296D01*
X184248085Y-144907185D01*
X184248079Y-144907183D01*
X184165924Y-144890841D01*
X184083771Y-144874500D01*
X184083769Y-144874500D01*
X184083767Y-144874500D01*
X183916233Y-144874500D01*
X183916230Y-144874500D01*
X183916227Y-144874500D01*
X183792997Y-144899012D01*
X183751920Y-144907183D01*
X183751914Y-144907185D01*
X183751912Y-144907185D01*
X183751911Y-144907186D01*
X183597137Y-144971295D01*
X183457838Y-145064373D01*
X183457834Y-145064376D01*
X183457834Y-145064377D01*
X183339377Y-145182834D01*
X183339374Y-145182838D01*
X183323642Y-145206383D01*
X183246295Y-145322137D01*
X183182186Y-145476911D01*
X183182183Y-145476921D01*
X183149500Y-145641227D01*
X182850499Y-145641227D01*
X182850499Y-145327128D01*
X182844091Y-145267517D01*
X182844086Y-145267504D01*
X182812508Y-145182839D01*
X182812508Y-145182838D01*
X182793797Y-145132670D01*
X182709156Y-145019605D01*
X182707881Y-145017802D01*
X182707633Y-145017522D01*
X182707541Y-145017449D01*
X182592330Y-144931202D01*
X182592328Y-144931201D01*
X182462428Y-144882752D01*
X182458939Y-144881234D01*
X182458025Y-144880996D01*
X182455927Y-144880540D01*
X182452206Y-144880341D01*
X182435312Y-144878524D01*
X182426249Y-144877550D01*
X182426248Y-144877549D01*
X182397876Y-144874500D01*
X182397873Y-144874500D01*
X182397870Y-144874500D01*
X181602133Y-144874500D01*
X181602129Y-144874500D01*
X181593938Y-144874500D01*
X181587975Y-144876021D01*
X181579069Y-144876978D01*
X181542520Y-144880907D01*
X181542514Y-144880908D01*
X181542514Y-144880909D01*
X181542506Y-144880912D01*
X181407671Y-144931200D01*
X181292456Y-145017451D01*
X181292454Y-145017453D01*
X181292451Y-145017456D01*
X181292450Y-145017458D01*
X181277758Y-145037082D01*
X181206200Y-145132671D01*
X181155912Y-145267504D01*
X181155908Y-145267520D01*
X181155908Y-145267521D01*
X181149500Y-145327132D01*
X181149500Y-145484819D01*
X181144654Y-145515412D01*
X181140532Y-145528098D01*
X181104580Y-145577589D01*
X181100459Y-145580584D01*
X181042271Y-145599500D01*
X168321781Y-145599500D01*
X168291188Y-145594654D01*
X168267961Y-145587107D01*
X168228550Y-145562957D01*
X165280218Y-142614625D01*
X183698100Y-142614625D01*
X183698100Y-142759574D01*
X183731185Y-142883049D01*
X183735618Y-142899593D01*
X183808085Y-143025108D01*
X183808087Y-143025110D01*
X183808089Y-143025112D01*
X183808091Y-143025115D01*
X183910585Y-143127609D01*
X183910587Y-143127610D01*
X183910694Y-143127717D01*
X183910945Y-143127903D01*
X183913138Y-143129084D01*
X184025707Y-143194075D01*
X184033357Y-143198492D01*
X184035770Y-143199990D01*
X184036108Y-143200080D01*
X184036111Y-143200082D01*
X184036112Y-143200082D01*
X184036115Y-143200084D01*
X184176125Y-143237600D01*
X184176126Y-143237600D01*
X184321074Y-143237600D01*
X184321075Y-143237600D01*
X184461085Y-143200084D01*
X184461086Y-143200083D01*
X184461088Y-143200082D01*
X184461089Y-143200082D01*
X184580480Y-143131151D01*
X184583368Y-143129748D01*
X184584154Y-143129231D01*
X184589163Y-143126137D01*
X184590462Y-143125386D01*
X184595820Y-143118403D01*
X184689109Y-143025115D01*
X184689113Y-143025108D01*
X184761582Y-142899589D01*
X184761582Y-142899587D01*
X184761584Y-142899585D01*
X184799100Y-142759575D01*
X184799100Y-142614625D01*
X184761584Y-142474615D01*
X184761582Y-142474612D01*
X184761582Y-142474610D01*
X184761581Y-142474608D01*
X184761490Y-142474268D01*
X184759997Y-142471864D01*
X184690585Y-142351639D01*
X184689405Y-142349447D01*
X184689217Y-142349194D01*
X184689110Y-142349087D01*
X184689109Y-142349085D01*
X184586615Y-142246591D01*
X184586612Y-142246589D01*
X184586610Y-142246587D01*
X184586609Y-142246586D01*
X184518375Y-142207191D01*
X184497341Y-142183830D01*
X184418357Y-142162667D01*
X184382802Y-142153140D01*
X184321075Y-142136600D01*
X184321074Y-142136600D01*
X184176123Y-142136600D01*
X184114388Y-142153141D01*
X184114387Y-142153140D01*
X184036112Y-142174115D01*
X184036106Y-142174118D01*
X183910593Y-142246583D01*
X183808083Y-142349093D01*
X183735618Y-142474605D01*
X183714642Y-142552887D01*
X183698100Y-142614625D01*
X165280218Y-142614625D01*
X160639318Y-137973725D01*
X177708900Y-137973725D01*
X177708900Y-138118674D01*
X177721846Y-138166988D01*
X177746418Y-138258693D01*
X177818885Y-138384208D01*
X177818887Y-138384210D01*
X177818889Y-138384212D01*
X177818891Y-138384215D01*
X177921385Y-138486709D01*
X177921387Y-138486710D01*
X177921494Y-138486817D01*
X177921745Y-138487003D01*
X177923938Y-138488184D01*
X178036507Y-138553175D01*
X178044157Y-138557592D01*
X178046570Y-138559090D01*
X178046908Y-138559180D01*
X178046911Y-138559182D01*
X178046912Y-138559182D01*
X178046915Y-138559184D01*
X178186925Y-138596700D01*
X178186926Y-138596700D01*
X178331874Y-138596700D01*
X178331875Y-138596700D01*
X178471885Y-138559184D01*
X178471886Y-138559183D01*
X178471888Y-138559182D01*
X178471889Y-138559182D01*
X178591280Y-138490251D01*
X178594168Y-138488848D01*
X178594954Y-138488331D01*
X178599963Y-138485237D01*
X178601262Y-138484486D01*
X178606620Y-138477503D01*
X178699909Y-138384215D01*
X178760178Y-138279826D01*
X178772382Y-138258689D01*
X178772382Y-138258687D01*
X178772384Y-138258685D01*
X178809900Y-138118675D01*
X178809900Y-137973725D01*
X178772384Y-137833715D01*
X178772382Y-137833712D01*
X178772382Y-137833710D01*
X178772381Y-137833708D01*
X178772290Y-137833368D01*
X178770797Y-137830964D01*
X178701385Y-137710739D01*
X178700205Y-137708547D01*
X178700017Y-137708294D01*
X178699910Y-137708187D01*
X178699909Y-137708185D01*
X178597415Y-137605691D01*
X178597412Y-137605689D01*
X178597410Y-137605687D01*
X178529174Y-137566291D01*
X178508141Y-137542931D01*
X178442297Y-137525287D01*
X178442296Y-137525287D01*
X178331875Y-137495700D01*
X178331873Y-137495700D01*
X178186923Y-137495700D01*
X178125188Y-137512241D01*
X178125187Y-137512240D01*
X178046912Y-137533215D01*
X178046906Y-137533218D01*
X177921393Y-137605683D01*
X177818883Y-137708193D01*
X177746418Y-137833705D01*
X177725442Y-137911987D01*
X177708900Y-137973725D01*
X160639318Y-137973725D01*
X160414782Y-137749189D01*
X160396576Y-137724130D01*
X160385488Y-137702368D01*
X160374700Y-137657426D01*
X160374700Y-137652526D01*
X160374700Y-137652525D01*
X160362151Y-137605691D01*
X160362151Y-137605690D01*
X160362151Y-137605689D01*
X160342731Y-137533217D01*
X160337184Y-137512515D01*
X160337182Y-137512512D01*
X160337182Y-137512510D01*
X160337181Y-137512509D01*
X160337091Y-137512171D01*
X160335597Y-137509764D01*
X160266185Y-137389539D01*
X160265005Y-137387347D01*
X160264817Y-137387094D01*
X160264710Y-137386987D01*
X160264709Y-137386985D01*
X160162215Y-137284491D01*
X160162212Y-137284489D01*
X160162210Y-137284487D01*
X160093974Y-137245091D01*
X160072941Y-137221731D01*
X160007097Y-137204087D01*
X160007096Y-137204087D01*
X159896675Y-137174500D01*
X159896673Y-137174500D01*
X159751723Y-137174500D01*
X159689988Y-137191041D01*
X159689987Y-137191040D01*
X159611712Y-137212015D01*
X159611706Y-137212018D01*
X159486193Y-137284483D01*
X159383683Y-137386993D01*
X159311218Y-137512505D01*
X159296806Y-137566293D01*
X159273700Y-137652525D01*
X100500000Y-137652525D01*
X100500000Y-135402132D01*
X140949500Y-135402132D01*
X140949500Y-136597920D01*
X140949584Y-136598648D01*
X140954281Y-136642349D01*
X140955908Y-136657480D01*
X140955909Y-136657485D01*
X140955912Y-136657492D01*
X141006200Y-136792327D01*
X141092449Y-136907541D01*
X141092522Y-136907633D01*
X141092799Y-136907879D01*
X141094588Y-136909144D01*
X141179142Y-136972441D01*
X141207668Y-136993796D01*
X141207669Y-136993796D01*
X141207670Y-136993797D01*
X141341544Y-137043728D01*
X141342985Y-137044285D01*
X141344247Y-137044466D01*
X141347767Y-137044655D01*
X141402127Y-137050500D01*
X142597872Y-137050499D01*
X142657483Y-137044091D01*
X142748537Y-137010130D01*
X142776401Y-136999737D01*
X142790692Y-136994408D01*
X142794020Y-136993233D01*
X142797583Y-136992046D01*
X142805167Y-136984186D01*
X142907546Y-136907546D01*
X142993796Y-136792331D01*
X142993798Y-136792327D01*
X143044089Y-136657488D01*
X143044090Y-136657485D01*
X143044091Y-136657483D01*
X143050500Y-136597873D01*
X143050499Y-135896529D01*
X148569500Y-135896529D01*
X148569500Y-136103469D01*
X148609869Y-136306417D01*
X148609869Y-136306419D01*
X148689055Y-136497593D01*
X148689057Y-136497595D01*
X148689059Y-136497598D01*
X148795886Y-136657478D01*
X148804023Y-136669655D01*
X148950345Y-136815977D01*
X149122402Y-136930941D01*
X149313580Y-137010130D01*
X149516535Y-137050500D01*
X149516536Y-137050500D01*
X149723464Y-137050500D01*
X149723465Y-137050500D01*
X149926420Y-137010130D01*
X150117598Y-136930941D01*
X150289655Y-136815977D01*
X150435977Y-136669655D01*
X150550941Y-136497598D01*
X150630130Y-136306420D01*
X150670500Y-136103465D01*
X150670500Y-135896535D01*
X150630130Y-135693580D01*
X150550941Y-135502402D01*
X150435977Y-135330345D01*
X150289655Y-135184023D01*
X150289651Y-135184020D01*
X150117597Y-135069058D01*
X150117596Y-135069057D01*
X150117594Y-135069056D01*
X149926418Y-134989869D01*
X149723469Y-134949500D01*
X149723467Y-134949500D01*
X149723465Y-134949500D01*
X149516535Y-134949500D01*
X149516532Y-134949500D01*
X149516529Y-134949500D01*
X149313581Y-134989869D01*
X149313579Y-134989869D01*
X149122404Y-135069056D01*
X148950351Y-135184017D01*
X148804017Y-135330351D01*
X148689056Y-135502404D01*
X148609869Y-135693579D01*
X148609869Y-135693581D01*
X148569500Y-135896529D01*
X143050499Y-135896529D01*
X143050499Y-135402128D01*
X143044091Y-135342517D01*
X143039551Y-135330345D01*
X143039550Y-135330342D01*
X142993798Y-135207671D01*
X142971998Y-135178551D01*
X142909156Y-135094605D01*
X142907881Y-135092802D01*
X142907633Y-135092522D01*
X142907541Y-135092449D01*
X142792330Y-135006202D01*
X142792328Y-135006201D01*
X142662428Y-134957752D01*
X142658939Y-134956234D01*
X142658025Y-134955996D01*
X142655927Y-134955540D01*
X142652206Y-134955341D01*
X142635312Y-134953524D01*
X142626249Y-134952550D01*
X142626248Y-134952549D01*
X142597876Y-134949500D01*
X142597873Y-134949500D01*
X142597870Y-134949500D01*
X141402133Y-134949500D01*
X141402129Y-134949500D01*
X141393938Y-134949500D01*
X141387975Y-134951021D01*
X141379069Y-134951978D01*
X141342520Y-134955907D01*
X141342514Y-134955908D01*
X141342514Y-134955909D01*
X141342506Y-134955912D01*
X141207671Y-135006200D01*
X141092456Y-135092451D01*
X141092454Y-135092453D01*
X141092451Y-135092456D01*
X141092450Y-135092458D01*
X141077758Y-135112082D01*
X141006200Y-135207671D01*
X140955912Y-135342504D01*
X140955908Y-135342520D01*
X140955908Y-135342521D01*
X140949500Y-135402132D01*
X100500000Y-135402132D01*
X100500000Y-132402132D01*
X142949500Y-132402132D01*
X142949500Y-133597920D01*
X142949584Y-133598648D01*
X142954083Y-133640500D01*
X142955908Y-133657480D01*
X142955909Y-133657485D01*
X142955912Y-133657492D01*
X143006200Y-133792327D01*
X143092449Y-133907541D01*
X143092522Y-133907633D01*
X143092799Y-133907879D01*
X143094588Y-133909144D01*
X143179142Y-133972441D01*
X143207668Y-133993796D01*
X143207669Y-133993796D01*
X143207670Y-133993797D01*
X143341544Y-134043728D01*
X143342985Y-134044285D01*
X143344247Y-134044466D01*
X143347767Y-134044655D01*
X143402127Y-134050500D01*
X144597872Y-134050499D01*
X144657483Y-134044091D01*
X144724907Y-134018943D01*
X144724910Y-134018942D01*
X144790697Y-133994406D01*
X144794030Y-133993230D01*
X144797582Y-133992047D01*
X144805167Y-133984186D01*
X144907546Y-133907546D01*
X144993796Y-133792331D01*
X144993798Y-133792327D01*
X145044089Y-133657488D01*
X145044090Y-133657485D01*
X145044091Y-133657483D01*
X145050500Y-133597873D01*
X145050499Y-132453381D01*
X148899500Y-132453381D01*
X148899500Y-132626617D01*
X148926595Y-132797696D01*
X148926596Y-132797701D01*
X148980553Y-132963763D01*
X148981254Y-132965039D01*
X148982749Y-132967591D01*
X149058765Y-133116784D01*
X149058768Y-133116788D01*
X149160586Y-133256928D01*
X149283072Y-133379414D01*
X149423212Y-133481232D01*
X149572414Y-133557253D01*
X149573683Y-133557996D01*
X149576651Y-133559434D01*
X149578246Y-133560226D01*
X149581227Y-133561067D01*
X149742293Y-133613401D01*
X149742297Y-133613402D01*
X149742303Y-133613403D01*
X149913383Y-133640500D01*
X150086614Y-133640500D01*
X150086617Y-133640500D01*
X150225843Y-133618447D01*
X150257702Y-133613402D01*
X150257706Y-133613401D01*
X150416960Y-133561655D01*
X150418379Y-133561285D01*
X150421448Y-133560219D01*
X150423174Y-133559638D01*
X150425899Y-133558113D01*
X150576782Y-133481235D01*
X150576784Y-133481234D01*
X150576783Y-133481234D01*
X150576788Y-133481232D01*
X150716928Y-133379414D01*
X150839414Y-133256928D01*
X150941232Y-133116788D01*
X151018114Y-132965896D01*
X151019638Y-132963174D01*
X151020219Y-132961448D01*
X151021285Y-132958379D01*
X151021655Y-132956960D01*
X151073401Y-132797706D01*
X151073402Y-132797702D01*
X151100500Y-132626614D01*
X151100500Y-132453385D01*
X151100500Y-132453381D01*
X151073403Y-132282303D01*
X151073402Y-132282297D01*
X151073401Y-132282293D01*
X151021067Y-132121227D01*
X151020226Y-132118246D01*
X151019434Y-132116651D01*
X151017996Y-132113683D01*
X151017250Y-132112408D01*
X150941232Y-131963212D01*
X150839414Y-131823072D01*
X150716928Y-131700586D01*
X150716924Y-131700583D01*
X150716922Y-131700581D01*
X150583089Y-131603345D01*
X150582821Y-131603116D01*
X150576788Y-131598768D01*
X150576787Y-131598767D01*
X150576785Y-131598766D01*
X150576784Y-131598765D01*
X150576778Y-131598761D01*
X150576522Y-131598632D01*
X150427591Y-131522749D01*
X150426311Y-131522000D01*
X150422440Y-131520124D01*
X150422438Y-131520123D01*
X150346005Y-131495288D01*
X150257701Y-131466596D01*
X150257696Y-131466595D01*
X150086617Y-131439500D01*
X150086614Y-131439500D01*
X150086611Y-131439500D01*
X149913389Y-131439500D01*
X149913386Y-131439500D01*
X149913383Y-131439500D01*
X149742302Y-131466595D01*
X149742297Y-131466596D01*
X149577561Y-131520123D01*
X149573685Y-131522000D01*
X149572407Y-131522749D01*
X149423209Y-131598768D01*
X149283078Y-131700580D01*
X149160580Y-131823078D01*
X149058768Y-131963209D01*
X148982749Y-132112407D01*
X148982000Y-132113685D01*
X148980123Y-132117561D01*
X148926596Y-132282297D01*
X148926595Y-132282302D01*
X148899500Y-132453381D01*
X145050499Y-132453381D01*
X145050499Y-132402128D01*
X145044091Y-132342517D01*
X145044089Y-132342511D01*
X145021629Y-132282293D01*
X144993798Y-132207671D01*
X144981461Y-132191191D01*
X144909144Y-132094588D01*
X144907879Y-132092799D01*
X144907633Y-132092522D01*
X144907541Y-132092449D01*
X144792330Y-132006202D01*
X144792328Y-132006201D01*
X144662428Y-131957752D01*
X144658939Y-131956234D01*
X144658025Y-131955996D01*
X144655927Y-131955540D01*
X144652206Y-131955341D01*
X144635312Y-131953524D01*
X144626249Y-131952550D01*
X144626248Y-131952549D01*
X144597876Y-131949500D01*
X144597873Y-131949500D01*
X144597870Y-131949500D01*
X143402133Y-131949500D01*
X143402129Y-131949500D01*
X143393938Y-131949500D01*
X143387975Y-131951021D01*
X143379069Y-131951978D01*
X143342520Y-131955907D01*
X143342514Y-131955908D01*
X143342514Y-131955909D01*
X143342506Y-131955912D01*
X143207671Y-132006200D01*
X143092456Y-132092451D01*
X143092454Y-132092453D01*
X143006200Y-132207671D01*
X142955912Y-132342504D01*
X142955910Y-132342508D01*
X142955910Y-132342511D01*
X142955908Y-132342522D01*
X142949501Y-132402127D01*
X142949500Y-132402132D01*
X100500000Y-132402132D01*
X100500000Y-130180625D01*
X120414400Y-130180625D01*
X120414400Y-130325574D01*
X120447485Y-130449049D01*
X120451918Y-130465593D01*
X120524385Y-130591108D01*
X120524387Y-130591110D01*
X120524389Y-130591112D01*
X120524391Y-130591115D01*
X120626885Y-130693609D01*
X120626887Y-130693610D01*
X120626994Y-130693717D01*
X120627245Y-130693903D01*
X120629438Y-130695084D01*
X120742007Y-130760075D01*
X120749657Y-130764492D01*
X120752070Y-130765990D01*
X120752408Y-130766080D01*
X120752411Y-130766082D01*
X120752412Y-130766082D01*
X120752415Y-130766084D01*
X120892425Y-130803600D01*
X120892426Y-130803600D01*
X121037374Y-130803600D01*
X121037375Y-130803600D01*
X121177385Y-130766084D01*
X121177386Y-130766083D01*
X121177388Y-130766082D01*
X121177389Y-130766082D01*
X121296780Y-130697151D01*
X121299668Y-130695748D01*
X121300454Y-130695231D01*
X121305463Y-130692137D01*
X121306762Y-130691386D01*
X121312122Y-130684401D01*
X121333422Y-130663102D01*
X121352844Y-130643680D01*
X121377895Y-130625479D01*
X121399664Y-130614388D01*
X121444605Y-130603600D01*
X127659342Y-130603600D01*
X127659344Y-130603600D01*
X127748488Y-130579714D01*
X127759112Y-130573580D01*
X127828412Y-130533570D01*
X129236662Y-129125320D01*
X148899500Y-129125320D01*
X148899500Y-130874678D01*
X148899500Y-130874682D01*
X148899501Y-130874684D01*
X148914033Y-130947736D01*
X148914035Y-130947742D01*
X148969397Y-131030599D01*
X148969399Y-131030601D01*
X148969402Y-131030603D01*
X148969404Y-131030605D01*
X149052260Y-131085966D01*
X149107807Y-131097015D01*
X149107808Y-131097015D01*
X149119240Y-131099289D01*
X149121405Y-131099863D01*
X149123579Y-131100216D01*
X149125152Y-131100500D01*
X149125326Y-131100500D01*
X149125327Y-131100500D01*
X150874673Y-131100500D01*
X150874674Y-131100500D01*
X150947740Y-131085966D01*
X151030601Y-131030601D01*
X151085966Y-130947740D01*
X151100500Y-130874674D01*
X151100500Y-129125326D01*
X151085966Y-129052260D01*
X151061214Y-129015215D01*
X151061207Y-129015205D01*
X151030604Y-128969403D01*
X151030602Y-128969400D01*
X151030599Y-128969397D01*
X151030595Y-128969394D01*
X151030593Y-128969392D01*
X150947748Y-128914038D01*
X150947737Y-128914032D01*
X150947534Y-128913964D01*
X150945997Y-128913687D01*
X150874694Y-128899503D01*
X150874684Y-128899501D01*
X150874679Y-128899500D01*
X150874676Y-128899500D01*
X150874674Y-128899500D01*
X149125326Y-128899500D01*
X149125325Y-128899500D01*
X149125322Y-128899500D01*
X149125318Y-128899500D01*
X149125315Y-128899501D01*
X149089039Y-128906717D01*
X149052261Y-128914033D01*
X149052256Y-128914035D01*
X148969403Y-128969394D01*
X148969394Y-128969403D01*
X148914035Y-129052256D01*
X148914033Y-129052261D01*
X148899500Y-129125320D01*
X129236662Y-129125320D01*
X135976656Y-122385325D01*
X159947800Y-122385325D01*
X159947800Y-122530274D01*
X159980885Y-122653749D01*
X159985318Y-122670293D01*
X160057785Y-122795808D01*
X160057787Y-122795810D01*
X160057789Y-122795812D01*
X160057791Y-122795815D01*
X160160285Y-122898309D01*
X160160287Y-122898310D01*
X160160394Y-122898417D01*
X160160645Y-122898603D01*
X160162838Y-122899784D01*
X160275407Y-122964775D01*
X160283057Y-122969192D01*
X160285470Y-122970690D01*
X160285808Y-122970780D01*
X160285811Y-122970782D01*
X160285812Y-122970782D01*
X160285815Y-122970784D01*
X160425825Y-123008300D01*
X160425826Y-123008300D01*
X160570774Y-123008300D01*
X160570775Y-123008300D01*
X160710785Y-122970784D01*
X160710786Y-122970783D01*
X160710788Y-122970782D01*
X160710789Y-122970782D01*
X160830180Y-122901851D01*
X160833068Y-122900448D01*
X160833854Y-122899931D01*
X160838863Y-122896837D01*
X160840162Y-122896086D01*
X160845520Y-122889103D01*
X160938809Y-122795815D01*
X160938813Y-122795808D01*
X161011282Y-122670289D01*
X161011282Y-122670287D01*
X161011284Y-122670285D01*
X161048800Y-122530275D01*
X161048800Y-122385325D01*
X161011284Y-122245315D01*
X161011282Y-122245312D01*
X161011282Y-122245310D01*
X161011281Y-122245308D01*
X161011190Y-122244968D01*
X161009697Y-122242564D01*
X160940285Y-122122339D01*
X160939105Y-122120147D01*
X160938917Y-122119894D01*
X160938810Y-122119787D01*
X160938809Y-122119785D01*
X160836315Y-122017291D01*
X160836312Y-122017289D01*
X160836310Y-122017287D01*
X160768074Y-121977891D01*
X160747041Y-121954531D01*
X160681197Y-121936887D01*
X160681196Y-121936887D01*
X160570775Y-121907300D01*
X160570773Y-121907300D01*
X160425823Y-121907300D01*
X160364088Y-121923841D01*
X160364087Y-121923840D01*
X160285812Y-121944815D01*
X160285806Y-121944818D01*
X160160293Y-122017283D01*
X160057783Y-122119793D01*
X159985318Y-122245305D01*
X159964342Y-122323587D01*
X159947800Y-122385325D01*
X135976656Y-122385325D01*
X138886356Y-119475625D01*
X151988600Y-119475625D01*
X151988600Y-119620574D01*
X152021685Y-119744049D01*
X152026118Y-119760593D01*
X152098585Y-119886108D01*
X152098587Y-119886110D01*
X152098589Y-119886112D01*
X152098591Y-119886115D01*
X152201085Y-119988609D01*
X152201087Y-119988610D01*
X152201194Y-119988717D01*
X152201445Y-119988903D01*
X152203638Y-119990084D01*
X152316207Y-120055075D01*
X152323857Y-120059492D01*
X152326270Y-120060990D01*
X152326608Y-120061080D01*
X152326611Y-120061082D01*
X152326612Y-120061082D01*
X152326615Y-120061084D01*
X152466625Y-120098600D01*
X152466626Y-120098600D01*
X152611574Y-120098600D01*
X152611575Y-120098600D01*
X152751585Y-120061084D01*
X152751586Y-120061083D01*
X152751588Y-120061082D01*
X152751589Y-120061082D01*
X152870980Y-119992151D01*
X152873868Y-119990748D01*
X152874654Y-119990231D01*
X152879663Y-119987137D01*
X152880962Y-119986386D01*
X152886320Y-119979403D01*
X152979609Y-119886115D01*
X152979613Y-119886108D01*
X153052082Y-119760589D01*
X153052082Y-119760587D01*
X153052084Y-119760585D01*
X153089600Y-119620575D01*
X153089600Y-119475625D01*
X153052084Y-119335615D01*
X153052082Y-119335612D01*
X153052082Y-119335610D01*
X153052081Y-119335608D01*
X153051990Y-119335268D01*
X153050497Y-119332864D01*
X152981085Y-119212639D01*
X152979905Y-119210447D01*
X152979717Y-119210194D01*
X152979610Y-119210087D01*
X152979609Y-119210085D01*
X152877115Y-119107591D01*
X152877112Y-119107589D01*
X152877110Y-119107587D01*
X152808874Y-119068191D01*
X152787841Y-119044831D01*
X152721997Y-119027187D01*
X152721996Y-119027187D01*
X152611575Y-118997600D01*
X152611573Y-118997600D01*
X152466623Y-118997600D01*
X152404888Y-119014141D01*
X152404887Y-119014140D01*
X152326612Y-119035115D01*
X152326606Y-119035118D01*
X152201093Y-119107583D01*
X152098583Y-119210093D01*
X152026118Y-119335605D01*
X152022426Y-119349384D01*
X151988600Y-119475625D01*
X138886356Y-119475625D01*
X139598056Y-118763925D01*
X163277900Y-118763925D01*
X163277900Y-118908875D01*
X163287791Y-118945788D01*
X163301674Y-118997600D01*
X163301673Y-118997600D01*
X163315416Y-119048888D01*
X163315418Y-119048892D01*
X163387885Y-119174408D01*
X163387887Y-119174410D01*
X163387889Y-119174412D01*
X163387891Y-119174415D01*
X163490385Y-119276909D01*
X163490387Y-119276910D01*
X163490494Y-119277017D01*
X163490745Y-119277203D01*
X163492938Y-119278384D01*
X163592057Y-119335610D01*
X163613157Y-119347792D01*
X163615570Y-119349290D01*
X163615908Y-119349380D01*
X163615911Y-119349382D01*
X163615912Y-119349382D01*
X163615915Y-119349384D01*
X163755925Y-119386900D01*
X163755926Y-119386900D01*
X163900874Y-119386900D01*
X163900875Y-119386900D01*
X164040885Y-119349384D01*
X164040886Y-119349383D01*
X164040888Y-119349382D01*
X164040889Y-119349382D01*
X164160280Y-119280451D01*
X164163168Y-119279048D01*
X164163954Y-119278531D01*
X164168963Y-119275437D01*
X164170262Y-119274686D01*
X164175620Y-119267703D01*
X164268909Y-119174415D01*
X164307495Y-119107583D01*
X164341382Y-119048889D01*
X164341382Y-119048887D01*
X164341384Y-119048885D01*
X164378900Y-118908875D01*
X164378900Y-118763925D01*
X164341384Y-118623915D01*
X164341382Y-118623912D01*
X164341382Y-118623910D01*
X164341381Y-118623908D01*
X164341290Y-118623568D01*
X164339797Y-118621164D01*
X164270385Y-118500939D01*
X164269205Y-118498747D01*
X164269017Y-118498494D01*
X164268910Y-118498387D01*
X164268909Y-118498385D01*
X164166415Y-118395891D01*
X164166412Y-118395889D01*
X164166410Y-118395887D01*
X164098174Y-118356491D01*
X164077141Y-118333131D01*
X164011297Y-118315487D01*
X164011296Y-118315487D01*
X163900875Y-118285900D01*
X163900873Y-118285900D01*
X163755923Y-118285900D01*
X163694188Y-118302441D01*
X163694187Y-118302440D01*
X163615912Y-118323415D01*
X163615906Y-118323418D01*
X163490393Y-118395883D01*
X163387883Y-118498393D01*
X163315416Y-118623910D01*
X163315139Y-118624644D01*
X163314849Y-118625883D01*
X163314856Y-118625980D01*
X163314703Y-118626574D01*
X163277900Y-118763925D01*
X139598056Y-118763925D01*
X140271402Y-118090579D01*
X140296454Y-118072378D01*
X140318221Y-118061288D01*
X140363162Y-118050500D01*
X140438774Y-118050500D01*
X140438775Y-118050500D01*
X140578785Y-118012984D01*
X140578786Y-118012983D01*
X140578788Y-118012982D01*
X140578789Y-118012982D01*
X140698180Y-117944051D01*
X140701068Y-117942648D01*
X140701854Y-117942131D01*
X140706863Y-117939037D01*
X140708162Y-117938286D01*
X140713520Y-117931303D01*
X140806809Y-117838015D01*
X140879284Y-117712485D01*
X140916800Y-117572475D01*
X140916800Y-117427525D01*
X140879284Y-117287515D01*
X140879282Y-117287512D01*
X140879282Y-117287510D01*
X140879281Y-117287508D01*
X140879190Y-117287168D01*
X140877697Y-117284764D01*
X140808285Y-117164539D01*
X140807105Y-117162347D01*
X140806917Y-117162094D01*
X140806810Y-117161987D01*
X140806809Y-117161985D01*
X140704315Y-117059491D01*
X140704312Y-117059489D01*
X140704310Y-117059487D01*
X140636074Y-117020091D01*
X140615041Y-116996731D01*
X140549197Y-116979087D01*
X140549196Y-116979087D01*
X140438775Y-116949500D01*
X140438773Y-116949500D01*
X140293823Y-116949500D01*
X140232088Y-116966041D01*
X140232087Y-116966040D01*
X140153812Y-116987015D01*
X140153806Y-116987018D01*
X140028293Y-117059483D01*
X139925783Y-117161993D01*
X139853318Y-117287505D01*
X139815800Y-117427526D01*
X139815800Y-117498129D01*
X139810954Y-117528722D01*
X139803407Y-117551949D01*
X139779257Y-117591360D01*
X127508100Y-129862517D01*
X127483043Y-129880721D01*
X127461285Y-129891808D01*
X127416338Y-129902600D01*
X124853092Y-129902600D01*
X124822492Y-129897752D01*
X124814652Y-129895204D01*
X124765155Y-129859237D01*
X124746252Y-129801045D01*
X124765159Y-129742862D01*
X124767635Y-129739454D01*
X124798222Y-129711911D01*
X124867785Y-129671747D01*
X124870677Y-129670344D01*
X124871465Y-129669825D01*
X124876469Y-129666733D01*
X124877762Y-129665986D01*
X124883119Y-129659004D01*
X124976409Y-129565715D01*
X124976413Y-129565708D01*
X125048882Y-129440189D01*
X125048882Y-129440187D01*
X125048884Y-129440185D01*
X125086400Y-129300175D01*
X125086400Y-129155225D01*
X125048884Y-129015215D01*
X125048882Y-129015212D01*
X125048882Y-129015210D01*
X125048881Y-129015208D01*
X125048790Y-129014868D01*
X125047297Y-129012464D01*
X124977885Y-128892239D01*
X124976705Y-128890047D01*
X124976517Y-128889794D01*
X124976410Y-128889687D01*
X124976409Y-128889685D01*
X124873915Y-128787191D01*
X124873912Y-128787189D01*
X124873910Y-128787187D01*
X124805674Y-128747791D01*
X124784641Y-128724431D01*
X124718797Y-128706787D01*
X124718796Y-128706787D01*
X124608375Y-128677200D01*
X124608373Y-128677200D01*
X124463423Y-128677200D01*
X124401688Y-128693741D01*
X124401687Y-128693740D01*
X124323412Y-128714715D01*
X124323406Y-128714718D01*
X124197893Y-128787183D01*
X124095383Y-128889693D01*
X124022918Y-129015205D01*
X124012720Y-129053265D01*
X123985400Y-129155225D01*
X123985400Y-129300174D01*
X124018485Y-129423649D01*
X124022918Y-129440193D01*
X124095385Y-129565708D01*
X124095387Y-129565710D01*
X124095389Y-129565712D01*
X124095391Y-129565715D01*
X124197885Y-129668209D01*
X124197887Y-129668210D01*
X124197994Y-129668317D01*
X124198246Y-129668504D01*
X124200438Y-129669684D01*
X124218292Y-129679992D01*
X124270311Y-129710025D01*
X124294378Y-129729514D01*
X124299895Y-129735641D01*
X124324782Y-129791536D01*
X124312063Y-129851384D01*
X124266607Y-129892320D01*
X124262759Y-129894034D01*
X124222477Y-129902600D01*
X121449612Y-129902600D01*
X121419019Y-129897754D01*
X121395792Y-129890207D01*
X121356382Y-129866057D01*
X121302919Y-129812595D01*
X121302910Y-129812587D01*
X121302906Y-129812584D01*
X121234675Y-129773191D01*
X121213641Y-129749830D01*
X121094340Y-129717864D01*
X121094339Y-129717863D01*
X121052638Y-129706689D01*
X121037375Y-129702600D01*
X121037374Y-129702600D01*
X120892426Y-129702600D01*
X120892425Y-129702600D01*
X120882487Y-129705262D01*
X120835459Y-129717863D01*
X120835460Y-129717864D01*
X120752410Y-129740117D01*
X120752408Y-129740117D01*
X120752404Y-129740119D01*
X120626893Y-129812583D01*
X120524383Y-129915093D01*
X120451918Y-130040605D01*
X120451917Y-130040610D01*
X120414400Y-130180625D01*
X100500000Y-130180625D01*
X100500000Y-127927525D01*
X123538900Y-127927525D01*
X123538900Y-128072474D01*
X123571985Y-128195949D01*
X123576418Y-128212493D01*
X123648885Y-128338008D01*
X123648887Y-128338010D01*
X123648889Y-128338012D01*
X123648891Y-128338015D01*
X123751385Y-128440509D01*
X123751387Y-128440510D01*
X123751494Y-128440617D01*
X123751745Y-128440803D01*
X123753938Y-128441984D01*
X123866507Y-128506975D01*
X123874157Y-128511392D01*
X123876570Y-128512890D01*
X123876908Y-128512980D01*
X123876911Y-128512982D01*
X123876912Y-128512982D01*
X123876915Y-128512984D01*
X124016925Y-128550500D01*
X124016926Y-128550500D01*
X124161874Y-128550500D01*
X124161875Y-128550500D01*
X124301885Y-128512984D01*
X124301886Y-128512983D01*
X124301888Y-128512982D01*
X124301889Y-128512982D01*
X124421280Y-128444051D01*
X124424168Y-128442648D01*
X124424954Y-128442131D01*
X124429963Y-128439037D01*
X124431262Y-128438286D01*
X124436620Y-128431303D01*
X124529909Y-128338015D01*
X124529913Y-128338008D01*
X124602382Y-128212489D01*
X124602382Y-128212487D01*
X124602384Y-128212485D01*
X124639900Y-128072475D01*
X124639900Y-127927525D01*
X124602384Y-127787515D01*
X124602382Y-127787512D01*
X124602382Y-127787510D01*
X124602381Y-127787508D01*
X124602290Y-127787168D01*
X124600797Y-127784764D01*
X124531385Y-127664539D01*
X124530205Y-127662347D01*
X124530017Y-127662094D01*
X124529910Y-127661987D01*
X124529909Y-127661985D01*
X124427415Y-127559491D01*
X124427412Y-127559489D01*
X124427410Y-127559487D01*
X124359174Y-127520091D01*
X124338141Y-127496731D01*
X124272297Y-127479087D01*
X124272296Y-127479087D01*
X124161875Y-127449500D01*
X124161873Y-127449500D01*
X124016923Y-127449500D01*
X123955188Y-127466041D01*
X123955187Y-127466040D01*
X123876912Y-127487015D01*
X123876906Y-127487018D01*
X123751393Y-127559483D01*
X123648883Y-127661993D01*
X123576418Y-127787505D01*
X123555442Y-127865787D01*
X123538900Y-127927525D01*
X100500000Y-127927525D01*
X100500000Y-125872925D01*
X126774500Y-125872925D01*
X126774500Y-126017874D01*
X126807585Y-126141349D01*
X126812018Y-126157893D01*
X126884485Y-126283408D01*
X126884487Y-126283410D01*
X126884489Y-126283412D01*
X126884491Y-126283415D01*
X126986985Y-126385909D01*
X126986987Y-126385910D01*
X126987094Y-126386017D01*
X126987345Y-126386203D01*
X126989538Y-126387384D01*
X127102107Y-126452375D01*
X127109757Y-126456792D01*
X127112170Y-126458290D01*
X127112508Y-126458380D01*
X127112511Y-126458382D01*
X127112512Y-126458382D01*
X127112515Y-126458384D01*
X127252525Y-126495900D01*
X127252526Y-126495900D01*
X127397474Y-126495900D01*
X127397475Y-126495900D01*
X127537485Y-126458384D01*
X127537486Y-126458383D01*
X127537488Y-126458382D01*
X127537489Y-126458382D01*
X127656880Y-126389451D01*
X127659768Y-126388048D01*
X127660554Y-126387531D01*
X127665563Y-126384437D01*
X127666862Y-126383686D01*
X127672220Y-126376703D01*
X127765509Y-126283415D01*
X127765513Y-126283408D01*
X127837982Y-126157889D01*
X127837982Y-126157887D01*
X127837984Y-126157885D01*
X127875500Y-126017875D01*
X127875500Y-125872925D01*
X127837984Y-125732915D01*
X127837982Y-125732912D01*
X127837982Y-125732910D01*
X127837981Y-125732908D01*
X127837890Y-125732568D01*
X127836397Y-125730164D01*
X127766985Y-125609939D01*
X127765805Y-125607747D01*
X127765617Y-125607494D01*
X127765510Y-125607387D01*
X127765509Y-125607385D01*
X127663015Y-125504891D01*
X127663012Y-125504889D01*
X127663010Y-125504887D01*
X127594774Y-125465491D01*
X127573741Y-125442131D01*
X127507897Y-125424487D01*
X127507896Y-125424487D01*
X127397475Y-125394900D01*
X127397473Y-125394900D01*
X127252523Y-125394900D01*
X127190788Y-125411441D01*
X127190787Y-125411440D01*
X127112512Y-125432415D01*
X127112506Y-125432418D01*
X126986993Y-125504883D01*
X126884483Y-125607393D01*
X126812018Y-125732905D01*
X126791042Y-125811187D01*
X126774500Y-125872925D01*
X100500000Y-125872925D01*
X100500000Y-118431325D01*
X132670700Y-118431325D01*
X132670700Y-118576274D01*
X132683661Y-118624644D01*
X132708218Y-118716293D01*
X132780685Y-118841808D01*
X132780687Y-118841810D01*
X132780689Y-118841812D01*
X132780691Y-118841815D01*
X132883185Y-118944309D01*
X132883187Y-118944310D01*
X132883294Y-118944417D01*
X132883545Y-118944603D01*
X132885738Y-118945784D01*
X132975487Y-118997600D01*
X133005957Y-119015192D01*
X133008370Y-119016690D01*
X133008708Y-119016780D01*
X133008711Y-119016782D01*
X133008712Y-119016782D01*
X133008715Y-119016784D01*
X133148725Y-119054300D01*
X133148726Y-119054300D01*
X133293674Y-119054300D01*
X133293675Y-119054300D01*
X133433685Y-119016784D01*
X133433686Y-119016783D01*
X133433688Y-119016782D01*
X133433689Y-119016782D01*
X133553080Y-118947851D01*
X133555968Y-118946448D01*
X133556754Y-118945931D01*
X133561763Y-118942837D01*
X133563062Y-118942086D01*
X133568420Y-118935103D01*
X133661709Y-118841815D01*
X133706679Y-118763925D01*
X133734182Y-118716289D01*
X133734182Y-118716287D01*
X133734184Y-118716285D01*
X133771700Y-118576275D01*
X133771700Y-118431325D01*
X133734184Y-118291315D01*
X133734182Y-118291312D01*
X133734182Y-118291310D01*
X133734181Y-118291308D01*
X133734090Y-118290968D01*
X133732597Y-118288564D01*
X133663185Y-118168339D01*
X133662005Y-118166147D01*
X133661817Y-118165894D01*
X133661710Y-118165787D01*
X133661709Y-118165785D01*
X133559215Y-118063291D01*
X133559212Y-118063289D01*
X133559210Y-118063287D01*
X133490974Y-118023891D01*
X133469941Y-118000531D01*
X133404097Y-117982887D01*
X133404096Y-117982887D01*
X133293675Y-117953300D01*
X133293673Y-117953300D01*
X133148723Y-117953300D01*
X133086988Y-117969841D01*
X133086987Y-117969840D01*
X133008712Y-117990815D01*
X133008706Y-117990818D01*
X132883193Y-118063283D01*
X132780683Y-118165793D01*
X132708218Y-118291305D01*
X132697011Y-118333131D01*
X132670700Y-118431325D01*
X100500000Y-118431325D01*
X100500000Y-115877965D01*
X110949500Y-115877965D01*
X110949500Y-116122033D01*
X110987675Y-116363066D01*
X111055067Y-116570474D01*
X111063096Y-116595185D01*
X111148592Y-116762983D01*
X111173894Y-116812640D01*
X111252347Y-116920623D01*
X111317340Y-117010077D01*
X111317342Y-117010079D01*
X111317345Y-117010083D01*
X111489917Y-117182655D01*
X111489920Y-117182657D01*
X111489922Y-117182659D01*
X111547554Y-117224530D01*
X111633367Y-117286876D01*
X111633368Y-117286878D01*
X111669231Y-117312933D01*
X111687362Y-117326107D01*
X111796088Y-117381505D01*
X111904815Y-117436904D01*
X112136822Y-117512288D01*
X112136923Y-117512321D01*
X112136926Y-117512321D01*
X112136928Y-117512322D01*
X112210328Y-117523947D01*
X112377967Y-117550500D01*
X112622030Y-117550500D01*
X112622032Y-117550500D01*
X112696080Y-117538771D01*
X112863071Y-117512322D01*
X112863071Y-117512321D01*
X112863073Y-117512321D01*
X112863076Y-117512321D01*
X112863079Y-117512320D01*
X112865655Y-117511912D01*
X112870462Y-117509920D01*
X113095185Y-117436904D01*
X113312639Y-117326106D01*
X113510083Y-117182655D01*
X113682655Y-117010083D01*
X113826106Y-116812639D01*
X113936904Y-116595185D01*
X114012321Y-116363076D01*
X114020314Y-116312612D01*
X114050500Y-116122030D01*
X114050500Y-115877971D01*
X114050499Y-115877965D01*
X114039516Y-115808624D01*
X114039516Y-115808623D01*
X114038091Y-115799625D01*
X146976300Y-115799625D01*
X146976300Y-115944575D01*
X147005887Y-116054996D01*
X147010465Y-116072082D01*
X147013817Y-116084591D01*
X147013818Y-116084592D01*
X147086285Y-116210108D01*
X147086287Y-116210110D01*
X147086289Y-116210112D01*
X147086291Y-116210115D01*
X147188785Y-116312609D01*
X147188787Y-116312610D01*
X147188894Y-116312717D01*
X147189145Y-116312903D01*
X147191338Y-116314084D01*
X147241977Y-116343320D01*
X147300454Y-116377082D01*
X147300455Y-116377082D01*
X147314311Y-116385082D01*
X147314312Y-116385082D01*
X147314315Y-116385084D01*
X147454325Y-116422600D01*
X147467468Y-116422600D01*
X147480251Y-116426084D01*
X147481536Y-116426926D01*
X147484810Y-116427445D01*
X147497147Y-116431453D01*
X147508036Y-116434991D01*
X147547448Y-116459142D01*
X147658786Y-116570479D01*
X147658790Y-116570482D01*
X147658794Y-116570485D01*
X147693338Y-116590429D01*
X147714932Y-116614411D01*
X147749258Y-116622993D01*
X147750859Y-116623407D01*
X147851973Y-116650500D01*
X151039589Y-116650500D01*
X151070180Y-116655344D01*
X151093406Y-116662891D01*
X151132814Y-116687039D01*
X151136388Y-116690613D01*
X151136645Y-116690803D01*
X151138838Y-116691984D01*
X151189761Y-116721384D01*
X151259057Y-116761392D01*
X151261470Y-116762890D01*
X151261808Y-116762980D01*
X151261811Y-116762982D01*
X151261812Y-116762982D01*
X151261815Y-116762984D01*
X151401825Y-116800500D01*
X151401826Y-116800500D01*
X151546774Y-116800500D01*
X151546775Y-116800500D01*
X151686785Y-116762984D01*
X151686786Y-116762983D01*
X151686788Y-116762982D01*
X151686789Y-116762982D01*
X151806180Y-116694051D01*
X151809068Y-116692648D01*
X151809854Y-116692131D01*
X151814863Y-116689037D01*
X151816162Y-116688286D01*
X151821520Y-116681303D01*
X151914809Y-116588015D01*
X151924933Y-116570480D01*
X151987282Y-116462489D01*
X151987282Y-116462487D01*
X151987284Y-116462485D01*
X152024800Y-116322475D01*
X152024800Y-116177525D01*
X152018780Y-116155058D01*
X152018780Y-116155056D01*
X152013654Y-116135925D01*
X170805400Y-116135925D01*
X170805400Y-116280874D01*
X170827425Y-116363071D01*
X170842918Y-116420893D01*
X170915385Y-116546408D01*
X170915387Y-116546410D01*
X170915389Y-116546412D01*
X170915391Y-116546415D01*
X171017885Y-116648909D01*
X171017887Y-116648910D01*
X171017994Y-116649017D01*
X171018245Y-116649203D01*
X171020438Y-116650384D01*
X171090447Y-116690803D01*
X171140657Y-116719792D01*
X171143070Y-116721290D01*
X171143408Y-116721380D01*
X171143411Y-116721382D01*
X171143412Y-116721382D01*
X171143415Y-116721384D01*
X171283425Y-116758900D01*
X171283426Y-116758900D01*
X171428374Y-116758900D01*
X171428375Y-116758900D01*
X171568385Y-116721384D01*
X171568386Y-116721383D01*
X171568388Y-116721382D01*
X171568389Y-116721382D01*
X171687780Y-116652451D01*
X171690668Y-116651048D01*
X171691454Y-116650531D01*
X171696463Y-116647437D01*
X171697762Y-116646686D01*
X171703120Y-116639703D01*
X171796409Y-116546415D01*
X171844864Y-116462489D01*
X171868882Y-116420889D01*
X171868882Y-116420887D01*
X171868884Y-116420885D01*
X171906400Y-116280875D01*
X171906400Y-116135925D01*
X171868884Y-115995915D01*
X171868882Y-115995912D01*
X171868882Y-115995910D01*
X171868881Y-115995908D01*
X171868790Y-115995568D01*
X171867297Y-115993164D01*
X171797885Y-115872939D01*
X171796705Y-115870747D01*
X171796517Y-115870494D01*
X171796410Y-115870387D01*
X171796409Y-115870385D01*
X171693915Y-115767891D01*
X171693912Y-115767889D01*
X171693910Y-115767887D01*
X171625674Y-115728491D01*
X171604641Y-115705131D01*
X171538797Y-115687487D01*
X171538796Y-115687487D01*
X171428375Y-115657900D01*
X171428373Y-115657900D01*
X171283423Y-115657900D01*
X171221688Y-115674441D01*
X171221687Y-115674440D01*
X171143412Y-115695415D01*
X171143406Y-115695418D01*
X171017893Y-115767883D01*
X170915383Y-115870393D01*
X170842918Y-115995905D01*
X170831769Y-116037513D01*
X170805400Y-116135925D01*
X152013654Y-116135925D01*
X151999898Y-116084591D01*
X151987284Y-116037515D01*
X151987281Y-116037509D01*
X151916276Y-115914525D01*
X151915103Y-115912344D01*
X151914917Y-115912094D01*
X151914810Y-115911987D01*
X151914809Y-115911985D01*
X151812315Y-115809491D01*
X151812312Y-115809489D01*
X151812310Y-115809487D01*
X151744074Y-115770091D01*
X151723041Y-115746731D01*
X151657197Y-115729087D01*
X151657196Y-115729087D01*
X151546775Y-115699500D01*
X151546773Y-115699500D01*
X151401823Y-115699500D01*
X151340088Y-115716041D01*
X151340087Y-115716040D01*
X151261812Y-115737015D01*
X151261806Y-115737018D01*
X151135317Y-115810047D01*
X151133543Y-115811317D01*
X151115629Y-115823260D01*
X151114411Y-115821434D01*
X151104629Y-115831021D01*
X151089541Y-115838709D01*
X151044595Y-115849500D01*
X148182309Y-115849500D01*
X148151716Y-115844654D01*
X148139030Y-115840532D01*
X148089530Y-115804568D01*
X148083037Y-115795631D01*
X148067504Y-115763068D01*
X148039784Y-115659615D01*
X148039782Y-115659612D01*
X148039782Y-115659610D01*
X148039781Y-115659608D01*
X148039690Y-115659268D01*
X148038197Y-115656864D01*
X147968785Y-115536639D01*
X147967605Y-115534447D01*
X147967417Y-115534194D01*
X147967310Y-115534087D01*
X147967309Y-115534085D01*
X147864815Y-115431591D01*
X147855016Y-115425933D01*
X147825765Y-115409045D01*
X147825759Y-115409042D01*
X147813164Y-115401769D01*
X147813163Y-115401768D01*
X147796576Y-115392192D01*
X147775542Y-115368831D01*
X147709697Y-115351187D01*
X147709696Y-115351187D01*
X147602727Y-115322525D01*
X161554500Y-115322525D01*
X161554500Y-115467474D01*
X161573033Y-115536639D01*
X161592018Y-115607493D01*
X161664485Y-115733008D01*
X161664487Y-115733010D01*
X161664489Y-115733012D01*
X161664491Y-115733015D01*
X161766985Y-115835509D01*
X161766987Y-115835510D01*
X161767094Y-115835617D01*
X161767345Y-115835803D01*
X161769538Y-115836984D01*
X161827398Y-115870389D01*
X161889757Y-115906392D01*
X161892170Y-115907890D01*
X161892508Y-115907980D01*
X161892511Y-115907982D01*
X161892512Y-115907982D01*
X161892515Y-115907984D01*
X162032525Y-115945500D01*
X162032526Y-115945500D01*
X162177474Y-115945500D01*
X162177475Y-115945500D01*
X162317485Y-115907984D01*
X162317486Y-115907983D01*
X162317488Y-115907982D01*
X162317489Y-115907982D01*
X162436880Y-115839051D01*
X162439768Y-115837648D01*
X162440554Y-115837131D01*
X162445563Y-115834037D01*
X162446862Y-115833286D01*
X162452220Y-115826303D01*
X162545509Y-115733015D01*
X162600985Y-115636928D01*
X162617982Y-115607489D01*
X162617982Y-115607487D01*
X162617984Y-115607485D01*
X162655500Y-115467475D01*
X162655500Y-115322525D01*
X162617984Y-115182515D01*
X162617982Y-115182512D01*
X162617982Y-115182510D01*
X162617981Y-115182508D01*
X162617890Y-115182168D01*
X162616397Y-115179764D01*
X162546985Y-115059539D01*
X162545805Y-115057347D01*
X162545617Y-115057094D01*
X162545510Y-115056987D01*
X162545509Y-115056985D01*
X162443015Y-114954491D01*
X162443012Y-114954489D01*
X162443010Y-114954487D01*
X162374774Y-114915091D01*
X162353741Y-114891731D01*
X162287897Y-114874087D01*
X162287896Y-114874087D01*
X162177475Y-114844500D01*
X162177473Y-114844500D01*
X162032523Y-114844500D01*
X161970788Y-114861041D01*
X161970787Y-114861040D01*
X161892512Y-114882015D01*
X161892506Y-114882018D01*
X161766993Y-114954483D01*
X161664483Y-115056993D01*
X161592018Y-115182505D01*
X161571042Y-115260787D01*
X161554500Y-115322525D01*
X147602727Y-115322525D01*
X147599275Y-115321600D01*
X147599273Y-115321600D01*
X147454323Y-115321600D01*
X147392588Y-115338141D01*
X147392587Y-115338140D01*
X147314312Y-115359115D01*
X147314306Y-115359118D01*
X147188793Y-115431583D01*
X147086283Y-115534093D01*
X147013818Y-115659606D01*
X147013816Y-115659610D01*
X146994147Y-115733013D01*
X146994148Y-115733014D01*
X146984803Y-115767891D01*
X146976300Y-115799625D01*
X114038091Y-115799625D01*
X114027541Y-115733015D01*
X114012322Y-115636928D01*
X114002757Y-115607489D01*
X113936904Y-115404815D01*
X113881505Y-115296088D01*
X113826107Y-115187362D01*
X113733238Y-115059539D01*
X113682655Y-114989917D01*
X113510083Y-114817345D01*
X113510079Y-114817342D01*
X113510077Y-114817340D01*
X113420624Y-114752348D01*
X113312640Y-114673894D01*
X113312639Y-114673893D01*
X113312637Y-114673892D01*
X113095185Y-114563096D01*
X112863066Y-114487675D01*
X112622033Y-114449500D01*
X112622030Y-114449500D01*
X112622027Y-114449500D01*
X112377973Y-114449500D01*
X112377970Y-114449500D01*
X112377967Y-114449500D01*
X112136932Y-114487675D01*
X111904813Y-114563096D01*
X111687363Y-114673890D01*
X111489919Y-114817343D01*
X111317343Y-114989919D01*
X111173890Y-115187363D01*
X111063096Y-115404813D01*
X110987675Y-115636932D01*
X110949500Y-115877965D01*
X100500000Y-115877965D01*
X100500000Y-109675320D01*
X110949500Y-109675320D01*
X110949500Y-112324678D01*
X110949500Y-112324682D01*
X110949501Y-112324684D01*
X110964033Y-112397736D01*
X110964035Y-112397742D01*
X111019397Y-112480599D01*
X111019399Y-112480601D01*
X111019402Y-112480603D01*
X111019404Y-112480605D01*
X111102260Y-112535966D01*
X111157807Y-112547015D01*
X111157808Y-112547015D01*
X111169240Y-112549289D01*
X111171405Y-112549863D01*
X111173579Y-112550216D01*
X111175152Y-112550500D01*
X111175326Y-112550500D01*
X111175327Y-112550500D01*
X113824673Y-112550500D01*
X113824674Y-112550500D01*
X113897740Y-112535966D01*
X113980601Y-112480601D01*
X114035966Y-112397740D01*
X114050500Y-112324674D01*
X114050500Y-109675326D01*
X114035966Y-109602260D01*
X113980601Y-109519399D01*
X113980599Y-109519397D01*
X113980595Y-109519394D01*
X113980593Y-109519392D01*
X113897748Y-109464038D01*
X113897737Y-109464032D01*
X113897534Y-109463964D01*
X113895997Y-109463687D01*
X113824694Y-109449503D01*
X113824684Y-109449501D01*
X113824679Y-109449500D01*
X113824676Y-109449500D01*
X113824674Y-109449500D01*
X111175326Y-109449500D01*
X111175325Y-109449500D01*
X111175322Y-109449500D01*
X111175318Y-109449500D01*
X111175315Y-109449501D01*
X111139039Y-109456717D01*
X111102261Y-109464033D01*
X111102256Y-109464035D01*
X111019403Y-109519394D01*
X111019394Y-109519403D01*
X110964035Y-109602256D01*
X110964033Y-109602261D01*
X110949500Y-109675320D01*
X100500000Y-109675320D01*
X100500000Y-103877965D01*
X110949500Y-103877965D01*
X110949500Y-104122033D01*
X110987675Y-104363066D01*
X111002206Y-104407787D01*
X111063096Y-104595185D01*
X111173892Y-104812637D01*
X111191435Y-104836782D01*
X111191436Y-104836785D01*
X111191437Y-104836785D01*
X111317345Y-105010083D01*
X111489917Y-105182655D01*
X111489920Y-105182657D01*
X111489922Y-105182659D01*
X111523012Y-105206700D01*
X111578858Y-105247274D01*
X111687362Y-105326107D01*
X111796088Y-105381505D01*
X111904815Y-105436904D01*
X112136822Y-105512288D01*
X112136923Y-105512321D01*
X112136926Y-105512321D01*
X112136928Y-105512322D01*
X112210328Y-105523947D01*
X112377967Y-105550500D01*
X112622030Y-105550500D01*
X112622032Y-105550500D01*
X112696080Y-105538771D01*
X112863071Y-105512322D01*
X112863071Y-105512321D01*
X112863073Y-105512321D01*
X112863076Y-105512321D01*
X112863079Y-105512320D01*
X112865655Y-105511912D01*
X112870462Y-105509920D01*
X113095185Y-105436904D01*
X113312639Y-105326106D01*
X113510083Y-105182655D01*
X113590413Y-105102325D01*
X133028600Y-105102325D01*
X133028600Y-105247275D01*
X133047199Y-105316687D01*
X133047198Y-105316687D01*
X133066116Y-105387288D01*
X133066118Y-105387292D01*
X133138585Y-105512808D01*
X133138587Y-105512810D01*
X133138589Y-105512812D01*
X133138591Y-105512815D01*
X133241085Y-105615309D01*
X133241087Y-105615310D01*
X133241194Y-105615417D01*
X133241445Y-105615603D01*
X133243638Y-105616784D01*
X133356207Y-105681775D01*
X133363857Y-105686192D01*
X133366270Y-105687690D01*
X133366608Y-105687780D01*
X133366611Y-105687782D01*
X133366612Y-105687782D01*
X133366615Y-105687784D01*
X133506625Y-105725300D01*
X133506626Y-105725300D01*
X133651574Y-105725300D01*
X133651575Y-105725300D01*
X133791585Y-105687784D01*
X133791586Y-105687783D01*
X133791588Y-105687782D01*
X133791589Y-105687782D01*
X133796884Y-105684725D01*
X152705000Y-105684725D01*
X152705000Y-105829674D01*
X152738085Y-105953149D01*
X152742518Y-105969693D01*
X152814985Y-106095208D01*
X152814987Y-106095210D01*
X152814989Y-106095212D01*
X152814991Y-106095215D01*
X152917485Y-106197709D01*
X152917487Y-106197710D01*
X152917594Y-106197817D01*
X152917845Y-106198003D01*
X152920038Y-106199184D01*
X153032607Y-106264175D01*
X153040257Y-106268592D01*
X153042670Y-106270090D01*
X153043008Y-106270180D01*
X153043011Y-106270182D01*
X153043012Y-106270182D01*
X153043015Y-106270184D01*
X153183025Y-106307700D01*
X153183026Y-106307700D01*
X153327974Y-106307700D01*
X153327975Y-106307700D01*
X153467985Y-106270184D01*
X153467986Y-106270183D01*
X153467988Y-106270182D01*
X153467989Y-106270182D01*
X153587380Y-106201251D01*
X153590268Y-106199848D01*
X153591054Y-106199331D01*
X153596063Y-106196237D01*
X153597362Y-106195486D01*
X153602720Y-106188503D01*
X153696009Y-106095215D01*
X153696013Y-106095208D01*
X153768482Y-105969689D01*
X153768482Y-105969687D01*
X153768484Y-105969685D01*
X153806000Y-105829675D01*
X153806000Y-105684725D01*
X153768484Y-105544715D01*
X153768482Y-105544712D01*
X153768482Y-105544710D01*
X153768481Y-105544708D01*
X153768390Y-105544368D01*
X153766897Y-105541964D01*
X153697485Y-105421739D01*
X153696305Y-105419547D01*
X153696117Y-105419294D01*
X153696010Y-105419187D01*
X153696009Y-105419185D01*
X153593515Y-105316691D01*
X153593512Y-105316689D01*
X153593510Y-105316687D01*
X153525274Y-105277291D01*
X153504241Y-105253931D01*
X153438397Y-105236287D01*
X153438396Y-105236287D01*
X153327975Y-105206700D01*
X153327973Y-105206700D01*
X153183023Y-105206700D01*
X153121288Y-105223241D01*
X153121287Y-105223240D01*
X153043012Y-105244215D01*
X153043006Y-105244218D01*
X152917493Y-105316683D01*
X152814983Y-105419193D01*
X152742518Y-105544705D01*
X152726068Y-105606099D01*
X152705000Y-105684725D01*
X133796884Y-105684725D01*
X133917110Y-105615312D01*
X133917110Y-105615311D01*
X133917115Y-105615309D01*
X133926053Y-105606370D01*
X133926200Y-105606259D01*
X133926320Y-105606103D01*
X134019609Y-105512815D01*
X134061355Y-105440509D01*
X134063437Y-105436904D01*
X134092080Y-105387292D01*
X134092082Y-105387289D01*
X134092082Y-105387287D01*
X134092084Y-105387285D01*
X134129600Y-105247275D01*
X134129600Y-105102325D01*
X134092084Y-104962315D01*
X134092082Y-104962312D01*
X134092082Y-104962310D01*
X134092081Y-104962308D01*
X134091990Y-104961968D01*
X134090497Y-104959564D01*
X134026989Y-104849565D01*
X134026987Y-104849563D01*
X134019612Y-104836789D01*
X134019610Y-104836787D01*
X134019609Y-104836785D01*
X133917115Y-104734291D01*
X133917112Y-104734289D01*
X133917110Y-104734287D01*
X133848874Y-104694891D01*
X133829456Y-104673325D01*
X155304400Y-104673325D01*
X155304400Y-104818274D01*
X155337485Y-104941749D01*
X155341918Y-104958293D01*
X155414385Y-105083808D01*
X155414387Y-105083810D01*
X155414389Y-105083812D01*
X155414391Y-105083815D01*
X155516885Y-105186309D01*
X155516887Y-105186310D01*
X155516994Y-105186417D01*
X155517245Y-105186603D01*
X155519438Y-105187784D01*
X155603450Y-105236288D01*
X155639657Y-105257192D01*
X155642070Y-105258690D01*
X155642408Y-105258780D01*
X155642411Y-105258782D01*
X155642412Y-105258782D01*
X155642415Y-105258784D01*
X155782425Y-105296300D01*
X155782426Y-105296300D01*
X155927374Y-105296300D01*
X155927375Y-105296300D01*
X156067385Y-105258784D01*
X156067386Y-105258783D01*
X156067388Y-105258782D01*
X156067389Y-105258782D01*
X156186780Y-105189851D01*
X156189668Y-105188448D01*
X156190454Y-105187931D01*
X156195463Y-105184837D01*
X156196762Y-105184086D01*
X156202120Y-105177103D01*
X156295409Y-105083815D01*
X156328886Y-105025832D01*
X156367882Y-104958289D01*
X156367882Y-104958287D01*
X156367884Y-104958285D01*
X156405400Y-104818275D01*
X156405400Y-104673325D01*
X156367884Y-104533315D01*
X156367882Y-104533312D01*
X156367882Y-104533310D01*
X156367881Y-104533308D01*
X156367790Y-104532968D01*
X156366297Y-104530564D01*
X156296885Y-104410339D01*
X156295705Y-104408147D01*
X156295517Y-104407894D01*
X156295410Y-104407787D01*
X156295409Y-104407785D01*
X156192915Y-104305291D01*
X156192912Y-104305289D01*
X156192910Y-104305287D01*
X156124674Y-104265891D01*
X156103641Y-104242531D01*
X156037797Y-104224887D01*
X156037796Y-104224887D01*
X155927375Y-104195300D01*
X155927373Y-104195300D01*
X155782423Y-104195300D01*
X155720688Y-104211841D01*
X155720687Y-104211840D01*
X155642412Y-104232815D01*
X155642406Y-104232818D01*
X155516893Y-104305283D01*
X155414383Y-104407793D01*
X155341918Y-104533305D01*
X155325338Y-104595185D01*
X155304400Y-104673325D01*
X133829456Y-104673325D01*
X133827841Y-104671531D01*
X133761997Y-104653887D01*
X133761996Y-104653887D01*
X133651575Y-104624300D01*
X133651573Y-104624300D01*
X133506623Y-104624300D01*
X133444888Y-104640841D01*
X133444887Y-104640840D01*
X133366612Y-104661815D01*
X133366606Y-104661818D01*
X133241093Y-104734283D01*
X133138583Y-104836793D01*
X133066116Y-104962310D01*
X133065839Y-104963044D01*
X133065549Y-104964283D01*
X133065556Y-104964380D01*
X133065403Y-104964974D01*
X133028600Y-105102325D01*
X113590413Y-105102325D01*
X113682655Y-105010083D01*
X113826106Y-104812639D01*
X113936904Y-104595185D01*
X114012321Y-104363076D01*
X114012322Y-104363071D01*
X114050500Y-104122030D01*
X114050500Y-103877969D01*
X114050499Y-103877965D01*
X114012323Y-103636934D01*
X114012322Y-103636928D01*
X114012321Y-103636924D01*
X113941684Y-103419525D01*
X138824500Y-103419525D01*
X138824500Y-103564474D01*
X138843913Y-103636924D01*
X138862018Y-103704493D01*
X138934485Y-103830008D01*
X138934487Y-103830010D01*
X138934489Y-103830012D01*
X138934491Y-103830015D01*
X139036985Y-103932509D01*
X139036987Y-103932510D01*
X139037094Y-103932617D01*
X139037345Y-103932803D01*
X139039538Y-103933984D01*
X139152107Y-103998975D01*
X139159757Y-104003392D01*
X139162170Y-104004890D01*
X139162508Y-104004980D01*
X139162511Y-104004982D01*
X139162512Y-104004982D01*
X139162515Y-104004984D01*
X139302525Y-104042500D01*
X139302526Y-104042500D01*
X139447474Y-104042500D01*
X139447475Y-104042500D01*
X139587485Y-104004984D01*
X139587486Y-104004983D01*
X139587488Y-104004982D01*
X139587489Y-104004982D01*
X139706880Y-103936051D01*
X139709768Y-103934648D01*
X139710554Y-103934131D01*
X139715563Y-103931037D01*
X139716862Y-103930286D01*
X139722222Y-103923301D01*
X139743522Y-103902002D01*
X139762944Y-103882580D01*
X139787995Y-103864379D01*
X139809764Y-103853288D01*
X139854705Y-103842500D01*
X164281342Y-103842500D01*
X164281344Y-103842500D01*
X164370488Y-103818614D01*
X164381112Y-103812480D01*
X164450412Y-103772470D01*
X165333802Y-102889079D01*
X165358854Y-102870878D01*
X165380621Y-102859788D01*
X165425562Y-102849000D01*
X165501174Y-102849000D01*
X165501175Y-102849000D01*
X165641185Y-102811484D01*
X165641186Y-102811483D01*
X165641188Y-102811482D01*
X165641189Y-102811482D01*
X165760580Y-102742551D01*
X165763468Y-102741148D01*
X165764254Y-102740631D01*
X165769263Y-102737537D01*
X165770562Y-102736786D01*
X165775920Y-102729803D01*
X165869209Y-102636515D01*
X165906681Y-102571612D01*
X165941682Y-102510989D01*
X165941682Y-102510987D01*
X165941684Y-102510985D01*
X165979200Y-102370975D01*
X165979200Y-102226025D01*
X165941684Y-102086015D01*
X165941682Y-102086012D01*
X165941682Y-102086010D01*
X165941681Y-102086008D01*
X165941590Y-102085668D01*
X165940097Y-102083264D01*
X165870685Y-101963039D01*
X165869505Y-101960847D01*
X165869317Y-101960594D01*
X165869210Y-101960487D01*
X165869209Y-101960485D01*
X165766715Y-101857991D01*
X165766712Y-101857989D01*
X165766710Y-101857987D01*
X165766709Y-101857986D01*
X165698475Y-101818591D01*
X165677441Y-101795230D01*
X165557095Y-101762984D01*
X165557094Y-101762983D01*
X165514625Y-101751604D01*
X165501175Y-101748000D01*
X165501174Y-101748000D01*
X165356226Y-101748000D01*
X165356225Y-101748000D01*
X165347310Y-101750388D01*
X165305122Y-101761692D01*
X165305123Y-101761693D01*
X165216210Y-101785517D01*
X165216208Y-101785517D01*
X165216204Y-101785519D01*
X165090693Y-101857983D01*
X164988183Y-101960493D01*
X164915718Y-102086005D01*
X164894742Y-102164287D01*
X164884216Y-102203575D01*
X164878200Y-102226026D01*
X164878200Y-102296629D01*
X164873354Y-102327222D01*
X164865807Y-102350449D01*
X164841657Y-102389860D01*
X164130100Y-103101417D01*
X164105043Y-103119621D01*
X164083285Y-103130708D01*
X164038338Y-103141500D01*
X139859712Y-103141500D01*
X139829119Y-103136654D01*
X139805892Y-103129107D01*
X139766482Y-103104957D01*
X139713019Y-103051495D01*
X139713015Y-103051491D01*
X139713010Y-103051487D01*
X139644774Y-103012091D01*
X139623741Y-102988731D01*
X139557897Y-102971087D01*
X139557896Y-102971087D01*
X139447475Y-102941500D01*
X139447473Y-102941500D01*
X139302523Y-102941500D01*
X139240788Y-102958041D01*
X139240787Y-102958040D01*
X139162512Y-102979015D01*
X139162506Y-102979018D01*
X139036993Y-103051483D01*
X138934483Y-103153993D01*
X138862018Y-103279505D01*
X138862017Y-103279510D01*
X138824500Y-103419525D01*
X113941684Y-103419525D01*
X113936904Y-103404815D01*
X113826106Y-103187361D01*
X113791900Y-103140281D01*
X113727388Y-103051487D01*
X113727388Y-103051486D01*
X113682657Y-102989920D01*
X113682656Y-102989919D01*
X113682655Y-102989917D01*
X113510083Y-102817345D01*
X113510079Y-102817342D01*
X113510077Y-102817340D01*
X113402268Y-102739012D01*
X113312640Y-102673893D01*
X113312636Y-102673891D01*
X113095185Y-102563096D01*
X112863066Y-102487675D01*
X112622033Y-102449500D01*
X112622030Y-102449500D01*
X112622027Y-102449500D01*
X112377973Y-102449500D01*
X112377970Y-102449500D01*
X112377967Y-102449500D01*
X112136932Y-102487675D01*
X111904813Y-102563096D01*
X111687363Y-102673890D01*
X111489919Y-102817343D01*
X111317343Y-102989919D01*
X111173890Y-103187363D01*
X111063096Y-103404813D01*
X110987675Y-103636932D01*
X110949500Y-103877965D01*
X100500000Y-103877965D01*
X100500000Y-101284825D01*
X139613900Y-101284825D01*
X139613900Y-101429774D01*
X139622665Y-101462485D01*
X139651418Y-101569793D01*
X139723885Y-101695308D01*
X139723887Y-101695310D01*
X139723889Y-101695312D01*
X139723891Y-101695315D01*
X139826385Y-101797809D01*
X139826387Y-101797810D01*
X139826494Y-101797917D01*
X139826745Y-101798103D01*
X139828938Y-101799284D01*
X139930614Y-101857986D01*
X139949157Y-101868692D01*
X139951570Y-101870190D01*
X139951908Y-101870280D01*
X139951911Y-101870282D01*
X139951912Y-101870282D01*
X139951915Y-101870284D01*
X140091925Y-101907800D01*
X140091926Y-101907800D01*
X140236874Y-101907800D01*
X140236875Y-101907800D01*
X140376885Y-101870284D01*
X140376886Y-101870283D01*
X140376888Y-101870282D01*
X140376889Y-101870282D01*
X140496280Y-101801351D01*
X140499168Y-101799948D01*
X140499954Y-101799431D01*
X140504963Y-101796337D01*
X140506262Y-101795586D01*
X140511620Y-101788603D01*
X140604909Y-101695315D01*
X140604912Y-101695310D01*
X140677382Y-101569789D01*
X140677382Y-101569787D01*
X140677384Y-101569785D01*
X140714900Y-101429775D01*
X140714900Y-101284825D01*
X140677384Y-101144815D01*
X140677382Y-101144812D01*
X140677382Y-101144810D01*
X140677381Y-101144808D01*
X140677290Y-101144468D01*
X140675797Y-101142064D01*
X140606385Y-101021839D01*
X140605205Y-101019647D01*
X140605017Y-101019394D01*
X140604910Y-101019287D01*
X140604909Y-101019285D01*
X140502415Y-100916791D01*
X140502412Y-100916789D01*
X140502410Y-100916787D01*
X140434174Y-100877391D01*
X140413141Y-100854031D01*
X140347297Y-100836387D01*
X140347296Y-100836387D01*
X140236875Y-100806800D01*
X140236873Y-100806800D01*
X140091923Y-100806800D01*
X140030188Y-100823341D01*
X140030187Y-100823340D01*
X139951912Y-100844315D01*
X139951906Y-100844318D01*
X139826393Y-100916783D01*
X139723883Y-101019293D01*
X139651418Y-101144805D01*
X139642651Y-101177525D01*
X139613900Y-101284825D01*
X100500000Y-101284825D01*
X100500000Y-97675320D01*
X110949500Y-97675320D01*
X110949500Y-100324678D01*
X110964033Y-100397737D01*
X110964035Y-100397742D01*
X111007296Y-100462489D01*
X111019397Y-100480599D01*
X111019400Y-100480602D01*
X111019403Y-100480604D01*
X111094036Y-100530471D01*
X111094035Y-100530471D01*
X111102260Y-100535966D01*
X111157807Y-100547015D01*
X111157808Y-100547015D01*
X111169240Y-100549289D01*
X111171405Y-100549863D01*
X111173579Y-100550216D01*
X111175152Y-100550500D01*
X111175326Y-100550500D01*
X111175327Y-100550500D01*
X113824673Y-100550500D01*
X113824674Y-100550500D01*
X113897740Y-100535966D01*
X113980601Y-100480601D01*
X114035966Y-100397740D01*
X114050500Y-100324674D01*
X114050500Y-99052325D01*
X144722600Y-99052325D01*
X144722600Y-99058340D01*
X144722600Y-99197274D01*
X144742865Y-99272908D01*
X144760116Y-99337288D01*
X144760118Y-99337292D01*
X144832585Y-99462808D01*
X144832587Y-99462810D01*
X144832589Y-99462812D01*
X144832591Y-99462815D01*
X144935085Y-99565309D01*
X144935087Y-99565310D01*
X144935194Y-99565417D01*
X144935445Y-99565603D01*
X144937646Y-99566788D01*
X145057857Y-99636192D01*
X145060270Y-99637690D01*
X145060608Y-99637780D01*
X145060611Y-99637782D01*
X145060612Y-99637782D01*
X145060615Y-99637784D01*
X145200625Y-99675300D01*
X145271230Y-99675300D01*
X145301821Y-99680145D01*
X145314158Y-99684153D01*
X145325047Y-99687691D01*
X145364460Y-99711842D01*
X147998931Y-102346312D01*
X147998930Y-102346312D01*
X148064186Y-102411567D01*
X148064190Y-102411571D01*
X148080493Y-102420983D01*
X148113102Y-102439810D01*
X148144112Y-102457714D01*
X148233256Y-102481600D01*
X154258088Y-102481600D01*
X154288679Y-102486445D01*
X154292465Y-102487675D01*
X154311905Y-102493991D01*
X154351317Y-102518142D01*
X154404784Y-102571608D01*
X154404789Y-102571612D01*
X154527579Y-102642504D01*
X154529971Y-102643991D01*
X154530312Y-102644082D01*
X154530315Y-102644084D01*
X154670325Y-102681600D01*
X154670326Y-102681600D01*
X154815274Y-102681600D01*
X154815275Y-102681600D01*
X154955285Y-102644084D01*
X154955286Y-102644083D01*
X154955288Y-102644082D01*
X154955289Y-102644082D01*
X155074680Y-102575151D01*
X155077568Y-102573748D01*
X155078354Y-102573231D01*
X155083363Y-102570137D01*
X155084662Y-102569386D01*
X155090020Y-102562403D01*
X155183309Y-102469115D01*
X155183312Y-102469110D01*
X155255782Y-102343589D01*
X155255782Y-102343587D01*
X155255784Y-102343585D01*
X155293300Y-102203575D01*
X155293300Y-102058625D01*
X155255784Y-101918615D01*
X155255782Y-101918612D01*
X155255782Y-101918610D01*
X155255781Y-101918608D01*
X155255690Y-101918268D01*
X155254197Y-101915864D01*
X155184785Y-101795639D01*
X155183605Y-101793447D01*
X155183417Y-101793194D01*
X155183310Y-101793087D01*
X155183309Y-101793085D01*
X155080815Y-101690591D01*
X155080812Y-101690589D01*
X155080810Y-101690587D01*
X155012574Y-101651191D01*
X154991541Y-101627831D01*
X154925697Y-101610187D01*
X154925696Y-101610187D01*
X154815275Y-101580600D01*
X154815273Y-101580600D01*
X154670323Y-101580600D01*
X154608588Y-101597141D01*
X154608587Y-101597140D01*
X154530312Y-101618115D01*
X154530309Y-101618116D01*
X154404787Y-101690588D01*
X154404778Y-101690596D01*
X154354855Y-101740518D01*
X154329800Y-101758721D01*
X154308042Y-101769808D01*
X154263095Y-101780600D01*
X148481269Y-101780600D01*
X148450676Y-101775754D01*
X148427449Y-101768207D01*
X148388038Y-101744057D01*
X147821506Y-101177525D01*
X161711600Y-101177525D01*
X161711600Y-101322474D01*
X161740351Y-101429774D01*
X161749118Y-101462493D01*
X161821585Y-101588008D01*
X161821587Y-101588010D01*
X161821589Y-101588012D01*
X161821591Y-101588015D01*
X161924085Y-101690509D01*
X161924087Y-101690510D01*
X161924194Y-101690617D01*
X161924445Y-101690803D01*
X161926638Y-101691984D01*
X162010702Y-101740518D01*
X162046857Y-101761392D01*
X162049270Y-101762890D01*
X162049608Y-101762980D01*
X162049611Y-101762982D01*
X162049612Y-101762982D01*
X162049615Y-101762984D01*
X162189625Y-101800500D01*
X162189626Y-101800500D01*
X162334574Y-101800500D01*
X162334575Y-101800500D01*
X162474585Y-101762984D01*
X162474586Y-101762983D01*
X162474588Y-101762982D01*
X162474589Y-101762982D01*
X162593980Y-101694051D01*
X162596868Y-101692648D01*
X162597654Y-101692131D01*
X162602663Y-101689037D01*
X162603962Y-101688286D01*
X162609320Y-101681303D01*
X162702609Y-101588015D01*
X162713132Y-101569789D01*
X162775082Y-101462489D01*
X162775082Y-101462487D01*
X162775084Y-101462485D01*
X162812600Y-101322475D01*
X162812600Y-101177525D01*
X162775084Y-101037515D01*
X162775082Y-101037512D01*
X162775082Y-101037510D01*
X162775081Y-101037508D01*
X162774990Y-101037168D01*
X162773497Y-101034764D01*
X162704085Y-100914539D01*
X162702905Y-100912347D01*
X162702717Y-100912094D01*
X162702610Y-100911987D01*
X162702609Y-100911985D01*
X162600115Y-100809491D01*
X162600112Y-100809489D01*
X162600110Y-100809487D01*
X162531874Y-100770091D01*
X162510841Y-100746731D01*
X162444997Y-100729087D01*
X162444996Y-100729087D01*
X162334575Y-100699500D01*
X162334573Y-100699500D01*
X162189623Y-100699500D01*
X162127888Y-100716041D01*
X162127887Y-100716040D01*
X162049612Y-100737015D01*
X162049606Y-100737018D01*
X161924093Y-100809483D01*
X161821583Y-100911993D01*
X161749118Y-101037505D01*
X161728142Y-101115787D01*
X161711600Y-101177525D01*
X147821506Y-101177525D01*
X147106470Y-100462489D01*
X145863682Y-99219700D01*
X145845476Y-99194641D01*
X145834388Y-99172879D01*
X145823600Y-99127937D01*
X145823600Y-99052325D01*
X145821608Y-99044891D01*
X145786084Y-98912315D01*
X145781789Y-98904875D01*
X145722934Y-98802936D01*
X145722933Y-98802933D01*
X145714952Y-98789112D01*
X145713609Y-98786785D01*
X145686749Y-98759925D01*
X146090800Y-98759925D01*
X146090800Y-98904875D01*
X146120387Y-99015296D01*
X146124965Y-99032382D01*
X146128317Y-99044891D01*
X146128318Y-99044892D01*
X146200785Y-99170408D01*
X146200787Y-99170410D01*
X146200789Y-99170412D01*
X146200791Y-99170415D01*
X146303285Y-99272909D01*
X146303287Y-99272910D01*
X146303394Y-99273017D01*
X146303645Y-99273203D01*
X146305846Y-99274388D01*
X146426057Y-99343792D01*
X146428470Y-99345290D01*
X146428808Y-99345380D01*
X146428811Y-99345382D01*
X146428812Y-99345382D01*
X146428815Y-99345384D01*
X146568825Y-99382900D01*
X146639430Y-99382900D01*
X146670021Y-99387745D01*
X146682358Y-99391753D01*
X146693247Y-99395291D01*
X146732660Y-99419442D01*
X147843688Y-100530470D01*
X147843690Y-100530471D01*
X147844242Y-100530869D01*
X147846255Y-100531952D01*
X147917300Y-100572971D01*
X147917317Y-100572979D01*
X147923612Y-100576614D01*
X148012756Y-100600500D01*
X155586688Y-100600500D01*
X155617279Y-100605345D01*
X155629616Y-100609353D01*
X155640505Y-100612891D01*
X155679917Y-100637042D01*
X155733384Y-100690508D01*
X155733389Y-100690512D01*
X155856179Y-100761404D01*
X155858571Y-100762891D01*
X155858912Y-100762982D01*
X155858915Y-100762984D01*
X155998925Y-100800500D01*
X155998926Y-100800500D01*
X156143874Y-100800500D01*
X156143875Y-100800500D01*
X156283885Y-100762984D01*
X156283886Y-100762983D01*
X156283888Y-100762982D01*
X156283889Y-100762982D01*
X156403280Y-100694051D01*
X156406168Y-100692648D01*
X156406954Y-100692131D01*
X156411963Y-100689037D01*
X156413262Y-100688286D01*
X156418620Y-100681303D01*
X156511909Y-100588015D01*
X156511912Y-100588010D01*
X156584382Y-100462489D01*
X156584382Y-100462487D01*
X156584384Y-100462485D01*
X156621900Y-100322475D01*
X156621900Y-100177525D01*
X156584384Y-100037515D01*
X156584382Y-100037512D01*
X156584382Y-100037510D01*
X156584381Y-100037508D01*
X156584290Y-100037168D01*
X156582797Y-100034764D01*
X156513385Y-99914539D01*
X156512205Y-99912347D01*
X156512017Y-99912094D01*
X156511910Y-99911987D01*
X156511909Y-99911985D01*
X156409415Y-99809491D01*
X156409412Y-99809489D01*
X156409410Y-99809487D01*
X156341174Y-99770091D01*
X156320141Y-99746731D01*
X156254297Y-99729087D01*
X156254296Y-99729087D01*
X156143875Y-99699500D01*
X156143873Y-99699500D01*
X155998923Y-99699500D01*
X155937188Y-99716041D01*
X155937187Y-99716040D01*
X155858912Y-99737015D01*
X155858909Y-99737016D01*
X155733387Y-99809488D01*
X155733378Y-99809496D01*
X155683455Y-99859418D01*
X155658400Y-99877621D01*
X155636642Y-99888708D01*
X155591695Y-99899500D01*
X148260770Y-99899500D01*
X148230177Y-99894654D01*
X148206950Y-99887107D01*
X148167539Y-99862957D01*
X147231882Y-98927300D01*
X147213676Y-98902241D01*
X147202588Y-98880479D01*
X147191800Y-98835537D01*
X147191800Y-98759926D01*
X147191800Y-98759925D01*
X147181126Y-98720087D01*
X147181125Y-98720084D01*
X147181125Y-98720083D01*
X147157464Y-98631784D01*
X147154284Y-98619915D01*
X147154282Y-98619912D01*
X147154282Y-98619910D01*
X147154281Y-98619909D01*
X147154191Y-98619571D01*
X147152697Y-98617164D01*
X147083285Y-98496939D01*
X147082105Y-98494747D01*
X147081917Y-98494494D01*
X147081810Y-98494387D01*
X147081809Y-98494385D01*
X146979315Y-98391891D01*
X146979312Y-98391889D01*
X146979310Y-98391887D01*
X146979309Y-98391886D01*
X146911075Y-98352491D01*
X146890041Y-98329130D01*
X146763093Y-98295115D01*
X146763092Y-98295114D01*
X146726989Y-98285440D01*
X146713775Y-98281900D01*
X146713774Y-98281900D01*
X146568826Y-98281900D01*
X146568825Y-98281900D01*
X146558407Y-98284691D01*
X146519525Y-98295109D01*
X146519525Y-98295110D01*
X146428810Y-98319417D01*
X146428808Y-98319417D01*
X146428804Y-98319419D01*
X146303293Y-98391883D01*
X146200783Y-98494393D01*
X146128318Y-98619906D01*
X146128316Y-98619910D01*
X146115082Y-98669299D01*
X146115083Y-98669300D01*
X146090800Y-98759925D01*
X145686749Y-98759925D01*
X145611115Y-98684291D01*
X145611112Y-98684289D01*
X145611110Y-98684287D01*
X145611109Y-98684286D01*
X145542875Y-98644891D01*
X145521841Y-98621530D01*
X145367127Y-98580075D01*
X145367127Y-98580074D01*
X145367125Y-98580074D01*
X145345577Y-98574300D01*
X145345575Y-98574300D01*
X145200625Y-98574300D01*
X145179077Y-98580074D01*
X145179073Y-98580075D01*
X145060605Y-98611818D01*
X144935093Y-98684283D01*
X144832583Y-98786793D01*
X144760116Y-98912310D01*
X144759839Y-98913044D01*
X144759549Y-98914283D01*
X144759556Y-98914380D01*
X144759403Y-98914974D01*
X144722600Y-99052325D01*
X114050500Y-99052325D01*
X114050500Y-98046325D01*
X155697600Y-98046325D01*
X155697600Y-98191274D01*
X155730685Y-98314749D01*
X155735118Y-98331293D01*
X155807585Y-98456808D01*
X155807587Y-98456810D01*
X155807589Y-98456812D01*
X155807591Y-98456815D01*
X155910085Y-98559309D01*
X155910087Y-98559310D01*
X155910194Y-98559417D01*
X155910445Y-98559603D01*
X155912638Y-98560784D01*
X155936049Y-98574300D01*
X156032857Y-98630192D01*
X156035270Y-98631690D01*
X156035608Y-98631780D01*
X156035611Y-98631782D01*
X156035612Y-98631782D01*
X156035615Y-98631784D01*
X156175625Y-98669300D01*
X156175626Y-98669300D01*
X156320574Y-98669300D01*
X156320575Y-98669300D01*
X156460585Y-98631784D01*
X156460586Y-98631783D01*
X156460588Y-98631782D01*
X156460589Y-98631782D01*
X156579980Y-98562851D01*
X156582868Y-98561448D01*
X156583654Y-98560931D01*
X156588663Y-98557837D01*
X156589962Y-98557086D01*
X156595320Y-98550103D01*
X156688609Y-98456815D01*
X156688612Y-98456810D01*
X156701132Y-98435125D01*
X164588100Y-98435125D01*
X164588100Y-98441140D01*
X164588100Y-98580074D01*
X164598774Y-98619911D01*
X164598773Y-98619911D01*
X164625615Y-98720084D01*
X164625618Y-98720092D01*
X164698085Y-98845608D01*
X164698087Y-98845610D01*
X164698089Y-98845612D01*
X164698091Y-98845615D01*
X164800585Y-98948109D01*
X164800587Y-98948110D01*
X164800694Y-98948217D01*
X164800945Y-98948403D01*
X164803138Y-98949584D01*
X164915707Y-99014575D01*
X164923357Y-99018992D01*
X164925770Y-99020490D01*
X164926108Y-99020580D01*
X164926111Y-99020582D01*
X164926112Y-99020582D01*
X164926115Y-99020584D01*
X165066125Y-99058100D01*
X165066126Y-99058100D01*
X165211074Y-99058100D01*
X165211075Y-99058100D01*
X165351085Y-99020584D01*
X165351086Y-99020583D01*
X165351088Y-99020582D01*
X165351089Y-99020582D01*
X165470480Y-98951651D01*
X165473368Y-98950248D01*
X165474154Y-98949731D01*
X165479163Y-98946637D01*
X165480462Y-98945886D01*
X165485820Y-98938903D01*
X165579109Y-98845615D01*
X165603751Y-98802934D01*
X165651582Y-98720089D01*
X165651582Y-98720087D01*
X165651584Y-98720085D01*
X165689100Y-98580075D01*
X165689100Y-98435125D01*
X165651584Y-98295115D01*
X165651582Y-98295112D01*
X165651582Y-98295110D01*
X165651581Y-98295108D01*
X165651490Y-98294768D01*
X165649997Y-98292364D01*
X165580585Y-98172139D01*
X165579405Y-98169947D01*
X165579217Y-98169694D01*
X165579110Y-98169587D01*
X165579109Y-98169585D01*
X165476615Y-98067091D01*
X165476612Y-98067089D01*
X165476610Y-98067087D01*
X165408374Y-98027691D01*
X165387341Y-98004331D01*
X165321497Y-97986687D01*
X165321496Y-97986687D01*
X165211075Y-97957100D01*
X165211073Y-97957100D01*
X165066123Y-97957100D01*
X165004388Y-97973641D01*
X165004387Y-97973640D01*
X164926112Y-97994615D01*
X164926109Y-97994617D01*
X164800593Y-98067083D01*
X164698083Y-98169593D01*
X164625616Y-98295110D01*
X164625339Y-98295844D01*
X164625049Y-98297083D01*
X164625056Y-98297180D01*
X164624903Y-98297774D01*
X164588100Y-98435125D01*
X156701132Y-98435125D01*
X156733458Y-98379136D01*
X156761082Y-98331289D01*
X156761082Y-98331286D01*
X156761084Y-98331285D01*
X156798600Y-98191275D01*
X156798600Y-98046325D01*
X156761084Y-97906315D01*
X156761082Y-97906312D01*
X156761082Y-97906310D01*
X156761081Y-97906308D01*
X156760990Y-97905968D01*
X156759497Y-97903564D01*
X156690085Y-97783339D01*
X156688905Y-97781147D01*
X156688717Y-97780894D01*
X156688610Y-97780787D01*
X156688609Y-97780785D01*
X156586115Y-97678291D01*
X156586112Y-97678289D01*
X156586110Y-97678287D01*
X156517874Y-97638891D01*
X156496841Y-97615531D01*
X156430997Y-97597887D01*
X156430996Y-97597887D01*
X156320575Y-97568300D01*
X156320573Y-97568300D01*
X156175623Y-97568300D01*
X156113888Y-97584841D01*
X156113887Y-97584840D01*
X156035612Y-97605815D01*
X156035606Y-97605818D01*
X155910093Y-97678283D01*
X155807583Y-97780793D01*
X155735118Y-97906305D01*
X155721508Y-97957100D01*
X155697600Y-98046325D01*
X114050500Y-98046325D01*
X114050500Y-97675326D01*
X114035966Y-97602260D01*
X113980601Y-97519399D01*
X113980599Y-97519397D01*
X113980595Y-97519394D01*
X113980593Y-97519392D01*
X113897748Y-97464038D01*
X113897737Y-97464032D01*
X113897534Y-97463964D01*
X113895997Y-97463687D01*
X113824694Y-97449503D01*
X113824684Y-97449501D01*
X113824679Y-97449500D01*
X113824676Y-97449500D01*
X113824674Y-97449500D01*
X111175326Y-97449500D01*
X111175325Y-97449500D01*
X111175322Y-97449500D01*
X111175318Y-97449500D01*
X111175315Y-97449501D01*
X111144947Y-97455542D01*
X111102261Y-97464033D01*
X111102256Y-97464035D01*
X111019403Y-97519394D01*
X111019394Y-97519403D01*
X110964035Y-97602256D01*
X110964033Y-97602261D01*
X110949500Y-97675320D01*
X100500000Y-97675320D01*
X100500000Y-96502725D01*
X154397600Y-96502725D01*
X154397600Y-96508740D01*
X154397600Y-96647677D01*
X154399833Y-96656009D01*
X154399833Y-96656015D01*
X154399835Y-96656015D01*
X154435118Y-96787693D01*
X154507585Y-96913208D01*
X154507587Y-96913210D01*
X154507589Y-96913212D01*
X154507591Y-96913215D01*
X154610085Y-97015709D01*
X154610087Y-97015710D01*
X154610194Y-97015817D01*
X154610445Y-97016003D01*
X154612638Y-97017184D01*
X154653037Y-97040508D01*
X154732857Y-97086592D01*
X154735270Y-97088090D01*
X154735608Y-97088180D01*
X154735611Y-97088182D01*
X154735612Y-97088182D01*
X154735615Y-97088184D01*
X154875625Y-97125700D01*
X154875626Y-97125700D01*
X155020574Y-97125700D01*
X155020575Y-97125700D01*
X155160585Y-97088184D01*
X155160586Y-97088183D01*
X155160588Y-97088182D01*
X155160589Y-97088182D01*
X155279980Y-97019251D01*
X155282868Y-97017848D01*
X155283654Y-97017331D01*
X155288663Y-97014237D01*
X155289962Y-97013486D01*
X155295320Y-97006503D01*
X155388609Y-96913215D01*
X155414929Y-96867628D01*
X155431619Y-96838721D01*
X157320700Y-96838721D01*
X157320700Y-96838724D01*
X157320700Y-96838725D01*
X157320700Y-96983675D01*
X157335929Y-97040509D01*
X157358217Y-97123689D01*
X157358218Y-97123691D01*
X157358219Y-97123694D01*
X157430685Y-97249208D01*
X157430687Y-97249210D01*
X157430689Y-97249212D01*
X157430691Y-97249215D01*
X157533185Y-97351709D01*
X157533187Y-97351710D01*
X157533294Y-97351817D01*
X157533545Y-97352003D01*
X157535738Y-97353184D01*
X157584756Y-97381484D01*
X157655957Y-97422592D01*
X157658370Y-97424090D01*
X157658708Y-97424180D01*
X157658711Y-97424182D01*
X157658712Y-97424182D01*
X157658715Y-97424184D01*
X157798725Y-97461700D01*
X157798726Y-97461700D01*
X157943674Y-97461700D01*
X157943675Y-97461700D01*
X158083685Y-97424184D01*
X158083686Y-97424183D01*
X158083688Y-97424182D01*
X158083689Y-97424182D01*
X158203080Y-97355251D01*
X158205968Y-97353848D01*
X158206754Y-97353331D01*
X158211763Y-97350237D01*
X158213062Y-97349486D01*
X158218420Y-97342503D01*
X158311709Y-97249215D01*
X158352181Y-97179116D01*
X158384182Y-97123689D01*
X158384182Y-97123687D01*
X158384184Y-97123685D01*
X158421700Y-96983675D01*
X158421700Y-96838725D01*
X158410258Y-96796025D01*
X160180300Y-96796025D01*
X160180300Y-96940974D01*
X160201276Y-97019257D01*
X160217818Y-97080993D01*
X160290285Y-97206508D01*
X160290287Y-97206510D01*
X160290289Y-97206512D01*
X160290291Y-97206515D01*
X160392785Y-97309009D01*
X160392787Y-97309010D01*
X160392894Y-97309117D01*
X160393145Y-97309303D01*
X160395346Y-97310488D01*
X160504454Y-97373482D01*
X160504455Y-97373482D01*
X160518311Y-97381482D01*
X160518312Y-97381482D01*
X160518315Y-97381484D01*
X160658325Y-97419000D01*
X160671468Y-97419000D01*
X160684251Y-97422484D01*
X160685536Y-97423326D01*
X160688810Y-97423845D01*
X160701147Y-97427853D01*
X160712036Y-97431391D01*
X160751449Y-97455542D01*
X161308487Y-98012580D01*
X161308488Y-98012580D01*
X161308596Y-98012688D01*
X161308847Y-98012875D01*
X161311042Y-98014056D01*
X161343038Y-98032529D01*
X161364632Y-98056511D01*
X161398958Y-98065093D01*
X161400559Y-98065507D01*
X161501673Y-98092600D01*
X161897189Y-98092600D01*
X161927780Y-98097444D01*
X161951006Y-98104991D01*
X161990414Y-98129139D01*
X161993988Y-98132713D01*
X161994245Y-98132903D01*
X161996438Y-98134084D01*
X162057928Y-98169585D01*
X162116657Y-98203492D01*
X162119070Y-98204990D01*
X162119408Y-98205080D01*
X162119411Y-98205082D01*
X162119412Y-98205082D01*
X162119415Y-98205084D01*
X162259425Y-98242600D01*
X162259426Y-98242600D01*
X162404374Y-98242600D01*
X162404375Y-98242600D01*
X162544385Y-98205084D01*
X162544386Y-98205083D01*
X162544388Y-98205082D01*
X162544389Y-98205082D01*
X162663780Y-98136151D01*
X162666668Y-98134748D01*
X162667454Y-98134231D01*
X162672463Y-98131137D01*
X162673762Y-98130386D01*
X162679120Y-98123403D01*
X162772409Y-98030115D01*
X162792904Y-97994617D01*
X162844882Y-97904589D01*
X162844882Y-97904587D01*
X162844884Y-97904585D01*
X162882400Y-97764575D01*
X162882400Y-97619625D01*
X162844884Y-97479615D01*
X162844882Y-97479612D01*
X162844882Y-97479610D01*
X162844880Y-97479607D01*
X162844790Y-97479270D01*
X162843304Y-97476878D01*
X162773880Y-97356632D01*
X162772703Y-97354444D01*
X162772517Y-97354194D01*
X162772410Y-97354087D01*
X162772409Y-97354085D01*
X162669915Y-97251591D01*
X162669912Y-97251589D01*
X162669910Y-97251587D01*
X162601674Y-97212191D01*
X162580641Y-97188831D01*
X162514797Y-97171187D01*
X162514796Y-97171187D01*
X162404375Y-97141600D01*
X162404373Y-97141600D01*
X162259423Y-97141600D01*
X162197688Y-97158141D01*
X162197687Y-97158140D01*
X162119412Y-97179115D01*
X162119406Y-97179118D01*
X161992917Y-97252147D01*
X161991143Y-97253417D01*
X161973229Y-97265360D01*
X161972011Y-97263534D01*
X161962229Y-97273121D01*
X161947141Y-97280809D01*
X161902195Y-97291600D01*
X161776981Y-97291600D01*
X161746388Y-97286754D01*
X161723161Y-97279207D01*
X161683750Y-97255057D01*
X161321382Y-96892689D01*
X161303176Y-96867630D01*
X161292088Y-96845868D01*
X161281300Y-96800926D01*
X161281300Y-96796022D01*
X161279066Y-96787687D01*
X161279064Y-96787682D01*
X161255225Y-96698715D01*
X161243784Y-96656015D01*
X161243782Y-96656012D01*
X161243782Y-96656010D01*
X161243781Y-96656008D01*
X161243690Y-96655668D01*
X161242197Y-96653264D01*
X161172785Y-96533039D01*
X161171605Y-96530847D01*
X161171417Y-96530594D01*
X161171310Y-96530487D01*
X161171309Y-96530485D01*
X161068815Y-96427991D01*
X161068812Y-96427989D01*
X161068810Y-96427987D01*
X161000574Y-96388591D01*
X160979541Y-96365231D01*
X160913697Y-96347587D01*
X160913696Y-96347587D01*
X160803275Y-96318000D01*
X160803273Y-96318000D01*
X160658323Y-96318000D01*
X160596588Y-96334541D01*
X160596587Y-96334540D01*
X160518312Y-96355515D01*
X160518306Y-96355518D01*
X160392793Y-96427983D01*
X160290283Y-96530493D01*
X160217818Y-96656005D01*
X160206375Y-96698712D01*
X160180300Y-96796025D01*
X158410258Y-96796025D01*
X158384184Y-96698715D01*
X158384182Y-96698712D01*
X158384182Y-96698710D01*
X158359532Y-96656015D01*
X158313185Y-96575739D01*
X158312005Y-96573547D01*
X158311817Y-96573294D01*
X158311710Y-96573187D01*
X158311709Y-96573185D01*
X158209215Y-96470691D01*
X158209212Y-96470689D01*
X158209210Y-96470687D01*
X158209209Y-96470686D01*
X158140975Y-96431291D01*
X158119941Y-96407930D01*
X158043749Y-96387515D01*
X158005406Y-96377241D01*
X157943675Y-96360700D01*
X157943674Y-96360700D01*
X157798723Y-96360700D01*
X157736988Y-96377241D01*
X157736987Y-96377240D01*
X157658712Y-96398215D01*
X157658706Y-96398218D01*
X157533193Y-96470683D01*
X157430683Y-96573193D01*
X157358218Y-96698706D01*
X157358216Y-96698710D01*
X157327967Y-96811600D01*
X157320700Y-96838721D01*
X155431619Y-96838721D01*
X155461081Y-96787691D01*
X155461083Y-96787687D01*
X155461085Y-96787682D01*
X155498600Y-96647675D01*
X155498600Y-96502725D01*
X155461084Y-96362715D01*
X155461082Y-96362712D01*
X155461082Y-96362710D01*
X155461081Y-96362708D01*
X155460990Y-96362368D01*
X155459497Y-96359964D01*
X155390085Y-96239739D01*
X155388905Y-96237547D01*
X155388717Y-96237294D01*
X155388610Y-96237187D01*
X155388609Y-96237185D01*
X155286115Y-96134691D01*
X155286112Y-96134689D01*
X155286110Y-96134687D01*
X155286109Y-96134686D01*
X155217875Y-96095291D01*
X155196841Y-96071930D01*
X155113129Y-96049500D01*
X155082306Y-96041241D01*
X155020575Y-96024700D01*
X155020574Y-96024700D01*
X154875623Y-96024700D01*
X154813888Y-96041241D01*
X154813887Y-96041240D01*
X154735612Y-96062215D01*
X154735606Y-96062218D01*
X154610093Y-96134683D01*
X154507583Y-96237193D01*
X154435116Y-96362710D01*
X154434839Y-96363444D01*
X154434549Y-96364683D01*
X154434556Y-96364780D01*
X154434403Y-96365374D01*
X154397600Y-96502725D01*
X100500000Y-96502725D01*
X100500000Y-95252525D01*
X161809000Y-95252525D01*
X161809000Y-95397474D01*
X161842085Y-95520949D01*
X161846518Y-95537493D01*
X161918985Y-95663008D01*
X161918987Y-95663010D01*
X161918989Y-95663012D01*
X161918991Y-95663015D01*
X162021485Y-95765509D01*
X162021487Y-95765510D01*
X162021594Y-95765617D01*
X162021845Y-95765803D01*
X162024038Y-95766984D01*
X162136607Y-95831975D01*
X162144257Y-95836392D01*
X162146670Y-95837890D01*
X162147008Y-95837980D01*
X162147011Y-95837982D01*
X162147012Y-95837982D01*
X162147015Y-95837984D01*
X162287025Y-95875500D01*
X162287026Y-95875500D01*
X162431974Y-95875500D01*
X162431975Y-95875500D01*
X162571985Y-95837984D01*
X162571986Y-95837983D01*
X162571988Y-95837982D01*
X162571989Y-95837982D01*
X162691380Y-95769051D01*
X162694268Y-95767648D01*
X162695054Y-95767131D01*
X162700063Y-95764037D01*
X162701362Y-95763286D01*
X162706720Y-95756303D01*
X162800009Y-95663015D01*
X162800013Y-95663008D01*
X162872482Y-95537489D01*
X162872482Y-95537487D01*
X162872484Y-95537485D01*
X162910000Y-95397475D01*
X162910000Y-95252525D01*
X162872484Y-95112515D01*
X162872482Y-95112512D01*
X162872482Y-95112510D01*
X162872481Y-95112508D01*
X162872390Y-95112168D01*
X162870897Y-95109764D01*
X162801485Y-94989539D01*
X162800305Y-94987347D01*
X162800117Y-94987094D01*
X162800010Y-94986987D01*
X162800009Y-94986985D01*
X162697515Y-94884491D01*
X162697512Y-94884489D01*
X162697510Y-94884487D01*
X162629274Y-94845091D01*
X162608241Y-94821731D01*
X162542397Y-94804087D01*
X162542396Y-94804087D01*
X162431975Y-94774500D01*
X162431973Y-94774500D01*
X162287023Y-94774500D01*
X162225288Y-94791041D01*
X162225287Y-94791040D01*
X162147012Y-94812015D01*
X162147006Y-94812018D01*
X162021493Y-94884483D01*
X161918983Y-94986993D01*
X161846518Y-95112505D01*
X161825542Y-95190787D01*
X161809000Y-95252525D01*
X100500000Y-95252525D01*
X100500000Y-94011925D01*
X154901800Y-94011925D01*
X154901800Y-94156874D01*
X154937547Y-94290284D01*
X154939317Y-94296889D01*
X154939318Y-94296892D01*
X155011785Y-94422408D01*
X155011787Y-94422410D01*
X155011789Y-94422412D01*
X155011791Y-94422415D01*
X155114285Y-94524909D01*
X155114287Y-94524910D01*
X155114394Y-94525017D01*
X155114645Y-94525203D01*
X155116838Y-94526384D01*
X155228379Y-94590782D01*
X155237057Y-94595792D01*
X155239470Y-94597290D01*
X155239808Y-94597380D01*
X155239811Y-94597382D01*
X155239812Y-94597382D01*
X155239815Y-94597384D01*
X155379825Y-94634900D01*
X155379826Y-94634900D01*
X155524774Y-94634900D01*
X155524775Y-94634900D01*
X155664785Y-94597384D01*
X155664786Y-94597383D01*
X155664788Y-94597382D01*
X155664789Y-94597382D01*
X155784180Y-94528451D01*
X155787067Y-94527049D01*
X155787849Y-94526534D01*
X155792862Y-94523438D01*
X155794159Y-94522688D01*
X155799514Y-94515709D01*
X155809016Y-94506206D01*
X155834066Y-94488008D01*
X155845953Y-94481951D01*
X155906381Y-94472381D01*
X155911420Y-94473179D01*
X155949550Y-94487739D01*
X155952954Y-94489932D01*
X155960100Y-94495124D01*
X155983285Y-94518309D01*
X155983287Y-94518310D01*
X155983289Y-94518312D01*
X156108811Y-94590782D01*
X156108812Y-94590782D01*
X156108815Y-94590784D01*
X156248825Y-94628300D01*
X156248826Y-94628300D01*
X156393774Y-94628300D01*
X156393775Y-94628300D01*
X156533785Y-94590784D01*
X156533786Y-94590783D01*
X156533788Y-94590782D01*
X156533789Y-94590782D01*
X156653180Y-94521851D01*
X156656068Y-94520448D01*
X156656854Y-94519931D01*
X156661863Y-94516837D01*
X156663162Y-94516086D01*
X156668520Y-94509103D01*
X156761809Y-94415815D01*
X156791565Y-94364276D01*
X156830440Y-94296944D01*
X156830453Y-94296919D01*
X156830471Y-94296889D01*
X156834282Y-94290289D01*
X156834282Y-94290287D01*
X156834284Y-94290285D01*
X156871800Y-94150275D01*
X156871800Y-94005325D01*
X156834284Y-93865315D01*
X156834282Y-93865312D01*
X156834282Y-93865310D01*
X156834281Y-93865308D01*
X156834190Y-93864968D01*
X156832697Y-93862564D01*
X156763285Y-93742339D01*
X156762105Y-93740147D01*
X156761917Y-93739894D01*
X156761810Y-93739787D01*
X156761809Y-93739785D01*
X156659315Y-93637291D01*
X156659312Y-93637289D01*
X156659310Y-93637287D01*
X156591074Y-93597891D01*
X156570041Y-93574531D01*
X156504197Y-93556887D01*
X156504196Y-93556887D01*
X156393775Y-93527300D01*
X156393773Y-93527300D01*
X156248825Y-93527300D01*
X156224193Y-93533899D01*
X156224194Y-93533900D01*
X156108810Y-93564817D01*
X156108808Y-93564817D01*
X156108804Y-93564819D01*
X155983293Y-93637283D01*
X155983284Y-93637290D01*
X155983279Y-93637296D01*
X155964588Y-93655986D01*
X155939527Y-93674193D01*
X155927644Y-93680247D01*
X155867219Y-93689817D01*
X155862186Y-93689020D01*
X155807668Y-93661244D01*
X155807668Y-93661243D01*
X155790312Y-93643888D01*
X155722075Y-93604491D01*
X155701041Y-93581130D01*
X155586726Y-93550500D01*
X155586502Y-93550440D01*
X155524775Y-93533900D01*
X155524774Y-93533900D01*
X155379823Y-93533900D01*
X155318088Y-93550441D01*
X155318087Y-93550440D01*
X155239812Y-93571415D01*
X155239806Y-93571418D01*
X155114293Y-93643883D01*
X155011783Y-93746393D01*
X154939318Y-93871905D01*
X154939317Y-93871910D01*
X154901800Y-94011925D01*
X100500000Y-94011925D01*
X100500000Y-91877965D01*
X110949500Y-91877965D01*
X110949500Y-92122033D01*
X110987675Y-92363066D01*
X111063096Y-92595185D01*
X111173892Y-92812637D01*
X111246436Y-92912485D01*
X111317345Y-93010083D01*
X111489917Y-93182655D01*
X111489920Y-93182657D01*
X111583297Y-93250500D01*
X111583298Y-93250500D01*
X111687362Y-93326107D01*
X111796088Y-93381505D01*
X111904815Y-93436904D01*
X112136822Y-93512288D01*
X112136923Y-93512321D01*
X112136926Y-93512321D01*
X112136928Y-93512322D01*
X112210328Y-93523947D01*
X112377967Y-93550500D01*
X112622030Y-93550500D01*
X112622032Y-93550500D01*
X112696080Y-93538771D01*
X112863071Y-93512322D01*
X112863071Y-93512321D01*
X112863073Y-93512321D01*
X112863076Y-93512321D01*
X112863079Y-93512320D01*
X112865655Y-93511912D01*
X112870462Y-93509920D01*
X113095185Y-93436904D01*
X113312639Y-93326106D01*
X113510083Y-93182655D01*
X113682655Y-93010083D01*
X113826106Y-92812639D01*
X113936904Y-92595185D01*
X114012321Y-92363076D01*
X114038572Y-92197338D01*
X114050500Y-92122030D01*
X114050500Y-91877969D01*
X114050499Y-91877965D01*
X114018257Y-91674400D01*
X114012322Y-91636928D01*
X113984240Y-91550500D01*
X113936904Y-91404815D01*
X113826106Y-91187361D01*
X113727343Y-91051425D01*
X154933200Y-91051425D01*
X154933200Y-91196374D01*
X154966285Y-91319849D01*
X154970718Y-91336393D01*
X155043185Y-91461908D01*
X155043187Y-91461910D01*
X155043189Y-91461912D01*
X155043191Y-91461915D01*
X155145685Y-91564409D01*
X155145687Y-91564410D01*
X155145794Y-91564517D01*
X155146045Y-91564703D01*
X155148238Y-91565884D01*
X155260807Y-91630875D01*
X155268457Y-91635292D01*
X155270870Y-91636790D01*
X155271208Y-91636880D01*
X155271211Y-91636882D01*
X155271212Y-91636882D01*
X155271215Y-91636884D01*
X155411225Y-91674400D01*
X155411226Y-91674400D01*
X155556174Y-91674400D01*
X155556175Y-91674400D01*
X155696185Y-91636884D01*
X155696186Y-91636883D01*
X155696188Y-91636882D01*
X155696189Y-91636882D01*
X155815580Y-91567951D01*
X155818468Y-91566548D01*
X155819254Y-91566031D01*
X155824263Y-91562937D01*
X155825562Y-91562186D01*
X155830920Y-91555203D01*
X155924209Y-91461915D01*
X155957176Y-91404815D01*
X155996682Y-91336389D01*
X155996682Y-91336387D01*
X155996684Y-91336385D01*
X156034200Y-91196375D01*
X156034200Y-91051425D01*
X155996684Y-90911415D01*
X155996682Y-90911412D01*
X155996682Y-90911410D01*
X155996681Y-90911408D01*
X155996590Y-90911068D01*
X155995097Y-90908664D01*
X155925685Y-90788439D01*
X155924505Y-90786247D01*
X155924317Y-90785994D01*
X155924210Y-90785887D01*
X155924209Y-90785885D01*
X155821715Y-90683391D01*
X155821712Y-90683389D01*
X155821710Y-90683387D01*
X155753474Y-90643991D01*
X155732441Y-90620631D01*
X155666597Y-90602987D01*
X155666596Y-90602987D01*
X155556175Y-90573400D01*
X155556173Y-90573400D01*
X155411223Y-90573400D01*
X155349488Y-90589941D01*
X155349487Y-90589940D01*
X155271212Y-90610915D01*
X155271206Y-90610918D01*
X155145693Y-90683383D01*
X155043183Y-90785893D01*
X154970718Y-90911405D01*
X154949742Y-90989687D01*
X154933200Y-91051425D01*
X113727343Y-91051425D01*
X113682655Y-90989917D01*
X113510083Y-90817345D01*
X113325711Y-90683391D01*
X113312637Y-90673892D01*
X113095185Y-90563096D01*
X112863066Y-90487675D01*
X112622033Y-90449500D01*
X112622030Y-90449500D01*
X112622027Y-90449500D01*
X112377973Y-90449500D01*
X112377970Y-90449500D01*
X112377967Y-90449500D01*
X112136932Y-90487675D01*
X111904813Y-90563096D01*
X111687363Y-90673890D01*
X111489919Y-90817343D01*
X111317343Y-90989919D01*
X111173890Y-91187363D01*
X111063096Y-91404813D01*
X110987675Y-91636932D01*
X110949500Y-91877965D01*
X100500000Y-91877965D01*
X100500000Y-85675320D01*
X110949500Y-85675320D01*
X110949500Y-88324678D01*
X110949500Y-88324682D01*
X110949501Y-88324684D01*
X110964033Y-88397736D01*
X110964035Y-88397742D01*
X111019397Y-88480599D01*
X111019400Y-88480602D01*
X111044835Y-88497596D01*
X111044836Y-88497598D01*
X111102260Y-88535966D01*
X111157807Y-88547015D01*
X111157808Y-88547015D01*
X111169240Y-88549289D01*
X111171405Y-88549863D01*
X111173579Y-88550216D01*
X111175152Y-88550500D01*
X111175326Y-88550500D01*
X111175327Y-88550500D01*
X113824673Y-88550500D01*
X113824674Y-88550500D01*
X113897740Y-88535966D01*
X113980601Y-88480601D01*
X114035966Y-88397740D01*
X114050500Y-88324674D01*
X114050500Y-87402132D01*
X120949500Y-87402132D01*
X120949500Y-88597920D01*
X120949584Y-88598648D01*
X120954281Y-88642349D01*
X120955908Y-88657480D01*
X120955909Y-88657485D01*
X120955912Y-88657492D01*
X121006200Y-88792327D01*
X121092449Y-88907541D01*
X121092522Y-88907633D01*
X121092799Y-88907879D01*
X121094588Y-88909144D01*
X121179142Y-88972441D01*
X121207668Y-88993796D01*
X121207669Y-88993796D01*
X121207670Y-88993797D01*
X121341544Y-89043728D01*
X121342985Y-89044285D01*
X121344247Y-89044466D01*
X121347767Y-89044655D01*
X121402127Y-89050500D01*
X122597872Y-89050499D01*
X122657483Y-89044091D01*
X122748537Y-89010130D01*
X122776401Y-88999737D01*
X122790692Y-88994408D01*
X122794020Y-88993233D01*
X122797583Y-88992046D01*
X122805167Y-88984186D01*
X122907546Y-88907546D01*
X122993796Y-88792331D01*
X122993798Y-88792327D01*
X123039551Y-88669655D01*
X123044091Y-88657483D01*
X123050500Y-88597873D01*
X123050499Y-87896529D01*
X128569500Y-87896529D01*
X128569500Y-88103469D01*
X128609869Y-88306417D01*
X128609869Y-88306419D01*
X128689056Y-88497594D01*
X128756054Y-88597865D01*
X128804022Y-88669654D01*
X128804030Y-88669663D01*
X128926695Y-88792327D01*
X128950345Y-88815977D01*
X129122402Y-88930941D01*
X129313580Y-89010130D01*
X129516535Y-89050500D01*
X129516536Y-89050500D01*
X129723464Y-89050500D01*
X129723465Y-89050500D01*
X129926420Y-89010130D01*
X130117598Y-88930941D01*
X130289655Y-88815977D01*
X130435977Y-88669655D01*
X130550941Y-88497598D01*
X130630130Y-88306420D01*
X130670500Y-88103465D01*
X130670500Y-87896535D01*
X130630130Y-87693580D01*
X130550941Y-87502402D01*
X130435977Y-87330345D01*
X130393147Y-87287515D01*
X130289656Y-87184023D01*
X130289657Y-87184023D01*
X130256674Y-87161986D01*
X130256675Y-87161986D01*
X130256673Y-87161985D01*
X130117597Y-87069058D01*
X130117592Y-87069056D01*
X129926418Y-86989869D01*
X129723469Y-86949500D01*
X129723467Y-86949500D01*
X129723465Y-86949500D01*
X129516535Y-86949500D01*
X129516532Y-86949500D01*
X129516529Y-86949500D01*
X129313581Y-86989869D01*
X129313579Y-86989869D01*
X129122404Y-87069056D01*
X128950351Y-87184017D01*
X128804017Y-87330351D01*
X128689056Y-87502404D01*
X128609869Y-87693579D01*
X128609869Y-87693581D01*
X128569500Y-87896529D01*
X123050499Y-87896529D01*
X123050499Y-87402128D01*
X123044091Y-87342517D01*
X123023577Y-87287515D01*
X122993797Y-87207670D01*
X122909144Y-87094588D01*
X122907879Y-87092799D01*
X122907633Y-87092522D01*
X122907541Y-87092449D01*
X122792330Y-87006202D01*
X122792328Y-87006201D01*
X122662428Y-86957752D01*
X122658939Y-86956234D01*
X122658025Y-86955996D01*
X122655927Y-86955540D01*
X122652206Y-86955341D01*
X122635312Y-86953524D01*
X122626249Y-86952550D01*
X122626248Y-86952549D01*
X122597876Y-86949500D01*
X122597873Y-86949500D01*
X122597870Y-86949500D01*
X121402133Y-86949500D01*
X121402129Y-86949500D01*
X121393938Y-86949500D01*
X121387975Y-86951021D01*
X121379069Y-86951978D01*
X121342520Y-86955907D01*
X121342514Y-86955908D01*
X121342514Y-86955909D01*
X121342506Y-86955912D01*
X121207671Y-87006200D01*
X121092456Y-87092451D01*
X121092454Y-87092453D01*
X121006200Y-87207671D01*
X120955912Y-87342504D01*
X120955908Y-87342520D01*
X120955908Y-87342521D01*
X120949500Y-87402132D01*
X114050500Y-87402132D01*
X114050500Y-85675326D01*
X114035966Y-85602260D01*
X113980601Y-85519399D01*
X113980599Y-85519397D01*
X113980595Y-85519394D01*
X113980593Y-85519392D01*
X113897748Y-85464038D01*
X113897737Y-85464032D01*
X113897534Y-85463964D01*
X113895997Y-85463687D01*
X113824694Y-85449503D01*
X113824684Y-85449501D01*
X113824679Y-85449500D01*
X113824676Y-85449500D01*
X113824674Y-85449500D01*
X111175326Y-85449500D01*
X111175325Y-85449500D01*
X111175322Y-85449500D01*
X111175318Y-85449500D01*
X111175315Y-85449501D01*
X111139039Y-85456717D01*
X111102261Y-85464033D01*
X111102256Y-85464035D01*
X111019403Y-85519394D01*
X111019394Y-85519403D01*
X110964035Y-85602256D01*
X110964035Y-85602257D01*
X110964033Y-85602263D01*
X110949690Y-85674360D01*
X110949500Y-85675320D01*
X100500000Y-85675320D01*
X100500000Y-84402132D01*
X121449500Y-84402132D01*
X121449500Y-85598401D01*
X121449782Y-85600491D01*
X121449968Y-85602214D01*
X121449970Y-85602260D01*
X121449973Y-85602260D01*
X121455907Y-85657478D01*
X121455908Y-85657480D01*
X121455909Y-85657485D01*
X121455912Y-85657492D01*
X121506200Y-85792327D01*
X121506203Y-85792331D01*
X121558721Y-85862485D01*
X121592522Y-85907637D01*
X121592695Y-85907806D01*
X121594588Y-85909144D01*
X121679142Y-85972441D01*
X121707668Y-85993796D01*
X121707669Y-85993796D01*
X121707670Y-85993797D01*
X121841544Y-86043728D01*
X121842985Y-86044285D01*
X121844247Y-86044466D01*
X121847767Y-86044655D01*
X121902127Y-86050500D01*
X123097872Y-86050499D01*
X123157483Y-86044091D01*
X123224907Y-86018943D01*
X123224910Y-86018942D01*
X123290697Y-85994406D01*
X123294030Y-85993230D01*
X123297582Y-85992047D01*
X123305167Y-85984186D01*
X123407546Y-85907546D01*
X123493796Y-85792331D01*
X123493798Y-85792327D01*
X123544089Y-85657488D01*
X123544090Y-85657485D01*
X123544091Y-85657483D01*
X123550500Y-85597873D01*
X123550499Y-84402128D01*
X123544091Y-84342517D01*
X123542412Y-84338015D01*
X123542411Y-84338011D01*
X123493798Y-84207671D01*
X123471998Y-84178551D01*
X123409156Y-84094605D01*
X123407807Y-84092696D01*
X123407637Y-84092522D01*
X123366845Y-84061985D01*
X123322266Y-84028613D01*
X123292327Y-84006200D01*
X123162428Y-83957752D01*
X123158939Y-83956234D01*
X123158025Y-83955996D01*
X123155927Y-83955540D01*
X123152206Y-83955341D01*
X123135312Y-83953524D01*
X123126249Y-83952550D01*
X123126248Y-83952549D01*
X123097876Y-83949500D01*
X123097873Y-83949500D01*
X123097870Y-83949500D01*
X121902133Y-83949500D01*
X121902129Y-83949500D01*
X121893938Y-83949500D01*
X121887975Y-83951021D01*
X121879069Y-83951978D01*
X121842520Y-83955907D01*
X121842514Y-83955908D01*
X121842514Y-83955909D01*
X121842506Y-83955912D01*
X121707671Y-84006200D01*
X121592456Y-84092451D01*
X121592454Y-84092453D01*
X121592451Y-84092456D01*
X121592450Y-84092458D01*
X121577758Y-84112082D01*
X121506200Y-84207671D01*
X121455912Y-84342504D01*
X121455908Y-84342520D01*
X121455908Y-84342521D01*
X121449500Y-84402132D01*
X100500000Y-84402132D01*
X100500000Y-70675320D01*
X110949500Y-70675320D01*
X110949500Y-73324678D01*
X110949500Y-73324682D01*
X110949501Y-73324684D01*
X110964033Y-73397736D01*
X110964035Y-73397742D01*
X111019397Y-73480599D01*
X111019399Y-73480601D01*
X111019402Y-73480603D01*
X111019404Y-73480605D01*
X111102260Y-73535966D01*
X111157807Y-73547015D01*
X111157808Y-73547015D01*
X111169240Y-73549289D01*
X111171405Y-73549863D01*
X111173579Y-73550216D01*
X111175152Y-73550500D01*
X111175326Y-73550500D01*
X111175327Y-73550500D01*
X113824673Y-73550500D01*
X113824674Y-73550500D01*
X113897740Y-73535966D01*
X113980601Y-73480601D01*
X114035966Y-73397740D01*
X114050500Y-73324674D01*
X114050500Y-70675326D01*
X114035966Y-70602260D01*
X113980601Y-70519399D01*
X113980599Y-70519397D01*
X113980595Y-70519394D01*
X113980593Y-70519392D01*
X113897748Y-70464038D01*
X113897737Y-70464032D01*
X113897534Y-70463964D01*
X113895997Y-70463687D01*
X113824694Y-70449503D01*
X113824684Y-70449501D01*
X113824679Y-70449500D01*
X113824676Y-70449500D01*
X113824674Y-70449500D01*
X111175326Y-70449500D01*
X111175325Y-70449500D01*
X111175322Y-70449500D01*
X111175318Y-70449500D01*
X111175315Y-70449501D01*
X111139039Y-70456717D01*
X111102261Y-70464033D01*
X111102256Y-70464035D01*
X111019403Y-70519394D01*
X111019394Y-70519403D01*
X110964035Y-70602256D01*
X110964033Y-70602261D01*
X110949500Y-70675320D01*
X100500000Y-70675320D01*
X100500000Y-63882642D01*
X102209500Y-63882642D01*
X102209500Y-64117356D01*
X102240136Y-64350059D01*
X102300881Y-64576767D01*
X102300901Y-64576825D01*
X102301104Y-64577305D01*
X102390698Y-64793607D01*
X102390701Y-64793612D01*
X102508061Y-64996886D01*
X102650936Y-65183085D01*
X102650938Y-65183087D01*
X102650942Y-65183092D01*
X102816908Y-65349058D01*
X102816912Y-65349061D01*
X102816917Y-65349066D01*
X102816939Y-65349085D01*
X102817313Y-65349369D01*
X103003113Y-65491938D01*
X103003117Y-65491941D01*
X103203654Y-65607720D01*
X103205041Y-65608582D01*
X103207811Y-65610120D01*
X103208266Y-65610382D01*
X103212362Y-65611773D01*
X103264877Y-65633525D01*
X103423228Y-65699117D01*
X103649941Y-65759864D01*
X103882644Y-65790500D01*
X103882645Y-65790500D01*
X104117355Y-65790500D01*
X104117356Y-65790500D01*
X104350059Y-65759864D01*
X104576772Y-65699117D01*
X104793617Y-65609296D01*
X104996883Y-65491941D01*
X105183092Y-65349058D01*
X105349058Y-65183092D01*
X105491941Y-64996883D01*
X105609296Y-64793617D01*
X105699117Y-64576772D01*
X105759864Y-64350059D01*
X105790500Y-64117356D01*
X105790500Y-63882644D01*
X105759864Y-63649941D01*
X105699117Y-63423228D01*
X105633525Y-63264877D01*
X105609298Y-63206387D01*
X105609296Y-63206383D01*
X105491941Y-63003117D01*
X105349058Y-62816908D01*
X105183092Y-62650942D01*
X105183087Y-62650938D01*
X105183085Y-62650936D01*
X104996886Y-62508061D01*
X104793612Y-62390701D01*
X104793607Y-62390698D01*
X104635266Y-62325112D01*
X104580012Y-62302225D01*
X104577326Y-62300999D01*
X104575343Y-62300500D01*
X104350059Y-62240136D01*
X104117356Y-62209500D01*
X103882644Y-62209500D01*
X103882643Y-62209500D01*
X103882642Y-62209500D01*
X103649939Y-62240136D01*
X103423231Y-62300881D01*
X103423172Y-62300902D01*
X103422693Y-62301104D01*
X103206391Y-62390698D01*
X103003109Y-62508063D01*
X102816917Y-62650933D01*
X102650933Y-62816917D01*
X102508063Y-63003109D01*
X102390698Y-63206391D01*
X102301104Y-63422693D01*
X102300902Y-63423172D01*
X102300881Y-63423231D01*
X102240136Y-63649939D01*
X102209500Y-63882642D01*
X100500000Y-63882642D01*
X100500000Y-60614680D01*
X100504843Y-60584094D01*
X100508965Y-60571405D01*
X100544923Y-60521906D01*
X100545522Y-60521471D01*
X100549063Y-60518900D01*
X100607243Y-60500000D01*
X171385320Y-60500000D01*
X171415908Y-60504843D01*
G37*
%TD.AperFunction*%
%TD*%
%TA.AperFunction,Conductor*%
%TO.N,GND_HOST*%
G36*
X194787034Y-62518907D02*
G01*
X194822998Y-62568407D01*
X194822998Y-62629593D01*
X194798848Y-62669001D01*
X194650942Y-62816908D01*
X194650936Y-62816914D01*
X194508061Y-63003113D01*
X194390701Y-63206387D01*
X194300885Y-63423223D01*
X194300882Y-63423230D01*
X194240136Y-63649940D01*
X194209500Y-63882643D01*
X194209500Y-64117356D01*
X194240136Y-64350059D01*
X194300882Y-64576769D01*
X194300885Y-64576776D01*
X194390701Y-64793612D01*
X194508061Y-64996886D01*
X194650936Y-65183085D01*
X194650938Y-65183087D01*
X194650942Y-65183092D01*
X194816908Y-65349058D01*
X194816912Y-65349061D01*
X194816914Y-65349063D01*
X195003113Y-65491938D01*
X195003117Y-65491941D01*
X195206383Y-65609296D01*
X195206384Y-65609296D01*
X195206387Y-65609298D01*
X195264877Y-65633525D01*
X195423228Y-65699117D01*
X195649941Y-65759864D01*
X195882644Y-65790500D01*
X195882645Y-65790500D01*
X196117355Y-65790500D01*
X196117356Y-65790500D01*
X196350059Y-65759864D01*
X196576772Y-65699117D01*
X196793617Y-65609296D01*
X196996883Y-65491941D01*
X197183092Y-65349058D01*
X197330998Y-65201151D01*
X197385513Y-65173376D01*
X197445945Y-65182947D01*
X197489210Y-65226212D01*
X197500000Y-65271157D01*
X197500000Y-76830500D01*
X197481093Y-76888691D01*
X197431593Y-76924655D01*
X197401000Y-76929500D01*
X197201081Y-76929500D01*
X197056085Y-76958342D01*
X196919506Y-77014915D01*
X196796585Y-77097048D01*
X196692048Y-77201585D01*
X196609915Y-77324506D01*
X196553342Y-77461085D01*
X196553342Y-77461087D01*
X196524500Y-77606082D01*
X196524500Y-77753918D01*
X196553342Y-77898913D01*
X196609916Y-78035495D01*
X196692049Y-78158416D01*
X196796584Y-78262951D01*
X196919505Y-78345084D01*
X197056087Y-78401658D01*
X197201082Y-78430500D01*
X197201083Y-78430500D01*
X197401000Y-78430500D01*
X197459191Y-78449407D01*
X197495155Y-78498907D01*
X197500000Y-78529500D01*
X197500000Y-85470500D01*
X197481093Y-85528691D01*
X197431593Y-85564655D01*
X197401000Y-85569500D01*
X197201081Y-85569500D01*
X197056085Y-85598342D01*
X196919506Y-85654915D01*
X196796585Y-85737048D01*
X196692048Y-85841585D01*
X196609915Y-85964506D01*
X196553342Y-86101085D01*
X196553342Y-86101087D01*
X196524500Y-86246082D01*
X196524500Y-86393918D01*
X196553342Y-86538913D01*
X196609916Y-86675495D01*
X196692049Y-86798416D01*
X196796584Y-86902951D01*
X196919505Y-86985084D01*
X197056087Y-87041658D01*
X197201082Y-87070500D01*
X197201083Y-87070500D01*
X197401000Y-87070500D01*
X197459191Y-87089407D01*
X197495155Y-87138907D01*
X197500000Y-87169500D01*
X197500000Y-107401000D01*
X197481093Y-107459191D01*
X197431593Y-107495155D01*
X197401000Y-107500000D01*
X174599000Y-107500000D01*
X174540809Y-107481093D01*
X174504845Y-107431593D01*
X174500000Y-107401000D01*
X174500000Y-91899525D01*
X181593700Y-91899525D01*
X181593700Y-92044474D01*
X181631217Y-92184489D01*
X181703687Y-92310010D01*
X181703689Y-92310012D01*
X181703691Y-92310015D01*
X181806185Y-92412509D01*
X181806187Y-92412510D01*
X181806189Y-92412512D01*
X181931711Y-92484982D01*
X181931712Y-92484982D01*
X181931715Y-92484984D01*
X182071725Y-92522500D01*
X182071726Y-92522500D01*
X182216674Y-92522500D01*
X182216675Y-92522500D01*
X182356685Y-92484984D01*
X182356687Y-92484982D01*
X182356689Y-92484982D01*
X182482210Y-92412512D01*
X182482210Y-92412511D01*
X182482215Y-92412509D01*
X182584709Y-92310015D01*
X182657184Y-92184485D01*
X182694700Y-92044475D01*
X182694700Y-91899525D01*
X182657184Y-91759515D01*
X182657182Y-91759512D01*
X182657182Y-91759510D01*
X182584712Y-91633989D01*
X182584710Y-91633987D01*
X182584709Y-91633985D01*
X182482215Y-91531491D01*
X182482212Y-91531489D01*
X182482210Y-91531487D01*
X182356688Y-91459017D01*
X182356689Y-91459017D01*
X182327096Y-91451087D01*
X182216675Y-91421500D01*
X182071725Y-91421500D01*
X182009990Y-91438041D01*
X181931710Y-91459017D01*
X181806189Y-91531487D01*
X181703687Y-91633989D01*
X181631217Y-91759510D01*
X181593700Y-91899525D01*
X174500000Y-91899525D01*
X174500000Y-90534525D01*
X182591700Y-90534525D01*
X182591700Y-90679474D01*
X182629217Y-90819489D01*
X182701687Y-90945010D01*
X182701689Y-90945012D01*
X182701691Y-90945015D01*
X182804185Y-91047509D01*
X182804187Y-91047510D01*
X182804189Y-91047512D01*
X182929711Y-91119982D01*
X182929712Y-91119982D01*
X182929715Y-91119984D01*
X183069725Y-91157500D01*
X183069726Y-91157500D01*
X183214674Y-91157500D01*
X183214675Y-91157500D01*
X183354685Y-91119984D01*
X183354687Y-91119982D01*
X183354689Y-91119982D01*
X183480210Y-91047512D01*
X183480210Y-91047511D01*
X183480215Y-91047509D01*
X183582709Y-90945015D01*
X183655184Y-90819485D01*
X183692700Y-90679475D01*
X183692700Y-90534525D01*
X183655184Y-90394515D01*
X183655182Y-90394512D01*
X183655182Y-90394510D01*
X183582712Y-90268989D01*
X183582710Y-90268987D01*
X183582709Y-90268985D01*
X183480215Y-90166491D01*
X183480212Y-90166489D01*
X183480210Y-90166487D01*
X183354688Y-90094017D01*
X183354689Y-90094017D01*
X183325096Y-90086087D01*
X183214675Y-90056500D01*
X183069725Y-90056500D01*
X183007990Y-90073041D01*
X182929710Y-90094017D01*
X182804189Y-90166487D01*
X182701687Y-90268989D01*
X182629217Y-90394510D01*
X182591700Y-90534525D01*
X174500000Y-90534525D01*
X174500000Y-86246082D01*
X192194500Y-86246082D01*
X192194500Y-86393918D01*
X192223342Y-86538913D01*
X192279916Y-86675495D01*
X192362049Y-86798416D01*
X192466584Y-86902951D01*
X192589505Y-86985084D01*
X192726087Y-87041658D01*
X192871082Y-87070500D01*
X192871083Y-87070500D01*
X194118917Y-87070500D01*
X194118918Y-87070500D01*
X194263913Y-87041658D01*
X194400495Y-86985084D01*
X194523416Y-86902951D01*
X194627951Y-86798416D01*
X194710084Y-86675495D01*
X194766658Y-86538913D01*
X194795500Y-86393918D01*
X194795500Y-86246082D01*
X194766658Y-86101087D01*
X194710084Y-85964505D01*
X194627951Y-85841584D01*
X194523416Y-85737049D01*
X194400495Y-85654916D01*
X194400493Y-85654915D01*
X194263914Y-85598342D01*
X194151894Y-85576059D01*
X194098510Y-85546161D01*
X194072895Y-85490596D01*
X194084832Y-85430586D01*
X194129763Y-85389054D01*
X194145574Y-85383338D01*
X194193975Y-85370369D01*
X194193977Y-85370367D01*
X194193979Y-85370367D01*
X194228899Y-85350205D01*
X194311524Y-85302502D01*
X194407502Y-85206524D01*
X194475369Y-85088975D01*
X194510500Y-84957867D01*
X194510500Y-84822133D01*
X194475369Y-84691025D01*
X194407502Y-84573476D01*
X194311524Y-84477498D01*
X194302824Y-84472475D01*
X194193978Y-84409632D01*
X194193974Y-84409630D01*
X194062869Y-84374500D01*
X194062867Y-84374500D01*
X193927133Y-84374500D01*
X193927130Y-84374500D01*
X193796025Y-84409630D01*
X193796021Y-84409632D01*
X193678478Y-84477496D01*
X193582496Y-84573478D01*
X193514632Y-84691021D01*
X193514630Y-84691025D01*
X193479500Y-84822130D01*
X193479500Y-84957869D01*
X193514630Y-85088974D01*
X193514632Y-85088978D01*
X193582496Y-85206521D01*
X193582498Y-85206524D01*
X193678476Y-85302502D01*
X193678478Y-85302503D01*
X193796021Y-85370367D01*
X193796025Y-85370369D01*
X193812836Y-85374874D01*
X193864150Y-85408198D01*
X193886076Y-85465320D01*
X193870240Y-85524420D01*
X193822689Y-85562925D01*
X193787212Y-85569500D01*
X192871081Y-85569500D01*
X192726085Y-85598342D01*
X192589506Y-85654915D01*
X192466585Y-85737048D01*
X192362048Y-85841585D01*
X192279915Y-85964506D01*
X192223342Y-86101085D01*
X192223342Y-86101087D01*
X192194500Y-86246082D01*
X174500000Y-86246082D01*
X174500000Y-84327525D01*
X191251800Y-84327525D01*
X191251800Y-84472475D01*
X191253146Y-84477498D01*
X191289317Y-84612489D01*
X191361787Y-84738010D01*
X191361789Y-84738012D01*
X191361791Y-84738015D01*
X191464285Y-84840509D01*
X191464287Y-84840510D01*
X191464289Y-84840512D01*
X191589811Y-84912982D01*
X191589812Y-84912982D01*
X191589815Y-84912984D01*
X191729825Y-84950500D01*
X191729826Y-84950500D01*
X191874774Y-84950500D01*
X191874775Y-84950500D01*
X192014785Y-84912984D01*
X192014787Y-84912982D01*
X192014789Y-84912982D01*
X192140310Y-84840512D01*
X192140310Y-84840511D01*
X192140315Y-84840509D01*
X192242809Y-84738015D01*
X192315284Y-84612485D01*
X192352800Y-84472475D01*
X192352800Y-84327525D01*
X192315284Y-84187515D01*
X192315282Y-84187512D01*
X192315282Y-84187510D01*
X192242812Y-84061989D01*
X192242810Y-84061987D01*
X192242809Y-84061985D01*
X192140315Y-83959491D01*
X192140312Y-83959489D01*
X192140310Y-83959487D01*
X192014788Y-83887017D01*
X192014789Y-83887017D01*
X191985196Y-83879087D01*
X191874775Y-83849500D01*
X191729825Y-83849500D01*
X191668090Y-83866041D01*
X191589810Y-83887017D01*
X191464289Y-83959487D01*
X191361787Y-84061989D01*
X191289317Y-84187510D01*
X191289316Y-84187515D01*
X191251800Y-84327525D01*
X174500000Y-84327525D01*
X174500000Y-79527525D01*
X191289000Y-79527525D01*
X191289000Y-79672474D01*
X191326517Y-79812489D01*
X191398987Y-79938010D01*
X191398989Y-79938012D01*
X191398991Y-79938015D01*
X191501485Y-80040509D01*
X191501487Y-80040510D01*
X191501489Y-80040512D01*
X191627011Y-80112982D01*
X191627012Y-80112982D01*
X191627015Y-80112984D01*
X191767025Y-80150500D01*
X191767026Y-80150500D01*
X191911974Y-80150500D01*
X191911975Y-80150500D01*
X192051985Y-80112984D01*
X192051987Y-80112982D01*
X192051989Y-80112982D01*
X192177510Y-80040512D01*
X192177510Y-80040511D01*
X192177515Y-80040509D01*
X192280009Y-79938015D01*
X192352484Y-79812485D01*
X192390000Y-79672475D01*
X192390000Y-79527525D01*
X192352484Y-79387515D01*
X192352482Y-79387512D01*
X192352482Y-79387510D01*
X192280012Y-79261989D01*
X192280010Y-79261987D01*
X192280009Y-79261985D01*
X192177515Y-79159491D01*
X192177512Y-79159489D01*
X192177510Y-79159487D01*
X192051988Y-79087017D01*
X192051989Y-79087017D01*
X192022396Y-79079087D01*
X191911975Y-79049500D01*
X191767025Y-79049500D01*
X191705290Y-79066041D01*
X191627010Y-79087017D01*
X191501489Y-79159487D01*
X191398987Y-79261989D01*
X191326517Y-79387510D01*
X191289000Y-79527525D01*
X174500000Y-79527525D01*
X174500000Y-77606082D01*
X192194500Y-77606082D01*
X192194500Y-77753918D01*
X192223342Y-77898913D01*
X192279916Y-78035495D01*
X192362049Y-78158416D01*
X192466584Y-78262951D01*
X192589505Y-78345084D01*
X192726087Y-78401658D01*
X192871082Y-78430500D01*
X192871083Y-78430500D01*
X193787212Y-78430500D01*
X193845403Y-78449407D01*
X193881367Y-78498907D01*
X193881367Y-78560093D01*
X193845403Y-78609593D01*
X193812836Y-78625126D01*
X193796025Y-78629630D01*
X193796021Y-78629632D01*
X193678478Y-78697496D01*
X193582496Y-78793478D01*
X193514632Y-78911021D01*
X193514630Y-78911025D01*
X193479500Y-79042130D01*
X193479500Y-79177869D01*
X193514630Y-79308974D01*
X193514632Y-79308978D01*
X193559973Y-79387510D01*
X193582498Y-79426524D01*
X193678476Y-79522502D01*
X193678478Y-79522503D01*
X193796021Y-79590367D01*
X193796025Y-79590369D01*
X193927130Y-79625499D01*
X193927132Y-79625500D01*
X193927133Y-79625500D01*
X194062868Y-79625500D01*
X194062868Y-79625499D01*
X194193975Y-79590369D01*
X194311524Y-79522502D01*
X194407502Y-79426524D01*
X194475369Y-79308975D01*
X194510500Y-79177867D01*
X194510500Y-79042133D01*
X194475369Y-78911025D01*
X194407502Y-78793476D01*
X194311524Y-78697498D01*
X194311521Y-78697496D01*
X194193978Y-78629632D01*
X194193974Y-78629630D01*
X194145585Y-78616664D01*
X194094271Y-78583340D01*
X194072345Y-78526218D01*
X194088181Y-78467118D01*
X194135732Y-78428613D01*
X194151891Y-78423940D01*
X194263913Y-78401658D01*
X194400495Y-78345084D01*
X194523416Y-78262951D01*
X194627951Y-78158416D01*
X194710084Y-78035495D01*
X194766658Y-77898913D01*
X194795500Y-77753918D01*
X194795500Y-77606082D01*
X194766658Y-77461087D01*
X194710084Y-77324505D01*
X194627951Y-77201584D01*
X194523416Y-77097049D01*
X194400495Y-77014916D01*
X194400493Y-77014915D01*
X194263914Y-76958342D01*
X194118918Y-76929500D01*
X192871082Y-76929500D01*
X192871081Y-76929500D01*
X192726085Y-76958342D01*
X192589506Y-77014915D01*
X192466585Y-77097048D01*
X192362048Y-77201585D01*
X192279915Y-77324506D01*
X192223342Y-77461085D01*
X192223342Y-77461087D01*
X192194500Y-77606082D01*
X174500000Y-77606082D01*
X174500000Y-71636125D01*
X188124800Y-71636125D01*
X188124800Y-71781074D01*
X188162317Y-71921089D01*
X188234787Y-72046610D01*
X188234789Y-72046612D01*
X188234791Y-72046615D01*
X188337285Y-72149109D01*
X188337287Y-72149110D01*
X188337289Y-72149112D01*
X188462811Y-72221582D01*
X188462812Y-72221582D01*
X188462815Y-72221584D01*
X188602825Y-72259100D01*
X188602826Y-72259100D01*
X188747774Y-72259100D01*
X188747775Y-72259100D01*
X188887785Y-72221584D01*
X188887787Y-72221582D01*
X188887789Y-72221582D01*
X189013310Y-72149112D01*
X189013310Y-72149111D01*
X189013315Y-72149109D01*
X189115809Y-72046615D01*
X189188284Y-71921085D01*
X189225800Y-71781075D01*
X189225800Y-71636125D01*
X189188284Y-71496115D01*
X189188282Y-71496112D01*
X189188282Y-71496110D01*
X189115812Y-71370589D01*
X189115810Y-71370587D01*
X189115809Y-71370585D01*
X189013315Y-71268091D01*
X189013312Y-71268089D01*
X189013310Y-71268087D01*
X188887788Y-71195617D01*
X188887789Y-71195617D01*
X188858196Y-71187687D01*
X188747775Y-71158100D01*
X188602825Y-71158100D01*
X188541090Y-71174641D01*
X188462810Y-71195617D01*
X188337289Y-71268087D01*
X188234787Y-71370589D01*
X188162317Y-71496110D01*
X188124800Y-71636125D01*
X174500000Y-71636125D01*
X174500000Y-68210425D01*
X188587000Y-68210425D01*
X188587000Y-68355374D01*
X188624517Y-68495389D01*
X188696987Y-68620910D01*
X188696989Y-68620912D01*
X188696991Y-68620915D01*
X188799485Y-68723409D01*
X188799487Y-68723410D01*
X188799489Y-68723412D01*
X188925011Y-68795882D01*
X188925012Y-68795882D01*
X188925015Y-68795884D01*
X189065025Y-68833400D01*
X189065026Y-68833400D01*
X189209974Y-68833400D01*
X189209975Y-68833400D01*
X189349985Y-68795884D01*
X189349987Y-68795882D01*
X189349989Y-68795882D01*
X189475510Y-68723412D01*
X189475510Y-68723411D01*
X189475515Y-68723409D01*
X189578009Y-68620915D01*
X189650484Y-68495385D01*
X189688000Y-68355375D01*
X189688000Y-68210425D01*
X189650484Y-68070415D01*
X189650482Y-68070412D01*
X189650482Y-68070410D01*
X189578012Y-67944889D01*
X189578010Y-67944887D01*
X189578009Y-67944885D01*
X189475515Y-67842391D01*
X189475512Y-67842389D01*
X189475510Y-67842387D01*
X189349988Y-67769917D01*
X189349989Y-67769917D01*
X189320396Y-67761987D01*
X189209975Y-67732400D01*
X189065025Y-67732400D01*
X189003290Y-67748941D01*
X188925010Y-67769917D01*
X188799489Y-67842387D01*
X188696987Y-67944889D01*
X188624517Y-68070410D01*
X188587000Y-68210425D01*
X174500000Y-68210425D01*
X174500000Y-62599000D01*
X174518907Y-62540809D01*
X174568407Y-62504845D01*
X174599000Y-62500000D01*
X194728843Y-62500000D01*
X194787034Y-62518907D01*
G37*
%TD.AperFunction*%
%TD*%
M02*
