%TF.GenerationSoftware,KiCad,Pcbnew,10.0.6*%
%TF.CreationDate,2026-10-01T08:16:07+00:00*%
%TF.ProjectId,OSBAMS_Rev2_RC1,4f534241-4d53-45f5-9265-76325f524331,rev?*%
%TF.SameCoordinates,Original*%
%TF.FileFunction,Copper,L3,Inr*%
%TF.FilePolarity,Positive*%
%FSLAX46Y46*%
G04 Gerber Fmt 4.6, Leading zero omitted, Abs format (unit mm)*
G04 Created by KiCad (PCBNEW 10.0.6) date 2026-10-01 08:16:07*
%MOMM*%
%LPD*%
G01*
G04 APERTURE LIST*
G04 Aperture macros list*
%AMRoundRect*
0 Rectangle with rounded corners*
0 $1 Rounding radius*
0 $2 $3 $4 $5 $6 $7 $8 $9 X,Y pos of 4 corners*
0 Add a 4 corners polygon primitive as box body*
4,1,4,$2,$3,$4,$5,$6,$7,$8,$9,$2,$3,0*
0 Add four circle primitives for the rounded corners*
1,1,$1+$1,$2,$3*
1,1,$1+$1,$4,$5*
1,1,$1+$1,$6,$7*
1,1,$1+$1,$8,$9*
0 Add four rect primitives between the rounded corners*
20,1,$1+$1,$2,$3,$4,$5,0*
20,1,$1+$1,$4,$5,$6,$7,0*
20,1,$1+$1,$6,$7,$8,$9,0*
20,1,$1+$1,$8,$9,$2,$3,0*%
G04 Aperture macros list end*
%TA.AperFunction,ComponentPad*%
%ADD10R,2.600000X2.600000*%
%TD*%
%TA.AperFunction,ComponentPad*%
%ADD11C,2.600000*%
%TD*%
%TA.AperFunction,ComponentPad*%
%ADD12O,2.100000X1.000000*%
%TD*%
%TA.AperFunction,ComponentPad*%
%ADD13O,1.800000X1.000000*%
%TD*%
%TA.AperFunction,ComponentPad*%
%ADD14RoundRect,0.250000X0.550000X-0.550000X0.550000X0.550000X-0.550000X0.550000X-0.550000X-0.550000X0*%
%TD*%
%TA.AperFunction,ComponentPad*%
%ADD15C,1.600000*%
%TD*%
%TA.AperFunction,ComponentPad*%
%ADD16RoundRect,0.250000X-0.550000X-0.550000X0.550000X-0.550000X0.550000X0.550000X-0.550000X0.550000X0*%
%TD*%
%TA.AperFunction,ComponentPad*%
%ADD17RoundRect,0.250000X-0.620000X-0.845000X0.620000X-0.845000X0.620000X0.845000X-0.620000X0.845000X0*%
%TD*%
%TA.AperFunction,ComponentPad*%
%ADD18O,1.740000X2.190000*%
%TD*%
%TA.AperFunction,ComponentPad*%
%ADD19RoundRect,0.250000X-0.350000X-0.625000X0.350000X-0.625000X0.350000X0.625000X-0.350000X0.625000X0*%
%TD*%
%TA.AperFunction,ComponentPad*%
%ADD20O,1.200000X1.750000*%
%TD*%
%TA.AperFunction,ComponentPad*%
%ADD21R,1.700000X1.700000*%
%TD*%
%TA.AperFunction,ComponentPad*%
%ADD22C,1.700000*%
%TD*%
%TA.AperFunction,ViaPad*%
%ADD23C,0.600000*%
%TD*%
%TA.AperFunction,Conductor*%
%ADD24C,0.300000*%
%TD*%
%TA.AperFunction,Conductor*%
%ADD25C,0.200000*%
%TD*%
G04 APERTURE END LIST*
D10*
%TO.N,ESTOP_OUT*%
%TO.C,J3*%
X112500000Y-99000000D03*
D11*
%TO.N,COIL_V*%
X112500000Y-104000000D03*
%TD*%
D12*
%TO.N,USB_SHIELD*%
%TO.C,J8*%
X193495000Y-86320000D03*
D13*
X197675000Y-86320000D03*
D12*
X193495000Y-77680000D03*
D13*
X197675000Y-77680000D03*
%TD*%
D14*
%TO.N,ES_LED_A*%
%TO.C,D11*%
X122500000Y-85000000D03*
D15*
%TO.N,GND*%
X122500000Y-77380000D03*
%TD*%
D16*
%TO.N,ES_LED_A*%
%TO.C,U4*%
X122000000Y-88000000D03*
D15*
%TO.N,GND*%
X122000000Y-90540000D03*
X129620000Y-90540000D03*
%TO.N,ESTOP_SENSE*%
X129620000Y-88000000D03*
%TD*%
D10*
%TO.N,+12V*%
%TO.C,J2*%
X112500000Y-87000000D03*
D11*
%TO.N,ESTOP_OUT*%
X112500000Y-92000000D03*
%TD*%
D17*
%TO.N,PACK_INA*%
%TO.C,J6*%
X131000000Y-143000000D03*
D18*
%TO.N,PACK_ADC*%
X133540000Y-143000000D03*
%TO.N,RELAY_OUT*%
X136080000Y-143000000D03*
%TO.N,GND*%
X138620000Y-143000000D03*
%TD*%
D16*
%TO.N,FB_LED_A*%
%TO.C,U5*%
X142000000Y-136000000D03*
D15*
%TO.N,GND*%
X142000000Y-138540000D03*
X149620000Y-138540000D03*
%TO.N,RELAY_FB*%
X149620000Y-136000000D03*
%TD*%
D19*
%TO.N,+3V3*%
%TO.C,J7*%
X182000000Y-146000000D03*
D20*
%TO.N,SDA2_J*%
X184000000Y-146000000D03*
%TO.N,SCL2_J*%
X186000000Y-146000000D03*
%TO.N,GND*%
X188000000Y-146000000D03*
%TD*%
D10*
%TO.N,COIL_V*%
%TO.C,J4*%
X112500000Y-111000000D03*
D11*
%TO.N,COIL_SW*%
X112500000Y-116000000D03*
%TD*%
D14*
%TO.N,FB_LED_A*%
%TO.C,D12*%
X144000000Y-133000000D03*
D15*
%TO.N,GND*%
X144000000Y-125380000D03*
%TD*%
D21*
%TO.N,+3V3*%
%TO.C,JP1*%
X150000000Y-130000000D03*
D22*
%TO.N,BOOT0*%
X150000000Y-132540000D03*
%TD*%
D10*
%TO.N,12V_RAW*%
%TO.C,J1*%
X112500000Y-72000000D03*
D11*
%TO.N,GND*%
X112500000Y-77000000D03*
%TD*%
D17*
%TO.N,SHUNT_INP_RAW*%
%TO.C,J5*%
X114000000Y-143000000D03*
D18*
%TO.N,SHUNT_INN_RAW*%
X116540000Y-143000000D03*
%TO.N,GND*%
X119080000Y-143000000D03*
%TD*%
D23*
%TO.N,SDA2*%
X159986800Y-108237200D03*
X163116500Y-110044100D03*
%TO.N,+3V3*%
X126905800Y-129997300D03*
X178287100Y-136000000D03*
%TO.N,GND*%
X195750000Y-143500000D03*
X127500000Y-147000000D03*
X161250000Y-108375000D03*
X129250000Y-94500000D03*
X136250000Y-122500000D03*
X110000000Y-112000000D03*
X131000000Y-98000000D03*
X131000000Y-112000000D03*
X166000000Y-70000000D03*
X165375000Y-97750000D03*
X162500000Y-63000000D03*
X106500000Y-133000000D03*
X131000000Y-91000000D03*
X104750000Y-87500000D03*
X117000000Y-105000000D03*
X194000000Y-126000000D03*
X120500000Y-63000000D03*
X108250000Y-115500000D03*
X192250000Y-108500000D03*
X192250000Y-122500000D03*
X104750000Y-129500000D03*
X171250000Y-108500000D03*
X157250000Y-122500000D03*
X108250000Y-80500000D03*
X138000000Y-147000000D03*
X117000000Y-133000000D03*
X104750000Y-94500000D03*
X188750000Y-136500000D03*
X134500000Y-70000000D03*
X169500000Y-77000000D03*
X106500000Y-119000000D03*
X129250000Y-136500000D03*
X141500000Y-133000000D03*
X141500000Y-126000000D03*
X108250000Y-73500000D03*
X106500000Y-98000000D03*
X153750000Y-101500000D03*
X187000000Y-140000000D03*
X138000000Y-119000000D03*
X111750000Y-80500000D03*
X104750000Y-101500000D03*
X145000000Y-63000000D03*
X110000000Y-133000000D03*
X125750000Y-101500000D03*
X188750000Y-122500000D03*
X173000000Y-112000000D03*
X129250000Y-73500000D03*
X166000000Y-126000000D03*
X190500000Y-119000000D03*
X125750000Y-143500000D03*
X129250000Y-101500000D03*
X115250000Y-80500000D03*
X187000000Y-112000000D03*
X124000000Y-147000000D03*
X120500000Y-70000000D03*
X124000000Y-70000000D03*
X125750000Y-80500000D03*
X154750000Y-108375000D03*
X148500000Y-91000000D03*
X132750000Y-73500000D03*
X162500000Y-77000000D03*
X139750000Y-87500000D03*
X123445577Y-131450000D03*
X185250000Y-115500000D03*
X120500000Y-98000000D03*
X194000000Y-133000000D03*
X185250000Y-122500000D03*
X132750000Y-94500000D03*
X104750000Y-115500000D03*
X110000000Y-140000000D03*
X143250000Y-122500000D03*
X195750000Y-136500000D03*
X104750000Y-136500000D03*
X120500000Y-105000000D03*
X155500000Y-77000000D03*
X192250000Y-129500000D03*
X157250000Y-66500000D03*
X113500000Y-70000000D03*
X166000000Y-105000000D03*
X127500000Y-140000000D03*
X192250000Y-115500000D03*
X171250000Y-136500000D03*
X190500000Y-126000000D03*
X153750000Y-143500000D03*
X120500000Y-77000000D03*
X146750000Y-73500000D03*
X164250000Y-66500000D03*
X183500000Y-133000000D03*
X169500000Y-84000000D03*
X138000000Y-63000000D03*
X111750000Y-129500000D03*
X111750000Y-101500000D03*
X197500000Y-112000000D03*
X113500000Y-119000000D03*
X159000000Y-147000000D03*
X194000000Y-112000000D03*
X118750000Y-108500000D03*
X181750000Y-122500000D03*
X115250000Y-73500000D03*
X125750000Y-115500000D03*
X117000000Y-119000000D03*
X131000000Y-63000000D03*
X157250000Y-115500000D03*
X129250000Y-122500000D03*
X141500000Y-63000000D03*
X125750000Y-87500000D03*
X195750000Y-115500000D03*
X167750000Y-87500000D03*
X101600000Y-61600000D03*
X153750000Y-87500000D03*
X190500000Y-133000000D03*
X110000000Y-91000000D03*
X138000000Y-105000000D03*
X134500000Y-63000000D03*
X157250000Y-80500000D03*
X148500000Y-119000000D03*
X134500000Y-133000000D03*
X150250000Y-66500000D03*
X139750000Y-66500000D03*
X143250000Y-73500000D03*
X169500000Y-126000000D03*
X150250000Y-73500000D03*
X180000000Y-119000000D03*
X159350000Y-92500000D03*
X134500000Y-147000000D03*
X141500000Y-105000000D03*
X108250000Y-108500000D03*
X145000000Y-147000000D03*
X152000000Y-140000000D03*
X157250000Y-136500000D03*
X139750000Y-122500000D03*
X166000000Y-91000000D03*
X153750000Y-80500000D03*
X190500000Y-140000000D03*
X110000000Y-147000000D03*
X169500000Y-147000000D03*
X194000000Y-140000000D03*
X176500000Y-147000000D03*
X194000000Y-119000000D03*
X178250000Y-143500000D03*
X155500000Y-70000000D03*
X124000000Y-98000000D03*
X108250000Y-143500000D03*
X122250000Y-73500000D03*
X138000000Y-112000000D03*
X132750000Y-101500000D03*
X111750000Y-94500000D03*
X106500000Y-77000000D03*
X111750000Y-143500000D03*
X110000000Y-77000000D03*
X132750000Y-108500000D03*
X110000000Y-119000000D03*
X153750000Y-122500000D03*
X141500000Y-77000000D03*
X176500000Y-133000000D03*
X103000000Y-126000000D03*
X122250000Y-108500000D03*
X174750000Y-143500000D03*
X166000000Y-147000000D03*
X104750000Y-73500000D03*
X160750000Y-80500000D03*
X152000000Y-126000000D03*
X185250000Y-108500000D03*
X155500000Y-140000000D03*
X145000000Y-119000000D03*
X134500000Y-112000000D03*
X103000000Y-119000000D03*
X169500000Y-91000000D03*
X162500000Y-133000000D03*
X106500000Y-84000000D03*
X106500000Y-140000000D03*
X148500000Y-147000000D03*
X167750000Y-115500000D03*
X166000000Y-133000000D03*
X124000000Y-91000000D03*
X143250000Y-94500000D03*
X106500000Y-126000000D03*
X167750000Y-73500000D03*
X134500000Y-105000000D03*
X134500000Y-91000000D03*
X113500000Y-63000000D03*
X110000000Y-126000000D03*
X162500000Y-147000000D03*
X152000000Y-77000000D03*
X167750000Y-80500000D03*
X134500000Y-126000000D03*
X174750000Y-108500000D03*
X188750000Y-129500000D03*
X197500000Y-126000000D03*
X155500000Y-84000000D03*
X194000000Y-147000000D03*
X181750000Y-115500000D03*
X108250000Y-87500000D03*
X127500000Y-70000000D03*
X162500000Y-70000000D03*
X131000000Y-105000000D03*
X145000000Y-91000000D03*
X104750000Y-122500000D03*
X164250000Y-122500000D03*
X143250000Y-101500000D03*
X157717062Y-88931833D03*
X166000000Y-119000000D03*
X183500000Y-126000000D03*
X178250000Y-122500000D03*
X173000000Y-133000000D03*
X167750000Y-101500000D03*
X136250000Y-87500000D03*
X185250000Y-136500000D03*
X167750000Y-108500000D03*
X111750000Y-66500000D03*
X104750000Y-80500000D03*
X169500000Y-140000000D03*
X159000000Y-77000000D03*
X115250000Y-115500000D03*
X103000000Y-140000000D03*
X167750000Y-122500000D03*
X118750000Y-122500000D03*
X131000000Y-147000000D03*
X146750000Y-87500000D03*
X190500000Y-147000000D03*
X155500000Y-133000000D03*
X164250000Y-143500000D03*
X159000000Y-70000000D03*
X187000000Y-126000000D03*
X167750000Y-66500000D03*
X113500000Y-147000000D03*
X152000000Y-147000000D03*
X164250000Y-73500000D03*
X148500000Y-140000000D03*
X183500000Y-119000000D03*
X169500000Y-63000000D03*
X110000000Y-105000000D03*
X141500000Y-140000000D03*
X113500000Y-84000000D03*
X125750000Y-73500000D03*
X159000000Y-140000000D03*
X139750000Y-115500000D03*
X146750000Y-66500000D03*
X149130666Y-97992062D03*
X164250000Y-136500000D03*
X129250000Y-115500000D03*
X197500000Y-140000000D03*
X146750000Y-136500000D03*
X166000000Y-140000000D03*
X173000000Y-140000000D03*
X117000000Y-147000000D03*
X111750000Y-108500000D03*
X122250000Y-143500000D03*
X127500000Y-63000000D03*
X124000000Y-84000000D03*
X152000000Y-63000000D03*
X174750000Y-129500000D03*
X143250000Y-66500000D03*
X150250000Y-80500000D03*
X155500000Y-63000000D03*
X115250000Y-122500000D03*
X131000000Y-133000000D03*
X120500000Y-84000000D03*
X120500000Y-147000000D03*
X129250000Y-108500000D03*
X118750000Y-80500000D03*
X164250000Y-115500000D03*
X115250000Y-94500000D03*
X188750000Y-115500000D03*
X185250000Y-129500000D03*
X148500000Y-63000000D03*
X148500000Y-70000000D03*
X192250000Y-136500000D03*
X173000000Y-126000000D03*
X141500000Y-84000000D03*
X146750000Y-94500000D03*
X155500000Y-119000000D03*
X106500000Y-63000000D03*
X166000000Y-77000000D03*
X148500000Y-112000000D03*
X155500000Y-147000000D03*
X145000000Y-140000000D03*
X117000000Y-63000000D03*
X127500000Y-112000000D03*
X148500000Y-77000000D03*
X176500000Y-119000000D03*
X171250000Y-143500000D03*
X151000000Y-102500000D03*
X164250000Y-87500000D03*
X104750000Y-143500000D03*
X129250000Y-143500000D03*
X164250000Y-80500000D03*
X160750000Y-143500000D03*
X181750000Y-129500000D03*
X195750000Y-129500000D03*
X104750000Y-108500000D03*
X141500000Y-119000000D03*
X110000000Y-98000000D03*
X124000000Y-119000000D03*
X131000000Y-70000000D03*
X153750000Y-73500000D03*
X160750000Y-66500000D03*
X115250000Y-129500000D03*
X136250000Y-108500000D03*
X141500000Y-70000000D03*
X103000000Y-98000000D03*
X178250000Y-108500000D03*
X159000000Y-84000000D03*
X146700000Y-105300000D03*
X188750000Y-108500000D03*
X104750000Y-66500000D03*
X164250000Y-94500000D03*
X103000000Y-112000000D03*
X183500000Y-140000000D03*
X113500000Y-133000000D03*
X117000000Y-98000000D03*
X166000000Y-112000000D03*
X108250000Y-136500000D03*
X174750000Y-122500000D03*
X169500000Y-70000000D03*
X159000000Y-63000000D03*
X173000000Y-147000000D03*
X127500000Y-105000000D03*
X152000000Y-70000000D03*
X180000000Y-112000000D03*
X174750000Y-115500000D03*
X139750000Y-101500000D03*
X153750000Y-66500000D03*
X124000000Y-63000000D03*
X178250000Y-129500000D03*
X111750000Y-122500000D03*
X106500000Y-91000000D03*
X192250000Y-143500000D03*
X106500000Y-105000000D03*
X162500000Y-126000000D03*
X187000000Y-119000000D03*
X113500000Y-126000000D03*
X169500000Y-98000000D03*
X195750000Y-122500000D03*
X160750000Y-73500000D03*
X134500000Y-98000000D03*
X108250000Y-94500000D03*
X138000000Y-98000000D03*
X103000000Y-70000000D03*
X197500000Y-119000000D03*
X154750000Y-93625000D03*
X176500000Y-112000000D03*
X124000000Y-77000000D03*
X146750000Y-115500000D03*
X148500000Y-84000000D03*
X188750000Y-143500000D03*
X141500000Y-91000000D03*
X178250000Y-115500000D03*
X150250000Y-87500000D03*
X122250000Y-101500000D03*
X197500000Y-133000000D03*
X125750000Y-136500000D03*
X127500000Y-91000000D03*
X117000000Y-84000000D03*
X118750000Y-94500000D03*
X106500000Y-147000000D03*
X108250000Y-129500000D03*
X190500000Y-112000000D03*
X122250000Y-136500000D03*
X187000000Y-133000000D03*
X157250000Y-143500000D03*
X120500000Y-119000000D03*
X136250000Y-101500000D03*
X108250000Y-101500000D03*
X117000000Y-77000000D03*
X145000000Y-77000000D03*
X110000000Y-84000000D03*
X155500000Y-98000000D03*
X181750000Y-136500000D03*
X106500000Y-70000000D03*
X180000000Y-147000000D03*
X118750000Y-136500000D03*
X138000000Y-126000000D03*
X106500000Y-112000000D03*
X183500000Y-112000000D03*
X171250000Y-122500000D03*
X131000000Y-84000000D03*
X152000000Y-119000000D03*
X115250000Y-66500000D03*
X108250000Y-122500000D03*
X195750000Y-108500000D03*
X103000000Y-77000000D03*
X180000000Y-140000000D03*
X124000000Y-105000000D03*
X136250000Y-94500000D03*
X153750000Y-136500000D03*
X122250000Y-94500000D03*
X117000000Y-91000000D03*
X169500000Y-133000000D03*
X138000000Y-140000000D03*
X167750000Y-136500000D03*
X150250000Y-108500000D03*
X166000000Y-63000000D03*
X124000000Y-140000000D03*
X125750000Y-94500000D03*
X152000000Y-91000000D03*
X143250000Y-87500000D03*
X108250000Y-66500000D03*
X103000000Y-84000000D03*
X138000000Y-91000000D03*
X181750000Y-108500000D03*
X145000000Y-84000000D03*
X141500000Y-147000000D03*
X111750000Y-136500000D03*
X103000000Y-91000000D03*
X187000000Y-147000000D03*
X136250000Y-73500000D03*
X157250000Y-73500000D03*
X103000000Y-105000000D03*
X139750000Y-73500000D03*
X117000000Y-126000000D03*
X103000000Y-133000000D03*
X127500000Y-98000000D03*
X110000000Y-70000000D03*
X118750000Y-73500000D03*
X167750000Y-143500000D03*
X120500000Y-91000000D03*
X145000000Y-70000000D03*
%TO.N,SWDIO*%
X161968900Y-118439900D03*
X161968900Y-98250000D03*
%TO.N,GND_HOST*%
X195750000Y-87500000D03*
X176500000Y-77000000D03*
X192250000Y-73500000D03*
X185250000Y-87500000D03*
X188750000Y-66500000D03*
X187000000Y-105000000D03*
X192140577Y-85650000D03*
X183500000Y-98000000D03*
X176500000Y-105000000D03*
X188750000Y-94500000D03*
X185250000Y-73500000D03*
X185250000Y-66500000D03*
X187000000Y-84000000D03*
X190500000Y-91000000D03*
X180000000Y-105000000D03*
X192250000Y-87500000D03*
X192250000Y-94500000D03*
X194000000Y-98000000D03*
X187000000Y-98000000D03*
X178250000Y-94500000D03*
X195750000Y-101500000D03*
X176500000Y-84000000D03*
X195750000Y-94500000D03*
X194000000Y-105000000D03*
X181750000Y-80500000D03*
X176500000Y-70000000D03*
X183500000Y-84000000D03*
X194000000Y-70000000D03*
X190500000Y-77000000D03*
X180000000Y-77000000D03*
X180000000Y-70000000D03*
X194000000Y-91000000D03*
X188750000Y-87500000D03*
X192250000Y-101500000D03*
X185250000Y-80500000D03*
X181750000Y-66500000D03*
X180000000Y-98000000D03*
X180000000Y-84000000D03*
X187000000Y-70000000D03*
X195750000Y-66500000D03*
X190500000Y-105000000D03*
X190500000Y-98000000D03*
X178250000Y-80500000D03*
X178250000Y-73500000D03*
X185250000Y-101500000D03*
X192250000Y-66500000D03*
X176500000Y-98000000D03*
X181750000Y-101500000D03*
X188750000Y-101500000D03*
X181750000Y-73500000D03*
X183500000Y-70000000D03*
X178250000Y-101500000D03*
X178250000Y-66500000D03*
X176363603Y-88861396D03*
X183500000Y-105000000D03*
%TO.N,VBUS_USB*%
X191821800Y-79600000D03*
X191564500Y-84400000D03*
%TO.N,ESTOP_SENSE*%
X146712900Y-99857100D03*
X155114500Y-111816100D03*
X153704200Y-102904000D03*
%TO.N,ARM_DIV*%
X158641500Y-90238000D03*
X144443900Y-99998500D03*
%TO.N,SCL1*%
X125413700Y-132013000D03*
X155750000Y-94074300D03*
X134257600Y-120971100D03*
%TO.N,SHUNT_INP_RAW*%
X126152800Y-125951400D03*
%TO.N,RELAY_FB*%
X155672300Y-116250000D03*
X155709300Y-103950600D03*
%TO.N,UART_RX_MCU*%
X169156900Y-104999600D03*
X153415500Y-106639700D03*
%TO.N,3V3_A*%
X125535800Y-130050600D03*
X140309700Y-107898100D03*
X145219300Y-98277600D03*
%TO.N,INA_ALERT*%
X158371800Y-108112200D03*
X123094900Y-121317000D03*
%TO.N,LOAD_EN*%
X165380200Y-102635300D03*
X139375000Y-103492000D03*
%TO.N,NRST*%
X153126700Y-117973900D03*
X149876100Y-97275000D03*
X153580000Y-100080100D03*
%TO.N,SWCLK*%
X161145000Y-120000000D03*
X162368600Y-95834300D03*
%TO.N,SWO*%
X161193700Y-136320700D03*
X158750000Y-96562400D03*
%TO.N,BOOT0*%
X156251600Y-96553400D03*
%TO.N,SDA1*%
X153780700Y-96559000D03*
X123433800Y-128500000D03*
X135877200Y-117500000D03*
X124950400Y-119296600D03*
%TO.N,USB_DM*%
X189057600Y-71709600D03*
X181991700Y-90723400D03*
%TO.N,USB_DP*%
X182749900Y-90700300D03*
X190269400Y-69406000D03*
%TD*%
%TO.N,ESTOP_OUT*%
D24*
X112500000Y-92000000D02*
X112500000Y-99000000D01*
%TO.N,COIL_V*%
X112500000Y-111000000D02*
X112500000Y-104000000D01*
%TO.N,+3V3*%
X182000000Y-146000000D02*
X182000000Y-139712900D01*
X182000000Y-139712900D02*
X178287100Y-136000000D01*
%TO.N,SWDIO*%
D25*
X161968900Y-118439900D02*
X161968900Y-98250000D01*
%TO.N,VBUS_USB*%
D24*
X191564500Y-84400000D02*
X191564500Y-79857300D01*
X191564500Y-79857300D02*
X191821800Y-79600000D01*
%TO.N,USB_SHIELD*%
D25*
X196523300Y-86320000D02*
X196523300Y-77680000D01*
X197675000Y-86320000D02*
X196523300Y-86320000D01*
X197675000Y-77680000D02*
X196523300Y-77680000D01*
%TO.N,ES_LED_A*%
X122000000Y-88000000D02*
X122500000Y-87500000D01*
X122500000Y-87500000D02*
X122500000Y-85000000D01*
%TO.N,ESTOP_SENSE*%
X153967200Y-103167000D02*
X153704200Y-102904000D01*
X155114500Y-111816100D02*
X153967200Y-110668800D01*
X153967200Y-110668800D02*
X153967200Y-103167000D01*
%TO.N,ARM_DIV*%
X154204400Y-90238000D02*
X144443900Y-99998500D01*
X158641500Y-90238000D02*
X154204400Y-90238000D01*
%TO.N,SCL1*%
X125413700Y-132013000D02*
X125747000Y-132013000D01*
X152749000Y-93033700D02*
X154993600Y-93033700D01*
X154993600Y-93033700D02*
X155750000Y-93790100D01*
X134257600Y-123502400D02*
X134257600Y-120971100D01*
X143102400Y-109082800D02*
X143102400Y-102680300D01*
X134257600Y-117927600D02*
X143102400Y-109082800D01*
X134257600Y-120971100D02*
X134257600Y-117927600D01*
X143102400Y-102680300D02*
X152749000Y-93033700D01*
X155750000Y-93790100D02*
X155750000Y-94074300D01*
X125747000Y-132013000D02*
X134257600Y-123502400D01*
%TO.N,SHUNT_INP_RAW*%
X114000000Y-142646600D02*
X114000000Y-143000000D01*
X126152800Y-130493800D02*
X114000000Y-142646600D01*
X126152800Y-125951400D02*
X126152800Y-130493800D01*
%TO.N,FB_LED_A*%
X144000000Y-134000000D02*
X144000000Y-133000000D01*
X142000000Y-136000000D02*
X144000000Y-134000000D01*
%TO.N,RELAY_FB*%
X148873900Y-123048400D02*
X155672300Y-116250000D01*
X148873900Y-135253900D02*
X148873900Y-123048400D01*
X155709300Y-103950600D02*
X155709300Y-116213000D01*
X149620000Y-136000000D02*
X148873900Y-135253900D01*
X155709300Y-116213000D02*
X155672300Y-116250000D01*
%TO.N,3V3_A*%
D24*
X125535800Y-130050600D02*
X125535800Y-122672000D01*
X140309700Y-107898100D02*
X140309700Y-103187200D01*
X125535800Y-122672000D02*
X140309700Y-107898100D01*
X140309700Y-103187200D02*
X145219300Y-98277600D01*
%TO.N,NRST*%
D25*
X152863800Y-100796300D02*
X152863800Y-117711000D01*
X153130600Y-100529500D02*
X152863800Y-100796300D01*
X153580000Y-100080100D02*
X153130600Y-100529500D01*
X152863800Y-117711000D02*
X153126700Y-117973900D01*
X153130600Y-100529500D02*
X149876100Y-97275000D01*
%TO.N,SWCLK*%
X162520600Y-95986300D02*
X162368600Y-95834300D01*
X162520600Y-118668400D02*
X162520600Y-95986300D01*
X161189000Y-120000000D02*
X162520600Y-118668400D01*
X161145000Y-120000000D02*
X161189000Y-120000000D01*
%TO.N,SWO*%
X161193700Y-136320700D02*
X158923500Y-134050500D01*
X158923500Y-96735900D02*
X158750000Y-96562400D01*
X158923500Y-134050500D02*
X158923500Y-96735900D01*
%TO.N,BOOT0*%
X150000000Y-132540000D02*
X156270100Y-126269900D01*
X156270100Y-96571900D02*
X156251600Y-96553400D01*
X156270100Y-126269900D02*
X156270100Y-96571900D01*
%TO.N,SDA1*%
X153780700Y-96559000D02*
X149771200Y-96559000D01*
X149771200Y-96559000D02*
X148276600Y-98053600D01*
X124950400Y-126983400D02*
X123433800Y-128500000D01*
X124950400Y-119296600D02*
X124950400Y-126983400D01*
X148276600Y-98053600D02*
X148276600Y-105100600D01*
X148276600Y-105100600D02*
X135877200Y-117500000D01*
%TO.N,USB_DM*%
X182520400Y-91252100D02*
X183007800Y-91252100D01*
X183007800Y-91252100D02*
X189057600Y-85202300D01*
X181991700Y-90723400D02*
X182520400Y-91252100D01*
X189057600Y-85202300D02*
X189057600Y-71709600D01*
%TO.N,USB_DP*%
X190269400Y-69406000D02*
X182749900Y-76925500D01*
X182749900Y-76925500D02*
X182749900Y-90700300D01*
%TD*%
%TA.AperFunction,Conductor*%
%TO.N,GND*%
G36*
X155822920Y-116788511D02*
G01*
X155880038Y-116810434D01*
X155912663Y-116859257D01*
X155915523Y-116868912D01*
X155919600Y-116897030D01*
X155919600Y-126068028D01*
X155914754Y-126098621D01*
X155907207Y-126121848D01*
X155883057Y-126161259D01*
X151280590Y-130763726D01*
X151255529Y-130781933D01*
X151245786Y-130786897D01*
X151185354Y-130796467D01*
X151130838Y-130768688D01*
X151104577Y-130721793D01*
X151103234Y-130716198D01*
X151100500Y-130693091D01*
X151100500Y-129125327D01*
X151100498Y-129125315D01*
X151097015Y-129107810D01*
X151097014Y-129107804D01*
X151085966Y-129052260D01*
X151030605Y-128969404D01*
X151030603Y-128969402D01*
X151030601Y-128969399D01*
X151030599Y-128969397D01*
X151030595Y-128969394D01*
X151030593Y-128969392D01*
X150947748Y-128914038D01*
X150947737Y-128914032D01*
X150947534Y-128913964D01*
X150945997Y-128913687D01*
X150874694Y-128899503D01*
X150874684Y-128899501D01*
X150874679Y-128899500D01*
X150874676Y-128899500D01*
X150874674Y-128899500D01*
X150874673Y-128899500D01*
X149339080Y-128899500D01*
X149308487Y-128894654D01*
X149295801Y-128890532D01*
X149246301Y-128854568D01*
X149246294Y-128854558D01*
X149243300Y-128850436D01*
X149224400Y-128792256D01*
X149224400Y-123250270D01*
X149229244Y-123219681D01*
X149236791Y-123196450D01*
X149260940Y-123157041D01*
X155577402Y-116840579D01*
X155602454Y-116822378D01*
X155624221Y-116811288D01*
X155669162Y-116800500D01*
X155744775Y-116800500D01*
X155779833Y-116791105D01*
X155810623Y-116787867D01*
X155822920Y-116788511D01*
G37*
%TD.AperFunction*%
%TA.AperFunction,Conductor*%
G36*
X143948935Y-100256070D02*
G01*
X143956236Y-100262998D01*
X143973827Y-100285311D01*
X143980929Y-100297612D01*
X144003387Y-100336510D01*
X144003389Y-100336512D01*
X144003391Y-100336515D01*
X144105885Y-100439009D01*
X144105887Y-100439010D01*
X144105994Y-100439117D01*
X144106245Y-100439303D01*
X144108438Y-100440484D01*
X144177925Y-100480602D01*
X144228657Y-100509892D01*
X144231070Y-100511390D01*
X144231408Y-100511480D01*
X144231411Y-100511482D01*
X144231412Y-100511482D01*
X144231415Y-100511484D01*
X144371425Y-100549000D01*
X144371426Y-100549000D01*
X144483331Y-100549000D01*
X144513922Y-100553845D01*
X144524322Y-100557224D01*
X144573823Y-100593187D01*
X144592731Y-100651378D01*
X144578142Y-100703107D01*
X144575138Y-100708009D01*
X144560731Y-100726285D01*
X143574533Y-101712485D01*
X142821929Y-102465088D01*
X142782950Y-102532600D01*
X142782949Y-102532604D01*
X142775787Y-102545006D01*
X142775785Y-102545012D01*
X142751900Y-102634157D01*
X142751900Y-108880929D01*
X142747054Y-108911522D01*
X142739507Y-108934749D01*
X142715357Y-108974160D01*
X133977126Y-117712392D01*
X133977125Y-117712393D01*
X133930986Y-117792308D01*
X133907100Y-117881457D01*
X133907100Y-120486387D01*
X133902254Y-120516981D01*
X133894707Y-120540207D01*
X133870558Y-120579615D01*
X133817096Y-120633078D01*
X133817088Y-120633087D01*
X133744618Y-120758607D01*
X133744617Y-120758609D01*
X133744617Y-120758610D01*
X133707100Y-120898625D01*
X133707100Y-121043574D01*
X133740185Y-121167049D01*
X133744618Y-121183593D01*
X133817086Y-121309110D01*
X133867018Y-121359043D01*
X133885223Y-121384100D01*
X133896309Y-121405857D01*
X133907100Y-121450803D01*
X133907100Y-123300528D01*
X133902254Y-123331121D01*
X133894707Y-123354348D01*
X133870557Y-123393759D01*
X127543324Y-129720991D01*
X127518266Y-129739196D01*
X127507305Y-129744781D01*
X127446873Y-129754353D01*
X127394214Y-129728386D01*
X127386913Y-129721458D01*
X127369322Y-129699144D01*
X127346310Y-129659287D01*
X127346309Y-129659285D01*
X127243815Y-129556791D01*
X127243812Y-129556789D01*
X127243810Y-129556787D01*
X127175574Y-129517391D01*
X127154541Y-129494031D01*
X127088697Y-129476387D01*
X127088696Y-129476387D01*
X126978275Y-129446800D01*
X126978273Y-129446800D01*
X126833327Y-129446800D01*
X126833325Y-129446800D01*
X126722903Y-129476387D01*
X126710395Y-129479738D01*
X126693311Y-129484316D01*
X126665380Y-129500443D01*
X126636464Y-129511543D01*
X126625319Y-129513912D01*
X126564469Y-129507516D01*
X126518999Y-129466575D01*
X126516556Y-129462343D01*
X126503300Y-129412856D01*
X126503300Y-126436111D01*
X126508145Y-126405520D01*
X126515692Y-126382291D01*
X126539843Y-126342879D01*
X126593309Y-126289415D01*
X126593310Y-126289412D01*
X126593312Y-126289411D01*
X126665782Y-126163889D01*
X126665782Y-126163887D01*
X126665784Y-126163885D01*
X126703300Y-126023875D01*
X126703300Y-125878925D01*
X126665784Y-125738915D01*
X126665782Y-125738912D01*
X126665782Y-125738910D01*
X126665781Y-125738908D01*
X126665690Y-125738568D01*
X126664197Y-125736164D01*
X126594785Y-125615939D01*
X126593605Y-125613747D01*
X126593417Y-125613494D01*
X126593310Y-125613387D01*
X126593309Y-125613385D01*
X126490815Y-125510891D01*
X126490812Y-125510889D01*
X126490810Y-125510887D01*
X126422574Y-125471491D01*
X126401541Y-125448131D01*
X126335697Y-125430487D01*
X126335696Y-125430487D01*
X126225275Y-125400900D01*
X126225273Y-125400900D01*
X126080320Y-125400900D01*
X126076060Y-125402042D01*
X126045263Y-125405277D01*
X126032977Y-125404633D01*
X125975856Y-125382706D01*
X125943236Y-125333886D01*
X125940377Y-125324234D01*
X125936300Y-125296117D01*
X125936300Y-122894580D01*
X125941144Y-122863991D01*
X125948691Y-122840760D01*
X125972840Y-122801351D01*
X140285512Y-108488679D01*
X140310564Y-108470478D01*
X140332331Y-108459388D01*
X140377272Y-108448600D01*
X140382174Y-108448600D01*
X140382175Y-108448600D01*
X140522185Y-108411084D01*
X140522186Y-108411083D01*
X140522188Y-108411082D01*
X140522189Y-108411082D01*
X140641580Y-108342151D01*
X140644468Y-108340748D01*
X140645254Y-108340231D01*
X140650263Y-108337137D01*
X140651562Y-108336386D01*
X140656920Y-108329403D01*
X140750209Y-108236115D01*
X140822684Y-108110585D01*
X140860200Y-107970575D01*
X140860200Y-107825625D01*
X140822684Y-107685615D01*
X140822682Y-107685612D01*
X140822682Y-107685610D01*
X140750212Y-107560089D01*
X140750207Y-107560083D01*
X140745789Y-107555665D01*
X140740421Y-107546585D01*
X140732075Y-107535097D01*
X140720988Y-107513335D01*
X140710200Y-107468394D01*
X140710200Y-103409780D01*
X140715044Y-103379191D01*
X140722591Y-103355960D01*
X140746740Y-103316551D01*
X143799829Y-100263461D01*
X143824883Y-100245259D01*
X143835849Y-100239672D01*
X143896280Y-100230103D01*
X143948935Y-100256070D01*
G37*
%TD.AperFunction*%
%TA.AperFunction,Conductor*%
G36*
X147895761Y-98527408D02*
G01*
X147922019Y-98574290D01*
X147923363Y-98579890D01*
X147926100Y-98603006D01*
X147926100Y-104898729D01*
X147921254Y-104929322D01*
X147913707Y-104952549D01*
X147889557Y-104991960D01*
X143615555Y-109265961D01*
X143590496Y-109284166D01*
X143583152Y-109287908D01*
X143522720Y-109297480D01*
X143468204Y-109269703D01*
X143440428Y-109215202D01*
X143439768Y-109211031D01*
X143441920Y-109169917D01*
X143452900Y-109128944D01*
X143452900Y-102882169D01*
X143457744Y-102851580D01*
X143465291Y-102828349D01*
X143489440Y-102788940D01*
X146100851Y-100177528D01*
X146112396Y-100171646D01*
X146121030Y-100161985D01*
X146125891Y-100159333D01*
X146136875Y-100153736D01*
X146152357Y-100151286D01*
X146155366Y-100149753D01*
X146158702Y-100150281D01*
X146197307Y-100144170D01*
X146249957Y-100170134D01*
X146257446Y-100177240D01*
X146268218Y-100190670D01*
X146268655Y-100190330D01*
X146272387Y-100195110D01*
X146272389Y-100195112D01*
X146272391Y-100195115D01*
X146374885Y-100297609D01*
X146374887Y-100297610D01*
X146374889Y-100297612D01*
X146376534Y-100298561D01*
X146376634Y-100298651D01*
X146377438Y-100299084D01*
X146442266Y-100336512D01*
X146497657Y-100368492D01*
X146500070Y-100369990D01*
X146500408Y-100370080D01*
X146500411Y-100370082D01*
X146500412Y-100370082D01*
X146500415Y-100370084D01*
X146640425Y-100407600D01*
X146640426Y-100407600D01*
X146785374Y-100407600D01*
X146785375Y-100407600D01*
X146925385Y-100370084D01*
X146925386Y-100370083D01*
X146925388Y-100370082D01*
X146925389Y-100370082D01*
X147044780Y-100301151D01*
X147047668Y-100299748D01*
X147048454Y-100299231D01*
X147053463Y-100296137D01*
X147054762Y-100295386D01*
X147060120Y-100288403D01*
X147153409Y-100195115D01*
X147153412Y-100195110D01*
X147225882Y-100069589D01*
X147225882Y-100069587D01*
X147225884Y-100069585D01*
X147263400Y-99929575D01*
X147263400Y-99784625D01*
X147225884Y-99644615D01*
X147225882Y-99644612D01*
X147225882Y-99644610D01*
X147225881Y-99644608D01*
X147225790Y-99644268D01*
X147224297Y-99641864D01*
X147154885Y-99521639D01*
X147154546Y-99521010D01*
X147154477Y-99520934D01*
X147153412Y-99519089D01*
X147153410Y-99519087D01*
X147153409Y-99519085D01*
X147050915Y-99416591D01*
X147050912Y-99416589D01*
X147050911Y-99416588D01*
X147047130Y-99413488D01*
X147047261Y-99413327D01*
X147032787Y-99400812D01*
X147024017Y-99391072D01*
X146999136Y-99335175D01*
X147010593Y-99277593D01*
X147015397Y-99268745D01*
X147016362Y-99267452D01*
X147016509Y-99266753D01*
X147017671Y-99265699D01*
X147032389Y-99245991D01*
X147746014Y-98532366D01*
X147771064Y-98514167D01*
X147780817Y-98509198D01*
X147841245Y-98499629D01*
X147895761Y-98527408D01*
G37*
%TD.AperFunction*%
%TA.AperFunction,Conductor*%
G36*
X171415908Y-60504843D02*
G01*
X171428595Y-60508966D01*
X171478095Y-60544927D01*
X171478096Y-60544928D01*
X171481091Y-60549050D01*
X171500000Y-60607240D01*
X171500000Y-107500000D01*
X174197069Y-107500000D01*
X174255260Y-107518907D01*
X174286975Y-107557552D01*
X174298140Y-107581772D01*
X174298141Y-107581773D01*
X174334101Y-107631269D01*
X174334104Y-107631272D01*
X174334105Y-107631273D01*
X174374876Y-107675378D01*
X174461857Y-107724088D01*
X174520048Y-107742995D01*
X174520049Y-107742995D01*
X174520052Y-107742996D01*
X174598997Y-107755500D01*
X197401000Y-107755500D01*
X197459191Y-107774407D01*
X197495155Y-107823907D01*
X197500000Y-107854500D01*
X197500000Y-144713162D01*
X197495154Y-144743756D01*
X197491774Y-144754158D01*
X197455809Y-144803658D01*
X197397618Y-144822564D01*
X197345892Y-144807975D01*
X197340990Y-144804971D01*
X197322715Y-144790564D01*
X197183090Y-144650940D01*
X196996889Y-144508063D01*
X196996886Y-144508061D01*
X196793612Y-144390701D01*
X196793608Y-144390699D01*
X196793604Y-144390697D01*
X196597047Y-144309281D01*
X196597046Y-144309280D01*
X196597046Y-144309281D01*
X196580007Y-144302223D01*
X196577326Y-144300999D01*
X196575343Y-144300500D01*
X196533950Y-144289409D01*
X196350059Y-144240136D01*
X196117356Y-144209500D01*
X195882642Y-144209500D01*
X195649939Y-144240136D01*
X195423231Y-144300881D01*
X195423172Y-144300902D01*
X195422693Y-144301104D01*
X195206391Y-144390698D01*
X195003109Y-144508063D01*
X194816917Y-144650933D01*
X194650933Y-144816917D01*
X194508063Y-145003109D01*
X194390698Y-145206391D01*
X194301104Y-145422693D01*
X194300902Y-145423172D01*
X194300881Y-145423231D01*
X194240136Y-145649939D01*
X194209500Y-145882642D01*
X194209500Y-146117356D01*
X194240136Y-146350059D01*
X194300881Y-146576767D01*
X194300901Y-146576825D01*
X194301104Y-146577305D01*
X194390705Y-146793622D01*
X194390744Y-146793700D01*
X194391110Y-146794320D01*
X194499783Y-146982549D01*
X194508061Y-146996886D01*
X194650936Y-147183085D01*
X194650938Y-147183087D01*
X194650942Y-147183092D01*
X194816908Y-147349058D01*
X194816911Y-147349060D01*
X194816917Y-147349066D01*
X194816939Y-147349085D01*
X194817313Y-147349369D01*
X195003113Y-147491938D01*
X195003117Y-147491941D01*
X195203654Y-147607720D01*
X195205041Y-147608582D01*
X195207811Y-147610120D01*
X195208266Y-147610382D01*
X195212362Y-147611773D01*
X195264877Y-147633525D01*
X195423228Y-147699117D01*
X195649941Y-147759864D01*
X195882644Y-147790500D01*
X195882645Y-147790500D01*
X196117355Y-147790500D01*
X196117356Y-147790500D01*
X196350059Y-147759864D01*
X196576772Y-147699117D01*
X196793617Y-147609296D01*
X196996883Y-147491941D01*
X197183092Y-147349058D01*
X197319911Y-147212237D01*
X197344969Y-147194032D01*
X197354717Y-147189065D01*
X197415150Y-147179499D01*
X197469664Y-147207280D01*
X197495918Y-147254156D01*
X197497262Y-147259751D01*
X197500000Y-147282874D01*
X197500000Y-149385319D01*
X197495154Y-149415912D01*
X197491032Y-149428598D01*
X197455080Y-149478089D01*
X197450959Y-149481084D01*
X197392771Y-149500000D01*
X100614680Y-149500000D01*
X100584087Y-149495154D01*
X100571401Y-149491032D01*
X100521901Y-149455068D01*
X100521894Y-149455058D01*
X100518900Y-149450936D01*
X100500000Y-149392756D01*
X100500000Y-145882642D01*
X102209500Y-145882642D01*
X102209500Y-146117356D01*
X102240136Y-146350059D01*
X102300881Y-146576767D01*
X102300901Y-146576825D01*
X102301104Y-146577305D01*
X102390705Y-146793622D01*
X102390744Y-146793700D01*
X102391110Y-146794320D01*
X102499783Y-146982549D01*
X102508061Y-146996886D01*
X102650936Y-147183085D01*
X102650938Y-147183087D01*
X102650942Y-147183092D01*
X102816908Y-147349058D01*
X102816911Y-147349060D01*
X102816917Y-147349066D01*
X102816939Y-147349085D01*
X102817313Y-147349369D01*
X103003113Y-147491938D01*
X103003117Y-147491941D01*
X103203654Y-147607720D01*
X103205041Y-147608582D01*
X103207811Y-147610120D01*
X103208266Y-147610382D01*
X103212362Y-147611773D01*
X103264877Y-147633525D01*
X103423228Y-147699117D01*
X103649941Y-147759864D01*
X103882644Y-147790500D01*
X103882645Y-147790500D01*
X104117355Y-147790500D01*
X104117356Y-147790500D01*
X104350059Y-147759864D01*
X104576772Y-147699117D01*
X104793617Y-147609296D01*
X104996883Y-147491941D01*
X105183092Y-147349058D01*
X105349058Y-147183092D01*
X105491941Y-146996883D01*
X105609296Y-146793617D01*
X105699117Y-146576772D01*
X105759864Y-146350059D01*
X105790500Y-146117356D01*
X105790500Y-145882644D01*
X105759864Y-145649941D01*
X105699117Y-145423228D01*
X105633525Y-145264877D01*
X105609298Y-145206387D01*
X105595702Y-145182838D01*
X105491941Y-145003117D01*
X105418329Y-144907184D01*
X105349369Y-144817313D01*
X105349085Y-144816939D01*
X105349066Y-144816917D01*
X105349061Y-144816912D01*
X105349058Y-144816908D01*
X105183092Y-144650942D01*
X105183087Y-144650938D01*
X105183085Y-144650936D01*
X104996886Y-144508061D01*
X104793612Y-144390701D01*
X104793608Y-144390699D01*
X104793604Y-144390697D01*
X104597047Y-144309281D01*
X104597046Y-144309280D01*
X104597046Y-144309281D01*
X104580007Y-144302223D01*
X104577326Y-144300999D01*
X104575343Y-144300500D01*
X104533950Y-144289409D01*
X104350059Y-144240136D01*
X104117356Y-144209500D01*
X103882642Y-144209500D01*
X103649939Y-144240136D01*
X103423231Y-144300881D01*
X103423172Y-144300902D01*
X103422693Y-144301104D01*
X103206391Y-144390698D01*
X103003109Y-144508063D01*
X102816917Y-144650933D01*
X102650933Y-144816917D01*
X102508063Y-145003109D01*
X102390698Y-145206391D01*
X102301104Y-145422693D01*
X102300902Y-145423172D01*
X102300881Y-145423231D01*
X102240136Y-145649939D01*
X102209500Y-145882642D01*
X100500000Y-145882642D01*
X100500000Y-142107132D01*
X112879500Y-142107132D01*
X112879500Y-143892920D01*
X112879584Y-143893648D01*
X112884281Y-143937349D01*
X112885908Y-143952480D01*
X112885909Y-143952485D01*
X112886831Y-143954957D01*
X112936200Y-144087327D01*
X113022449Y-144202541D01*
X113022522Y-144202633D01*
X113022799Y-144202879D01*
X113024588Y-144204144D01*
X113072668Y-144240136D01*
X113137668Y-144288796D01*
X113137669Y-144288796D01*
X113137670Y-144288797D01*
X113271544Y-144338728D01*
X113272985Y-144339285D01*
X113274247Y-144339466D01*
X113277767Y-144339655D01*
X113332127Y-144345500D01*
X114667872Y-144345499D01*
X114727483Y-144339091D01*
X114727489Y-144339089D01*
X114752252Y-144329852D01*
X114829927Y-144300882D01*
X114860690Y-144289408D01*
X114864021Y-144288233D01*
X114867582Y-144287047D01*
X114875167Y-144279186D01*
X114977546Y-144202546D01*
X115063796Y-144087331D01*
X115066654Y-144079670D01*
X115112251Y-143957415D01*
X115113454Y-143954651D01*
X115114087Y-143952492D01*
X115114089Y-143952488D01*
X115114090Y-143952485D01*
X115114091Y-143952483D01*
X115120500Y-143892873D01*
X115120499Y-142686808D01*
X115419500Y-142686808D01*
X115419500Y-143313191D01*
X115447087Y-143487376D01*
X115447461Y-143488731D01*
X115448101Y-143490500D01*
X115501588Y-143655116D01*
X115501590Y-143655119D01*
X115501591Y-143655122D01*
X115501592Y-143655123D01*
X115581662Y-143812270D01*
X115685330Y-143954957D01*
X115810043Y-144079670D01*
X115952730Y-144183338D01*
X116109877Y-144263408D01*
X116277455Y-144317857D01*
X116277614Y-144317910D01*
X116451809Y-144345500D01*
X116628188Y-144345500D01*
X116628191Y-144345500D01*
X116697498Y-144334522D01*
X116802379Y-144317911D01*
X116802379Y-144317910D01*
X116802381Y-144317910D01*
X116802384Y-144317910D01*
X116802387Y-144317909D01*
X116804963Y-144317501D01*
X116809770Y-144315509D01*
X116970123Y-144263408D01*
X117127270Y-144183338D01*
X117269957Y-144079670D01*
X117394670Y-143954957D01*
X117498338Y-143812270D01*
X117578408Y-143655123D01*
X117632910Y-143487384D01*
X117632911Y-143487379D01*
X117639808Y-143443831D01*
X117660500Y-143313191D01*
X117660500Y-142686807D01*
X117659883Y-142682911D01*
X117910000Y-142682911D01*
X117910000Y-142682915D01*
X117910000Y-142799999D01*
X117910001Y-142800000D01*
X118388581Y-142800000D01*
X118446772Y-142818907D01*
X118482736Y-142868407D01*
X118483958Y-142914986D01*
X118485847Y-142915235D01*
X118485000Y-142921668D01*
X118485000Y-143078332D01*
X118485847Y-143084765D01*
X118483703Y-143085047D01*
X118481001Y-143136490D01*
X118442490Y-143184035D01*
X118388581Y-143200000D01*
X117910001Y-143200000D01*
X117910000Y-143200001D01*
X117910000Y-143200002D01*
X117910000Y-143317087D01*
X117937185Y-143488731D01*
X117938807Y-143498971D01*
X117970432Y-143596302D01*
X117995718Y-143674124D01*
X118079323Y-143838210D01*
X118079327Y-143838216D01*
X118187568Y-143987196D01*
X118187570Y-143987198D01*
X118187573Y-143987202D01*
X118317797Y-144117426D01*
X118317800Y-144117428D01*
X118317802Y-144117430D01*
X118444525Y-144209500D01*
X118466788Y-144225675D01*
X118630875Y-144309281D01*
X118806027Y-144366192D01*
X118806028Y-144366192D01*
X118806031Y-144366193D01*
X118879997Y-144377907D01*
X118879997Y-144377906D01*
X118879999Y-144377907D01*
X118880000Y-144377906D01*
X118880000Y-143691418D01*
X118898907Y-143633227D01*
X118948407Y-143597263D01*
X118994983Y-143596048D01*
X118995233Y-143594153D01*
X119001666Y-143595000D01*
X119158333Y-143595000D01*
X119158334Y-143595000D01*
X119164767Y-143594153D01*
X119165050Y-143596302D01*
X119216457Y-143598985D01*
X119264016Y-143637480D01*
X119280000Y-143691418D01*
X119280000Y-144377907D01*
X119353967Y-144366193D01*
X119353968Y-144366192D01*
X119353972Y-144366192D01*
X119529124Y-144309281D01*
X119693211Y-144225675D01*
X119842202Y-144117426D01*
X119972426Y-143987202D01*
X120080675Y-143838211D01*
X120164281Y-143674124D01*
X120221192Y-143498971D01*
X120223028Y-143487378D01*
X120250000Y-143317087D01*
X120250000Y-143200002D01*
X120250000Y-143200001D01*
X120249999Y-143200000D01*
X120249998Y-143200000D01*
X119771419Y-143200000D01*
X119713228Y-143181093D01*
X119677264Y-143131593D01*
X119676041Y-143085013D01*
X119674153Y-143084765D01*
X119675000Y-143078332D01*
X119675000Y-142921668D01*
X119674153Y-142915235D01*
X119676296Y-142914952D01*
X119678999Y-142863510D01*
X119717510Y-142815965D01*
X119771419Y-142800000D01*
X120249998Y-142800000D01*
X120249999Y-142800000D01*
X120250000Y-142799999D01*
X120250000Y-142682915D01*
X120250000Y-142682911D01*
X120221193Y-142501032D01*
X120221192Y-142501028D01*
X120164281Y-142325875D01*
X120080674Y-142161786D01*
X120080668Y-142161777D01*
X120080664Y-142161772D01*
X120080658Y-142161762D01*
X120040967Y-142107132D01*
X129879500Y-142107132D01*
X129879500Y-143892920D01*
X129879584Y-143893648D01*
X129884281Y-143937349D01*
X129885908Y-143952480D01*
X129885909Y-143952485D01*
X129886831Y-143954957D01*
X129936200Y-144087327D01*
X130022449Y-144202541D01*
X130022522Y-144202633D01*
X130022799Y-144202879D01*
X130024588Y-144204144D01*
X130072668Y-144240136D01*
X130137668Y-144288796D01*
X130137669Y-144288796D01*
X130137670Y-144288797D01*
X130271544Y-144338728D01*
X130272985Y-144339285D01*
X130274247Y-144339466D01*
X130277767Y-144339655D01*
X130332127Y-144345500D01*
X131667872Y-144345499D01*
X131727483Y-144339091D01*
X131727489Y-144339089D01*
X131752252Y-144329852D01*
X131829927Y-144300882D01*
X131860690Y-144289408D01*
X131864021Y-144288233D01*
X131867582Y-144287047D01*
X131875167Y-144279186D01*
X131977546Y-144202546D01*
X132063796Y-144087331D01*
X132066654Y-144079670D01*
X132112251Y-143957415D01*
X132113454Y-143954651D01*
X132114087Y-143952492D01*
X132114089Y-143952488D01*
X132114090Y-143952485D01*
X132114091Y-143952483D01*
X132120500Y-143892873D01*
X132120499Y-142686808D01*
X132419500Y-142686808D01*
X132419500Y-143313191D01*
X132447087Y-143487376D01*
X132447461Y-143488731D01*
X132448101Y-143490500D01*
X132501588Y-143655116D01*
X132501590Y-143655119D01*
X132501591Y-143655122D01*
X132501592Y-143655123D01*
X132581662Y-143812270D01*
X132685330Y-143954957D01*
X132810043Y-144079670D01*
X132952730Y-144183338D01*
X133109877Y-144263408D01*
X133277455Y-144317857D01*
X133277614Y-144317910D01*
X133451809Y-144345500D01*
X133628188Y-144345500D01*
X133628191Y-144345500D01*
X133697498Y-144334522D01*
X133802379Y-144317911D01*
X133802379Y-144317910D01*
X133802381Y-144317910D01*
X133802384Y-144317910D01*
X133802387Y-144317909D01*
X133804963Y-144317501D01*
X133809770Y-144315509D01*
X133970123Y-144263408D01*
X134127270Y-144183338D01*
X134269957Y-144079670D01*
X134394670Y-143954957D01*
X134498338Y-143812270D01*
X134578408Y-143655123D01*
X134632910Y-143487384D01*
X134632911Y-143487379D01*
X134639808Y-143443831D01*
X134660500Y-143313191D01*
X134660500Y-142688087D01*
X134660500Y-142686810D01*
X134660500Y-142686808D01*
X134959500Y-142686808D01*
X134959500Y-143313191D01*
X134987087Y-143487376D01*
X134987461Y-143488731D01*
X134988101Y-143490500D01*
X135041588Y-143655116D01*
X135041590Y-143655119D01*
X135041591Y-143655122D01*
X135041592Y-143655123D01*
X135121662Y-143812270D01*
X135225330Y-143954957D01*
X135350043Y-144079670D01*
X135492730Y-144183338D01*
X135649877Y-144263408D01*
X135817455Y-144317857D01*
X135817614Y-144317910D01*
X135991809Y-144345500D01*
X136168188Y-144345500D01*
X136168191Y-144345500D01*
X136237498Y-144334522D01*
X136342379Y-144317911D01*
X136342379Y-144317910D01*
X136342381Y-144317910D01*
X136342384Y-144317910D01*
X136342387Y-144317909D01*
X136344963Y-144317501D01*
X136349770Y-144315509D01*
X136510123Y-144263408D01*
X136667270Y-144183338D01*
X136809957Y-144079670D01*
X136934670Y-143954957D01*
X137038338Y-143812270D01*
X137118408Y-143655123D01*
X137172910Y-143487384D01*
X137172911Y-143487379D01*
X137179808Y-143443831D01*
X137200500Y-143313191D01*
X137200500Y-142686807D01*
X137199883Y-142682911D01*
X137450000Y-142682911D01*
X137450000Y-142682915D01*
X137450000Y-142799999D01*
X137450001Y-142800000D01*
X137928581Y-142800000D01*
X137986772Y-142818907D01*
X138022736Y-142868407D01*
X138023958Y-142914986D01*
X138025847Y-142915235D01*
X138025000Y-142921668D01*
X138025000Y-143078332D01*
X138025847Y-143084765D01*
X138023703Y-143085047D01*
X138021001Y-143136490D01*
X137982490Y-143184035D01*
X137928581Y-143200000D01*
X137450001Y-143200000D01*
X137450000Y-143200001D01*
X137450000Y-143200002D01*
X137450000Y-143317087D01*
X137477185Y-143488731D01*
X137478807Y-143498971D01*
X137510432Y-143596302D01*
X137535718Y-143674124D01*
X137619323Y-143838210D01*
X137619327Y-143838216D01*
X137727568Y-143987196D01*
X137727570Y-143987198D01*
X137727573Y-143987202D01*
X137857797Y-144117426D01*
X137857800Y-144117428D01*
X137857802Y-144117430D01*
X137984525Y-144209500D01*
X138006788Y-144225675D01*
X138170875Y-144309281D01*
X138346027Y-144366192D01*
X138346028Y-144366192D01*
X138346031Y-144366193D01*
X138419997Y-144377907D01*
X138419997Y-144377906D01*
X138419999Y-144377907D01*
X138420000Y-144377906D01*
X138420000Y-143691418D01*
X138438907Y-143633227D01*
X138488407Y-143597263D01*
X138534983Y-143596048D01*
X138535233Y-143594153D01*
X138541666Y-143595000D01*
X138698333Y-143595000D01*
X138698334Y-143595000D01*
X138704767Y-143594153D01*
X138705050Y-143596302D01*
X138756457Y-143598985D01*
X138804016Y-143637480D01*
X138820000Y-143691418D01*
X138820000Y-144377907D01*
X138893967Y-144366193D01*
X138893968Y-144366192D01*
X138893972Y-144366192D01*
X139069124Y-144309281D01*
X139233211Y-144225675D01*
X139382202Y-144117426D01*
X139512426Y-143987202D01*
X139620675Y-143838211D01*
X139704281Y-143674124D01*
X139761192Y-143498971D01*
X139763028Y-143487378D01*
X139790000Y-143317087D01*
X139790000Y-143200002D01*
X139790000Y-143200001D01*
X139789999Y-143200000D01*
X139789998Y-143200000D01*
X139311419Y-143200000D01*
X139253228Y-143181093D01*
X139217264Y-143131593D01*
X139216041Y-143085013D01*
X139214153Y-143084765D01*
X139215000Y-143078332D01*
X139215000Y-142921668D01*
X139214153Y-142915235D01*
X139216296Y-142914952D01*
X139218999Y-142863510D01*
X139257510Y-142815965D01*
X139311419Y-142800000D01*
X139789998Y-142800000D01*
X139789999Y-142800000D01*
X139790000Y-142799999D01*
X139790000Y-142682915D01*
X139790000Y-142682911D01*
X139761193Y-142501032D01*
X139761192Y-142501028D01*
X139704281Y-142325875D01*
X139620675Y-142161788D01*
X139620666Y-142161776D01*
X139512429Y-142012801D01*
X139512428Y-142012800D01*
X139512426Y-142012797D01*
X139382202Y-141882573D01*
X139382198Y-141882570D01*
X139382196Y-141882568D01*
X139233216Y-141774327D01*
X139233210Y-141774323D01*
X139069124Y-141690718D01*
X138893968Y-141633806D01*
X138820000Y-141622090D01*
X138820000Y-142308581D01*
X138801093Y-142366772D01*
X138751593Y-142402736D01*
X138705013Y-142403958D01*
X138704765Y-142405847D01*
X138698333Y-142405000D01*
X138698332Y-142405000D01*
X138541668Y-142405000D01*
X138541667Y-142405000D01*
X138541666Y-142405000D01*
X138535235Y-142405847D01*
X138534952Y-142403703D01*
X138483510Y-142401001D01*
X138435965Y-142362490D01*
X138420000Y-142308581D01*
X138420000Y-141622093D01*
X138420000Y-141622092D01*
X138419999Y-141622091D01*
X138419998Y-141622091D01*
X138346030Y-141633806D01*
X138170874Y-141690718D01*
X138006788Y-141774323D01*
X138006782Y-141774327D01*
X137857802Y-141882568D01*
X137857797Y-141882572D01*
X137857797Y-141882573D01*
X137727573Y-142012797D01*
X137727570Y-142012800D01*
X137727570Y-142012801D01*
X137619327Y-142161782D01*
X137619323Y-142161788D01*
X137535718Y-142325874D01*
X137478806Y-142501031D01*
X137450000Y-142682911D01*
X137199883Y-142682911D01*
X137172912Y-142512626D01*
X137172911Y-142512620D01*
X137169146Y-142501032D01*
X137118408Y-142344877D01*
X137038338Y-142187730D01*
X136934670Y-142045043D01*
X136809957Y-141920330D01*
X136673570Y-141821239D01*
X136673296Y-141821005D01*
X136667270Y-141816662D01*
X136667269Y-141816661D01*
X136667267Y-141816660D01*
X136667266Y-141816659D01*
X136667260Y-141816655D01*
X136667004Y-141816526D01*
X136510123Y-141736592D01*
X136342374Y-141682086D01*
X136168192Y-141654500D01*
X136168188Y-141654500D01*
X136168185Y-141654500D01*
X135991815Y-141654500D01*
X135991812Y-141654500D01*
X135991808Y-141654500D01*
X135817624Y-141682086D01*
X135649875Y-141736592D01*
X135492733Y-141816658D01*
X135350045Y-141920328D01*
X135225328Y-142045045D01*
X135121658Y-142187733D01*
X135041592Y-142344875D01*
X134987086Y-142512625D01*
X134959567Y-142686385D01*
X134959501Y-142686788D01*
X134959500Y-142686808D01*
X134660500Y-142686808D01*
X134660499Y-142686804D01*
X134632911Y-142512620D01*
X134632910Y-142512616D01*
X134578408Y-142344877D01*
X134498338Y-142187730D01*
X134394670Y-142045043D01*
X134269957Y-141920330D01*
X134133570Y-141821239D01*
X134133296Y-141821005D01*
X134127270Y-141816662D01*
X134127269Y-141816661D01*
X134127267Y-141816660D01*
X134127266Y-141816659D01*
X134127260Y-141816655D01*
X134127004Y-141816526D01*
X133970123Y-141736592D01*
X133802374Y-141682086D01*
X133628192Y-141654500D01*
X133628188Y-141654500D01*
X133628185Y-141654500D01*
X133451815Y-141654500D01*
X133451812Y-141654500D01*
X133451808Y-141654500D01*
X133277624Y-141682086D01*
X133109875Y-141736592D01*
X132952733Y-141816658D01*
X132810045Y-141920328D01*
X132685328Y-142045045D01*
X132581658Y-142187733D01*
X132501592Y-142344875D01*
X132447086Y-142512625D01*
X132419567Y-142686385D01*
X132419501Y-142686788D01*
X132419500Y-142686808D01*
X132120499Y-142686808D01*
X132120499Y-142107128D01*
X132114091Y-142047517D01*
X132101143Y-142012801D01*
X132092753Y-141990305D01*
X132063798Y-141912671D01*
X132041263Y-141882568D01*
X131979156Y-141799605D01*
X131977881Y-141797802D01*
X131977633Y-141797522D01*
X131977541Y-141797449D01*
X131862330Y-141711202D01*
X131862328Y-141711201D01*
X131732428Y-141662752D01*
X131728939Y-141661234D01*
X131728025Y-141660996D01*
X131725927Y-141660540D01*
X131722206Y-141660341D01*
X131705312Y-141658524D01*
X131696249Y-141657550D01*
X131696248Y-141657549D01*
X131667876Y-141654500D01*
X131667873Y-141654500D01*
X131667870Y-141654500D01*
X130332133Y-141654500D01*
X130332129Y-141654500D01*
X130323938Y-141654500D01*
X130317975Y-141656021D01*
X130309069Y-141656978D01*
X130272520Y-141660907D01*
X130272514Y-141660908D01*
X130272514Y-141660909D01*
X130272506Y-141660912D01*
X130137671Y-141711200D01*
X130022456Y-141797451D01*
X130022454Y-141797453D01*
X130022451Y-141797456D01*
X130022450Y-141797458D01*
X130008176Y-141816526D01*
X129936200Y-141912671D01*
X129885912Y-142047504D01*
X129885908Y-142047520D01*
X129885908Y-142047521D01*
X129879500Y-142107132D01*
X120040967Y-142107132D01*
X119972434Y-142012806D01*
X119972432Y-142012804D01*
X119972430Y-142012801D01*
X119842202Y-141882573D01*
X119842198Y-141882570D01*
X119842196Y-141882568D01*
X119693216Y-141774327D01*
X119693210Y-141774323D01*
X119529124Y-141690718D01*
X119353968Y-141633806D01*
X119280000Y-141622090D01*
X119280000Y-142308581D01*
X119261093Y-142366772D01*
X119211593Y-142402736D01*
X119165013Y-142403958D01*
X119164765Y-142405847D01*
X119158333Y-142405000D01*
X119158332Y-142405000D01*
X119001668Y-142405000D01*
X119001667Y-142405000D01*
X119001666Y-142405000D01*
X118995235Y-142405847D01*
X118994952Y-142403703D01*
X118943510Y-142401001D01*
X118895965Y-142362490D01*
X118880000Y-142308581D01*
X118880000Y-141622093D01*
X118880000Y-141622092D01*
X118879999Y-141622091D01*
X118879998Y-141622091D01*
X118806030Y-141633806D01*
X118630874Y-141690718D01*
X118466788Y-141774323D01*
X118466782Y-141774327D01*
X118317802Y-141882568D01*
X118317797Y-141882572D01*
X118317797Y-141882573D01*
X118187573Y-142012797D01*
X118187570Y-142012800D01*
X118187570Y-142012801D01*
X118079327Y-142161782D01*
X118079323Y-142161788D01*
X117995718Y-142325874D01*
X117938806Y-142501031D01*
X117910000Y-142682911D01*
X117659883Y-142682911D01*
X117632912Y-142512626D01*
X117632911Y-142512620D01*
X117629146Y-142501032D01*
X117578408Y-142344877D01*
X117498338Y-142187730D01*
X117394670Y-142045043D01*
X117269957Y-141920330D01*
X117133570Y-141821239D01*
X117133296Y-141821005D01*
X117127270Y-141816662D01*
X117127269Y-141816661D01*
X117127267Y-141816660D01*
X117127266Y-141816659D01*
X117127260Y-141816655D01*
X117127004Y-141816526D01*
X116970123Y-141736592D01*
X116802374Y-141682086D01*
X116628192Y-141654500D01*
X116628188Y-141654500D01*
X116628185Y-141654500D01*
X116451815Y-141654500D01*
X116451812Y-141654500D01*
X116451808Y-141654500D01*
X116277624Y-141682086D01*
X116109875Y-141736592D01*
X115952733Y-141816658D01*
X115810045Y-141920328D01*
X115685328Y-142045045D01*
X115581658Y-142187733D01*
X115501592Y-142344875D01*
X115447086Y-142512625D01*
X115419567Y-142686385D01*
X115419501Y-142686788D01*
X115419500Y-142686808D01*
X115120499Y-142686808D01*
X115120499Y-142107128D01*
X115118953Y-142092747D01*
X115120501Y-142061813D01*
X115125093Y-142039955D01*
X115151972Y-141990307D01*
X118688859Y-138453420D01*
X140900000Y-138453420D01*
X140900000Y-138626578D01*
X140927082Y-138797574D01*
X140980588Y-138962248D01*
X140988694Y-138978158D01*
X141059197Y-139116527D01*
X141093462Y-139163690D01*
X141093463Y-139163691D01*
X141512419Y-138744733D01*
X141566936Y-138716956D01*
X141627368Y-138726527D01*
X141668158Y-138765235D01*
X141679918Y-138785603D01*
X141679920Y-138785606D01*
X141754394Y-138860080D01*
X141754396Y-138860081D01*
X141774759Y-138871838D01*
X141815700Y-138917307D01*
X141822096Y-138978158D01*
X141795263Y-139027577D01*
X141376307Y-139446534D01*
X141376307Y-139446535D01*
X141404460Y-139466989D01*
X141423476Y-139480804D01*
X141577751Y-139559411D01*
X141742420Y-139612915D01*
X141742421Y-139612915D01*
X141742424Y-139612916D01*
X141913422Y-139640000D01*
X142086575Y-139640000D01*
X142086578Y-139640000D01*
X142257574Y-139612916D01*
X142257575Y-139612915D01*
X142257579Y-139612915D01*
X142422248Y-139559411D01*
X142576524Y-139480804D01*
X142576530Y-139480800D01*
X142623691Y-139446535D01*
X142204733Y-139027577D01*
X142176957Y-138973061D01*
X142186528Y-138912629D01*
X142225237Y-138871839D01*
X142245606Y-138860080D01*
X142320080Y-138785606D01*
X142331839Y-138765238D01*
X142377303Y-138724299D01*
X142438153Y-138717900D01*
X142487578Y-138744734D01*
X142906535Y-139163691D01*
X142940800Y-139116530D01*
X142940804Y-139116524D01*
X143019411Y-138962248D01*
X143072915Y-138797579D01*
X143072916Y-138797574D01*
X143100000Y-138626577D01*
X143100000Y-138453421D01*
X143100000Y-138453420D01*
X148520000Y-138453420D01*
X148520000Y-138626578D01*
X148547082Y-138797574D01*
X148600588Y-138962248D01*
X148608694Y-138978158D01*
X148679197Y-139116527D01*
X148713462Y-139163690D01*
X148713463Y-139163691D01*
X149132419Y-138744733D01*
X149186936Y-138716956D01*
X149247368Y-138726527D01*
X149288158Y-138765235D01*
X149299918Y-138785603D01*
X149299920Y-138785606D01*
X149374394Y-138860080D01*
X149374396Y-138860081D01*
X149394759Y-138871838D01*
X149435700Y-138917307D01*
X149442096Y-138978158D01*
X149415263Y-139027577D01*
X148996307Y-139446534D01*
X148996307Y-139446535D01*
X149024460Y-139466989D01*
X149043476Y-139480804D01*
X149197751Y-139559411D01*
X149362420Y-139612915D01*
X149362421Y-139612915D01*
X149362424Y-139612916D01*
X149533422Y-139640000D01*
X149706575Y-139640000D01*
X149706578Y-139640000D01*
X149877574Y-139612916D01*
X149877575Y-139612915D01*
X149877579Y-139612915D01*
X150042248Y-139559411D01*
X150196524Y-139480804D01*
X150196530Y-139480800D01*
X150243691Y-139446535D01*
X149824733Y-139027577D01*
X149796957Y-138973061D01*
X149806528Y-138912629D01*
X149845237Y-138871839D01*
X149865606Y-138860080D01*
X149940080Y-138785606D01*
X149951839Y-138765238D01*
X149997303Y-138724299D01*
X150058153Y-138717900D01*
X150107578Y-138744734D01*
X150526535Y-139163691D01*
X150560800Y-139116530D01*
X150560804Y-139116524D01*
X150639411Y-138962248D01*
X150692915Y-138797579D01*
X150692916Y-138797574D01*
X150720000Y-138626577D01*
X150720000Y-138453421D01*
X150692916Y-138282424D01*
X150692915Y-138282420D01*
X150639411Y-138117751D01*
X150560804Y-137963476D01*
X150560798Y-137963468D01*
X150526535Y-137916307D01*
X150526534Y-137916307D01*
X150107577Y-138335263D01*
X150053061Y-138363040D01*
X149992629Y-138353469D01*
X149951838Y-138314759D01*
X149940081Y-138294396D01*
X149940080Y-138294394D01*
X149865606Y-138219920D01*
X149865603Y-138219918D01*
X149845235Y-138208158D01*
X149804295Y-138162688D01*
X149797901Y-138101837D01*
X149824734Y-138052419D01*
X149960846Y-137916307D01*
X150243691Y-137633463D01*
X150196528Y-137599198D01*
X150196527Y-137599197D01*
X150196524Y-137599195D01*
X150196522Y-137599194D01*
X150042248Y-137520588D01*
X149877574Y-137467082D01*
X149706578Y-137440000D01*
X149706575Y-137440000D01*
X149533425Y-137440000D01*
X149533422Y-137440000D01*
X149362424Y-137467082D01*
X149197750Y-137520588D01*
X149043468Y-137599198D01*
X148996307Y-137633462D01*
X148996307Y-137633463D01*
X149415266Y-138052422D01*
X149443042Y-138106937D01*
X149433471Y-138167369D01*
X149394763Y-138208159D01*
X149374396Y-138219918D01*
X149299918Y-138294396D01*
X149288159Y-138314763D01*
X149242688Y-138355703D01*
X149181838Y-138362097D01*
X149132422Y-138335266D01*
X148713463Y-137916307D01*
X148713462Y-137916307D01*
X148679198Y-137963468D01*
X148600588Y-138117750D01*
X148547082Y-138282424D01*
X148520000Y-138453420D01*
X143100000Y-138453420D01*
X143072916Y-138282424D01*
X143072915Y-138282420D01*
X143019411Y-138117751D01*
X142940804Y-137963476D01*
X142940798Y-137963468D01*
X142906535Y-137916307D01*
X142906534Y-137916307D01*
X142487577Y-138335263D01*
X142433061Y-138363040D01*
X142372629Y-138353469D01*
X142331838Y-138314759D01*
X142320081Y-138294396D01*
X142320080Y-138294394D01*
X142245606Y-138219920D01*
X142245603Y-138219918D01*
X142225235Y-138208158D01*
X142184295Y-138162688D01*
X142177901Y-138101837D01*
X142204734Y-138052419D01*
X142340846Y-137916307D01*
X142623691Y-137633463D01*
X142576528Y-137599198D01*
X142576527Y-137599197D01*
X142576524Y-137599195D01*
X142576522Y-137599194D01*
X142422248Y-137520588D01*
X142257574Y-137467082D01*
X142086578Y-137440000D01*
X142086575Y-137440000D01*
X141913425Y-137440000D01*
X141913422Y-137440000D01*
X141742424Y-137467082D01*
X141577750Y-137520588D01*
X141423468Y-137599198D01*
X141376307Y-137633462D01*
X141376307Y-137633463D01*
X141795266Y-138052422D01*
X141823042Y-138106937D01*
X141813471Y-138167369D01*
X141774763Y-138208159D01*
X141754396Y-138219918D01*
X141679918Y-138294396D01*
X141668159Y-138314763D01*
X141622688Y-138355703D01*
X141561838Y-138362097D01*
X141512422Y-138335266D01*
X141093463Y-137916307D01*
X141093462Y-137916307D01*
X141059198Y-137963468D01*
X140980588Y-138117750D01*
X140927082Y-138282424D01*
X140900000Y-138453420D01*
X118688859Y-138453420D01*
X121740147Y-135402132D01*
X140949500Y-135402132D01*
X140949500Y-136597920D01*
X140949584Y-136598648D01*
X140953746Y-136637370D01*
X140955908Y-136657480D01*
X140955909Y-136657485D01*
X140956366Y-136658710D01*
X141006200Y-136792327D01*
X141065245Y-136871200D01*
X141092522Y-136907637D01*
X141092695Y-136907806D01*
X141094588Y-136909144D01*
X141179142Y-136972441D01*
X141207668Y-136993796D01*
X141207669Y-136993796D01*
X141207670Y-136993797D01*
X141341544Y-137043728D01*
X141342985Y-137044285D01*
X141344247Y-137044466D01*
X141347767Y-137044655D01*
X141402127Y-137050500D01*
X142597872Y-137050499D01*
X142657483Y-137044091D01*
X142748537Y-137010130D01*
X142776401Y-136999737D01*
X142790692Y-136994408D01*
X142794020Y-136993233D01*
X142797583Y-136992046D01*
X142805167Y-136984186D01*
X142907546Y-136907546D01*
X142993796Y-136792331D01*
X142993798Y-136792327D01*
X143043631Y-136658715D01*
X143044091Y-136657483D01*
X143050500Y-136597873D01*
X143050499Y-135501868D01*
X143055344Y-135471278D01*
X143062890Y-135448052D01*
X143087039Y-135408641D01*
X144280470Y-134215212D01*
X144326614Y-134135288D01*
X144326615Y-134135283D01*
X144329096Y-134129296D01*
X144329813Y-134129593D01*
X144338212Y-134110724D01*
X144345475Y-134099540D01*
X144393024Y-134061035D01*
X144403340Y-134057075D01*
X144438819Y-134050499D01*
X144597867Y-134050499D01*
X144597872Y-134050499D01*
X144657483Y-134044091D01*
X144724907Y-134018943D01*
X144730782Y-134016752D01*
X144790697Y-133994406D01*
X144794030Y-133993230D01*
X144797582Y-133992047D01*
X144805167Y-133984186D01*
X144907546Y-133907546D01*
X144993796Y-133792331D01*
X144993798Y-133792327D01*
X145044089Y-133657488D01*
X145044090Y-133657485D01*
X145044091Y-133657483D01*
X145050500Y-133597873D01*
X145050499Y-132402128D01*
X145044091Y-132342517D01*
X145040725Y-132333492D01*
X145031479Y-132308702D01*
X144993797Y-132207670D01*
X144909156Y-132094605D01*
X144907881Y-132092802D01*
X144907633Y-132092522D01*
X144907541Y-132092449D01*
X144792330Y-132006202D01*
X144792328Y-132006201D01*
X144662428Y-131957752D01*
X144658939Y-131956234D01*
X144658025Y-131955996D01*
X144655927Y-131955540D01*
X144652206Y-131955341D01*
X144635312Y-131953524D01*
X144626249Y-131952550D01*
X144626248Y-131952549D01*
X144597876Y-131949500D01*
X144597873Y-131949500D01*
X144597870Y-131949500D01*
X143402133Y-131949500D01*
X143402129Y-131949500D01*
X143393938Y-131949500D01*
X143387975Y-131951021D01*
X143379069Y-131951978D01*
X143342520Y-131955907D01*
X143342514Y-131955908D01*
X143342514Y-131955909D01*
X143342506Y-131955912D01*
X143207671Y-132006200D01*
X143092456Y-132092451D01*
X143092454Y-132092453D01*
X143092451Y-132092456D01*
X143092450Y-132092458D01*
X143084654Y-132102872D01*
X143006200Y-132207671D01*
X142955912Y-132342504D01*
X142955910Y-132342508D01*
X142955910Y-132342511D01*
X142955909Y-132342514D01*
X142955908Y-132342520D01*
X142955908Y-132342521D01*
X142949500Y-132402132D01*
X142949500Y-133597920D01*
X142949584Y-133598648D01*
X142954083Y-133640500D01*
X142955908Y-133657480D01*
X142955909Y-133657485D01*
X142955912Y-133657492D01*
X143006200Y-133792327D01*
X143006203Y-133792331D01*
X143071681Y-133879797D01*
X143092522Y-133907637D01*
X143092696Y-133907807D01*
X143094605Y-133909156D01*
X143143020Y-133945400D01*
X143207668Y-133993796D01*
X143207669Y-133993796D01*
X143207670Y-133993797D01*
X143269225Y-134016755D01*
X143296191Y-134031983D01*
X143305113Y-134039068D01*
X143338925Y-134090062D01*
X143336306Y-134151191D01*
X143336305Y-134151193D01*
X143333828Y-134157834D01*
X143311074Y-134193241D01*
X142594898Y-134909417D01*
X142569841Y-134927621D01*
X142548083Y-134938708D01*
X142503136Y-134949500D01*
X141393938Y-134949500D01*
X141387975Y-134951021D01*
X141379069Y-134951978D01*
X141342520Y-134955907D01*
X141342506Y-134955912D01*
X141207671Y-135006200D01*
X141092456Y-135092451D01*
X141092454Y-135092453D01*
X141006200Y-135207671D01*
X140955912Y-135342504D01*
X140955910Y-135342508D01*
X140955910Y-135342511D01*
X140955909Y-135342514D01*
X140955908Y-135342520D01*
X140955908Y-135342521D01*
X140949500Y-135402132D01*
X121740147Y-135402132D01*
X124804287Y-132337992D01*
X124815316Y-132332373D01*
X124823454Y-132323046D01*
X124829331Y-132319795D01*
X124840311Y-132314200D01*
X124855793Y-132311750D01*
X124858802Y-132310217D01*
X124862138Y-132310745D01*
X124900743Y-132304634D01*
X124953396Y-132330601D01*
X124962894Y-132339614D01*
X124962940Y-132339658D01*
X124972935Y-132350758D01*
X124973189Y-132351012D01*
X124973191Y-132351015D01*
X125075685Y-132453509D01*
X125075687Y-132453510D01*
X125075689Y-132453512D01*
X125195874Y-132522900D01*
X125198457Y-132524392D01*
X125200870Y-132525890D01*
X125201208Y-132525980D01*
X125201211Y-132525982D01*
X125201212Y-132525982D01*
X125201215Y-132525984D01*
X125341225Y-132563500D01*
X125341226Y-132563500D01*
X125486174Y-132563500D01*
X125486175Y-132563500D01*
X125626185Y-132525984D01*
X125626186Y-132525983D01*
X125626188Y-132525982D01*
X125626189Y-132525982D01*
X125745580Y-132457051D01*
X125748468Y-132455648D01*
X125749257Y-132455129D01*
X125754267Y-132452035D01*
X125755560Y-132451288D01*
X125760918Y-132444305D01*
X125831538Y-132373685D01*
X125852034Y-132357959D01*
X125876918Y-132343594D01*
X125876917Y-132343593D01*
X125882063Y-132340623D01*
X125893676Y-132334896D01*
X125897064Y-132333492D01*
X125901322Y-132329505D01*
X125901377Y-132329472D01*
X125901904Y-132328768D01*
X125909535Y-132323882D01*
X125962212Y-132293470D01*
X132962262Y-125293420D01*
X142900000Y-125293420D01*
X142900000Y-125466578D01*
X142927082Y-125637574D01*
X142980588Y-125802248D01*
X142988694Y-125818158D01*
X143059197Y-125956527D01*
X143093462Y-126003690D01*
X143093463Y-126003691D01*
X143512419Y-125584733D01*
X143566936Y-125556956D01*
X143627368Y-125566527D01*
X143668158Y-125605235D01*
X143679918Y-125625603D01*
X143679920Y-125625606D01*
X143754394Y-125700080D01*
X143754396Y-125700081D01*
X143774759Y-125711838D01*
X143815700Y-125757307D01*
X143822096Y-125818158D01*
X143795263Y-125867577D01*
X143376307Y-126286534D01*
X143376307Y-126286535D01*
X143423476Y-126320804D01*
X143577751Y-126399411D01*
X143742420Y-126452915D01*
X143742421Y-126452915D01*
X143742424Y-126452916D01*
X143913422Y-126480000D01*
X144086575Y-126480000D01*
X144086578Y-126480000D01*
X144257574Y-126452916D01*
X144257575Y-126452915D01*
X144257579Y-126452915D01*
X144422248Y-126399411D01*
X144576524Y-126320804D01*
X144576530Y-126320800D01*
X144623691Y-126286535D01*
X144204733Y-125867577D01*
X144176957Y-125813061D01*
X144186528Y-125752629D01*
X144225237Y-125711839D01*
X144245606Y-125700080D01*
X144320080Y-125625606D01*
X144331839Y-125605238D01*
X144377303Y-125564299D01*
X144438153Y-125557900D01*
X144487578Y-125584734D01*
X144906535Y-126003691D01*
X144940800Y-125956530D01*
X144940804Y-125956524D01*
X145019411Y-125802248D01*
X145072915Y-125637579D01*
X145072916Y-125637574D01*
X145100000Y-125466577D01*
X145100000Y-125293421D01*
X145072916Y-125122424D01*
X145072915Y-125122420D01*
X145019411Y-124957751D01*
X144940804Y-124803476D01*
X144940798Y-124803468D01*
X144906535Y-124756307D01*
X144906534Y-124756307D01*
X144487577Y-125175263D01*
X144433061Y-125203040D01*
X144372629Y-125193469D01*
X144331838Y-125154759D01*
X144320081Y-125134396D01*
X144320080Y-125134394D01*
X144245606Y-125059920D01*
X144245603Y-125059918D01*
X144225235Y-125048158D01*
X144184295Y-125002688D01*
X144177901Y-124941837D01*
X144204734Y-124892419D01*
X144340846Y-124756307D01*
X144623691Y-124473463D01*
X144576528Y-124439198D01*
X144576527Y-124439197D01*
X144576524Y-124439195D01*
X144576522Y-124439194D01*
X144422248Y-124360588D01*
X144257574Y-124307082D01*
X144086578Y-124280000D01*
X144086575Y-124280000D01*
X143913425Y-124280000D01*
X143913422Y-124280000D01*
X143742424Y-124307082D01*
X143577750Y-124360588D01*
X143423468Y-124439198D01*
X143376307Y-124473462D01*
X143376307Y-124473463D01*
X143795266Y-124892422D01*
X143823042Y-124946937D01*
X143813471Y-125007369D01*
X143774763Y-125048159D01*
X143754396Y-125059918D01*
X143679918Y-125134396D01*
X143668159Y-125154763D01*
X143622688Y-125195703D01*
X143561838Y-125202097D01*
X143512422Y-125175266D01*
X143093463Y-124756307D01*
X143093462Y-124756307D01*
X143059198Y-124803468D01*
X142980588Y-124957750D01*
X142927082Y-125122424D01*
X142900000Y-125293420D01*
X132962262Y-125293420D01*
X134538070Y-123717612D01*
X134584214Y-123637688D01*
X134608100Y-123548544D01*
X134608100Y-121455811D01*
X134612945Y-121425220D01*
X134620492Y-121401991D01*
X134644643Y-121362579D01*
X134698109Y-121309115D01*
X134698110Y-121309112D01*
X134698112Y-121309111D01*
X134770582Y-121183589D01*
X134770582Y-121183587D01*
X134770584Y-121183585D01*
X134808100Y-121043575D01*
X134808100Y-120898625D01*
X134770584Y-120758615D01*
X134770582Y-120758612D01*
X134770582Y-120758610D01*
X134770580Y-120758607D01*
X134770490Y-120758269D01*
X134768996Y-120755863D01*
X134698114Y-120633092D01*
X134698111Y-120633088D01*
X134698110Y-120633087D01*
X134698108Y-120633084D01*
X134648183Y-120583158D01*
X134629978Y-120558100D01*
X134618888Y-120536336D01*
X134608100Y-120491394D01*
X134608100Y-118129469D01*
X134612944Y-118098880D01*
X134620491Y-118075649D01*
X134644640Y-118036240D01*
X135148267Y-117532612D01*
X135173326Y-117514408D01*
X135183476Y-117509237D01*
X135243908Y-117499669D01*
X135298420Y-117527445D01*
X135300327Y-117529352D01*
X135324827Y-117569860D01*
X135332508Y-117594470D01*
X135333630Y-117598342D01*
X135364216Y-117712488D01*
X135364218Y-117712492D01*
X135436685Y-117838008D01*
X135436687Y-117838010D01*
X135436689Y-117838012D01*
X135436691Y-117838015D01*
X135539185Y-117940509D01*
X135539187Y-117940510D01*
X135539294Y-117940617D01*
X135539545Y-117940803D01*
X135541738Y-117941984D01*
X135654307Y-118006975D01*
X135661957Y-118011392D01*
X135664370Y-118012890D01*
X135664708Y-118012980D01*
X135664711Y-118012982D01*
X135664712Y-118012982D01*
X135664715Y-118012984D01*
X135804725Y-118050500D01*
X135804726Y-118050500D01*
X135949674Y-118050500D01*
X135949675Y-118050500D01*
X136089685Y-118012984D01*
X136089686Y-118012983D01*
X136089688Y-118012982D01*
X136089689Y-118012982D01*
X136209080Y-117944051D01*
X136211968Y-117942648D01*
X136212754Y-117942131D01*
X136217763Y-117939037D01*
X136219062Y-117938286D01*
X136224420Y-117931303D01*
X136317709Y-117838015D01*
X136344097Y-117792310D01*
X136390182Y-117712489D01*
X136390182Y-117712487D01*
X136390184Y-117712485D01*
X136427700Y-117572475D01*
X136427700Y-117501869D01*
X136432544Y-117471280D01*
X136440091Y-117448049D01*
X136464240Y-117408640D01*
X148557070Y-105315812D01*
X148603214Y-105235888D01*
X148618132Y-105180208D01*
X148624999Y-105168316D01*
X148624999Y-105167620D01*
X148626890Y-105153264D01*
X148626252Y-105153180D01*
X148627098Y-105146747D01*
X148627100Y-105146744D01*
X148627100Y-98255469D01*
X148631944Y-98224880D01*
X148639491Y-98201649D01*
X148663640Y-98162240D01*
X149251754Y-97574125D01*
X149276812Y-97555921D01*
X149287777Y-97550334D01*
X149348209Y-97540768D01*
X149400860Y-97566733D01*
X149408164Y-97573665D01*
X149425753Y-97595975D01*
X149435591Y-97613015D01*
X149538085Y-97715509D01*
X149538087Y-97715510D01*
X149538194Y-97715617D01*
X149538445Y-97715803D01*
X149540646Y-97716988D01*
X149660857Y-97786392D01*
X149663270Y-97787890D01*
X149663608Y-97787980D01*
X149663611Y-97787982D01*
X149663612Y-97787982D01*
X149663615Y-97787984D01*
X149803625Y-97825500D01*
X149874230Y-97825500D01*
X149904821Y-97830345D01*
X149917158Y-97834353D01*
X149928047Y-97837891D01*
X149967460Y-97862042D01*
X152556292Y-100450874D01*
X152574496Y-100475930D01*
X152580552Y-100487815D01*
X152590125Y-100548245D01*
X152588397Y-100559157D01*
X152576352Y-100593173D01*
X152537184Y-100661013D01*
X152537183Y-100661015D01*
X152532475Y-100678591D01*
X152532475Y-100678592D01*
X152524593Y-100708009D01*
X152513300Y-100750156D01*
X152513300Y-117757144D01*
X152534969Y-117838015D01*
X152536988Y-117845551D01*
X152537187Y-117846292D01*
X152543124Y-117856573D01*
X152550654Y-117869615D01*
X152556421Y-117879604D01*
X152566307Y-117903472D01*
X152572825Y-117927792D01*
X152576200Y-117953420D01*
X152576200Y-118046377D01*
X152583275Y-118072780D01*
X152583275Y-118072781D01*
X152583276Y-118072781D01*
X152583276Y-118072782D01*
X152613717Y-118186389D01*
X152613718Y-118186391D01*
X152613719Y-118186394D01*
X152686185Y-118311908D01*
X152686187Y-118311910D01*
X152686189Y-118311912D01*
X152686191Y-118311915D01*
X152788685Y-118414409D01*
X152805080Y-118423875D01*
X152829145Y-118443361D01*
X152837385Y-118452512D01*
X152862269Y-118508406D01*
X152850814Y-118565992D01*
X152846011Y-118574838D01*
X152829012Y-118597603D01*
X148593430Y-122833188D01*
X148547286Y-122913112D01*
X148523400Y-123002258D01*
X148523400Y-135300047D01*
X148531406Y-135329923D01*
X148534780Y-135355548D01*
X148534780Y-135356245D01*
X148541645Y-135368138D01*
X148547286Y-135389188D01*
X148593430Y-135469112D01*
X148593432Y-135469114D01*
X148612940Y-135488623D01*
X148631144Y-135513679D01*
X148638167Y-135527462D01*
X148648272Y-135584043D01*
X148647094Y-135593997D01*
X148640245Y-135620245D01*
X148622957Y-135661986D01*
X148622956Y-135661989D01*
X148609870Y-135693579D01*
X148609868Y-135693585D01*
X148569500Y-135896529D01*
X148569500Y-136103469D01*
X148609869Y-136306417D01*
X148609869Y-136306419D01*
X148689055Y-136497592D01*
X148689061Y-136497603D01*
X148737039Y-136569405D01*
X148737040Y-136569407D01*
X148796708Y-136658708D01*
X148804023Y-136669655D01*
X148950345Y-136815977D01*
X149122402Y-136930941D01*
X149313580Y-137010130D01*
X149516535Y-137050500D01*
X149516536Y-137050500D01*
X149723464Y-137050500D01*
X149723465Y-137050500D01*
X149926420Y-137010130D01*
X150117598Y-136930941D01*
X150289655Y-136815977D01*
X150435977Y-136669655D01*
X150550941Y-136497598D01*
X150630130Y-136306420D01*
X150670500Y-136103465D01*
X150670500Y-135896535D01*
X150630130Y-135693580D01*
X150550941Y-135502402D01*
X150435977Y-135330345D01*
X150289655Y-135184023D01*
X150289651Y-135184020D01*
X150117597Y-135069058D01*
X150117596Y-135069057D01*
X150117594Y-135069056D01*
X149926418Y-134989869D01*
X149723469Y-134949500D01*
X149723467Y-134949500D01*
X149723465Y-134949500D01*
X149516535Y-134949500D01*
X149516532Y-134949500D01*
X149516528Y-134949500D01*
X149358093Y-134981015D01*
X149327148Y-134982231D01*
X149313902Y-134980664D01*
X149258336Y-134955052D01*
X149257682Y-134954442D01*
X149257648Y-134954410D01*
X149229706Y-134907311D01*
X149227607Y-134899266D01*
X149224400Y-134874273D01*
X149224400Y-133546764D01*
X149229247Y-133516167D01*
X149232768Y-133505332D01*
X149268734Y-133455834D01*
X149326921Y-133436929D01*
X149330066Y-133436929D01*
X149388256Y-133455836D01*
X149411734Y-133472893D01*
X149423212Y-133481232D01*
X149572414Y-133557253D01*
X149573683Y-133557996D01*
X149576651Y-133559434D01*
X149578246Y-133560226D01*
X149581227Y-133561067D01*
X149742293Y-133613401D01*
X149742297Y-133613402D01*
X149742303Y-133613403D01*
X149913383Y-133640500D01*
X150086614Y-133640500D01*
X150086617Y-133640500D01*
X150225843Y-133618447D01*
X150257702Y-133613402D01*
X150257706Y-133613401D01*
X150416960Y-133561655D01*
X150418379Y-133561285D01*
X150421448Y-133560219D01*
X150423174Y-133559638D01*
X150425899Y-133558113D01*
X150508224Y-133516167D01*
X150576788Y-133481232D01*
X150716928Y-133379414D01*
X150839414Y-133256928D01*
X150941232Y-133116788D01*
X151018114Y-132965896D01*
X151019638Y-132963174D01*
X151020219Y-132961448D01*
X151021285Y-132958379D01*
X151021655Y-132956960D01*
X151073401Y-132797706D01*
X151073402Y-132797702D01*
X151100500Y-132626614D01*
X151100500Y-132453385D01*
X151100500Y-132453381D01*
X151073403Y-132282303D01*
X151073402Y-132282302D01*
X151073402Y-132282297D01*
X151073401Y-132282293D01*
X151020008Y-132117970D01*
X151016386Y-132102886D01*
X151013644Y-132085579D01*
X151023212Y-132025154D01*
X151029266Y-132013270D01*
X151047472Y-131988207D01*
X156550569Y-126485113D01*
X156596714Y-126405188D01*
X156610992Y-126351900D01*
X156620600Y-126316044D01*
X156620600Y-108039725D01*
X157821300Y-108039725D01*
X157821300Y-108184675D01*
X157850887Y-108295096D01*
X157854794Y-108309675D01*
X157858817Y-108324691D01*
X157858818Y-108324692D01*
X157931285Y-108450208D01*
X157931287Y-108450210D01*
X157931289Y-108450212D01*
X157931291Y-108450215D01*
X158033785Y-108552709D01*
X158033787Y-108552710D01*
X158033894Y-108552817D01*
X158034145Y-108553003D01*
X158036338Y-108554184D01*
X158148907Y-108619175D01*
X158156557Y-108623592D01*
X158158970Y-108625090D01*
X158159308Y-108625180D01*
X158159311Y-108625182D01*
X158159312Y-108625182D01*
X158159315Y-108625184D01*
X158299325Y-108662700D01*
X158299326Y-108662700D01*
X158299327Y-108662700D01*
X158444275Y-108662700D01*
X158448716Y-108662700D01*
X158460483Y-108662236D01*
X158476317Y-108663065D01*
X158533440Y-108684990D01*
X158566060Y-108733803D01*
X158568921Y-108743460D01*
X158573000Y-108771582D01*
X158573000Y-134096646D01*
X158576772Y-134110724D01*
X158579980Y-134122693D01*
X158583354Y-134148319D01*
X158583354Y-134149016D01*
X158590219Y-134160909D01*
X158596886Y-134185788D01*
X158643030Y-134265712D01*
X159677364Y-135300046D01*
X160603118Y-136225800D01*
X160621323Y-136250858D01*
X160632409Y-136272615D01*
X160643200Y-136317561D01*
X160643200Y-136393174D01*
X160656280Y-136441988D01*
X160680718Y-136533193D01*
X160753185Y-136658708D01*
X160753187Y-136658710D01*
X160753189Y-136658712D01*
X160753191Y-136658715D01*
X160855685Y-136761209D01*
X160855687Y-136761210D01*
X160855794Y-136761317D01*
X160856045Y-136761503D01*
X160858238Y-136762684D01*
X160970807Y-136827675D01*
X160978457Y-136832092D01*
X160980870Y-136833590D01*
X160981208Y-136833680D01*
X160981211Y-136833682D01*
X160981212Y-136833682D01*
X160981215Y-136833684D01*
X161121225Y-136871200D01*
X161121226Y-136871200D01*
X161266174Y-136871200D01*
X161266175Y-136871200D01*
X161406185Y-136833684D01*
X161406186Y-136833683D01*
X161406188Y-136833682D01*
X161406189Y-136833682D01*
X161525580Y-136764751D01*
X161528468Y-136763348D01*
X161529254Y-136762831D01*
X161534263Y-136759737D01*
X161535562Y-136758986D01*
X161540920Y-136752003D01*
X161634209Y-136658715D01*
X161634212Y-136658710D01*
X161706682Y-136533189D01*
X161706682Y-136533187D01*
X161706684Y-136533185D01*
X161744200Y-136393175D01*
X161744200Y-136248225D01*
X161706684Y-136108215D01*
X161706682Y-136108212D01*
X161706682Y-136108210D01*
X161634212Y-135982689D01*
X161634210Y-135982687D01*
X161634209Y-135982685D01*
X161579050Y-135927526D01*
X177736600Y-135927526D01*
X177736600Y-136072474D01*
X177746174Y-136108209D01*
X177774116Y-136212488D01*
X177774118Y-136212492D01*
X177846585Y-136338008D01*
X177846587Y-136338010D01*
X177846589Y-136338012D01*
X177846591Y-136338015D01*
X177949085Y-136440509D01*
X177949087Y-136440510D01*
X177949194Y-136440617D01*
X177949445Y-136440803D01*
X177951646Y-136441988D01*
X178060754Y-136504982D01*
X178060755Y-136504982D01*
X178074611Y-136512982D01*
X178074612Y-136512982D01*
X178074615Y-136512984D01*
X178214625Y-136550500D01*
X178227768Y-136550500D01*
X178240551Y-136553984D01*
X178241836Y-136554826D01*
X178245110Y-136555345D01*
X178257447Y-136559353D01*
X178268336Y-136562891D01*
X178307749Y-136587042D01*
X181559417Y-139838709D01*
X181577622Y-139863767D01*
X181588709Y-139885526D01*
X181599500Y-139930472D01*
X181599500Y-144775237D01*
X181594653Y-144805834D01*
X181590169Y-144819632D01*
X181555911Y-144867861D01*
X181546719Y-144874845D01*
X181521422Y-144888776D01*
X181407670Y-144931201D01*
X181311604Y-145003117D01*
X181292458Y-145017450D01*
X181292450Y-145017458D01*
X181260017Y-145060781D01*
X181206200Y-145132671D01*
X181155912Y-145267504D01*
X181155908Y-145267520D01*
X181155908Y-145267521D01*
X181149500Y-145327132D01*
X181149500Y-146673401D01*
X181149786Y-146675521D01*
X181150038Y-146677863D01*
X181155908Y-146732480D01*
X181155909Y-146732485D01*
X181157755Y-146737434D01*
X181206200Y-146867327D01*
X181286114Y-146974077D01*
X181292523Y-146982638D01*
X181292696Y-146982807D01*
X181294595Y-146984149D01*
X181354112Y-147028703D01*
X181407668Y-147068796D01*
X181407669Y-147068796D01*
X181407670Y-147068797D01*
X181541544Y-147118728D01*
X181542985Y-147119285D01*
X181544247Y-147119466D01*
X181547767Y-147119655D01*
X181602127Y-147125500D01*
X182397872Y-147125499D01*
X182457483Y-147119091D01*
X182527935Y-147092814D01*
X182582255Y-147072554D01*
X182590694Y-147069407D01*
X182594023Y-147068232D01*
X182597583Y-147067046D01*
X182605167Y-147059186D01*
X182707546Y-146982546D01*
X182793796Y-146867331D01*
X182800740Y-146848715D01*
X182842252Y-146737413D01*
X182843454Y-146734650D01*
X182844087Y-146732492D01*
X182844089Y-146732488D01*
X182844090Y-146732485D01*
X182844091Y-146732483D01*
X182850500Y-146672873D01*
X182850499Y-145641227D01*
X183149500Y-145641227D01*
X183149500Y-146358771D01*
X183158789Y-146405467D01*
X183182183Y-146523079D01*
X183182185Y-146523085D01*
X183188164Y-146537519D01*
X183246295Y-146677861D01*
X183246304Y-146677874D01*
X183277181Y-146724084D01*
X183339374Y-146817162D01*
X183457838Y-146935626D01*
X183597137Y-147028703D01*
X183751918Y-147092816D01*
X183916233Y-147125500D01*
X183916234Y-147125500D01*
X184083766Y-147125500D01*
X184083767Y-147125500D01*
X184248082Y-147092816D01*
X184402863Y-147028703D01*
X184542162Y-146935626D01*
X184660626Y-146817162D01*
X184753703Y-146677863D01*
X184817816Y-146523082D01*
X184850500Y-146358767D01*
X184850500Y-145641233D01*
X184850499Y-145641230D01*
X184850498Y-145641227D01*
X185149500Y-145641227D01*
X185149500Y-146358771D01*
X185158789Y-146405467D01*
X185182183Y-146523079D01*
X185182185Y-146523085D01*
X185188164Y-146537519D01*
X185246295Y-146677861D01*
X185246304Y-146677874D01*
X185277181Y-146724084D01*
X185339374Y-146817162D01*
X185457838Y-146935626D01*
X185597137Y-147028703D01*
X185751918Y-147092816D01*
X185916233Y-147125500D01*
X185916234Y-147125500D01*
X186083766Y-147125500D01*
X186083767Y-147125500D01*
X186248082Y-147092816D01*
X186402863Y-147028703D01*
X186542162Y-146935626D01*
X186660626Y-146817162D01*
X186753703Y-146677863D01*
X186817816Y-146523082D01*
X186850500Y-146358767D01*
X186850500Y-145641233D01*
X186850499Y-145641230D01*
X186849529Y-145636352D01*
X187100000Y-145636352D01*
X187100000Y-145636355D01*
X187100000Y-145799999D01*
X187100001Y-145800000D01*
X187536342Y-145800000D01*
X187594533Y-145818907D01*
X187630497Y-145868407D01*
X187631968Y-145924621D01*
X187625000Y-145950630D01*
X187625000Y-146049370D01*
X187631968Y-146075377D01*
X187628767Y-146136478D01*
X187590262Y-146184028D01*
X187536342Y-146200000D01*
X187100001Y-146200000D01*
X187100000Y-146200001D01*
X187100000Y-146200002D01*
X187100000Y-146363646D01*
X187132684Y-146527957D01*
X187132684Y-146527958D01*
X187134585Y-146537520D01*
X187202426Y-146701303D01*
X187202432Y-146701315D01*
X187264111Y-146793622D01*
X187300923Y-146848715D01*
X187426284Y-146974076D01*
X187441391Y-146984170D01*
X187573683Y-147072566D01*
X187573689Y-147072568D01*
X187573691Y-147072570D01*
X187737473Y-147140411D01*
X187737484Y-147140414D01*
X187800000Y-147152848D01*
X187800000Y-147152847D01*
X187800000Y-146463658D01*
X187818907Y-146405467D01*
X187868407Y-146369503D01*
X187924621Y-146368031D01*
X187950630Y-146375000D01*
X188049368Y-146375000D01*
X188049370Y-146375000D01*
X188075377Y-146368031D01*
X188136478Y-146371233D01*
X188184028Y-146409738D01*
X188200000Y-146463658D01*
X188200000Y-147152847D01*
X188262486Y-147140420D01*
X188262491Y-147140418D01*
X188262515Y-147140414D01*
X188262526Y-147140411D01*
X188426308Y-147072570D01*
X188426311Y-147072567D01*
X188426315Y-147072566D01*
X188475889Y-147039440D01*
X188573715Y-146974076D01*
X188699076Y-146848715D01*
X188764440Y-146750889D01*
X188797566Y-146701315D01*
X188797572Y-146701303D01*
X188809348Y-146672873D01*
X188865413Y-146537521D01*
X188865413Y-146537519D01*
X188898789Y-146369725D01*
X188899364Y-146367555D01*
X188900000Y-146363642D01*
X188900000Y-146200002D01*
X188900000Y-146200001D01*
X188899999Y-146200000D01*
X188899998Y-146200000D01*
X188463658Y-146200000D01*
X188405467Y-146181093D01*
X188369503Y-146131593D01*
X188368031Y-146075378D01*
X188375000Y-146049370D01*
X188375000Y-145950630D01*
X188368031Y-145924622D01*
X188371233Y-145863522D01*
X188409738Y-145815972D01*
X188463658Y-145800000D01*
X188899998Y-145800000D01*
X188899999Y-145800000D01*
X188900000Y-145799999D01*
X188900000Y-145636358D01*
X188900000Y-145636356D01*
X188899364Y-145632443D01*
X188898789Y-145630273D01*
X188865413Y-145462480D01*
X188865413Y-145462478D01*
X188809351Y-145327132D01*
X188797572Y-145298695D01*
X188797566Y-145298683D01*
X188720160Y-145182839D01*
X188699076Y-145151284D01*
X188573715Y-145025923D01*
X188426308Y-144927429D01*
X188262520Y-144859586D01*
X188200000Y-144847149D01*
X188200000Y-145536341D01*
X188181093Y-145594532D01*
X188131593Y-145630496D01*
X188075379Y-145631968D01*
X188049372Y-145625000D01*
X188049370Y-145625000D01*
X187950630Y-145625000D01*
X187950627Y-145625000D01*
X187924621Y-145631968D01*
X187863519Y-145628765D01*
X187815970Y-145590258D01*
X187800000Y-145536341D01*
X187800000Y-144847148D01*
X187753851Y-144856329D01*
X187747046Y-144857683D01*
X187747041Y-144857683D01*
X187737478Y-144859585D01*
X187573695Y-144927426D01*
X187573683Y-144927432D01*
X187426285Y-145025922D01*
X187300922Y-145151285D01*
X187202432Y-145298683D01*
X187202426Y-145298695D01*
X187134586Y-145462478D01*
X187134585Y-145462479D01*
X187134586Y-145462480D01*
X187100000Y-145636352D01*
X186849529Y-145636352D01*
X186817816Y-145476920D01*
X186817816Y-145476918D01*
X186753703Y-145322137D01*
X186660626Y-145182838D01*
X186542162Y-145064374D01*
X186460002Y-145009476D01*
X186447496Y-144993612D01*
X186402869Y-144971299D01*
X186402862Y-144971296D01*
X186248085Y-144907185D01*
X186248079Y-144907183D01*
X186165924Y-144890841D01*
X186083771Y-144874500D01*
X186083769Y-144874500D01*
X186083767Y-144874500D01*
X185916233Y-144874500D01*
X185916230Y-144874500D01*
X185916227Y-144874500D01*
X185792997Y-144899012D01*
X185751920Y-144907183D01*
X185751914Y-144907185D01*
X185751912Y-144907185D01*
X185751911Y-144907186D01*
X185597137Y-144971295D01*
X185457838Y-145064373D01*
X185457834Y-145064376D01*
X185457834Y-145064377D01*
X185339377Y-145182834D01*
X185339374Y-145182838D01*
X185323642Y-145206383D01*
X185246295Y-145322137D01*
X185182186Y-145476911D01*
X185182183Y-145476921D01*
X185149500Y-145641227D01*
X184850498Y-145641227D01*
X184818786Y-145481794D01*
X184817816Y-145476918D01*
X184753703Y-145322137D01*
X184660626Y-145182838D01*
X184542162Y-145064374D01*
X184460002Y-145009476D01*
X184447496Y-144993612D01*
X184402869Y-144971299D01*
X184402862Y-144971296D01*
X184248085Y-144907185D01*
X184248079Y-144907183D01*
X184165924Y-144890841D01*
X184083771Y-144874500D01*
X184083769Y-144874500D01*
X184083767Y-144874500D01*
X183916233Y-144874500D01*
X183916230Y-144874500D01*
X183916227Y-144874500D01*
X183792997Y-144899012D01*
X183751920Y-144907183D01*
X183751914Y-144907185D01*
X183751912Y-144907185D01*
X183751911Y-144907186D01*
X183597137Y-144971295D01*
X183457838Y-145064373D01*
X183457834Y-145064376D01*
X183457834Y-145064377D01*
X183339377Y-145182834D01*
X183339374Y-145182838D01*
X183323642Y-145206383D01*
X183246295Y-145322137D01*
X183182186Y-145476911D01*
X183182183Y-145476921D01*
X183149500Y-145641227D01*
X182850499Y-145641227D01*
X182850499Y-145327128D01*
X182844091Y-145267517D01*
X182844086Y-145267504D01*
X182812508Y-145182839D01*
X182812508Y-145182838D01*
X182793797Y-145132670D01*
X182709156Y-145019605D01*
X182707806Y-145017695D01*
X182707639Y-145017524D01*
X182707546Y-145017454D01*
X182688394Y-145003117D01*
X182640628Y-144967359D01*
X182592328Y-144931201D01*
X182479594Y-144889155D01*
X182452623Y-144873924D01*
X182441261Y-144864901D01*
X182408042Y-144815942D01*
X182404711Y-144804889D01*
X182400500Y-144776323D01*
X182400500Y-139775527D01*
X182400501Y-139775474D01*
X182400501Y-139660171D01*
X182398724Y-139652647D01*
X182397906Y-139650491D01*
X182395095Y-139640000D01*
X182373207Y-139558313D01*
X182320480Y-139466987D01*
X182245913Y-139392420D01*
X182245910Y-139392418D01*
X178877682Y-136024189D01*
X178859476Y-135999130D01*
X178848388Y-135977368D01*
X178837600Y-135932426D01*
X178837600Y-135927526D01*
X178837600Y-135927525D01*
X178824917Y-135880191D01*
X178824917Y-135880190D01*
X178824917Y-135880189D01*
X178805497Y-135807717D01*
X178800084Y-135787515D01*
X178800082Y-135787512D01*
X178800082Y-135787510D01*
X178800081Y-135787509D01*
X178799991Y-135787171D01*
X178798497Y-135784764D01*
X178729085Y-135664539D01*
X178727905Y-135662347D01*
X178727717Y-135662094D01*
X178727610Y-135661987D01*
X178727609Y-135661985D01*
X178625115Y-135559491D01*
X178625112Y-135559489D01*
X178625110Y-135559487D01*
X178625109Y-135559486D01*
X178556875Y-135520091D01*
X178535841Y-135496730D01*
X178432763Y-135469111D01*
X178421302Y-135466040D01*
X178359575Y-135449500D01*
X178359574Y-135449500D01*
X178214623Y-135449500D01*
X178152888Y-135466041D01*
X178152887Y-135466040D01*
X178074612Y-135487015D01*
X178074606Y-135487018D01*
X177949093Y-135559483D01*
X177846583Y-135661993D01*
X177774118Y-135787505D01*
X177759840Y-135840793D01*
X177744904Y-135896536D01*
X177736600Y-135927526D01*
X161579050Y-135927526D01*
X161531715Y-135880191D01*
X161531712Y-135880189D01*
X161531710Y-135880187D01*
X161463474Y-135840791D01*
X161442441Y-135817431D01*
X161376597Y-135799787D01*
X161376596Y-135799787D01*
X161266175Y-135770200D01*
X161266174Y-135770200D01*
X161266173Y-135770200D01*
X161195570Y-135770200D01*
X161164977Y-135765354D01*
X161141750Y-135757807D01*
X161102339Y-135733657D01*
X159314082Y-133945400D01*
X159295876Y-133920341D01*
X159284788Y-133898579D01*
X159274000Y-133853637D01*
X159274000Y-119927525D01*
X160594500Y-119927525D01*
X160594500Y-120072474D01*
X160627585Y-120195949D01*
X160632018Y-120212493D01*
X160704485Y-120338008D01*
X160704487Y-120338010D01*
X160704489Y-120338012D01*
X160704491Y-120338015D01*
X160806985Y-120440509D01*
X160806987Y-120440510D01*
X160807094Y-120440617D01*
X160807345Y-120440803D01*
X160809538Y-120441984D01*
X160913607Y-120502068D01*
X160929757Y-120511392D01*
X160932170Y-120512890D01*
X160932508Y-120512980D01*
X160932511Y-120512982D01*
X160932512Y-120512982D01*
X160932515Y-120512984D01*
X161072525Y-120550500D01*
X161072526Y-120550500D01*
X161217474Y-120550500D01*
X161217475Y-120550500D01*
X161357485Y-120512984D01*
X161357486Y-120512983D01*
X161357488Y-120512982D01*
X161357489Y-120512982D01*
X161476880Y-120444051D01*
X161479768Y-120442648D01*
X161480554Y-120442131D01*
X161485563Y-120439037D01*
X161486862Y-120438286D01*
X161492220Y-120431303D01*
X161585509Y-120338015D01*
X161585513Y-120338008D01*
X161657982Y-120212489D01*
X161657982Y-120212487D01*
X161657984Y-120212485D01*
X161695500Y-120072475D01*
X161695500Y-120045869D01*
X161700344Y-120015280D01*
X161707891Y-119992049D01*
X161732040Y-119952640D01*
X162801070Y-118883612D01*
X162847214Y-118803688D01*
X162871100Y-118714544D01*
X162871100Y-118622256D01*
X162871100Y-110692964D01*
X162875945Y-110662373D01*
X162879747Y-110650671D01*
X162915710Y-110601170D01*
X162971303Y-110582296D01*
X162981371Y-110582032D01*
X163009585Y-110585371D01*
X163044025Y-110594600D01*
X163044027Y-110594600D01*
X163188974Y-110594600D01*
X163188975Y-110594600D01*
X163328985Y-110557084D01*
X163328986Y-110557083D01*
X163328988Y-110557082D01*
X163328989Y-110557082D01*
X163448380Y-110488151D01*
X163451268Y-110486748D01*
X163452054Y-110486231D01*
X163457063Y-110483137D01*
X163458362Y-110482386D01*
X163463720Y-110475403D01*
X163557009Y-110382115D01*
X163629484Y-110256585D01*
X163667000Y-110116575D01*
X163667000Y-109971625D01*
X163629484Y-109831615D01*
X163629482Y-109831612D01*
X163629482Y-109831610D01*
X163629481Y-109831608D01*
X163629390Y-109831268D01*
X163627897Y-109828864D01*
X163558485Y-109708639D01*
X163557305Y-109706447D01*
X163557117Y-109706194D01*
X163557010Y-109706087D01*
X163557009Y-109706085D01*
X163454515Y-109603591D01*
X163454512Y-109603589D01*
X163454510Y-109603587D01*
X163454509Y-109603586D01*
X163386275Y-109564191D01*
X163365241Y-109540830D01*
X163285257Y-109519399D01*
X163285231Y-109519392D01*
X163188975Y-109493600D01*
X163188974Y-109493600D01*
X163044021Y-109493600D01*
X163010865Y-109502484D01*
X162980063Y-109505721D01*
X162967776Y-109505077D01*
X162910655Y-109483150D01*
X162878033Y-109434323D01*
X162875173Y-109424668D01*
X162871100Y-109396561D01*
X162871100Y-104927125D01*
X168606400Y-104927125D01*
X168606400Y-105072074D01*
X168632002Y-105167620D01*
X168643918Y-105212093D01*
X168716385Y-105337608D01*
X168716387Y-105337610D01*
X168716389Y-105337612D01*
X168716391Y-105337615D01*
X168818885Y-105440109D01*
X168818887Y-105440110D01*
X168818994Y-105440217D01*
X168819245Y-105440403D01*
X168821438Y-105441584D01*
X168900363Y-105487151D01*
X168941657Y-105510992D01*
X168944070Y-105512490D01*
X168944408Y-105512580D01*
X168944411Y-105512582D01*
X168944412Y-105512582D01*
X168944415Y-105512584D01*
X169084425Y-105550100D01*
X169084426Y-105550100D01*
X169229374Y-105550100D01*
X169229375Y-105550100D01*
X169369385Y-105512584D01*
X169369386Y-105512583D01*
X169369388Y-105512582D01*
X169369389Y-105512582D01*
X169488780Y-105443651D01*
X169491668Y-105442248D01*
X169492454Y-105441731D01*
X169497463Y-105438637D01*
X169498761Y-105437887D01*
X169504119Y-105430904D01*
X169597409Y-105337615D01*
X169609998Y-105315811D01*
X169669882Y-105212089D01*
X169669882Y-105212087D01*
X169669884Y-105212085D01*
X169707400Y-105072075D01*
X169707400Y-104927125D01*
X169669884Y-104787115D01*
X169669882Y-104787112D01*
X169669882Y-104787110D01*
X169669881Y-104787108D01*
X169669790Y-104786768D01*
X169668297Y-104784364D01*
X169598885Y-104664139D01*
X169597705Y-104661947D01*
X169597517Y-104661694D01*
X169597410Y-104661587D01*
X169597409Y-104661585D01*
X169494915Y-104559091D01*
X169494912Y-104559089D01*
X169494910Y-104559087D01*
X169426674Y-104519691D01*
X169405641Y-104496331D01*
X169339797Y-104478687D01*
X169339796Y-104478687D01*
X169229375Y-104449100D01*
X169229373Y-104449100D01*
X169084423Y-104449100D01*
X169022688Y-104465641D01*
X169022687Y-104465640D01*
X168944412Y-104486615D01*
X168944406Y-104486618D01*
X168818893Y-104559083D01*
X168716383Y-104661593D01*
X168643918Y-104787105D01*
X168622942Y-104865387D01*
X168606400Y-104927125D01*
X162871100Y-104927125D01*
X162871100Y-102562825D01*
X164829700Y-102562825D01*
X164829700Y-102707774D01*
X164841644Y-102752348D01*
X164867218Y-102847793D01*
X164939685Y-102973308D01*
X164939687Y-102973310D01*
X164939689Y-102973312D01*
X164939691Y-102973315D01*
X165042185Y-103075809D01*
X165042187Y-103075810D01*
X165042294Y-103075917D01*
X165042545Y-103076103D01*
X165044738Y-103077284D01*
X165123111Y-103122532D01*
X165164957Y-103146692D01*
X165167370Y-103148190D01*
X165167708Y-103148280D01*
X165167711Y-103148282D01*
X165167712Y-103148282D01*
X165167715Y-103148284D01*
X165307725Y-103185800D01*
X165307726Y-103185800D01*
X165452674Y-103185800D01*
X165452675Y-103185800D01*
X165592685Y-103148284D01*
X165592686Y-103148283D01*
X165592688Y-103148282D01*
X165592689Y-103148282D01*
X165712080Y-103079351D01*
X165714968Y-103077948D01*
X165715754Y-103077431D01*
X165720763Y-103074337D01*
X165722061Y-103073587D01*
X165727419Y-103066604D01*
X165820709Y-102973315D01*
X165826108Y-102963964D01*
X165893182Y-102847789D01*
X165893182Y-102847787D01*
X165893184Y-102847785D01*
X165930700Y-102707775D01*
X165930700Y-102562825D01*
X165893184Y-102422815D01*
X165893182Y-102422812D01*
X165893182Y-102422810D01*
X165893181Y-102422808D01*
X165893090Y-102422468D01*
X165891597Y-102420064D01*
X165822185Y-102299839D01*
X165821005Y-102297647D01*
X165820817Y-102297394D01*
X165820710Y-102297287D01*
X165820709Y-102297285D01*
X165718215Y-102194791D01*
X165718212Y-102194789D01*
X165718210Y-102194787D01*
X165649974Y-102155391D01*
X165628941Y-102132031D01*
X165563097Y-102114387D01*
X165563096Y-102114387D01*
X165452675Y-102084800D01*
X165452673Y-102084800D01*
X165307723Y-102084800D01*
X165245988Y-102101341D01*
X165245987Y-102101340D01*
X165167712Y-102122315D01*
X165167706Y-102122318D01*
X165042193Y-102194783D01*
X164939683Y-102297293D01*
X164867218Y-102422805D01*
X164855888Y-102465089D01*
X164829700Y-102562825D01*
X162871100Y-102562825D01*
X162871100Y-96104511D01*
X162874477Y-96078874D01*
X162875920Y-96073493D01*
X162881236Y-96053665D01*
X162881235Y-96053664D01*
X162888340Y-96027163D01*
X162887965Y-96024573D01*
X162889906Y-96015725D01*
X162919100Y-95906775D01*
X162919100Y-95761825D01*
X162881584Y-95621815D01*
X162881582Y-95621812D01*
X162881582Y-95621810D01*
X162881581Y-95621808D01*
X162881490Y-95621468D01*
X162879997Y-95619064D01*
X162810585Y-95498839D01*
X162809405Y-95496647D01*
X162809217Y-95496394D01*
X162809110Y-95496287D01*
X162809109Y-95496285D01*
X162706615Y-95393791D01*
X162706612Y-95393789D01*
X162706610Y-95393787D01*
X162638374Y-95354391D01*
X162617341Y-95331031D01*
X162551497Y-95313387D01*
X162551496Y-95313387D01*
X162441075Y-95283800D01*
X162441073Y-95283800D01*
X162296123Y-95283800D01*
X162234388Y-95300341D01*
X162234387Y-95300340D01*
X162156112Y-95321315D01*
X162156106Y-95321318D01*
X162030593Y-95393783D01*
X161928083Y-95496293D01*
X161855618Y-95621805D01*
X161834642Y-95700087D01*
X161818100Y-95761825D01*
X161818100Y-95906774D01*
X161849664Y-96024573D01*
X161855618Y-96046793D01*
X161928085Y-96172308D01*
X161928087Y-96172310D01*
X161928089Y-96172312D01*
X161928091Y-96172315D01*
X162030585Y-96274809D01*
X162066344Y-96295454D01*
X162107023Y-96318941D01*
X162131090Y-96338429D01*
X162143788Y-96352531D01*
X162167055Y-96398190D01*
X162167936Y-96402334D01*
X162170100Y-96422921D01*
X162170100Y-97589291D01*
X162165253Y-97619889D01*
X162161450Y-97631591D01*
X162125483Y-97681089D01*
X162069893Y-97699959D01*
X162056816Y-97700302D01*
X162041506Y-97699500D01*
X162041380Y-97699500D01*
X162041375Y-97699500D01*
X161896425Y-97699500D01*
X161892328Y-97700598D01*
X161892324Y-97700599D01*
X161756405Y-97737018D01*
X161630893Y-97809483D01*
X161528383Y-97911993D01*
X161455918Y-98037505D01*
X161434942Y-98115787D01*
X161418400Y-98177525D01*
X161418400Y-98322474D01*
X161451485Y-98445949D01*
X161455918Y-98462493D01*
X161528386Y-98588010D01*
X161578318Y-98637943D01*
X161596523Y-98663000D01*
X161607609Y-98684757D01*
X161618400Y-98729703D01*
X161618400Y-117955187D01*
X161613554Y-117985781D01*
X161606007Y-118009007D01*
X161581858Y-118048415D01*
X161528396Y-118101878D01*
X161528388Y-118101887D01*
X161455918Y-118227407D01*
X161455917Y-118227409D01*
X161455917Y-118227410D01*
X161418400Y-118367425D01*
X161418400Y-118512374D01*
X161425275Y-118538032D01*
X161455918Y-118652393D01*
X161528385Y-118777908D01*
X161528387Y-118777910D01*
X161528389Y-118777912D01*
X161528391Y-118777915D01*
X161630885Y-118880409D01*
X161630887Y-118880410D01*
X161636529Y-118886052D01*
X161636502Y-118886078D01*
X161642980Y-118891888D01*
X161653273Y-118903320D01*
X161678159Y-118959215D01*
X161666708Y-119016794D01*
X161661906Y-119025640D01*
X161644905Y-119048409D01*
X161324243Y-119369073D01*
X161283901Y-119409415D01*
X161258844Y-119427619D01*
X161237082Y-119438708D01*
X161192135Y-119449500D01*
X161072525Y-119449500D01*
X161051753Y-119455066D01*
X160932505Y-119487018D01*
X160806993Y-119559483D01*
X160704483Y-119661993D01*
X160632018Y-119787505D01*
X160632017Y-119787510D01*
X160594500Y-119927525D01*
X159274000Y-119927525D01*
X159274000Y-108471620D01*
X159275630Y-108466602D01*
X159274524Y-108461443D01*
X159278844Y-108441033D01*
X159281130Y-108433996D01*
X159290346Y-108421308D01*
X159292907Y-108413429D01*
X159299607Y-108408560D01*
X159317091Y-108384494D01*
X159375280Y-108365583D01*
X159433472Y-108384487D01*
X159464586Y-108421846D01*
X159464653Y-108421986D01*
X159470977Y-108439091D01*
X159473334Y-108447886D01*
X159473817Y-108449689D01*
X159546287Y-108575210D01*
X159546289Y-108575212D01*
X159546291Y-108575215D01*
X159648785Y-108677709D01*
X159648787Y-108677710D01*
X159648894Y-108677817D01*
X159649145Y-108678003D01*
X159651338Y-108679184D01*
X159661395Y-108684990D01*
X159771557Y-108748592D01*
X159773970Y-108750090D01*
X159774308Y-108750180D01*
X159774311Y-108750182D01*
X159774312Y-108750182D01*
X159774315Y-108750184D01*
X159914325Y-108787700D01*
X159914326Y-108787700D01*
X160059274Y-108787700D01*
X160059275Y-108787700D01*
X160199285Y-108750184D01*
X160199286Y-108750183D01*
X160199288Y-108750182D01*
X160199289Y-108750182D01*
X160318680Y-108681251D01*
X160321568Y-108679848D01*
X160322354Y-108679331D01*
X160327363Y-108676237D01*
X160328662Y-108675486D01*
X160334020Y-108668503D01*
X160427309Y-108575215D01*
X160490017Y-108466602D01*
X160499782Y-108449689D01*
X160499782Y-108449687D01*
X160499784Y-108449685D01*
X160537300Y-108309675D01*
X160537300Y-108164725D01*
X160499784Y-108024715D01*
X160499782Y-108024712D01*
X160499782Y-108024710D01*
X160499781Y-108024708D01*
X160499690Y-108024368D01*
X160498197Y-108021964D01*
X160428785Y-107901739D01*
X160427605Y-107899547D01*
X160427417Y-107899294D01*
X160427310Y-107899187D01*
X160427309Y-107899185D01*
X160324815Y-107796691D01*
X160324812Y-107796689D01*
X160324810Y-107796687D01*
X160256574Y-107757291D01*
X160235541Y-107733931D01*
X160169697Y-107716287D01*
X160169696Y-107716287D01*
X160059275Y-107686700D01*
X160059273Y-107686700D01*
X159914323Y-107686700D01*
X159852588Y-107703241D01*
X159852587Y-107703240D01*
X159774312Y-107724215D01*
X159774306Y-107724218D01*
X159648793Y-107796683D01*
X159546287Y-107899189D01*
X159473812Y-108024719D01*
X159473769Y-108024806D01*
X159473431Y-108026149D01*
X159472689Y-108028920D01*
X159460084Y-108057236D01*
X159456054Y-108063441D01*
X159408502Y-108101944D01*
X159347400Y-108105143D01*
X159296088Y-108071817D01*
X159275646Y-108027343D01*
X159275616Y-108027181D01*
X159274000Y-108009365D01*
X159274000Y-96753293D01*
X159274845Y-96740384D01*
X159276527Y-96727608D01*
X159279052Y-96714918D01*
X159300500Y-96634875D01*
X159300500Y-96489926D01*
X159299589Y-96486527D01*
X159298089Y-96480928D01*
X159298089Y-96480925D01*
X159298088Y-96480926D01*
X159298088Y-96480925D01*
X159262984Y-96349915D01*
X159262982Y-96349912D01*
X159262982Y-96349910D01*
X159262981Y-96349908D01*
X159262890Y-96349568D01*
X159261397Y-96347164D01*
X159191985Y-96226939D01*
X159190805Y-96224747D01*
X159190617Y-96224494D01*
X159190510Y-96224387D01*
X159190509Y-96224385D01*
X159088015Y-96121891D01*
X159088012Y-96121889D01*
X159088010Y-96121887D01*
X159088009Y-96121886D01*
X159019775Y-96082491D01*
X158998741Y-96059130D01*
X158925463Y-96039496D01*
X158894551Y-96031213D01*
X158822475Y-96011900D01*
X158822474Y-96011900D01*
X158677523Y-96011900D01*
X158615788Y-96028441D01*
X158615787Y-96028440D01*
X158537512Y-96049415D01*
X158537506Y-96049418D01*
X158411993Y-96121883D01*
X158309483Y-96224393D01*
X158237018Y-96349905D01*
X158236315Y-96352529D01*
X158199500Y-96489925D01*
X158199500Y-96634874D01*
X158220948Y-96714918D01*
X158237018Y-96774893D01*
X158309485Y-96900408D01*
X158309487Y-96900410D01*
X158309489Y-96900412D01*
X158309491Y-96900415D01*
X158411985Y-97002909D01*
X158411987Y-97002910D01*
X158412094Y-97003017D01*
X158412345Y-97003204D01*
X158414540Y-97004385D01*
X158509920Y-97059453D01*
X158533987Y-97078941D01*
X158546686Y-97093043D01*
X158569955Y-97138704D01*
X158570836Y-97142848D01*
X158573000Y-97163435D01*
X158573000Y-107451491D01*
X158568153Y-107482089D01*
X158564350Y-107493791D01*
X158528383Y-107543289D01*
X158472793Y-107562159D01*
X158459716Y-107562502D01*
X158444406Y-107561700D01*
X158444280Y-107561700D01*
X158444275Y-107561700D01*
X158299325Y-107561700D01*
X158299323Y-107561700D01*
X158237588Y-107578241D01*
X158237587Y-107578240D01*
X158159312Y-107599215D01*
X158159306Y-107599218D01*
X158033793Y-107671683D01*
X157931283Y-107774193D01*
X157858818Y-107899706D01*
X157858816Y-107899710D01*
X157839828Y-107970573D01*
X157839829Y-107970574D01*
X157821300Y-108039725D01*
X156620600Y-108039725D01*
X156620600Y-97019611D01*
X156625445Y-96989020D01*
X156632992Y-96965791D01*
X156657143Y-96926380D01*
X156692109Y-96891415D01*
X156692110Y-96891412D01*
X156692112Y-96891411D01*
X156764582Y-96765889D01*
X156764582Y-96765887D01*
X156764584Y-96765885D01*
X156802100Y-96625875D01*
X156802100Y-96480925D01*
X156764584Y-96340915D01*
X156764582Y-96340912D01*
X156764582Y-96340910D01*
X156764581Y-96340908D01*
X156764490Y-96340568D01*
X156762997Y-96338164D01*
X156693585Y-96217939D01*
X156692405Y-96215747D01*
X156692217Y-96215494D01*
X156692110Y-96215387D01*
X156692109Y-96215385D01*
X156589615Y-96112891D01*
X156589612Y-96112889D01*
X156589610Y-96112887D01*
X156521374Y-96073491D01*
X156500341Y-96050131D01*
X156434497Y-96032487D01*
X156434496Y-96032487D01*
X156324075Y-96002900D01*
X156324073Y-96002900D01*
X156179125Y-96002900D01*
X156158225Y-96008499D01*
X156158226Y-96008500D01*
X156039110Y-96040417D01*
X156039108Y-96040417D01*
X156039104Y-96040419D01*
X155913593Y-96112883D01*
X155811083Y-96215393D01*
X155738618Y-96340905D01*
X155701100Y-96480926D01*
X155701100Y-96625874D01*
X155703511Y-96634872D01*
X155703511Y-96634875D01*
X155703512Y-96634875D01*
X155738618Y-96765893D01*
X155811086Y-96891410D01*
X155879518Y-96959843D01*
X155897723Y-96984900D01*
X155900474Y-96990299D01*
X155907049Y-97003204D01*
X155908809Y-97006657D01*
X155919600Y-97051603D01*
X155919600Y-103292329D01*
X155914753Y-103322925D01*
X155910950Y-103334628D01*
X155874985Y-103384127D01*
X155819384Y-103402998D01*
X155809324Y-103403261D01*
X155788234Y-103400766D01*
X155788211Y-103400947D01*
X155781775Y-103400100D01*
X155636825Y-103400100D01*
X155619236Y-103404813D01*
X155619229Y-103404815D01*
X155496805Y-103437618D01*
X155371293Y-103510083D01*
X155268783Y-103612593D01*
X155196318Y-103738105D01*
X155196317Y-103738110D01*
X155158800Y-103878125D01*
X155158800Y-104023074D01*
X155185315Y-104122030D01*
X155196318Y-104163093D01*
X155268786Y-104288610D01*
X155318718Y-104338543D01*
X155336923Y-104363600D01*
X155348009Y-104385357D01*
X155358800Y-104430303D01*
X155358800Y-111166940D01*
X155353953Y-111197538D01*
X155350150Y-111209240D01*
X155314183Y-111258738D01*
X155258594Y-111277608D01*
X155248534Y-111277872D01*
X155220315Y-111274533D01*
X155186975Y-111265600D01*
X155186974Y-111265600D01*
X155116370Y-111265600D01*
X155085777Y-111260754D01*
X155062550Y-111253207D01*
X155023139Y-111229057D01*
X154357782Y-110563700D01*
X154339576Y-110538641D01*
X154328488Y-110516879D01*
X154317700Y-110471937D01*
X154317700Y-103120858D01*
X154316271Y-103115526D01*
X154314640Y-103109438D01*
X154306026Y-103077288D01*
X154297186Y-103044294D01*
X154297185Y-103044287D01*
X154293813Y-103031710D01*
X154293813Y-103031709D01*
X154293289Y-103030802D01*
X154274480Y-102998223D01*
X154264590Y-102974346D01*
X154258073Y-102950023D01*
X154254700Y-102924401D01*
X154254700Y-102831525D01*
X154245311Y-102796485D01*
X154245311Y-102796484D01*
X154233484Y-102752348D01*
X154217184Y-102691515D01*
X154217182Y-102691512D01*
X154217182Y-102691510D01*
X154217181Y-102691509D01*
X154217091Y-102691171D01*
X154215597Y-102688764D01*
X154146185Y-102568539D01*
X154145005Y-102566347D01*
X154144817Y-102566094D01*
X154144710Y-102565987D01*
X154144709Y-102565985D01*
X154042215Y-102463491D01*
X154042212Y-102463489D01*
X154042210Y-102463487D01*
X154042209Y-102463486D01*
X153973975Y-102424091D01*
X153952941Y-102400730D01*
X153874483Y-102379708D01*
X153838320Y-102370018D01*
X153776675Y-102353500D01*
X153776674Y-102353500D01*
X153631726Y-102353500D01*
X153631725Y-102353500D01*
X153621863Y-102356142D01*
X153585055Y-102366004D01*
X153585055Y-102366005D01*
X153491713Y-102391016D01*
X153491711Y-102391016D01*
X153491707Y-102391018D01*
X153376379Y-102457604D01*
X153347456Y-102468706D01*
X153336312Y-102471074D01*
X153275462Y-102464674D01*
X153229997Y-102423733D01*
X153227560Y-102419512D01*
X153214300Y-102370018D01*
X153214300Y-100998170D01*
X153219144Y-100967581D01*
X153226691Y-100944350D01*
X153250840Y-100904941D01*
X153485102Y-100670679D01*
X153510154Y-100652478D01*
X153531921Y-100641388D01*
X153576862Y-100630600D01*
X153652474Y-100630600D01*
X153652475Y-100630600D01*
X153792485Y-100593084D01*
X153792486Y-100593083D01*
X153792488Y-100593082D01*
X153792489Y-100593082D01*
X153911880Y-100524151D01*
X153914768Y-100522748D01*
X153915554Y-100522231D01*
X153920563Y-100519137D01*
X153921862Y-100518386D01*
X153927220Y-100511403D01*
X154020509Y-100418115D01*
X154020512Y-100418110D01*
X154026580Y-100407601D01*
X154074455Y-100324678D01*
X154092982Y-100292589D01*
X154092982Y-100292587D01*
X154092984Y-100292585D01*
X154130500Y-100152575D01*
X154130500Y-100007625D01*
X154092984Y-99867615D01*
X154092982Y-99867612D01*
X154092982Y-99867610D01*
X154092981Y-99867608D01*
X154092890Y-99867268D01*
X154091397Y-99864864D01*
X154021985Y-99744639D01*
X154020805Y-99742447D01*
X154020617Y-99742194D01*
X154020510Y-99742087D01*
X154020509Y-99742085D01*
X153918015Y-99639591D01*
X153918012Y-99639589D01*
X153918010Y-99639587D01*
X153849774Y-99600191D01*
X153828741Y-99576831D01*
X153762897Y-99559187D01*
X153762896Y-99559187D01*
X153652475Y-99529600D01*
X153652473Y-99529600D01*
X153507523Y-99529600D01*
X153445788Y-99546141D01*
X153445787Y-99546140D01*
X153367512Y-99567115D01*
X153367506Y-99567118D01*
X153241993Y-99639583D01*
X153139486Y-99742090D01*
X153101802Y-99807361D01*
X153082308Y-99831433D01*
X153073166Y-99839664D01*
X153017269Y-99864549D01*
X152959685Y-99853094D01*
X152950839Y-99848291D01*
X152928074Y-99831292D01*
X150466682Y-97369900D01*
X150448476Y-97344841D01*
X150437388Y-97323079D01*
X150426600Y-97278137D01*
X150426600Y-97202524D01*
X150416125Y-97163435D01*
X150413337Y-97153029D01*
X150389084Y-97062515D01*
X150389080Y-97062509D01*
X150388927Y-97061936D01*
X150383810Y-97045450D01*
X150380849Y-97031520D01*
X150387244Y-96970670D01*
X150428182Y-96925201D01*
X150432403Y-96922764D01*
X150481904Y-96909500D01*
X153295988Y-96909500D01*
X153326579Y-96914345D01*
X153338916Y-96918353D01*
X153349805Y-96921891D01*
X153389217Y-96946042D01*
X153428076Y-96984900D01*
X153442684Y-96999508D01*
X153442689Y-96999512D01*
X153565479Y-97070404D01*
X153567871Y-97071891D01*
X153568212Y-97071982D01*
X153568215Y-97071984D01*
X153708225Y-97109500D01*
X153708226Y-97109500D01*
X153853174Y-97109500D01*
X153853175Y-97109500D01*
X153993185Y-97071984D01*
X153993186Y-97071983D01*
X153993188Y-97071982D01*
X153993189Y-97071982D01*
X154112580Y-97003051D01*
X154115468Y-97001648D01*
X154116254Y-97001131D01*
X154121263Y-96998037D01*
X154122562Y-96997286D01*
X154127920Y-96990303D01*
X154221209Y-96897015D01*
X154224442Y-96891415D01*
X154293682Y-96771489D01*
X154293682Y-96771487D01*
X154293684Y-96771485D01*
X154331200Y-96631475D01*
X154331200Y-96486525D01*
X154293684Y-96346515D01*
X154293682Y-96346512D01*
X154293682Y-96346510D01*
X154293681Y-96346508D01*
X154293590Y-96346168D01*
X154292097Y-96343764D01*
X154222685Y-96223539D01*
X154221505Y-96221347D01*
X154221317Y-96221094D01*
X154221210Y-96220987D01*
X154221209Y-96220985D01*
X154118715Y-96118491D01*
X154118712Y-96118489D01*
X154118710Y-96118487D01*
X154050474Y-96079091D01*
X154029441Y-96055731D01*
X153963597Y-96038087D01*
X153963596Y-96038087D01*
X153853175Y-96008500D01*
X153853173Y-96008500D01*
X153708223Y-96008500D01*
X153646488Y-96025041D01*
X153646487Y-96025040D01*
X153568212Y-96046015D01*
X153568209Y-96046016D01*
X153442687Y-96118488D01*
X153442678Y-96118496D01*
X153392755Y-96168418D01*
X153367700Y-96186621D01*
X153345942Y-96197708D01*
X153300995Y-96208500D01*
X150324570Y-96208500D01*
X150293976Y-96203654D01*
X150283574Y-96200274D01*
X150234074Y-96164309D01*
X150215168Y-96106118D01*
X150229751Y-96054402D01*
X150232762Y-96049489D01*
X150247164Y-96031217D01*
X152854102Y-93424279D01*
X152879154Y-93406078D01*
X152900921Y-93394988D01*
X152945862Y-93384200D01*
X154791730Y-93384200D01*
X154822321Y-93389045D01*
X154834658Y-93393053D01*
X154845547Y-93396591D01*
X154884960Y-93420742D01*
X155205226Y-93741008D01*
X155223431Y-93766066D01*
X155230457Y-93779855D01*
X155240562Y-93836431D01*
X155238828Y-93851089D01*
X155236141Y-93865077D01*
X155199500Y-94001825D01*
X155199500Y-94146774D01*
X155232585Y-94270249D01*
X155237018Y-94286793D01*
X155309485Y-94412308D01*
X155309487Y-94412310D01*
X155309489Y-94412312D01*
X155309491Y-94412315D01*
X155411985Y-94514809D01*
X155411987Y-94514810D01*
X155412094Y-94514917D01*
X155412345Y-94515103D01*
X155414538Y-94516284D01*
X155527107Y-94581275D01*
X155534757Y-94585692D01*
X155537170Y-94587190D01*
X155537508Y-94587280D01*
X155537511Y-94587282D01*
X155537512Y-94587282D01*
X155537515Y-94587284D01*
X155677525Y-94624800D01*
X155677526Y-94624800D01*
X155822474Y-94624800D01*
X155822475Y-94624800D01*
X155962485Y-94587284D01*
X155962486Y-94587283D01*
X155962488Y-94587282D01*
X155962489Y-94587282D01*
X156081880Y-94518351D01*
X156084768Y-94516948D01*
X156085554Y-94516431D01*
X156090563Y-94513337D01*
X156091862Y-94512586D01*
X156097220Y-94505603D01*
X156190509Y-94412315D01*
X156190513Y-94412308D01*
X156262982Y-94286789D01*
X156262982Y-94286787D01*
X156262984Y-94286785D01*
X156300500Y-94146775D01*
X156300500Y-94001825D01*
X156262984Y-93861815D01*
X156262982Y-93861812D01*
X156262982Y-93861810D01*
X156262981Y-93861808D01*
X156262890Y-93861468D01*
X156261397Y-93859064D01*
X156191985Y-93738839D01*
X156190805Y-93736647D01*
X156190617Y-93736394D01*
X156190510Y-93736287D01*
X156190509Y-93736285D01*
X156088015Y-93633791D01*
X156088012Y-93633789D01*
X156088011Y-93633788D01*
X156086966Y-93633185D01*
X156066466Y-93617455D01*
X156048660Y-93599649D01*
X156032926Y-93579143D01*
X156030470Y-93574888D01*
X155208812Y-92753230D01*
X155128888Y-92707086D01*
X155039744Y-92683200D01*
X155039742Y-92683200D01*
X152702858Y-92683200D01*
X152702856Y-92683200D01*
X152613712Y-92707086D01*
X152533788Y-92753230D01*
X145174487Y-100112529D01*
X145149430Y-100130734D01*
X145139690Y-100135697D01*
X145079258Y-100145269D01*
X145024741Y-100117493D01*
X144998477Y-100070595D01*
X144998235Y-100069588D01*
X144997133Y-100064998D01*
X144994400Y-100041893D01*
X144994400Y-100000370D01*
X144999244Y-99969781D01*
X145006791Y-99946550D01*
X145030940Y-99907141D01*
X154309502Y-90628579D01*
X154334554Y-90610378D01*
X154356321Y-90599288D01*
X154401262Y-90588500D01*
X158156788Y-90588500D01*
X158187379Y-90593345D01*
X158199716Y-90597353D01*
X158210605Y-90600891D01*
X158250017Y-90625042D01*
X158303484Y-90678508D01*
X158303489Y-90678512D01*
X158426279Y-90749404D01*
X158428671Y-90750891D01*
X158429012Y-90750982D01*
X158429015Y-90750984D01*
X158569025Y-90788500D01*
X158569026Y-90788500D01*
X158713974Y-90788500D01*
X158713975Y-90788500D01*
X158853985Y-90750984D01*
X158853986Y-90750983D01*
X158853988Y-90750982D01*
X158853989Y-90750982D01*
X158973380Y-90682051D01*
X158976268Y-90680648D01*
X158977054Y-90680131D01*
X158982063Y-90677037D01*
X158983362Y-90676286D01*
X158988720Y-90669303D01*
X159082009Y-90576015D01*
X159126776Y-90498477D01*
X159154482Y-90450489D01*
X159154482Y-90450487D01*
X159154484Y-90450485D01*
X159192000Y-90310475D01*
X159192000Y-90165525D01*
X159154484Y-90025515D01*
X159154482Y-90025512D01*
X159154482Y-90025510D01*
X159154481Y-90025508D01*
X159154390Y-90025168D01*
X159152897Y-90022764D01*
X159083485Y-89902539D01*
X159082305Y-89900347D01*
X159082117Y-89900094D01*
X159082010Y-89899987D01*
X159082009Y-89899985D01*
X158979515Y-89797491D01*
X158979512Y-89797489D01*
X158979510Y-89797487D01*
X158911274Y-89758091D01*
X158890241Y-89734731D01*
X158824397Y-89717087D01*
X158824396Y-89717087D01*
X158713975Y-89687500D01*
X158713973Y-89687500D01*
X158569023Y-89687500D01*
X158507288Y-89704041D01*
X158507287Y-89704040D01*
X158429012Y-89725015D01*
X158429009Y-89725016D01*
X158303487Y-89797488D01*
X158303478Y-89797496D01*
X158253555Y-89847418D01*
X158228500Y-89865621D01*
X158206742Y-89876708D01*
X158161795Y-89887500D01*
X154158252Y-89887500D01*
X154103698Y-89902116D01*
X154103699Y-89902117D01*
X154069108Y-89911386D01*
X154069103Y-89911388D01*
X153989195Y-89957523D01*
X153989189Y-89957527D01*
X153989190Y-89957528D01*
X145889254Y-98057461D01*
X145864192Y-98075668D01*
X145853230Y-98081253D01*
X145792798Y-98090823D01*
X145740139Y-98064852D01*
X145732837Y-98057923D01*
X145715253Y-98035616D01*
X145690510Y-97992762D01*
X145659809Y-97939585D01*
X145557315Y-97837091D01*
X145557312Y-97837089D01*
X145557310Y-97837087D01*
X145557309Y-97837086D01*
X145489075Y-97797691D01*
X145468041Y-97774330D01*
X145328785Y-97737017D01*
X145328783Y-97737016D01*
X145291775Y-97727100D01*
X145146825Y-97727100D01*
X145109814Y-97737016D01*
X145109815Y-97737017D01*
X145006810Y-97764617D01*
X145006808Y-97764617D01*
X145006804Y-97764619D01*
X144881293Y-97837083D01*
X144778783Y-97939593D01*
X144706318Y-98065105D01*
X144668799Y-98205127D01*
X144667953Y-98211559D01*
X144667767Y-98211534D01*
X144663954Y-98235611D01*
X144656407Y-98258838D01*
X144632257Y-98298249D01*
X139989213Y-102941294D01*
X139989212Y-102941295D01*
X139943011Y-103021319D01*
X139943008Y-103021321D01*
X139943010Y-103021322D01*
X139936492Y-103032611D01*
X139933714Y-103042979D01*
X139921112Y-103071281D01*
X139914907Y-103080834D01*
X139867353Y-103119335D01*
X139806254Y-103122532D01*
X139801549Y-103121271D01*
X139757175Y-103095650D01*
X139713012Y-103051488D01*
X139644775Y-103012091D01*
X139632272Y-102998205D01*
X139616706Y-102987869D01*
X139616282Y-102986732D01*
X139531311Y-102963964D01*
X139509206Y-102958041D01*
X139447475Y-102941500D01*
X139447474Y-102941500D01*
X139302523Y-102941500D01*
X139240788Y-102958041D01*
X139240787Y-102958040D01*
X139162512Y-102979015D01*
X139162506Y-102979018D01*
X139036993Y-103051483D01*
X138934483Y-103153993D01*
X138862018Y-103279505D01*
X138847380Y-103334136D01*
X138824500Y-103419525D01*
X138824500Y-103564474D01*
X138843914Y-103636928D01*
X138862018Y-103704493D01*
X138934485Y-103830008D01*
X138934487Y-103830010D01*
X138934489Y-103830012D01*
X138934491Y-103830015D01*
X139036985Y-103932509D01*
X139036987Y-103932510D01*
X139037094Y-103932617D01*
X139037345Y-103932803D01*
X139039538Y-103933984D01*
X139081707Y-103958330D01*
X139159757Y-104003392D01*
X139162170Y-104004890D01*
X139162508Y-104004980D01*
X139162511Y-104004982D01*
X139162512Y-104004982D01*
X139162515Y-104004984D01*
X139302525Y-104042500D01*
X139302526Y-104042500D01*
X139447474Y-104042500D01*
X139447475Y-104042500D01*
X139587485Y-104004984D01*
X139587486Y-104004983D01*
X139587488Y-104004982D01*
X139587489Y-104004982D01*
X139706880Y-103936051D01*
X139709767Y-103934649D01*
X139710549Y-103934134D01*
X139715562Y-103931038D01*
X139716859Y-103930288D01*
X139722214Y-103923309D01*
X139729116Y-103916406D01*
X139754169Y-103898206D01*
X139763917Y-103893239D01*
X139824350Y-103883673D01*
X139878864Y-103911454D01*
X139905118Y-103958330D01*
X139906462Y-103963925D01*
X139909200Y-103987048D01*
X139909200Y-107463387D01*
X139904354Y-107493980D01*
X139896807Y-107517207D01*
X139872663Y-107556611D01*
X139869198Y-107560075D01*
X139869192Y-107560082D01*
X139869188Y-107560088D01*
X139869182Y-107560096D01*
X139796718Y-107685605D01*
X139759199Y-107825627D01*
X139758353Y-107832059D01*
X139758167Y-107832034D01*
X139754354Y-107856111D01*
X139746807Y-107879338D01*
X139722657Y-107918749D01*
X125480990Y-122160416D01*
X125455929Y-122178623D01*
X125446186Y-122183587D01*
X125385754Y-122193157D01*
X125331238Y-122165378D01*
X125304977Y-122118483D01*
X125303634Y-122112888D01*
X125300900Y-122089781D01*
X125300900Y-119781311D01*
X125305745Y-119750720D01*
X125313292Y-119727491D01*
X125337443Y-119688079D01*
X125390909Y-119634615D01*
X125434282Y-119559491D01*
X125463382Y-119509089D01*
X125463382Y-119509087D01*
X125463384Y-119509085D01*
X125500900Y-119369075D01*
X125500900Y-119224125D01*
X125463384Y-119084115D01*
X125463382Y-119084112D01*
X125463382Y-119084110D01*
X125463381Y-119084108D01*
X125463290Y-119083768D01*
X125461797Y-119081364D01*
X125392385Y-118961139D01*
X125391205Y-118958947D01*
X125391017Y-118958694D01*
X125390910Y-118958587D01*
X125390909Y-118958585D01*
X125288415Y-118856091D01*
X125288412Y-118856089D01*
X125288410Y-118856087D01*
X125220174Y-118816691D01*
X125199141Y-118793331D01*
X125133297Y-118775687D01*
X125133296Y-118775687D01*
X125022875Y-118746100D01*
X125022873Y-118746100D01*
X124877923Y-118746100D01*
X124816188Y-118762641D01*
X124816187Y-118762640D01*
X124737912Y-118783615D01*
X124737906Y-118783618D01*
X124612393Y-118856083D01*
X124509883Y-118958593D01*
X124437416Y-119084110D01*
X124437139Y-119084844D01*
X124436592Y-119087187D01*
X124399900Y-119224125D01*
X124399900Y-119369075D01*
X124429487Y-119479496D01*
X124431503Y-119487018D01*
X124437417Y-119509091D01*
X124437418Y-119509092D01*
X124509886Y-119634610D01*
X124559818Y-119684543D01*
X124578023Y-119709600D01*
X124589109Y-119731357D01*
X124599900Y-119776303D01*
X124599900Y-126781529D01*
X124595054Y-126812122D01*
X124587507Y-126835349D01*
X124563357Y-126874760D01*
X123528700Y-127909417D01*
X123503643Y-127927621D01*
X123481885Y-127938708D01*
X123436938Y-127949500D01*
X123361323Y-127949500D01*
X123299588Y-127966041D01*
X123299587Y-127966040D01*
X123221312Y-127987015D01*
X123221306Y-127987018D01*
X123095793Y-128059483D01*
X122993283Y-128161993D01*
X122920818Y-128287505D01*
X122920817Y-128287510D01*
X122883300Y-128427525D01*
X122883300Y-128572474D01*
X122916385Y-128695949D01*
X122920818Y-128712493D01*
X122993285Y-128838008D01*
X122993287Y-128838010D01*
X122993289Y-128838012D01*
X122993291Y-128838015D01*
X123095785Y-128940509D01*
X123095787Y-128940510D01*
X123095894Y-128940617D01*
X123096145Y-128940803D01*
X123098338Y-128941984D01*
X123145823Y-128969399D01*
X123218557Y-129011392D01*
X123220970Y-129012890D01*
X123221308Y-129012980D01*
X123221311Y-129012982D01*
X123221312Y-129012982D01*
X123221315Y-129012984D01*
X123361325Y-129050500D01*
X123361326Y-129050500D01*
X123506274Y-129050500D01*
X123506275Y-129050500D01*
X123646285Y-129012984D01*
X123646286Y-129012983D01*
X123646288Y-129012982D01*
X123646289Y-129012982D01*
X123765680Y-128944051D01*
X123768568Y-128942648D01*
X123769354Y-128942131D01*
X123774363Y-128939037D01*
X123775662Y-128938286D01*
X123781020Y-128931303D01*
X123874309Y-128838015D01*
X123874312Y-128838010D01*
X123946782Y-128712489D01*
X123946782Y-128712487D01*
X123946784Y-128712485D01*
X123984300Y-128572475D01*
X123984300Y-128501869D01*
X123989144Y-128471280D01*
X123996691Y-128448049D01*
X124020840Y-128408640D01*
X124955212Y-127474268D01*
X124980264Y-127456067D01*
X124990015Y-127451099D01*
X125050445Y-127441530D01*
X125104961Y-127469309D01*
X125131218Y-127516188D01*
X125132562Y-127521783D01*
X125135300Y-127544906D01*
X125135300Y-129615887D01*
X125130454Y-129646480D01*
X125122907Y-129669707D01*
X125098763Y-129709111D01*
X125095298Y-129712575D01*
X125095292Y-129712582D01*
X125095288Y-129712588D01*
X125095282Y-129712596D01*
X125022818Y-129838105D01*
X125022817Y-129838110D01*
X124985300Y-129978125D01*
X124985300Y-130123074D01*
X125018385Y-130246549D01*
X125022818Y-130263093D01*
X125095285Y-130388608D01*
X125095287Y-130388610D01*
X125095289Y-130388612D01*
X125095291Y-130388615D01*
X125197785Y-130491109D01*
X125197787Y-130491110D01*
X125197894Y-130491217D01*
X125198145Y-130491403D01*
X125200346Y-130492588D01*
X125320557Y-130561992D01*
X125322972Y-130563492D01*
X125350765Y-130570939D01*
X125379054Y-130583533D01*
X125383660Y-130586524D01*
X125388606Y-130589736D01*
X125427115Y-130637282D01*
X125430323Y-130698383D01*
X125430322Y-130698387D01*
X125429061Y-130703094D01*
X125403437Y-130747479D01*
X114536498Y-141614417D01*
X114511441Y-141632621D01*
X114489683Y-141643708D01*
X114444736Y-141654500D01*
X113323938Y-141654500D01*
X113317975Y-141656021D01*
X113309069Y-141656978D01*
X113272520Y-141660907D01*
X113272514Y-141660908D01*
X113272514Y-141660909D01*
X113272506Y-141660912D01*
X113137671Y-141711200D01*
X113022456Y-141797451D01*
X113022454Y-141797453D01*
X113022451Y-141797456D01*
X113022450Y-141797458D01*
X113008176Y-141816526D01*
X112936200Y-141912671D01*
X112885912Y-142047504D01*
X112885908Y-142047520D01*
X112885908Y-142047521D01*
X112879500Y-142107132D01*
X100500000Y-142107132D01*
X100500000Y-121244525D01*
X122544400Y-121244525D01*
X122544400Y-121389475D01*
X122573987Y-121499896D01*
X122578565Y-121516982D01*
X122581917Y-121529491D01*
X122581918Y-121529492D01*
X122654385Y-121655008D01*
X122654387Y-121655010D01*
X122654389Y-121655012D01*
X122654391Y-121655015D01*
X122756885Y-121757509D01*
X122756887Y-121757510D01*
X122756994Y-121757617D01*
X122757245Y-121757803D01*
X122759438Y-121758984D01*
X122872007Y-121823975D01*
X122879657Y-121828392D01*
X122882070Y-121829890D01*
X122882408Y-121829980D01*
X122882411Y-121829982D01*
X122882412Y-121829982D01*
X122882415Y-121829984D01*
X123022425Y-121867500D01*
X123022426Y-121867500D01*
X123167374Y-121867500D01*
X123167375Y-121867500D01*
X123307385Y-121829984D01*
X123307386Y-121829983D01*
X123307388Y-121829982D01*
X123307389Y-121829982D01*
X123426780Y-121761051D01*
X123429668Y-121759648D01*
X123430454Y-121759131D01*
X123435463Y-121756037D01*
X123436762Y-121755286D01*
X123442120Y-121748303D01*
X123535409Y-121655015D01*
X123607884Y-121529485D01*
X123645400Y-121389475D01*
X123645400Y-121244525D01*
X123607884Y-121104515D01*
X123607882Y-121104512D01*
X123607882Y-121104510D01*
X123607881Y-121104508D01*
X123607790Y-121104168D01*
X123606297Y-121101764D01*
X123536885Y-120981539D01*
X123535705Y-120979347D01*
X123535517Y-120979094D01*
X123535410Y-120978987D01*
X123535409Y-120978985D01*
X123432915Y-120876491D01*
X123432912Y-120876489D01*
X123432910Y-120876487D01*
X123364674Y-120837091D01*
X123343641Y-120813731D01*
X123277797Y-120796087D01*
X123277796Y-120796087D01*
X123167375Y-120766500D01*
X123167373Y-120766500D01*
X123022423Y-120766500D01*
X122960688Y-120783041D01*
X122960687Y-120783040D01*
X122882412Y-120804015D01*
X122882406Y-120804018D01*
X122756893Y-120876483D01*
X122654383Y-120978993D01*
X122581916Y-121104510D01*
X122581639Y-121105244D01*
X122581349Y-121106483D01*
X122581356Y-121106580D01*
X122581203Y-121107174D01*
X122544400Y-121244525D01*
X100500000Y-121244525D01*
X100500000Y-115877965D01*
X110949500Y-115877965D01*
X110949500Y-116122033D01*
X110987675Y-116363066D01*
X111063096Y-116595185D01*
X111173891Y-116812636D01*
X111173894Y-116812640D01*
X111185600Y-116828753D01*
X111185601Y-116828753D01*
X111317345Y-117010083D01*
X111489917Y-117182655D01*
X111489920Y-117182657D01*
X111489922Y-117182659D01*
X111547554Y-117224530D01*
X111633367Y-117286876D01*
X111633368Y-117286878D01*
X111669231Y-117312933D01*
X111687362Y-117326107D01*
X111796088Y-117381505D01*
X111904815Y-117436904D01*
X112136822Y-117512288D01*
X112136923Y-117512321D01*
X112136926Y-117512321D01*
X112136928Y-117512322D01*
X112210328Y-117523947D01*
X112377967Y-117550500D01*
X112622030Y-117550500D01*
X112622032Y-117550500D01*
X112696080Y-117538771D01*
X112863071Y-117512322D01*
X112863071Y-117512321D01*
X112863073Y-117512321D01*
X112863076Y-117512321D01*
X112863079Y-117512320D01*
X112865655Y-117511912D01*
X112870462Y-117509920D01*
X113095185Y-117436904D01*
X113312639Y-117326106D01*
X113510083Y-117182655D01*
X113682655Y-117010083D01*
X113826106Y-116812639D01*
X113936904Y-116595185D01*
X114012321Y-116363076D01*
X114018827Y-116322000D01*
X114050500Y-116122030D01*
X114050500Y-115877969D01*
X114050499Y-115877965D01*
X114012323Y-115636934D01*
X114012322Y-115636928D01*
X114012321Y-115636924D01*
X113936904Y-115404815D01*
X113881505Y-115296088D01*
X113826107Y-115187362D01*
X113682656Y-114989919D01*
X113682655Y-114989917D01*
X113510083Y-114817345D01*
X113510079Y-114817342D01*
X113510077Y-114817340D01*
X113420624Y-114752348D01*
X113312640Y-114673894D01*
X113312639Y-114673893D01*
X113312637Y-114673892D01*
X113095185Y-114563096D01*
X112863066Y-114487675D01*
X112622033Y-114449500D01*
X112622030Y-114449500D01*
X112622027Y-114449500D01*
X112377973Y-114449500D01*
X112377970Y-114449500D01*
X112377967Y-114449500D01*
X112136932Y-114487675D01*
X111904813Y-114563096D01*
X111687363Y-114673890D01*
X111489919Y-114817343D01*
X111317343Y-114989919D01*
X111173890Y-115187363D01*
X111063096Y-115404813D01*
X110987675Y-115636932D01*
X110949500Y-115877965D01*
X100500000Y-115877965D01*
X100500000Y-103877965D01*
X110949500Y-103877965D01*
X110949500Y-104122033D01*
X110987675Y-104363066D01*
X111063096Y-104595185D01*
X111160886Y-104787112D01*
X111173892Y-104812637D01*
X111247835Y-104914410D01*
X111317340Y-105010077D01*
X111317342Y-105010079D01*
X111317345Y-105010083D01*
X111489917Y-105182655D01*
X111489920Y-105182657D01*
X111489922Y-105182659D01*
X111530424Y-105212085D01*
X111633367Y-105286876D01*
X111633368Y-105286878D01*
X111669231Y-105312933D01*
X111687362Y-105326107D01*
X111796088Y-105381505D01*
X111904815Y-105436904D01*
X112016179Y-105473088D01*
X112043777Y-105487150D01*
X112054568Y-105494990D01*
X112090532Y-105544490D01*
X112094654Y-105557176D01*
X112099500Y-105587769D01*
X112099500Y-109334819D01*
X112094654Y-109365412D01*
X112090532Y-109378098D01*
X112054580Y-109427589D01*
X112050459Y-109430584D01*
X111992271Y-109449500D01*
X111175322Y-109449500D01*
X111175318Y-109449500D01*
X111175315Y-109449501D01*
X111139039Y-109456717D01*
X111102261Y-109464033D01*
X111102256Y-109464035D01*
X111019403Y-109519394D01*
X111019394Y-109519403D01*
X110964035Y-109602256D01*
X110964033Y-109602261D01*
X110949500Y-109675320D01*
X110949500Y-112324678D01*
X110964033Y-112397737D01*
X110964035Y-112397742D01*
X110989474Y-112435816D01*
X111019397Y-112480599D01*
X111019399Y-112480601D01*
X111019402Y-112480603D01*
X111019404Y-112480605D01*
X111102260Y-112535966D01*
X111157807Y-112547015D01*
X111157808Y-112547015D01*
X111169240Y-112549289D01*
X111171405Y-112549863D01*
X111173579Y-112550216D01*
X111175152Y-112550500D01*
X111175326Y-112550500D01*
X111175327Y-112550500D01*
X113824673Y-112550500D01*
X113824674Y-112550500D01*
X113897740Y-112535966D01*
X113980601Y-112480601D01*
X114035966Y-112397740D01*
X114050500Y-112324674D01*
X114050500Y-109675326D01*
X114035966Y-109602260D01*
X113980601Y-109519399D01*
X113980599Y-109519397D01*
X113980595Y-109519394D01*
X113980593Y-109519392D01*
X113897748Y-109464038D01*
X113897737Y-109464032D01*
X113897534Y-109463964D01*
X113895997Y-109463687D01*
X113824694Y-109449503D01*
X113824684Y-109449501D01*
X113824679Y-109449500D01*
X113824676Y-109449500D01*
X113824674Y-109449500D01*
X113824673Y-109449500D01*
X113015180Y-109449500D01*
X112984587Y-109444654D01*
X112971901Y-109440532D01*
X112922401Y-109404568D01*
X112922394Y-109404558D01*
X112919400Y-109400436D01*
X112900500Y-109342256D01*
X112900500Y-105587769D01*
X112905345Y-105557178D01*
X112909467Y-105544491D01*
X112945428Y-105494991D01*
X112956223Y-105487148D01*
X112983816Y-105473089D01*
X113095185Y-105436904D01*
X113312639Y-105326106D01*
X113510083Y-105182655D01*
X113682655Y-105010083D01*
X113826106Y-104812639D01*
X113936904Y-104595185D01*
X114012321Y-104363076D01*
X114024115Y-104288615D01*
X114050500Y-104122032D01*
X114050500Y-103877966D01*
X114023023Y-103704489D01*
X114012322Y-103636928D01*
X114004414Y-103612589D01*
X113936904Y-103404815D01*
X113873056Y-103279505D01*
X113826107Y-103187362D01*
X113748710Y-103080834D01*
X113682655Y-102989917D01*
X113510083Y-102817345D01*
X113510079Y-102817342D01*
X113510077Y-102817340D01*
X113420624Y-102752348D01*
X113312640Y-102673894D01*
X113312639Y-102673893D01*
X113312637Y-102673892D01*
X113095185Y-102563096D01*
X113039529Y-102545012D01*
X112863066Y-102487675D01*
X112622033Y-102449500D01*
X112622030Y-102449500D01*
X112622027Y-102449500D01*
X112377973Y-102449500D01*
X112377970Y-102449500D01*
X112377967Y-102449500D01*
X112136932Y-102487675D01*
X111904813Y-102563096D01*
X111687363Y-102673890D01*
X111489919Y-102817343D01*
X111317343Y-102989919D01*
X111173890Y-103187363D01*
X111063096Y-103404813D01*
X110987675Y-103636932D01*
X110949500Y-103877965D01*
X100500000Y-103877965D01*
X100500000Y-91877965D01*
X110949500Y-91877965D01*
X110949500Y-92122033D01*
X110987675Y-92363066D01*
X111063096Y-92595185D01*
X111107941Y-92683200D01*
X111173894Y-92812640D01*
X111252347Y-92920623D01*
X111317340Y-93010077D01*
X111317342Y-93010079D01*
X111317345Y-93010083D01*
X111489917Y-93182655D01*
X111489920Y-93182657D01*
X111489922Y-93182659D01*
X111547554Y-93224530D01*
X111633367Y-93286876D01*
X111633368Y-93286878D01*
X111669231Y-93312933D01*
X111687362Y-93326107D01*
X111796088Y-93381505D01*
X111904815Y-93436904D01*
X112016179Y-93473088D01*
X112043777Y-93487150D01*
X112054568Y-93494990D01*
X112090532Y-93544490D01*
X112094654Y-93557176D01*
X112099500Y-93587769D01*
X112099500Y-97334819D01*
X112094654Y-97365412D01*
X112090532Y-97378098D01*
X112054580Y-97427589D01*
X112050459Y-97430584D01*
X111992271Y-97449500D01*
X111175322Y-97449500D01*
X111175318Y-97449500D01*
X111175315Y-97449501D01*
X111139039Y-97456717D01*
X111102261Y-97464033D01*
X111102256Y-97464035D01*
X111019403Y-97519394D01*
X111019394Y-97519403D01*
X110964035Y-97602256D01*
X110964033Y-97602261D01*
X110949500Y-97675320D01*
X110949500Y-100324678D01*
X110964033Y-100397737D01*
X110964035Y-100397742D01*
X110991804Y-100439303D01*
X111019397Y-100480599D01*
X111019400Y-100480602D01*
X111079276Y-100520609D01*
X111102260Y-100535966D01*
X111139292Y-100543332D01*
X111157807Y-100547015D01*
X111157808Y-100547015D01*
X111169240Y-100549289D01*
X111171405Y-100549863D01*
X111173579Y-100550216D01*
X111175152Y-100550500D01*
X111175326Y-100550500D01*
X111175327Y-100550500D01*
X113824673Y-100550500D01*
X113824674Y-100550500D01*
X113897740Y-100535966D01*
X113980601Y-100480601D01*
X114035966Y-100397740D01*
X114050500Y-100324674D01*
X114050500Y-97675326D01*
X114038105Y-97613013D01*
X114035966Y-97602259D01*
X114023463Y-97583547D01*
X113980606Y-97519405D01*
X113980604Y-97519403D01*
X113980602Y-97519400D01*
X113980599Y-97519397D01*
X113980595Y-97519394D01*
X113980593Y-97519392D01*
X113897748Y-97464038D01*
X113897737Y-97464032D01*
X113897534Y-97463964D01*
X113895997Y-97463687D01*
X113824694Y-97449503D01*
X113824684Y-97449501D01*
X113824679Y-97449500D01*
X113824676Y-97449500D01*
X113824674Y-97449500D01*
X113824673Y-97449500D01*
X113015180Y-97449500D01*
X112984587Y-97444654D01*
X112971901Y-97440532D01*
X112922401Y-97404568D01*
X112922394Y-97404558D01*
X112919400Y-97400436D01*
X112900500Y-97342256D01*
X112900500Y-93587769D01*
X112905345Y-93557178D01*
X112909467Y-93544491D01*
X112945428Y-93494991D01*
X112956223Y-93487148D01*
X112983816Y-93473089D01*
X113095185Y-93436904D01*
X113312639Y-93326106D01*
X113510083Y-93182655D01*
X113682655Y-93010083D01*
X113826106Y-92812639D01*
X113936904Y-92595185D01*
X114012321Y-92363076D01*
X114012323Y-92363066D01*
X114050500Y-92122030D01*
X114050500Y-91877966D01*
X114012323Y-91636932D01*
X114004519Y-91612915D01*
X113961593Y-91480800D01*
X113936904Y-91404815D01*
X113870200Y-91273900D01*
X113826107Y-91187362D01*
X113826105Y-91187358D01*
X113774639Y-91116521D01*
X113774639Y-91116520D01*
X113682659Y-90989922D01*
X113682656Y-90989919D01*
X113682655Y-90989917D01*
X113510083Y-90817345D01*
X113340855Y-90694394D01*
X113312637Y-90673892D01*
X113095185Y-90563096D01*
X113095184Y-90563095D01*
X113095181Y-90563094D01*
X113095178Y-90563092D01*
X113084090Y-90559490D01*
X113035463Y-90543689D01*
X113035457Y-90543689D01*
X112896309Y-90498477D01*
X112896306Y-90498476D01*
X112863071Y-90487677D01*
X112863069Y-90487676D01*
X112863064Y-90487675D01*
X112646783Y-90453420D01*
X120900000Y-90453420D01*
X120900000Y-90626578D01*
X120927082Y-90797574D01*
X120980588Y-90962248D01*
X121059194Y-91116522D01*
X121059195Y-91116524D01*
X121093462Y-91163690D01*
X121093463Y-91163691D01*
X121512419Y-90744733D01*
X121566936Y-90716956D01*
X121627368Y-90726527D01*
X121668158Y-90765235D01*
X121679918Y-90785603D01*
X121679920Y-90785606D01*
X121754394Y-90860080D01*
X121754396Y-90860081D01*
X121774759Y-90871838D01*
X121815700Y-90917307D01*
X121822096Y-90978158D01*
X121795263Y-91027577D01*
X121376307Y-91446534D01*
X121376307Y-91446535D01*
X121423476Y-91480804D01*
X121577751Y-91559411D01*
X121742420Y-91612915D01*
X121742421Y-91612915D01*
X121742424Y-91612916D01*
X121913422Y-91640000D01*
X122086575Y-91640000D01*
X122086578Y-91640000D01*
X122257574Y-91612916D01*
X122257575Y-91612915D01*
X122257579Y-91612915D01*
X122422248Y-91559411D01*
X122576524Y-91480804D01*
X122576530Y-91480800D01*
X122623691Y-91446535D01*
X122204733Y-91027577D01*
X122176957Y-90973061D01*
X122186528Y-90912629D01*
X122225237Y-90871839D01*
X122245606Y-90860080D01*
X122320080Y-90785606D01*
X122331839Y-90765238D01*
X122377303Y-90724299D01*
X122438153Y-90717900D01*
X122487578Y-90744734D01*
X122906535Y-91163691D01*
X122940800Y-91116530D01*
X122940804Y-91116524D01*
X123019411Y-90962248D01*
X123072915Y-90797579D01*
X123074353Y-90788500D01*
X123100000Y-90626577D01*
X123100000Y-90453421D01*
X123100000Y-90453420D01*
X128520000Y-90453420D01*
X128520000Y-90626578D01*
X128547082Y-90797574D01*
X128600588Y-90962248D01*
X128679194Y-91116522D01*
X128679195Y-91116524D01*
X128713462Y-91163690D01*
X128713463Y-91163691D01*
X129132419Y-90744733D01*
X129186936Y-90716956D01*
X129247368Y-90726527D01*
X129288158Y-90765235D01*
X129299918Y-90785603D01*
X129299920Y-90785606D01*
X129374394Y-90860080D01*
X129374396Y-90860081D01*
X129394759Y-90871838D01*
X129435700Y-90917307D01*
X129442096Y-90978158D01*
X129415263Y-91027577D01*
X128996307Y-91446534D01*
X128996307Y-91446535D01*
X129043476Y-91480804D01*
X129197751Y-91559411D01*
X129362420Y-91612915D01*
X129362421Y-91612915D01*
X129362424Y-91612916D01*
X129533422Y-91640000D01*
X129706575Y-91640000D01*
X129706578Y-91640000D01*
X129877574Y-91612916D01*
X129877575Y-91612915D01*
X129877579Y-91612915D01*
X130042248Y-91559411D01*
X130196524Y-91480804D01*
X130196530Y-91480800D01*
X130243691Y-91446535D01*
X129824733Y-91027577D01*
X129796957Y-90973061D01*
X129806528Y-90912629D01*
X129845237Y-90871839D01*
X129865606Y-90860080D01*
X129940080Y-90785606D01*
X129951839Y-90765238D01*
X129997303Y-90724299D01*
X130058153Y-90717900D01*
X130107578Y-90744734D01*
X130526535Y-91163691D01*
X130560800Y-91116530D01*
X130560804Y-91116524D01*
X130639411Y-90962248D01*
X130692915Y-90797579D01*
X130694353Y-90788500D01*
X130720000Y-90626577D01*
X130720000Y-90453421D01*
X130692916Y-90282424D01*
X130692915Y-90282420D01*
X130639411Y-90117751D01*
X130560804Y-89963476D01*
X130560798Y-89963468D01*
X130526535Y-89916307D01*
X130526534Y-89916307D01*
X130107577Y-90335263D01*
X130053061Y-90363040D01*
X129992629Y-90353469D01*
X129951838Y-90314759D01*
X129940081Y-90294396D01*
X129940080Y-90294394D01*
X129865606Y-90219920D01*
X129865603Y-90219918D01*
X129845235Y-90208158D01*
X129804295Y-90162688D01*
X129797901Y-90101837D01*
X129824734Y-90052419D01*
X129977168Y-89899985D01*
X130243691Y-89633463D01*
X130196528Y-89599198D01*
X130196527Y-89599197D01*
X130196524Y-89599195D01*
X130196522Y-89599194D01*
X130042248Y-89520588D01*
X129877574Y-89467082D01*
X129706578Y-89440000D01*
X129706575Y-89440000D01*
X129533425Y-89440000D01*
X129533422Y-89440000D01*
X129362424Y-89467082D01*
X129197750Y-89520588D01*
X129043468Y-89599198D01*
X128996307Y-89633462D01*
X128996307Y-89633463D01*
X129415266Y-90052422D01*
X129443042Y-90106937D01*
X129433471Y-90167369D01*
X129394763Y-90208159D01*
X129374396Y-90219918D01*
X129299918Y-90294396D01*
X129288159Y-90314763D01*
X129242688Y-90355703D01*
X129181838Y-90362097D01*
X129132422Y-90335266D01*
X128713463Y-89916307D01*
X128713462Y-89916307D01*
X128679198Y-89963468D01*
X128600588Y-90117750D01*
X128547082Y-90282424D01*
X128520000Y-90453420D01*
X123100000Y-90453420D01*
X123072916Y-90282424D01*
X123072915Y-90282420D01*
X123019411Y-90117751D01*
X122940804Y-89963476D01*
X122940798Y-89963468D01*
X122906535Y-89916307D01*
X122906534Y-89916307D01*
X122487577Y-90335263D01*
X122433061Y-90363040D01*
X122372629Y-90353469D01*
X122331838Y-90314759D01*
X122320081Y-90294396D01*
X122320080Y-90294394D01*
X122245606Y-90219920D01*
X122245603Y-90219918D01*
X122225235Y-90208158D01*
X122184295Y-90162688D01*
X122177901Y-90101837D01*
X122204734Y-90052419D01*
X122357168Y-89899985D01*
X122623691Y-89633463D01*
X122576528Y-89599198D01*
X122576527Y-89599197D01*
X122576524Y-89599195D01*
X122576522Y-89599194D01*
X122422248Y-89520588D01*
X122257574Y-89467082D01*
X122086578Y-89440000D01*
X122086575Y-89440000D01*
X121913425Y-89440000D01*
X121913422Y-89440000D01*
X121742424Y-89467082D01*
X121577750Y-89520588D01*
X121423468Y-89599198D01*
X121376307Y-89633462D01*
X121376307Y-89633463D01*
X121795266Y-90052422D01*
X121823042Y-90106937D01*
X121813471Y-90167369D01*
X121774763Y-90208159D01*
X121754396Y-90219918D01*
X121679918Y-90294396D01*
X121668159Y-90314763D01*
X121622688Y-90355703D01*
X121561838Y-90362097D01*
X121512422Y-90335266D01*
X121093463Y-89916307D01*
X121093462Y-89916307D01*
X121059198Y-89963468D01*
X120980588Y-90117750D01*
X120927082Y-90282424D01*
X120900000Y-90453420D01*
X112646783Y-90453420D01*
X112622033Y-90449500D01*
X112622030Y-90449500D01*
X112622027Y-90449500D01*
X112377973Y-90449500D01*
X112377970Y-90449500D01*
X112377967Y-90449500D01*
X112136932Y-90487675D01*
X111904813Y-90563096D01*
X111687363Y-90673890D01*
X111489919Y-90817343D01*
X111317343Y-90989919D01*
X111173890Y-91187363D01*
X111063096Y-91404813D01*
X110987675Y-91636932D01*
X110949500Y-91877965D01*
X100500000Y-91877965D01*
X100500000Y-85675320D01*
X110949500Y-85675320D01*
X110949500Y-88324678D01*
X110949500Y-88324682D01*
X110949501Y-88324684D01*
X110964033Y-88397736D01*
X110964035Y-88397742D01*
X111019397Y-88480599D01*
X111019400Y-88480602D01*
X111044835Y-88497596D01*
X111044836Y-88497598D01*
X111102260Y-88535966D01*
X111157807Y-88547015D01*
X111157808Y-88547015D01*
X111169240Y-88549289D01*
X111171405Y-88549863D01*
X111173579Y-88550216D01*
X111175152Y-88550500D01*
X111175326Y-88550500D01*
X111175327Y-88550500D01*
X113824673Y-88550500D01*
X113824674Y-88550500D01*
X113897740Y-88535966D01*
X113980601Y-88480601D01*
X114035966Y-88397740D01*
X114050500Y-88324674D01*
X114050500Y-87402132D01*
X120949500Y-87402132D01*
X120949500Y-88597920D01*
X120949584Y-88598648D01*
X120954281Y-88642349D01*
X120955908Y-88657480D01*
X120955909Y-88657485D01*
X120955912Y-88657492D01*
X121006200Y-88792327D01*
X121092449Y-88907541D01*
X121092522Y-88907633D01*
X121092799Y-88907879D01*
X121094588Y-88909144D01*
X121179142Y-88972441D01*
X121207668Y-88993796D01*
X121207669Y-88993796D01*
X121207670Y-88993797D01*
X121341544Y-89043728D01*
X121342985Y-89044285D01*
X121344247Y-89044466D01*
X121347767Y-89044655D01*
X121402127Y-89050500D01*
X122597872Y-89050499D01*
X122657483Y-89044091D01*
X122748537Y-89010130D01*
X122776401Y-88999737D01*
X122790692Y-88994408D01*
X122794020Y-88993233D01*
X122797583Y-88992046D01*
X122805167Y-88984186D01*
X122907546Y-88907546D01*
X122993796Y-88792331D01*
X122993798Y-88792327D01*
X123039551Y-88669655D01*
X123044091Y-88657483D01*
X123050500Y-88597873D01*
X123050499Y-87896529D01*
X128569500Y-87896529D01*
X128569500Y-88103469D01*
X128609869Y-88306417D01*
X128609869Y-88306419D01*
X128689056Y-88497594D01*
X128756054Y-88597865D01*
X128804022Y-88669654D01*
X128804030Y-88669663D01*
X128926695Y-88792327D01*
X128950345Y-88815977D01*
X129122402Y-88930941D01*
X129313580Y-89010130D01*
X129516535Y-89050500D01*
X129516536Y-89050500D01*
X129723464Y-89050500D01*
X129723465Y-89050500D01*
X129926420Y-89010130D01*
X130117598Y-88930941D01*
X130289655Y-88815977D01*
X130435977Y-88669655D01*
X130550941Y-88497598D01*
X130630130Y-88306420D01*
X130670500Y-88103465D01*
X130670500Y-87896535D01*
X130630130Y-87693580D01*
X130550941Y-87502402D01*
X130435977Y-87330345D01*
X130393147Y-87287515D01*
X130289656Y-87184023D01*
X130289657Y-87184023D01*
X130256674Y-87161986D01*
X130256675Y-87161986D01*
X130256673Y-87161985D01*
X130117597Y-87069058D01*
X130117592Y-87069056D01*
X129926418Y-86989869D01*
X129723469Y-86949500D01*
X129723467Y-86949500D01*
X129723465Y-86949500D01*
X129516535Y-86949500D01*
X129516532Y-86949500D01*
X129516529Y-86949500D01*
X129313581Y-86989869D01*
X129313579Y-86989869D01*
X129122404Y-87069056D01*
X128950351Y-87184017D01*
X128804017Y-87330351D01*
X128689056Y-87502404D01*
X128609869Y-87693579D01*
X128609869Y-87693581D01*
X128569500Y-87896529D01*
X123050499Y-87896529D01*
X123050499Y-87402128D01*
X123044091Y-87342517D01*
X123023577Y-87287515D01*
X122993797Y-87207670D01*
X122909144Y-87094588D01*
X122907879Y-87092799D01*
X122907636Y-87092526D01*
X122907546Y-87092454D01*
X122907541Y-87092450D01*
X122902719Y-87088840D01*
X122881134Y-87066628D01*
X122868582Y-87048821D01*
X122850500Y-86991783D01*
X122850500Y-86165179D01*
X122855343Y-86134593D01*
X122859465Y-86121904D01*
X122895423Y-86072405D01*
X122896022Y-86071970D01*
X122899563Y-86069399D01*
X122957743Y-86050499D01*
X123097867Y-86050499D01*
X123097872Y-86050499D01*
X123157483Y-86044091D01*
X123224907Y-86018943D01*
X123224910Y-86018942D01*
X123290697Y-85994406D01*
X123294030Y-85993230D01*
X123297582Y-85992047D01*
X123305167Y-85984186D01*
X123407546Y-85907546D01*
X123493796Y-85792331D01*
X123493798Y-85792327D01*
X123544089Y-85657488D01*
X123544090Y-85657485D01*
X123544091Y-85657483D01*
X123550500Y-85597873D01*
X123550499Y-84402128D01*
X123544091Y-84342517D01*
X123542412Y-84338015D01*
X123542411Y-84338011D01*
X123493798Y-84207671D01*
X123471998Y-84178551D01*
X123409156Y-84094605D01*
X123407807Y-84092696D01*
X123407637Y-84092522D01*
X123313400Y-84021976D01*
X123313399Y-84021974D01*
X123292326Y-84006200D01*
X123292327Y-84006200D01*
X123162428Y-83957752D01*
X123158939Y-83956234D01*
X123158025Y-83955996D01*
X123155927Y-83955540D01*
X123152206Y-83955341D01*
X123135312Y-83953524D01*
X123126249Y-83952550D01*
X123126248Y-83952549D01*
X123097876Y-83949500D01*
X123097873Y-83949500D01*
X123097870Y-83949500D01*
X121902133Y-83949500D01*
X121902129Y-83949500D01*
X121893938Y-83949500D01*
X121887975Y-83951021D01*
X121879069Y-83951978D01*
X121842520Y-83955907D01*
X121842514Y-83955908D01*
X121842514Y-83955909D01*
X121842506Y-83955912D01*
X121707671Y-84006200D01*
X121592456Y-84092451D01*
X121592454Y-84092453D01*
X121592451Y-84092456D01*
X121592450Y-84092458D01*
X121577758Y-84112082D01*
X121506200Y-84207671D01*
X121455912Y-84342504D01*
X121455908Y-84342520D01*
X121455908Y-84342521D01*
X121449500Y-84402132D01*
X121449500Y-85598401D01*
X121449782Y-85600491D01*
X121449968Y-85602214D01*
X121449970Y-85602260D01*
X121449973Y-85602260D01*
X121455907Y-85657478D01*
X121455908Y-85657480D01*
X121455909Y-85657485D01*
X121455912Y-85657492D01*
X121506200Y-85792327D01*
X121506203Y-85792331D01*
X121558721Y-85862485D01*
X121592522Y-85907637D01*
X121592695Y-85907806D01*
X121594588Y-85909144D01*
X121679142Y-85972441D01*
X121707668Y-85993796D01*
X121707669Y-85993796D01*
X121707670Y-85993797D01*
X121841544Y-86043728D01*
X121842985Y-86044285D01*
X121844247Y-86044466D01*
X121847767Y-86044655D01*
X121902127Y-86050500D01*
X122034817Y-86050499D01*
X122065404Y-86055342D01*
X122071183Y-86057219D01*
X122078091Y-86059463D01*
X122127592Y-86095423D01*
X122130588Y-86099546D01*
X122149500Y-86157736D01*
X122149500Y-86834819D01*
X122144654Y-86865412D01*
X122140532Y-86878098D01*
X122104580Y-86927589D01*
X122100459Y-86930584D01*
X122042271Y-86949500D01*
X121393938Y-86949500D01*
X121387975Y-86951021D01*
X121379069Y-86951978D01*
X121342520Y-86955907D01*
X121342506Y-86955912D01*
X121207671Y-87006200D01*
X121092456Y-87092451D01*
X121092454Y-87092453D01*
X121006200Y-87207671D01*
X120955912Y-87342504D01*
X120955908Y-87342520D01*
X120955908Y-87342521D01*
X120949500Y-87402132D01*
X114050500Y-87402132D01*
X114050500Y-85675326D01*
X114035966Y-85602260D01*
X113980601Y-85519399D01*
X113980599Y-85519397D01*
X113980595Y-85519394D01*
X113980593Y-85519392D01*
X113897748Y-85464038D01*
X113897737Y-85464032D01*
X113897534Y-85463964D01*
X113895997Y-85463687D01*
X113824694Y-85449503D01*
X113824684Y-85449501D01*
X113824679Y-85449500D01*
X113824676Y-85449500D01*
X113824674Y-85449500D01*
X111175326Y-85449500D01*
X111175325Y-85449500D01*
X111175322Y-85449500D01*
X111175318Y-85449500D01*
X111175315Y-85449501D01*
X111139039Y-85456717D01*
X111102261Y-85464033D01*
X111102256Y-85464035D01*
X111019403Y-85519394D01*
X111019394Y-85519403D01*
X110964035Y-85602256D01*
X110964035Y-85602257D01*
X110964033Y-85602263D01*
X110949690Y-85674360D01*
X110949500Y-85675320D01*
X100500000Y-85675320D01*
X100500000Y-76874069D01*
X110900000Y-76874069D01*
X110900000Y-77125929D01*
X110939393Y-77374658D01*
X110998932Y-77557900D01*
X111017221Y-77614187D01*
X111131556Y-77838582D01*
X111131560Y-77838588D01*
X111131562Y-77838591D01*
X111131566Y-77838597D01*
X111235502Y-77981651D01*
X111235503Y-77981652D01*
X111796735Y-77420418D01*
X111851252Y-77392641D01*
X111911684Y-77402212D01*
X111949053Y-77435418D01*
X111956271Y-77446220D01*
X111956274Y-77446224D01*
X112053776Y-77543726D01*
X112053779Y-77543728D01*
X112064574Y-77550941D01*
X112102454Y-77598991D01*
X112104856Y-77660129D01*
X112079577Y-77703260D01*
X111518346Y-78264493D01*
X111518346Y-78264495D01*
X111659544Y-78367083D01*
X111661411Y-78368439D01*
X111661417Y-78368443D01*
X111885812Y-78482778D01*
X112125336Y-78560604D01*
X112125337Y-78560604D01*
X112125340Y-78560605D01*
X112374071Y-78600000D01*
X112625926Y-78600000D01*
X112625929Y-78600000D01*
X112874658Y-78560605D01*
X112874659Y-78560604D01*
X112874663Y-78560604D01*
X113114187Y-78482778D01*
X113338582Y-78368443D01*
X113338587Y-78368439D01*
X113338597Y-78368431D01*
X113339142Y-78368081D01*
X113340403Y-78367119D01*
X113481652Y-78264495D01*
X113481652Y-78264494D01*
X112920420Y-77703262D01*
X112892643Y-77648745D01*
X112902214Y-77588313D01*
X112935427Y-77550940D01*
X112946224Y-77543726D01*
X113043726Y-77446224D01*
X113050940Y-77435426D01*
X113098988Y-77397545D01*
X113160126Y-77395140D01*
X113203262Y-77420420D01*
X113764494Y-77981652D01*
X113764495Y-77981652D01*
X113867119Y-77840403D01*
X113868081Y-77839142D01*
X113868436Y-77838591D01*
X113868439Y-77838587D01*
X113868443Y-77838582D01*
X113982778Y-77614187D01*
X114060604Y-77374663D01*
X114073472Y-77293424D01*
X114073473Y-77293420D01*
X121400000Y-77293420D01*
X121400000Y-77466578D01*
X121427082Y-77637574D01*
X121480588Y-77802248D01*
X121499100Y-77838581D01*
X121559197Y-77956527D01*
X121593462Y-78003690D01*
X121593463Y-78003691D01*
X122012419Y-77584733D01*
X122066936Y-77556956D01*
X122127368Y-77566527D01*
X122168158Y-77605235D01*
X122179918Y-77625603D01*
X122179920Y-77625606D01*
X122254394Y-77700080D01*
X122254396Y-77700081D01*
X122274759Y-77711838D01*
X122315700Y-77757307D01*
X122322096Y-77818158D01*
X122295263Y-77867577D01*
X121876307Y-78286534D01*
X121876307Y-78286535D01*
X121923476Y-78320804D01*
X122077751Y-78399411D01*
X122242420Y-78452915D01*
X122242421Y-78452915D01*
X122242424Y-78452916D01*
X122413422Y-78480000D01*
X122586575Y-78480000D01*
X122586578Y-78480000D01*
X122757574Y-78452916D01*
X122757575Y-78452915D01*
X122757579Y-78452915D01*
X122922248Y-78399411D01*
X123076524Y-78320804D01*
X123076530Y-78320800D01*
X123123691Y-78286535D01*
X122704733Y-77867577D01*
X122676957Y-77813061D01*
X122686528Y-77752629D01*
X122725237Y-77711839D01*
X122745606Y-77700080D01*
X122820080Y-77625606D01*
X122831839Y-77605238D01*
X122877303Y-77564299D01*
X122938153Y-77557900D01*
X122987578Y-77584734D01*
X123406535Y-78003691D01*
X123440800Y-77956530D01*
X123440804Y-77956524D01*
X123519411Y-77802248D01*
X123572915Y-77637579D01*
X123572916Y-77637574D01*
X123600000Y-77466577D01*
X123600000Y-77293421D01*
X123572916Y-77122424D01*
X123572915Y-77122420D01*
X123519411Y-76957751D01*
X123440804Y-76803476D01*
X123440798Y-76803468D01*
X123406535Y-76756307D01*
X123406534Y-76756307D01*
X122987577Y-77175263D01*
X122933061Y-77203040D01*
X122872629Y-77193469D01*
X122831838Y-77154759D01*
X122820081Y-77134396D01*
X122820080Y-77134394D01*
X122745606Y-77059920D01*
X122745603Y-77059918D01*
X122725235Y-77048158D01*
X122684295Y-77002688D01*
X122677901Y-76941837D01*
X122704734Y-76892419D01*
X122840846Y-76756307D01*
X123123691Y-76473463D01*
X123123690Y-76473462D01*
X123076527Y-76439197D01*
X123076524Y-76439195D01*
X123076522Y-76439194D01*
X122922248Y-76360588D01*
X122858466Y-76339864D01*
X122757574Y-76307082D01*
X122586578Y-76280000D01*
X122586575Y-76280000D01*
X122413425Y-76280000D01*
X122413422Y-76280000D01*
X122242424Y-76307082D01*
X122077750Y-76360588D01*
X121923468Y-76439198D01*
X121876307Y-76473462D01*
X121876307Y-76473463D01*
X122295266Y-76892422D01*
X122323042Y-76946937D01*
X122313471Y-77007369D01*
X122274763Y-77048159D01*
X122254396Y-77059918D01*
X122179918Y-77134396D01*
X122168159Y-77154763D01*
X122122688Y-77195703D01*
X122061838Y-77202097D01*
X122012422Y-77175266D01*
X121593463Y-76756307D01*
X121593462Y-76756307D01*
X121559198Y-76803468D01*
X121480588Y-76957750D01*
X121427082Y-77122424D01*
X121400000Y-77293420D01*
X114073473Y-77293420D01*
X114076540Y-77274051D01*
X114076541Y-77274042D01*
X114100000Y-77125929D01*
X114100000Y-76874069D01*
X114073735Y-76708247D01*
X114060603Y-76625334D01*
X114033458Y-76541787D01*
X113982778Y-76385812D01*
X113868443Y-76161417D01*
X113868439Y-76161411D01*
X113868432Y-76161401D01*
X113764496Y-76018346D01*
X113764495Y-76018346D01*
X113764494Y-76018346D01*
X113764493Y-76018346D01*
X113203260Y-76579577D01*
X113148744Y-76607354D01*
X113088312Y-76597783D01*
X113050941Y-76564574D01*
X113043728Y-76553779D01*
X113043726Y-76553776D01*
X112946224Y-76456274D01*
X112946220Y-76456271D01*
X112935418Y-76449053D01*
X112897540Y-76401002D01*
X112895140Y-76339864D01*
X112920419Y-76296735D01*
X113055753Y-76161401D01*
X113481652Y-75735503D01*
X113481651Y-75735502D01*
X113338597Y-75631566D01*
X113338591Y-75631562D01*
X113338585Y-75631558D01*
X113338582Y-75631556D01*
X113114187Y-75517221D01*
X112874658Y-75439393D01*
X112625929Y-75400000D01*
X112625926Y-75400000D01*
X112374074Y-75400000D01*
X112374071Y-75400000D01*
X112125339Y-75439394D01*
X111885811Y-75517221D01*
X111661419Y-75631554D01*
X111661413Y-75631558D01*
X111518347Y-75735503D01*
X111518347Y-75735504D01*
X112079579Y-76296736D01*
X112107356Y-76351253D01*
X112097785Y-76411685D01*
X112064582Y-76449052D01*
X112053780Y-76456270D01*
X111956270Y-76553780D01*
X111949052Y-76564582D01*
X111900999Y-76602458D01*
X111839860Y-76604856D01*
X111796736Y-76579579D01*
X111235504Y-76018347D01*
X111235503Y-76018347D01*
X111131558Y-76161413D01*
X111131554Y-76161419D01*
X111017221Y-76385811D01*
X110939393Y-76625340D01*
X110900000Y-76874069D01*
X100500000Y-76874069D01*
X100500000Y-70675320D01*
X110949500Y-70675320D01*
X110949500Y-73324678D01*
X110949500Y-73324682D01*
X110949501Y-73324684D01*
X110964033Y-73397736D01*
X110964035Y-73397742D01*
X111019397Y-73480599D01*
X111019399Y-73480601D01*
X111019402Y-73480603D01*
X111019404Y-73480605D01*
X111102260Y-73535966D01*
X111157807Y-73547015D01*
X111157808Y-73547015D01*
X111169240Y-73549289D01*
X111171405Y-73549863D01*
X111173579Y-73550216D01*
X111175152Y-73550500D01*
X111175326Y-73550500D01*
X111175327Y-73550500D01*
X113824673Y-73550500D01*
X113824674Y-73550500D01*
X113897740Y-73535966D01*
X113980601Y-73480601D01*
X114035966Y-73397740D01*
X114050500Y-73324674D01*
X114050500Y-70675326D01*
X114035966Y-70602260D01*
X113980601Y-70519399D01*
X113980599Y-70519397D01*
X113980595Y-70519394D01*
X113980593Y-70519392D01*
X113897748Y-70464038D01*
X113897737Y-70464032D01*
X113897534Y-70463964D01*
X113895997Y-70463687D01*
X113824694Y-70449503D01*
X113824684Y-70449501D01*
X113824679Y-70449500D01*
X113824676Y-70449500D01*
X113824674Y-70449500D01*
X111175326Y-70449500D01*
X111175325Y-70449500D01*
X111175322Y-70449500D01*
X111175318Y-70449500D01*
X111175315Y-70449501D01*
X111139039Y-70456717D01*
X111102261Y-70464033D01*
X111102256Y-70464035D01*
X111019403Y-70519394D01*
X111019394Y-70519403D01*
X110964035Y-70602256D01*
X110964033Y-70602261D01*
X110949500Y-70675320D01*
X100500000Y-70675320D01*
X100500000Y-63882642D01*
X102209500Y-63882642D01*
X102209500Y-64117356D01*
X102240136Y-64350059D01*
X102300881Y-64576767D01*
X102300901Y-64576825D01*
X102301104Y-64577305D01*
X102390698Y-64793607D01*
X102390701Y-64793612D01*
X102508061Y-64996886D01*
X102650936Y-65183085D01*
X102650938Y-65183087D01*
X102650942Y-65183092D01*
X102816908Y-65349058D01*
X102816912Y-65349061D01*
X102816917Y-65349066D01*
X102816939Y-65349085D01*
X102817313Y-65349369D01*
X103003113Y-65491938D01*
X103003117Y-65491941D01*
X103203654Y-65607720D01*
X103205041Y-65608582D01*
X103207811Y-65610120D01*
X103208266Y-65610382D01*
X103212362Y-65611773D01*
X103264877Y-65633525D01*
X103423228Y-65699117D01*
X103649941Y-65759864D01*
X103882644Y-65790500D01*
X103882645Y-65790500D01*
X104117355Y-65790500D01*
X104117356Y-65790500D01*
X104350059Y-65759864D01*
X104576772Y-65699117D01*
X104793617Y-65609296D01*
X104996883Y-65491941D01*
X105183092Y-65349058D01*
X105349058Y-65183092D01*
X105491941Y-64996883D01*
X105609296Y-64793617D01*
X105699117Y-64576772D01*
X105759864Y-64350059D01*
X105790500Y-64117356D01*
X105790500Y-63882644D01*
X105759864Y-63649941D01*
X105699117Y-63423228D01*
X105633525Y-63264877D01*
X105609298Y-63206387D01*
X105609296Y-63206383D01*
X105491941Y-63003117D01*
X105349058Y-62816908D01*
X105183092Y-62650942D01*
X105183087Y-62650938D01*
X105183085Y-62650936D01*
X104996886Y-62508061D01*
X104793612Y-62390701D01*
X104793607Y-62390698D01*
X104635266Y-62325112D01*
X104580012Y-62302225D01*
X104577326Y-62300999D01*
X104575343Y-62300500D01*
X104350059Y-62240136D01*
X104117356Y-62209500D01*
X103882644Y-62209500D01*
X103882643Y-62209500D01*
X103882642Y-62209500D01*
X103649939Y-62240136D01*
X103423231Y-62300881D01*
X103423172Y-62300902D01*
X103422693Y-62301104D01*
X103206391Y-62390698D01*
X103003109Y-62508063D01*
X102816917Y-62650933D01*
X102650933Y-62816917D01*
X102508063Y-63003109D01*
X102390698Y-63206391D01*
X102301104Y-63422693D01*
X102300902Y-63423172D01*
X102300881Y-63423231D01*
X102240136Y-63649939D01*
X102209500Y-63882642D01*
X100500000Y-63882642D01*
X100500000Y-60614680D01*
X100504843Y-60584094D01*
X100508965Y-60571405D01*
X100544923Y-60521906D01*
X100545522Y-60521471D01*
X100549063Y-60518900D01*
X100607243Y-60500000D01*
X171385320Y-60500000D01*
X171415908Y-60504843D01*
G37*
%TD.AperFunction*%
%TD*%
%TA.AperFunction,Conductor*%
%TO.N,GND_HOST*%
G36*
X188475843Y-71791981D02*
G01*
X188519108Y-71835246D01*
X188526523Y-71854561D01*
X188544616Y-71922085D01*
X188544617Y-71922087D01*
X188544618Y-71922090D01*
X188617087Y-72047610D01*
X188617089Y-72047612D01*
X188617091Y-72047615D01*
X188678105Y-72108629D01*
X188705881Y-72163144D01*
X188707100Y-72178631D01*
X188707100Y-85016109D01*
X188688193Y-85074300D01*
X188678104Y-85086113D01*
X183359062Y-90405154D01*
X183304545Y-90432931D01*
X183244113Y-90423360D01*
X183203321Y-90384650D01*
X183190408Y-90362284D01*
X183129396Y-90301271D01*
X183101619Y-90246754D01*
X183100400Y-90231268D01*
X183100400Y-77111690D01*
X183119307Y-77053499D01*
X183129396Y-77041686D01*
X183460794Y-76710288D01*
X188360896Y-71810185D01*
X188415411Y-71782410D01*
X188475843Y-71791981D01*
G37*
%TD.AperFunction*%
%TA.AperFunction,Conductor*%
G36*
X194787034Y-62518907D02*
G01*
X194822998Y-62568407D01*
X194822998Y-62629593D01*
X194798848Y-62669001D01*
X194650942Y-62816908D01*
X194650936Y-62816914D01*
X194508061Y-63003113D01*
X194390701Y-63206387D01*
X194300885Y-63423223D01*
X194300882Y-63423230D01*
X194240136Y-63649940D01*
X194209500Y-63882643D01*
X194209500Y-64117356D01*
X194240136Y-64350059D01*
X194300882Y-64576769D01*
X194300885Y-64576776D01*
X194390701Y-64793612D01*
X194508061Y-64996886D01*
X194650936Y-65183085D01*
X194650938Y-65183087D01*
X194650942Y-65183092D01*
X194816908Y-65349058D01*
X194816912Y-65349061D01*
X194816914Y-65349063D01*
X195003113Y-65491938D01*
X195003117Y-65491941D01*
X195206383Y-65609296D01*
X195206384Y-65609296D01*
X195206387Y-65609298D01*
X195264877Y-65633525D01*
X195423228Y-65699117D01*
X195649941Y-65759864D01*
X195882644Y-65790500D01*
X195882645Y-65790500D01*
X196117355Y-65790500D01*
X196117356Y-65790500D01*
X196350059Y-65759864D01*
X196576772Y-65699117D01*
X196793617Y-65609296D01*
X196996883Y-65491941D01*
X197183092Y-65349058D01*
X197330998Y-65201151D01*
X197385513Y-65173376D01*
X197445945Y-65182947D01*
X197489210Y-65226212D01*
X197500000Y-65271157D01*
X197500000Y-76830500D01*
X197481093Y-76888691D01*
X197431593Y-76924655D01*
X197401000Y-76929500D01*
X197201081Y-76929500D01*
X197056085Y-76958342D01*
X196919506Y-77014915D01*
X196796585Y-77097048D01*
X196692048Y-77201585D01*
X196635977Y-77285502D01*
X196587927Y-77323381D01*
X196553662Y-77329500D01*
X196477156Y-77329500D01*
X196388012Y-77353386D01*
X196388011Y-77353386D01*
X196388009Y-77353387D01*
X196308090Y-77399529D01*
X196242829Y-77464790D01*
X196196687Y-77544709D01*
X196196686Y-77544711D01*
X196196686Y-77544712D01*
X196172800Y-77633856D01*
X196172800Y-86273856D01*
X196172800Y-86366144D01*
X196196686Y-86455288D01*
X196242831Y-86535212D01*
X196308088Y-86600469D01*
X196388012Y-86646614D01*
X196477156Y-86670500D01*
X196553662Y-86670500D01*
X196611853Y-86689407D01*
X196635976Y-86714497D01*
X196692049Y-86798416D01*
X196796584Y-86902951D01*
X196919505Y-86985084D01*
X197056087Y-87041658D01*
X197201082Y-87070500D01*
X197201083Y-87070500D01*
X197401000Y-87070500D01*
X197459191Y-87089407D01*
X197495155Y-87138907D01*
X197500000Y-87169500D01*
X197500000Y-107401000D01*
X197481093Y-107459191D01*
X197431593Y-107495155D01*
X197401000Y-107500000D01*
X174599000Y-107500000D01*
X174540809Y-107481093D01*
X174504845Y-107431593D01*
X174500000Y-107401000D01*
X174500000Y-90650925D01*
X181441200Y-90650925D01*
X181441200Y-90795874D01*
X181478717Y-90935889D01*
X181551187Y-91061410D01*
X181551189Y-91061412D01*
X181551191Y-91061415D01*
X181653685Y-91163909D01*
X181653687Y-91163910D01*
X181653689Y-91163912D01*
X181779211Y-91236382D01*
X181779212Y-91236382D01*
X181779215Y-91236384D01*
X181919225Y-91273900D01*
X182005510Y-91273900D01*
X182063701Y-91292807D01*
X182075513Y-91302896D01*
X182305185Y-91532567D01*
X182305188Y-91532570D01*
X182385112Y-91578714D01*
X182474256Y-91602600D01*
X182474257Y-91602600D01*
X182474258Y-91602600D01*
X183053942Y-91602600D01*
X183053944Y-91602600D01*
X183143088Y-91578714D01*
X183223012Y-91532570D01*
X188509501Y-86246081D01*
X192194500Y-86246081D01*
X192194500Y-86393918D01*
X192223342Y-86538914D01*
X192267952Y-86646612D01*
X192279916Y-86675495D01*
X192362049Y-86798416D01*
X192466584Y-86902951D01*
X192589505Y-86985084D01*
X192726087Y-87041658D01*
X192871082Y-87070500D01*
X192871083Y-87070500D01*
X194118917Y-87070500D01*
X194118918Y-87070500D01*
X194263913Y-87041658D01*
X194400495Y-86985084D01*
X194523416Y-86902951D01*
X194627951Y-86798416D01*
X194710084Y-86675495D01*
X194766658Y-86538913D01*
X194795500Y-86393918D01*
X194795500Y-86246082D01*
X194766658Y-86101087D01*
X194710084Y-85964505D01*
X194627951Y-85841584D01*
X194523416Y-85737049D01*
X194400495Y-85654916D01*
X194320901Y-85621947D01*
X194263914Y-85598342D01*
X194151894Y-85576059D01*
X194098510Y-85546161D01*
X194072895Y-85490596D01*
X194084832Y-85430586D01*
X194129763Y-85389054D01*
X194145574Y-85383338D01*
X194193975Y-85370369D01*
X194193977Y-85370367D01*
X194193979Y-85370367D01*
X194250753Y-85337588D01*
X194311524Y-85302502D01*
X194407502Y-85206524D01*
X194475369Y-85088975D01*
X194510500Y-84957867D01*
X194510500Y-84822133D01*
X194475369Y-84691025D01*
X194407502Y-84573476D01*
X194311524Y-84477498D01*
X194302824Y-84472475D01*
X194193978Y-84409632D01*
X194193974Y-84409630D01*
X194062869Y-84374500D01*
X194062867Y-84374500D01*
X193927133Y-84374500D01*
X193927130Y-84374500D01*
X193796025Y-84409630D01*
X193796021Y-84409632D01*
X193678478Y-84477496D01*
X193582496Y-84573478D01*
X193514632Y-84691021D01*
X193514630Y-84691025D01*
X193479500Y-84822130D01*
X193479500Y-84957869D01*
X193514630Y-85088974D01*
X193514632Y-85088978D01*
X193582496Y-85206521D01*
X193582498Y-85206524D01*
X193678476Y-85302502D01*
X193678478Y-85302503D01*
X193796021Y-85370367D01*
X193796025Y-85370369D01*
X193812836Y-85374874D01*
X193864150Y-85408198D01*
X193886076Y-85465320D01*
X193870240Y-85524420D01*
X193822689Y-85562925D01*
X193787212Y-85569500D01*
X192871081Y-85569500D01*
X192726085Y-85598342D01*
X192589506Y-85654915D01*
X192466585Y-85737048D01*
X192362048Y-85841585D01*
X192279915Y-85964506D01*
X192223342Y-86101085D01*
X192194500Y-86246081D01*
X188509501Y-86246081D01*
X189338070Y-85417512D01*
X189384214Y-85337588D01*
X189393615Y-85302502D01*
X189408100Y-85248444D01*
X189408100Y-84327525D01*
X191014000Y-84327525D01*
X191014000Y-84472475D01*
X191015346Y-84477498D01*
X191051517Y-84612489D01*
X191123987Y-84738010D01*
X191123989Y-84738012D01*
X191123991Y-84738015D01*
X191226485Y-84840509D01*
X191226487Y-84840510D01*
X191226489Y-84840512D01*
X191352011Y-84912982D01*
X191352012Y-84912982D01*
X191352015Y-84912984D01*
X191492025Y-84950500D01*
X191492026Y-84950500D01*
X191636974Y-84950500D01*
X191636975Y-84950500D01*
X191776985Y-84912984D01*
X191776987Y-84912982D01*
X191776989Y-84912982D01*
X191902510Y-84840512D01*
X191902510Y-84840511D01*
X191902515Y-84840509D01*
X192005009Y-84738015D01*
X192077484Y-84612485D01*
X192115000Y-84472475D01*
X192115000Y-84327525D01*
X192077484Y-84187515D01*
X192077482Y-84187512D01*
X192077482Y-84187510D01*
X192005012Y-84061989D01*
X192005007Y-84061983D01*
X191993994Y-84050969D01*
X191966218Y-83996452D01*
X191965000Y-83980968D01*
X191965000Y-80207514D01*
X191983907Y-80149323D01*
X192028805Y-80116702D01*
X192028293Y-80115466D01*
X192034279Y-80112985D01*
X192034285Y-80112984D01*
X192159815Y-80040509D01*
X192262309Y-79938015D01*
X192334784Y-79812485D01*
X192372300Y-79672475D01*
X192372300Y-79527525D01*
X192334784Y-79387515D01*
X192334782Y-79387512D01*
X192334782Y-79387510D01*
X192262312Y-79261989D01*
X192262310Y-79261987D01*
X192262309Y-79261985D01*
X192159815Y-79159491D01*
X192159812Y-79159489D01*
X192159810Y-79159487D01*
X192034288Y-79087017D01*
X192034289Y-79087017D01*
X192004696Y-79079087D01*
X191894275Y-79049500D01*
X191749325Y-79049500D01*
X191687590Y-79066041D01*
X191609310Y-79087017D01*
X191483789Y-79159487D01*
X191381287Y-79261989D01*
X191308817Y-79387510D01*
X191271300Y-79527525D01*
X191271300Y-79543099D01*
X191252393Y-79601290D01*
X191246233Y-79608502D01*
X191244016Y-79611391D01*
X191191295Y-79702706D01*
X191191293Y-79702710D01*
X191191293Y-79702712D01*
X191177393Y-79754588D01*
X191177393Y-79754589D01*
X191177392Y-79754588D01*
X191164000Y-79804573D01*
X191164000Y-83980968D01*
X191145093Y-84039159D01*
X191135006Y-84050969D01*
X191123992Y-84061983D01*
X191123987Y-84061989D01*
X191051517Y-84187510D01*
X191051516Y-84187515D01*
X191014000Y-84327525D01*
X189408100Y-84327525D01*
X189408100Y-77606081D01*
X192194500Y-77606081D01*
X192194500Y-77606082D01*
X192194500Y-77753918D01*
X192223342Y-77898913D01*
X192279916Y-78035495D01*
X192362049Y-78158416D01*
X192466584Y-78262951D01*
X192589505Y-78345084D01*
X192726087Y-78401658D01*
X192871082Y-78430500D01*
X192871083Y-78430500D01*
X193787212Y-78430500D01*
X193845403Y-78449407D01*
X193881367Y-78498907D01*
X193881367Y-78560093D01*
X193845403Y-78609593D01*
X193812836Y-78625126D01*
X193796025Y-78629630D01*
X193796021Y-78629632D01*
X193678478Y-78697496D01*
X193582496Y-78793478D01*
X193514632Y-78911021D01*
X193514630Y-78911025D01*
X193479500Y-79042130D01*
X193479500Y-79177869D01*
X193514630Y-79308974D01*
X193514632Y-79308978D01*
X193559973Y-79387510D01*
X193582498Y-79426524D01*
X193678476Y-79522502D01*
X193678478Y-79522503D01*
X193796021Y-79590367D01*
X193796025Y-79590369D01*
X193927130Y-79625499D01*
X193927132Y-79625500D01*
X193927133Y-79625500D01*
X194062868Y-79625500D01*
X194062868Y-79625499D01*
X194193975Y-79590369D01*
X194311524Y-79522502D01*
X194407502Y-79426524D01*
X194475369Y-79308975D01*
X194510500Y-79177867D01*
X194510500Y-79042133D01*
X194475369Y-78911025D01*
X194407502Y-78793476D01*
X194311524Y-78697498D01*
X194311521Y-78697496D01*
X194193978Y-78629632D01*
X194193974Y-78629630D01*
X194145585Y-78616664D01*
X194094271Y-78583340D01*
X194072345Y-78526218D01*
X194088181Y-78467118D01*
X194135732Y-78428613D01*
X194151891Y-78423940D01*
X194263913Y-78401658D01*
X194400495Y-78345084D01*
X194523416Y-78262951D01*
X194627951Y-78158416D01*
X194710084Y-78035495D01*
X194766658Y-77898913D01*
X194795500Y-77753918D01*
X194795500Y-77606082D01*
X194766658Y-77461087D01*
X194710084Y-77324505D01*
X194627951Y-77201584D01*
X194523416Y-77097049D01*
X194400495Y-77014916D01*
X194400493Y-77014915D01*
X194263914Y-76958342D01*
X194118918Y-76929500D01*
X192871082Y-76929500D01*
X192871081Y-76929500D01*
X192726085Y-76958342D01*
X192589506Y-77014915D01*
X192466585Y-77097048D01*
X192362048Y-77201585D01*
X192279915Y-77324506D01*
X192223342Y-77461085D01*
X192194500Y-77606081D01*
X189408100Y-77606081D01*
X189408100Y-72178631D01*
X189427007Y-72120440D01*
X189437090Y-72108633D01*
X189498109Y-72047615D01*
X189570584Y-71922085D01*
X189608100Y-71782075D01*
X189608100Y-71637125D01*
X189570584Y-71497115D01*
X189570582Y-71497112D01*
X189570582Y-71497110D01*
X189498112Y-71371589D01*
X189498110Y-71371587D01*
X189498109Y-71371585D01*
X189395615Y-71269091D01*
X189395612Y-71269089D01*
X189395610Y-71269087D01*
X189270090Y-71196618D01*
X189270087Y-71196617D01*
X189270085Y-71196616D01*
X189202565Y-71178523D01*
X189151253Y-71145200D01*
X189129327Y-71088079D01*
X189145163Y-71028978D01*
X189158182Y-71012899D01*
X190185586Y-69985496D01*
X190240103Y-69957719D01*
X190255590Y-69956500D01*
X190341874Y-69956500D01*
X190341875Y-69956500D01*
X190481885Y-69918984D01*
X190481887Y-69918982D01*
X190481889Y-69918982D01*
X190607410Y-69846512D01*
X190607410Y-69846511D01*
X190607415Y-69846509D01*
X190709909Y-69744015D01*
X190782384Y-69618485D01*
X190819900Y-69478475D01*
X190819900Y-69333525D01*
X190782384Y-69193515D01*
X190782382Y-69193512D01*
X190782382Y-69193510D01*
X190709912Y-69067989D01*
X190709910Y-69067987D01*
X190709909Y-69067985D01*
X190607415Y-68965491D01*
X190607412Y-68965489D01*
X190607410Y-68965487D01*
X190481888Y-68893017D01*
X190481889Y-68893017D01*
X190452296Y-68885087D01*
X190341875Y-68855500D01*
X190196925Y-68855500D01*
X190135190Y-68872041D01*
X190056910Y-68893017D01*
X189931389Y-68965487D01*
X189828887Y-69067989D01*
X189756417Y-69193510D01*
X189718900Y-69333525D01*
X189718900Y-69419810D01*
X189699993Y-69478001D01*
X189689904Y-69489814D01*
X182469430Y-76710288D01*
X182423286Y-76790212D01*
X182399400Y-76879357D01*
X182399400Y-90151650D01*
X182380493Y-90209841D01*
X182330993Y-90245805D01*
X182269807Y-90245805D01*
X182250900Y-90237387D01*
X182204186Y-90210416D01*
X182134180Y-90191658D01*
X182064175Y-90172900D01*
X181919225Y-90172900D01*
X181857490Y-90189441D01*
X181779210Y-90210417D01*
X181653689Y-90282887D01*
X181551187Y-90385389D01*
X181478717Y-90510910D01*
X181441200Y-90650925D01*
X174500000Y-90650925D01*
X174500000Y-62599000D01*
X174518907Y-62540809D01*
X174568407Y-62504845D01*
X174599000Y-62500000D01*
X194728843Y-62500000D01*
X194787034Y-62518907D01*
G37*
%TD.AperFunction*%
%TD*%
M02*
