%TF.GenerationSoftware,KiCad,Pcbnew,10.0.6*%
%TF.CreationDate,2026-10-01T14:42:44+00:00*%
%TF.ProjectId,OSBAMS_Rev2_RC1,4f534241-4d53-45f5-9265-76325f524331,rev?*%
%TF.SameCoordinates,Original*%
%TF.FileFunction,Soldermask,Bot*%
%TF.FilePolarity,Negative*%
%FSLAX46Y46*%
G04 Gerber Fmt 4.6, Leading zero omitted, Abs format (unit mm)*
G04 Created by KiCad (PCBNEW 10.0.6) date 2026-10-01 14:42:44*
%MOMM*%
%LPD*%
G01*
G04 APERTURE LIST*
G04 APERTURE END LIST*
G36*
X104373513Y-144444208D02*
G01*
X104612293Y-144521793D01*
X104835998Y-144635776D01*
X105039117Y-144783350D01*
X105216650Y-144960883D01*
X105364224Y-145164002D01*
X105478207Y-145387707D01*
X105555792Y-145626487D01*
X105595068Y-145874465D01*
X105595068Y-146125535D01*
X105555792Y-146373513D01*
X105478207Y-146612293D01*
X105364224Y-146835998D01*
X105216650Y-147039117D01*
X105039117Y-147216650D01*
X104835998Y-147364224D01*
X104612293Y-147478207D01*
X104373513Y-147555792D01*
X104125535Y-147595068D01*
X103874465Y-147595068D01*
X103626487Y-147555792D01*
X103387707Y-147478207D01*
X103164002Y-147364224D01*
X102960883Y-147216650D01*
X102783350Y-147039117D01*
X102635776Y-146835998D01*
X102521793Y-146612293D01*
X102444208Y-146373513D01*
X102404932Y-146125535D01*
X102404932Y-145874465D01*
X102444208Y-145626487D01*
X102521793Y-145387707D01*
X102635776Y-145164002D01*
X102783350Y-144960883D01*
X102960883Y-144783350D01*
X103164002Y-144635776D01*
X103387707Y-144521793D01*
X103626487Y-144444208D01*
X103874465Y-144404932D01*
X104125535Y-144404932D01*
X104373513Y-144444208D01*
G37*
G36*
X196373513Y-144444208D02*
G01*
X196612293Y-144521793D01*
X196835998Y-144635776D01*
X197039117Y-144783350D01*
X197216650Y-144960883D01*
X197364224Y-145164002D01*
X197478207Y-145387707D01*
X197555792Y-145626487D01*
X197595068Y-145874465D01*
X197595068Y-146125535D01*
X197555792Y-146373513D01*
X197478207Y-146612293D01*
X197364224Y-146835998D01*
X197216650Y-147039117D01*
X197039117Y-147216650D01*
X196835998Y-147364224D01*
X196612293Y-147478207D01*
X196373513Y-147555792D01*
X196125535Y-147595068D01*
X195874465Y-147595068D01*
X195626487Y-147555792D01*
X195387707Y-147478207D01*
X195164002Y-147364224D01*
X194960883Y-147216650D01*
X194783350Y-147039117D01*
X194635776Y-146835998D01*
X194521793Y-146612293D01*
X194444208Y-146373513D01*
X194404932Y-146125535D01*
X194404932Y-145874465D01*
X194444208Y-145626487D01*
X194521793Y-145387707D01*
X194635776Y-145164002D01*
X194783350Y-144960883D01*
X194960883Y-144783350D01*
X195164002Y-144635776D01*
X195387707Y-144521793D01*
X195626487Y-144444208D01*
X195874465Y-144404932D01*
X196125535Y-144404932D01*
X196373513Y-144444208D01*
G37*
G36*
X182354047Y-145125805D02*
G01*
X182405408Y-145131764D01*
X182422954Y-145139511D01*
X182445671Y-145144030D01*
X182469991Y-145160280D01*
X182490793Y-145169465D01*
X182505000Y-145183672D01*
X182526777Y-145198223D01*
X182541327Y-145219999D01*
X182555534Y-145234206D01*
X182564718Y-145255006D01*
X182580970Y-145279329D01*
X182585489Y-145302048D01*
X182593235Y-145319591D01*
X182599192Y-145370940D01*
X182600000Y-145375000D01*
X182600000Y-146625000D01*
X182599192Y-146629059D01*
X182593235Y-146680408D01*
X182585489Y-146697950D01*
X182580970Y-146720671D01*
X182564716Y-146744995D01*
X182555534Y-146765793D01*
X182541329Y-146779997D01*
X182526777Y-146801777D01*
X182504997Y-146816329D01*
X182490793Y-146830534D01*
X182469995Y-146839716D01*
X182445671Y-146855970D01*
X182422950Y-146860489D01*
X182405408Y-146868235D01*
X182354061Y-146874192D01*
X182350000Y-146875000D01*
X181650000Y-146875000D01*
X181645941Y-146874192D01*
X181594591Y-146868235D01*
X181577048Y-146860489D01*
X181554329Y-146855970D01*
X181530006Y-146839718D01*
X181509206Y-146830534D01*
X181494999Y-146816327D01*
X181473223Y-146801777D01*
X181458672Y-146780000D01*
X181444465Y-146765793D01*
X181435280Y-146744991D01*
X181419030Y-146720671D01*
X181414511Y-146697954D01*
X181406764Y-146680408D01*
X181400805Y-146629049D01*
X181400000Y-146625000D01*
X181400000Y-145375000D01*
X181400804Y-145370953D01*
X181406764Y-145319591D01*
X181414511Y-145302043D01*
X181419030Y-145279329D01*
X181435278Y-145255010D01*
X181444465Y-145234206D01*
X181458674Y-145219996D01*
X181473223Y-145198223D01*
X181494996Y-145183674D01*
X181509206Y-145169465D01*
X181530010Y-145160278D01*
X181554329Y-145144030D01*
X181577043Y-145139511D01*
X181594591Y-145131764D01*
X181645952Y-145125805D01*
X181650000Y-145125000D01*
X182350000Y-145125000D01*
X182354047Y-145125805D01*
G37*
G36*
X184068858Y-145130133D02*
G01*
X184078316Y-145130133D01*
X184105563Y-145137433D01*
X184174099Y-145151066D01*
X184206448Y-145164465D01*
X184229610Y-145170672D01*
X184250377Y-145182662D01*
X184282722Y-145196060D01*
X184340816Y-145234877D01*
X184365257Y-145248988D01*
X184371946Y-145255677D01*
X184380481Y-145261380D01*
X184463619Y-145344518D01*
X184469321Y-145353052D01*
X184476012Y-145359743D01*
X184490124Y-145384186D01*
X184528939Y-145442277D01*
X184542335Y-145474618D01*
X184554328Y-145495390D01*
X184560535Y-145518555D01*
X184573933Y-145550900D01*
X184587563Y-145619426D01*
X184594867Y-145646684D01*
X184595791Y-145660795D01*
X184597110Y-145667422D01*
X184599758Y-145721311D01*
X184600000Y-145725000D01*
X184600000Y-146275000D01*
X184599758Y-146278691D01*
X184597110Y-146332577D01*
X184595791Y-146339203D01*
X184594867Y-146353316D01*
X184587562Y-146380576D01*
X184573933Y-146449099D01*
X184560535Y-146481441D01*
X184554328Y-146504610D01*
X184542334Y-146525383D01*
X184528939Y-146557722D01*
X184490128Y-146615805D01*
X184476012Y-146640257D01*
X184469319Y-146646949D01*
X184463619Y-146655481D01*
X184380481Y-146738619D01*
X184371949Y-146744319D01*
X184365257Y-146751012D01*
X184340805Y-146765128D01*
X184282722Y-146803939D01*
X184250383Y-146817334D01*
X184229610Y-146829328D01*
X184206441Y-146835535D01*
X184174099Y-146848933D01*
X184105569Y-146862564D01*
X184078316Y-146869867D01*
X184068858Y-146869867D01*
X184058788Y-146871870D01*
X183941212Y-146871870D01*
X183931142Y-146869867D01*
X183921684Y-146869867D01*
X183894432Y-146862564D01*
X183825900Y-146848933D01*
X183793555Y-146835535D01*
X183770390Y-146829328D01*
X183749618Y-146817335D01*
X183717277Y-146803939D01*
X183659186Y-146765124D01*
X183634743Y-146751012D01*
X183628052Y-146744321D01*
X183619518Y-146738619D01*
X183536380Y-146655481D01*
X183530677Y-146646946D01*
X183523988Y-146640257D01*
X183509877Y-146615816D01*
X183471060Y-146557722D01*
X183457662Y-146525377D01*
X183445672Y-146504610D01*
X183439465Y-146481448D01*
X183426066Y-146449099D01*
X183412433Y-146380562D01*
X183405133Y-146353316D01*
X183404208Y-146339210D01*
X183402889Y-146332577D01*
X183400241Y-146278686D01*
X183400000Y-146275000D01*
X183400000Y-145725000D01*
X183400241Y-145721316D01*
X183402889Y-145667422D01*
X183404208Y-145660787D01*
X183405133Y-145646684D01*
X183412432Y-145619440D01*
X183426066Y-145550900D01*
X183439466Y-145518548D01*
X183445672Y-145495390D01*
X183457660Y-145474624D01*
X183471060Y-145442277D01*
X183509881Y-145384175D01*
X183523988Y-145359743D01*
X183530675Y-145353055D01*
X183536380Y-145344518D01*
X183619518Y-145261380D01*
X183628055Y-145255675D01*
X183634743Y-145248988D01*
X183659175Y-145234881D01*
X183717277Y-145196060D01*
X183749624Y-145182660D01*
X183770390Y-145170672D01*
X183793548Y-145164466D01*
X183825900Y-145151066D01*
X183894437Y-145137433D01*
X183921684Y-145130133D01*
X183931142Y-145130133D01*
X183941212Y-145128130D01*
X184058788Y-145128130D01*
X184068858Y-145130133D01*
G37*
G36*
X186068858Y-145130133D02*
G01*
X186078316Y-145130133D01*
X186105563Y-145137433D01*
X186174099Y-145151066D01*
X186206448Y-145164465D01*
X186229610Y-145170672D01*
X186250377Y-145182662D01*
X186282722Y-145196060D01*
X186340816Y-145234877D01*
X186365257Y-145248988D01*
X186371946Y-145255677D01*
X186380481Y-145261380D01*
X186463619Y-145344518D01*
X186469321Y-145353052D01*
X186476012Y-145359743D01*
X186490124Y-145384186D01*
X186528939Y-145442277D01*
X186542335Y-145474618D01*
X186554328Y-145495390D01*
X186560535Y-145518555D01*
X186573933Y-145550900D01*
X186587563Y-145619426D01*
X186594867Y-145646684D01*
X186595791Y-145660795D01*
X186597110Y-145667422D01*
X186599758Y-145721311D01*
X186600000Y-145725000D01*
X186600000Y-146275000D01*
X186599758Y-146278691D01*
X186597110Y-146332577D01*
X186595791Y-146339203D01*
X186594867Y-146353316D01*
X186587562Y-146380576D01*
X186573933Y-146449099D01*
X186560535Y-146481441D01*
X186554328Y-146504610D01*
X186542334Y-146525383D01*
X186528939Y-146557722D01*
X186490128Y-146615805D01*
X186476012Y-146640257D01*
X186469319Y-146646949D01*
X186463619Y-146655481D01*
X186380481Y-146738619D01*
X186371949Y-146744319D01*
X186365257Y-146751012D01*
X186340805Y-146765128D01*
X186282722Y-146803939D01*
X186250383Y-146817334D01*
X186229610Y-146829328D01*
X186206441Y-146835535D01*
X186174099Y-146848933D01*
X186105569Y-146862564D01*
X186078316Y-146869867D01*
X186068858Y-146869867D01*
X186058788Y-146871870D01*
X185941212Y-146871870D01*
X185931142Y-146869867D01*
X185921684Y-146869867D01*
X185894432Y-146862564D01*
X185825900Y-146848933D01*
X185793555Y-146835535D01*
X185770390Y-146829328D01*
X185749618Y-146817335D01*
X185717277Y-146803939D01*
X185659186Y-146765124D01*
X185634743Y-146751012D01*
X185628052Y-146744321D01*
X185619518Y-146738619D01*
X185536380Y-146655481D01*
X185530677Y-146646946D01*
X185523988Y-146640257D01*
X185509877Y-146615816D01*
X185471060Y-146557722D01*
X185457662Y-146525377D01*
X185445672Y-146504610D01*
X185439465Y-146481448D01*
X185426066Y-146449099D01*
X185412433Y-146380562D01*
X185405133Y-146353316D01*
X185404208Y-146339210D01*
X185402889Y-146332577D01*
X185400241Y-146278686D01*
X185400000Y-146275000D01*
X185400000Y-145725000D01*
X185400241Y-145721316D01*
X185402889Y-145667422D01*
X185404208Y-145660787D01*
X185405133Y-145646684D01*
X185412432Y-145619440D01*
X185426066Y-145550900D01*
X185439466Y-145518548D01*
X185445672Y-145495390D01*
X185457660Y-145474624D01*
X185471060Y-145442277D01*
X185509881Y-145384175D01*
X185523988Y-145359743D01*
X185530675Y-145353055D01*
X185536380Y-145344518D01*
X185619518Y-145261380D01*
X185628055Y-145255675D01*
X185634743Y-145248988D01*
X185659175Y-145234881D01*
X185717277Y-145196060D01*
X185749624Y-145182660D01*
X185770390Y-145170672D01*
X185793548Y-145164466D01*
X185825900Y-145151066D01*
X185894437Y-145137433D01*
X185921684Y-145130133D01*
X185931142Y-145130133D01*
X185941212Y-145128130D01*
X186058788Y-145128130D01*
X186068858Y-145130133D01*
G37*
G36*
X188068858Y-145130133D02*
G01*
X188078316Y-145130133D01*
X188105563Y-145137433D01*
X188174099Y-145151066D01*
X188206448Y-145164465D01*
X188229610Y-145170672D01*
X188250377Y-145182662D01*
X188282722Y-145196060D01*
X188340816Y-145234877D01*
X188365257Y-145248988D01*
X188371946Y-145255677D01*
X188380481Y-145261380D01*
X188463619Y-145344518D01*
X188469321Y-145353052D01*
X188476012Y-145359743D01*
X188490124Y-145384186D01*
X188528939Y-145442277D01*
X188542335Y-145474618D01*
X188554328Y-145495390D01*
X188560535Y-145518555D01*
X188573933Y-145550900D01*
X188587563Y-145619426D01*
X188594867Y-145646684D01*
X188595791Y-145660795D01*
X188597110Y-145667422D01*
X188599758Y-145721311D01*
X188600000Y-145725000D01*
X188600000Y-146275000D01*
X188599758Y-146278691D01*
X188597110Y-146332577D01*
X188595791Y-146339203D01*
X188594867Y-146353316D01*
X188587562Y-146380576D01*
X188573933Y-146449099D01*
X188560535Y-146481441D01*
X188554328Y-146504610D01*
X188542334Y-146525383D01*
X188528939Y-146557722D01*
X188490128Y-146615805D01*
X188476012Y-146640257D01*
X188469319Y-146646949D01*
X188463619Y-146655481D01*
X188380481Y-146738619D01*
X188371949Y-146744319D01*
X188365257Y-146751012D01*
X188340805Y-146765128D01*
X188282722Y-146803939D01*
X188250383Y-146817334D01*
X188229610Y-146829328D01*
X188206441Y-146835535D01*
X188174099Y-146848933D01*
X188105569Y-146862564D01*
X188078316Y-146869867D01*
X188068858Y-146869867D01*
X188058788Y-146871870D01*
X187941212Y-146871870D01*
X187931142Y-146869867D01*
X187921684Y-146869867D01*
X187894432Y-146862564D01*
X187825900Y-146848933D01*
X187793555Y-146835535D01*
X187770390Y-146829328D01*
X187749618Y-146817335D01*
X187717277Y-146803939D01*
X187659186Y-146765124D01*
X187634743Y-146751012D01*
X187628052Y-146744321D01*
X187619518Y-146738619D01*
X187536380Y-146655481D01*
X187530677Y-146646946D01*
X187523988Y-146640257D01*
X187509877Y-146615816D01*
X187471060Y-146557722D01*
X187457662Y-146525377D01*
X187445672Y-146504610D01*
X187439465Y-146481448D01*
X187426066Y-146449099D01*
X187412433Y-146380562D01*
X187405133Y-146353316D01*
X187404208Y-146339210D01*
X187402889Y-146332577D01*
X187400241Y-146278686D01*
X187400000Y-146275000D01*
X187400000Y-145725000D01*
X187400241Y-145721316D01*
X187402889Y-145667422D01*
X187404208Y-145660787D01*
X187405133Y-145646684D01*
X187412432Y-145619440D01*
X187426066Y-145550900D01*
X187439466Y-145518548D01*
X187445672Y-145495390D01*
X187457660Y-145474624D01*
X187471060Y-145442277D01*
X187509881Y-145384175D01*
X187523988Y-145359743D01*
X187530675Y-145353055D01*
X187536380Y-145344518D01*
X187619518Y-145261380D01*
X187628055Y-145255675D01*
X187634743Y-145248988D01*
X187659175Y-145234881D01*
X187717277Y-145196060D01*
X187749624Y-145182660D01*
X187770390Y-145170672D01*
X187793548Y-145164466D01*
X187825900Y-145151066D01*
X187894437Y-145137433D01*
X187921684Y-145130133D01*
X187931142Y-145130133D01*
X187941212Y-145128130D01*
X188058788Y-145128130D01*
X188068858Y-145130133D01*
G37*
G36*
X114624047Y-141905805D02*
G01*
X114675408Y-141911764D01*
X114692954Y-141919511D01*
X114715671Y-141924030D01*
X114739991Y-141940280D01*
X114760793Y-141949465D01*
X114775000Y-141963672D01*
X114796777Y-141978223D01*
X114811327Y-141999999D01*
X114825534Y-142014206D01*
X114834718Y-142035006D01*
X114850970Y-142059329D01*
X114855489Y-142082048D01*
X114863235Y-142099591D01*
X114869192Y-142150940D01*
X114870000Y-142155000D01*
X114870000Y-143845000D01*
X114869192Y-143849059D01*
X114863235Y-143900408D01*
X114855489Y-143917950D01*
X114850970Y-143940671D01*
X114834716Y-143964995D01*
X114825534Y-143985793D01*
X114811329Y-143999997D01*
X114796777Y-144021777D01*
X114774997Y-144036329D01*
X114760793Y-144050534D01*
X114739995Y-144059716D01*
X114715671Y-144075970D01*
X114692950Y-144080489D01*
X114675408Y-144088235D01*
X114624061Y-144094192D01*
X114620000Y-144095000D01*
X113380000Y-144095000D01*
X113375941Y-144094192D01*
X113324591Y-144088235D01*
X113307048Y-144080489D01*
X113284329Y-144075970D01*
X113260006Y-144059718D01*
X113239206Y-144050534D01*
X113224999Y-144036327D01*
X113203223Y-144021777D01*
X113188672Y-144000000D01*
X113174465Y-143985793D01*
X113165280Y-143964991D01*
X113149030Y-143940671D01*
X113144511Y-143917954D01*
X113136764Y-143900408D01*
X113130805Y-143849049D01*
X113130000Y-143845000D01*
X113130000Y-142155000D01*
X113130804Y-142150953D01*
X113136764Y-142099591D01*
X113144511Y-142082043D01*
X113149030Y-142059329D01*
X113165278Y-142035010D01*
X113174465Y-142014206D01*
X113188674Y-141999996D01*
X113203223Y-141978223D01*
X113224996Y-141963674D01*
X113239206Y-141949465D01*
X113260010Y-141940278D01*
X113284329Y-141924030D01*
X113307043Y-141919511D01*
X113324591Y-141911764D01*
X113375952Y-141905805D01*
X113380000Y-141905000D01*
X114620000Y-141905000D01*
X114624047Y-141905805D01*
G37*
G36*
X131624047Y-141905805D02*
G01*
X131675408Y-141911764D01*
X131692954Y-141919511D01*
X131715671Y-141924030D01*
X131739991Y-141940280D01*
X131760793Y-141949465D01*
X131775000Y-141963672D01*
X131796777Y-141978223D01*
X131811327Y-141999999D01*
X131825534Y-142014206D01*
X131834718Y-142035006D01*
X131850970Y-142059329D01*
X131855489Y-142082048D01*
X131863235Y-142099591D01*
X131869192Y-142150940D01*
X131870000Y-142155000D01*
X131870000Y-143845000D01*
X131869192Y-143849059D01*
X131863235Y-143900408D01*
X131855489Y-143917950D01*
X131850970Y-143940671D01*
X131834716Y-143964995D01*
X131825534Y-143985793D01*
X131811329Y-143999997D01*
X131796777Y-144021777D01*
X131774997Y-144036329D01*
X131760793Y-144050534D01*
X131739995Y-144059716D01*
X131715671Y-144075970D01*
X131692950Y-144080489D01*
X131675408Y-144088235D01*
X131624061Y-144094192D01*
X131620000Y-144095000D01*
X130380000Y-144095000D01*
X130375941Y-144094192D01*
X130324591Y-144088235D01*
X130307048Y-144080489D01*
X130284329Y-144075970D01*
X130260006Y-144059718D01*
X130239206Y-144050534D01*
X130224999Y-144036327D01*
X130203223Y-144021777D01*
X130188672Y-144000000D01*
X130174465Y-143985793D01*
X130165280Y-143964991D01*
X130149030Y-143940671D01*
X130144511Y-143917954D01*
X130136764Y-143900408D01*
X130130805Y-143849049D01*
X130130000Y-143845000D01*
X130130000Y-142155000D01*
X130130804Y-142150953D01*
X130136764Y-142099591D01*
X130144511Y-142082043D01*
X130149030Y-142059329D01*
X130165278Y-142035010D01*
X130174465Y-142014206D01*
X130188674Y-141999996D01*
X130203223Y-141978223D01*
X130224996Y-141963674D01*
X130239206Y-141949465D01*
X130260010Y-141940278D01*
X130284329Y-141924030D01*
X130307043Y-141919511D01*
X130324591Y-141911764D01*
X130375952Y-141905805D01*
X130380000Y-141905000D01*
X131620000Y-141905000D01*
X131624047Y-141905805D01*
G37*
G36*
X116792548Y-141942462D02*
G01*
X116950115Y-142007729D01*
X117091922Y-142102481D01*
X117212519Y-142223078D01*
X117307271Y-142364885D01*
X117372538Y-142522452D01*
X117405811Y-142689725D01*
X117410000Y-142775000D01*
X117410000Y-143225000D01*
X117405811Y-143310275D01*
X117372538Y-143477548D01*
X117307271Y-143635115D01*
X117212519Y-143776922D01*
X117091922Y-143897519D01*
X116950115Y-143992271D01*
X116792548Y-144057538D01*
X116625275Y-144090811D01*
X116454725Y-144090811D01*
X116287452Y-144057538D01*
X116129885Y-143992271D01*
X115988078Y-143897519D01*
X115867481Y-143776922D01*
X115772729Y-143635115D01*
X115707462Y-143477548D01*
X115674189Y-143310275D01*
X115670000Y-143225000D01*
X115670000Y-142775000D01*
X115674189Y-142689725D01*
X115707462Y-142522452D01*
X115772729Y-142364885D01*
X115867481Y-142223078D01*
X115988078Y-142102481D01*
X116129885Y-142007729D01*
X116287452Y-141942462D01*
X116454725Y-141909189D01*
X116625275Y-141909189D01*
X116792548Y-141942462D01*
G37*
G36*
X119332548Y-141942462D02*
G01*
X119490115Y-142007729D01*
X119631922Y-142102481D01*
X119752519Y-142223078D01*
X119847271Y-142364885D01*
X119912538Y-142522452D01*
X119945811Y-142689725D01*
X119950000Y-142775000D01*
X119950000Y-143225000D01*
X119945811Y-143310275D01*
X119912538Y-143477548D01*
X119847271Y-143635115D01*
X119752519Y-143776922D01*
X119631922Y-143897519D01*
X119490115Y-143992271D01*
X119332548Y-144057538D01*
X119165275Y-144090811D01*
X118994725Y-144090811D01*
X118827452Y-144057538D01*
X118669885Y-143992271D01*
X118528078Y-143897519D01*
X118407481Y-143776922D01*
X118312729Y-143635115D01*
X118247462Y-143477548D01*
X118214189Y-143310275D01*
X118210000Y-143225000D01*
X118210000Y-142775000D01*
X118214189Y-142689725D01*
X118247462Y-142522452D01*
X118312729Y-142364885D01*
X118407481Y-142223078D01*
X118528078Y-142102481D01*
X118669885Y-142007729D01*
X118827452Y-141942462D01*
X118994725Y-141909189D01*
X119165275Y-141909189D01*
X119332548Y-141942462D01*
G37*
G36*
X133792548Y-141942462D02*
G01*
X133950115Y-142007729D01*
X134091922Y-142102481D01*
X134212519Y-142223078D01*
X134307271Y-142364885D01*
X134372538Y-142522452D01*
X134405811Y-142689725D01*
X134410000Y-142775000D01*
X134410000Y-143225000D01*
X134405811Y-143310275D01*
X134372538Y-143477548D01*
X134307271Y-143635115D01*
X134212519Y-143776922D01*
X134091922Y-143897519D01*
X133950115Y-143992271D01*
X133792548Y-144057538D01*
X133625275Y-144090811D01*
X133454725Y-144090811D01*
X133287452Y-144057538D01*
X133129885Y-143992271D01*
X132988078Y-143897519D01*
X132867481Y-143776922D01*
X132772729Y-143635115D01*
X132707462Y-143477548D01*
X132674189Y-143310275D01*
X132670000Y-143225000D01*
X132670000Y-142775000D01*
X132674189Y-142689725D01*
X132707462Y-142522452D01*
X132772729Y-142364885D01*
X132867481Y-142223078D01*
X132988078Y-142102481D01*
X133129885Y-142007729D01*
X133287452Y-141942462D01*
X133454725Y-141909189D01*
X133625275Y-141909189D01*
X133792548Y-141942462D01*
G37*
G36*
X136332548Y-141942462D02*
G01*
X136490115Y-142007729D01*
X136631922Y-142102481D01*
X136752519Y-142223078D01*
X136847271Y-142364885D01*
X136912538Y-142522452D01*
X136945811Y-142689725D01*
X136950000Y-142775000D01*
X136950000Y-143225000D01*
X136945811Y-143310275D01*
X136912538Y-143477548D01*
X136847271Y-143635115D01*
X136752519Y-143776922D01*
X136631922Y-143897519D01*
X136490115Y-143992271D01*
X136332548Y-144057538D01*
X136165275Y-144090811D01*
X135994725Y-144090811D01*
X135827452Y-144057538D01*
X135669885Y-143992271D01*
X135528078Y-143897519D01*
X135407481Y-143776922D01*
X135312729Y-143635115D01*
X135247462Y-143477548D01*
X135214189Y-143310275D01*
X135210000Y-143225000D01*
X135210000Y-142775000D01*
X135214189Y-142689725D01*
X135247462Y-142522452D01*
X135312729Y-142364885D01*
X135407481Y-142223078D01*
X135528078Y-142102481D01*
X135669885Y-142007729D01*
X135827452Y-141942462D01*
X135994725Y-141909189D01*
X136165275Y-141909189D01*
X136332548Y-141942462D01*
G37*
G36*
X138872548Y-141942462D02*
G01*
X139030115Y-142007729D01*
X139171922Y-142102481D01*
X139292519Y-142223078D01*
X139387271Y-142364885D01*
X139452538Y-142522452D01*
X139485811Y-142689725D01*
X139490000Y-142775000D01*
X139490000Y-143225000D01*
X139485811Y-143310275D01*
X139452538Y-143477548D01*
X139387271Y-143635115D01*
X139292519Y-143776922D01*
X139171922Y-143897519D01*
X139030115Y-143992271D01*
X138872548Y-144057538D01*
X138705275Y-144090811D01*
X138534725Y-144090811D01*
X138367452Y-144057538D01*
X138209885Y-143992271D01*
X138068078Y-143897519D01*
X137947481Y-143776922D01*
X137852729Y-143635115D01*
X137787462Y-143477548D01*
X137754189Y-143310275D01*
X137750000Y-143225000D01*
X137750000Y-142775000D01*
X137754189Y-142689725D01*
X137787462Y-142522452D01*
X137852729Y-142364885D01*
X137947481Y-142223078D01*
X138068078Y-142102481D01*
X138209885Y-142007729D01*
X138367452Y-141942462D01*
X138534725Y-141909189D01*
X138705275Y-141909189D01*
X138872548Y-141942462D01*
G37*
G36*
X142232228Y-137774448D02*
G01*
X142377117Y-137834463D01*
X142507515Y-137921592D01*
X142618408Y-138032485D01*
X142705537Y-138162883D01*
X142765552Y-138307772D01*
X142796148Y-138461586D01*
X142796148Y-138618414D01*
X142765552Y-138772228D01*
X142705537Y-138917117D01*
X142618408Y-139047515D01*
X142507515Y-139158408D01*
X142377117Y-139245537D01*
X142232228Y-139305552D01*
X142078414Y-139336148D01*
X141921586Y-139336148D01*
X141767772Y-139305552D01*
X141622883Y-139245537D01*
X141492485Y-139158408D01*
X141381592Y-139047515D01*
X141294463Y-138917117D01*
X141234448Y-138772228D01*
X141203852Y-138618414D01*
X141203852Y-138461586D01*
X141234448Y-138307772D01*
X141294463Y-138162883D01*
X141381592Y-138032485D01*
X141492485Y-137921592D01*
X141622883Y-137834463D01*
X141767772Y-137774448D01*
X141921586Y-137743852D01*
X142078414Y-137743852D01*
X142232228Y-137774448D01*
G37*
G36*
X149852228Y-137774448D02*
G01*
X149997117Y-137834463D01*
X150127515Y-137921592D01*
X150238408Y-138032485D01*
X150325537Y-138162883D01*
X150385552Y-138307772D01*
X150416148Y-138461586D01*
X150416148Y-138618414D01*
X150385552Y-138772228D01*
X150325537Y-138917117D01*
X150238408Y-139047515D01*
X150127515Y-139158408D01*
X149997117Y-139245537D01*
X149852228Y-139305552D01*
X149698414Y-139336148D01*
X149541586Y-139336148D01*
X149387772Y-139305552D01*
X149242883Y-139245537D01*
X149112485Y-139158408D01*
X149001592Y-139047515D01*
X148914463Y-138917117D01*
X148854448Y-138772228D01*
X148823852Y-138618414D01*
X148823852Y-138461586D01*
X148854448Y-138307772D01*
X148914463Y-138162883D01*
X149001592Y-138032485D01*
X149112485Y-137921592D01*
X149242883Y-137834463D01*
X149387772Y-137774448D01*
X149541586Y-137743852D01*
X149698414Y-137743852D01*
X149852228Y-137774448D01*
G37*
G36*
X142554047Y-135200805D02*
G01*
X142605408Y-135206764D01*
X142622954Y-135214511D01*
X142645671Y-135219030D01*
X142669991Y-135235280D01*
X142690793Y-135244465D01*
X142705000Y-135258672D01*
X142726777Y-135273223D01*
X142741327Y-135294999D01*
X142755534Y-135309206D01*
X142764718Y-135330006D01*
X142780970Y-135354329D01*
X142785489Y-135377048D01*
X142793235Y-135394591D01*
X142799192Y-135445940D01*
X142800000Y-135450000D01*
X142800000Y-136550000D01*
X142799192Y-136554059D01*
X142793235Y-136605408D01*
X142785489Y-136622950D01*
X142780970Y-136645671D01*
X142764716Y-136669995D01*
X142755534Y-136690793D01*
X142741329Y-136704997D01*
X142726777Y-136726777D01*
X142704997Y-136741329D01*
X142690793Y-136755534D01*
X142669995Y-136764716D01*
X142645671Y-136780970D01*
X142622950Y-136785489D01*
X142605408Y-136793235D01*
X142554061Y-136799192D01*
X142550000Y-136800000D01*
X141450000Y-136800000D01*
X141445941Y-136799192D01*
X141394591Y-136793235D01*
X141377048Y-136785489D01*
X141354329Y-136780970D01*
X141330006Y-136764718D01*
X141309206Y-136755534D01*
X141294999Y-136741327D01*
X141273223Y-136726777D01*
X141258672Y-136705000D01*
X141244465Y-136690793D01*
X141235280Y-136669991D01*
X141219030Y-136645671D01*
X141214511Y-136622954D01*
X141206764Y-136605408D01*
X141200805Y-136554049D01*
X141200000Y-136550000D01*
X141200000Y-135450000D01*
X141200804Y-135445953D01*
X141206764Y-135394591D01*
X141214511Y-135377043D01*
X141219030Y-135354329D01*
X141235278Y-135330010D01*
X141244465Y-135309206D01*
X141258674Y-135294996D01*
X141273223Y-135273223D01*
X141294996Y-135258674D01*
X141309206Y-135244465D01*
X141330010Y-135235278D01*
X141354329Y-135219030D01*
X141377043Y-135214511D01*
X141394591Y-135206764D01*
X141445952Y-135200805D01*
X141450000Y-135200000D01*
X142550000Y-135200000D01*
X142554047Y-135200805D01*
G37*
G36*
X149852228Y-135234448D02*
G01*
X149997117Y-135294463D01*
X150127515Y-135381592D01*
X150238408Y-135492485D01*
X150325537Y-135622883D01*
X150385552Y-135767772D01*
X150416148Y-135921586D01*
X150416148Y-136078414D01*
X150385552Y-136232228D01*
X150325537Y-136377117D01*
X150238408Y-136507515D01*
X150127515Y-136618408D01*
X149997117Y-136705537D01*
X149852228Y-136765552D01*
X149698414Y-136796148D01*
X149541586Y-136796148D01*
X149387772Y-136765552D01*
X149242883Y-136705537D01*
X149112485Y-136618408D01*
X149001592Y-136507515D01*
X148914463Y-136377117D01*
X148854448Y-136232228D01*
X148823852Y-136078414D01*
X148823852Y-135921586D01*
X148854448Y-135767772D01*
X148914463Y-135622883D01*
X149001592Y-135492485D01*
X149112485Y-135381592D01*
X149242883Y-135294463D01*
X149387772Y-135234448D01*
X149541586Y-135203852D01*
X149698414Y-135203852D01*
X149852228Y-135234448D01*
G37*
G36*
X144554047Y-132200805D02*
G01*
X144605408Y-132206764D01*
X144622954Y-132214511D01*
X144645671Y-132219030D01*
X144669991Y-132235280D01*
X144690793Y-132244465D01*
X144705000Y-132258672D01*
X144726777Y-132273223D01*
X144741327Y-132294999D01*
X144755534Y-132309206D01*
X144764718Y-132330006D01*
X144780970Y-132354329D01*
X144785489Y-132377048D01*
X144793235Y-132394591D01*
X144799192Y-132445940D01*
X144800000Y-132450000D01*
X144800000Y-133550000D01*
X144799192Y-133554059D01*
X144793235Y-133605408D01*
X144785489Y-133622950D01*
X144780970Y-133645671D01*
X144764716Y-133669995D01*
X144755534Y-133690793D01*
X144741329Y-133704997D01*
X144726777Y-133726777D01*
X144704997Y-133741329D01*
X144690793Y-133755534D01*
X144669995Y-133764716D01*
X144645671Y-133780970D01*
X144622950Y-133785489D01*
X144605408Y-133793235D01*
X144554061Y-133799192D01*
X144550000Y-133800000D01*
X143450000Y-133800000D01*
X143445941Y-133799192D01*
X143394591Y-133793235D01*
X143377048Y-133785489D01*
X143354329Y-133780970D01*
X143330006Y-133764718D01*
X143309206Y-133755534D01*
X143294999Y-133741327D01*
X143273223Y-133726777D01*
X143258672Y-133705000D01*
X143244465Y-133690793D01*
X143235280Y-133669991D01*
X143219030Y-133645671D01*
X143214511Y-133622954D01*
X143206764Y-133605408D01*
X143200805Y-133554049D01*
X143200000Y-133550000D01*
X143200000Y-132450000D01*
X143200804Y-132445953D01*
X143206764Y-132394591D01*
X143214511Y-132377043D01*
X143219030Y-132354329D01*
X143235278Y-132330010D01*
X143244465Y-132309206D01*
X143258674Y-132294996D01*
X143273223Y-132273223D01*
X143294996Y-132258674D01*
X143309206Y-132244465D01*
X143330010Y-132235278D01*
X143354329Y-132219030D01*
X143377043Y-132214511D01*
X143394591Y-132206764D01*
X143445952Y-132200805D01*
X143450000Y-132200000D01*
X144550000Y-132200000D01*
X144554047Y-132200805D01*
G37*
G36*
X150246742Y-131726601D02*
G01*
X150400687Y-131790367D01*
X150539234Y-131882941D01*
X150657059Y-132000766D01*
X150749633Y-132139313D01*
X150813399Y-132293258D01*
X150845907Y-132456685D01*
X150845907Y-132623315D01*
X150813399Y-132786742D01*
X150749633Y-132940687D01*
X150657059Y-133079234D01*
X150539234Y-133197059D01*
X150400687Y-133289633D01*
X150246742Y-133353399D01*
X150083315Y-133385907D01*
X149916685Y-133385907D01*
X149753258Y-133353399D01*
X149599313Y-133289633D01*
X149460766Y-133197059D01*
X149342941Y-133079234D01*
X149250367Y-132940687D01*
X149186601Y-132786742D01*
X149154093Y-132623315D01*
X149154093Y-132456685D01*
X149186601Y-132293258D01*
X149250367Y-132139313D01*
X149342941Y-132000766D01*
X149460766Y-131882941D01*
X149599313Y-131790367D01*
X149753258Y-131726601D01*
X149916685Y-131694093D01*
X150083315Y-131694093D01*
X150246742Y-131726601D01*
G37*
G36*
X150850000Y-130850000D02*
G01*
X149150000Y-130850000D01*
X149150000Y-129150000D01*
X150850000Y-129150000D01*
X150850000Y-130850000D01*
G37*
G36*
X144232228Y-124614448D02*
G01*
X144377117Y-124674463D01*
X144507515Y-124761592D01*
X144618408Y-124872485D01*
X144705537Y-125002883D01*
X144765552Y-125147772D01*
X144796148Y-125301586D01*
X144796148Y-125458414D01*
X144765552Y-125612228D01*
X144705537Y-125757117D01*
X144618408Y-125887515D01*
X144507515Y-125998408D01*
X144377117Y-126085537D01*
X144232228Y-126145552D01*
X144078414Y-126176148D01*
X143921586Y-126176148D01*
X143767772Y-126145552D01*
X143622883Y-126085537D01*
X143492485Y-125998408D01*
X143381592Y-125887515D01*
X143294463Y-125757117D01*
X143234448Y-125612228D01*
X143203852Y-125458414D01*
X143203852Y-125301586D01*
X143234448Y-125147772D01*
X143294463Y-125002883D01*
X143381592Y-124872485D01*
X143492485Y-124761592D01*
X143622883Y-124674463D01*
X143767772Y-124614448D01*
X143921586Y-124583852D01*
X144078414Y-124583852D01*
X144232228Y-124614448D01*
G37*
G36*
X112803479Y-114735919D02*
G01*
X112997488Y-114798957D01*
X113179248Y-114891568D01*
X113344282Y-115011472D01*
X113488528Y-115155718D01*
X113608432Y-115320752D01*
X113701043Y-115502512D01*
X113764081Y-115696521D01*
X113795993Y-115898003D01*
X113795993Y-116101997D01*
X113764081Y-116303479D01*
X113701043Y-116497488D01*
X113608432Y-116679248D01*
X113488528Y-116844282D01*
X113344282Y-116988528D01*
X113179248Y-117108432D01*
X112997488Y-117201043D01*
X112803479Y-117264081D01*
X112601997Y-117295993D01*
X112398003Y-117295993D01*
X112196521Y-117264081D01*
X112002512Y-117201043D01*
X111820752Y-117108432D01*
X111655718Y-116988528D01*
X111511472Y-116844282D01*
X111391568Y-116679248D01*
X111298957Y-116497488D01*
X111235919Y-116303479D01*
X111204007Y-116101997D01*
X111204007Y-115898003D01*
X111235919Y-115696521D01*
X111298957Y-115502512D01*
X111391568Y-115320752D01*
X111511472Y-115155718D01*
X111655718Y-115011472D01*
X111820752Y-114891568D01*
X112002512Y-114798957D01*
X112196521Y-114735919D01*
X112398003Y-114704007D01*
X112601997Y-114704007D01*
X112803479Y-114735919D01*
G37*
G36*
X113800000Y-112300000D02*
G01*
X111200000Y-112300000D01*
X111200000Y-109700000D01*
X113800000Y-109700000D01*
X113800000Y-112300000D01*
G37*
G36*
X112803479Y-102735919D02*
G01*
X112997488Y-102798957D01*
X113179248Y-102891568D01*
X113344282Y-103011472D01*
X113488528Y-103155718D01*
X113608432Y-103320752D01*
X113701043Y-103502512D01*
X113764081Y-103696521D01*
X113795993Y-103898003D01*
X113795993Y-104101997D01*
X113764081Y-104303479D01*
X113701043Y-104497488D01*
X113608432Y-104679248D01*
X113488528Y-104844282D01*
X113344282Y-104988528D01*
X113179248Y-105108432D01*
X112997488Y-105201043D01*
X112803479Y-105264081D01*
X112601997Y-105295993D01*
X112398003Y-105295993D01*
X112196521Y-105264081D01*
X112002512Y-105201043D01*
X111820752Y-105108432D01*
X111655718Y-104988528D01*
X111511472Y-104844282D01*
X111391568Y-104679248D01*
X111298957Y-104497488D01*
X111235919Y-104303479D01*
X111204007Y-104101997D01*
X111204007Y-103898003D01*
X111235919Y-103696521D01*
X111298957Y-103502512D01*
X111391568Y-103320752D01*
X111511472Y-103155718D01*
X111655718Y-103011472D01*
X111820752Y-102891568D01*
X112002512Y-102798957D01*
X112196521Y-102735919D01*
X112398003Y-102704007D01*
X112601997Y-102704007D01*
X112803479Y-102735919D01*
G37*
G36*
X113800000Y-100300000D02*
G01*
X111200000Y-100300000D01*
X111200000Y-97700000D01*
X113800000Y-97700000D01*
X113800000Y-100300000D01*
G37*
G36*
X112803479Y-90735919D02*
G01*
X112997488Y-90798957D01*
X113179248Y-90891568D01*
X113344282Y-91011472D01*
X113488528Y-91155718D01*
X113608432Y-91320752D01*
X113701043Y-91502512D01*
X113764081Y-91696521D01*
X113795993Y-91898003D01*
X113795993Y-92101997D01*
X113764081Y-92303479D01*
X113701043Y-92497488D01*
X113608432Y-92679248D01*
X113488528Y-92844282D01*
X113344282Y-92988528D01*
X113179248Y-93108432D01*
X112997488Y-93201043D01*
X112803479Y-93264081D01*
X112601997Y-93295993D01*
X112398003Y-93295993D01*
X112196521Y-93264081D01*
X112002512Y-93201043D01*
X111820752Y-93108432D01*
X111655718Y-92988528D01*
X111511472Y-92844282D01*
X111391568Y-92679248D01*
X111298957Y-92497488D01*
X111235919Y-92303479D01*
X111204007Y-92101997D01*
X111204007Y-91898003D01*
X111235919Y-91696521D01*
X111298957Y-91502512D01*
X111391568Y-91320752D01*
X111511472Y-91155718D01*
X111655718Y-91011472D01*
X111820752Y-90891568D01*
X112002512Y-90798957D01*
X112196521Y-90735919D01*
X112398003Y-90704007D01*
X112601997Y-90704007D01*
X112803479Y-90735919D01*
G37*
G36*
X122232228Y-89774448D02*
G01*
X122377117Y-89834463D01*
X122507515Y-89921592D01*
X122618408Y-90032485D01*
X122705537Y-90162883D01*
X122765552Y-90307772D01*
X122796148Y-90461586D01*
X122796148Y-90618414D01*
X122765552Y-90772228D01*
X122705537Y-90917117D01*
X122618408Y-91047515D01*
X122507515Y-91158408D01*
X122377117Y-91245537D01*
X122232228Y-91305552D01*
X122078414Y-91336148D01*
X121921586Y-91336148D01*
X121767772Y-91305552D01*
X121622883Y-91245537D01*
X121492485Y-91158408D01*
X121381592Y-91047515D01*
X121294463Y-90917117D01*
X121234448Y-90772228D01*
X121203852Y-90618414D01*
X121203852Y-90461586D01*
X121234448Y-90307772D01*
X121294463Y-90162883D01*
X121381592Y-90032485D01*
X121492485Y-89921592D01*
X121622883Y-89834463D01*
X121767772Y-89774448D01*
X121921586Y-89743852D01*
X122078414Y-89743852D01*
X122232228Y-89774448D01*
G37*
G36*
X129852228Y-89774448D02*
G01*
X129997117Y-89834463D01*
X130127515Y-89921592D01*
X130238408Y-90032485D01*
X130325537Y-90162883D01*
X130385552Y-90307772D01*
X130416148Y-90461586D01*
X130416148Y-90618414D01*
X130385552Y-90772228D01*
X130325537Y-90917117D01*
X130238408Y-91047515D01*
X130127515Y-91158408D01*
X129997117Y-91245537D01*
X129852228Y-91305552D01*
X129698414Y-91336148D01*
X129541586Y-91336148D01*
X129387772Y-91305552D01*
X129242883Y-91245537D01*
X129112485Y-91158408D01*
X129001592Y-91047515D01*
X128914463Y-90917117D01*
X128854448Y-90772228D01*
X128823852Y-90618414D01*
X128823852Y-90461586D01*
X128854448Y-90307772D01*
X128914463Y-90162883D01*
X129001592Y-90032485D01*
X129112485Y-89921592D01*
X129242883Y-89834463D01*
X129387772Y-89774448D01*
X129541586Y-89743852D01*
X129698414Y-89743852D01*
X129852228Y-89774448D01*
G37*
G36*
X122554047Y-87200805D02*
G01*
X122605408Y-87206764D01*
X122622954Y-87214511D01*
X122645671Y-87219030D01*
X122669991Y-87235280D01*
X122690793Y-87244465D01*
X122705000Y-87258672D01*
X122726777Y-87273223D01*
X122741327Y-87294999D01*
X122755534Y-87309206D01*
X122764718Y-87330006D01*
X122780970Y-87354329D01*
X122785489Y-87377048D01*
X122793235Y-87394591D01*
X122799192Y-87445940D01*
X122800000Y-87450000D01*
X122800000Y-88550000D01*
X122799192Y-88554059D01*
X122793235Y-88605408D01*
X122785489Y-88622950D01*
X122780970Y-88645671D01*
X122764716Y-88669995D01*
X122755534Y-88690793D01*
X122741329Y-88704997D01*
X122726777Y-88726777D01*
X122704997Y-88741329D01*
X122690793Y-88755534D01*
X122669995Y-88764716D01*
X122645671Y-88780970D01*
X122622950Y-88785489D01*
X122605408Y-88793235D01*
X122554061Y-88799192D01*
X122550000Y-88800000D01*
X121450000Y-88800000D01*
X121445941Y-88799192D01*
X121394591Y-88793235D01*
X121377048Y-88785489D01*
X121354329Y-88780970D01*
X121330006Y-88764718D01*
X121309206Y-88755534D01*
X121294999Y-88741327D01*
X121273223Y-88726777D01*
X121258672Y-88705000D01*
X121244465Y-88690793D01*
X121235280Y-88669991D01*
X121219030Y-88645671D01*
X121214511Y-88622954D01*
X121206764Y-88605408D01*
X121200805Y-88554049D01*
X121200000Y-88550000D01*
X121200000Y-87450000D01*
X121200804Y-87445953D01*
X121206764Y-87394591D01*
X121214511Y-87377043D01*
X121219030Y-87354329D01*
X121235278Y-87330010D01*
X121244465Y-87309206D01*
X121258674Y-87294996D01*
X121273223Y-87273223D01*
X121294996Y-87258674D01*
X121309206Y-87244465D01*
X121330010Y-87235278D01*
X121354329Y-87219030D01*
X121377043Y-87214511D01*
X121394591Y-87206764D01*
X121445952Y-87200805D01*
X121450000Y-87200000D01*
X122550000Y-87200000D01*
X122554047Y-87200805D01*
G37*
G36*
X129852228Y-87234448D02*
G01*
X129997117Y-87294463D01*
X130127515Y-87381592D01*
X130238408Y-87492485D01*
X130325537Y-87622883D01*
X130385552Y-87767772D01*
X130416148Y-87921586D01*
X130416148Y-88078414D01*
X130385552Y-88232228D01*
X130325537Y-88377117D01*
X130238408Y-88507515D01*
X130127515Y-88618408D01*
X129997117Y-88705537D01*
X129852228Y-88765552D01*
X129698414Y-88796148D01*
X129541586Y-88796148D01*
X129387772Y-88765552D01*
X129242883Y-88705537D01*
X129112485Y-88618408D01*
X129001592Y-88507515D01*
X128914463Y-88377117D01*
X128854448Y-88232228D01*
X128823852Y-88078414D01*
X128823852Y-87921586D01*
X128854448Y-87767772D01*
X128914463Y-87622883D01*
X129001592Y-87492485D01*
X129112485Y-87381592D01*
X129242883Y-87294463D01*
X129387772Y-87234448D01*
X129541586Y-87203852D01*
X129698414Y-87203852D01*
X129852228Y-87234448D01*
G37*
G36*
X113800000Y-88300000D02*
G01*
X111200000Y-88300000D01*
X111200000Y-85700000D01*
X113800000Y-85700000D01*
X113800000Y-88300000D01*
G37*
G36*
X194110263Y-85824278D02*
G01*
X194236342Y-85858060D01*
X194349381Y-85923323D01*
X194441677Y-86015619D01*
X194506940Y-86128658D01*
X194540722Y-86254737D01*
X194540722Y-86385263D01*
X194506940Y-86511342D01*
X194441677Y-86624381D01*
X194349381Y-86716677D01*
X194236342Y-86781940D01*
X194110263Y-86815722D01*
X194045000Y-86820000D01*
X194043363Y-86820000D01*
X192946637Y-86820000D01*
X192945000Y-86820000D01*
X192879737Y-86815722D01*
X192753658Y-86781940D01*
X192640619Y-86716677D01*
X192548323Y-86624381D01*
X192483060Y-86511342D01*
X192449278Y-86385263D01*
X192449278Y-86254737D01*
X192483060Y-86128658D01*
X192548323Y-86015619D01*
X192640619Y-85923323D01*
X192753658Y-85858060D01*
X192879737Y-85824278D01*
X192945000Y-85820000D01*
X194045000Y-85820000D01*
X194110263Y-85824278D01*
G37*
G36*
X198140263Y-85824278D02*
G01*
X198266342Y-85858060D01*
X198379381Y-85923323D01*
X198471677Y-86015619D01*
X198536940Y-86128658D01*
X198570722Y-86254737D01*
X198570722Y-86385263D01*
X198536940Y-86511342D01*
X198471677Y-86624381D01*
X198379381Y-86716677D01*
X198266342Y-86781940D01*
X198140263Y-86815722D01*
X198075000Y-86820000D01*
X198073363Y-86820000D01*
X197276637Y-86820000D01*
X197275000Y-86820000D01*
X197209737Y-86815722D01*
X197083658Y-86781940D01*
X196970619Y-86716677D01*
X196878323Y-86624381D01*
X196813060Y-86511342D01*
X196779278Y-86385263D01*
X196779278Y-86254737D01*
X196813060Y-86128658D01*
X196878323Y-86015619D01*
X196970619Y-85923323D01*
X197083658Y-85858060D01*
X197209737Y-85824278D01*
X197275000Y-85820000D01*
X198075000Y-85820000D01*
X198140263Y-85824278D01*
G37*
G36*
X123054047Y-84200805D02*
G01*
X123105408Y-84206764D01*
X123122954Y-84214511D01*
X123145671Y-84219030D01*
X123169991Y-84235280D01*
X123190793Y-84244465D01*
X123205000Y-84258672D01*
X123226777Y-84273223D01*
X123241327Y-84294999D01*
X123255534Y-84309206D01*
X123264718Y-84330006D01*
X123280970Y-84354329D01*
X123285489Y-84377048D01*
X123293235Y-84394591D01*
X123299192Y-84445940D01*
X123300000Y-84450000D01*
X123300000Y-85550000D01*
X123299192Y-85554059D01*
X123293235Y-85605408D01*
X123285489Y-85622950D01*
X123280970Y-85645671D01*
X123264716Y-85669995D01*
X123255534Y-85690793D01*
X123241329Y-85704997D01*
X123226777Y-85726777D01*
X123204997Y-85741329D01*
X123190793Y-85755534D01*
X123169995Y-85764716D01*
X123145671Y-85780970D01*
X123122950Y-85785489D01*
X123105408Y-85793235D01*
X123054061Y-85799192D01*
X123050000Y-85800000D01*
X121950000Y-85800000D01*
X121945941Y-85799192D01*
X121894591Y-85793235D01*
X121877048Y-85785489D01*
X121854329Y-85780970D01*
X121830006Y-85764718D01*
X121809206Y-85755534D01*
X121794999Y-85741327D01*
X121773223Y-85726777D01*
X121758672Y-85705000D01*
X121744465Y-85690793D01*
X121735280Y-85669991D01*
X121719030Y-85645671D01*
X121714511Y-85622954D01*
X121706764Y-85605408D01*
X121700805Y-85554049D01*
X121700000Y-85550000D01*
X121700000Y-84450000D01*
X121700804Y-84445953D01*
X121706764Y-84394591D01*
X121714511Y-84377043D01*
X121719030Y-84354329D01*
X121735278Y-84330010D01*
X121744465Y-84309206D01*
X121758674Y-84294996D01*
X121773223Y-84273223D01*
X121794996Y-84258674D01*
X121809206Y-84244465D01*
X121830010Y-84235278D01*
X121854329Y-84219030D01*
X121877043Y-84214511D01*
X121894591Y-84206764D01*
X121945952Y-84200805D01*
X121950000Y-84200000D01*
X123050000Y-84200000D01*
X123054047Y-84200805D01*
G37*
G36*
X194119372Y-84589739D02*
G01*
X194192847Y-84632160D01*
X194252840Y-84692153D01*
X194295261Y-84765628D01*
X194317220Y-84847579D01*
X194317220Y-84932421D01*
X194295261Y-85014372D01*
X194252840Y-85087847D01*
X194192847Y-85147840D01*
X194119372Y-85190261D01*
X194037421Y-85212220D01*
X193952579Y-85212220D01*
X193870628Y-85190261D01*
X193797153Y-85147840D01*
X193737160Y-85087847D01*
X193694739Y-85014372D01*
X193672780Y-84932421D01*
X193672780Y-84847579D01*
X193694739Y-84765628D01*
X193737160Y-84692153D01*
X193797153Y-84632160D01*
X193870628Y-84589739D01*
X193952579Y-84567780D01*
X194037421Y-84567780D01*
X194119372Y-84589739D01*
G37*
G36*
X194119372Y-78809739D02*
G01*
X194192847Y-78852160D01*
X194252840Y-78912153D01*
X194295261Y-78985628D01*
X194317220Y-79067579D01*
X194317220Y-79152421D01*
X194295261Y-79234372D01*
X194252840Y-79307847D01*
X194192847Y-79367840D01*
X194119372Y-79410261D01*
X194037421Y-79432220D01*
X193952579Y-79432220D01*
X193870628Y-79410261D01*
X193797153Y-79367840D01*
X193737160Y-79307847D01*
X193694739Y-79234372D01*
X193672780Y-79152421D01*
X193672780Y-79067579D01*
X193694739Y-78985628D01*
X193737160Y-78912153D01*
X193797153Y-78852160D01*
X193870628Y-78809739D01*
X193952579Y-78787780D01*
X194037421Y-78787780D01*
X194119372Y-78809739D01*
G37*
G36*
X112803479Y-75735919D02*
G01*
X112997488Y-75798957D01*
X113179248Y-75891568D01*
X113344282Y-76011472D01*
X113488528Y-76155718D01*
X113608432Y-76320752D01*
X113701043Y-76502512D01*
X113764081Y-76696521D01*
X113795993Y-76898003D01*
X113795993Y-77101997D01*
X113764081Y-77303479D01*
X113701043Y-77497488D01*
X113608432Y-77679248D01*
X113488528Y-77844282D01*
X113344282Y-77988528D01*
X113179248Y-78108432D01*
X112997488Y-78201043D01*
X112803479Y-78264081D01*
X112601997Y-78295993D01*
X112398003Y-78295993D01*
X112196521Y-78264081D01*
X112002512Y-78201043D01*
X111820752Y-78108432D01*
X111655718Y-77988528D01*
X111511472Y-77844282D01*
X111391568Y-77679248D01*
X111298957Y-77497488D01*
X111235919Y-77303479D01*
X111204007Y-77101997D01*
X111204007Y-76898003D01*
X111235919Y-76696521D01*
X111298957Y-76502512D01*
X111391568Y-76320752D01*
X111511472Y-76155718D01*
X111655718Y-76011472D01*
X111820752Y-75891568D01*
X112002512Y-75798957D01*
X112196521Y-75735919D01*
X112398003Y-75704007D01*
X112601997Y-75704007D01*
X112803479Y-75735919D01*
G37*
G36*
X194110263Y-77184278D02*
G01*
X194236342Y-77218060D01*
X194349381Y-77283323D01*
X194441677Y-77375619D01*
X194506940Y-77488658D01*
X194540722Y-77614737D01*
X194540722Y-77745263D01*
X194506940Y-77871342D01*
X194441677Y-77984381D01*
X194349381Y-78076677D01*
X194236342Y-78141940D01*
X194110263Y-78175722D01*
X194045000Y-78180000D01*
X194043363Y-78180000D01*
X192946637Y-78180000D01*
X192945000Y-78180000D01*
X192879737Y-78175722D01*
X192753658Y-78141940D01*
X192640619Y-78076677D01*
X192548323Y-77984381D01*
X192483060Y-77871342D01*
X192449278Y-77745263D01*
X192449278Y-77614737D01*
X192483060Y-77488658D01*
X192548323Y-77375619D01*
X192640619Y-77283323D01*
X192753658Y-77218060D01*
X192879737Y-77184278D01*
X192945000Y-77180000D01*
X194045000Y-77180000D01*
X194110263Y-77184278D01*
G37*
G36*
X198140263Y-77184278D02*
G01*
X198266342Y-77218060D01*
X198379381Y-77283323D01*
X198471677Y-77375619D01*
X198536940Y-77488658D01*
X198570722Y-77614737D01*
X198570722Y-77745263D01*
X198536940Y-77871342D01*
X198471677Y-77984381D01*
X198379381Y-78076677D01*
X198266342Y-78141940D01*
X198140263Y-78175722D01*
X198075000Y-78180000D01*
X198073363Y-78180000D01*
X197276637Y-78180000D01*
X197275000Y-78180000D01*
X197209737Y-78175722D01*
X197083658Y-78141940D01*
X196970619Y-78076677D01*
X196878323Y-77984381D01*
X196813060Y-77871342D01*
X196779278Y-77745263D01*
X196779278Y-77614737D01*
X196813060Y-77488658D01*
X196878323Y-77375619D01*
X196970619Y-77283323D01*
X197083658Y-77218060D01*
X197209737Y-77184278D01*
X197275000Y-77180000D01*
X198075000Y-77180000D01*
X198140263Y-77184278D01*
G37*
G36*
X122732228Y-76614448D02*
G01*
X122877117Y-76674463D01*
X123007515Y-76761592D01*
X123118408Y-76872485D01*
X123205537Y-77002883D01*
X123265552Y-77147772D01*
X123296148Y-77301586D01*
X123296148Y-77458414D01*
X123265552Y-77612228D01*
X123205537Y-77757117D01*
X123118408Y-77887515D01*
X123007515Y-77998408D01*
X122877117Y-78085537D01*
X122732228Y-78145552D01*
X122578414Y-78176148D01*
X122421586Y-78176148D01*
X122267772Y-78145552D01*
X122122883Y-78085537D01*
X121992485Y-77998408D01*
X121881592Y-77887515D01*
X121794463Y-77757117D01*
X121734448Y-77612228D01*
X121703852Y-77458414D01*
X121703852Y-77301586D01*
X121734448Y-77147772D01*
X121794463Y-77002883D01*
X121881592Y-76872485D01*
X121992485Y-76761592D01*
X122122883Y-76674463D01*
X122267772Y-76614448D01*
X122421586Y-76583852D01*
X122578414Y-76583852D01*
X122732228Y-76614448D01*
G37*
G36*
X113800000Y-73300000D02*
G01*
X111200000Y-73300000D01*
X111200000Y-70700000D01*
X113800000Y-70700000D01*
X113800000Y-73300000D01*
G37*
G36*
X104373513Y-62444208D02*
G01*
X104612293Y-62521793D01*
X104835998Y-62635776D01*
X105039117Y-62783350D01*
X105216650Y-62960883D01*
X105364224Y-63164002D01*
X105478207Y-63387707D01*
X105555792Y-63626487D01*
X105595068Y-63874465D01*
X105595068Y-64125535D01*
X105555792Y-64373513D01*
X105478207Y-64612293D01*
X105364224Y-64835998D01*
X105216650Y-65039117D01*
X105039117Y-65216650D01*
X104835998Y-65364224D01*
X104612293Y-65478207D01*
X104373513Y-65555792D01*
X104125535Y-65595068D01*
X103874465Y-65595068D01*
X103626487Y-65555792D01*
X103387707Y-65478207D01*
X103164002Y-65364224D01*
X102960883Y-65216650D01*
X102783350Y-65039117D01*
X102635776Y-64835998D01*
X102521793Y-64612293D01*
X102444208Y-64373513D01*
X102404932Y-64125535D01*
X102404932Y-63874465D01*
X102444208Y-63626487D01*
X102521793Y-63387707D01*
X102635776Y-63164002D01*
X102783350Y-62960883D01*
X102960883Y-62783350D01*
X103164002Y-62635776D01*
X103387707Y-62521793D01*
X103626487Y-62444208D01*
X103874465Y-62404932D01*
X104125535Y-62404932D01*
X104373513Y-62444208D01*
G37*
G36*
X196373513Y-62444208D02*
G01*
X196612293Y-62521793D01*
X196835998Y-62635776D01*
X197039117Y-62783350D01*
X197216650Y-62960883D01*
X197364224Y-63164002D01*
X197478207Y-63387707D01*
X197555792Y-63626487D01*
X197595068Y-63874465D01*
X197595068Y-64125535D01*
X197555792Y-64373513D01*
X197478207Y-64612293D01*
X197364224Y-64835998D01*
X197216650Y-65039117D01*
X197039117Y-65216650D01*
X196835998Y-65364224D01*
X196612293Y-65478207D01*
X196373513Y-65555792D01*
X196125535Y-65595068D01*
X195874465Y-65595068D01*
X195626487Y-65555792D01*
X195387707Y-65478207D01*
X195164002Y-65364224D01*
X194960883Y-65216650D01*
X194783350Y-65039117D01*
X194635776Y-64835998D01*
X194521793Y-64612293D01*
X194444208Y-64373513D01*
X194404932Y-64125535D01*
X194404932Y-63874465D01*
X194444208Y-63626487D01*
X194521793Y-63387707D01*
X194635776Y-63164002D01*
X194783350Y-62960883D01*
X194960883Y-62783350D01*
X195164002Y-62635776D01*
X195387707Y-62521793D01*
X195626487Y-62444208D01*
X195874465Y-62404932D01*
X196125535Y-62404932D01*
X196373513Y-62444208D01*
G37*
M02*
