%TF.GenerationSoftware,KiCad,Pcbnew,7.0.11+dfsg-1build4*%
%TF.CreationDate,2026-10-01T15:01:08+00:00*%
%TF.ProjectId,OSBAMS_Pi_Power_Interposer_RevA,4f534241-4d53-45f5-9069-5f506f776572,rev?*%
%TF.SameCoordinates,Original*%
%TF.FileFunction,Drillmap*%
%TF.FilePolarity,Positive*%
%FSLAX45Y45*%
G04 Gerber Fmt 4.5, Leading zero omitted, Abs format (unit mm)*
G04 Created by KiCad (PCBNEW 7.0.11+dfsg-1build4) date 2026-10-01 15:01:08*
%MOMM*%
%LPD*%
G01*
G04 APERTURE LIST*
%ADD10C,0.100000*%
%ADD11C,0.200000*%
%ADD12C,0.102000*%
%ADD13C,0.270000*%
%ADD14C,0.300000*%
G04 APERTURE END LIST*
D10*
X0Y-200000D02*
X5700000Y-200000D01*
X5700000Y-200000D02*
X5700000Y-2400000D01*
X5700000Y-2400000D02*
X0Y-2400000D01*
X0Y-2400000D02*
X0Y-200000D01*
D11*
D10*
X350000Y-1823000D02*
X450000Y-1923000D01*
X450000Y-1823000D02*
X350000Y-1923000D01*
X350000Y-2077000D02*
X450000Y-2177000D01*
X450000Y-2077000D02*
X350000Y-2177000D01*
X604000Y-1823000D02*
X704000Y-1923000D01*
X704000Y-1823000D02*
X604000Y-1923000D01*
X604000Y-2077000D02*
X704000Y-2177000D01*
X704000Y-2077000D02*
X604000Y-2177000D01*
X858000Y-1823000D02*
X958000Y-1923000D01*
X958000Y-1823000D02*
X858000Y-1923000D01*
X858000Y-2077000D02*
X958000Y-2177000D01*
X958000Y-2077000D02*
X858000Y-2177000D01*
X1112000Y-1823000D02*
X1212000Y-1923000D01*
X1212000Y-1823000D02*
X1112000Y-1923000D01*
X1112000Y-2077000D02*
X1212000Y-2177000D01*
X1212000Y-2077000D02*
X1112000Y-2177000D01*
X1366000Y-1823000D02*
X1466000Y-1923000D01*
X1466000Y-1823000D02*
X1366000Y-1923000D01*
X1366000Y-2077000D02*
X1466000Y-2177000D01*
X1466000Y-2077000D02*
X1366000Y-2177000D01*
X1620000Y-1823000D02*
X1720000Y-1923000D01*
X1720000Y-1823000D02*
X1620000Y-1923000D01*
X1620000Y-2077000D02*
X1720000Y-2177000D01*
X1720000Y-2077000D02*
X1620000Y-2177000D01*
X1874000Y-1823000D02*
X1974000Y-1923000D01*
X1974000Y-1823000D02*
X1874000Y-1923000D01*
X1874000Y-2077000D02*
X1974000Y-2177000D01*
X1974000Y-2077000D02*
X1874000Y-2177000D01*
X2128000Y-1823000D02*
X2228000Y-1923000D01*
X2228000Y-1823000D02*
X2128000Y-1923000D01*
X2128000Y-2077000D02*
X2228000Y-2177000D01*
X2228000Y-2077000D02*
X2128000Y-2177000D01*
X2382000Y-1823000D02*
X2482000Y-1923000D01*
X2482000Y-1823000D02*
X2382000Y-1923000D01*
X2382000Y-2077000D02*
X2482000Y-2177000D01*
X2482000Y-2077000D02*
X2382000Y-2177000D01*
X2636000Y-1823000D02*
X2736000Y-1923000D01*
X2736000Y-1823000D02*
X2636000Y-1923000D01*
X2636000Y-2077000D02*
X2736000Y-2177000D01*
X2736000Y-2077000D02*
X2636000Y-2177000D01*
X2890000Y-1823000D02*
X2990000Y-1923000D01*
X2990000Y-1823000D02*
X2890000Y-1923000D01*
X2890000Y-2077000D02*
X2990000Y-2177000D01*
X2990000Y-2077000D02*
X2890000Y-2177000D01*
X3144000Y-1823000D02*
X3244000Y-1923000D01*
X3244000Y-1823000D02*
X3144000Y-1923000D01*
X3144000Y-2077000D02*
X3244000Y-2177000D01*
X3244000Y-2077000D02*
X3144000Y-2177000D01*
X3398000Y-1823000D02*
X3498000Y-1923000D01*
X3498000Y-1823000D02*
X3398000Y-1923000D01*
X3398000Y-2077000D02*
X3498000Y-2177000D01*
X3498000Y-2077000D02*
X3398000Y-2177000D01*
X3652000Y-1823000D02*
X3752000Y-1923000D01*
X3752000Y-1823000D02*
X3652000Y-1923000D01*
X3652000Y-2077000D02*
X3752000Y-2177000D01*
X3752000Y-2077000D02*
X3652000Y-2177000D01*
X3906000Y-1823000D02*
X4006000Y-1923000D01*
X4006000Y-1823000D02*
X3906000Y-1923000D01*
X3906000Y-2077000D02*
X4006000Y-2177000D01*
X4006000Y-2077000D02*
X3906000Y-2177000D01*
X4160000Y-1823000D02*
X4260000Y-1923000D01*
X4260000Y-1823000D02*
X4160000Y-1923000D01*
X4160000Y-2077000D02*
X4260000Y-2177000D01*
X4260000Y-2077000D02*
X4160000Y-2177000D01*
X4414000Y-1823000D02*
X4514000Y-1923000D01*
X4514000Y-1823000D02*
X4414000Y-1923000D01*
X4414000Y-2077000D02*
X4514000Y-2177000D01*
X4514000Y-2077000D02*
X4414000Y-2177000D01*
X4668000Y-1823000D02*
X4768000Y-1923000D01*
X4768000Y-1823000D02*
X4668000Y-1923000D01*
X4668000Y-2077000D02*
X4768000Y-2177000D01*
X4768000Y-2077000D02*
X4668000Y-2177000D01*
X4922000Y-1823000D02*
X5022000Y-1923000D01*
X5022000Y-1823000D02*
X4922000Y-1923000D01*
X4922000Y-2077000D02*
X5022000Y-2177000D01*
X5022000Y-2077000D02*
X4922000Y-2177000D01*
X5176000Y-1823000D02*
X5276000Y-1923000D01*
X5276000Y-1823000D02*
X5176000Y-1923000D01*
X5176000Y-2077000D02*
X5276000Y-2177000D01*
X5276000Y-2077000D02*
X5176000Y-2177000D01*
D12*
X2051000Y-1110000D02*
G75*
G03*
X1949000Y-1110000I-51000J0D01*
G01*
X1949000Y-1110000D02*
G75*
G03*
X2051000Y-1110000I51000J0D01*
G01*
X2051000Y-1410000D02*
G75*
G03*
X1949000Y-1410000I-51000J0D01*
G01*
X1949000Y-1410000D02*
G75*
G03*
X2051000Y-1410000I51000J0D01*
G01*
X2351000Y-1110000D02*
G75*
G03*
X2249000Y-1110000I-51000J0D01*
G01*
X2249000Y-1110000D02*
G75*
G03*
X2351000Y-1110000I51000J0D01*
G01*
X2351000Y-1410000D02*
G75*
G03*
X2249000Y-1410000I-51000J0D01*
G01*
X2249000Y-1410000D02*
G75*
G03*
X2351000Y-1410000I51000J0D01*
G01*
D13*
X3400000Y-415000D02*
X3400000Y-685000D01*
X3265000Y-550000D02*
X3535000Y-550000D01*
X5200000Y-415000D02*
X5200000Y-685000D01*
X5065000Y-550000D02*
X5335000Y-550000D01*
D14*
X2256067Y-784067D02*
X2256067Y-571933D01*
X2043933Y-571933D01*
X2043933Y-784067D01*
X2256067Y-784067D01*
D11*
X255777Y-2716484D02*
X255777Y-2516484D01*
X255777Y-2516484D02*
X303396Y-2516484D01*
X303396Y-2516484D02*
X331967Y-2526008D01*
X331967Y-2526008D02*
X351015Y-2545055D01*
X351015Y-2545055D02*
X360539Y-2564103D01*
X360539Y-2564103D02*
X370062Y-2602198D01*
X370062Y-2602198D02*
X370062Y-2630770D01*
X370062Y-2630770D02*
X360539Y-2668865D01*
X360539Y-2668865D02*
X351015Y-2687912D01*
X351015Y-2687912D02*
X331967Y-2706960D01*
X331967Y-2706960D02*
X303396Y-2716484D01*
X303396Y-2716484D02*
X255777Y-2716484D01*
X455777Y-2716484D02*
X455777Y-2583150D01*
X455777Y-2621246D02*
X465301Y-2602198D01*
X465301Y-2602198D02*
X474824Y-2592674D01*
X474824Y-2592674D02*
X493872Y-2583150D01*
X493872Y-2583150D02*
X512920Y-2583150D01*
X579586Y-2716484D02*
X579586Y-2583150D01*
X579586Y-2516484D02*
X570063Y-2526008D01*
X570063Y-2526008D02*
X579586Y-2535531D01*
X579586Y-2535531D02*
X589110Y-2526008D01*
X589110Y-2526008D02*
X579586Y-2516484D01*
X579586Y-2516484D02*
X579586Y-2535531D01*
X703396Y-2716484D02*
X684348Y-2706960D01*
X684348Y-2706960D02*
X674824Y-2687912D01*
X674824Y-2687912D02*
X674824Y-2516484D01*
X808158Y-2716484D02*
X789110Y-2706960D01*
X789110Y-2706960D02*
X779586Y-2687912D01*
X779586Y-2687912D02*
X779586Y-2516484D01*
X1036729Y-2716484D02*
X1036729Y-2516484D01*
X1036729Y-2516484D02*
X1103396Y-2659341D01*
X1103396Y-2659341D02*
X1170063Y-2516484D01*
X1170063Y-2516484D02*
X1170063Y-2716484D01*
X1351015Y-2716484D02*
X1351015Y-2611722D01*
X1351015Y-2611722D02*
X1341491Y-2592674D01*
X1341491Y-2592674D02*
X1322444Y-2583150D01*
X1322444Y-2583150D02*
X1284348Y-2583150D01*
X1284348Y-2583150D02*
X1265301Y-2592674D01*
X1351015Y-2706960D02*
X1331967Y-2716484D01*
X1331967Y-2716484D02*
X1284348Y-2716484D01*
X1284348Y-2716484D02*
X1265301Y-2706960D01*
X1265301Y-2706960D02*
X1255777Y-2687912D01*
X1255777Y-2687912D02*
X1255777Y-2668865D01*
X1255777Y-2668865D02*
X1265301Y-2649817D01*
X1265301Y-2649817D02*
X1284348Y-2640293D01*
X1284348Y-2640293D02*
X1331967Y-2640293D01*
X1331967Y-2640293D02*
X1351015Y-2630770D01*
X1446253Y-2583150D02*
X1446253Y-2783150D01*
X1446253Y-2592674D02*
X1465301Y-2583150D01*
X1465301Y-2583150D02*
X1503396Y-2583150D01*
X1503396Y-2583150D02*
X1522443Y-2592674D01*
X1522443Y-2592674D02*
X1531967Y-2602198D01*
X1531967Y-2602198D02*
X1541491Y-2621246D01*
X1541491Y-2621246D02*
X1541491Y-2678389D01*
X1541491Y-2678389D02*
X1531967Y-2697436D01*
X1531967Y-2697436D02*
X1522443Y-2706960D01*
X1522443Y-2706960D02*
X1503396Y-2716484D01*
X1503396Y-2716484D02*
X1465301Y-2716484D01*
X1465301Y-2716484D02*
X1446253Y-2706960D01*
X1627205Y-2697436D02*
X1636729Y-2706960D01*
X1636729Y-2706960D02*
X1627205Y-2716484D01*
X1627205Y-2716484D02*
X1617682Y-2706960D01*
X1617682Y-2706960D02*
X1627205Y-2697436D01*
X1627205Y-2697436D02*
X1627205Y-2716484D01*
X1627205Y-2592674D02*
X1636729Y-2602198D01*
X1636729Y-2602198D02*
X1627205Y-2611722D01*
X1627205Y-2611722D02*
X1617682Y-2602198D01*
X1617682Y-2602198D02*
X1627205Y-2592674D01*
X1627205Y-2592674D02*
X1627205Y-2611722D01*
D10*
X-105000Y-2995000D02*
X-5000Y-3095000D01*
X-5000Y-2995000D02*
X-105000Y-3095000D01*
D11*
X360539Y-3136484D02*
X246253Y-3136484D01*
X303396Y-3136484D02*
X303396Y-2936484D01*
X303396Y-2936484D02*
X284348Y-2965055D01*
X284348Y-2965055D02*
X265301Y-2984103D01*
X265301Y-2984103D02*
X246253Y-2993627D01*
X446253Y-3117436D02*
X455777Y-3126960D01*
X455777Y-3126960D02*
X446253Y-3136484D01*
X446253Y-3136484D02*
X436729Y-3126960D01*
X436729Y-3126960D02*
X446253Y-3117436D01*
X446253Y-3117436D02*
X446253Y-3136484D01*
X579586Y-2936484D02*
X598634Y-2936484D01*
X598634Y-2936484D02*
X617682Y-2946008D01*
X617682Y-2946008D02*
X627205Y-2955531D01*
X627205Y-2955531D02*
X636729Y-2974579D01*
X636729Y-2974579D02*
X646253Y-3012674D01*
X646253Y-3012674D02*
X646253Y-3060293D01*
X646253Y-3060293D02*
X636729Y-3098388D01*
X636729Y-3098388D02*
X627205Y-3117436D01*
X627205Y-3117436D02*
X617682Y-3126960D01*
X617682Y-3126960D02*
X598634Y-3136484D01*
X598634Y-3136484D02*
X579586Y-3136484D01*
X579586Y-3136484D02*
X560539Y-3126960D01*
X560539Y-3126960D02*
X551015Y-3117436D01*
X551015Y-3117436D02*
X541491Y-3098388D01*
X541491Y-3098388D02*
X531967Y-3060293D01*
X531967Y-3060293D02*
X531967Y-3012674D01*
X531967Y-3012674D02*
X541491Y-2974579D01*
X541491Y-2974579D02*
X551015Y-2955531D01*
X551015Y-2955531D02*
X560539Y-2946008D01*
X560539Y-2946008D02*
X579586Y-2936484D01*
X770062Y-2936484D02*
X789110Y-2936484D01*
X789110Y-2936484D02*
X808158Y-2946008D01*
X808158Y-2946008D02*
X817682Y-2955531D01*
X817682Y-2955531D02*
X827205Y-2974579D01*
X827205Y-2974579D02*
X836729Y-3012674D01*
X836729Y-3012674D02*
X836729Y-3060293D01*
X836729Y-3060293D02*
X827205Y-3098388D01*
X827205Y-3098388D02*
X817682Y-3117436D01*
X817682Y-3117436D02*
X808158Y-3126960D01*
X808158Y-3126960D02*
X789110Y-3136484D01*
X789110Y-3136484D02*
X770062Y-3136484D01*
X770062Y-3136484D02*
X751015Y-3126960D01*
X751015Y-3126960D02*
X741491Y-3117436D01*
X741491Y-3117436D02*
X731967Y-3098388D01*
X731967Y-3098388D02*
X722443Y-3060293D01*
X722443Y-3060293D02*
X722443Y-3012674D01*
X722443Y-3012674D02*
X731967Y-2974579D01*
X731967Y-2974579D02*
X741491Y-2955531D01*
X741491Y-2955531D02*
X751015Y-2946008D01*
X751015Y-2946008D02*
X770062Y-2936484D01*
X960539Y-2936484D02*
X979586Y-2936484D01*
X979586Y-2936484D02*
X998634Y-2946008D01*
X998634Y-2946008D02*
X1008158Y-2955531D01*
X1008158Y-2955531D02*
X1017682Y-2974579D01*
X1017682Y-2974579D02*
X1027205Y-3012674D01*
X1027205Y-3012674D02*
X1027205Y-3060293D01*
X1027205Y-3060293D02*
X1017682Y-3098388D01*
X1017682Y-3098388D02*
X1008158Y-3117436D01*
X1008158Y-3117436D02*
X998634Y-3126960D01*
X998634Y-3126960D02*
X979586Y-3136484D01*
X979586Y-3136484D02*
X960539Y-3136484D01*
X960539Y-3136484D02*
X941491Y-3126960D01*
X941491Y-3126960D02*
X931967Y-3117436D01*
X931967Y-3117436D02*
X922443Y-3098388D01*
X922443Y-3098388D02*
X912920Y-3060293D01*
X912920Y-3060293D02*
X912920Y-3012674D01*
X912920Y-3012674D02*
X922443Y-2974579D01*
X922443Y-2974579D02*
X931967Y-2955531D01*
X931967Y-2955531D02*
X941491Y-2946008D01*
X941491Y-2946008D02*
X960539Y-2936484D01*
X1112920Y-3136484D02*
X1112920Y-3003150D01*
X1112920Y-3022198D02*
X1122444Y-3012674D01*
X1122444Y-3012674D02*
X1141491Y-3003150D01*
X1141491Y-3003150D02*
X1170063Y-3003150D01*
X1170063Y-3003150D02*
X1189110Y-3012674D01*
X1189110Y-3012674D02*
X1198634Y-3031722D01*
X1198634Y-3031722D02*
X1198634Y-3136484D01*
X1198634Y-3031722D02*
X1208158Y-3012674D01*
X1208158Y-3012674D02*
X1227205Y-3003150D01*
X1227205Y-3003150D02*
X1255777Y-3003150D01*
X1255777Y-3003150D02*
X1274825Y-3012674D01*
X1274825Y-3012674D02*
X1284348Y-3031722D01*
X1284348Y-3031722D02*
X1284348Y-3136484D01*
X1379586Y-3136484D02*
X1379586Y-3003150D01*
X1379586Y-3022198D02*
X1389110Y-3012674D01*
X1389110Y-3012674D02*
X1408158Y-3003150D01*
X1408158Y-3003150D02*
X1436729Y-3003150D01*
X1436729Y-3003150D02*
X1455777Y-3012674D01*
X1455777Y-3012674D02*
X1465301Y-3031722D01*
X1465301Y-3031722D02*
X1465301Y-3136484D01*
X1465301Y-3031722D02*
X1474824Y-3012674D01*
X1474824Y-3012674D02*
X1493872Y-3003150D01*
X1493872Y-3003150D02*
X1522443Y-3003150D01*
X1522443Y-3003150D02*
X1541491Y-3012674D01*
X1541491Y-3012674D02*
X1551015Y-3031722D01*
X1551015Y-3031722D02*
X1551015Y-3136484D01*
X1941491Y-2926960D02*
X1770063Y-3184103D01*
X2198634Y-2936484D02*
X2217682Y-2936484D01*
X2217682Y-2936484D02*
X2236729Y-2946008D01*
X2236729Y-2946008D02*
X2246253Y-2955531D01*
X2246253Y-2955531D02*
X2255777Y-2974579D01*
X2255777Y-2974579D02*
X2265301Y-3012674D01*
X2265301Y-3012674D02*
X2265301Y-3060293D01*
X2265301Y-3060293D02*
X2255777Y-3098388D01*
X2255777Y-3098388D02*
X2246253Y-3117436D01*
X2246253Y-3117436D02*
X2236729Y-3126960D01*
X2236729Y-3126960D02*
X2217682Y-3136484D01*
X2217682Y-3136484D02*
X2198634Y-3136484D01*
X2198634Y-3136484D02*
X2179587Y-3126960D01*
X2179587Y-3126960D02*
X2170063Y-3117436D01*
X2170063Y-3117436D02*
X2160539Y-3098388D01*
X2160539Y-3098388D02*
X2151015Y-3060293D01*
X2151015Y-3060293D02*
X2151015Y-3012674D01*
X2151015Y-3012674D02*
X2160539Y-2974579D01*
X2160539Y-2974579D02*
X2170063Y-2955531D01*
X2170063Y-2955531D02*
X2179587Y-2946008D01*
X2179587Y-2946008D02*
X2198634Y-2936484D01*
X2351015Y-3117436D02*
X2360539Y-3126960D01*
X2360539Y-3126960D02*
X2351015Y-3136484D01*
X2351015Y-3136484D02*
X2341491Y-3126960D01*
X2341491Y-3126960D02*
X2351015Y-3117436D01*
X2351015Y-3117436D02*
X2351015Y-3136484D01*
X2484348Y-2936484D02*
X2503396Y-2936484D01*
X2503396Y-2936484D02*
X2522444Y-2946008D01*
X2522444Y-2946008D02*
X2531968Y-2955531D01*
X2531968Y-2955531D02*
X2541491Y-2974579D01*
X2541491Y-2974579D02*
X2551015Y-3012674D01*
X2551015Y-3012674D02*
X2551015Y-3060293D01*
X2551015Y-3060293D02*
X2541491Y-3098388D01*
X2541491Y-3098388D02*
X2531968Y-3117436D01*
X2531968Y-3117436D02*
X2522444Y-3126960D01*
X2522444Y-3126960D02*
X2503396Y-3136484D01*
X2503396Y-3136484D02*
X2484348Y-3136484D01*
X2484348Y-3136484D02*
X2465301Y-3126960D01*
X2465301Y-3126960D02*
X2455777Y-3117436D01*
X2455777Y-3117436D02*
X2446253Y-3098388D01*
X2446253Y-3098388D02*
X2436729Y-3060293D01*
X2436729Y-3060293D02*
X2436729Y-3012674D01*
X2436729Y-3012674D02*
X2446253Y-2974579D01*
X2446253Y-2974579D02*
X2455777Y-2955531D01*
X2455777Y-2955531D02*
X2465301Y-2946008D01*
X2465301Y-2946008D02*
X2484348Y-2936484D01*
X2617682Y-2936484D02*
X2741491Y-2936484D01*
X2741491Y-2936484D02*
X2674825Y-3012674D01*
X2674825Y-3012674D02*
X2703396Y-3012674D01*
X2703396Y-3012674D02*
X2722444Y-3022198D01*
X2722444Y-3022198D02*
X2731968Y-3031722D01*
X2731968Y-3031722D02*
X2741491Y-3050769D01*
X2741491Y-3050769D02*
X2741491Y-3098388D01*
X2741491Y-3098388D02*
X2731968Y-3117436D01*
X2731968Y-3117436D02*
X2722444Y-3126960D01*
X2722444Y-3126960D02*
X2703396Y-3136484D01*
X2703396Y-3136484D02*
X2646253Y-3136484D01*
X2646253Y-3136484D02*
X2627206Y-3126960D01*
X2627206Y-3126960D02*
X2617682Y-3117436D01*
X2836729Y-3136484D02*
X2874825Y-3136484D01*
X2874825Y-3136484D02*
X2893872Y-3126960D01*
X2893872Y-3126960D02*
X2903396Y-3117436D01*
X2903396Y-3117436D02*
X2922444Y-3088865D01*
X2922444Y-3088865D02*
X2931967Y-3050769D01*
X2931967Y-3050769D02*
X2931967Y-2974579D01*
X2931967Y-2974579D02*
X2922444Y-2955531D01*
X2922444Y-2955531D02*
X2912920Y-2946008D01*
X2912920Y-2946008D02*
X2893872Y-2936484D01*
X2893872Y-2936484D02*
X2855777Y-2936484D01*
X2855777Y-2936484D02*
X2836729Y-2946008D01*
X2836729Y-2946008D02*
X2827206Y-2955531D01*
X2827206Y-2955531D02*
X2817682Y-2974579D01*
X2817682Y-2974579D02*
X2817682Y-3022198D01*
X2817682Y-3022198D02*
X2827206Y-3041246D01*
X2827206Y-3041246D02*
X2836729Y-3050769D01*
X2836729Y-3050769D02*
X2855777Y-3060293D01*
X2855777Y-3060293D02*
X2893872Y-3060293D01*
X2893872Y-3060293D02*
X2912920Y-3050769D01*
X2912920Y-3050769D02*
X2922444Y-3041246D01*
X2922444Y-3041246D02*
X2931967Y-3022198D01*
X3103396Y-3003150D02*
X3103396Y-3136484D01*
X3055777Y-2926960D02*
X3008158Y-3069817D01*
X3008158Y-3069817D02*
X3131967Y-3069817D01*
X3198634Y-2936484D02*
X3198634Y-2974579D01*
X3274825Y-2936484D02*
X3274825Y-2974579D01*
X3570063Y-3212674D02*
X3560539Y-3203150D01*
X3560539Y-3203150D02*
X3541491Y-3174579D01*
X3541491Y-3174579D02*
X3531968Y-3155531D01*
X3531968Y-3155531D02*
X3522444Y-3126960D01*
X3522444Y-3126960D02*
X3512920Y-3079341D01*
X3512920Y-3079341D02*
X3512920Y-3041246D01*
X3512920Y-3041246D02*
X3522444Y-2993627D01*
X3522444Y-2993627D02*
X3531968Y-2965055D01*
X3531968Y-2965055D02*
X3541491Y-2946008D01*
X3541491Y-2946008D02*
X3560539Y-2917436D01*
X3560539Y-2917436D02*
X3570063Y-2907912D01*
X3731968Y-3003150D02*
X3731968Y-3136484D01*
X3684348Y-2926960D02*
X3636729Y-3069817D01*
X3636729Y-3069817D02*
X3760539Y-3069817D01*
X3874825Y-2936484D02*
X3893872Y-2936484D01*
X3893872Y-2936484D02*
X3912920Y-2946008D01*
X3912920Y-2946008D02*
X3922444Y-2955531D01*
X3922444Y-2955531D02*
X3931968Y-2974579D01*
X3931968Y-2974579D02*
X3941491Y-3012674D01*
X3941491Y-3012674D02*
X3941491Y-3060293D01*
X3941491Y-3060293D02*
X3931968Y-3098388D01*
X3931968Y-3098388D02*
X3922444Y-3117436D01*
X3922444Y-3117436D02*
X3912920Y-3126960D01*
X3912920Y-3126960D02*
X3893872Y-3136484D01*
X3893872Y-3136484D02*
X3874825Y-3136484D01*
X3874825Y-3136484D02*
X3855777Y-3126960D01*
X3855777Y-3126960D02*
X3846253Y-3117436D01*
X3846253Y-3117436D02*
X3836729Y-3098388D01*
X3836729Y-3098388D02*
X3827206Y-3060293D01*
X3827206Y-3060293D02*
X3827206Y-3012674D01*
X3827206Y-3012674D02*
X3836729Y-2974579D01*
X3836729Y-2974579D02*
X3846253Y-2955531D01*
X3846253Y-2955531D02*
X3855777Y-2946008D01*
X3855777Y-2946008D02*
X3874825Y-2936484D01*
X4179587Y-3136484D02*
X4179587Y-2936484D01*
X4265301Y-3136484D02*
X4265301Y-3031722D01*
X4265301Y-3031722D02*
X4255777Y-3012674D01*
X4255777Y-3012674D02*
X4236730Y-3003150D01*
X4236730Y-3003150D02*
X4208158Y-3003150D01*
X4208158Y-3003150D02*
X4189110Y-3012674D01*
X4189110Y-3012674D02*
X4179587Y-3022198D01*
X4389111Y-3136484D02*
X4370063Y-3126960D01*
X4370063Y-3126960D02*
X4360539Y-3117436D01*
X4360539Y-3117436D02*
X4351015Y-3098388D01*
X4351015Y-3098388D02*
X4351015Y-3041246D01*
X4351015Y-3041246D02*
X4360539Y-3022198D01*
X4360539Y-3022198D02*
X4370063Y-3012674D01*
X4370063Y-3012674D02*
X4389111Y-3003150D01*
X4389111Y-3003150D02*
X4417682Y-3003150D01*
X4417682Y-3003150D02*
X4436730Y-3012674D01*
X4436730Y-3012674D02*
X4446253Y-3022198D01*
X4446253Y-3022198D02*
X4455777Y-3041246D01*
X4455777Y-3041246D02*
X4455777Y-3098388D01*
X4455777Y-3098388D02*
X4446253Y-3117436D01*
X4446253Y-3117436D02*
X4436730Y-3126960D01*
X4436730Y-3126960D02*
X4417682Y-3136484D01*
X4417682Y-3136484D02*
X4389111Y-3136484D01*
X4570063Y-3136484D02*
X4551015Y-3126960D01*
X4551015Y-3126960D02*
X4541492Y-3107912D01*
X4541492Y-3107912D02*
X4541492Y-2936484D01*
X4722444Y-3126960D02*
X4703396Y-3136484D01*
X4703396Y-3136484D02*
X4665301Y-3136484D01*
X4665301Y-3136484D02*
X4646253Y-3126960D01*
X4646253Y-3126960D02*
X4636730Y-3107912D01*
X4636730Y-3107912D02*
X4636730Y-3031722D01*
X4636730Y-3031722D02*
X4646253Y-3012674D01*
X4646253Y-3012674D02*
X4665301Y-3003150D01*
X4665301Y-3003150D02*
X4703396Y-3003150D01*
X4703396Y-3003150D02*
X4722444Y-3012674D01*
X4722444Y-3012674D02*
X4731968Y-3031722D01*
X4731968Y-3031722D02*
X4731968Y-3050769D01*
X4731968Y-3050769D02*
X4636730Y-3069817D01*
X4808158Y-3126960D02*
X4827206Y-3136484D01*
X4827206Y-3136484D02*
X4865301Y-3136484D01*
X4865301Y-3136484D02*
X4884349Y-3126960D01*
X4884349Y-3126960D02*
X4893873Y-3107912D01*
X4893873Y-3107912D02*
X4893873Y-3098388D01*
X4893873Y-3098388D02*
X4884349Y-3079341D01*
X4884349Y-3079341D02*
X4865301Y-3069817D01*
X4865301Y-3069817D02*
X4836730Y-3069817D01*
X4836730Y-3069817D02*
X4817682Y-3060293D01*
X4817682Y-3060293D02*
X4808158Y-3041246D01*
X4808158Y-3041246D02*
X4808158Y-3031722D01*
X4808158Y-3031722D02*
X4817682Y-3012674D01*
X4817682Y-3012674D02*
X4836730Y-3003150D01*
X4836730Y-3003150D02*
X4865301Y-3003150D01*
X4865301Y-3003150D02*
X4884349Y-3012674D01*
X4960539Y-3212674D02*
X4970063Y-3203150D01*
X4970063Y-3203150D02*
X4989111Y-3174579D01*
X4989111Y-3174579D02*
X4998634Y-3155531D01*
X4998634Y-3155531D02*
X5008158Y-3126960D01*
X5008158Y-3126960D02*
X5017682Y-3079341D01*
X5017682Y-3079341D02*
X5017682Y-3041246D01*
X5017682Y-3041246D02*
X5008158Y-2993627D01*
X5008158Y-2993627D02*
X4998634Y-2965055D01*
X4998634Y-2965055D02*
X4989111Y-2946008D01*
X4989111Y-2946008D02*
X4970063Y-2917436D01*
X4970063Y-2917436D02*
X4960539Y-2907912D01*
D12*
X-5000Y-3309000D02*
G75*
G03*
X-107000Y-3309000I-51000J0D01*
G01*
X-107000Y-3309000D02*
G75*
G03*
X-5000Y-3309000I51000J0D01*
G01*
D11*
X360539Y-3400484D02*
X246253Y-3400484D01*
X303396Y-3400484D02*
X303396Y-3200484D01*
X303396Y-3200484D02*
X284348Y-3229055D01*
X284348Y-3229055D02*
X265301Y-3248103D01*
X265301Y-3248103D02*
X246253Y-3257627D01*
X446253Y-3381436D02*
X455777Y-3390960D01*
X455777Y-3390960D02*
X446253Y-3400484D01*
X446253Y-3400484D02*
X436729Y-3390960D01*
X436729Y-3390960D02*
X446253Y-3381436D01*
X446253Y-3381436D02*
X446253Y-3400484D01*
X579586Y-3200484D02*
X598634Y-3200484D01*
X598634Y-3200484D02*
X617682Y-3210008D01*
X617682Y-3210008D02*
X627205Y-3219531D01*
X627205Y-3219531D02*
X636729Y-3238579D01*
X636729Y-3238579D02*
X646253Y-3276674D01*
X646253Y-3276674D02*
X646253Y-3324293D01*
X646253Y-3324293D02*
X636729Y-3362388D01*
X636729Y-3362388D02*
X627205Y-3381436D01*
X627205Y-3381436D02*
X617682Y-3390960D01*
X617682Y-3390960D02*
X598634Y-3400484D01*
X598634Y-3400484D02*
X579586Y-3400484D01*
X579586Y-3400484D02*
X560539Y-3390960D01*
X560539Y-3390960D02*
X551015Y-3381436D01*
X551015Y-3381436D02*
X541491Y-3362388D01*
X541491Y-3362388D02*
X531967Y-3324293D01*
X531967Y-3324293D02*
X531967Y-3276674D01*
X531967Y-3276674D02*
X541491Y-3238579D01*
X541491Y-3238579D02*
X551015Y-3219531D01*
X551015Y-3219531D02*
X560539Y-3210008D01*
X560539Y-3210008D02*
X579586Y-3200484D01*
X722443Y-3219531D02*
X731967Y-3210008D01*
X731967Y-3210008D02*
X751015Y-3200484D01*
X751015Y-3200484D02*
X798634Y-3200484D01*
X798634Y-3200484D02*
X817682Y-3210008D01*
X817682Y-3210008D02*
X827205Y-3219531D01*
X827205Y-3219531D02*
X836729Y-3238579D01*
X836729Y-3238579D02*
X836729Y-3257627D01*
X836729Y-3257627D02*
X827205Y-3286198D01*
X827205Y-3286198D02*
X712920Y-3400484D01*
X712920Y-3400484D02*
X836729Y-3400484D01*
X960539Y-3200484D02*
X979586Y-3200484D01*
X979586Y-3200484D02*
X998634Y-3210008D01*
X998634Y-3210008D02*
X1008158Y-3219531D01*
X1008158Y-3219531D02*
X1017682Y-3238579D01*
X1017682Y-3238579D02*
X1027205Y-3276674D01*
X1027205Y-3276674D02*
X1027205Y-3324293D01*
X1027205Y-3324293D02*
X1017682Y-3362388D01*
X1017682Y-3362388D02*
X1008158Y-3381436D01*
X1008158Y-3381436D02*
X998634Y-3390960D01*
X998634Y-3390960D02*
X979586Y-3400484D01*
X979586Y-3400484D02*
X960539Y-3400484D01*
X960539Y-3400484D02*
X941491Y-3390960D01*
X941491Y-3390960D02*
X931967Y-3381436D01*
X931967Y-3381436D02*
X922443Y-3362388D01*
X922443Y-3362388D02*
X912920Y-3324293D01*
X912920Y-3324293D02*
X912920Y-3276674D01*
X912920Y-3276674D02*
X922443Y-3238579D01*
X922443Y-3238579D02*
X931967Y-3219531D01*
X931967Y-3219531D02*
X941491Y-3210008D01*
X941491Y-3210008D02*
X960539Y-3200484D01*
X1112920Y-3400484D02*
X1112920Y-3267150D01*
X1112920Y-3286198D02*
X1122444Y-3276674D01*
X1122444Y-3276674D02*
X1141491Y-3267150D01*
X1141491Y-3267150D02*
X1170063Y-3267150D01*
X1170063Y-3267150D02*
X1189110Y-3276674D01*
X1189110Y-3276674D02*
X1198634Y-3295722D01*
X1198634Y-3295722D02*
X1198634Y-3400484D01*
X1198634Y-3295722D02*
X1208158Y-3276674D01*
X1208158Y-3276674D02*
X1227205Y-3267150D01*
X1227205Y-3267150D02*
X1255777Y-3267150D01*
X1255777Y-3267150D02*
X1274825Y-3276674D01*
X1274825Y-3276674D02*
X1284348Y-3295722D01*
X1284348Y-3295722D02*
X1284348Y-3400484D01*
X1379586Y-3400484D02*
X1379586Y-3267150D01*
X1379586Y-3286198D02*
X1389110Y-3276674D01*
X1389110Y-3276674D02*
X1408158Y-3267150D01*
X1408158Y-3267150D02*
X1436729Y-3267150D01*
X1436729Y-3267150D02*
X1455777Y-3276674D01*
X1455777Y-3276674D02*
X1465301Y-3295722D01*
X1465301Y-3295722D02*
X1465301Y-3400484D01*
X1465301Y-3295722D02*
X1474824Y-3276674D01*
X1474824Y-3276674D02*
X1493872Y-3267150D01*
X1493872Y-3267150D02*
X1522443Y-3267150D01*
X1522443Y-3267150D02*
X1541491Y-3276674D01*
X1541491Y-3276674D02*
X1551015Y-3295722D01*
X1551015Y-3295722D02*
X1551015Y-3400484D01*
X1941491Y-3190960D02*
X1770063Y-3448103D01*
X2198634Y-3200484D02*
X2217682Y-3200484D01*
X2217682Y-3200484D02*
X2236729Y-3210008D01*
X2236729Y-3210008D02*
X2246253Y-3219531D01*
X2246253Y-3219531D02*
X2255777Y-3238579D01*
X2255777Y-3238579D02*
X2265301Y-3276674D01*
X2265301Y-3276674D02*
X2265301Y-3324293D01*
X2265301Y-3324293D02*
X2255777Y-3362388D01*
X2255777Y-3362388D02*
X2246253Y-3381436D01*
X2246253Y-3381436D02*
X2236729Y-3390960D01*
X2236729Y-3390960D02*
X2217682Y-3400484D01*
X2217682Y-3400484D02*
X2198634Y-3400484D01*
X2198634Y-3400484D02*
X2179587Y-3390960D01*
X2179587Y-3390960D02*
X2170063Y-3381436D01*
X2170063Y-3381436D02*
X2160539Y-3362388D01*
X2160539Y-3362388D02*
X2151015Y-3324293D01*
X2151015Y-3324293D02*
X2151015Y-3276674D01*
X2151015Y-3276674D02*
X2160539Y-3238579D01*
X2160539Y-3238579D02*
X2170063Y-3219531D01*
X2170063Y-3219531D02*
X2179587Y-3210008D01*
X2179587Y-3210008D02*
X2198634Y-3200484D01*
X2351015Y-3381436D02*
X2360539Y-3390960D01*
X2360539Y-3390960D02*
X2351015Y-3400484D01*
X2351015Y-3400484D02*
X2341491Y-3390960D01*
X2341491Y-3390960D02*
X2351015Y-3381436D01*
X2351015Y-3381436D02*
X2351015Y-3400484D01*
X2484348Y-3200484D02*
X2503396Y-3200484D01*
X2503396Y-3200484D02*
X2522444Y-3210008D01*
X2522444Y-3210008D02*
X2531968Y-3219531D01*
X2531968Y-3219531D02*
X2541491Y-3238579D01*
X2541491Y-3238579D02*
X2551015Y-3276674D01*
X2551015Y-3276674D02*
X2551015Y-3324293D01*
X2551015Y-3324293D02*
X2541491Y-3362388D01*
X2541491Y-3362388D02*
X2531968Y-3381436D01*
X2531968Y-3381436D02*
X2522444Y-3390960D01*
X2522444Y-3390960D02*
X2503396Y-3400484D01*
X2503396Y-3400484D02*
X2484348Y-3400484D01*
X2484348Y-3400484D02*
X2465301Y-3390960D01*
X2465301Y-3390960D02*
X2455777Y-3381436D01*
X2455777Y-3381436D02*
X2446253Y-3362388D01*
X2446253Y-3362388D02*
X2436729Y-3324293D01*
X2436729Y-3324293D02*
X2436729Y-3276674D01*
X2436729Y-3276674D02*
X2446253Y-3238579D01*
X2446253Y-3238579D02*
X2455777Y-3219531D01*
X2455777Y-3219531D02*
X2465301Y-3210008D01*
X2465301Y-3210008D02*
X2484348Y-3200484D01*
X2722444Y-3267150D02*
X2722444Y-3400484D01*
X2674825Y-3190960D02*
X2627206Y-3333817D01*
X2627206Y-3333817D02*
X2751015Y-3333817D01*
X2865301Y-3200484D02*
X2884348Y-3200484D01*
X2884348Y-3200484D02*
X2903396Y-3210008D01*
X2903396Y-3210008D02*
X2912920Y-3219531D01*
X2912920Y-3219531D02*
X2922444Y-3238579D01*
X2922444Y-3238579D02*
X2931967Y-3276674D01*
X2931967Y-3276674D02*
X2931967Y-3324293D01*
X2931967Y-3324293D02*
X2922444Y-3362388D01*
X2922444Y-3362388D02*
X2912920Y-3381436D01*
X2912920Y-3381436D02*
X2903396Y-3390960D01*
X2903396Y-3390960D02*
X2884348Y-3400484D01*
X2884348Y-3400484D02*
X2865301Y-3400484D01*
X2865301Y-3400484D02*
X2846253Y-3390960D01*
X2846253Y-3390960D02*
X2836729Y-3381436D01*
X2836729Y-3381436D02*
X2827206Y-3362388D01*
X2827206Y-3362388D02*
X2817682Y-3324293D01*
X2817682Y-3324293D02*
X2817682Y-3276674D01*
X2817682Y-3276674D02*
X2827206Y-3238579D01*
X2827206Y-3238579D02*
X2836729Y-3219531D01*
X2836729Y-3219531D02*
X2846253Y-3210008D01*
X2846253Y-3210008D02*
X2865301Y-3200484D01*
X3008158Y-3219531D02*
X3017682Y-3210008D01*
X3017682Y-3210008D02*
X3036729Y-3200484D01*
X3036729Y-3200484D02*
X3084348Y-3200484D01*
X3084348Y-3200484D02*
X3103396Y-3210008D01*
X3103396Y-3210008D02*
X3112920Y-3219531D01*
X3112920Y-3219531D02*
X3122444Y-3238579D01*
X3122444Y-3238579D02*
X3122444Y-3257627D01*
X3122444Y-3257627D02*
X3112920Y-3286198D01*
X3112920Y-3286198D02*
X2998634Y-3400484D01*
X2998634Y-3400484D02*
X3122444Y-3400484D01*
X3198634Y-3200484D02*
X3198634Y-3238579D01*
X3274825Y-3200484D02*
X3274825Y-3238579D01*
X3570063Y-3476674D02*
X3560539Y-3467150D01*
X3560539Y-3467150D02*
X3541491Y-3438579D01*
X3541491Y-3438579D02*
X3531968Y-3419531D01*
X3531968Y-3419531D02*
X3522444Y-3390960D01*
X3522444Y-3390960D02*
X3512920Y-3343341D01*
X3512920Y-3343341D02*
X3512920Y-3305246D01*
X3512920Y-3305246D02*
X3522444Y-3257627D01*
X3522444Y-3257627D02*
X3531968Y-3229055D01*
X3531968Y-3229055D02*
X3541491Y-3210008D01*
X3541491Y-3210008D02*
X3560539Y-3181436D01*
X3560539Y-3181436D02*
X3570063Y-3171912D01*
X3731968Y-3267150D02*
X3731968Y-3400484D01*
X3684348Y-3190960D02*
X3636729Y-3333817D01*
X3636729Y-3333817D02*
X3760539Y-3333817D01*
X3989110Y-3400484D02*
X3989110Y-3200484D01*
X4074825Y-3400484D02*
X4074825Y-3295722D01*
X4074825Y-3295722D02*
X4065301Y-3276674D01*
X4065301Y-3276674D02*
X4046253Y-3267150D01*
X4046253Y-3267150D02*
X4017682Y-3267150D01*
X4017682Y-3267150D02*
X3998634Y-3276674D01*
X3998634Y-3276674D02*
X3989110Y-3286198D01*
X4198634Y-3400484D02*
X4179587Y-3390960D01*
X4179587Y-3390960D02*
X4170063Y-3381436D01*
X4170063Y-3381436D02*
X4160539Y-3362388D01*
X4160539Y-3362388D02*
X4160539Y-3305246D01*
X4160539Y-3305246D02*
X4170063Y-3286198D01*
X4170063Y-3286198D02*
X4179587Y-3276674D01*
X4179587Y-3276674D02*
X4198634Y-3267150D01*
X4198634Y-3267150D02*
X4227206Y-3267150D01*
X4227206Y-3267150D02*
X4246253Y-3276674D01*
X4246253Y-3276674D02*
X4255777Y-3286198D01*
X4255777Y-3286198D02*
X4265301Y-3305246D01*
X4265301Y-3305246D02*
X4265301Y-3362388D01*
X4265301Y-3362388D02*
X4255777Y-3381436D01*
X4255777Y-3381436D02*
X4246253Y-3390960D01*
X4246253Y-3390960D02*
X4227206Y-3400484D01*
X4227206Y-3400484D02*
X4198634Y-3400484D01*
X4379587Y-3400484D02*
X4360539Y-3390960D01*
X4360539Y-3390960D02*
X4351015Y-3371912D01*
X4351015Y-3371912D02*
X4351015Y-3200484D01*
X4531968Y-3390960D02*
X4512920Y-3400484D01*
X4512920Y-3400484D02*
X4474825Y-3400484D01*
X4474825Y-3400484D02*
X4455777Y-3390960D01*
X4455777Y-3390960D02*
X4446253Y-3371912D01*
X4446253Y-3371912D02*
X4446253Y-3295722D01*
X4446253Y-3295722D02*
X4455777Y-3276674D01*
X4455777Y-3276674D02*
X4474825Y-3267150D01*
X4474825Y-3267150D02*
X4512920Y-3267150D01*
X4512920Y-3267150D02*
X4531968Y-3276674D01*
X4531968Y-3276674D02*
X4541492Y-3295722D01*
X4541492Y-3295722D02*
X4541492Y-3314769D01*
X4541492Y-3314769D02*
X4446253Y-3333817D01*
X4617682Y-3390960D02*
X4636730Y-3400484D01*
X4636730Y-3400484D02*
X4674825Y-3400484D01*
X4674825Y-3400484D02*
X4693873Y-3390960D01*
X4693873Y-3390960D02*
X4703396Y-3371912D01*
X4703396Y-3371912D02*
X4703396Y-3362388D01*
X4703396Y-3362388D02*
X4693873Y-3343341D01*
X4693873Y-3343341D02*
X4674825Y-3333817D01*
X4674825Y-3333817D02*
X4646253Y-3333817D01*
X4646253Y-3333817D02*
X4627206Y-3324293D01*
X4627206Y-3324293D02*
X4617682Y-3305246D01*
X4617682Y-3305246D02*
X4617682Y-3295722D01*
X4617682Y-3295722D02*
X4627206Y-3276674D01*
X4627206Y-3276674D02*
X4646253Y-3267150D01*
X4646253Y-3267150D02*
X4674825Y-3267150D01*
X4674825Y-3267150D02*
X4693873Y-3276674D01*
X4770063Y-3476674D02*
X4779587Y-3467150D01*
X4779587Y-3467150D02*
X4798634Y-3438579D01*
X4798634Y-3438579D02*
X4808158Y-3419531D01*
X4808158Y-3419531D02*
X4817682Y-3390960D01*
X4817682Y-3390960D02*
X4827206Y-3343341D01*
X4827206Y-3343341D02*
X4827206Y-3305246D01*
X4827206Y-3305246D02*
X4817682Y-3257627D01*
X4817682Y-3257627D02*
X4808158Y-3229055D01*
X4808158Y-3229055D02*
X4798634Y-3210008D01*
X4798634Y-3210008D02*
X4779587Y-3181436D01*
X4779587Y-3181436D02*
X4770063Y-3171912D01*
X-105000Y-3473000D02*
X-105000Y-3673000D01*
X-205000Y-3573000D02*
X-5000Y-3573000D01*
X246253Y-3483531D02*
X255777Y-3474008D01*
X255777Y-3474008D02*
X274824Y-3464484D01*
X274824Y-3464484D02*
X322444Y-3464484D01*
X322444Y-3464484D02*
X341491Y-3474008D01*
X341491Y-3474008D02*
X351015Y-3483531D01*
X351015Y-3483531D02*
X360539Y-3502579D01*
X360539Y-3502579D02*
X360539Y-3521627D01*
X360539Y-3521627D02*
X351015Y-3550198D01*
X351015Y-3550198D02*
X236729Y-3664484D01*
X236729Y-3664484D02*
X360539Y-3664484D01*
X446253Y-3645436D02*
X455777Y-3654960D01*
X455777Y-3654960D02*
X446253Y-3664484D01*
X446253Y-3664484D02*
X436729Y-3654960D01*
X436729Y-3654960D02*
X446253Y-3645436D01*
X446253Y-3645436D02*
X446253Y-3664484D01*
X522443Y-3464484D02*
X655777Y-3464484D01*
X655777Y-3464484D02*
X570063Y-3664484D01*
X770062Y-3464484D02*
X789110Y-3464484D01*
X789110Y-3464484D02*
X808158Y-3474008D01*
X808158Y-3474008D02*
X817682Y-3483531D01*
X817682Y-3483531D02*
X827205Y-3502579D01*
X827205Y-3502579D02*
X836729Y-3540674D01*
X836729Y-3540674D02*
X836729Y-3588293D01*
X836729Y-3588293D02*
X827205Y-3626388D01*
X827205Y-3626388D02*
X817682Y-3645436D01*
X817682Y-3645436D02*
X808158Y-3654960D01*
X808158Y-3654960D02*
X789110Y-3664484D01*
X789110Y-3664484D02*
X770062Y-3664484D01*
X770062Y-3664484D02*
X751015Y-3654960D01*
X751015Y-3654960D02*
X741491Y-3645436D01*
X741491Y-3645436D02*
X731967Y-3626388D01*
X731967Y-3626388D02*
X722443Y-3588293D01*
X722443Y-3588293D02*
X722443Y-3540674D01*
X722443Y-3540674D02*
X731967Y-3502579D01*
X731967Y-3502579D02*
X741491Y-3483531D01*
X741491Y-3483531D02*
X751015Y-3474008D01*
X751015Y-3474008D02*
X770062Y-3464484D01*
X960539Y-3464484D02*
X979586Y-3464484D01*
X979586Y-3464484D02*
X998634Y-3474008D01*
X998634Y-3474008D02*
X1008158Y-3483531D01*
X1008158Y-3483531D02*
X1017682Y-3502579D01*
X1017682Y-3502579D02*
X1027205Y-3540674D01*
X1027205Y-3540674D02*
X1027205Y-3588293D01*
X1027205Y-3588293D02*
X1017682Y-3626388D01*
X1017682Y-3626388D02*
X1008158Y-3645436D01*
X1008158Y-3645436D02*
X998634Y-3654960D01*
X998634Y-3654960D02*
X979586Y-3664484D01*
X979586Y-3664484D02*
X960539Y-3664484D01*
X960539Y-3664484D02*
X941491Y-3654960D01*
X941491Y-3654960D02*
X931967Y-3645436D01*
X931967Y-3645436D02*
X922443Y-3626388D01*
X922443Y-3626388D02*
X912920Y-3588293D01*
X912920Y-3588293D02*
X912920Y-3540674D01*
X912920Y-3540674D02*
X922443Y-3502579D01*
X922443Y-3502579D02*
X931967Y-3483531D01*
X931967Y-3483531D02*
X941491Y-3474008D01*
X941491Y-3474008D02*
X960539Y-3464484D01*
X1112920Y-3664484D02*
X1112920Y-3531150D01*
X1112920Y-3550198D02*
X1122444Y-3540674D01*
X1122444Y-3540674D02*
X1141491Y-3531150D01*
X1141491Y-3531150D02*
X1170063Y-3531150D01*
X1170063Y-3531150D02*
X1189110Y-3540674D01*
X1189110Y-3540674D02*
X1198634Y-3559722D01*
X1198634Y-3559722D02*
X1198634Y-3664484D01*
X1198634Y-3559722D02*
X1208158Y-3540674D01*
X1208158Y-3540674D02*
X1227205Y-3531150D01*
X1227205Y-3531150D02*
X1255777Y-3531150D01*
X1255777Y-3531150D02*
X1274825Y-3540674D01*
X1274825Y-3540674D02*
X1284348Y-3559722D01*
X1284348Y-3559722D02*
X1284348Y-3664484D01*
X1379586Y-3664484D02*
X1379586Y-3531150D01*
X1379586Y-3550198D02*
X1389110Y-3540674D01*
X1389110Y-3540674D02*
X1408158Y-3531150D01*
X1408158Y-3531150D02*
X1436729Y-3531150D01*
X1436729Y-3531150D02*
X1455777Y-3540674D01*
X1455777Y-3540674D02*
X1465301Y-3559722D01*
X1465301Y-3559722D02*
X1465301Y-3664484D01*
X1465301Y-3559722D02*
X1474824Y-3540674D01*
X1474824Y-3540674D02*
X1493872Y-3531150D01*
X1493872Y-3531150D02*
X1522443Y-3531150D01*
X1522443Y-3531150D02*
X1541491Y-3540674D01*
X1541491Y-3540674D02*
X1551015Y-3559722D01*
X1551015Y-3559722D02*
X1551015Y-3664484D01*
X1941491Y-3454960D02*
X1770063Y-3712103D01*
X2198634Y-3464484D02*
X2217682Y-3464484D01*
X2217682Y-3464484D02*
X2236729Y-3474008D01*
X2236729Y-3474008D02*
X2246253Y-3483531D01*
X2246253Y-3483531D02*
X2255777Y-3502579D01*
X2255777Y-3502579D02*
X2265301Y-3540674D01*
X2265301Y-3540674D02*
X2265301Y-3588293D01*
X2265301Y-3588293D02*
X2255777Y-3626388D01*
X2255777Y-3626388D02*
X2246253Y-3645436D01*
X2246253Y-3645436D02*
X2236729Y-3654960D01*
X2236729Y-3654960D02*
X2217682Y-3664484D01*
X2217682Y-3664484D02*
X2198634Y-3664484D01*
X2198634Y-3664484D02*
X2179587Y-3654960D01*
X2179587Y-3654960D02*
X2170063Y-3645436D01*
X2170063Y-3645436D02*
X2160539Y-3626388D01*
X2160539Y-3626388D02*
X2151015Y-3588293D01*
X2151015Y-3588293D02*
X2151015Y-3540674D01*
X2151015Y-3540674D02*
X2160539Y-3502579D01*
X2160539Y-3502579D02*
X2170063Y-3483531D01*
X2170063Y-3483531D02*
X2179587Y-3474008D01*
X2179587Y-3474008D02*
X2198634Y-3464484D01*
X2351015Y-3645436D02*
X2360539Y-3654960D01*
X2360539Y-3654960D02*
X2351015Y-3664484D01*
X2351015Y-3664484D02*
X2341491Y-3654960D01*
X2341491Y-3654960D02*
X2351015Y-3645436D01*
X2351015Y-3645436D02*
X2351015Y-3664484D01*
X2551015Y-3664484D02*
X2436729Y-3664484D01*
X2493872Y-3664484D02*
X2493872Y-3464484D01*
X2493872Y-3464484D02*
X2474825Y-3493055D01*
X2474825Y-3493055D02*
X2455777Y-3512103D01*
X2455777Y-3512103D02*
X2436729Y-3521627D01*
X2674825Y-3464484D02*
X2693872Y-3464484D01*
X2693872Y-3464484D02*
X2712920Y-3474008D01*
X2712920Y-3474008D02*
X2722444Y-3483531D01*
X2722444Y-3483531D02*
X2731968Y-3502579D01*
X2731968Y-3502579D02*
X2741491Y-3540674D01*
X2741491Y-3540674D02*
X2741491Y-3588293D01*
X2741491Y-3588293D02*
X2731968Y-3626388D01*
X2731968Y-3626388D02*
X2722444Y-3645436D01*
X2722444Y-3645436D02*
X2712920Y-3654960D01*
X2712920Y-3654960D02*
X2693872Y-3664484D01*
X2693872Y-3664484D02*
X2674825Y-3664484D01*
X2674825Y-3664484D02*
X2655777Y-3654960D01*
X2655777Y-3654960D02*
X2646253Y-3645436D01*
X2646253Y-3645436D02*
X2636729Y-3626388D01*
X2636729Y-3626388D02*
X2627206Y-3588293D01*
X2627206Y-3588293D02*
X2627206Y-3540674D01*
X2627206Y-3540674D02*
X2636729Y-3502579D01*
X2636729Y-3502579D02*
X2646253Y-3483531D01*
X2646253Y-3483531D02*
X2655777Y-3474008D01*
X2655777Y-3474008D02*
X2674825Y-3464484D01*
X2912920Y-3464484D02*
X2874825Y-3464484D01*
X2874825Y-3464484D02*
X2855777Y-3474008D01*
X2855777Y-3474008D02*
X2846253Y-3483531D01*
X2846253Y-3483531D02*
X2827206Y-3512103D01*
X2827206Y-3512103D02*
X2817682Y-3550198D01*
X2817682Y-3550198D02*
X2817682Y-3626388D01*
X2817682Y-3626388D02*
X2827206Y-3645436D01*
X2827206Y-3645436D02*
X2836729Y-3654960D01*
X2836729Y-3654960D02*
X2855777Y-3664484D01*
X2855777Y-3664484D02*
X2893872Y-3664484D01*
X2893872Y-3664484D02*
X2912920Y-3654960D01*
X2912920Y-3654960D02*
X2922444Y-3645436D01*
X2922444Y-3645436D02*
X2931967Y-3626388D01*
X2931967Y-3626388D02*
X2931967Y-3578769D01*
X2931967Y-3578769D02*
X2922444Y-3559722D01*
X2922444Y-3559722D02*
X2912920Y-3550198D01*
X2912920Y-3550198D02*
X2893872Y-3540674D01*
X2893872Y-3540674D02*
X2855777Y-3540674D01*
X2855777Y-3540674D02*
X2836729Y-3550198D01*
X2836729Y-3550198D02*
X2827206Y-3559722D01*
X2827206Y-3559722D02*
X2817682Y-3578769D01*
X2998634Y-3464484D02*
X3122444Y-3464484D01*
X3122444Y-3464484D02*
X3055777Y-3540674D01*
X3055777Y-3540674D02*
X3084348Y-3540674D01*
X3084348Y-3540674D02*
X3103396Y-3550198D01*
X3103396Y-3550198D02*
X3112920Y-3559722D01*
X3112920Y-3559722D02*
X3122444Y-3578769D01*
X3122444Y-3578769D02*
X3122444Y-3626388D01*
X3122444Y-3626388D02*
X3112920Y-3645436D01*
X3112920Y-3645436D02*
X3103396Y-3654960D01*
X3103396Y-3654960D02*
X3084348Y-3664484D01*
X3084348Y-3664484D02*
X3027206Y-3664484D01*
X3027206Y-3664484D02*
X3008158Y-3654960D01*
X3008158Y-3654960D02*
X2998634Y-3645436D01*
X3198634Y-3464484D02*
X3198634Y-3502579D01*
X3274825Y-3464484D02*
X3274825Y-3502579D01*
X3570063Y-3740674D02*
X3560539Y-3731150D01*
X3560539Y-3731150D02*
X3541491Y-3702579D01*
X3541491Y-3702579D02*
X3531968Y-3683531D01*
X3531968Y-3683531D02*
X3522444Y-3654960D01*
X3522444Y-3654960D02*
X3512920Y-3607341D01*
X3512920Y-3607341D02*
X3512920Y-3569246D01*
X3512920Y-3569246D02*
X3522444Y-3521627D01*
X3522444Y-3521627D02*
X3531968Y-3493055D01*
X3531968Y-3493055D02*
X3541491Y-3474008D01*
X3541491Y-3474008D02*
X3560539Y-3445436D01*
X3560539Y-3445436D02*
X3570063Y-3435912D01*
X3636729Y-3483531D02*
X3646253Y-3474008D01*
X3646253Y-3474008D02*
X3665301Y-3464484D01*
X3665301Y-3464484D02*
X3712920Y-3464484D01*
X3712920Y-3464484D02*
X3731968Y-3474008D01*
X3731968Y-3474008D02*
X3741491Y-3483531D01*
X3741491Y-3483531D02*
X3751015Y-3502579D01*
X3751015Y-3502579D02*
X3751015Y-3521627D01*
X3751015Y-3521627D02*
X3741491Y-3550198D01*
X3741491Y-3550198D02*
X3627206Y-3664484D01*
X3627206Y-3664484D02*
X3751015Y-3664484D01*
X3989110Y-3664484D02*
X3989110Y-3464484D01*
X4074825Y-3664484D02*
X4074825Y-3559722D01*
X4074825Y-3559722D02*
X4065301Y-3540674D01*
X4065301Y-3540674D02*
X4046253Y-3531150D01*
X4046253Y-3531150D02*
X4017682Y-3531150D01*
X4017682Y-3531150D02*
X3998634Y-3540674D01*
X3998634Y-3540674D02*
X3989110Y-3550198D01*
X4198634Y-3664484D02*
X4179587Y-3654960D01*
X4179587Y-3654960D02*
X4170063Y-3645436D01*
X4170063Y-3645436D02*
X4160539Y-3626388D01*
X4160539Y-3626388D02*
X4160539Y-3569246D01*
X4160539Y-3569246D02*
X4170063Y-3550198D01*
X4170063Y-3550198D02*
X4179587Y-3540674D01*
X4179587Y-3540674D02*
X4198634Y-3531150D01*
X4198634Y-3531150D02*
X4227206Y-3531150D01*
X4227206Y-3531150D02*
X4246253Y-3540674D01*
X4246253Y-3540674D02*
X4255777Y-3550198D01*
X4255777Y-3550198D02*
X4265301Y-3569246D01*
X4265301Y-3569246D02*
X4265301Y-3626388D01*
X4265301Y-3626388D02*
X4255777Y-3645436D01*
X4255777Y-3645436D02*
X4246253Y-3654960D01*
X4246253Y-3654960D02*
X4227206Y-3664484D01*
X4227206Y-3664484D02*
X4198634Y-3664484D01*
X4379587Y-3664484D02*
X4360539Y-3654960D01*
X4360539Y-3654960D02*
X4351015Y-3635912D01*
X4351015Y-3635912D02*
X4351015Y-3464484D01*
X4531968Y-3654960D02*
X4512920Y-3664484D01*
X4512920Y-3664484D02*
X4474825Y-3664484D01*
X4474825Y-3664484D02*
X4455777Y-3654960D01*
X4455777Y-3654960D02*
X4446253Y-3635912D01*
X4446253Y-3635912D02*
X4446253Y-3559722D01*
X4446253Y-3559722D02*
X4455777Y-3540674D01*
X4455777Y-3540674D02*
X4474825Y-3531150D01*
X4474825Y-3531150D02*
X4512920Y-3531150D01*
X4512920Y-3531150D02*
X4531968Y-3540674D01*
X4531968Y-3540674D02*
X4541492Y-3559722D01*
X4541492Y-3559722D02*
X4541492Y-3578769D01*
X4541492Y-3578769D02*
X4446253Y-3597817D01*
X4617682Y-3654960D02*
X4636730Y-3664484D01*
X4636730Y-3664484D02*
X4674825Y-3664484D01*
X4674825Y-3664484D02*
X4693873Y-3654960D01*
X4693873Y-3654960D02*
X4703396Y-3635912D01*
X4703396Y-3635912D02*
X4703396Y-3626388D01*
X4703396Y-3626388D02*
X4693873Y-3607341D01*
X4693873Y-3607341D02*
X4674825Y-3597817D01*
X4674825Y-3597817D02*
X4646253Y-3597817D01*
X4646253Y-3597817D02*
X4627206Y-3588293D01*
X4627206Y-3588293D02*
X4617682Y-3569246D01*
X4617682Y-3569246D02*
X4617682Y-3559722D01*
X4617682Y-3559722D02*
X4627206Y-3540674D01*
X4627206Y-3540674D02*
X4646253Y-3531150D01*
X4646253Y-3531150D02*
X4674825Y-3531150D01*
X4674825Y-3531150D02*
X4693873Y-3540674D01*
X4770063Y-3740674D02*
X4779587Y-3731150D01*
X4779587Y-3731150D02*
X4798634Y-3702579D01*
X4798634Y-3702579D02*
X4808158Y-3683531D01*
X4808158Y-3683531D02*
X4817682Y-3654960D01*
X4817682Y-3654960D02*
X4827206Y-3607341D01*
X4827206Y-3607341D02*
X4827206Y-3569246D01*
X4827206Y-3569246D02*
X4817682Y-3521627D01*
X4817682Y-3521627D02*
X4808158Y-3493055D01*
X4808158Y-3493055D02*
X4798634Y-3474008D01*
X4798634Y-3474008D02*
X4779587Y-3445436D01*
X4779587Y-3445436D02*
X4770063Y-3435912D01*
X5131968Y-3740674D02*
X5122444Y-3731150D01*
X5122444Y-3731150D02*
X5103396Y-3702579D01*
X5103396Y-3702579D02*
X5093873Y-3683531D01*
X5093873Y-3683531D02*
X5084349Y-3654960D01*
X5084349Y-3654960D02*
X5074825Y-3607341D01*
X5074825Y-3607341D02*
X5074825Y-3569246D01*
X5074825Y-3569246D02*
X5084349Y-3521627D01*
X5084349Y-3521627D02*
X5093873Y-3493055D01*
X5093873Y-3493055D02*
X5103396Y-3474008D01*
X5103396Y-3474008D02*
X5122444Y-3445436D01*
X5122444Y-3445436D02*
X5131968Y-3435912D01*
X5208158Y-3531150D02*
X5208158Y-3664484D01*
X5208158Y-3550198D02*
X5217682Y-3540674D01*
X5217682Y-3540674D02*
X5236730Y-3531150D01*
X5236730Y-3531150D02*
X5265301Y-3531150D01*
X5265301Y-3531150D02*
X5284349Y-3540674D01*
X5284349Y-3540674D02*
X5293873Y-3559722D01*
X5293873Y-3559722D02*
X5293873Y-3664484D01*
X5417682Y-3664484D02*
X5398634Y-3654960D01*
X5398634Y-3654960D02*
X5389111Y-3645436D01*
X5389111Y-3645436D02*
X5379587Y-3626388D01*
X5379587Y-3626388D02*
X5379587Y-3569246D01*
X5379587Y-3569246D02*
X5389111Y-3550198D01*
X5389111Y-3550198D02*
X5398634Y-3540674D01*
X5398634Y-3540674D02*
X5417682Y-3531150D01*
X5417682Y-3531150D02*
X5446254Y-3531150D01*
X5446254Y-3531150D02*
X5465301Y-3540674D01*
X5465301Y-3540674D02*
X5474825Y-3550198D01*
X5474825Y-3550198D02*
X5484349Y-3569246D01*
X5484349Y-3569246D02*
X5484349Y-3626388D01*
X5484349Y-3626388D02*
X5474825Y-3645436D01*
X5474825Y-3645436D02*
X5465301Y-3654960D01*
X5465301Y-3654960D02*
X5446254Y-3664484D01*
X5446254Y-3664484D02*
X5417682Y-3664484D01*
X5541492Y-3531150D02*
X5617682Y-3531150D01*
X5570063Y-3464484D02*
X5570063Y-3635912D01*
X5570063Y-3635912D02*
X5579587Y-3654960D01*
X5579587Y-3654960D02*
X5598634Y-3664484D01*
X5598634Y-3664484D02*
X5617682Y-3664484D01*
X5836730Y-3531150D02*
X5836730Y-3731150D01*
X5836730Y-3540674D02*
X5855777Y-3531150D01*
X5855777Y-3531150D02*
X5893873Y-3531150D01*
X5893873Y-3531150D02*
X5912920Y-3540674D01*
X5912920Y-3540674D02*
X5922444Y-3550198D01*
X5922444Y-3550198D02*
X5931968Y-3569246D01*
X5931968Y-3569246D02*
X5931968Y-3626388D01*
X5931968Y-3626388D02*
X5922444Y-3645436D01*
X5922444Y-3645436D02*
X5912920Y-3654960D01*
X5912920Y-3654960D02*
X5893873Y-3664484D01*
X5893873Y-3664484D02*
X5855777Y-3664484D01*
X5855777Y-3664484D02*
X5836730Y-3654960D01*
X6046253Y-3664484D02*
X6027206Y-3654960D01*
X6027206Y-3654960D02*
X6017682Y-3635912D01*
X6017682Y-3635912D02*
X6017682Y-3464484D01*
X6208158Y-3664484D02*
X6208158Y-3559722D01*
X6208158Y-3559722D02*
X6198634Y-3540674D01*
X6198634Y-3540674D02*
X6179587Y-3531150D01*
X6179587Y-3531150D02*
X6141492Y-3531150D01*
X6141492Y-3531150D02*
X6122444Y-3540674D01*
X6208158Y-3654960D02*
X6189111Y-3664484D01*
X6189111Y-3664484D02*
X6141492Y-3664484D01*
X6141492Y-3664484D02*
X6122444Y-3654960D01*
X6122444Y-3654960D02*
X6112920Y-3635912D01*
X6112920Y-3635912D02*
X6112920Y-3616865D01*
X6112920Y-3616865D02*
X6122444Y-3597817D01*
X6122444Y-3597817D02*
X6141492Y-3588293D01*
X6141492Y-3588293D02*
X6189111Y-3588293D01*
X6189111Y-3588293D02*
X6208158Y-3578769D01*
X6274825Y-3531150D02*
X6351015Y-3531150D01*
X6303396Y-3464484D02*
X6303396Y-3635912D01*
X6303396Y-3635912D02*
X6312920Y-3654960D01*
X6312920Y-3654960D02*
X6331968Y-3664484D01*
X6331968Y-3664484D02*
X6351015Y-3664484D01*
X6493873Y-3654960D02*
X6474825Y-3664484D01*
X6474825Y-3664484D02*
X6436730Y-3664484D01*
X6436730Y-3664484D02*
X6417682Y-3654960D01*
X6417682Y-3654960D02*
X6408158Y-3635912D01*
X6408158Y-3635912D02*
X6408158Y-3559722D01*
X6408158Y-3559722D02*
X6417682Y-3540674D01*
X6417682Y-3540674D02*
X6436730Y-3531150D01*
X6436730Y-3531150D02*
X6474825Y-3531150D01*
X6474825Y-3531150D02*
X6493873Y-3540674D01*
X6493873Y-3540674D02*
X6503396Y-3559722D01*
X6503396Y-3559722D02*
X6503396Y-3578769D01*
X6503396Y-3578769D02*
X6408158Y-3597817D01*
X6674825Y-3664484D02*
X6674825Y-3464484D01*
X6674825Y-3654960D02*
X6655777Y-3664484D01*
X6655777Y-3664484D02*
X6617682Y-3664484D01*
X6617682Y-3664484D02*
X6598634Y-3654960D01*
X6598634Y-3654960D02*
X6589111Y-3645436D01*
X6589111Y-3645436D02*
X6579587Y-3626388D01*
X6579587Y-3626388D02*
X6579587Y-3569246D01*
X6579587Y-3569246D02*
X6589111Y-3550198D01*
X6589111Y-3550198D02*
X6598634Y-3540674D01*
X6598634Y-3540674D02*
X6617682Y-3531150D01*
X6617682Y-3531150D02*
X6655777Y-3531150D01*
X6655777Y-3531150D02*
X6674825Y-3540674D01*
X6751015Y-3740674D02*
X6760539Y-3731150D01*
X6760539Y-3731150D02*
X6779587Y-3702579D01*
X6779587Y-3702579D02*
X6789111Y-3683531D01*
X6789111Y-3683531D02*
X6798634Y-3654960D01*
X6798634Y-3654960D02*
X6808158Y-3607341D01*
X6808158Y-3607341D02*
X6808158Y-3569246D01*
X6808158Y-3569246D02*
X6798634Y-3521627D01*
X6798634Y-3521627D02*
X6789111Y-3493055D01*
X6789111Y-3493055D02*
X6779587Y-3474008D01*
X6779587Y-3474008D02*
X6760539Y-3445436D01*
X6760539Y-3445436D02*
X6751015Y-3435912D01*
X-34289Y-3963711D02*
X-34289Y-3822289D01*
X-175711Y-3822289D01*
X-175711Y-3963711D01*
X-34289Y-3963711D01*
X236729Y-3784484D02*
X360539Y-3784484D01*
X360539Y-3784484D02*
X293872Y-3860674D01*
X293872Y-3860674D02*
X322444Y-3860674D01*
X322444Y-3860674D02*
X341491Y-3870198D01*
X341491Y-3870198D02*
X351015Y-3879722D01*
X351015Y-3879722D02*
X360539Y-3898769D01*
X360539Y-3898769D02*
X360539Y-3946388D01*
X360539Y-3946388D02*
X351015Y-3965436D01*
X351015Y-3965436D02*
X341491Y-3974960D01*
X341491Y-3974960D02*
X322444Y-3984484D01*
X322444Y-3984484D02*
X265301Y-3984484D01*
X265301Y-3984484D02*
X246253Y-3974960D01*
X246253Y-3974960D02*
X236729Y-3965436D01*
X446253Y-3965436D02*
X455777Y-3974960D01*
X455777Y-3974960D02*
X446253Y-3984484D01*
X446253Y-3984484D02*
X436729Y-3974960D01*
X436729Y-3974960D02*
X446253Y-3965436D01*
X446253Y-3965436D02*
X446253Y-3984484D01*
X579586Y-3784484D02*
X598634Y-3784484D01*
X598634Y-3784484D02*
X617682Y-3794008D01*
X617682Y-3794008D02*
X627205Y-3803531D01*
X627205Y-3803531D02*
X636729Y-3822579D01*
X636729Y-3822579D02*
X646253Y-3860674D01*
X646253Y-3860674D02*
X646253Y-3908293D01*
X646253Y-3908293D02*
X636729Y-3946388D01*
X636729Y-3946388D02*
X627205Y-3965436D01*
X627205Y-3965436D02*
X617682Y-3974960D01*
X617682Y-3974960D02*
X598634Y-3984484D01*
X598634Y-3984484D02*
X579586Y-3984484D01*
X579586Y-3984484D02*
X560539Y-3974960D01*
X560539Y-3974960D02*
X551015Y-3965436D01*
X551015Y-3965436D02*
X541491Y-3946388D01*
X541491Y-3946388D02*
X531967Y-3908293D01*
X531967Y-3908293D02*
X531967Y-3860674D01*
X531967Y-3860674D02*
X541491Y-3822579D01*
X541491Y-3822579D02*
X551015Y-3803531D01*
X551015Y-3803531D02*
X560539Y-3794008D01*
X560539Y-3794008D02*
X579586Y-3784484D01*
X770062Y-3784484D02*
X789110Y-3784484D01*
X789110Y-3784484D02*
X808158Y-3794008D01*
X808158Y-3794008D02*
X817682Y-3803531D01*
X817682Y-3803531D02*
X827205Y-3822579D01*
X827205Y-3822579D02*
X836729Y-3860674D01*
X836729Y-3860674D02*
X836729Y-3908293D01*
X836729Y-3908293D02*
X827205Y-3946388D01*
X827205Y-3946388D02*
X817682Y-3965436D01*
X817682Y-3965436D02*
X808158Y-3974960D01*
X808158Y-3974960D02*
X789110Y-3984484D01*
X789110Y-3984484D02*
X770062Y-3984484D01*
X770062Y-3984484D02*
X751015Y-3974960D01*
X751015Y-3974960D02*
X741491Y-3965436D01*
X741491Y-3965436D02*
X731967Y-3946388D01*
X731967Y-3946388D02*
X722443Y-3908293D01*
X722443Y-3908293D02*
X722443Y-3860674D01*
X722443Y-3860674D02*
X731967Y-3822579D01*
X731967Y-3822579D02*
X741491Y-3803531D01*
X741491Y-3803531D02*
X751015Y-3794008D01*
X751015Y-3794008D02*
X770062Y-3784484D01*
X960539Y-3784484D02*
X979586Y-3784484D01*
X979586Y-3784484D02*
X998634Y-3794008D01*
X998634Y-3794008D02*
X1008158Y-3803531D01*
X1008158Y-3803531D02*
X1017682Y-3822579D01*
X1017682Y-3822579D02*
X1027205Y-3860674D01*
X1027205Y-3860674D02*
X1027205Y-3908293D01*
X1027205Y-3908293D02*
X1017682Y-3946388D01*
X1017682Y-3946388D02*
X1008158Y-3965436D01*
X1008158Y-3965436D02*
X998634Y-3974960D01*
X998634Y-3974960D02*
X979586Y-3984484D01*
X979586Y-3984484D02*
X960539Y-3984484D01*
X960539Y-3984484D02*
X941491Y-3974960D01*
X941491Y-3974960D02*
X931967Y-3965436D01*
X931967Y-3965436D02*
X922443Y-3946388D01*
X922443Y-3946388D02*
X912920Y-3908293D01*
X912920Y-3908293D02*
X912920Y-3860674D01*
X912920Y-3860674D02*
X922443Y-3822579D01*
X922443Y-3822579D02*
X931967Y-3803531D01*
X931967Y-3803531D02*
X941491Y-3794008D01*
X941491Y-3794008D02*
X960539Y-3784484D01*
X1112920Y-3984484D02*
X1112920Y-3851150D01*
X1112920Y-3870198D02*
X1122444Y-3860674D01*
X1122444Y-3860674D02*
X1141491Y-3851150D01*
X1141491Y-3851150D02*
X1170063Y-3851150D01*
X1170063Y-3851150D02*
X1189110Y-3860674D01*
X1189110Y-3860674D02*
X1198634Y-3879722D01*
X1198634Y-3879722D02*
X1198634Y-3984484D01*
X1198634Y-3879722D02*
X1208158Y-3860674D01*
X1208158Y-3860674D02*
X1227205Y-3851150D01*
X1227205Y-3851150D02*
X1255777Y-3851150D01*
X1255777Y-3851150D02*
X1274825Y-3860674D01*
X1274825Y-3860674D02*
X1284348Y-3879722D01*
X1284348Y-3879722D02*
X1284348Y-3984484D01*
X1379586Y-3984484D02*
X1379586Y-3851150D01*
X1379586Y-3870198D02*
X1389110Y-3860674D01*
X1389110Y-3860674D02*
X1408158Y-3851150D01*
X1408158Y-3851150D02*
X1436729Y-3851150D01*
X1436729Y-3851150D02*
X1455777Y-3860674D01*
X1455777Y-3860674D02*
X1465301Y-3879722D01*
X1465301Y-3879722D02*
X1465301Y-3984484D01*
X1465301Y-3879722D02*
X1474824Y-3860674D01*
X1474824Y-3860674D02*
X1493872Y-3851150D01*
X1493872Y-3851150D02*
X1522443Y-3851150D01*
X1522443Y-3851150D02*
X1541491Y-3860674D01*
X1541491Y-3860674D02*
X1551015Y-3879722D01*
X1551015Y-3879722D02*
X1551015Y-3984484D01*
X1941491Y-3774960D02*
X1770063Y-4032103D01*
X2198634Y-3784484D02*
X2217682Y-3784484D01*
X2217682Y-3784484D02*
X2236729Y-3794008D01*
X2236729Y-3794008D02*
X2246253Y-3803531D01*
X2246253Y-3803531D02*
X2255777Y-3822579D01*
X2255777Y-3822579D02*
X2265301Y-3860674D01*
X2265301Y-3860674D02*
X2265301Y-3908293D01*
X2265301Y-3908293D02*
X2255777Y-3946388D01*
X2255777Y-3946388D02*
X2246253Y-3965436D01*
X2246253Y-3965436D02*
X2236729Y-3974960D01*
X2236729Y-3974960D02*
X2217682Y-3984484D01*
X2217682Y-3984484D02*
X2198634Y-3984484D01*
X2198634Y-3984484D02*
X2179587Y-3974960D01*
X2179587Y-3974960D02*
X2170063Y-3965436D01*
X2170063Y-3965436D02*
X2160539Y-3946388D01*
X2160539Y-3946388D02*
X2151015Y-3908293D01*
X2151015Y-3908293D02*
X2151015Y-3860674D01*
X2151015Y-3860674D02*
X2160539Y-3822579D01*
X2160539Y-3822579D02*
X2170063Y-3803531D01*
X2170063Y-3803531D02*
X2179587Y-3794008D01*
X2179587Y-3794008D02*
X2198634Y-3784484D01*
X2351015Y-3965436D02*
X2360539Y-3974960D01*
X2360539Y-3974960D02*
X2351015Y-3984484D01*
X2351015Y-3984484D02*
X2341491Y-3974960D01*
X2341491Y-3974960D02*
X2351015Y-3965436D01*
X2351015Y-3965436D02*
X2351015Y-3984484D01*
X2551015Y-3984484D02*
X2436729Y-3984484D01*
X2493872Y-3984484D02*
X2493872Y-3784484D01*
X2493872Y-3784484D02*
X2474825Y-3813055D01*
X2474825Y-3813055D02*
X2455777Y-3832103D01*
X2455777Y-3832103D02*
X2436729Y-3841627D01*
X2741491Y-3984484D02*
X2627206Y-3984484D01*
X2684348Y-3984484D02*
X2684348Y-3784484D01*
X2684348Y-3784484D02*
X2665301Y-3813055D01*
X2665301Y-3813055D02*
X2646253Y-3832103D01*
X2646253Y-3832103D02*
X2627206Y-3841627D01*
X2855777Y-3870198D02*
X2836729Y-3860674D01*
X2836729Y-3860674D02*
X2827206Y-3851150D01*
X2827206Y-3851150D02*
X2817682Y-3832103D01*
X2817682Y-3832103D02*
X2817682Y-3822579D01*
X2817682Y-3822579D02*
X2827206Y-3803531D01*
X2827206Y-3803531D02*
X2836729Y-3794008D01*
X2836729Y-3794008D02*
X2855777Y-3784484D01*
X2855777Y-3784484D02*
X2893872Y-3784484D01*
X2893872Y-3784484D02*
X2912920Y-3794008D01*
X2912920Y-3794008D02*
X2922444Y-3803531D01*
X2922444Y-3803531D02*
X2931967Y-3822579D01*
X2931967Y-3822579D02*
X2931967Y-3832103D01*
X2931967Y-3832103D02*
X2922444Y-3851150D01*
X2922444Y-3851150D02*
X2912920Y-3860674D01*
X2912920Y-3860674D02*
X2893872Y-3870198D01*
X2893872Y-3870198D02*
X2855777Y-3870198D01*
X2855777Y-3870198D02*
X2836729Y-3879722D01*
X2836729Y-3879722D02*
X2827206Y-3889246D01*
X2827206Y-3889246D02*
X2817682Y-3908293D01*
X2817682Y-3908293D02*
X2817682Y-3946388D01*
X2817682Y-3946388D02*
X2827206Y-3965436D01*
X2827206Y-3965436D02*
X2836729Y-3974960D01*
X2836729Y-3974960D02*
X2855777Y-3984484D01*
X2855777Y-3984484D02*
X2893872Y-3984484D01*
X2893872Y-3984484D02*
X2912920Y-3974960D01*
X2912920Y-3974960D02*
X2922444Y-3965436D01*
X2922444Y-3965436D02*
X2931967Y-3946388D01*
X2931967Y-3946388D02*
X2931967Y-3908293D01*
X2931967Y-3908293D02*
X2922444Y-3889246D01*
X2922444Y-3889246D02*
X2912920Y-3879722D01*
X2912920Y-3879722D02*
X2893872Y-3870198D01*
X3122444Y-3984484D02*
X3008158Y-3984484D01*
X3065301Y-3984484D02*
X3065301Y-3784484D01*
X3065301Y-3784484D02*
X3046253Y-3813055D01*
X3046253Y-3813055D02*
X3027206Y-3832103D01*
X3027206Y-3832103D02*
X3008158Y-3841627D01*
X3198634Y-3784484D02*
X3198634Y-3822579D01*
X3274825Y-3784484D02*
X3274825Y-3822579D01*
X3570063Y-4060674D02*
X3560539Y-4051150D01*
X3560539Y-4051150D02*
X3541491Y-4022579D01*
X3541491Y-4022579D02*
X3531968Y-4003531D01*
X3531968Y-4003531D02*
X3522444Y-3974960D01*
X3522444Y-3974960D02*
X3512920Y-3927341D01*
X3512920Y-3927341D02*
X3512920Y-3889246D01*
X3512920Y-3889246D02*
X3522444Y-3841627D01*
X3522444Y-3841627D02*
X3531968Y-3813055D01*
X3531968Y-3813055D02*
X3541491Y-3794008D01*
X3541491Y-3794008D02*
X3560539Y-3765436D01*
X3560539Y-3765436D02*
X3570063Y-3755912D01*
X3751015Y-3984484D02*
X3636729Y-3984484D01*
X3693872Y-3984484D02*
X3693872Y-3784484D01*
X3693872Y-3784484D02*
X3674825Y-3813055D01*
X3674825Y-3813055D02*
X3655777Y-3832103D01*
X3655777Y-3832103D02*
X3636729Y-3841627D01*
X3989110Y-3984484D02*
X3989110Y-3784484D01*
X4074825Y-3984484D02*
X4074825Y-3879722D01*
X4074825Y-3879722D02*
X4065301Y-3860674D01*
X4065301Y-3860674D02*
X4046253Y-3851150D01*
X4046253Y-3851150D02*
X4017682Y-3851150D01*
X4017682Y-3851150D02*
X3998634Y-3860674D01*
X3998634Y-3860674D02*
X3989110Y-3870198D01*
X4198634Y-3984484D02*
X4179587Y-3974960D01*
X4179587Y-3974960D02*
X4170063Y-3965436D01*
X4170063Y-3965436D02*
X4160539Y-3946388D01*
X4160539Y-3946388D02*
X4160539Y-3889246D01*
X4160539Y-3889246D02*
X4170063Y-3870198D01*
X4170063Y-3870198D02*
X4179587Y-3860674D01*
X4179587Y-3860674D02*
X4198634Y-3851150D01*
X4198634Y-3851150D02*
X4227206Y-3851150D01*
X4227206Y-3851150D02*
X4246253Y-3860674D01*
X4246253Y-3860674D02*
X4255777Y-3870198D01*
X4255777Y-3870198D02*
X4265301Y-3889246D01*
X4265301Y-3889246D02*
X4265301Y-3946388D01*
X4265301Y-3946388D02*
X4255777Y-3965436D01*
X4255777Y-3965436D02*
X4246253Y-3974960D01*
X4246253Y-3974960D02*
X4227206Y-3984484D01*
X4227206Y-3984484D02*
X4198634Y-3984484D01*
X4379587Y-3984484D02*
X4360539Y-3974960D01*
X4360539Y-3974960D02*
X4351015Y-3955912D01*
X4351015Y-3955912D02*
X4351015Y-3784484D01*
X4531968Y-3974960D02*
X4512920Y-3984484D01*
X4512920Y-3984484D02*
X4474825Y-3984484D01*
X4474825Y-3984484D02*
X4455777Y-3974960D01*
X4455777Y-3974960D02*
X4446253Y-3955912D01*
X4446253Y-3955912D02*
X4446253Y-3879722D01*
X4446253Y-3879722D02*
X4455777Y-3860674D01*
X4455777Y-3860674D02*
X4474825Y-3851150D01*
X4474825Y-3851150D02*
X4512920Y-3851150D01*
X4512920Y-3851150D02*
X4531968Y-3860674D01*
X4531968Y-3860674D02*
X4541492Y-3879722D01*
X4541492Y-3879722D02*
X4541492Y-3898769D01*
X4541492Y-3898769D02*
X4446253Y-3917817D01*
X4608158Y-4060674D02*
X4617682Y-4051150D01*
X4617682Y-4051150D02*
X4636730Y-4022579D01*
X4636730Y-4022579D02*
X4646253Y-4003531D01*
X4646253Y-4003531D02*
X4655777Y-3974960D01*
X4655777Y-3974960D02*
X4665301Y-3927341D01*
X4665301Y-3927341D02*
X4665301Y-3889246D01*
X4665301Y-3889246D02*
X4655777Y-3841627D01*
X4655777Y-3841627D02*
X4646253Y-3813055D01*
X4646253Y-3813055D02*
X4636730Y-3794008D01*
X4636730Y-3794008D02*
X4617682Y-3765436D01*
X4617682Y-3765436D02*
X4608158Y-3755912D01*
X4970063Y-4060674D02*
X4960539Y-4051150D01*
X4960539Y-4051150D02*
X4941492Y-4022579D01*
X4941492Y-4022579D02*
X4931968Y-4003531D01*
X4931968Y-4003531D02*
X4922444Y-3974960D01*
X4922444Y-3974960D02*
X4912920Y-3927341D01*
X4912920Y-3927341D02*
X4912920Y-3889246D01*
X4912920Y-3889246D02*
X4922444Y-3841627D01*
X4922444Y-3841627D02*
X4931968Y-3813055D01*
X4931968Y-3813055D02*
X4941492Y-3794008D01*
X4941492Y-3794008D02*
X4960539Y-3765436D01*
X4960539Y-3765436D02*
X4970063Y-3755912D01*
X5046253Y-3851150D02*
X5046253Y-3984484D01*
X5046253Y-3870198D02*
X5055777Y-3860674D01*
X5055777Y-3860674D02*
X5074825Y-3851150D01*
X5074825Y-3851150D02*
X5103396Y-3851150D01*
X5103396Y-3851150D02*
X5122444Y-3860674D01*
X5122444Y-3860674D02*
X5131968Y-3879722D01*
X5131968Y-3879722D02*
X5131968Y-3984484D01*
X5255777Y-3984484D02*
X5236730Y-3974960D01*
X5236730Y-3974960D02*
X5227206Y-3965436D01*
X5227206Y-3965436D02*
X5217682Y-3946388D01*
X5217682Y-3946388D02*
X5217682Y-3889246D01*
X5217682Y-3889246D02*
X5227206Y-3870198D01*
X5227206Y-3870198D02*
X5236730Y-3860674D01*
X5236730Y-3860674D02*
X5255777Y-3851150D01*
X5255777Y-3851150D02*
X5284349Y-3851150D01*
X5284349Y-3851150D02*
X5303396Y-3860674D01*
X5303396Y-3860674D02*
X5312920Y-3870198D01*
X5312920Y-3870198D02*
X5322444Y-3889246D01*
X5322444Y-3889246D02*
X5322444Y-3946388D01*
X5322444Y-3946388D02*
X5312920Y-3965436D01*
X5312920Y-3965436D02*
X5303396Y-3974960D01*
X5303396Y-3974960D02*
X5284349Y-3984484D01*
X5284349Y-3984484D02*
X5255777Y-3984484D01*
X5379587Y-3851150D02*
X5455777Y-3851150D01*
X5408158Y-3784484D02*
X5408158Y-3955912D01*
X5408158Y-3955912D02*
X5417682Y-3974960D01*
X5417682Y-3974960D02*
X5436730Y-3984484D01*
X5436730Y-3984484D02*
X5455777Y-3984484D01*
X5674825Y-3851150D02*
X5674825Y-4051150D01*
X5674825Y-3860674D02*
X5693872Y-3851150D01*
X5693872Y-3851150D02*
X5731968Y-3851150D01*
X5731968Y-3851150D02*
X5751015Y-3860674D01*
X5751015Y-3860674D02*
X5760539Y-3870198D01*
X5760539Y-3870198D02*
X5770063Y-3889246D01*
X5770063Y-3889246D02*
X5770063Y-3946388D01*
X5770063Y-3946388D02*
X5760539Y-3965436D01*
X5760539Y-3965436D02*
X5751015Y-3974960D01*
X5751015Y-3974960D02*
X5731968Y-3984484D01*
X5731968Y-3984484D02*
X5693872Y-3984484D01*
X5693872Y-3984484D02*
X5674825Y-3974960D01*
X5884349Y-3984484D02*
X5865301Y-3974960D01*
X5865301Y-3974960D02*
X5855777Y-3955912D01*
X5855777Y-3955912D02*
X5855777Y-3784484D01*
X6046253Y-3984484D02*
X6046253Y-3879722D01*
X6046253Y-3879722D02*
X6036730Y-3860674D01*
X6036730Y-3860674D02*
X6017682Y-3851150D01*
X6017682Y-3851150D02*
X5979587Y-3851150D01*
X5979587Y-3851150D02*
X5960539Y-3860674D01*
X6046253Y-3974960D02*
X6027206Y-3984484D01*
X6027206Y-3984484D02*
X5979587Y-3984484D01*
X5979587Y-3984484D02*
X5960539Y-3974960D01*
X5960539Y-3974960D02*
X5951015Y-3955912D01*
X5951015Y-3955912D02*
X5951015Y-3936865D01*
X5951015Y-3936865D02*
X5960539Y-3917817D01*
X5960539Y-3917817D02*
X5979587Y-3908293D01*
X5979587Y-3908293D02*
X6027206Y-3908293D01*
X6027206Y-3908293D02*
X6046253Y-3898769D01*
X6112920Y-3851150D02*
X6189111Y-3851150D01*
X6141492Y-3784484D02*
X6141492Y-3955912D01*
X6141492Y-3955912D02*
X6151015Y-3974960D01*
X6151015Y-3974960D02*
X6170063Y-3984484D01*
X6170063Y-3984484D02*
X6189111Y-3984484D01*
X6331968Y-3974960D02*
X6312920Y-3984484D01*
X6312920Y-3984484D02*
X6274825Y-3984484D01*
X6274825Y-3984484D02*
X6255777Y-3974960D01*
X6255777Y-3974960D02*
X6246253Y-3955912D01*
X6246253Y-3955912D02*
X6246253Y-3879722D01*
X6246253Y-3879722D02*
X6255777Y-3860674D01*
X6255777Y-3860674D02*
X6274825Y-3851150D01*
X6274825Y-3851150D02*
X6312920Y-3851150D01*
X6312920Y-3851150D02*
X6331968Y-3860674D01*
X6331968Y-3860674D02*
X6341492Y-3879722D01*
X6341492Y-3879722D02*
X6341492Y-3898769D01*
X6341492Y-3898769D02*
X6246253Y-3917817D01*
X6512920Y-3984484D02*
X6512920Y-3784484D01*
X6512920Y-3974960D02*
X6493873Y-3984484D01*
X6493873Y-3984484D02*
X6455777Y-3984484D01*
X6455777Y-3984484D02*
X6436730Y-3974960D01*
X6436730Y-3974960D02*
X6427206Y-3965436D01*
X6427206Y-3965436D02*
X6417682Y-3946388D01*
X6417682Y-3946388D02*
X6417682Y-3889246D01*
X6417682Y-3889246D02*
X6427206Y-3870198D01*
X6427206Y-3870198D02*
X6436730Y-3860674D01*
X6436730Y-3860674D02*
X6455777Y-3851150D01*
X6455777Y-3851150D02*
X6493873Y-3851150D01*
X6493873Y-3851150D02*
X6512920Y-3860674D01*
X6589111Y-4060674D02*
X6598634Y-4051150D01*
X6598634Y-4051150D02*
X6617682Y-4022579D01*
X6617682Y-4022579D02*
X6627206Y-4003531D01*
X6627206Y-4003531D02*
X6636730Y-3974960D01*
X6636730Y-3974960D02*
X6646253Y-3927341D01*
X6646253Y-3927341D02*
X6646253Y-3889246D01*
X6646253Y-3889246D02*
X6636730Y-3841627D01*
X6636730Y-3841627D02*
X6627206Y-3813055D01*
X6627206Y-3813055D02*
X6617682Y-3794008D01*
X6617682Y-3794008D02*
X6598634Y-3765436D01*
X6598634Y-3765436D02*
X6589111Y-3755912D01*
M02*
