M48
; DRILL file {KiCad 7.0.11+dfsg-1build4} date Thu Oct  1 18:00:36 2026
; FORMAT={-:-/ absolute / metric / decimal}
; #@! TF.CreationDate,2026-10-01T18:00:36+00:00
; #@! TF.GenerationSoftware,Kicad,Pcbnew,7.0.11+dfsg-1build4
; #@! TF.FileFunction,MixedPlating,1,2
FMAT,2
METRIC
; #@! TA.AperFunction,Plated,PTH,ComponentDrill
T1C1.000
; #@! TA.AperFunction,Plated,PTH,ComponentDrill
T2C1.020
; #@! TA.AperFunction,NonPlated,NPTH,ComponentDrill
T3C2.700
; #@! TA.AperFunction,NonPlated,NPTH,ComponentDrill
T4C3.000
%
G90
G05
T1
X8.37Y-18.73
X8.37Y-21.27
X10.91Y-18.73
X10.91Y-21.27
X13.45Y-18.73
X13.45Y-21.27
X15.99Y-18.73
X15.99Y-21.27
X18.53Y-18.73
X18.53Y-21.27
X21.07Y-18.73
X21.07Y-21.27
X23.61Y-18.73
X23.61Y-21.27
X26.15Y-18.73
X26.15Y-21.27
X28.69Y-18.73
X28.69Y-21.27
X31.23Y-18.73
X31.23Y-21.27
X33.77Y-18.73
X33.77Y-21.27
X36.31Y-18.73
X36.31Y-21.27
X38.85Y-18.73
X38.85Y-21.27
X41.39Y-18.73
X41.39Y-21.27
X43.93Y-18.73
X43.93Y-21.27
X46.47Y-18.73
X46.47Y-21.27
X49.01Y-18.73
X49.01Y-21.27
X51.55Y-18.73
X51.55Y-21.27
X54.09Y-18.73
X54.09Y-21.27
X56.63Y-18.73
X56.63Y-21.27
T2
X24.37Y-11.1
X24.37Y-14.1
X27.37Y-11.1
X27.37Y-14.1
T3
X3.5Y-20.0
X18.5Y-5.5
X43.25Y-5.5
X61.5Y-20.0
T4
X25.87Y-6.78
M30
