M48
; DRILL file {KiCad 7.0.11+dfsg-1build4} date Thu Oct  1 15:01:08 2026
; FORMAT={-:-/ absolute / metric / decimal}
; #@! TF.CreationDate,2026-10-01T15:01:08+00:00
; #@! TF.GenerationSoftware,Kicad,Pcbnew,7.0.11+dfsg-1build4
; #@! TF.FileFunction,MixedPlating,1,2
FMAT,2
METRIC
; #@! TA.AperFunction,Plated,PTH,ComponentDrill
T1C1.000
; #@! TA.AperFunction,Plated,PTH,ComponentDrill
T2C1.020
; #@! TA.AperFunction,NonPlated,NPTH,ComponentDrill
T3C2.700
; #@! TA.AperFunction,NonPlated,NPTH,ComponentDrill
T4C3.000
%
G90
G05
T1
X4.0Y-18.73
X4.0Y-21.27
X6.54Y-18.73
X6.54Y-21.27
X9.08Y-18.73
X9.08Y-21.27
X11.62Y-18.73
X11.62Y-21.27
X14.16Y-18.73
X14.16Y-21.27
X16.7Y-18.73
X16.7Y-21.27
X19.24Y-18.73
X19.24Y-21.27
X21.78Y-18.73
X21.78Y-21.27
X24.32Y-18.73
X24.32Y-21.27
X26.86Y-18.73
X26.86Y-21.27
X29.4Y-18.73
X29.4Y-21.27
X31.94Y-18.73
X31.94Y-21.27
X34.48Y-18.73
X34.48Y-21.27
X37.02Y-18.73
X37.02Y-21.27
X39.56Y-18.73
X39.56Y-21.27
X42.1Y-18.73
X42.1Y-21.27
X44.64Y-18.73
X44.64Y-21.27
X47.18Y-18.73
X47.18Y-21.27
X49.72Y-18.73
X49.72Y-21.27
X52.26Y-18.73
X52.26Y-21.27
T2
X20.0Y-11.1
X20.0Y-14.1
X23.0Y-11.1
X23.0Y-14.1
T3
X34.0Y-5.5
X52.0Y-5.5
T4
X21.5Y-6.78
M30
