G04 Gerber file generated by Gerbonara*
%MOMM*%
%FSLAX45Y45*%
%IPPOS*%
G75
%LPD*%
%ADD10R,1.7X1.7*%
%ADD11C,1.7*%
%ADD12R,1.275X1.8*%
%ADD13O,1.275X1.8*%
%ADD14C,1.6*%
%ADD15C,2.8*%
%ADD16R,1.73X2.03*%
%ADD17O,1.73X2.03*%
%ADD18C,3.2*%
%ADD19R,1.905X2.0*%
%ADD20O,1.905X2.0*%
G36*
G01**
X003841434Y001415193D02*
X003847027Y001411006D01*
X003848719Y001407908D01*
X003853620Y001394767D01*
X003853621Y001394766D01*
X003862245Y001383245D01*
X003862246Y001383245D01*
X003873766Y001374621D01*
X003873767Y001374620D01*
X003887252Y001369591D01*
X003887252Y001369591D01*
X003893212Y001368950D01*
X003893212Y001368950D01*
X003893213Y001368950D01*
X003893214Y001368950D01*
X003893214Y001368950D01*
X003894269Y001368950D01*
X003900973Y001366981D01*
X003903037Y001365318D01*
X003970059Y001298296D01*
X003963701Y001296592D01*
X003952299Y001290010D01*
X003942990Y001280701D01*
X003936407Y001269299D01*
X003934704Y001262941D01*
X003871473Y001326172D01*
X003867537Y001320755D01*
X003867537Y001320755D01*
X003867076Y001319850D01*
X003862279Y001314771D01*
X003855497Y001313091D01*
X003848883Y001315345D01*
X003844979Y001319851D01*
X003844505Y001320782D01*
X003837771Y001330050D01*
X003832011Y001337979D01*
X003832011Y001337979D01*
X003832010Y001337979D01*
X003816979Y001353010D01*
X003816979Y001353011D01*
X003816979Y001353011D01*
X003799782Y001365505D01*
X003799782Y001365505D01*
X003798905Y001365951D01*
X003793826Y001370749D01*
X003792146Y001377531D01*
X003794400Y001384144D01*
X003798905Y001388048D01*
X003799782Y001388495D01*
X003799782Y001388495D01*
X003816979Y001400989D01*
X003828333Y001412343D01*
X003834465Y001415691D01*
X003834465Y001415691D01*
X003841434Y001415193D01*
G37*
G36*
G01**
X007944254Y007947982D02*
X007948829Y007942701D01*
X007949950Y007937550D01*
X007949950Y000062450D01*
X007947982Y000055746D01*
X007942701Y000051171D01*
X007937550Y000050050D01*
X000062450Y000050050D01*
X000055746Y000052018D01*
X000051171Y000057299D01*
X000050050Y000062450D01*
X000050050Y000612129D01*
X000414950Y000612129D01*
X000414950Y000587871D01*
X000418116Y000563821D01*
X000424395Y000540390D01*
X000433677Y000517979D01*
X000433678Y000517978D01*
X000445807Y000496971D01*
X000460573Y000477726D01*
X000460574Y000477726D01*
X000477726Y000460574D01*
X000477726Y000460573D01*
X000496971Y000445807D01*
X000517979Y000433678D01*
X000517979Y000433677D01*
X000540389Y000424395D01*
X000563821Y000418116D01*
X000587871Y000414950D01*
X000587871Y000414950D01*
X000612129Y000414950D01*
X000636178Y000418116D01*
X000659610Y000424395D01*
X000682021Y000433677D01*
X000682021Y000433678D01*
X000685866Y000435897D01*
X000703029Y000445806D01*
X000703029Y000445807D01*
X000722274Y000460573D01*
X000722274Y000460574D01*
X000739426Y000477726D01*
X000739427Y000477726D01*
X000754193Y000496971D01*
X000754194Y000496971D01*
X000766322Y000517979D01*
X000775605Y000540390D01*
X000781884Y000563821D01*
X000785050Y000587871D01*
X000785050Y000612129D01*
X007214950Y000612129D01*
X007214950Y000587871D01*
X007218116Y000563821D01*
X007224395Y000540390D01*
X007233677Y000517979D01*
X007233678Y000517978D01*
X007245807Y000496971D01*
X007260573Y000477726D01*
X007260574Y000477726D01*
X007277726Y000460574D01*
X007277726Y000460573D01*
X007296971Y000445807D01*
X007317978Y000433678D01*
X007317979Y000433677D01*
X007340390Y000424395D01*
X007363821Y000418116D01*
X007387871Y000414950D01*
X007387871Y000414950D01*
X007412129Y000414950D01*
X007436178Y000418116D01*
X007459610Y000424395D01*
X007482021Y000433677D01*
X007482021Y000433678D01*
X007485866Y000435897D01*
X007503029Y000445806D01*
X007503029Y000445807D01*
X007522274Y000460573D01*
X007522274Y000460574D01*
X007539426Y000477726D01*
X007539427Y000477726D01*
X007554193Y000496971D01*
X007554194Y000496971D01*
X007566322Y000517979D01*
X007575605Y000540390D01*
X007581884Y000563821D01*
X007585050Y000587871D01*
X007585050Y000612129D01*
X007581884Y000636179D01*
X007575605Y000659610D01*
X007566322Y000682021D01*
X007554194Y000703029D01*
X007539427Y000722274D01*
X007522274Y000739427D01*
X007503029Y000754194D01*
X007482021Y000766322D01*
X007459610Y000775605D01*
X007436179Y000781884D01*
X007416939Y000784417D01*
X007412129Y000785050D01*
X007412129Y000785050D01*
X007387871Y000785050D01*
X007387871Y000785050D01*
X007381859Y000784258D01*
X007363821Y000781884D01*
X007340390Y000775605D01*
X007317979Y000766322D01*
X007296971Y000754194D01*
X007296971Y000754193D01*
X007277726Y000739427D01*
X007277726Y000739426D01*
X007260574Y000722274D01*
X007260573Y000722274D01*
X007245806Y000703029D01*
X007235897Y000685866D01*
X007233678Y000682021D01*
X007233677Y000682021D01*
X007224395Y000659610D01*
X007218116Y000636178D01*
X007214950Y000612129D01*
X000785050Y000612129D01*
X000781884Y000636179D01*
X000775605Y000659610D01*
X000766322Y000682021D01*
X000754194Y000703029D01*
X000739426Y000722274D01*
X000722274Y000739427D01*
X000703029Y000754194D01*
X000682021Y000766322D01*
X000659610Y000775605D01*
X000636179Y000781884D01*
X000616939Y000784417D01*
X000612129Y000785050D01*
X000612129Y000785050D01*
X000587871Y000785050D01*
X000587871Y000785050D01*
X000581859Y000784258D01*
X000563821Y000781884D01*
X000540390Y000775605D01*
X000517979Y000766322D01*
X000496971Y000754194D01*
X000496971Y000754193D01*
X000477726Y000739427D01*
X000477726Y000739426D01*
X000460574Y000722274D01*
X000460574Y000722274D01*
X000445806Y000703029D01*
X000435897Y000685866D01*
X000433678Y000682021D01*
X000433677Y000682021D01*
X000424395Y000659610D01*
X000418116Y000636178D01*
X000414950Y000612129D01*
X000050050Y000612129D01*
X000050050Y001210235D01*
X001370950Y001210235D01*
X001370950Y001189765D01*
X001374152Y001169546D01*
X001380478Y001150078D01*
X001389771Y001131839D01*
X001401803Y001115279D01*
X001416279Y001100803D01*
X001432839Y001088772D01*
X001451078Y001079478D01*
X001470546Y001073152D01*
X001488333Y001070335D01*
X001490765Y001069950D01*
X001490765Y001069950D01*
X001511235Y001069950D01*
X001511235Y001069950D01*
X001513999Y001070388D01*
X001531453Y001073152D01*
X001550922Y001079478D01*
X001563465Y001085869D01*
X001569161Y001088771D01*
X001569220Y001088814D01*
X001585721Y001100803D01*
X001600197Y001115279D01*
X001612228Y001131839D01*
X001612229Y001131839D01*
X001618150Y001143461D01*
X001621522Y001150078D01*
X001621528Y001150097D01*
X001625632Y001162726D01*
X001627848Y001169546D01*
X001631050Y001189765D01*
X001631050Y001210232D01*
X002387000Y001210232D01*
X002387000Y001189768D01*
X002390201Y001169558D01*
X002396524Y001150097D01*
X002405814Y001131864D01*
X002409052Y001127408D01*
X002409052Y001127408D01*
X002477000Y001195355D01*
X002477000Y001194734D01*
X002479726Y001184561D01*
X002484992Y001175439D01*
X002492439Y001167992D01*
X002501561Y001162726D01*
X002511734Y001160000D01*
X002512355Y001160000D01*
X002444408Y001092052D01*
X002444408Y001092052D01*
X002448864Y001088814D01*
X002467097Y001079524D01*
X002486558Y001073201D01*
X002506768Y001070000D01*
X002527232Y001070000D01*
X002547442Y001073201D01*
X002566903Y001079524D01*
X002585135Y001088814D01*
X002585136Y001088815D01*
X002589592Y001092052D01*
X002589592Y001092052D01*
X002521645Y001160000D01*
X002522266Y001160000D01*
X002532439Y001162726D01*
X002541561Y001167992D01*
X002549008Y001175439D01*
X002554274Y001184561D01*
X002557000Y001194734D01*
X002557000Y001195355D01*
X002624947Y001127408D01*
X002624947Y001127408D01*
X002628186Y001131865D01*
X002637475Y001150097D01*
X002643799Y001169558D01*
X002647000Y001189768D01*
X002647000Y001210232D01*
X002643799Y001230442D01*
X002637475Y001249903D01*
X002628186Y001268135D01*
X002624947Y001272592D01*
X002557000Y001204645D01*
X002557000Y001205266D01*
X002554274Y001215439D01*
X002549008Y001224561D01*
X002541561Y001232008D01*
X002532439Y001237274D01*
X002522266Y001240000D01*
X002521645Y001240000D01*
X002589592Y001307947D01*
X002585135Y001311186D01*
X002566903Y001320476D01*
X002547442Y001326799D01*
X002527232Y001330000D01*
X002506768Y001330000D01*
X002486558Y001326799D01*
X002467097Y001320476D01*
X002448865Y001311186D01*
X002444408Y001307947D01*
X002444408Y001307947D01*
X002512355Y001240000D01*
X002511734Y001240000D01*
X002501561Y001237274D01*
X002492439Y001232008D01*
X002484992Y001224561D01*
X002479726Y001215439D01*
X002477000Y001205266D01*
X002477000Y001204645D01*
X002409052Y001272592D01*
X002409052Y001272592D01*
X002405815Y001268136D01*
X002405814Y001268135D01*
X002396524Y001249903D01*
X002390201Y001230442D01*
X002387000Y001210232D01*
X001631050Y001210232D01*
X001631050Y001210235D01*
X001629761Y001218376D01*
X001627848Y001230453D01*
X001621522Y001249922D01*
X001612229Y001268161D01*
X001605473Y001277459D01*
X001600197Y001284721D01*
X001600197Y001284722D01*
X001600197Y001284722D01*
X001585722Y001299197D01*
X001585721Y001299197D01*
X001585721Y001299197D01*
X001578459Y001304473D01*
X001569161Y001311229D01*
X001550922Y001320522D01*
X001531453Y001326848D01*
X001511235Y001330050D01*
X001490765Y001330050D01*
X001480656Y001328449D01*
X001470546Y001326848D01*
X001461514Y001323913D01*
X001451078Y001320522D01*
X001451078Y001320522D01*
X001451078Y001320522D01*
X001444461Y001317150D01*
X001432839Y001311229D01*
X001432839Y001311228D01*
X001416279Y001299197D01*
X001401803Y001284721D01*
X001390598Y001269299D01*
X001389771Y001268161D01*
X001389758Y001268135D01*
X001380478Y001249922D01*
X001374152Y001230453D01*
X001370950Y001210235D01*
X000050050Y001210235D01*
X000050050Y001514629D01*
X003085950Y001514629D01*
X003085950Y001493371D01*
X003089275Y001472376D01*
X003095844Y001452159D01*
X003105495Y001433218D01*
X003117989Y001416021D01*
X003133021Y001400989D01*
X003150218Y001388495D01*
X003151095Y001388048D01*
X003156174Y001383251D01*
X003157854Y001376469D01*
X003155600Y001369855D01*
X003151095Y001365952D01*
X003150218Y001365505D01*
X003133021Y001353011D01*
X003117989Y001337979D01*
X003105495Y001320782D01*
X003100628Y001311229D01*
X003095844Y001301841D01*
X003092000Y001290010D01*
X003089275Y001281624D01*
X003085950Y001260629D01*
X003085950Y001239371D01*
X003089275Y001218376D01*
X003095844Y001198158D01*
X003105495Y001179218D01*
X003117989Y001162021D01*
X003133021Y001146989D01*
X003150218Y001134495D01*
X003169159Y001124844D01*
X003189376Y001118275D01*
X003189376Y001118275D01*
X003206420Y001115576D01*
X003210371Y001114950D01*
X003210371Y001114950D01*
X003231629Y001114950D01*
X003231629Y001114950D01*
X003237964Y001115953D01*
X003252624Y001118275D01*
X003252624Y001118275D01*
X003252624Y001118275D01*
X003272841Y001124844D01*
X003286569Y001131839D01*
X003291782Y001134495D01*
X003308979Y001146989D01*
X003324011Y001162021D01*
X003336505Y001179218D01*
X003336952Y001180095D01*
X003341749Y001185174D01*
X003348531Y001186854D01*
X003355145Y001184600D01*
X003359048Y001180095D01*
X003359495Y001179218D01*
X003371989Y001162021D01*
X003387021Y001146989D01*
X003404218Y001134495D01*
X003423158Y001124844D01*
X003443376Y001118275D01*
X003443376Y001118275D01*
X003460420Y001115576D01*
X003464371Y001114950D01*
X003464371Y001114950D01*
X003485629Y001114950D01*
X003485629Y001114950D01*
X003491964Y001115953D01*
X003506624Y001118275D01*
X003506624Y001118275D01*
X003506624Y001118275D01*
X003526841Y001124844D01*
X003540569Y001131839D01*
X003545782Y001134495D01*
X003562979Y001146989D01*
X003578011Y001162021D01*
X003590505Y001179218D01*
X003590952Y001180095D01*
X003595749Y001185174D01*
X003602531Y001186854D01*
X003609145Y001184600D01*
X003613048Y001180095D01*
X003613495Y001179218D01*
X003625989Y001162021D01*
X003641021Y001146989D01*
X003658218Y001134495D01*
X003677159Y001124844D01*
X003697376Y001118275D01*
X003697376Y001118275D01*
X003714420Y001115576D01*
X003718371Y001114950D01*
X003718371Y001114950D01*
X003739629Y001114950D01*
X003739629Y001114950D01*
X003745964Y001115953D01*
X003760624Y001118275D01*
X003760624Y001118275D01*
X003760624Y001118275D01*
X003780841Y001124844D01*
X003794569Y001131839D01*
X003799782Y001134495D01*
X003816979Y001146989D01*
X003832011Y001162021D01*
X003844505Y001179218D01*
X003844952Y001180095D01*
X003844979Y001180149D01*
X003849777Y001185229D01*
X003856559Y001186909D01*
X003863172Y001184655D01*
X003867076Y001180151D01*
X003867538Y001179245D01*
X003867538Y001179244D01*
X003871473Y001173828D01*
X003871473Y001173828D01*
X003934704Y001237059D01*
X003936407Y001230701D01*
X003942990Y001219299D01*
X003952299Y001209990D01*
X003963701Y001203408D01*
X003970059Y001201704D01*
X003906828Y001138473D01*
X003906828Y001138473D01*
X003912244Y001134538D01*
X003931178Y001124890D01*
X003951387Y001118324D01*
X003972375Y001115000D01*
X003993625Y001115000D01*
X004014613Y001118324D01*
X004014613Y001118324D01*
X004034822Y001124890D01*
X004053755Y001134538D01*
X004059172Y001138473D01*
X003995941Y001201704D01*
X004002299Y001203408D01*
X004013701Y001209990D01*
X004023010Y001219299D01*
X004029592Y001230701D01*
X004031296Y001237059D01*
X004094527Y001173828D01*
X004094527Y001173828D01*
X004098462Y001179245D01*
X004108110Y001198178D01*
X004114676Y001218387D01*
X004114676Y001218387D01*
X004118000Y001239375D01*
X004118000Y001260625D01*
X004114676Y001281613D01*
X004114676Y001281613D01*
X004108110Y001301822D01*
X004098462Y001320755D01*
X004094527Y001326172D01*
X004094527Y001326172D01*
X004031296Y001262941D01*
X004029592Y001269299D01*
X004023010Y001280701D01*
X004013701Y001290010D01*
X004002299Y001296592D01*
X003995941Y001298296D01*
X004062963Y001365318D01*
X004069095Y001368667D01*
X004071730Y001368950D01*
X004072786Y001368950D01*
X004072788Y001368950D01*
X004078748Y001369591D01*
X004092233Y001374620D01*
X004092234Y001374621D01*
X004103754Y001383245D01*
X004103755Y001383245D01*
X004112379Y001394766D01*
X004112380Y001394767D01*
X004117409Y001408252D01*
X004117705Y001411006D01*
X004118050Y001414213D01*
X004118050Y001593787D01*
X004117409Y001599748D01*
X004112380Y001613233D01*
X004103755Y001624755D01*
X004092233Y001633380D01*
X004078748Y001638409D01*
X004072787Y001639050D01*
X003893213Y001639050D01*
X003888376Y001638530D01*
X003887252Y001638409D01*
X003873767Y001633380D01*
X003873766Y001633379D01*
X003862246Y001624755D01*
X003862245Y001624754D01*
X003853621Y001613233D01*
X003853620Y001613233D01*
X003848719Y001600092D01*
X003844532Y001594498D01*
X003837985Y001592057D01*
X003831158Y001593542D01*
X003828333Y001595656D01*
X003816979Y001607010D01*
X003799782Y001619505D01*
X003780841Y001629156D01*
X003760624Y001635725D01*
X003739629Y001639050D01*
X003718371Y001639050D01*
X003697376Y001635725D01*
X003677159Y001629156D01*
X003658218Y001619505D01*
X003658218Y001619505D01*
X003658218Y001619505D01*
X003641021Y001607011D01*
X003625989Y001591979D01*
X003613495Y001574782D01*
X003613049Y001573906D01*
X003608251Y001568826D01*
X003601469Y001567146D01*
X003594856Y001569400D01*
X003590951Y001573906D01*
X003590505Y001574782D01*
X003580341Y001588771D01*
X003578011Y001591979D01*
X003578011Y001591979D01*
X003578010Y001591979D01*
X003562979Y001607010D01*
X003562979Y001607011D01*
X003562979Y001607011D01*
X003545782Y001619505D01*
X003545782Y001619505D01*
X003526841Y001629156D01*
X003506624Y001635725D01*
X003485629Y001639050D01*
X003464371Y001639050D01*
X003443376Y001635725D01*
X003423159Y001629156D01*
X003404218Y001619505D01*
X003404218Y001619505D01*
X003404218Y001619505D01*
X003387021Y001607011D01*
X003371989Y001591979D01*
X003359495Y001574782D01*
X003359049Y001573906D01*
X003354251Y001568826D01*
X003347469Y001567146D01*
X003340856Y001569400D01*
X003336951Y001573906D01*
X003336505Y001574782D01*
X003326341Y001588771D01*
X003324011Y001591979D01*
X003324011Y001591979D01*
X003324010Y001591979D01*
X003308979Y001607010D01*
X003308979Y001607011D01*
X003308979Y001607011D01*
X003291782Y001619505D01*
X003291782Y001619505D01*
X003272841Y001629156D01*
X003252624Y001635725D01*
X003231629Y001639050D01*
X003210371Y001639050D01*
X003189376Y001635725D01*
X003169159Y001629156D01*
X003150218Y001619505D01*
X003150218Y001619505D01*
X003150218Y001619505D01*
X003133021Y001607011D01*
X003117989Y001591979D01*
X003105495Y001574782D01*
X003095844Y001555841D01*
X003089275Y001535624D01*
X003085950Y001514629D01*
X000050050Y001514629D01*
X000050050Y001710235D01*
X006028950Y001710235D01*
X006028950Y001689765D01*
X006032152Y001669546D01*
X006038478Y001650078D01*
X006047772Y001631839D01*
X006059803Y001615279D01*
X006074279Y001600803D01*
X006090839Y001588772D01*
X006109078Y001579478D01*
X006128547Y001573152D01*
X006146333Y001570335D01*
X006148765Y001569950D01*
X006148765Y001569950D01*
X006169235Y001569950D01*
X006169235Y001569950D01*
X006171999Y001570388D01*
X006189453Y001573152D01*
X006208922Y001579478D01*
X006221465Y001585869D01*
X006227161Y001588771D01*
X006227220Y001588814D01*
X006243721Y001600803D01*
X006258197Y001615279D01*
X006270228Y001631839D01*
X006270229Y001631839D01*
X006276150Y001643461D01*
X006279522Y001650078D01*
X006279528Y001650097D01*
X006283631Y001662726D01*
X006285848Y001669546D01*
X006289050Y001689765D01*
X006289050Y001710232D01*
X006529000Y001710232D01*
X006529000Y001689768D01*
X006532201Y001669558D01*
X006538524Y001650097D01*
X006547814Y001631864D01*
X006551052Y001627408D01*
X006551052Y001627408D01*
X006619000Y001695355D01*
X006619000Y001694734D01*
X006621726Y001684561D01*
X006626992Y001675439D01*
X006634439Y001667992D01*
X006643561Y001662726D01*
X006653734Y001660000D01*
X006654355Y001660000D01*
X006586408Y001592052D01*
X006586408Y001592052D01*
X006590864Y001588814D01*
X006609097Y001579524D01*
X006628558Y001573201D01*
X006648768Y001570000D01*
X006669232Y001570000D01*
X006689442Y001573201D01*
X006708903Y001579524D01*
X006727135Y001588814D01*
X006727136Y001588815D01*
X006731592Y001592052D01*
X006731592Y001592052D01*
X006663645Y001660000D01*
X006664266Y001660000D01*
X006674439Y001662726D01*
X006683561Y001667992D01*
X006691008Y001675439D01*
X006696274Y001684561D01*
X006699000Y001694734D01*
X006699000Y001695355D01*
X006766947Y001627408D01*
X006766947Y001627408D01*
X006770186Y001631865D01*
X006779475Y001650097D01*
X006785799Y001669558D01*
X006789000Y001689768D01*
X006789000Y001710232D01*
X006785799Y001730442D01*
X006779475Y001749903D01*
X006770186Y001768135D01*
X006766947Y001772592D01*
X006766947Y001772592D01*
X006699000Y001704645D01*
X006699000Y001705266D01*
X006696274Y001715439D01*
X006691008Y001724561D01*
X006683561Y001732008D01*
X006674439Y001737274D01*
X006664266Y001740000D01*
X006663645Y001740000D01*
X006731592Y001807947D01*
X006727135Y001811186D01*
X006708903Y001820476D01*
X006689442Y001826799D01*
X006669232Y001830000D01*
X006648768Y001830000D01*
X006628558Y001826799D01*
X006609097Y001820476D01*
X006590865Y001811186D01*
X006586408Y001807947D01*
X006586408Y001807947D01*
X006654355Y001740000D01*
X006653734Y001740000D01*
X006643561Y001737274D01*
X006634439Y001732008D01*
X006626992Y001724561D01*
X006621726Y001715439D01*
X006619000Y001705266D01*
X006619000Y001704645D01*
X006551052Y001772592D01*
X006551052Y001772592D01*
X006547815Y001768136D01*
X006547814Y001768135D01*
X006538524Y001749903D01*
X006532201Y001730442D01*
X006529000Y001710232D01*
X006289050Y001710232D01*
X006289050Y001710235D01*
X006285848Y001730453D01*
X006282746Y001740000D01*
X006279522Y001749922D01*
X006270229Y001768161D01*
X006263473Y001777459D01*
X006258197Y001784721D01*
X006258197Y001784722D01*
X006258197Y001784722D01*
X006243722Y001799197D01*
X006243721Y001799197D01*
X006243721Y001799197D01*
X006236459Y001804473D01*
X006227161Y001811229D01*
X006208922Y001820522D01*
X006189453Y001826848D01*
X006169235Y001830050D01*
X006148765Y001830050D01*
X006138656Y001828449D01*
X006128547Y001826848D01*
X006119514Y001823913D01*
X006109078Y001820522D01*
X006109078Y001820522D01*
X006109078Y001820522D01*
X006102461Y001817150D01*
X006090839Y001811229D01*
X006090839Y001811228D01*
X006074279Y001799197D01*
X006059803Y001784721D01*
X006047772Y001768161D01*
X006047771Y001768161D01*
X006047758Y001768135D01*
X006038478Y001749922D01*
X006032152Y001730453D01*
X006028950Y001710235D01*
X000050050Y001710235D01*
X000050050Y001960235D01*
X000870950Y001960235D01*
X000870950Y001939765D01*
X000874152Y001919546D01*
X000880478Y001900078D01*
X000889771Y001881839D01*
X000901803Y001865279D01*
X000916279Y001850803D01*
X000932839Y001838772D01*
X000951078Y001829478D01*
X000970546Y001823152D01*
X000988333Y001820335D01*
X000990765Y001819950D01*
X000990765Y001819950D01*
X001011235Y001819950D01*
X001011235Y001819950D01*
X001014553Y001820476D01*
X001031453Y001823152D01*
X001050922Y001829478D01*
X001063465Y001835869D01*
X001069161Y001838771D01*
X001069161Y001838772D01*
X001085721Y001850803D01*
X001100197Y001865279D01*
X001112228Y001881839D01*
X001112229Y001881839D01*
X001118150Y001893461D01*
X001121522Y001900078D01*
X001127848Y001919546D01*
X001131050Y001939765D01*
X001131050Y001960235D01*
X001886950Y001960235D01*
X001886950Y001939765D01*
X001890152Y001919546D01*
X001896478Y001900078D01*
X001905772Y001881839D01*
X001917803Y001865279D01*
X001932279Y001850803D01*
X001948839Y001838772D01*
X001967078Y001829478D01*
X001986547Y001823152D01*
X002004333Y001820335D01*
X002006765Y001819950D01*
X002006765Y001819950D01*
X002027235Y001819950D01*
X002027235Y001819950D01*
X002030553Y001820476D01*
X002047453Y001823152D01*
X002066922Y001829478D01*
X002079465Y001835869D01*
X002085161Y001838771D01*
X002085161Y001838772D01*
X002101721Y001850803D01*
X002116197Y001865279D01*
X002128228Y001881839D01*
X002128229Y001881839D01*
X002134150Y001893461D01*
X002137522Y001900078D01*
X002143848Y001919546D01*
X002147050Y001939765D01*
X002147050Y001960235D01*
X002143848Y001980453D01*
X002137522Y001999922D01*
X002128229Y002018161D01*
X002121473Y002027459D01*
X002116197Y002034721D01*
X002116197Y002034722D01*
X002116197Y002034722D01*
X002101722Y002049197D01*
X002101721Y002049197D01*
X002101721Y002049197D01*
X002094459Y002054473D01*
X002085161Y002061229D01*
X002066922Y002070522D01*
X002047453Y002076848D01*
X002027235Y002080050D01*
X002006765Y002080050D01*
X001996656Y002078449D01*
X001986547Y002076848D01*
X001977514Y002073913D01*
X001967078Y002070522D01*
X001967078Y002070522D01*
X001967078Y002070522D01*
X001960461Y002067150D01*
X001948839Y002061229D01*
X001948839Y002061228D01*
X001932279Y002049197D01*
X001917803Y002034721D01*
X001905772Y002018161D01*
X001896478Y001999922D01*
X001890152Y001980453D01*
X001886950Y001960235D01*
X001131050Y001960235D01*
X001127848Y001980453D01*
X001121522Y001999922D01*
X001112229Y002018161D01*
X001105473Y002027459D01*
X001100197Y002034721D01*
X001100197Y002034722D01*
X001100197Y002034722D01*
X001085722Y002049197D01*
X001085721Y002049197D01*
X001085721Y002049197D01*
X001078459Y002054473D01*
X001069161Y002061229D01*
X001050922Y002070522D01*
X001031453Y002076848D01*
X001011235Y002080050D01*
X000990765Y002080050D01*
X000980656Y002078449D01*
X000970546Y002076848D01*
X000961514Y002073913D01*
X000951078Y002070522D01*
X000951078Y002070522D01*
X000951078Y002070522D01*
X000944461Y002067150D01*
X000932839Y002061229D01*
X000932839Y002061228D01*
X000916279Y002049197D01*
X000901803Y002034721D01*
X000889771Y002018161D01*
X000880478Y001999922D01*
X000874152Y001980453D01*
X000870950Y001960235D01*
X000050050Y001960235D01*
X000050050Y002754786D01*
X000955700Y002754786D01*
X000955700Y002545213D01*
X000955700Y002545212D01*
X000956341Y002539252D01*
X000961370Y002525767D01*
X000961371Y002525766D01*
X000969995Y002514245D01*
X000969996Y002514245D01*
X000981516Y002505621D01*
X000981517Y002505620D01*
X000995002Y002500591D01*
X000995002Y002500591D01*
X001000962Y002499950D01*
X001000962Y002499950D01*
X001000963Y002499950D01*
X001000963Y002499950D01*
X001000964Y002499950D01*
X001201037Y002499950D01*
X001201038Y002499950D01*
X001206998Y002500591D01*
X001220483Y002505620D01*
X001220484Y002505621D01*
X001232004Y002514245D01*
X001232005Y002514245D01*
X001240629Y002525766D01*
X001240630Y002525767D01*
X001241669Y002528554D01*
X001245856Y002534147D01*
X001252402Y002536589D01*
X001259230Y002535104D01*
X001260576Y002534252D01*
X001278846Y002520978D01*
X001299224Y002510595D01*
X001320975Y002503528D01*
X001336935Y002501000D01*
X001343565Y002499950D01*
X001343565Y002499950D01*
X001366435Y002499950D01*
X001366435Y002499950D01*
X001380319Y002502149D01*
X001389025Y002503528D01*
X001389025Y002503528D01*
X001410775Y002510595D01*
X001431154Y002520978D01*
X001437745Y002525767D01*
X001449657Y002534421D01*
X001465829Y002550593D01*
X001471999Y002559086D01*
X001477532Y002563353D01*
X001484493Y002563951D01*
X001490673Y002560690D01*
X001492063Y002559086D01*
X001498210Y002550626D01*
X001514376Y002534460D01*
X001532872Y002521021D01*
X001553243Y002510642D01*
X001574988Y002503576D01*
X001584000Y002502149D01*
X001584000Y002502149D01*
X001584000Y002600925D01*
X001587771Y002598748D01*
X001601759Y002595000D01*
X001616241Y002595000D01*
X001630229Y002598748D01*
X001634000Y002600925D01*
X001634000Y002502149D01*
X001643012Y002503576D01*
X001664757Y002510642D01*
X001685128Y002521021D01*
X001703624Y002534460D01*
X001719790Y002550626D01*
X001723903Y002556286D01*
X003084450Y002556286D01*
X003084450Y002343713D01*
X003084450Y002343712D01*
X003085091Y002337752D01*
X003090120Y002324267D01*
X003090121Y002324266D01*
X003098745Y002312745D01*
X003098745Y002312745D01*
X003110266Y002304121D01*
X003110267Y002304120D01*
X003123752Y002299091D01*
X003123752Y002299091D01*
X003129712Y002298450D01*
X003129712Y002298450D01*
X003129713Y002298450D01*
X003129713Y002298450D01*
X003129713Y002298450D01*
X003312287Y002298450D01*
X003312288Y002298450D01*
X003318248Y002299091D01*
X003331733Y002304120D01*
X003331733Y002304121D01*
X003343254Y002312745D01*
X003343255Y002312745D01*
X003351879Y002324266D01*
X003351880Y002324267D01*
X003356224Y002335915D01*
X003360411Y002341508D01*
X003366957Y002343950D01*
X003373785Y002342465D01*
X003376610Y002340350D01*
X003386076Y002330884D01*
X003403458Y002318255D01*
X003422602Y002308500D01*
X003443036Y002301861D01*
X003443036Y002301861D01*
X003450000Y002300758D01*
X003450000Y002405544D01*
X003455315Y002402475D01*
X003468286Y002399000D01*
X003481714Y002399000D01*
X003494685Y002402475D01*
X003500000Y002405544D01*
X003500000Y002300758D01*
X003506964Y002301861D01*
X003527397Y002308500D01*
X003546542Y002318255D01*
X003563924Y002330884D01*
X003579116Y002346076D01*
X003591937Y002363723D01*
X003597470Y002367989D01*
X003604432Y002368587D01*
X003610611Y002365327D01*
X003612001Y002363723D01*
X003614706Y002360000D01*
X003624846Y002346044D01*
X003624846Y002346044D01*
X003624846Y002346043D01*
X003640043Y002330846D01*
X003657432Y002318212D01*
X003676583Y002308454D01*
X003676583Y002308454D01*
X003697024Y002301812D01*
X003712946Y002299291D01*
X003718253Y002298450D01*
X003718253Y002298450D01*
X003739747Y002298450D01*
X003739747Y002298450D01*
X003754605Y002300803D01*
X003760976Y002301812D01*
X003760976Y002301812D01*
X003781417Y002308454D01*
X003781417Y002308454D01*
X003800568Y002318212D01*
X003804721Y002321229D01*
X003817956Y002330845D01*
X003833155Y002346044D01*
X003844684Y002361912D01*
X003845968Y002363680D01*
X003851501Y002367947D01*
X003858463Y002368545D01*
X003864642Y002365284D01*
X003866032Y002363680D01*
X003868706Y002360000D01*
X003878845Y002346044D01*
X003878846Y002346044D01*
X003878846Y002346043D01*
X003894043Y002330846D01*
X003911432Y002318212D01*
X003930583Y002308454D01*
X003930583Y002308454D01*
X003951024Y002301812D01*
X003966946Y002299291D01*
X003972253Y002298450D01*
X003972253Y002298450D01*
X003993747Y002298450D01*
X003993747Y002298450D01*
X004008605Y002300803D01*
X004014976Y002301812D01*
X004014976Y002301812D01*
X004035417Y002308454D01*
X004035417Y002308454D01*
X004054568Y002318212D01*
X004058721Y002321229D01*
X004071956Y002330845D01*
X004087154Y002346044D01*
X004099788Y002363432D01*
X004105906Y002375439D01*
X004109546Y002382583D01*
X004109546Y002382583D01*
X004113511Y002394786D01*
X005025200Y002394786D01*
X005025200Y002205213D01*
X005025200Y002205212D01*
X005025841Y002199252D01*
X005030870Y002185767D01*
X005030871Y002185766D01*
X005039495Y002174246D01*
X005039495Y002174245D01*
X005051016Y002165621D01*
X005051017Y002165620D01*
X005064502Y002160591D01*
X005064502Y002160591D01*
X005070462Y002159950D01*
X005070462Y002159950D01*
X005070463Y002159950D01*
X005070463Y002159950D01*
X005070463Y002159950D01*
X005207537Y002159950D01*
X005207538Y002159950D01*
X005213498Y002160591D01*
X005226983Y002165620D01*
X005226983Y002165620D01*
X005238446Y002174202D01*
X005244993Y002176643D01*
X005251507Y002175324D01*
X005265316Y002168287D01*
X005282352Y002162752D01*
X005300043Y002159950D01*
X005300044Y002159950D01*
X005317957Y002159950D01*
X005335648Y002162752D01*
X005335648Y002162752D01*
X005335648Y002162752D01*
X005352684Y002168287D01*
X005368644Y002176420D01*
X005383136Y002186948D01*
X005385267Y002189080D01*
X005391400Y002192428D01*
X005398369Y002191930D01*
X005402804Y002189080D01*
X005404897Y002186987D01*
X005419382Y002176462D01*
X005435335Y002168334D01*
X005452364Y002162801D01*
X005454000Y002162542D01*
X005454000Y002250925D01*
X005457771Y002248748D01*
X005471759Y002245000D01*
X005486241Y002245000D01*
X005500229Y002248748D01*
X005504000Y002250925D01*
X005504000Y002162542D01*
X005505636Y002162801D01*
X005522665Y002168334D01*
X005538618Y002176462D01*
X005553103Y002186987D01*
X005553103Y002186987D01*
X005555196Y002189080D01*
X005561329Y002192428D01*
X005568298Y002191930D01*
X005572733Y002189080D01*
X005574864Y002186948D01*
X005589356Y002176420D01*
X005605316Y002168287D01*
X005622352Y002162752D01*
X005640043Y002159950D01*
X005640044Y002159950D01*
X005657957Y002159950D01*
X005675648Y002162752D01*
X005675648Y002162752D01*
X005675648Y002162752D01*
X005692684Y002168287D01*
X005708644Y002176420D01*
X005723136Y002186948D01*
X005725232Y002189044D01*
X005731364Y002192393D01*
X005738333Y002191894D01*
X005742768Y002189044D01*
X005744864Y002186948D01*
X005759356Y002176420D01*
X005775316Y002168287D01*
X005792352Y002162752D01*
X005810043Y002159950D01*
X005810044Y002159950D01*
X005827957Y002159950D01*
X005845648Y002162752D01*
X005845648Y002162752D01*
X005845648Y002162752D01*
X005862684Y002168287D01*
X005878644Y002176420D01*
X005893136Y002186948D01*
X005905802Y002199614D01*
X005916330Y002214106D01*
X005924463Y002230066D01*
X005929998Y002247102D01*
X005931405Y002255989D01*
X005932800Y002264793D01*
X005932800Y002335207D01*
X005930445Y002350078D01*
X005929998Y002352898D01*
X005924463Y002369934D01*
X005916330Y002385894D01*
X005905802Y002400386D01*
X005895952Y002410235D01*
X006678950Y002410235D01*
X006678950Y002389765D01*
X006682152Y002369546D01*
X006688478Y002350078D01*
X006697772Y002331839D01*
X006709803Y002315279D01*
X006724279Y002300803D01*
X006740839Y002288772D01*
X006759078Y002279478D01*
X006778547Y002273152D01*
X006796333Y002270335D01*
X006798765Y002269950D01*
X006798765Y002269950D01*
X006819235Y002269950D01*
X006819235Y002269950D01*
X006821999Y002270388D01*
X006839453Y002273152D01*
X006858922Y002279478D01*
X006871465Y002285869D01*
X006877161Y002288771D01*
X006877220Y002288814D01*
X006893721Y002300803D01*
X006908197Y002315279D01*
X006920228Y002331839D01*
X006920229Y002331839D01*
X006927483Y002346076D01*
X006929522Y002350078D01*
X006929528Y002350097D01*
X006933955Y002363723D01*
X006935848Y002369546D01*
X006939050Y002389765D01*
X006939050Y002410232D01*
X007179000Y002410232D01*
X007179000Y002389768D01*
X007182201Y002369558D01*
X007188524Y002350097D01*
X007197814Y002331864D01*
X007201052Y002327408D01*
X007201052Y002327408D01*
X007269000Y002395355D01*
X007269000Y002394734D01*
X007271726Y002384561D01*
X007276992Y002375439D01*
X007284439Y002367992D01*
X007293561Y002362726D01*
X007303734Y002360000D01*
X007304355Y002360000D01*
X007236408Y002292052D01*
X007236408Y002292052D01*
X007240864Y002288814D01*
X007259097Y002279524D01*
X007278558Y002273201D01*
X007298768Y002270000D01*
X007319232Y002270000D01*
X007339442Y002273201D01*
X007358903Y002279524D01*
X007377135Y002288814D01*
X007377136Y002288815D01*
X007381592Y002292052D01*
X007381592Y002292052D01*
X007313645Y002360000D01*
X007314266Y002360000D01*
X007324439Y002362726D01*
X007333561Y002367992D01*
X007341008Y002375439D01*
X007346274Y002384561D01*
X007349000Y002394734D01*
X007349000Y002395355D01*
X007416947Y002327408D01*
X007416947Y002327408D01*
X007420186Y002331865D01*
X007429475Y002350097D01*
X007435799Y002369558D01*
X007439000Y002389768D01*
X007439000Y002410232D01*
X007435799Y002430442D01*
X007429475Y002449903D01*
X007420186Y002468135D01*
X007416947Y002472592D01*
X007349000Y002404645D01*
X007349000Y002405266D01*
X007346274Y002415439D01*
X007341008Y002424561D01*
X007333561Y002432008D01*
X007324439Y002437274D01*
X007314266Y002440000D01*
X007313645Y002440000D01*
X007381592Y002507947D01*
X007377135Y002511186D01*
X007358903Y002520476D01*
X007339442Y002526799D01*
X007319232Y002530000D01*
X007298768Y002530000D01*
X007278558Y002526799D01*
X007259097Y002520476D01*
X007240865Y002511186D01*
X007236408Y002507947D01*
X007236408Y002507947D01*
X007304355Y002440000D01*
X007303734Y002440000D01*
X007293561Y002437274D01*
X007284439Y002432008D01*
X007276992Y002424561D01*
X007271726Y002415439D01*
X007269000Y002405266D01*
X007269000Y002404645D01*
X007201052Y002472592D01*
X007201052Y002472592D01*
X007197815Y002468136D01*
X007197814Y002468135D01*
X007188524Y002449903D01*
X007182201Y002430442D01*
X007179000Y002410232D01*
X006939050Y002410232D01*
X006939050Y002410235D01*
X006935848Y002430453D01*
X006932730Y002440050D01*
X006929522Y002449922D01*
X006920229Y002468161D01*
X006910672Y002481315D01*
X006908197Y002484721D01*
X006908197Y002484722D01*
X006908197Y002484722D01*
X006893722Y002499197D01*
X006893721Y002499197D01*
X006893721Y002499197D01*
X006884880Y002505620D01*
X006877161Y002511229D01*
X006858922Y002520522D01*
X006839453Y002526848D01*
X006819235Y002530050D01*
X006798765Y002530050D01*
X006789318Y002528554D01*
X006778547Y002526848D01*
X006769514Y002523913D01*
X006759078Y002520522D01*
X006759078Y002520522D01*
X006759078Y002520522D01*
X006752984Y002517417D01*
X006740839Y002511229D01*
X006740839Y002511228D01*
X006724279Y002499197D01*
X006709803Y002484721D01*
X006697772Y002468161D01*
X006697771Y002468161D01*
X006697758Y002468135D01*
X006688478Y002449922D01*
X006682152Y002430453D01*
X006678950Y002410235D01*
X005895952Y002410235D01*
X005893136Y002413052D01*
X005878644Y002423580D01*
X005862684Y002431713D01*
X005845648Y002437248D01*
X005837785Y002438493D01*
X005827957Y002440050D01*
X005827956Y002440050D01*
X005810044Y002440050D01*
X005810043Y002440050D01*
X005798986Y002438299D01*
X005792352Y002437248D01*
X005775316Y002431713D01*
X005759356Y002423580D01*
X005744864Y002413052D01*
X005744864Y002413052D01*
X005742768Y002410956D01*
X005736636Y002407607D01*
X005729667Y002408106D01*
X005725232Y002410956D01*
X005723136Y002413052D01*
X005708644Y002423580D01*
X005692684Y002431713D01*
X005675648Y002437248D01*
X005667785Y002438493D01*
X005657957Y002440050D01*
X005657956Y002440050D01*
X005640044Y002440050D01*
X005640043Y002440050D01*
X005628986Y002438299D01*
X005622352Y002437248D01*
X005605316Y002431713D01*
X005589356Y002423580D01*
X005574864Y002413052D01*
X005574864Y002413052D01*
X005572733Y002410920D01*
X005566600Y002407572D01*
X005559631Y002408070D01*
X005555196Y002410920D01*
X005553103Y002413013D01*
X005538618Y002423538D01*
X005522665Y002431666D01*
X005505637Y002437199D01*
X005504000Y002437458D01*
X005504000Y002349075D01*
X005500229Y002351252D01*
X005486241Y002355000D01*
X005471759Y002355000D01*
X005457771Y002351252D01*
X005454000Y002349075D01*
X005454000Y002437458D01*
X005452363Y002437199D01*
X005435335Y002431666D01*
X005419382Y002423538D01*
X005404897Y002413013D01*
X005404897Y002413013D01*
X005402804Y002410920D01*
X005396671Y002407572D01*
X005389702Y002408070D01*
X005385267Y002410920D01*
X005385232Y002410956D01*
X005383136Y002413052D01*
X005368644Y002423580D01*
X005352684Y002431713D01*
X005335648Y002437248D01*
X005327785Y002438493D01*
X005317957Y002440050D01*
X005317956Y002440050D01*
X005300044Y002440050D01*
X005300043Y002440050D01*
X005288986Y002438299D01*
X005282352Y002437248D01*
X005265316Y002431713D01*
X005251507Y002424676D01*
X005244640Y002423387D01*
X005238446Y002425798D01*
X005226983Y002434380D01*
X005213498Y002439409D01*
X005207537Y002440050D01*
X005070463Y002440050D01*
X005065626Y002439530D01*
X005064502Y002439409D01*
X005051017Y002434380D01*
X005051016Y002434379D01*
X005039495Y002425755D01*
X005039495Y002425754D01*
X005030871Y002414234D01*
X005030870Y002414233D01*
X005025841Y002400748D01*
X005025200Y002394788D01*
X005025200Y002394786D01*
X004113511Y002394786D01*
X004114864Y002398951D01*
X004116187Y002403024D01*
X004116187Y002403024D01*
X004116188Y002403024D01*
X004119550Y002424253D01*
X004119550Y002475747D01*
X004116188Y002496976D01*
X004115466Y002499197D01*
X004109546Y002517417D01*
X004109546Y002517417D01*
X004107709Y002521021D01*
X004099788Y002536568D01*
X004087154Y002553956D01*
X004071956Y002569155D01*
X004054568Y002581788D01*
X004035417Y002591546D01*
X004014975Y002598188D01*
X003993747Y002601550D01*
X003972253Y002601550D01*
X003951024Y002598188D01*
X003951024Y002598188D01*
X003951024Y002598188D01*
X003930583Y002591546D01*
X003930583Y002591546D01*
X003922161Y002587255D01*
X003911432Y002581788D01*
X003894044Y002569155D01*
X003894043Y002569154D01*
X003878846Y002553956D01*
X003878845Y002553956D01*
X003866032Y002536320D01*
X003860499Y002532053D01*
X003853538Y002531455D01*
X003847358Y002534716D01*
X003845968Y002536320D01*
X003839507Y002545213D01*
X003833155Y002553956D01*
X003817956Y002569155D01*
X003800568Y002581788D01*
X003787572Y002588409D01*
X003782493Y002593207D01*
X003780813Y002599989D01*
X003783067Y002606602D01*
X003784434Y002608226D01*
X003791179Y002614971D01*
X003791179Y002614971D01*
X003799939Y002628081D01*
X003799940Y002628083D01*
X003805974Y002642650D01*
X003805974Y002642650D01*
X003809050Y002658115D01*
X003809050Y002658115D01*
X003809050Y002673884D01*
X003809050Y002673885D01*
X003805974Y002689350D01*
X003799939Y002703918D01*
X003791179Y002717029D01*
X003780029Y002728179D01*
X003766918Y002736939D01*
X003752350Y002742974D01*
X003744652Y002744505D01*
X003736884Y002746050D01*
X003736884Y002746050D01*
X003721116Y002746050D01*
X003721116Y002746050D01*
X003711786Y002744194D01*
X003705650Y002742974D01*
X003705650Y002742973D01*
X003691083Y002736940D01*
X003691081Y002736939D01*
X003677971Y002728179D01*
X003677971Y002728179D01*
X003666821Y002717029D01*
X003666821Y002717029D01*
X003658061Y002703919D01*
X003658060Y002703917D01*
X003652026Y002689350D01*
X003652026Y002689349D01*
X003648950Y002673885D01*
X003648950Y002658115D01*
X003652026Y002642651D01*
X003652026Y002642650D01*
X003658060Y002628083D01*
X003658061Y002628081D01*
X003666821Y002614971D01*
X003673566Y002608226D01*
X003676914Y002602094D01*
X003676416Y002595125D01*
X003672229Y002589531D01*
X003670427Y002588409D01*
X003668161Y002587255D01*
X003657432Y002581788D01*
X003640044Y002569155D01*
X003624846Y002553956D01*
X003618493Y002545213D01*
X003612001Y002536277D01*
X003606468Y002532011D01*
X003599507Y002531413D01*
X003593327Y002534673D01*
X003591937Y002536277D01*
X003579117Y002553923D01*
X003579116Y002553924D01*
X003563924Y002569116D01*
X003546542Y002581745D01*
X003527397Y002591500D01*
X003506964Y002598139D01*
X003500000Y002599242D01*
X003500000Y002494456D01*
X003494685Y002497525D01*
X003481714Y002501000D01*
X003468286Y002501000D01*
X003455315Y002497525D01*
X003450000Y002494456D01*
X003450000Y002599242D01*
X003450000Y002599242D01*
X003443036Y002598139D01*
X003443036Y002598139D01*
X003422602Y002591500D01*
X003403458Y002581745D01*
X003386076Y002569116D01*
X003376610Y002559650D01*
X003370478Y002556302D01*
X003363509Y002556800D01*
X003357915Y002560988D01*
X003356224Y002564085D01*
X003354345Y002569122D01*
X003351880Y002575733D01*
X003343255Y002587255D01*
X003331733Y002595880D01*
X003318248Y002600909D01*
X003312287Y002601550D01*
X003129713Y002601550D01*
X003124876Y002601030D01*
X003123752Y002600909D01*
X003110267Y002595880D01*
X003110266Y002595879D01*
X003098745Y002587255D01*
X003098745Y002587254D01*
X003090121Y002575733D01*
X003090120Y002575733D01*
X003085091Y002562248D01*
X003084450Y002556288D01*
X003084450Y002556286D01*
X001723903Y002556286D01*
X001729440Y002563908D01*
X001733229Y002569122D01*
X001743608Y002589493D01*
X001750673Y002611237D01*
X001752853Y002625000D01*
X001658075Y002625000D01*
X001660252Y002628771D01*
X001664000Y002642759D01*
X001664000Y002657241D01*
X001660252Y002671229D01*
X001658075Y002675000D01*
X001752853Y002675000D01*
X001750673Y002688763D01*
X001743608Y002710507D01*
X001733229Y002730878D01*
X001719790Y002749374D01*
X001703624Y002765540D01*
X001685128Y002778979D01*
X001664757Y002789358D01*
X001643013Y002796423D01*
X001634000Y002797851D01*
X001634000Y002699075D01*
X001630229Y002701252D01*
X001616241Y002705000D01*
X001601759Y002705000D01*
X001587771Y002701252D01*
X001584000Y002699075D01*
X001584000Y002797851D01*
X001574987Y002796423D01*
X001553243Y002789358D01*
X001532872Y002778979D01*
X001514376Y002765540D01*
X001498210Y002749374D01*
X001498210Y002749374D01*
X001492063Y002740914D01*
X001486530Y002736647D01*
X001479568Y002736049D01*
X001473389Y002739310D01*
X001472000Y002740913D01*
X001465829Y002749407D01*
X001449657Y002765579D01*
X001431154Y002779022D01*
X001410776Y002789405D01*
X001389025Y002796472D01*
X001366435Y002800050D01*
X001343565Y002800050D01*
X001320976Y002796472D01*
X001320975Y002796472D01*
X001320975Y002796472D01*
X001299224Y002789405D01*
X001299224Y002789405D01*
X001278846Y002779022D01*
X001260576Y002765747D01*
X001253995Y002763399D01*
X001247190Y002764982D01*
X001242320Y002769992D01*
X001241669Y002771446D01*
X001240630Y002774233D01*
X001240630Y002774233D01*
X001232005Y002785755D01*
X001220483Y002794380D01*
X001206998Y002799409D01*
X001201037Y002800050D01*
X001000963Y002800050D01*
X000996126Y002799530D01*
X000995002Y002799409D01*
X000981517Y002794380D01*
X000981516Y002794379D01*
X000969996Y002785755D01*
X000969995Y002785754D01*
X000961371Y002774233D01*
X000961370Y002774233D01*
X000956341Y002760748D01*
X000955700Y002754788D01*
X000955700Y002754786D01*
X000050050Y002754786D01*
X000050050Y003193786D01*
X006273950Y003193786D01*
X006273950Y003014213D01*
X006273950Y003014212D01*
X006274591Y003008252D01*
X006279620Y002994767D01*
X006279621Y002994766D01*
X006288245Y002983245D01*
X006288245Y002983245D01*
X006299766Y002974621D01*
X006299767Y002974620D01*
X006313252Y002969591D01*
X006313252Y002969591D01*
X006319212Y002968950D01*
X006319212Y002968950D01*
X006319213Y002968950D01*
X006319213Y002968950D01*
X006319213Y002968950D01*
X006498787Y002968950D01*
X006498788Y002968950D01*
X006504748Y002969591D01*
X006518233Y002974620D01*
X006518233Y002974621D01*
X006529754Y002983245D01*
X006529755Y002983245D01*
X006538379Y002994766D01*
X006538380Y002994767D01*
X006540593Y003000700D01*
X006540593Y003000700D01*
X006543409Y003008252D01*
X006544050Y003014213D01*
X006544050Y003016602D01*
X006544333Y003017904D01*
X006545394Y003019847D01*
X006546018Y003021972D01*
X006547680Y003024035D01*
X006547681Y003024036D01*
X006547681Y003024036D01*
X006547682Y003024037D01*
X006614704Y003091059D01*
X006616407Y003084701D01*
X006622990Y003073299D01*
X006632299Y003063990D01*
X006643701Y003057407D01*
X006650059Y003055704D01*
X006586828Y002992473D01*
X006586828Y002992473D01*
X006592244Y002988538D01*
X006611178Y002978890D01*
X006631387Y002972324D01*
X006652375Y002969000D01*
X006673625Y002969000D01*
X006694613Y002972324D01*
X006694613Y002972324D01*
X006714822Y002978890D01*
X006733755Y002988537D01*
X006739172Y002992473D01*
X006675941Y003055704D01*
X006682299Y003057407D01*
X006693701Y003063990D01*
X006703010Y003073299D01*
X006709592Y003084701D01*
X006711296Y003091059D01*
X006774527Y003027828D01*
X006774527Y003027828D01*
X006778463Y003033245D01*
X006778923Y003034149D01*
X006783721Y003039229D01*
X006790503Y003040909D01*
X006797116Y003038655D01*
X006801020Y003034150D01*
X006801495Y003033218D01*
X006813989Y003016021D01*
X006829021Y003000989D01*
X006846218Y002988495D01*
X006865158Y002978844D01*
X006885376Y002972275D01*
X006885376Y002972275D01*
X006902325Y002969591D01*
X006906371Y002968950D01*
X006906371Y002968950D01*
X006927629Y002968950D01*
X006927629Y002968950D01*
X006933964Y002969953D01*
X006948624Y002972275D01*
X006948624Y002972275D01*
X006948624Y002972275D01*
X006968841Y002978844D01*
X006987782Y002988495D01*
X006987782Y002988495D01*
X007004979Y003000989D01*
X007020011Y003016021D01*
X007032505Y003033218D01*
X007032952Y003034095D01*
X007037749Y003039174D01*
X007044531Y003040854D01*
X007051145Y003038600D01*
X007055048Y003034095D01*
X007055495Y003033218D01*
X007067989Y003016021D01*
X007083021Y003000989D01*
X007100218Y002988495D01*
X007119159Y002978844D01*
X007139376Y002972275D01*
X007139376Y002972275D01*
X007156325Y002969591D01*
X007160371Y002968950D01*
X007160371Y002968950D01*
X007181629Y002968950D01*
X007181629Y002968950D01*
X007187964Y002969953D01*
X007202624Y002972275D01*
X007202624Y002972275D01*
X007202624Y002972275D01*
X007222841Y002978844D01*
X007241782Y002988495D01*
X007241782Y002988495D01*
X007258979Y003000989D01*
X007274011Y003016021D01*
X007286505Y003033218D01*
X007286505Y003033218D01*
X007296156Y003052159D01*
X007302725Y003072376D01*
X007306050Y003093371D01*
X007306050Y003114629D01*
X007302725Y003135624D01*
X007296156Y003155841D01*
X007286505Y003174782D01*
X007279835Y003183963D01*
X007274011Y003191979D01*
X007274011Y003191979D01*
X007274010Y003191979D01*
X007258979Y003207010D01*
X007258979Y003207011D01*
X007258979Y003207011D01*
X007241782Y003219505D01*
X007241782Y003219505D01*
X007222841Y003229156D01*
X007202624Y003235725D01*
X007181629Y003239050D01*
X007160371Y003239050D01*
X007139376Y003235725D01*
X007119159Y003229156D01*
X007100218Y003219505D01*
X007100218Y003219505D01*
X007100218Y003219505D01*
X007083021Y003207011D01*
X007067989Y003191979D01*
X007055495Y003174782D01*
X007055049Y003173906D01*
X007050251Y003168826D01*
X007043469Y003167146D01*
X007036856Y003169400D01*
X007032951Y003173906D01*
X007032505Y003174782D01*
X007025835Y003183963D01*
X007020011Y003191979D01*
X007020011Y003191979D01*
X007020010Y003191979D01*
X007004979Y003207010D01*
X007004979Y003207011D01*
X007004979Y003207011D01*
X006987782Y003219505D01*
X006987782Y003219505D01*
X006968841Y003229156D01*
X006948624Y003235725D01*
X006927629Y003239050D01*
X006906371Y003239050D01*
X006885376Y003235725D01*
X006865159Y003229156D01*
X006846218Y003219505D01*
X006846218Y003219505D01*
X006846218Y003219505D01*
X006829021Y003207011D01*
X006813989Y003191979D01*
X006801495Y003174782D01*
X006801020Y003173850D01*
X006796223Y003168771D01*
X006789441Y003167091D01*
X006782827Y003169345D01*
X006778923Y003173851D01*
X006778462Y003174756D01*
X006774527Y003180172D01*
X006774527Y003180172D01*
X006711296Y003116941D01*
X006709592Y003123299D01*
X006703010Y003134701D01*
X006693701Y003144010D01*
X006682299Y003150593D01*
X006675941Y003152296D01*
X006739172Y003215527D01*
X006733755Y003219462D01*
X006714822Y003229109D01*
X006694613Y003235676D01*
X006673625Y003239000D01*
X006652375Y003239000D01*
X006631387Y003235676D01*
X006631387Y003235676D01*
X006611178Y003229109D01*
X006592245Y003219462D01*
X006586828Y003215527D01*
X006586828Y003215527D01*
X006650059Y003152296D01*
X006643701Y003150593D01*
X006632299Y003144010D01*
X006622990Y003134701D01*
X006616407Y003123299D01*
X006614704Y003116941D01*
X006547682Y003183963D01*
X006544333Y003190095D01*
X006544333Y003190096D01*
X006544050Y003191398D01*
X006544050Y003193787D01*
X006543409Y003199748D01*
X006538380Y003213233D01*
X006529755Y003224755D01*
X006518233Y003233380D01*
X006504748Y003238409D01*
X006498787Y003239050D01*
X006319213Y003239050D01*
X006314376Y003238530D01*
X006313252Y003238409D01*
X006299767Y003233380D01*
X006299766Y003233379D01*
X006288245Y003224755D01*
X006288245Y003224754D01*
X006279621Y003213233D01*
X006279620Y003213233D01*
X006274591Y003199748D01*
X006273950Y003193788D01*
X006273950Y003193786D01*
X000050050Y003193786D01*
X000050050Y003766002D01*
X000948950Y003766002D01*
X000948950Y003486000D01*
X000948950Y003485998D01*
X000950000Y003475720D01*
X000950000Y003475720D01*
X000955519Y003459067D01*
X000955519Y003459066D01*
X000964729Y003444134D01*
X000977134Y003431729D01*
X000992066Y003422519D01*
X000992067Y003422518D01*
X001000467Y003419735D01*
X001008720Y003417000D01*
X001008720Y003417000D01*
X001018999Y003415950D01*
X001018999Y003415950D01*
X001299000Y003415950D01*
X001299002Y003415950D01*
X001309280Y003417000D01*
X001309280Y003417000D01*
X001325933Y003422518D01*
X001325933Y003422519D01*
X001340866Y003431729D01*
X001353271Y003444134D01*
X001362481Y003459067D01*
X001368000Y003475720D01*
X001369050Y003485999D01*
X001369050Y003766001D01*
X001368000Y003776280D01*
X001362481Y003792933D01*
X001353271Y003807866D01*
X001340866Y003820271D01*
X001325933Y003829481D01*
X001309280Y003835000D01*
X001299001Y003836050D01*
X001018999Y003836050D01*
X001018998Y003836050D01*
X001018998Y003836050D01*
X001008720Y003835000D01*
X000992067Y003829481D01*
X000977134Y003820271D01*
X000964729Y003807866D01*
X000955519Y003792933D01*
X000950000Y003776280D01*
X000950000Y003776279D01*
X000950000Y003776279D01*
X000948950Y003766002D01*
X000050050Y003766002D01*
X000050050Y004260232D01*
X006429000Y004260232D01*
X006429000Y004239768D01*
X006432201Y004219558D01*
X006438524Y004200097D01*
X006447814Y004181864D01*
X006451052Y004177408D01*
X006451052Y004177408D01*
X006519000Y004245355D01*
X006519000Y004244734D01*
X006521726Y004234561D01*
X006526992Y004225439D01*
X006534439Y004217992D01*
X006543561Y004212726D01*
X006553734Y004210000D01*
X006554355Y004210000D01*
X006486408Y004142052D01*
X006486408Y004142052D01*
X006490864Y004138814D01*
X006509097Y004129524D01*
X006528558Y004123201D01*
X006548768Y004120000D01*
X006569232Y004120000D01*
X006589442Y004123201D01*
X006608903Y004129524D01*
X006627135Y004138814D01*
X006634155Y004143915D01*
X006640736Y004146263D01*
X006647541Y004144680D01*
X006650212Y004142651D01*
X006657134Y004135729D01*
X006672066Y004126519D01*
X006672067Y004126519D01*
X006680467Y004123735D01*
X006688720Y004121000D01*
X006688720Y004121000D01*
X006698999Y004119950D01*
X006698999Y004119950D01*
X006819000Y004119950D01*
X006819002Y004119950D01*
X006829280Y004121000D01*
X006829280Y004121000D01*
X006845933Y004126519D01*
X006845933Y004126519D01*
X006860866Y004135729D01*
X006873271Y004148134D01*
X006882481Y004163067D01*
X006888000Y004179720D01*
X006889050Y004189999D01*
X006889050Y004310001D01*
X006888000Y004320280D01*
X006882481Y004336933D01*
X006873271Y004351866D01*
X006860866Y004364271D01*
X006845933Y004373481D01*
X006829280Y004379000D01*
X006819001Y004380050D01*
X006698999Y004380050D01*
X006698998Y004380050D01*
X006698998Y004380050D01*
X006688720Y004379000D01*
X006672067Y004373481D01*
X006657134Y004364271D01*
X006657134Y004364271D01*
X006650212Y004357349D01*
X006644080Y004354000D01*
X006637111Y004354499D01*
X006634155Y004356085D01*
X006627135Y004361186D01*
X006627134Y004361186D01*
X006608903Y004370476D01*
X006589442Y004376799D01*
X006569232Y004380000D01*
X006548768Y004380000D01*
X006528558Y004376799D01*
X006509097Y004370476D01*
X006490865Y004361186D01*
X006486408Y004357947D01*
X006486408Y004357947D01*
X006554355Y004290000D01*
X006553734Y004290000D01*
X006543561Y004287274D01*
X006534439Y004282008D01*
X006526992Y004274561D01*
X006521726Y004265439D01*
X006519000Y004255266D01*
X006519000Y004254645D01*
X006451052Y004322592D01*
X006451052Y004322592D01*
X006447815Y004318136D01*
X006447814Y004318135D01*
X006438524Y004299903D01*
X006432201Y004280442D01*
X006429000Y004260232D01*
X000050050Y004260232D01*
X000050050Y005163767D01*
X000948950Y005163767D01*
X000948950Y005136233D01*
X000948950Y005136231D01*
X000952544Y005108934D01*
X000952544Y005108933D01*
X000959670Y005082337D01*
X000970208Y005056898D01*
X000970208Y005056897D01*
X000983975Y005033052D01*
X001000737Y005011207D01*
X001000738Y005011207D01*
X001020207Y004991738D01*
X001020207Y004991737D01*
X001042052Y004974975D01*
X001065897Y004961208D01*
X001065898Y004961208D01*
X001091337Y004950670D01*
X001112313Y004945050D01*
X001117933Y004943544D01*
X001117934Y004943544D01*
X001117934Y004943544D01*
X001145231Y004939950D01*
X001145232Y004939950D01*
X001145233Y004939950D01*
X001145233Y004939950D01*
X001172767Y004939950D01*
X001172767Y004939950D01*
X001172768Y004939950D01*
X001172768Y004939950D01*
X001200066Y004943544D01*
X001200066Y004943544D01*
X001200067Y004943544D01*
X001213365Y004947107D01*
X001226663Y004950670D01*
X001252102Y004961208D01*
X001252103Y004961208D01*
X001266441Y004969486D01*
X001275948Y004974975D01*
X001282154Y004979737D01*
X001297793Y004991737D01*
X001297793Y004991738D01*
X001317262Y005011207D01*
X001317263Y005011207D01*
X001334025Y005033052D01*
X001334025Y005033052D01*
X001342873Y005048378D01*
X001347792Y005056897D01*
X001347792Y005056898D01*
X001358329Y005082337D01*
X001362241Y005096933D01*
X001365456Y005108933D01*
X001369050Y005136233D01*
X001369050Y005151767D01*
X004698950Y005151767D01*
X004698950Y005124233D01*
X004698950Y005124231D01*
X004702544Y005096934D01*
X004702544Y005096933D01*
X004709670Y005070337D01*
X004720207Y005044898D01*
X004720208Y005044897D01*
X004733975Y005021052D01*
X004750737Y004999207D01*
X004750738Y004999207D01*
X004770207Y004979738D01*
X004770207Y004979737D01*
X004792052Y004962975D01*
X004815897Y004949208D01*
X004815898Y004949207D01*
X004841337Y004938670D01*
X004862313Y004933050D01*
X004867933Y004931544D01*
X004867934Y004931544D01*
X004867934Y004931544D01*
X004895231Y004927950D01*
X004895232Y004927950D01*
X004895233Y004927950D01*
X004895233Y004927950D01*
X004922767Y004927950D01*
X004922767Y004927950D01*
X004922768Y004927950D01*
X004922768Y004927950D01*
X004950065Y004931544D01*
X004950066Y004931544D01*
X004950067Y004931544D01*
X004963365Y004935107D01*
X004976663Y004938670D01*
X005002102Y004949207D01*
X005002103Y004949208D01*
X005022886Y004961208D01*
X005025948Y004962975D01*
X005041587Y004974975D01*
X005047793Y004979737D01*
X005047793Y004979738D01*
X005067262Y004999207D01*
X005067263Y004999207D01*
X005084024Y005021052D01*
X005084025Y005021052D01*
X005092873Y005036378D01*
X005097792Y005044897D01*
X005097792Y005044898D01*
X005108330Y005070337D01*
X005115456Y005096933D01*
X005119050Y005124233D01*
X005119050Y005151767D01*
X005115456Y005179067D01*
X005108330Y005205663D01*
X005097792Y005231102D01*
X005084025Y005254948D01*
X005067263Y005276793D01*
X005047793Y005296263D01*
X005025948Y005313025D01*
X005002102Y005326792D01*
X004976663Y005337330D01*
X004950067Y005344456D01*
X004922767Y005348050D01*
X004895233Y005348050D01*
X004867933Y005344456D01*
X004841337Y005337330D01*
X004815898Y005326792D01*
X004815898Y005326792D01*
X004815897Y005326792D01*
X004807378Y005321873D01*
X004792052Y005313025D01*
X004792052Y005313025D01*
X004770207Y005296263D01*
X004770207Y005296262D01*
X004750738Y005276793D01*
X004750737Y005276793D01*
X004733975Y005254948D01*
X004728486Y005245441D01*
X004720208Y005231103D01*
X004720208Y005231102D01*
X004709671Y005205663D01*
X004702544Y005179067D01*
X004702544Y005179066D01*
X004702544Y005179065D01*
X004698950Y005151768D01*
X004698950Y005151767D01*
X001369050Y005151767D01*
X001369050Y005163767D01*
X001365456Y005191067D01*
X001358329Y005217663D01*
X001347792Y005243102D01*
X001334025Y005266948D01*
X001317263Y005288793D01*
X001297793Y005308263D01*
X001275948Y005325025D01*
X001252102Y005338792D01*
X001226663Y005349329D01*
X001200067Y005356456D01*
X001172767Y005360050D01*
X001145233Y005360050D01*
X001117933Y005356456D01*
X001091337Y005349329D01*
X001065898Y005338792D01*
X001065898Y005338792D01*
X001065897Y005338792D01*
X001057378Y005333873D01*
X001042052Y005325025D01*
X001042052Y005325025D01*
X001020207Y005308263D01*
X001020207Y005308262D01*
X001000738Y005288793D01*
X001000737Y005288793D01*
X000983975Y005266948D01*
X000983975Y005266948D01*
X000978486Y005257441D01*
X000970208Y005243103D01*
X000970208Y005243102D01*
X000959671Y005217663D01*
X000952544Y005191067D01*
X000952544Y005191066D01*
X000952544Y005191065D01*
X000948950Y005163768D01*
X000948950Y005163767D01*
X000050050Y005163767D01*
X000050050Y006520002D01*
X000909950Y006520002D01*
X000909950Y006279998D01*
X000911000Y006269720D01*
X000911000Y006269720D01*
X000916519Y006253066D01*
X000916519Y006253066D01*
X000925729Y006238135D01*
X000925729Y006238134D01*
X000938134Y006225729D01*
X000938135Y006225729D01*
X000953066Y006216519D01*
X000953066Y006216519D01*
X000969720Y006211000D01*
X000969720Y006211000D01*
X000979998Y006209950D01*
X000979999Y006209950D01*
X001220002Y006209950D01*
X001230280Y006211000D01*
X001230280Y006211000D01*
X001238607Y006213759D01*
X001246934Y006216519D01*
X001246934Y006216519D01*
X001261865Y006225729D01*
X001261865Y006225729D01*
X001274271Y006238134D01*
X001274271Y006238135D01*
X001283481Y006253066D01*
X001283481Y006253066D01*
X001284721Y006256806D01*
X001289000Y006269720D01*
X001290050Y006279999D01*
X001290050Y006412456D01*
X001409950Y006412456D01*
X001409950Y006387544D01*
X001409950Y006387542D01*
X001413202Y006362844D01*
X001419650Y006338779D01*
X001429183Y006315764D01*
X001429184Y006315762D01*
X001441640Y006294187D01*
X001456806Y006274423D01*
X001456807Y006274422D01*
X001474422Y006256807D01*
X001474423Y006256806D01*
X001494187Y006241640D01*
X001515762Y006229184D01*
X001515764Y006229183D01*
X001538779Y006219650D01*
X001562844Y006213202D01*
X001587542Y006209950D01*
X001587543Y006209950D01*
X001587543Y006209950D01*
X001587544Y006209950D01*
X001612456Y006209950D01*
X001612457Y006209950D01*
X001612457Y006209950D01*
X001612457Y006209950D01*
X001637156Y006213202D01*
X001661221Y006219650D01*
X001684236Y006229183D01*
X001684238Y006229184D01*
X001705813Y006241640D01*
X001725577Y006256806D01*
X001725578Y006256807D01*
X001743193Y006274422D01*
X001743194Y006274423D01*
X001758360Y006294187D01*
X001770816Y006315762D01*
X001770817Y006315764D01*
X001780278Y006338605D01*
X001780350Y006338779D01*
X001786798Y006362843D01*
X001790050Y006387544D01*
X001790050Y006412456D01*
X001786798Y006437157D01*
X001780350Y006461221D01*
X001770816Y006484237D01*
X001758360Y006505813D01*
X001747473Y006520002D01*
X002318950Y006520002D01*
X002318950Y006279998D01*
X002320000Y006269720D01*
X002320000Y006269720D01*
X002325519Y006253066D01*
X002325519Y006253066D01*
X002334729Y006238135D01*
X002334729Y006238134D01*
X002347134Y006225729D01*
X002347135Y006225729D01*
X002362066Y006216519D01*
X002362066Y006216519D01*
X002378720Y006211000D01*
X002378720Y006211000D01*
X002388998Y006209950D01*
X002388999Y006209950D01*
X002629001Y006209950D01*
X002639280Y006211000D01*
X002639280Y006211000D01*
X002647607Y006213759D01*
X002655934Y006216519D01*
X002655934Y006216519D01*
X002670865Y006225729D01*
X002670865Y006225729D01*
X002683271Y006238134D01*
X002683271Y006238135D01*
X002692481Y006253066D01*
X002692481Y006253066D01*
X002693721Y006256806D01*
X002698000Y006269720D01*
X002699050Y006279999D01*
X002699050Y006412456D01*
X002818950Y006412456D01*
X002818950Y006387544D01*
X002818950Y006387542D01*
X002822202Y006362844D01*
X002828650Y006338779D01*
X002838183Y006315764D01*
X002838184Y006315762D01*
X002850640Y006294187D01*
X002865806Y006274423D01*
X002865807Y006274422D01*
X002883422Y006256807D01*
X002883423Y006256806D01*
X002903187Y006241640D01*
X002924762Y006229184D01*
X002924764Y006229183D01*
X002947779Y006219650D01*
X002971844Y006213202D01*
X002996542Y006209950D01*
X002996543Y006209950D01*
X002996543Y006209950D01*
X002996544Y006209950D01*
X003021456Y006209950D01*
X003021456Y006209950D01*
X003021457Y006209950D01*
X003021457Y006209950D01*
X003046156Y006213202D01*
X003070221Y006219650D01*
X003093236Y006229183D01*
X003093238Y006229184D01*
X003114813Y006241640D01*
X003134577Y006256806D01*
X003134578Y006256807D01*
X003152193Y006274422D01*
X003152194Y006274423D01*
X003167360Y006294187D01*
X003179816Y006315762D01*
X003179817Y006315764D01*
X003189278Y006338605D01*
X003189350Y006338779D01*
X003195798Y006362843D01*
X003199050Y006387544D01*
X003199050Y006412456D01*
X003197629Y006423252D01*
X005993950Y006423252D01*
X005993950Y006183248D01*
X005995000Y006172970D01*
X005995000Y006172970D01*
X006000519Y006156316D01*
X006000519Y006156316D01*
X006009729Y006141385D01*
X006009729Y006141384D01*
X006022134Y006128979D01*
X006022135Y006128979D01*
X006037066Y006119769D01*
X006037066Y006119769D01*
X006053720Y006114250D01*
X006053720Y006114250D01*
X006063998Y006113200D01*
X006063999Y006113200D01*
X006304001Y006113200D01*
X006314280Y006114250D01*
X006314280Y006114250D01*
X006322607Y006117009D01*
X006330934Y006119769D01*
X006330934Y006119769D01*
X006345865Y006128979D01*
X006345865Y006128979D01*
X006358271Y006141384D01*
X006358271Y006141385D01*
X006367481Y006156316D01*
X006367481Y006156316D01*
X006369062Y006161086D01*
X006373000Y006172970D01*
X006374050Y006183249D01*
X006374050Y006315703D01*
X006494000Y006315703D01*
X006494000Y006290797D01*
X006497251Y006266104D01*
X006503697Y006242045D01*
X006513228Y006219035D01*
X006513228Y006219035D01*
X006525682Y006197464D01*
X006533140Y006187745D01*
X006533140Y006187745D01*
X006623896Y006278501D01*
X006626398Y006272461D01*
X006633511Y006261815D01*
X006642565Y006252761D01*
X006653211Y006245648D01*
X006659251Y006243146D01*
X006568495Y006152390D01*
X006568495Y006152390D01*
X006578214Y006144932D01*
X006599785Y006132478D01*
X006599785Y006132478D01*
X006622795Y006122947D01*
X006646854Y006116501D01*
X006671547Y006113250D01*
X006696453Y006113250D01*
X006721146Y006116501D01*
X006745205Y006122947D01*
X006768215Y006132478D01*
X006768216Y006132479D01*
X006789784Y006144931D01*
X006789785Y006144932D01*
X006799505Y006152390D01*
X006708749Y006243146D01*
X006714789Y006245648D01*
X006725435Y006252761D01*
X006734489Y006261815D01*
X006741602Y006272461D01*
X006744104Y006278501D01*
X006834860Y006187745D01*
X006842318Y006197465D01*
X006842319Y006197466D01*
X006854771Y006219034D01*
X006854772Y006219035D01*
X006864303Y006242045D01*
X006870749Y006266104D01*
X006874000Y006290797D01*
X006874000Y006315703D01*
X006870749Y006340396D01*
X006864303Y006364455D01*
X006854772Y006387465D01*
X006854771Y006387466D01*
X006842318Y006409035D01*
X006834860Y006418755D01*
X006834860Y006418755D01*
X006744104Y006327999D01*
X006741602Y006334039D01*
X006734489Y006344685D01*
X006725435Y006353739D01*
X006714789Y006360852D01*
X006708749Y006363354D01*
X006799505Y006454110D01*
X006799505Y006454110D01*
X006789786Y006461568D01*
X006768216Y006474021D01*
X006768215Y006474022D01*
X006745205Y006483553D01*
X006721146Y006489999D01*
X006696453Y006493250D01*
X006671547Y006493250D01*
X006646854Y006489999D01*
X006622795Y006483553D01*
X006599785Y006474022D01*
X006599784Y006474021D01*
X006578216Y006461569D01*
X006578215Y006461568D01*
X006568495Y006454110D01*
X006659251Y006363354D01*
X006653211Y006360852D01*
X006642565Y006353739D01*
X006633511Y006344685D01*
X006626398Y006334039D01*
X006623896Y006327999D01*
X006533140Y006418755D01*
X006525682Y006409035D01*
X006525681Y006409034D01*
X006513229Y006387466D01*
X006513228Y006387465D01*
X006503697Y006364455D01*
X006497251Y006340396D01*
X006494000Y006315703D01*
X006374050Y006315703D01*
X006374050Y006423251D01*
X006373000Y006433530D01*
X006367481Y006450183D01*
X006358271Y006465115D01*
X006345865Y006477521D01*
X006330933Y006486731D01*
X006314280Y006492250D01*
X006304001Y006493300D01*
X006063999Y006493300D01*
X006053720Y006492250D01*
X006037067Y006486731D01*
X006037066Y006486731D01*
X006037066Y006486731D01*
X006022135Y006477521D01*
X006022134Y006477521D01*
X006009729Y006465115D01*
X006009729Y006465115D01*
X006000519Y006450184D01*
X006000519Y006450183D01*
X005995000Y006433530D01*
X005995000Y006433530D01*
X005993950Y006423252D01*
X003197629Y006423252D01*
X003195798Y006437157D01*
X003189350Y006461221D01*
X003179816Y006484237D01*
X003167360Y006505813D01*
X003152194Y006525578D01*
X003134578Y006543194D01*
X003114813Y006558360D01*
X003093237Y006570816D01*
X003070221Y006580350D01*
X003046156Y006586798D01*
X003021456Y006590050D01*
X002996543Y006590050D01*
X002971843Y006586798D01*
X002947779Y006580350D01*
X002934682Y006574925D01*
X002924764Y006570817D01*
X002924762Y006570816D01*
X002903187Y006558360D01*
X002883423Y006543194D01*
X002883422Y006543193D01*
X002865807Y006525578D01*
X002865806Y006525577D01*
X002850640Y006505813D01*
X002838184Y006484238D01*
X002838183Y006484236D01*
X002831346Y006467729D01*
X002828650Y006461221D01*
X002824415Y006445414D01*
X002822202Y006437156D01*
X002818950Y006412457D01*
X002818950Y006412456D01*
X002699050Y006412456D01*
X002699050Y006520001D01*
X002698000Y006530280D01*
X002692481Y006546933D01*
X002683271Y006561865D01*
X002670865Y006574271D01*
X002655933Y006583481D01*
X002639280Y006589000D01*
X002629001Y006590050D01*
X002388999Y006590050D01*
X002378720Y006589000D01*
X002362067Y006583481D01*
X002362066Y006583481D01*
X002362066Y006583481D01*
X002347135Y006574271D01*
X002347134Y006574271D01*
X002334729Y006561865D01*
X002334729Y006561865D01*
X002325519Y006546934D01*
X002325519Y006546934D01*
X002320000Y006530280D01*
X002320000Y006530280D01*
X002318950Y006520002D01*
X001747473Y006520002D01*
X001743194Y006525578D01*
X001725578Y006543194D01*
X001705813Y006558360D01*
X001684237Y006570816D01*
X001661221Y006580350D01*
X001637157Y006586798D01*
X001612457Y006590050D01*
X001587543Y006590050D01*
X001562843Y006586798D01*
X001538779Y006580350D01*
X001525683Y006574925D01*
X001515764Y006570817D01*
X001515762Y006570816D01*
X001494187Y006558360D01*
X001474423Y006543194D01*
X001474422Y006543193D01*
X001456807Y006525578D01*
X001456806Y006525577D01*
X001441640Y006505813D01*
X001429184Y006484238D01*
X001429183Y006484236D01*
X001422346Y006467729D01*
X001419650Y006461221D01*
X001415414Y006445414D01*
X001413202Y006437156D01*
X001409950Y006412457D01*
X001409950Y006412456D01*
X001290050Y006412456D01*
X001290050Y006520001D01*
X001289000Y006530280D01*
X001283481Y006546933D01*
X001274271Y006561865D01*
X001261865Y006574271D01*
X001246933Y006583481D01*
X001230280Y006589000D01*
X001220001Y006590050D01*
X000979999Y006590050D01*
X000969720Y006589000D01*
X000953067Y006583481D01*
X000953066Y006583481D01*
X000953066Y006583481D01*
X000938135Y006574271D01*
X000938134Y006574271D01*
X000925729Y006561865D01*
X000925729Y006561865D01*
X000916519Y006546934D01*
X000916519Y006546934D01*
X000911000Y006530280D01*
X000911000Y006530280D01*
X000909950Y006520002D01*
X000050050Y006520002D01*
X000050050Y006802002D01*
X004698950Y006802002D01*
X004698950Y006522000D01*
X004698950Y006521998D01*
X004700000Y006511720D01*
X004700000Y006511720D01*
X004705518Y006495067D01*
X004705519Y006495066D01*
X004714729Y006480134D01*
X004727134Y006467729D01*
X004742066Y006458519D01*
X004742067Y006458518D01*
X004750467Y006455735D01*
X004758720Y006453000D01*
X004758720Y006453000D01*
X004768999Y006451950D01*
X004768999Y006451950D01*
X005049000Y006451950D01*
X005049002Y006451950D01*
X005059280Y006453000D01*
X005059280Y006453000D01*
X005075933Y006458518D01*
X005075933Y006458519D01*
X005090866Y006467729D01*
X005103271Y006480134D01*
X005112481Y006495067D01*
X005118000Y006511720D01*
X005119050Y006521999D01*
X005119050Y006802001D01*
X005118000Y006812280D01*
X005112481Y006828933D01*
X005103271Y006843866D01*
X005090866Y006856271D01*
X005075933Y006865481D01*
X005059280Y006871000D01*
X005049001Y006872050D01*
X004768999Y006872050D01*
X004768998Y006872050D01*
X004768998Y006872050D01*
X004758720Y006871000D01*
X004742067Y006865481D01*
X004727134Y006856271D01*
X004714729Y006843866D01*
X004705519Y006828933D01*
X004700000Y006812280D01*
X004700000Y006812279D01*
X004700000Y006812279D01*
X004698950Y006802002D01*
X000050050Y006802002D01*
X000050050Y007412129D01*
X000414950Y007412129D01*
X000414950Y007387871D01*
X000418116Y007363821D01*
X000424395Y007340390D01*
X000433677Y007317979D01*
X000433678Y007317979D01*
X000445807Y007296971D01*
X000460573Y007277726D01*
X000460574Y007277726D01*
X000477726Y007260574D01*
X000477726Y007260573D01*
X000496971Y007245807D01*
X000517979Y007233678D01*
X000517979Y007233677D01*
X000540389Y007224395D01*
X000563821Y007218116D01*
X000587871Y007214950D01*
X000587871Y007214950D01*
X000612129Y007214950D01*
X000636178Y007218116D01*
X000659610Y007224395D01*
X000682021Y007233677D01*
X000682021Y007233678D01*
X000685866Y007235897D01*
X000703029Y007245806D01*
X000703029Y007245807D01*
X000722274Y007260573D01*
X000722274Y007260574D01*
X000739426Y007277726D01*
X000739427Y007277726D01*
X000754193Y007296971D01*
X000754194Y007296971D01*
X000766322Y007317979D01*
X000775605Y007340390D01*
X000781884Y007363821D01*
X000785050Y007387871D01*
X000785050Y007412129D01*
X007214950Y007412129D01*
X007214950Y007387871D01*
X007218116Y007363821D01*
X007224395Y007340390D01*
X007233677Y007317979D01*
X007233678Y007317979D01*
X007245807Y007296971D01*
X007260573Y007277726D01*
X007260574Y007277726D01*
X007277726Y007260574D01*
X007277726Y007260573D01*
X007296971Y007245807D01*
X007317978Y007233678D01*
X007317979Y007233677D01*
X007340390Y007224395D01*
X007363821Y007218116D01*
X007387871Y007214950D01*
X007387871Y007214950D01*
X007412129Y007214950D01*
X007436178Y007218116D01*
X007459610Y007224395D01*
X007482021Y007233677D01*
X007482021Y007233678D01*
X007485866Y007235897D01*
X007503029Y007245806D01*
X007503029Y007245807D01*
X007522274Y007260573D01*
X007522274Y007260574D01*
X007539426Y007277726D01*
X007539427Y007277726D01*
X007554193Y007296971D01*
X007554194Y007296971D01*
X007566322Y007317979D01*
X007575605Y007340390D01*
X007581884Y007363821D01*
X007585050Y007387871D01*
X007585050Y007412129D01*
X007581884Y007436179D01*
X007575605Y007459610D01*
X007566322Y007482021D01*
X007554194Y007503029D01*
X007539427Y007522274D01*
X007522274Y007539426D01*
X007503029Y007554194D01*
X007482021Y007566322D01*
X007459610Y007575605D01*
X007436179Y007581884D01*
X007416939Y007584417D01*
X007412129Y007585050D01*
X007412129Y007585050D01*
X007387871Y007585050D01*
X007387871Y007585050D01*
X007381859Y007584258D01*
X007363821Y007581884D01*
X007340390Y007575605D01*
X007317979Y007566322D01*
X007296971Y007554194D01*
X007296971Y007554193D01*
X007277726Y007539427D01*
X007277726Y007539426D01*
X007260574Y007522274D01*
X007260573Y007522274D01*
X007245806Y007503029D01*
X007235897Y007485866D01*
X007233678Y007482021D01*
X007233677Y007482020D01*
X007224395Y007459610D01*
X007218116Y007436178D01*
X007214950Y007412129D01*
X000785050Y007412129D01*
X000781884Y007436179D01*
X000775605Y007459610D01*
X000766322Y007482021D01*
X000754194Y007503029D01*
X000739426Y007522274D01*
X000722274Y007539426D01*
X000703029Y007554194D01*
X000682021Y007566322D01*
X000659610Y007575605D01*
X000636179Y007581884D01*
X000616939Y007584417D01*
X000612129Y007585050D01*
X000612129Y007585050D01*
X000587871Y007585050D01*
X000587871Y007585050D01*
X000581859Y007584258D01*
X000563821Y007581884D01*
X000540390Y007575605D01*
X000517979Y007566322D01*
X000496971Y007554194D01*
X000496971Y007554193D01*
X000477726Y007539427D01*
X000477726Y007539426D01*
X000460574Y007522274D01*
X000460574Y007522274D01*
X000445806Y007503029D01*
X000435897Y007485866D01*
X000433678Y007482021D01*
X000433677Y007482020D01*
X000424395Y007459610D01*
X000418116Y007436178D01*
X000414950Y007412129D01*
X000050050Y007412129D01*
X000050050Y007937550D01*
X000052018Y007944254D01*
X000057299Y007948829D01*
X000062450Y007949950D01*
X007937550Y007949950D01*
X007937550Y007949950D01*
X007944254Y007947982D01*
G37*
D10*
X003983000Y001504000D03*
D11*
X003983000Y001250000D03*
X003729000Y001504000D03*
X003729000Y001250000D03*
X003475000Y001504000D03*
X003475000Y001250000D03*
X003221000Y001504000D03*
X003221000Y001250000D03*
D10*
X006409000Y003104000D03*
D11*
X006663000Y003104000D03*
X006917000Y003104000D03*
X007171000Y003104000D03*
D12*
X005139000Y002300000D03*
D13*
X005309000Y002300000D03*
X005479000Y002300000D03*
X005649000Y002300000D03*
X005819000Y002300000D03*
D14*
X002017000Y001950000D03*
X001001000Y001950000D03*
G36*
G01**
X002649000Y006515000D02*
X002648520Y006519877D01*
X002647097Y006524567D01*
X002644787Y006528889D01*
X002641678Y006532678D01*
X002637889Y006535787D01*
X002633567Y006538097D01*
X002628877Y006539520D01*
X002624000Y006540000D01*
X002394000Y006540000D01*
X002389123Y006539520D01*
X002384433Y006538097D01*
X002380111Y006535787D01*
X002376322Y006532678D01*
X002373213Y006528889D01*
X002370903Y006524567D01*
X002369480Y006519877D01*
X002369000Y006515000D01*
X002369000Y006285000D01*
X002369480Y006280123D01*
X002370903Y006275433D01*
X002373213Y006271111D01*
X002376322Y006267322D01*
X002380111Y006264213D01*
X002384433Y006261903D01*
X002389123Y006260480D01*
X002394000Y006260000D01*
X002624000Y006260000D01*
X002628877Y006260480D01*
X002633567Y006261903D01*
X002637889Y006264213D01*
X002641678Y006267322D01*
X002644787Y006271111D01*
X002647097Y006275433D01*
X002648520Y006280123D01*
X002649000Y006285000D01*
X002649000Y006285000D01*
X002649000Y006515000D01*
G37*
D15*
X003009000Y006400000D03*
D16*
X003221000Y002450000D03*
D17*
X003475000Y002450000D03*
X003729000Y002450000D03*
X003983000Y002450000D03*
G36*
G01**
X006324000Y006418250D02*
X006323520Y006423127D01*
X006322097Y006427817D01*
X006319787Y006432139D01*
X006316678Y006435928D01*
X006312889Y006439037D01*
X006308567Y006441347D01*
X006303877Y006442770D01*
X006299000Y006443250D01*
X006069000Y006443250D01*
X006064123Y006442770D01*
X006059433Y006441347D01*
X006055111Y006439037D01*
X006051322Y006435928D01*
X006048213Y006432139D01*
X006045903Y006427817D01*
X006044480Y006423127D01*
X006044000Y006418250D01*
X006044000Y006188250D01*
X006044480Y006183373D01*
X006045903Y006178683D01*
X006048213Y006174361D01*
X006051322Y006170572D01*
X006055111Y006167463D01*
X006059433Y006165153D01*
X006064123Y006163730D01*
X006069000Y006163250D01*
X006299000Y006163250D01*
X006303877Y006163730D01*
X006308567Y006165153D01*
X006312889Y006167463D01*
X006316678Y006170572D01*
X006319787Y006174361D01*
X006322097Y006178683D01*
X006323520Y006183373D01*
X006324000Y006188250D01*
X006324000Y006188250D01*
X006324000Y006418250D01*
G37*
D15*
X006684000Y006303250D03*
D14*
X006159000Y001700000D03*
X006659000Y001700000D03*
G36*
G01**
X001240000Y006515000D02*
X001239520Y006519877D01*
X001238097Y006524567D01*
X001235787Y006528889D01*
X001232678Y006532678D01*
X001228889Y006535787D01*
X001224567Y006538097D01*
X001219877Y006539520D01*
X001215000Y006540000D01*
X000985000Y006540000D01*
X000980123Y006539520D01*
X000975433Y006538097D01*
X000971111Y006535787D01*
X000967322Y006532678D01*
X000964213Y006528889D01*
X000961903Y006524567D01*
X000960480Y006519877D01*
X000960000Y006515000D01*
X000960000Y006285000D01*
X000960480Y006280123D01*
X000961903Y006275433D01*
X000964213Y006271111D01*
X000967322Y006267322D01*
X000971111Y006264213D01*
X000975433Y006261903D01*
X000980123Y006260480D01*
X000985000Y006260000D01*
X001215000Y006260000D01*
X001219877Y006260480D01*
X001224567Y006261903D01*
X001228889Y006264213D01*
X001232678Y006267322D01*
X001235787Y006271111D01*
X001238097Y006275433D01*
X001239520Y006280123D01*
X001240000Y006285000D01*
X001240000Y006285000D01*
X001240000Y006515000D01*
G37*
D15*
X001600000Y006400000D03*
G36*
G01**
X001319000Y003761000D02*
X001318520Y003765877D01*
X001317097Y003770567D01*
X001314787Y003774889D01*
X001311678Y003778678D01*
X001307889Y003781787D01*
X001303567Y003784097D01*
X001298877Y003785520D01*
X001294000Y003786000D01*
X001024000Y003786000D01*
X001019123Y003785520D01*
X001014433Y003784097D01*
X001010111Y003781787D01*
X001006322Y003778678D01*
X001003213Y003774889D01*
X001000903Y003770567D01*
X000999480Y003765877D01*
X000999000Y003761000D01*
X000999000Y003491000D01*
X000999480Y003486123D01*
X001000903Y003481433D01*
X001003213Y003477111D01*
X001006322Y003473322D01*
X001010111Y003470213D01*
X001014433Y003467903D01*
X001019123Y003466480D01*
X001024000Y003466000D01*
X001294000Y003466000D01*
X001298877Y003466480D01*
X001303567Y003467903D01*
X001307889Y003470213D01*
X001311678Y003473322D01*
X001314787Y003477111D01*
X001317097Y003481433D01*
X001318520Y003486123D01*
X001319000Y003491000D01*
X001319000Y003491000D01*
X001319000Y003761000D01*
G37*
D18*
X001159000Y005150000D03*
G36*
G01**
X005069000Y006797000D02*
X005068520Y006801877D01*
X005067097Y006806567D01*
X005064787Y006810889D01*
X005061678Y006814678D01*
X005057889Y006817787D01*
X005053567Y006820097D01*
X005048877Y006821520D01*
X005044000Y006822000D01*
X004774000Y006822000D01*
X004769123Y006821520D01*
X004764433Y006820097D01*
X004760111Y006817787D01*
X004756322Y006814678D01*
X004753213Y006810889D01*
X004750903Y006806567D01*
X004749480Y006801877D01*
X004749000Y006797000D01*
X004749000Y006527000D01*
X004749480Y006522123D01*
X004750903Y006517433D01*
X004753213Y006513111D01*
X004756322Y006509322D01*
X004760111Y006506213D01*
X004764433Y006503903D01*
X004769123Y006502480D01*
X004774000Y006502000D01*
X005044000Y006502000D01*
X005048877Y006502480D01*
X005053567Y006503903D01*
X005057889Y006506213D01*
X005061678Y006509322D01*
X005064787Y006513111D01*
X005067097Y006517433D01*
X005068520Y006522123D01*
X005069000Y006527000D01*
X005069000Y006527000D01*
X005069000Y006797000D01*
G37*
X004909000Y005138000D03*
D14*
X001501000Y001200000D03*
X002517000Y001200000D03*
G36*
G01**
X006839000Y004305000D02*
X006838520Y004309877D01*
X006837097Y004314567D01*
X006834787Y004318889D01*
X006831678Y004322678D01*
X006827889Y004325787D01*
X006823567Y004328097D01*
X006818877Y004329520D01*
X006814000Y004330000D01*
X006704000Y004330000D01*
X006699123Y004329520D01*
X006694433Y004328097D01*
X006690111Y004325787D01*
X006686322Y004322678D01*
X006683213Y004318889D01*
X006680903Y004314567D01*
X006679480Y004309877D01*
X006679000Y004305000D01*
X006679000Y004195000D01*
X006679480Y004190123D01*
X006680903Y004185433D01*
X006683213Y004181111D01*
X006686322Y004177322D01*
X006690111Y004174213D01*
X006694433Y004171903D01*
X006699123Y004170480D01*
X006704000Y004170000D01*
X006814000Y004170000D01*
X006818877Y004170480D01*
X006823567Y004171903D01*
X006827889Y004174213D01*
X006831678Y004177322D01*
X006834787Y004181111D01*
X006837097Y004185433D01*
X006838520Y004190123D01*
X006839000Y004195000D01*
X006839000Y004195000D01*
X006839000Y004305000D01*
G37*
X006559000Y004250000D03*
D19*
X001101000Y002650000D03*
D20*
X001355000Y002650000D03*
X001609000Y002650000D03*
D14*
X006809000Y002400000D03*
X007309000Y002400000D03*
M02*