G04 Gerber file generated by Gerbonara*
%MOMM*%
%FSLAX45Y45*%
%IPPOS*%
G75
%LPD*%
%ADD10C,0.3*%
%ADD11R,1.7X1.7*%
%ADD12C,1.7*%
%ADD13R,1.275X1.8*%
%ADD14O,1.275X1.8*%
%ADD15C,1.6*%
%ADD16C,2.8*%
%ADD17R,1.73X2.03*%
%ADD18O,1.73X2.03*%
%ADD19C,3.2*%
%ADD20R,1.905X2.0*%
%ADD21O,1.905X2.0*%
D10*
X005089000Y001570000D02*
X005023000Y001504000D01*
X006359000Y002400000D02*
X005659000Y001700000D01*
X003221000Y002266000D02*
X003983000Y001504000D01*
X006409000Y003104000D02*
X006409000Y002450000D01*
X005219000Y001700000D02*
X005073000Y001554000D01*
X005089000Y001570000D02*
X005819000Y002300000D01*
X005659000Y001700000D02*
X005219000Y001700000D01*
X003221000Y002450000D02*
X003221000Y002266000D01*
X005023000Y001504000D02*
X003983000Y001504000D01*
X006809000Y002400000D02*
X006359000Y002400000D01*
X006409000Y002450000D02*
X006359000Y002400000D01*
X005073000Y001554000D02*
X005089000Y001570000D01*
X006159000Y001700000D02*
X005659000Y001700000D01*
X006874000Y004169454D02*
X006727546Y004023000D01*
X006559000Y004250000D02*
X006674000Y004365000D01*
X006874000Y004330546D02*
X006874000Y004169454D01*
X006674000Y004365000D02*
X006839546Y004365000D01*
X006874000Y004330546D01*
X004844000Y004023000D02*
X004694000Y004173000D01*
X006727546Y004023000D02*
X004844000Y004023000D01*
X006163000Y003274000D02*
X005309000Y002420000D01*
X005309000Y002300000D01*
X003729000Y001560711D02*
X003729000Y001504000D01*
X007171000Y003104000D02*
X007171000Y002374635D01*
X003609000Y001200294D02*
X004009294Y000800000D01*
X006166365Y001370000D02*
X003859000Y001370000D01*
X005992345Y000800000D02*
X007474000Y002281655D01*
X007474000Y003041416D01*
X003729000Y001433289D02*
X003609000Y001313289D01*
X003859000Y001370000D02*
X003729000Y001500000D01*
X003609000Y001313289D02*
X003609000Y001200294D01*
X004009294Y000800000D02*
X005992345Y000800000D01*
X007241416Y003274000D02*
X006163000Y003274000D01*
X003729000Y001504000D02*
X003729000Y001433289D01*
X007474000Y003041416D02*
X007241416Y003274000D01*
X007171000Y002374635D02*
X006166365Y001370000D01*
X006909000Y003050000D02*
X006735000Y003224000D01*
X006289000Y003224000D01*
X007220706Y003224000D02*
X007424000Y003020706D01*
X006171635Y001050000D02*
X003929000Y001050000D01*
X005649000Y002584000D02*
X005649000Y002300000D01*
X006917000Y003104000D02*
X007037000Y003224000D01*
X006917000Y003104000D02*
X006917000Y003058000D01*
X007424000Y003020706D02*
X007424000Y002302365D01*
X007037000Y003224000D02*
X007220706Y003224000D01*
X006289000Y003224000D02*
X005649000Y002584000D01*
X003929000Y001050000D02*
X003729000Y001250000D01*
X006917000Y003058000D02*
X006909000Y003050000D01*
X007424000Y002302365D02*
X006171635Y001050000D01*
X002583000Y001384000D02*
X002017000Y001950000D01*
X003355000Y001384000D02*
X002583000Y001384000D01*
X003475000Y001504000D02*
X003355000Y001384000D01*
X003592500Y002586500D02*
X003099500Y002586500D01*
X003595000Y001370000D02*
X003475000Y001250000D01*
X003595000Y001584000D02*
X003595000Y001370000D01*
X003729000Y002450000D02*
X003592500Y002586500D01*
X003099500Y002079500D02*
X003595000Y001584000D01*
X003099500Y002586500D02*
X003099500Y002079500D01*
X003983000Y002551500D02*
X003773500Y002761000D01*
X003049500Y001675500D02*
X003221000Y001504000D01*
X003203289Y002761000D02*
X003049500Y002607211D01*
X003983000Y002450000D02*
X003983000Y002551500D01*
X003773500Y002761000D02*
X003203289Y002761000D01*
X003049500Y002607211D02*
X003049500Y001675500D01*
X003279000Y001250000D02*
X003283000Y001246000D01*
X003221000Y001250000D02*
X003279000Y001250000D01*
X001101000Y002650000D02*
X001101000Y002050000D01*
X001501000Y001200000D02*
X001501000Y001450000D01*
X001001000Y001950000D01*
X001101000Y002050000D02*
X001001000Y001950000D01*
X006759000Y004250000D02*
X006644000Y004135000D01*
X002509000Y006416000D02*
X002543000Y006450000D01*
X004909000Y005138000D02*
X005124000Y004923000D01*
X005162000Y004135000D02*
X005124000Y004173000D01*
X006644000Y004135000D02*
X005162000Y004135000D01*
X004909000Y005138000D02*
X003472000Y006575000D01*
X002684000Y006575000D02*
X002509000Y006400000D01*
X003472000Y006575000D02*
X002684000Y006575000D01*
X002509000Y006400000D02*
X002509000Y006416000D01*
X005124000Y004923000D02*
X005124000Y004173000D01*
X002018454Y006575000D02*
X002368454Y006225000D01*
X001275000Y006575000D02*
X002018454Y006575000D01*
X001100000Y006400000D02*
X001275000Y006575000D01*
X002834000Y006225000D02*
X003009000Y006400000D01*
X002368454Y006225000D02*
X002834000Y006225000D01*
X001159000Y006341000D02*
X001100000Y006400000D01*
X001159000Y005150000D02*
X001159000Y006341000D01*
X005267750Y006303250D02*
X004909000Y006662000D01*
X006184000Y006303250D02*
X005267750Y006303250D01*
X001600000Y004067000D02*
X001159000Y003626000D01*
X001600000Y006400000D02*
X001600000Y004067000D01*
X001355000Y002650000D02*
X001355000Y003430000D01*
X001159000Y003626000D01*
D11*
X003983000Y001504000D03*
D12*
X003983000Y001250000D03*
X003729000Y001504000D03*
X003729000Y001250000D03*
X003475000Y001504000D03*
X003475000Y001250000D03*
X003221000Y001504000D03*
X003221000Y001250000D03*
D11*
X006409000Y003104000D03*
D12*
X006663000Y003104000D03*
X006917000Y003104000D03*
X007171000Y003104000D03*
D13*
X005139000Y002300000D03*
D14*
X005309000Y002300000D03*
X005479000Y002300000D03*
X005649000Y002300000D03*
X005819000Y002300000D03*
D15*
X002017000Y001950000D03*
X001001000Y001950000D03*
G36*
G01**
X002649000Y006515000D02*
X002648520Y006519877D01*
X002647097Y006524567D01*
X002644787Y006528889D01*
X002641678Y006532678D01*
X002637889Y006535787D01*
X002633567Y006538097D01*
X002628877Y006539520D01*
X002624000Y006540000D01*
X002394000Y006540000D01*
X002389123Y006539520D01*
X002384433Y006538097D01*
X002380111Y006535787D01*
X002376322Y006532678D01*
X002373213Y006528889D01*
X002370903Y006524567D01*
X002369480Y006519877D01*
X002369000Y006515000D01*
X002369000Y006285000D01*
X002369480Y006280123D01*
X002370903Y006275433D01*
X002373213Y006271111D01*
X002376322Y006267322D01*
X002380111Y006264213D01*
X002384433Y006261903D01*
X002389123Y006260480D01*
X002394000Y006260000D01*
X002624000Y006260000D01*
X002628877Y006260480D01*
X002633567Y006261903D01*
X002637889Y006264213D01*
X002641678Y006267322D01*
X002644787Y006271111D01*
X002647097Y006275433D01*
X002648520Y006280123D01*
X002649000Y006285000D01*
X002649000Y006285000D01*
X002649000Y006515000D01*
G37*
D16*
X003009000Y006400000D03*
D17*
X003221000Y002450000D03*
D18*
X003475000Y002450000D03*
X003729000Y002450000D03*
X003983000Y002450000D03*
G36*
G01**
X006324000Y006418250D02*
X006323520Y006423127D01*
X006322097Y006427817D01*
X006319787Y006432139D01*
X006316678Y006435928D01*
X006312889Y006439037D01*
X006308567Y006441347D01*
X006303877Y006442770D01*
X006299000Y006443250D01*
X006069000Y006443250D01*
X006064123Y006442770D01*
X006059433Y006441347D01*
X006055111Y006439037D01*
X006051322Y006435928D01*
X006048213Y006432139D01*
X006045903Y006427817D01*
X006044480Y006423127D01*
X006044000Y006418250D01*
X006044000Y006188250D01*
X006044480Y006183373D01*
X006045903Y006178683D01*
X006048213Y006174361D01*
X006051322Y006170572D01*
X006055111Y006167463D01*
X006059433Y006165153D01*
X006064123Y006163730D01*
X006069000Y006163250D01*
X006299000Y006163250D01*
X006303877Y006163730D01*
X006308567Y006165153D01*
X006312889Y006167463D01*
X006316678Y006170572D01*
X006319787Y006174361D01*
X006322097Y006178683D01*
X006323520Y006183373D01*
X006324000Y006188250D01*
X006324000Y006188250D01*
X006324000Y006418250D01*
G37*
D16*
X006684000Y006303250D03*
D15*
X006159000Y001700000D03*
X006659000Y001700000D03*
G36*
G01**
X001240000Y006515000D02*
X001239520Y006519877D01*
X001238097Y006524567D01*
X001235787Y006528889D01*
X001232678Y006532678D01*
X001228889Y006535787D01*
X001224567Y006538097D01*
X001219877Y006539520D01*
X001215000Y006540000D01*
X000985000Y006540000D01*
X000980123Y006539520D01*
X000975433Y006538097D01*
X000971111Y006535787D01*
X000967322Y006532678D01*
X000964213Y006528889D01*
X000961903Y006524567D01*
X000960480Y006519877D01*
X000960000Y006515000D01*
X000960000Y006285000D01*
X000960480Y006280123D01*
X000961903Y006275433D01*
X000964213Y006271111D01*
X000967322Y006267322D01*
X000971111Y006264213D01*
X000975433Y006261903D01*
X000980123Y006260480D01*
X000985000Y006260000D01*
X001215000Y006260000D01*
X001219877Y006260480D01*
X001224567Y006261903D01*
X001228889Y006264213D01*
X001232678Y006267322D01*
X001235787Y006271111D01*
X001238097Y006275433D01*
X001239520Y006280123D01*
X001240000Y006285000D01*
X001240000Y006285000D01*
X001240000Y006515000D01*
G37*
D16*
X001600000Y006400000D03*
G36*
G01**
X001319000Y003761000D02*
X001318520Y003765877D01*
X001317097Y003770567D01*
X001314787Y003774889D01*
X001311678Y003778678D01*
X001307889Y003781787D01*
X001303567Y003784097D01*
X001298877Y003785520D01*
X001294000Y003786000D01*
X001024000Y003786000D01*
X001019123Y003785520D01*
X001014433Y003784097D01*
X001010111Y003781787D01*
X001006322Y003778678D01*
X001003213Y003774889D01*
X001000903Y003770567D01*
X000999480Y003765877D01*
X000999000Y003761000D01*
X000999000Y003491000D01*
X000999480Y003486123D01*
X001000903Y003481433D01*
X001003213Y003477111D01*
X001006322Y003473322D01*
X001010111Y003470213D01*
X001014433Y003467903D01*
X001019123Y003466480D01*
X001024000Y003466000D01*
X001294000Y003466000D01*
X001298877Y003466480D01*
X001303567Y003467903D01*
X001307889Y003470213D01*
X001311678Y003473322D01*
X001314787Y003477111D01*
X001317097Y003481433D01*
X001318520Y003486123D01*
X001319000Y003491000D01*
X001319000Y003491000D01*
X001319000Y003761000D01*
G37*
D19*
X001159000Y005150000D03*
G36*
G01**
X005069000Y006797000D02*
X005068520Y006801877D01*
X005067097Y006806567D01*
X005064787Y006810889D01*
X005061678Y006814678D01*
X005057889Y006817787D01*
X005053567Y006820097D01*
X005048877Y006821520D01*
X005044000Y006822000D01*
X004774000Y006822000D01*
X004769123Y006821520D01*
X004764433Y006820097D01*
X004760111Y006817787D01*
X004756322Y006814678D01*
X004753213Y006810889D01*
X004750903Y006806567D01*
X004749480Y006801877D01*
X004749000Y006797000D01*
X004749000Y006527000D01*
X004749480Y006522123D01*
X004750903Y006517433D01*
X004753213Y006513111D01*
X004756322Y006509322D01*
X004760111Y006506213D01*
X004764433Y006503903D01*
X004769123Y006502480D01*
X004774000Y006502000D01*
X005044000Y006502000D01*
X005048877Y006502480D01*
X005053567Y006503903D01*
X005057889Y006506213D01*
X005061678Y006509322D01*
X005064787Y006513111D01*
X005067097Y006517433D01*
X005068520Y006522123D01*
X005069000Y006527000D01*
X005069000Y006527000D01*
X005069000Y006797000D01*
G37*
X004909000Y005138000D03*
D15*
X001501000Y001200000D03*
X002517000Y001200000D03*
G36*
G01**
X006839000Y004305000D02*
X006838520Y004309877D01*
X006837097Y004314567D01*
X006834787Y004318889D01*
X006831678Y004322678D01*
X006827889Y004325787D01*
X006823567Y004328097D01*
X006818877Y004329520D01*
X006814000Y004330000D01*
X006704000Y004330000D01*
X006699123Y004329520D01*
X006694433Y004328097D01*
X006690111Y004325787D01*
X006686322Y004322678D01*
X006683213Y004318889D01*
X006680903Y004314567D01*
X006679480Y004309877D01*
X006679000Y004305000D01*
X006679000Y004195000D01*
X006679480Y004190123D01*
X006680903Y004185433D01*
X006683213Y004181111D01*
X006686322Y004177322D01*
X006690111Y004174213D01*
X006694433Y004171903D01*
X006699123Y004170480D01*
X006704000Y004170000D01*
X006814000Y004170000D01*
X006818877Y004170480D01*
X006823567Y004171903D01*
X006827889Y004174213D01*
X006831678Y004177322D01*
X006834787Y004181111D01*
X006837097Y004185433D01*
X006838520Y004190123D01*
X006839000Y004195000D01*
X006839000Y004195000D01*
X006839000Y004305000D01*
G37*
X006559000Y004250000D03*
D20*
X001101000Y002650000D03*
D21*
X001355000Y002650000D03*
X001609000Y002650000D03*
G36*
G01**
X004819000Y004263000D02*
X004818520Y004267877D01*
X004817097Y004272567D01*
X004814787Y004276889D01*
X004811678Y004280678D01*
X004807889Y004283787D01*
X004803567Y004286097D01*
X004798877Y004287520D01*
X004794000Y004288000D01*
X004594000Y004288000D01*
X004589123Y004287520D01*
X004584433Y004286097D01*
X004580111Y004283787D01*
X004576322Y004280678D01*
X004573213Y004276889D01*
X004570903Y004272567D01*
X004569480Y004267877D01*
X004569000Y004263000D01*
X004569000Y004083000D01*
X004569480Y004078123D01*
X004570903Y004073433D01*
X004573213Y004069111D01*
X004576322Y004065322D01*
X004580111Y004062213D01*
X004584433Y004059903D01*
X004589123Y004058480D01*
X004594000Y004058000D01*
X004794000Y004058000D01*
X004798877Y004058480D01*
X004803567Y004059903D01*
X004807889Y004062213D01*
X004811678Y004065322D01*
X004814787Y004069111D01*
X004817097Y004073433D01*
X004818520Y004078123D01*
X004819000Y004083000D01*
X004819000Y004083000D01*
X004819000Y004263000D01*
G37*
G36*
G01**
X005249000Y004263000D02*
X005248520Y004267877D01*
X005247097Y004272567D01*
X005244787Y004276889D01*
X005241678Y004280678D01*
X005237889Y004283787D01*
X005233567Y004286097D01*
X005228877Y004287520D01*
X005224000Y004288000D01*
X005024000Y004288000D01*
X005019123Y004287520D01*
X005014433Y004286097D01*
X005010111Y004283787D01*
X005006322Y004280678D01*
X005003213Y004276889D01*
X005000903Y004272567D01*
X004999480Y004267877D01*
X004999000Y004263000D01*
X004999000Y004083000D01*
X004999480Y004078123D01*
X005000903Y004073433D01*
X005003213Y004069111D01*
X005006322Y004065322D01*
X005010111Y004062213D01*
X005014433Y004059903D01*
X005019123Y004058480D01*
X005024000Y004058000D01*
X005224000Y004058000D01*
X005228877Y004058480D01*
X005233567Y004059903D01*
X005237889Y004062213D01*
X005241678Y004065322D01*
X005244787Y004069111D01*
X005247097Y004073433D01*
X005248520Y004078123D01*
X005249000Y004083000D01*
X005249000Y004083000D01*
X005249000Y004263000D01*
G37*
D15*
X006809000Y002400000D03*
X007309000Y002400000D03*
M02*